<?xml version="1.0" encoding="UTF-8"?>
<svg version="1.1" xmlns="http://www.w3.org/2000/svg" width="500" height="98">
<path d="M0 0 C0.495 1.485 0.495 1.485 1 3 C2.11375 3.0825 3.2275 3.165 4.375 3.25 C16.73773442 4.9417426 25.41405793 11.92154689 32.98828125 21.51953125 C39.94746117 32.20869345 41.09091613 44.23540178 39.4375 56.625 C39.293125 57.73875 39.14875 58.8525 39 60 C39.33 60.33 39.66 60.66 40 61 C40.29718836 63.82328946 40.42837659 65.40027277 38.75 67.75 C37 69 37 69 35.0625 69.3125 C32.31604384 70.22798539 31.71077026 71.8842232 30.234375 74.2578125 C24.77328058 81.96555969 15.17734157 87.64180304 6.05078125 89.6484375 C-8.1424952 91.28402634 -20.33495982 89.5305566 -32 81 C-35.18311042 78.2766722 -38.19780279 75.66820556 -40.03125 71.85546875 C-41.41212049 69.21065632 -43.27889235 69.02041537 -46 68 C-48.34443169 64.48335247 -47.94071872 63.15543733 -47.19140625 59.1328125 C-46.96155037 56.5715613 -47.45477873 54.50724995 -48 52 C-49.16246351 40.28008102 -46.28802051 28.66020439 -39.03125 19.3125 C-31.80406757 11.08463078 -24.75101391 5.8039997 -14 3 C-11.11328125 2.87890625 -11.11328125 2.87890625 -9 3 C-8.67 2.01 -8.34 1.02 -8 0 C-5.13822943 -1.43088528 -3.06624227 -0.59991697 0 0 Z M-5 3 C-4.67 3.99 -4.34 4.98 -4 6 C-3.34 5.34 -2.68 4.68 -2 4 C-2.99 3.67 -3.98 3.34 -5 3 Z M-29 14 C-29.825 14.556875 -30.65 15.11375 -31.5 15.6875 C-39.25221723 22.85830094 -44.36768902 33.67702292 -45.16796875 44.2109375 C-45.21214869 49.10607468 -45.03914488 53.45826821 -43 58 C-39.99405579 59.53146378 -39.99405579 59.53146378 -37 60 C-37 60.66 -37 61.32 -37 62 C-34.56183415 62.0809723 -32.12635616 62.14046972 -29.6875 62.1875 C-28.99720703 62.21263672 -28.30691406 62.23777344 -27.59570312 62.26367188 C-23.69530402 62.38904112 -23.69530402 62.38904112 -20.29492188 60.73242188 C-18.72011503 58.62555359 -18.64829364 57.59231522 -18.70703125 54.98828125 C-18.71669922 54.23095703 -18.72636719 53.47363281 -18.73632812 52.69335938 C-18.76146484 51.90767578 -18.78660156 51.12199219 -18.8125 50.3125 C-18.82603516 49.51521484 -18.83957031 48.71792969 -18.85351562 47.89648438 C-18.88882911 45.93070033 -18.94263553 43.96526418 -19 42 C-19.66 42 -20.32 42 -21 42 C-21 39.03 -21 36.06 -21 33 C-15.58860759 32.63924051 -15.58860759 32.63924051 -13.0625 34.1875 C-12 36 -12 36 -12.1875 38.625 C-13 41 -13 41 -15 42 C-15.08089542 44.77141717 -15.14044062 47.54047819 -15.1875 50.3125 C-15.21263672 51.09818359 -15.23777344 51.88386719 -15.26367188 52.69335938 C-15.27333984 53.45068359 -15.28300781 54.20800781 -15.29296875 54.98828125 C-15.3086792 55.68477783 -15.32438965 56.38127441 -15.34057617 57.09887695 C-14.90178211 59.54826 -13.75523481 60.30790103 -12 62 C-12.42105263 66.42105263 -12.42105263 66.42105263 -14 68 C-16.9375 68.25 -16.9375 68.25 -20 68 C-20.66 67.01 -21.32 66.02 -22 65 C-24.62697064 64.77862607 -27.00893964 64.71837975 -29.625 64.8125 C-30.33140625 64.82603516 -31.0378125 64.83957031 -31.765625 64.85351562 C-33.51074128 64.8888896 -35.25546608 64.94269779 -37 65 C-37.76569854 66.80242219 -37.76569854 66.80242219 -38 69 C-33.44290728 76.97902517 -24.30864051 83.25202101 -15.6875 85.9375 C-3.05430852 88.75867619 8.61162399 87.13817903 19.7421875 80.3203125 C24.09155812 77.1117604 27.61292705 73.88264923 30 69 C29.63912443 66.86196742 29.63912443 66.86196742 29 65 C25.04907941 64.92590599 21.09842706 64.87142594 17.14697266 64.83520508 C15.14080626 64.81267749 13.13483474 64.7745643 11.12890625 64.73632812 C9.87207031 64.72666016 8.61523438 64.71699219 7.3203125 64.70703125 C6.15773926 64.6913208 4.99516602 64.67561035 3.79736328 64.65942383 C2.8742334 64.77181396 1.95110352 64.8842041 1 65 C0.34 65.99 -0.32 66.98 -1 68 C-3.31 67.67 -5.62 67.34 -8 67 C-8 64.69 -8 62.38 -8 60 C-7.34 59.67 -6.68 59.34 -6 59 C-5.92396572 52.09496103 -5.87140682 45.19002993 -5.83520508 38.28466797 C-5.8201141 35.93534307 -5.79963908 33.58604637 -5.77368164 31.23681641 C-5.7373128 27.86093185 -5.72027662 24.48541963 -5.70703125 21.109375 C-5.69154739 20.05820496 -5.67606354 19.00703491 -5.66011047 17.92401123 C-5.65977058 16.45293915 -5.65977058 16.45293915 -5.65942383 14.95214844 C-5.65276199 14.09055115 -5.64610016 13.22895386 -5.63923645 12.34124756 C-6.08840766 9.42626069 -6.8964166 8.05707147 -9 6 C-16.44330487 6 -23.10426259 9.61247449 -29 14 Z M-0.72573853 7.69346619 C-2.18677818 10.33808618 -2.37977084 11.89953807 -2.38818359 14.90454102 C-2.39764008 15.87557266 -2.40709656 16.84660431 -2.4168396 17.84706116 C-2.41076691 18.88882004 -2.40469421 19.93057892 -2.3984375 21.00390625 C-2.40130768 22.07873764 -2.40417786 23.15356903 -2.40713501 24.26097107 C-2.4091752 26.53132657 -2.4036485 28.80169967 -2.39111328 31.07202148 C-2.375044 34.55296972 -2.39097225 38.03275954 -2.41015625 41.51367188 C-2.40817412 43.71875257 -2.40433107 45.92383254 -2.3984375 48.12890625 C-2.40451019 49.17268936 -2.41058289 50.21647247 -2.4168396 51.29188538 C-2.40738312 52.25976486 -2.39792664 53.22764435 -2.38818359 54.22485352 C-2.38579681 55.0766066 -2.38341003 55.92835968 -2.38095093 56.80592346 C-1.91349436 59.4982269 -1.17404589 60.38523664 1 62 C5.57354898 62.65631003 10.19726763 62.46299852 14.8125 62.4375 C16.08416016 62.45748047 17.35582031 62.47746094 18.66601562 62.49804688 C27.70759459 62.63946381 27.70759459 62.63946381 35 58 C38.65896612 49.2502984 37.20025809 39.33174725 33.8125 30.6875 C28.07988602 18.25591711 20.2607512 12.04264104 7.734375 6.8828125 C3.16120463 5.40343703 3.16120463 5.40343703 -0.72573853 7.69346619 Z M-43 62 C-43 63.32 -43 64.64 -43 66 C-42.01 65.67 -41.02 65.34 -40 65 C-40.33 64.01 -40.66 63.02 -41 62 C-41.66 62 -42.32 62 -43 62 Z M-18 62 C-18 62.99 -18 63.98 -18 65 C-17.01 65 -16.02 65 -15 65 C-15.66 64.67 -16.32 64.34 -17 64 C-17.33 63.34 -17.66 62.68 -18 62 Z M-5 62 C-5 62.99 -5 63.98 -5 65 C-4.34 65.33 -3.68 65.66 -3 66 C-2.67 65.01 -2.34 64.02 -2 63 C-2.99 62.67 -3.98 62.34 -5 62 Z M33 62 C33 62.99 33 63.98 33 65 C33.99 65 34.98 65 36 65 C36 64.01 36 63.02 36 62 C35.01 62 34.02 62 33 62 Z " fill="#F9FCFD" transform="translate(66,5)"/>
<path d="M0 0 C2.64 0 5.28 0 8 0 C9.15059529 4.2070461 10.29463264 8.41584859 11.4375 12.625 C11.92573242 14.40970703 11.92573242 14.40970703 12.42382812 16.23046875 C12.73642578 17.38417969 13.04902344 18.53789063 13.37109375 19.7265625 C13.65911865 20.78439941 13.94714355 21.84223633 14.24389648 22.93212891 C14.98595768 25.94302366 15.53211274 28.93563966 16 32 C14.1875 32.625 14.1875 32.625 12 33 C9 31 9 31 8.3125 27.875 C8.209375 26.92625 8.10625 25.9775 8 25 C5.36 25 2.72 25 0 25 C-0.66 27.31 -1.32 29.62 -2 32 C-4.97 32.495 -4.97 32.495 -8 33 C-6.61094441 25.53304988 -4.82626754 18.21325973 -2.875 10.875 C-2.59785156 9.823125 -2.32070312 8.77125 -2.03515625 7.6875 C-1.35940147 5.12429222 -0.68097519 2.56182482 0 0 Z M3 12 C2.34 14.31 1.68 16.62 1 19 C2.65 18.67 4.3 18.34 6 18 C5.67 16.02 5.34 14.04 5 12 C4.34 12 3.68 12 3 12 Z " fill="#FCFDFD" transform="translate(258,33)"/>
<path d="M0 0 C1.65 0 3.3 0 5 0 C5.33 10.89 5.66 21.78 6 33 C-1.36363636 34.22727273 -1.36363636 34.22727273 -4.5 34.375 C-5.2115625 34.42398438 -5.923125 34.47296875 -6.65625 34.5234375 C-10.26823201 33.71676152 -12.7843949 31.89149259 -15 29 C-15.59895297 26.00216361 -15.80505921 23.9635856 -15.6875 21 C-15.70232422 20.30132812 -15.71714844 19.60265625 -15.73242188 18.8828125 C-15.67065189 15.03127226 -15.10054715 13.13225279 -12.7578125 10.05078125 C-9.94215292 7.9569834 -8.62708726 7.34151137 -5.1875 7.1875 C-4.39730469 7.13980469 -3.60710937 7.09210937 -2.79296875 7.04296875 C-2.20128906 7.02878906 -1.60960937 7.01460937 -1 7 C-0.67 4.69 -0.34 2.38 0 0 Z M-10 15 C-10.5587028 17.6319885 -10.5587028 17.6319885 -10.375 20.5 C-10.36210937 21.4590625 -10.34921875 22.418125 -10.3359375 23.40625 C-10.16460918 26.23325478 -10.16460918 26.23325478 -8 29 C-5 29.5 -5 29.5 -2 29 C0.94145565 24.58781652 0.81110884 20.1767829 0 15 C-4.13487587 11.28921396 -6.06383571 11.29906465 -10 15 Z " fill="#FBFDFD" transform="translate(425,32)"/>
<path d="M0 0 C4.56944444 2.13888889 4.56944444 2.13888889 6 5 C6.06996014 6.70702735 6.08440154 8.41668003 6.0625 10.125 C6.05347656 11.03507812 6.04445312 11.94515625 6.03515625 12.8828125 C6.02355469 13.58148438 6.01195312 14.28015625 6 15 C5.34 15 4.68 15 4 15 C4 16.32 4 17.64 4 19 C4.66 19 5.32 19 6 19 C5.69611836 21.93752254 5.19330344 22.84080893 2.875 24.75 C-0.7098228 26.30861861 -3.12117952 26.41558791 -7 26 C-9.87305972 24.59539303 -11.74510999 23.25489001 -14 21 C-14.25343388 18.50986479 -14.37025062 16.17854842 -14.375 13.6875 C-14.40335938 12.37136719 -14.43171875 11.05523437 -14.4609375 9.69921875 C-13.93968036 5.5159093 -12.95802201 3.9305311 -10 1 C-6.81092735 -0.59453633 -3.47055318 -0.38561702 0 0 Z M-8 6 C-7.67 7.32 -7.34 8.64 -7 10 C-3.535 9.505 -3.535 9.505 0 9 C0 7.68 0 6.36 0 5 C-3.04386724 4.91773332 -5.07175348 5.02391783 -8 6 Z M-9 15 C-8.42655063 17.86724686 -8.1385485 18.8614515 -6 21 C-2.91652174 21.16681109 -2.91652174 21.16681109 0 21 C0.33 19.35 0.66 17.7 1 16 C-1.28705831 14.85647084 -2.59264762 14.89665561 -5.125 14.9375 C-7.043125 14.9684375 -7.043125 14.9684375 -9 15 Z " fill="#FBFDFD" transform="translate(213,40)"/>
<path d="M0 0 C2.9375 2.3125 2.9375 2.3125 5 5 C5 6.32 5 7.64 5 9 C3.35 9 1.7 9 0 9 C-0.33 7.68 -0.66 6.36 -1 5 C-3.31 5 -5.62 5 -8 5 C-9.33333333 8 -9.33333333 8 -8 11 C-5.77925912 12.35746273 -5.77925912 12.35746273 -3.125 13.5 C2.75729781 16.17533078 2.75729781 16.17533078 5 19 C6.00305755 22.86893627 6.3820015 25.09525961 4.8125 28.8125 C2.86322363 31.16507493 1.90567066 32.11215619 -1 33 C-6.20981469 33.48239025 -9.59553511 32.86802365 -14 30 C-15.80935423 27.36821203 -16 26.2388234 -16 23 C-13.6875 22.75 -13.6875 22.75 -11 23 C-10.54625 23.66 -10.0925 24.32 -9.625 25 C-9.08875 25.66 -8.5525 26.32 -8 27 C-4.37436186 27.33380814 -4.37436186 27.33380814 -1 27 C-0.22757731 25.16299211 -0.22757731 25.16299211 0 23 C-2.00119529 20.53650327 -4.05852846 19.3738437 -6.9375 18.125 C-10.63236685 16.35227896 -12.7514462 14.50774393 -15 11 C-16 8 -16 8 -14.9375 5 C-11.15029524 -0.86405898 -6.56128519 -1.90873751 0 0 Z " fill="#FBFDFD" transform="translate(135,33)"/>
<path d="M0 0 C2.96895596 1.16990384 3.76455149 1.5408754 5.25 4.4375 C6.49885115 10.36954298 7.07440917 16.36769753 4.75 22.0625 C1.80059573 25.32791187 -0.03481462 25.91225587 -4.4375 26.3125 C-8.23927362 25.97901109 -10.00751736 25.30848661 -13 23 C-16.40745182 17.88882227 -15.63450983 11.95620516 -15 6 C-12.62682563 -0.95087112 -6.35980854 -1.07547982 0 0 Z M-9 7 C-9.28190557 10.09322457 -9.28190557 10.09322457 -9.1875 13.5625 C-9.18105469 14.73941406 -9.17460937 15.91632812 -9.16796875 17.12890625 C-9.32517435 19.89635973 -9.32517435 19.89635973 -8 21 C-5.04182893 21.25005386 -5.04182893 21.25005386 -2 21 C0.31899256 19.11496902 0.31899256 19.11496902 0.23046875 15.99609375 C0.21628906 14.82175781 0.20210938 13.64742187 0.1875 12.4375 C0.18105469 11.26058594 0.17460937 10.08367188 0.16796875 8.87109375 C0.32517435 6.10364027 0.32517435 6.10364027 -1 5 C-5.49885769 4.53277305 -5.49885769 4.53277305 -9 7 Z " fill="#FCFDFE" transform="translate(372,40)"/>
<path d="M0 0 C0.74121094 -0.02835938 1.48242188 -0.05671875 2.24609375 -0.0859375 C5.81260567 0.62375627 7.19801113 1.57233662 9.5625 4.375 C10.18118999 7.97541607 10.03249587 11.48563388 9.875 15.125 C9.85244141 16.10855469 9.82988281 17.09210937 9.80664062 18.10546875 C9.74778805 20.5301947 9.66563431 22.95181983 9.5625 25.375 C6.37093552 26.43885483 3.97752524 26.54177982 0.625 26.5625 C-0.93541016 26.58376953 -0.93541016 26.58376953 -2.52734375 26.60546875 C-5.43487434 26.37520794 -7.01696961 25.9524243 -9.4375 24.375 C-11.3125 22.0625 -11.3125 22.0625 -12.4375 19.375 C-11.80494846 16.13317335 -10.59047398 14.55187617 -8.4375 12.0625 C-4.13616527 9.64299922 -0.26531577 10.03752162 4.5625 10.375 C4.2325 9.055 3.9025 7.735 3.5625 6.375 C0.70471967 5.69006627 0.70471967 5.69006627 -2.4375 5.375 C-3.4275 6.035 -4.4175 6.695 -5.4375 7.375 C-8.125 7.5 -8.125 7.5 -10.4375 7.375 C-8.96383081 2.7083809 -8.96383081 2.7083809 -6.63671875 1.234375 C-4.28688649 0.3161457 -2.51594774 0.04360395 0 0 Z M-5.4375 15.375 C-5.60437448 17.79145782 -5.60437448 17.79145782 -5.4375 20.375 C-4.7775 21.035 -4.1175 21.695 -3.4375 22.375 C1.06567123 22.02236215 1.06567123 22.02236215 4.5625 19.375 C4.72937448 16.79145782 4.72937448 16.79145782 4.5625 14.375 C3.28375 14.354375 2.005 14.33375 0.6875 14.3125 C-0.03179687 14.30089844 -0.75109375 14.28929687 -1.4921875 14.27734375 C-3.51935404 14.24850758 -3.51935404 14.24850758 -5.4375 15.375 Z " fill="#FBFDFD" transform="translate(156.4375,39.625)"/>
<path d="M0 0 C3.49890004 2.11391877 4.70578686 3.11736059 6 7 C6.17066284 9.12069561 6.2662598 11.24795098 6.3125 13.375 C6.34988281 14.49648438 6.38726562 15.61796875 6.42578125 16.7734375 C5.91124451 20.67258749 4.76779131 22.25714375 2 25 C-2.55062413 26.51687471 -6.38234396 26.71895824 -10.8125 24.75 C-13.20681769 22.83454585 -13.90615536 21.82857624 -15 19 C-15.3359375 15.94140625 -15.3359375 15.94140625 -15.375 12.5625 C-15.40335937 11.45003906 -15.43171875 10.33757813 -15.4609375 9.19140625 C-14.90673868 5.35428393 -13.67977902 3.74453205 -11 1 C-7.53984865 -0.73007568 -3.78327445 -0.4835273 0 0 Z M-8 5 C-9.55053541 9.65160624 -9.82489894 14.93775265 -8 19.5 C-7.67 19.995 -7.34 20.49 -7 21 C-4.08365871 21.2502157 -4.08365871 21.2502157 -1 21 C1.20914 17.68629 1.22481553 16.6553979 1.125 12.8125 C1.10695313 11.91144531 1.08890625 11.01039062 1.0703125 10.08203125 C1.04710937 9.39496094 1.02390625 8.70789063 1 8 C0.34 8 -0.32 8 -1 8 C-1.33 7.01 -1.66 6.02 -2 5 C-3.98 5 -5.96 5 -8 5 Z " fill="#FCFDFD" transform="translate(451,40)"/>
<path d="M0 0 C6.6 0 13.2 0 20 0 C20 1.32 20 2.64 20 4 C15.25 5.125 15.25 5.125 13 4 C13.33 4.99 13.66 5.98 14 7 C14.01560763 8.62933154 13.96765104 10.25973097 13.87890625 11.88671875 C13.83056641 12.82451172 13.78222656 13.76230469 13.73242188 14.72851562 C13.67634766 15.70498047 13.62027344 16.68144531 13.5625 17.6875 C13.51029297 18.67556641 13.45808594 19.66363281 13.40429688 20.68164062 C13.27464694 23.12141676 13.13968258 25.56078105 13 28 C15.31 28 17.62 28 20 28 C20 29.32 20 30.64 20 32 C13.43507888 32.78441153 7.53162622 33.10914408 1 32 C0.67 30.68 0.34 29.36 0 28 C1.98 27.34 3.96 26.68 6 26 C6.33 19.07 6.66 12.14 7 5 C4.69 4.67 2.38 4.34 0 4 C0 2.68 0 1.36 0 0 Z " fill="#FBFDFD" transform="translate(278,33)"/>
<path d="M0 0 C2.371875 -0.103125 4.74375 -0.20625 7.1875 -0.3125 C7.92508545 -0.35802002 8.6626709 -0.40354004 9.42260742 -0.45043945 C12.99905412 -0.52530093 14.94301959 -0.03598763 17.96875 1.875 C20.88529547 6.36199303 20.55255925 10.08659472 20.3125 15.3125 C20.28994141 16.24384766 20.26738281 17.17519531 20.24414062 18.13476562 C20.18542078 20.4248396 20.10336858 22.71157875 20 25 C18.35 25 16.7 25 15 25 C14.67 18.73 14.34 12.46 14 6 C12.02 6 10.04 6 8 6 C6.27706865 10.46334184 5.77759209 14.10201231 5.875 18.875 C5.89304687 20.02742188 5.91109375 21.17984375 5.9296875 22.3671875 C5.95289063 23.23601563 5.97609375 24.10484375 6 25 C3 26 3 26 0 25 C0 16.75 0 8.5 0 0 Z " fill="#FCFDFD" transform="translate(384,40)"/>
<path d="M0 0 C3.58875 -0.0928125 3.58875 -0.0928125 7.25 -0.1875 C8.37003418 -0.22846802 8.37003418 -0.22846802 9.51269531 -0.27026367 C12.58938452 -0.30874297 14.70399594 -0.16184738 17.421875 1.32421875 C20.11258468 4.18143274 20.1214439 6.93330842 20.09765625 10.66796875 C20.09443359 11.56064453 20.09121094 12.45332031 20.08789062 13.37304688 C20.07951172 14.30181641 20.07113281 15.23058594 20.0625 16.1875 C20.05798828 17.12787109 20.05347656 18.06824219 20.04882812 19.03710938 C20.03704626 21.35813712 20.02059558 23.67903644 20 26 C18.02 25.67 16.04 25.34 14 25 C14.02320313 23.96359375 14.04640625 22.9271875 14.0703125 21.859375 C14.08907667 20.48959056 14.10727618 19.1197983 14.125 17.75 C14.14175781 17.06808594 14.15851563 16.38617188 14.17578125 15.68359375 C14.21213482 11.9391765 14.07944349 9.17647273 12 6 C10.33388095 5.957279 8.66617115 5.95936168 7 6 C5.80658248 6.97332261 5.80658248 6.97332261 5.88647461 8.76586914 C5.89171143 9.51473389 5.89694824 10.26359863 5.90234375 11.03515625 C5.90556641 11.84404297 5.90878906 12.65292969 5.91210938 13.48632812 C5.92048828 14.33646484 5.92886719 15.18660156 5.9375 16.0625 C5.94201172 16.91650391 5.94652344 17.77050781 5.95117188 18.65039062 C5.96299627 20.76695663 5.98093231 22.88348685 6 25 C4.02 25 2.04 25 0 25 C0 16.75 0 8.5 0 0 Z " fill="#FBFDFD" transform="translate(463,40)"/>
<path d="M0 0 C0.33 1.65 0.66 3.3 1 5 C-2.3 5 -5.6 5 -9 5 C-9 6.98 -9 8.96 -9 11 C-5.7 11 -2.4 11 1 11 C1 12.32 1 13.64 1 15 C-2.3 15 -5.6 15 -9 15 C-9 20.94 -9 26.88 -9 33 C-10.98 33.495 -10.98 33.495 -13 34 C-15 32 -15 32 -15.23046875 28.59375 C-15.22647854 27.22909733 -15.21172843 25.8644434 -15.1875 24.5 C-15.18685547 23.81035156 -15.18621094 23.12070312 -15.18554688 22.41015625 C-15.14055525 17.28111049 -15.14055525 17.28111049 -14 15 C-14.99 15.33 -15.98 15.66 -17 16 C-19.6875 15.5625 -19.6875 15.5625 -22 15 C-21.67 13.68 -21.34 12.36 -21 11 C-19.02 10.67 -17.04 10.34 -15 10 C-14.938125 8.906875 -14.87625 7.81375 -14.8125 6.6875 C-14 3 -14 3 -12 1.0625 C-7.94015168 -0.37536295 -4.26168837 -0.25068755 0 0 Z " fill="#FBFDFD" transform="translate(193,32)"/>
<path d="M0 0 C1.65 0 3.3 0 5 0 C6.20514375 9.33986409 6.09213655 18.60207216 6 28 C10.62 28 15.24 28 20 28 C20 29.32 20 30.64 20 32 C13.4 32.33 6.8 32.66 0 33 C-1.17666109 29.47001672 -1.02013769 26.86362584 -0.87890625 23.14453125 C-0.85529526 22.48289474 -0.83168427 21.82125824 -0.80735779 21.13957214 C-0.73090143 19.03031998 -0.64680043 16.9214518 -0.5625 14.8125 C-0.5092612 13.38087804 -0.45652093 11.94923746 -0.40429688 10.51757812 C-0.27531118 7.01148424 -0.13946876 3.50569429 0 0 Z " fill="#FBFDFD" transform="translate(332,33)"/>
</svg>
