<?xml version="1.0" encoding="UTF-8"?>
<svg version="1.1" xmlns="http://www.w3.org/2000/svg" width="512" height="512">
<path d="M0 0 C4.44464114 3.93614406 6.2374919 9.06093475 6.77731586 14.84780312 C6.88692278 18.49056236 6.89968358 22.12245409 6.88095093 25.7668457 C6.88441088 27.178734 6.88917771 28.5906196 6.89513266 30.00249958 C6.90762601 33.86839216 6.90147993 37.73406182 6.89217401 41.59995508 C6.88537701 45.77452745 6.89586797 49.94906191 6.90411377 54.12362671 C6.91744635 62.29612544 6.91457548 70.46854147 6.90587585 78.64104342 C6.89909784 85.28362122 6.89818309 91.92617585 6.9014473 98.5687561 C6.901907 99.51453595 6.90236669 100.46031579 6.90284032 101.43475562 C6.90379951 103.35615151 6.90477215 105.27754739 6.9057581 107.19894326 C6.9143106 125.21148755 6.90448005 143.22398602 6.888357 161.23652279 C6.87495395 176.68862929 6.87728208 192.14066816 6.89111328 207.59277344 C6.90717155 225.54132163 6.91348664 243.48982968 6.90427649 261.43838406 C6.90332085 263.35267066 6.90237774 265.26695728 6.9014473 267.1812439 C6.90098447 268.12308401 6.90052164 269.06492412 6.90004479 270.03530484 C6.89745565 276.66910505 6.90182428 283.30287977 6.90888596 289.93667603 C6.91730389 298.02220419 6.91501462 306.10764499 6.89904372 314.19316316 C6.89116497 318.31770145 6.88806265 322.44209413 6.89799118 326.56663132 C6.90694681 330.34416256 6.90199108 334.12141355 6.88605852 337.89891946 C6.88113324 339.90876032 6.89089948 341.91862071 6.90123022 343.92844105 C6.8517553 351.53200048 6.50441098 357.80770777 1.84375 364.1171875 C-3.45953455 368.81374035 -8.3685889 370.80368589 -15.5 370.875 C-26.8879731 369.38721642 -34.09303711 359.31023035 -41.03955078 351.10009766 C-42.74078561 349.1201057 -44.44389356 347.1419747 -46.1512146 345.16725159 C-46.59692102 344.65149887 -47.04262744 344.13574616 -47.50184011 343.60436457 C-56.96515089 332.68318599 -66.74959147 322.04840833 -76.625 311.5 C-77.43497279 310.63382246 -77.43497279 310.63382246 -78.26130867 309.75014639 C-113.57602902 271.14245687 -113.57602902 271.14245687 -161.9425354 255.87133789 C-176.31993811 255.4790407 -191.12474424 256.97245691 -205.21109009 259.8657074 C-206.29754979 260.08703874 -206.29754979 260.08703874 -207.40595818 260.31284142 C-209.33385475 260.72133852 -211.2539153 261.16634906 -213.17303467 261.61427307 C-217.21860572 261.93131554 -219.10213359 261.01025408 -222.5 258.875 C-224.58203125 256.9375 -224.58203125 256.9375 -226.3125 254.875 C-226.89644531 254.194375 -227.48039063 253.51375 -228.08203125 252.8125 C-230.52465015 249.47492706 -230.62788042 246.62299529 -230.64044189 242.61930847 C-230.64615204 241.53001541 -230.65186218 240.44072235 -230.65774536 239.31842041 C-230.65886322 238.1230365 -230.65998108 236.92765259 -230.66113281 235.69604492 C-230.66609772 234.43728043 -230.67106262 233.17851593 -230.67617798 231.88160706 C-230.68929374 228.42694709 -230.69574539 224.97230655 -230.70018864 221.51762557 C-230.70312085 219.35852723 -230.70722595 217.19943419 -230.71169281 215.04033852 C-230.72536591 208.28284295 -230.73503334 201.5253595 -230.7388947 194.76785105 C-230.74337438 186.97140494 -230.76091875 179.17513423 -230.7898953 171.37874144 C-230.8115239 165.3497587 -230.82159962 159.32082526 -230.82293582 153.29180413 C-230.82398306 149.69218565 -230.82987337 146.09273211 -230.84775543 142.49315453 C-230.86732356 138.47604128 -230.86294248 134.45929433 -230.85644531 130.44213867 C-230.8656601 129.25282745 -230.87487488 128.06351624 -230.8843689 126.83816528 C-230.8493475 119.93499149 -230.45585561 115.0513529 -225.5625 109.79296875 C-224.881875 109.22191406 -224.20125 108.65085937 -223.5 108.0625 C-222.819375 107.47855469 -222.13875 106.89460938 -221.4375 106.29296875 C-219.5 104.875 -219.5 104.875 -216.5 103.875 C-214.28535561 104.27893856 -212.08652668 104.77095018 -209.89941406 105.30419922 C-184.72316308 111.0108358 -152.11767456 115.55847371 -128.77974033 101.86569309 C-108.04060664 88.6255407 -90.75887268 69.40191773 -74.0625 51.5625 C-73.49031801 50.95144755 -72.91813602 50.34039511 -72.32861519 49.71082592 C-61.97536698 38.63586592 -51.73612289 27.45679838 -41.80012512 16.00508118 C-41.1036264 15.20483701 -41.1036264 15.20483701 -40.39305699 14.3884263 C-38.23127163 11.90335601 -36.08172005 9.41059342 -33.95157242 6.89817619 C-24.88231216 -3.60575201 -12.44558456 -10.07609249 0 0 Z " fill="#000000" transform="translate(230.5,73.125)"/>
<path d="M0 0 C34.69676997 14.34019594 68.63111407 40.34736256 90.87890625 70.59765625 C91.34474121 71.21415039 91.81057617 71.83064453 92.29052734 72.46582031 C121.09881851 110.60789023 140.81405858 157.60092211 141.08203125 205.953125 C141.08909088 206.80909271 141.09615051 207.66506042 141.10342407 208.54696655 C141.4743802 266.74359184 126.5032123 319.48746647 89.87890625 365.59765625 C89.09644531 366.58507812 88.31398438 367.5725 87.5078125 368.58984375 C76.1232623 382.62983089 63.15965419 395.72117458 48.54248047 406.3828125 C46.87109256 407.60336228 45.22053122 408.84868434 43.5703125 410.09765625 C5.31456855 438.65585859 5.31456855 438.65585859 -13.56640625 437.19140625 C-19.99662801 435.69692046 -24.48265371 432.05531632 -28.12109375 426.59765625 C-31.12187478 421.55984869 -30.90748619 416.28112888 -30.12109375 410.59765625 C-26.3335796 400.77099553 -17.37568259 397.18873615 -8.52050781 392.84277344 C29.78955785 374.01114926 59.14746671 344.33518154 78.87890625 306.59765625 C79.3908252 305.63085938 79.3908252 305.63085938 79.91308594 304.64453125 C99.56419971 267.03474412 104.73305573 222.07738319 96.87890625 180.59765625 C96.67007813 179.48076416 96.67007813 179.48076416 96.45703125 178.34130859 C91.50900172 152.89675396 80.8886595 127.71948921 65.87890625 106.59765625 C65.17378906 105.60121094 64.46867187 104.60476562 63.7421875 103.578125 C53.00770665 88.87362072 41.16536744 75.88548855 26.87890625 64.59765625 C25.9971875 63.88738281 25.11546875 63.17710938 24.20703125 62.4453125 C11.90314947 52.83507715 -1.80797008 44.74409726 -16.00878906 38.27124023 C-22.26452126 35.33646261 -27.07240894 30.80794012 -30.12109375 24.59765625 C-31.18082738 17.64070124 -30.77250221 11.96306268 -26.55078125 6.21484375 C-19.23692046 -2.0582119 -10.31982008 -3.84276568 0 0 Z " fill="#000000" transform="translate(371.12109375,38.40234375)"/>
<path d="M0 0 C10.70367718 6.25170526 20.57726136 13.20019179 29.63085938 21.66796875 C30.14197266 22.14202148 30.65308594 22.61607422 31.1796875 23.10449219 C62.33155029 52.28743249 79.10900922 92.5754428 80.75585938 134.87890625 C81.44188176 171.66685646 69.94351897 206.51525723 47.63085938 235.66796875 C46.9115625 236.61285156 46.19226563 237.55773437 45.45117188 238.53125 C33.24524488 253.97867776 18.98078 266.21173051 1.94335938 276.04296875 C0.64301758 276.79332397 0.64301758 276.79332397 -0.68359375 277.55883789 C-9.98624041 282.7849546 -18.64513325 287.46079228 -29.49804688 285.23046875 C-35.75222122 283.33166819 -39.16315117 279.24423152 -42.51367188 273.8125 C-44.65278711 268.45006045 -44.00489891 261.77391807 -42.36914062 256.35546875 C-37.19480498 249.40245523 -30.34826541 245.28778046 -22.74414062 241.41796875 C-13.79738428 236.67092897 -5.95130542 231.37035178 1.63085938 224.66796875 C2.51902344 223.89195312 3.4071875 223.1159375 4.32226562 222.31640625 C19.78259498 207.84805421 29.9506161 187.85004523 35.63085938 167.66796875 C35.95054687 166.58257812 36.27023437 165.4971875 36.59960938 164.37890625 C41.26365988 145.59314728 40.23122555 124.13415698 34.63085938 105.66796875 C34.42187012 104.97848145 34.21288086 104.28899414 33.99755859 103.57861328 C23.83612939 71.41978303 1.4152703 48.58160991 -27.99731445 33.12939453 C-34.6364501 29.51875748 -40.88986208 25.10580438 -43.36914062 17.66796875 C-44.09492556 10.66932829 -44.05929769 5.0750975 -39.79492188 -0.71484375 C-27.91809198 -14.18609738 -13.264006 -7.45758622 0 0 Z " fill="#000000" transform="translate(353.369140625,117.33203125)"/>
<path d="M0 0 C19.03297613 9.63918072 32.63396628 24.77299084 39.86425781 45.04711914 C46.13393043 65.9935254 45.37986457 87.59841503 35.89550781 107.49243164 C33.77900709 111.33214689 31.43629294 114.92145423 28.89550781 118.49243164 C28.32316406 119.32387695 27.75082031 120.15532227 27.16113281 121.01196289 C18.7415657 132.43594819 4.98350782 143.79173599 -9.33886719 145.98852539 C-15.77973647 146.25288943 -20.00246163 145.4491084 -25.10449219 141.49243164 C-29.76522341 136.94385705 -32.1529234 132.62012544 -32.41699219 126.11743164 C-32.16242514 118.77135398 -29.93565697 115.00223324 -24.66699219 110.05493164 C-20.94031695 106.82950512 -17.09609336 104.15899468 -12.91699219 101.55493164 C-6.09044389 97.15325764 -2.20240308 91.8789726 1.27050781 84.61743164 C3.66885321 72.62570467 3.54864713 61.09513777 -3.10449219 50.49243164 C-6.76701535 44.9986469 -11.44703435 42.19589326 -16.95214844 38.63696289 C-23.73424677 34.02311904 -30.04712344 29.72190662 -32.10449219 21.49243164 C-33.05508388 15.0593576 -31.92260634 9.77563611 -28.10449219 4.49243164 C-20.05289735 -3.92514478 -10.51200812 -4.9106378 0 0 Z " fill="#000000" transform="translate(311.1044921875,184.507568359375)"/>
</svg>
