<?xml version="1.0" encoding="UTF-8"?>
<svg version="1.1" xmlns="http://www.w3.org/2000/svg" width="512" height="512">
<path d="M0 0 C4.52285721 2.66781038 7.87666517 6.09944633 11.55805039 9.81513488 C12.78316526 11.03370926 12.78316526 11.03370926 14.03302991 12.2769013 C16.30116099 14.53596268 18.56244632 16.80162784 20.82102602 19.07023126 C23.27883497 21.5356453 25.74531804 23.99235564 28.21070862 26.45018387 C32.53126834 30.75990096 36.84620815 35.07518168 41.15752625 39.39414299 C47.56850491 45.81645634 53.98801802 52.23018764 60.40925277 58.64224458 C71.87614682 70.09332918 83.33443052 81.55299908 94.78909105 93.0163196 C104.81253421 103.04730369 114.83875398 113.07550197 124.86776185 123.10092247 C125.53250562 123.76543708 126.19724938 124.42995169 126.8821369 125.11460311 C129.58040834 127.81194057 132.27869039 130.50926741 134.97698989 133.2065768 C160.29789888 158.51830518 185.61004461 183.83878083 210.91829137 209.16316898 C233.41471463 231.6738311 255.91888304 254.17672261 278.42959809 276.67309272 C303.70858064 301.93602015 328.98272047 327.20377617 354.2490387 352.47937012 C356.94119141 355.17248502 359.63335596 357.86558808 362.32552552 360.55868614 C362.9884239 361.22182175 363.65132229 361.88495737 364.3343085 362.568188 C374.35544028 372.59273567 384.38027526 382.61356994 394.40690064 392.6326226 C405.80405811 404.02121525 417.1958667 415.41512774 428.58058837 426.81615256 C434.95643847 433.20083099 441.33640755 439.58132761 447.72231822 445.95594388 C451.98288677 450.20980579 456.23801228 454.46906019 460.48867772 458.7328177 C462.91368947 461.16499281 465.34104169 463.59470226 467.77500251 466.01792453 C470.39139211 468.6252688 472.99848392 471.24156226 475.60333848 473.86042297 C476.36645518 474.61651617 477.12957188 475.37260937 477.91581333 476.15161449 C478.95230956 477.19937656 478.95230956 477.19937656 480.00974512 478.26830554 C480.60705632 478.86582001 481.20436752 479.46333449 481.81977905 480.07895546 C485.67703648 484.89573063 485.82104474 490.00518307 485.70401216 495.95190132 C484.93369724 502.13849295 482.00431773 505.56753209 477.32901216 509.46362007 C472.16116196 512.00779247 465.89777079 511.89288531 460.32901216 510.96362007 C454.98071117 507.88413675 450.90103018 503.80718002 446.57950044 499.44115913 C445.82759934 498.68955009 445.07569825 497.93794105 444.30101228 497.16355598 C441.82900995 494.69016576 439.36415805 492.20977775 436.89932466 489.72924507 C435.18197825 488.00816661 433.46418832 486.28753061 431.74597383 484.5673188 C427.23379351 480.04751713 422.72765277 475.52174062 418.22274995 470.99468696 C413.62118331 466.37262969 409.01392112 461.75625748 404.40713716 457.13940132 C395.37551742 448.08635809 386.35007397 439.02718334 377.32901216 429.96362007 C377.32314591 430.7727082 377.31727967 431.58179634 377.31123567 432.41540229 C377.25316951 440.06550973 377.18101395 447.71529663 377.09329724 455.36511695 C377.04869817 459.29734426 377.00941957 463.22947047 376.98257661 467.16186225 C376.95643843 470.96164968 376.91596331 474.76104582 376.86582589 478.56058967 C376.84922784 480.00529292 376.83766979 481.45006373 376.83139825 482.8948487 C376.75032229 499.86582361 376.75032229 499.86582361 371.61026216 506.02221382 C371.02244966 506.47725288 370.43463716 506.93229194 369.82901216 507.40112007 C369.24119966 507.874206 368.65338716 508.34729194 368.04776216 508.83471382 C363.10348619 512.08220417 356.97842818 511.65765152 351.32901216 510.96362007 C343.76415999 508.14125932 337.75856347 502.10638178 331.73916841 496.88158882 C328.41359682 494.00807371 324.98671183 491.28455476 321.51651216 488.58862007 C316.4022728 484.60841392 311.34863914 480.56252988 306.32901216 476.46362007 C301.36676766 472.41370582 296.37746984 468.40556648 291.32901216 464.46362007 C285.58890548 459.98161896 279.93207969 455.40405449 274.28994966 450.79955757 C270.00449597 447.30831924 265.68571762 443.86543119 261.32901216 440.46362007 C255.58890548 435.98161896 249.93207969 431.40405449 244.28994966 426.79955757 C240.00449597 423.30831924 235.68571762 419.86543119 231.32901216 416.46362007 C226.28054776 412.52166841 221.29149754 408.51324586 216.32901216 404.46362007 C209.63053254 398.99970545 202.86416011 393.63093817 196.05118012 388.31078804 C194.2983898 386.93966569 192.54945347 385.56377202 190.80166841 384.18627632 C190.20950532 383.71979682 189.61734223 383.25331733 189.00723481 382.7727021 C187.39433744 381.5018385 185.7815902 380.23078435 184.16885591 378.95971382 C183.58332444 378.52063194 182.99779298 378.08155006 182.39451814 377.62916267 C180.32901216 375.96362007 180.32901216 375.96362007 177.84883332 373.52061164 C167.96401958 364.53643212 159.23831595 364.62010905 146.32119966 364.90893257 C144.30347852 364.91531761 142.28573592 364.91668005 140.26800752 364.91329658 C134.98767952 364.91513647 129.70960178 364.97291955 124.42984223 365.04656684 C115.97595546 365.15677512 107.52171547 365.18860254 99.06720567 365.20592582 C96.13373736 365.22110888 93.20177332 365.26495792 90.2686789 365.31277168 C78.24705623 365.43888293 67.88976271 364.70590542 58.17666841 356.78783882 C49.40961856 348.1319989 46.05392318 338.93095314 45.91887486 326.77746558 C45.91103247 324.59470199 45.91781882 322.41225139 45.92495942 320.22948921 C45.91924886 318.64834317 45.91228196 317.06720125 45.90416169 315.48606575 C45.88629121 311.21327628 45.88738705 306.94069286 45.89310408 302.66787732 C45.89620468 299.09196607 45.89009383 295.5160939 45.88406533 291.94018823 C45.87004189 283.50013018 45.8715633 275.0601734 45.88296723 266.62011421 C45.89444754 257.93187946 45.88036932 249.24395344 45.85357076 240.55575937 C45.83137419 233.07775448 45.82478525 225.59984621 45.83064717 218.12181073 C45.83400835 213.66365616 45.83165768 209.20569945 45.81439614 204.74757278 C45.79886569 200.55392093 45.80294963 196.36072455 45.82170129 192.1670903 C45.82537031 190.63451681 45.82232827 189.10190911 45.8118155 187.56936729 C45.73460586 175.37619472 47.46790327 165.04605505 56.26651216 155.96362007 C64.62119388 148.07308733 72.75366295 145.05409389 84.07901216 144.40112007 C84.77639497 144.35793647 85.47377778 144.31475288 86.19229341 144.27026069 C87.90433138 144.1647241 89.61664776 144.06372097 91.32901216 143.96362007 C90.43502811 143.07378409 90.43502811 143.07378409 89.52298379 142.16597164 C75.02641353 127.73563438 60.53813899 113.29701445 46.05907083 98.84911525 C39.05692294 91.8624408 32.05198771 84.8786043 25.04043794 77.90136421 C18.92967647 71.82049038 12.82419438 65.73437382 6.72501194 59.64188534 C3.49491547 56.41570216 0.26222459 53.19221821 -2.97680068 49.9749974 C-6.02511035 46.94704272 -9.06631378 43.91212986 -12.10220504 40.87172592 C-13.21784774 39.75690885 -14.33606579 38.64466221 -15.4570291 37.53519523 C-16.98727346 36.01987926 -18.50797783 34.49558214 -20.02667022 32.96870124 C-20.88025052 32.11788632 -21.73383082 31.26707139 -22.6132772 30.3904742 C-26.90380881 25.33024166 -27.17244318 20.40085061 -27.04598784 13.97533882 C-26.27270271 7.76489257 -23.34322691 4.32871318 -18.60848784 0.46362007 C-13.00621534 -2.30065913 -5.74595809 -2.22951058 0 0 Z " fill="#000000" transform="translate(26.670987844467163,1.0363799333572388)"/>
<path d="M0 0 C4.49013443 2.28445436 7.51994465 5.96500934 9.84375 10.34375 C10.82446875 13.50610889 10.96813159 16.37494213 10.96679783 19.6773262 C10.96878888 20.76514302 10.97077993 21.85295985 10.97283131 22.97374082 C10.96991847 24.16828342 10.96700563 25.36282603 10.96400452 26.59356689 C10.96528615 28.49754529 10.96528615 28.49754529 10.96659368 30.4399879 C10.96883244 33.96544976 10.96482579 37.49088131 10.95981562 41.0163393 C10.95550245 44.81725883 10.95695816 48.61817661 10.9577179 52.4190979 C10.95824258 59.00520483 10.95510156 65.59130187 10.94948006 72.17740631 C10.94135756 81.69984075 10.93874906 91.22227039 10.93749207 100.74470791 C10.93530273 116.19374028 10.92864584 131.64276737 10.91918945 147.09179688 C10.91001228 162.10026015 10.90293294 177.10872199 10.89868164 192.1171875 C10.89841892 193.04210524 10.89815619 193.96702297 10.89788551 194.91996852 C10.89658048 199.55994806 10.89531677 204.19992761 10.89407361 208.83990717 C10.88370468 247.34119181 10.86608956 285.84247056 10.84375 324.34375 C7.82842427 322.9913357 5.73263413 321.48299361 3.39987564 319.15155792 C2.73354968 318.49044746 2.06722373 317.829337 1.38070607 317.14819288 C0.65696821 316.41999358 -0.06676965 315.69179427 -0.81243896 314.94152832 C-1.97525261 313.78339465 -1.97525261 313.78339465 -3.16155744 312.60186434 C-5.76581497 310.00560357 -8.36284253 307.40222895 -10.95996094 304.79882812 C-12.82218109 302.93931703 -14.68482668 301.0802319 -16.54786682 299.22154236 C-21.08620417 294.69210355 -25.61911153 290.15726783 -30.15010253 285.62048137 C-33.83102444 281.9350459 -37.5138899 278.25156327 -41.19815826 274.56947327 C-41.72215958 274.04577842 -42.24616089 273.52208357 -42.78604104 272.98251918 C-43.85046342 271.91873623 -44.9148903 270.85495777 -45.97932163 269.79118377 C-55.96216082 259.81404893 -65.93885805 249.83079051 -75.91347161 239.84543306 C-84.47969728 231.27026656 -93.0511606 222.70036478 -101.62646484 214.13427734 C-111.57876307 204.19267088 -121.52782337 194.24784257 -131.47170281 184.29781485 C-132.53099927 183.23788127 -133.59029991 182.17795188 -134.6496048 181.11802673 C-135.17084169 180.59648129 -135.69207858 180.07493585 -136.22911052 179.537586 C-139.90972225 175.85524444 -143.59265585 172.17523493 -147.27648163 168.49610901 C-152.22890201 163.54986807 -157.17602178 158.59837872 -162.1195507 153.64325142 C-163.93999452 151.82015159 -165.7621637 149.99877283 -167.58613014 148.17919731 C-170.06471821 145.7060289 -172.53713536 143.22685708 -175.00799561 140.74597168 C-175.74065635 140.01777237 -176.4733171 139.28957307 -177.22817969 138.53930712 C-177.88407466 137.87819665 -178.53996963 137.21708619 -179.2157402 136.53594208 C-179.78770905 135.96364852 -180.3596779 135.39135497 -180.94897914 134.80171919 C-182.15625 133.34375 -182.15625 133.34375 -182.15625 131.34375 C-180.86547852 130.14550781 -180.86547852 130.14550781 -179.03515625 128.796875 C-178.01578979 128.03479736 -178.01578979 128.03479736 -176.97583008 127.25732422 C-175.85857544 126.43385498 -175.85857544 126.43385498 -174.71875 125.59375 C-168.51271592 120.9403685 -162.43119072 116.18059249 -156.46875 111.21875 C-150.83994432 106.54133694 -145.16109124 101.94900475 -139.38720703 97.45214844 C-134.98831862 94.01868643 -130.66090143 90.5042123 -126.34375 86.96875 C-120.88343606 82.50194104 -115.34410343 78.16306466 -109.71875 73.90625 C-103.116465 68.90722568 -96.69240642 63.72741203 -90.32275391 58.43603516 C-85.40710455 54.35689862 -80.42655598 50.37692894 -75.38720703 46.45214844 C-70.98831862 43.01868643 -66.66090143 39.5042123 -62.34375 35.96875 C-56.19989713 30.94277213 -49.9410433 26.0946916 -43.60693359 21.31152344 C-37.53662605 16.70049157 -31.66440884 11.86925309 -25.86352539 6.92407227 C-18.02273586 0.33122482 -10.3589144 -3.15271308 0 0 Z " fill="#000000" transform="translate(392.15625,0.65625)"/>
</svg>
