<?xml version="1.0" encoding="UTF-8"?>
<svg version="1.1" xmlns="http://www.w3.org/2000/svg" width="512" height="512">
<path d="M0 0 C4.71309432 5.49861004 7.37083793 9.72239127 7.38422108 17.00059032 C7.38867892 18.12328325 7.39313676 19.24597618 7.39772969 20.40269011 C7.39754533 21.64137998 7.39736097 22.88006985 7.39717102 24.15629578 C7.40084771 25.46811838 7.4045244 26.77994099 7.4083125 28.1315158 C7.41833738 31.78060114 7.42205008 35.42967002 7.42470181 39.07876718 C7.42860342 43.01142666 7.43818186 46.94407309 7.44691467 50.87672424 C7.46668318 60.37800158 7.4767458 69.87928 7.48564246 79.38057277 C7.49002474 83.85395914 7.49539171 88.32734432 7.50063133 92.80072975 C7.51764402 107.66970289 7.53213845 122.53867529 7.53938007 137.40765667 C7.54128999 141.26680693 7.54321032 145.12595718 7.54516602 148.98510742 C7.54564976 149.94429039 7.5461335 150.90347336 7.5466319 151.89172248 C7.55493313 167.43169368 7.58027144 182.97158794 7.61274669 198.51152553 C7.64581025 214.46291574 7.6638282 230.41426683 7.66702431 246.36569148 C7.66919007 255.32309891 7.67794825 264.28039412 7.70348549 273.23776817 C7.72518289 280.86594994 7.73324766 288.49399223 7.72351871 296.12220135 C7.71897119 300.0138594 7.72088622 303.90522964 7.74028015 307.7968483 C7.76113302 312.01769711 7.75093566 316.23790646 7.73774719 320.45878601 C7.74871644 321.68632227 7.75968568 322.91385853 7.77098733 324.17859286 C7.70755892 332.5737162 6.48444785 337.87984986 0.875 344.375 C-6.6355635 350.81262586 -12.81341658 353.01764919 -22.61328125 352.40234375 C-32.28566649 350.00532674 -38.22567729 344.68359862 -44.55517578 337.26074219 C-46.26219344 335.32220585 -47.97064606 333.3849324 -49.68032837 331.44874573 C-50.5848844 330.41574668 -51.48936964 329.38268563 -52.39378738 328.34956551 C-96.38362153 273.16793102 -96.38362153 273.16793102 -156.39465714 243.91543198 C-170.25925768 243.0333527 -184.33900116 245.1497995 -197.75585938 248.53393555 C-203.55827082 249.87719649 -206.51811847 249.43195437 -211.75 246.625 C-218.1220255 242.376983 -222.18202564 236.16919884 -223.75 228.625 C-223.84418304 227.07185285 -223.88895423 225.51529853 -223.89717102 223.95932007 C-223.90432632 223.02588776 -223.91148163 222.09245544 -223.91885376 221.1307373 C-223.92154266 220.11354614 -223.92423157 219.09635498 -223.92700195 218.04833984 C-223.93357315 216.97141876 -223.94014435 215.89449768 -223.94691467 214.78494263 C-223.966635 211.21860686 -223.97830842 207.65231322 -223.98828125 204.0859375 C-223.99235678 202.86644032 -223.9964323 201.64694313 -224.00063133 200.39049149 C-224.02148812 193.93399475 -224.03579075 187.47751923 -224.04516602 181.02099609 C-224.05521332 174.36317653 -224.09061145 167.7057386 -224.13033772 161.04802513 C-224.15652669 155.91947828 -224.16485999 150.79101094 -224.16844749 145.66240311 C-224.17330863 143.20890671 -224.18490903 140.75541376 -224.20348549 138.30198288 C-224.22792114 134.8603971 -224.22690314 131.41967393 -224.2199707 127.97802734 C-224.23278076 126.97298157 -224.24559082 125.96793579 -224.25878906 124.93243408 C-224.20063119 116.97277605 -222.20648806 110.57292725 -218 103.8125 C-214.03941 99.96192639 -209.30151819 96.51009594 -203.75 95.625 C-201.18157959 96.11277771 -201.18157959 96.11277771 -198.20996094 96.94311523 C-176.7809175 102.34389859 -152.05624266 105.09652006 -131.75 94.625 C-100.13561778 74.40703047 -74.11806457 41.76958136 -49.56697083 13.80122375 C-48.69898991 12.81849519 -47.83100899 11.83576662 -46.93672562 10.8232584 C-45.33325313 9.00197384 -43.74061884 7.17105797 -42.16180038 5.32836056 C-36.87804382 -0.67340633 -31.5582058 -4.94276848 -23.8125 -7.25 C-14.47345638 -7.63118545 -7.17924718 -6.20025893 0 0 Z " fill="#000000" transform="translate(248.75,83.375)"/>
<path d="M0 0 C39.53461434 24.57160631 64.38601697 84.50934985 74.80078125 127.15576172 C90.05546906 194.17259828 78.35273345 264.75589186 42.375 323.234375 C37.71319612 330.59373177 32.53897581 337.50682363 27.10546875 344.30859375 C26.3371875 345.28828125 25.56890625 346.26796875 24.77734375 347.27734375 C22.6019592 350.000487 20.37525706 352.66366513 18.10546875 355.30859375 C17.64672363 355.84645508 17.18797852 356.38431641 16.71533203 356.93847656 C8.56112013 366.41811757 1.02167699 374.31697293 -12.01953125 375.62109375 C-19.16309779 375.04499967 -26.87906649 372.61908584 -31.89453125 367.30859375 C-36.22399619 361.21023314 -38.06237641 356.71166599 -38.20703125 349.12109375 C-38.26310547 347.21263672 -38.26310547 347.21263672 -38.3203125 345.265625 C-37.43457292 337.03393514 -33.07983597 331.9861029 -27.39453125 326.30859375 C9.2802843 288.22486721 29.20076852 235.18680994 28.2890625 182.46875 C27.41170739 160.10981823 23.54581012 138.43465394 16.10546875 117.30859375 C15.70070313 116.15230469 15.2959375 114.99601562 14.87890625 113.8046875 C7.92332645 95.27681266 -1.82716109 77.96449865 -13.89453125 62.30859375 C-14.66410156 61.30828125 -15.43367188 60.30796875 -16.2265625 59.27734375 C-19.31962659 55.39847418 -22.50358783 51.67879147 -25.9765625 48.13671875 C-33.22851356 40.70401664 -38.60377534 34.13755662 -39.39453125 23.30859375 C-38.89540644 15.46750399 -35.84120858 7.97496134 -29.93359375 2.74609375 C-20.87619463 -3.63919912 -9.99110089 -5.11049231 0 0 Z " fill="#000000" transform="translate(405.89453125,69.69140625)"/>
<path d="M0 0 C26.80313872 23.03740849 42.64386888 59.49590354 47 94 C47.11201868 96.66231055 47.18691578 99.2987456 47.203125 101.9609375 C47.20882507 102.70977203 47.21452515 103.45860657 47.22039795 104.23013306 C47.22979745 105.81177381 47.2363617 107.39343371 47.24023438 108.97509766 C47.2498333 111.33403264 47.28085914 113.69205403 47.3125 116.05078125 C47.41127866 130.08718234 45.48867366 143.49781385 41.3125 156.9375 C41.05758789 157.76540039 40.80267578 158.59330078 40.54003906 159.44628906 C34.4776902 178.4735178 25.11501325 195.89089117 12 211 C11.24589844 211.87527344 10.49179687 212.75054687 9.71484375 213.65234375 C2.17385844 222.22565092 -3.60996266 228.03127303 -15.3828125 228.95703125 C-23.52028105 229.09063148 -29.04382136 226.4417814 -35 221 C-40.28433222 215.4300282 -42.18074316 210.23437687 -42.5 202.6875 C-42.17270751 191.67284903 -36.93655243 185.70813571 -29.62109375 177.96875 C-10.24273799 156.02009071 -4.65498441 128.54904051 -6 100 C-7.84534664 80.10988793 -17.01610192 60.95336577 -30 46 C-37.75792127 36.91539839 -42.74682252 30.64510061 -42.40625 18.28515625 C-41.42448221 10.34605329 -37.4409251 4.33276932 -31.2265625 -0.58984375 C-21.69517496 -6.62638919 -9.22267842 -6.70740249 0 0 Z " fill="#000000" transform="translate(337,144)"/>
</svg>
