<?xml version="1.0" encoding="UTF-8"?>
<svg version="1.1" xmlns="http://www.w3.org/2000/svg" width="512" height="512">
<path d="M0 0 C7.54404686 6.00033621 13.09984413 14.44589137 15 24 C15.09410482 25.98883323 15.13265433 27.98054982 15.13701439 29.97160339 C15.1446262 31.81690706 15.1446262 31.81690706 15.15239179 33.69948959 C15.15299344 35.06683091 15.15349253 36.43417228 15.15390015 37.80151367 C15.1579157 39.2524693 15.16235408 40.70342382 15.1671797 42.15437698 C15.17914086 46.14692698 15.1847926 50.1394649 15.18936086 54.13202929 C15.19531875 58.43625858 15.2069282 62.74047344 15.21765137 67.04469299 C15.24217208 77.44287237 15.25680256 87.84105652 15.26971143 98.23925591 C15.27342377 101.17663987 15.27739698 104.11402337 15.2814641 107.05140686 C15.30670233 125.29534433 15.3287537 143.53928256 15.34119225 161.78323364 C15.34412191 166.0089722 15.34708357 170.23471072 15.35009766 174.46044922 C15.35084371 175.5107265 15.35158976 176.56100379 15.35235842 177.64310765 C15.36500811 194.65146211 15.3982261 211.65971194 15.43989949 228.66801751 C15.48234229 246.13367445 15.50589004 263.59927786 15.51111281 281.06498623 C15.51452439 290.86984211 15.52624963 300.67453452 15.55921555 310.4793396 C15.58724951 318.83093512 15.59820072 327.18233365 15.58702008 335.53397256 C15.58184189 339.79275484 15.58466526 344.0511248 15.60948563 348.30984688 C15.63205426 352.21493879 15.63118001 356.11932404 15.61228175 360.02442896 C15.60949232 361.43098365 15.61502117 362.83758705 15.63009469 364.24406374 C15.76898957 378.05778735 11.82386832 388.92265862 2.19140625 398.8671875 C-6.50966735 407.0255382 -16.15408097 410.36726459 -27.875 411.3125 C-43.96705604 410.76095776 -54.69493376 401.77293363 -66.14257812 391.63964844 C-68.60179754 389.46876021 -71.0834455 387.32442855 -73.56567383 385.17993164 C-75.4509477 383.55087994 -77.33331625 381.91853288 -79.21484375 380.28515625 C-82.9748421 377.02145054 -86.73721478 373.7604919 -90.5 370.5 C-91.75001074 369.41667906 -93.00001074 368.33334572 -94.25 367.25 C-94.86875 366.71375 -95.4875 366.1775 -96.125 365.625 C-113 351 -129.875 336.375 -146.75 321.75 C-147.36987793 321.2127832 -147.98975586 320.67556641 -148.62841797 320.12207031 C-149.86706778 319.04855226 -151.10567519 317.97498529 -152.34423828 316.90136719 C-155.64253372 314.04243846 -158.94175517 311.18458672 -162.2421875 308.328125 C-162.93376953 307.72935547 -163.62535156 307.13058594 -164.33789062 306.51367188 C-165.67225796 305.35841425 -167.00688376 304.20345506 -168.34179688 303.04882812 C-172.8875378 299.1124622 -172.8875378 299.1124622 -174 298 C-175.6039702 297.89278816 -177.21256008 297.85377035 -178.82006836 297.84228516 C-179.84881577 297.83202301 -180.87756317 297.82176086 -181.93748474 297.81118774 C-183.06026321 297.80388641 -184.18304169 297.79658508 -185.33984375 297.7890625 C-187.70638685 297.76097033 -190.0729232 297.73230574 -192.43945312 297.703125 C-196.17846317 297.66201816 -199.9173506 297.62514286 -203.65649414 297.59863281 C-207.25954481 297.57085625 -210.8620186 297.52495616 -214.46484375 297.4765625 C-215.56940414 297.47330963 -216.67396454 297.47005676 -217.81199646 297.46670532 C-230.89406668 297.26169138 -241.53430814 293.25950149 -251.25 284.375 C-260.8515473 274.22923544 -263.30614334 261.87195014 -263.2746582 248.43432617 C-263.27976913 247.29990585 -263.28488007 246.16548553 -263.29014587 244.99668884 C-263.3039984 241.26206118 -263.30308817 237.52761899 -263.30078125 233.79296875 C-263.30467085 231.18516471 -263.30900606 228.57736131 -263.31376648 225.96955872 C-263.32196221 220.50825367 -263.3210834 215.0470004 -263.31567383 209.58569336 C-263.30964034 203.29748571 -263.32193545 197.00950216 -263.3432439 190.72133273 C-263.36307088 184.64406978 -263.36602326 178.56691064 -263.36250877 172.4896183 C-263.36302042 169.91694933 -263.36822867 167.34427666 -263.37832069 164.77162743 C-263.39073016 161.16553125 -263.38386564 157.55994612 -263.37231445 153.95385742 C-263.37995819 152.90258667 -263.38760193 151.85131592 -263.39547729 150.76818848 C-263.30077832 137.31556326 -259.14271206 125.81199229 -250.015625 115.8515625 C-241.92756225 108.42183044 -230.90320705 103.79000548 -219.90942383 103.9375 C-218.92102005 103.946604 -217.93261627 103.95570801 -216.91426086 103.96508789 C-215.85587509 103.97660889 -214.79748932 103.98812988 -213.70703125 104 C-211.44466138 104.00115864 -209.18228904 103.99977586 -206.91992188 103.99609375 C-203.36871909 103.99168201 -199.8201525 103.99988927 -196.26928711 104.05126953 C-180.93900006 104.96921129 -180.93900006 104.96921129 -167.7265625 98.71484375 C-166.44029493 97.17909706 -165.19008696 95.61142645 -164 94 C-162.20258215 92.50254237 -160.39359379 91.01858578 -158.5625 89.5625 C-153.78715598 85.70058325 -149.26332315 81.62325776 -144.74609375 77.46484375 C-142.08124834 75.07292703 -139.35168175 72.80745116 -136.5625 70.5625 C-132.56776014 67.34056899 -128.75445651 63.99344505 -125 60.5 C-120.38995664 56.21044887 -115.62217044 52.19589328 -110.71484375 48.24609375 C-107.89326505 45.9116941 -105.19409288 43.48009402 -102.5 41 C-98.94329756 37.72581577 -95.32838189 34.59357567 -91.5625 31.5625 C-87.56775479 28.34056467 -83.75450133 24.99340271 -80 21.5 C-75.34380314 17.16844437 -70.54070586 13.09316024 -65.5703125 9.12109375 C-63.16131198 7.13311915 -60.93793786 5.03824377 -58.6875 2.875 C-41.82351012 -12.342235 -18.20688855 -13.10299028 0 0 Z " fill="#000000" transform="translate(337,66)"/>
<path d="M0 0 C19.71378668 22.51039363 24.18827082 57.26966387 22.4375 85.875 C20.08469087 109.57114913 11.11824733 132.04313386 -3.3203125 150.91796875 C-3.83078125 151.64628906 -4.34125 152.37460937 -4.8671875 153.125 C-8.66193687 158.18821896 -13.26826764 160.29636821 -19.3203125 161.91796875 C-25.66647059 162.68388438 -31.01970393 161.15131467 -36.27734375 157.59375 C-41.09270218 153.73132566 -43.86560191 149.89297448 -44.82421875 143.62109375 C-44.97292331 134.85743839 -43.47278755 129.91222765 -38.3203125 122.91796875 C-25.13556089 103.4010667 -19.88884993 82.35052391 -22.81640625 58.953125 C-24.88629409 48.55690866 -28.66865539 38.97386376 -33.5703125 29.60546875 C-37.04617037 22.78812896 -38.24892349 17.2877461 -36.046875 9.80078125 C-33.72323168 3.77929696 -29.78107581 0.03908175 -24.3828125 -3.26953125 C-16.68695739 -6.30123175 -6.55459627 -5.34717064 0 0 Z " fill="#000000" transform="translate(415.3203125,183.08203125)"/>
</svg>
