<?xml version="1.0" encoding="UTF-8"?>
<svg version="1.1" xmlns="http://www.w3.org/2000/svg" width="1029" height="217">
<path d="M0 0 C10.00488457 6.35422101 15.54133524 14.25681822 19.26953125 25.44140625 C19.83971643 32.9846758 19.96649939 39.49855878 16.83203125 46.50390625 C15.35079846 50.35924037 15.06468949 51.84354605 16.421875 55.8046875 C17.67708284 58.19037851 18.95682037 60.51273614 20.30859375 62.83984375 C26.13454816 72.98666806 27.55159635 85.19586477 27.43554688 96.6953125 C27.44899958 99.05069078 27.44899958 99.05069078 28.26953125 102.44140625 C31.03694564 104.78634938 31.03694564 104.78634938 34.26953125 106.44140625 C41.13723472 112.90193363 45.86833443 120.48264695 46.5078125 129.98046875 C46.83557326 142.0397025 44.75701857 151.34766984 36.26953125 160.44140625 C27.97527759 168.03013211 18.5987094 170.77320131 7.51171875 170.74609375 C3.20564451 170.34142653 -0.33220793 168.97727875 -4.2578125 167.21875 C-7.28673913 166.2665282 -8.72054086 166.4642168 -11.73046875 167.44140625 C-13.71636122 168.49520156 -15.67270937 169.60556194 -17.60546875 170.75390625 C-31.51345789 178.44197743 -46.06364148 179.63944199 -61.73046875 179.44140625 C-61.96636719 180.17230469 -62.20226562 180.90320313 -62.4453125 181.65625 C-65.77759932 188.87789285 -73.43213673 193.87022479 -80.625 196.78515625 C-90.93537306 199.99877902 -101.00282138 199.03898591 -110.73046875 194.44140625 C-119.98771926 188.77476771 -125.87037067 180.91554922 -128.73046875 170.44140625 C-129.54188578 161.50638388 -129.35018617 153.94964337 -125.41015625 145.7734375 C-124.48793534 142.60926574 -125.26085186 141.34965412 -126.73046875 138.44140625 C-127.18164062 137.51585937 -127.6328125 136.5903125 -128.09765625 135.63671875 C-128.59523438 134.62351563 -129.0928125 133.6103125 -129.60546875 132.56640625 C-133.89438091 123.23356562 -136.87445946 114.17494297 -136.74584961 103.8918457 C-136.6002811 96.45748119 -136.6002811 96.45748119 -140.27734375 90.2734375 C-142.35530116 88.37456936 -144.55337235 86.65164654 -146.76953125 84.91796875 C-152.87182856 79.81393643 -155.26104882 72.63783662 -156.51171875 64.94140625 C-157.48236028 53.84836014 -153.80543814 44.02326553 -146.79296875 35.484375 C-139.44952497 28.21047141 -130.10353987 24.86627766 -119.98046875 24.19140625 C-115.74570436 24.23212514 -112.02686677 25.36918589 -108.02734375 26.6875 C-107.269375 26.93628906 -106.51140625 27.18507813 -105.73046875 27.44140625 C-105.08207031 27.70308594 -104.43367188 27.96476562 -103.765625 28.234375 C-100.61936992 28.5544355 -99.01506019 27.03343213 -96.41796875 25.31640625 C-81.00348525 15.91000401 -64.42055489 14.03731799 -46.73046875 14.44140625 C-46.43140625 13.83039062 -46.13234375 13.219375 -45.82421875 12.58984375 C-42.0487364 5.1737177 -35.43525357 1.37443066 -27.92578125 -1.7109375 C-19.33954403 -3.98870459 -8.07934578 -3.95020824 0 0 Z M-37.73046875 16.44140625 C-42.35178846 22.38310302 -44.07170644 28.02708984 -43.60546875 35.44140625 C-42.6063732 43.01594462 -39.11970082 49.05217418 -33.73046875 54.44140625 C-27.21134114 58.87499639 -19.0084037 61.28001709 -11.16796875 59.94140625 C-2.54496028 57.53427668 3.73033622 52.02724744 8.26953125 44.44140625 C11.1691987 38.51026829 11.34725334 31.30528488 9.58203125 24.9765625 C6.37187428 17.15180489 1.83422455 11.6758825 -5.8984375 8.16796875 C-17.65087484 3.50708742 -29.68637563 6.74117631 -37.73046875 16.44140625 Z M-87.73046875 42.44140625 C-87.18803237 45.96724271 -86.50455823 49.41388315 -85.66796875 52.87890625 C-83.58074822 62.38208456 -85.07142366 71.59858623 -90.29296875 79.87890625 C-90.70675781 80.47574219 -91.12054688 81.07257813 -91.546875 81.6875 C-92.80400576 83.43292635 -92.80400576 83.43292635 -93.6328125 85.5390625 C-95.02089598 87.94474455 -96.19496456 88.37960666 -98.73046875 89.44140625 C-99.46523437 89.84359375 -100.2 90.24578125 -100.95703125 90.66015625 C-106.79817781 93.78050816 -112.17891311 95.50746108 -118.73046875 96.44140625 C-118.34169622 108.31840711 -116.29415299 119.36146259 -109.73046875 129.44140625 C-107.99796875 128.94640625 -107.99796875 128.94640625 -106.23046875 128.44140625 C-93.50988092 125.69696447 -81.97871361 126.58736259 -70.8359375 133.640625 C-61.82884239 140.50425951 -59.64723994 150.10238328 -56.73046875 160.44140625 C-44.69444589 161.16037222 -31.84631674 158.18530491 -21.73046875 151.44140625 C-21.94703125 150.59578125 -22.16359375 149.75015625 -22.38671875 148.87890625 C-25.26493591 137.15283632 -26.16369876 127.18171006 -20.10546875 116.31640625 C-14.29308673 107.23103242 -6.20427944 101.56809256 4.26953125 99.19140625 C5.60078375 98.93055272 6.93348066 98.67645219 8.26953125 98.44140625 C9.12592459 86.99903967 6.8111786 75.02024702 0.26953125 65.44140625 C-0.51808594 65.66957031 -1.30570312 65.89773437 -2.1171875 66.1328125 C-13.76912147 69.20781993 -24.97071737 69.49491989 -35.73046875 63.44140625 C-45.7489053 56.70270832 -49.96165378 47.49769225 -52.28515625 35.93359375 C-52.43210937 35.11117187 -52.5790625 34.28875 -52.73046875 33.44140625 C-64.8047879 32.39651325 -77.68936796 35.63577127 -87.73046875 42.44140625 Z M-140.66015625 42.99609375 C-146.19548809 49.53405174 -147.48006853 55.70650258 -147.171875 64.2265625 C-146.07106608 72.24395846 -142.10586789 78.07225963 -135.8203125 83.03515625 C-128.96840673 87.64578443 -121.89504853 88.53704018 -113.73046875 87.44140625 C-104.85314527 84.71380757 -99.56893049 79.01957035 -94.79296875 71.31640625 C-92.51475913 65.12252384 -92.63929288 57.20772296 -94.45703125 50.93359375 C-97.60382077 44.20509258 -103.46629122 38.63111903 -110.04296875 35.25390625 C-121.84267746 31.68655245 -131.90732379 34.24326129 -140.66015625 42.99609375 Z M-11.73046875 118.44140625 C-16.63788158 125.31972072 -16.67647705 133.27484481 -15.73046875 141.44140625 C-14.84872862 144.52254311 -13.59863646 146.85157874 -11.73046875 149.44140625 C-11.30636719 150.06660156 -10.88226563 150.69179687 -10.4453125 151.3359375 C-5.54955589 157.81360989 0.75140827 160.29290619 8.64453125 161.44140625 C15.97821536 161.87340447 22.89057704 159.56758187 28.70703125 155.06640625 C34.71673299 148.91012642 37.3197034 143.17187873 37.64453125 134.62890625 C37.50881391 127.33636117 35.60171658 122.13238932 30.83203125 116.62890625 C29.98640625 115.90703125 29.14078125 115.18515625 28.26953125 114.44140625 C27.50640625 113.74015625 26.74328125 113.03890625 25.95703125 112.31640625 C13.13494208 103.37076264 -1.85915562 107.02204605 -11.73046875 118.44140625 Z M-114.73046875 145.44140625 C-119.22952894 152.50765352 -120.49311723 159.12853779 -119.73046875 167.44140625 C-118.01035679 174.60163132 -114.66996947 180.05387723 -108.73046875 184.44140625 C-101.14189045 188.846811 -93.88270834 190.27121692 -85.28515625 188.28515625 C-76.98859569 185.54500781 -71.62615151 180.14064414 -67.73046875 172.44140625 C-64.94525217 165.82651686 -65.10118566 158.73934269 -67.63671875 152.05078125 C-71.11935211 145.13257715 -76.39834709 139.65163915 -83.54296875 136.50390625 C-95.57049423 132.69952196 -106.50198867 136.22769795 -114.73046875 145.44140625 Z " fill="#264EF5" transform="translate(163.73046875,10.55859375)"/>
<path d="M0 0 C13 0 13 0 16.7265625 3.59375 C17.73888744 5.20099101 18.7035285 6.83900159 19.625 8.5 C20.69440562 10.23753765 21.76473548 11.97450677 22.8359375 13.7109375 C23.35768555 14.59233398 23.87943359 15.47373047 24.41699219 16.38183594 C26.85636147 20.41635109 29.54942004 24.26269812 32.25 28.125 C33.15139643 29.43986103 34.05247141 30.75494252 34.953125 32.0703125 C36.71380518 34.77202753 36.71380518 34.77202753 38 36 C38.33 24.12 38.66 12.24 39 0 C43.62 0 48.24 0 53 0 C53 20.46 53 40.92 53 62 C40 62 40 62 36.78125 59.38671875 C35.60498047 57.62939453 35.60498047 57.62939453 34.5 55.6875 C34.07477051 55.03120605 33.64954102 54.37491211 33.21142578 53.69873047 C32.28417445 52.26606889 31.37481347 50.82170727 30.48144531 49.36767578 C28.31354302 45.90289061 25.98003493 42.55854924 23.65429688 39.19848633 C21.45735954 36.02094566 19.29377947 32.8213726 17.13232422 29.61962891 C16.09784409 28.03972296 16.09784409 28.03972296 15 27 C14.67 38.55 14.34 50.1 14 62 C9.38 62 4.76 62 0 62 C0 41.54 0 21.08 0 0 Z " fill="#264EF5" transform="translate(679,29)"/>
<path d="M0 0 C4.62 0 9.24 0 14 0 C15.98 8.58 17.96 17.16 20 26 C21.61528316 22.76943368 22.47806975 20.48412548 23.25390625 17.05078125 C23.46853516 16.12072266 23.68316406 15.19066406 23.90429688 14.23242188 C24.12150391 13.26884766 24.33871094 12.30527344 24.5625 11.3125 C24.9980646 9.39119027 25.4366995 7.47057311 25.87890625 5.55078125 C26.16616577 4.27714722 26.16616577 4.27714722 26.45922852 2.9777832 C27 1 27 1 28 0 C30.35313555 -0.07271741 32.70833668 -0.08370868 35.0625 -0.0625 C36.35285156 -0.05347656 37.64320313 -0.04445312 38.97265625 -0.03515625 C39.97167969 -0.02355469 40.97070312 -0.01195312 42 0 C42.26478149 1.12027588 42.26478149 1.12027588 42.53491211 2.26318359 C43.33321994 5.63440004 44.13531106 9.00470507 44.9375 12.375 C45.35418945 14.1384375 45.35418945 14.1384375 45.77929688 15.9375 C46.18051758 17.61972656 46.18051758 17.61972656 46.58984375 19.3359375 C46.83597412 20.37282715 47.08210449 21.4097168 47.33569336 22.47802734 C47.90053956 24.97160798 47.90053956 24.97160798 49 27 C49.176521 26.21761963 49.35304199 25.43523926 49.53491211 24.62915039 C50.3320027 21.10606766 51.1346738 17.58427993 51.9375 14.0625 C52.21529297 12.83080078 52.49308594 11.59910156 52.77929688 10.33007812 C53.04677734 9.16025391 53.31425781 7.99042969 53.58984375 6.78515625 C53.83597412 5.70113525 54.08210449 4.61711426 54.33569336 3.50024414 C55 1 55 1 56 0 C58.35313555 -0.07271741 60.70833668 -0.08370868 63.0625 -0.0625 C64.99802734 -0.04896484 64.99802734 -0.04896484 66.97265625 -0.03515625 C67.97167969 -0.02355469 68.97070312 -0.01195312 70 0 C61.79510703 32.4648318 61.79510703 32.4648318 57 47 C52.05 47 47.1 47 42 47 C39.69 38.75 37.38 30.5 35 22 C32.63376476 28.21960804 32.63376476 28.21960804 30.61328125 34.5 C30.39736328 35.24121094 30.18144531 35.98242188 29.95898438 36.74609375 C29.74564453 37.48988281 29.53230469 38.23367187 29.3125 39 C28.97508789 40.16208984 28.97508789 40.16208984 28.63085938 41.34765625 C28.08446633 43.23096846 27.54183106 45.11537024 27 47 C22.05 47 17.1 47 12 47 C8.82620275 35.99300102 5.68421362 24.97694903 2.625 13.9375 C2.36251465 13.00470215 2.1000293 12.0719043 1.82958984 11.11083984 C1.58934082 10.23766113 1.3490918 9.36448242 1.1015625 8.46484375 C0.88838379 7.697771 0.67520508 6.93069824 0.45556641 6.14038086 C0 4 0 4 0 0 Z " fill="#264EF5" transform="translate(822,44)"/>
<path d="M0 0 C6.27 0 12.54 0 19 0 C21.73968586 7.93558197 24.47808131 15.87160557 27.21417999 23.80842495 C28.48458288 27.49341457 29.75556009 31.17820405 31.02783203 34.86254883 C32.25462004 38.41524514 33.47992265 41.96845047 34.70417786 45.52202034 C35.17253772 46.88064033 35.64144111 48.23907306 36.11088562 49.59731865 C36.76609882 51.49334411 37.41923589 53.39008664 38.07226562 55.28686523 C38.44532837 56.36830307 38.81839111 57.44974091 39.20275879 58.56394958 C40 61 40 61 40 62 C34.72 62 29.44 62 24 62 C22.68 57.71 21.36 53.42 20 49 C13.07 49 6.14 49 -1 49 C-2.32 53.29 -3.64 57.58 -5 62 C-10.28 62 -15.56 62 -21 62 C-14.13040039 41.28658799 -7.20610336 20.59926517 0 0 Z M9 16 C7.99263372 18.93502595 6.99539496 21.87339461 6 24.8125 C5.57074219 26.06256836 5.57074219 26.06256836 5.1328125 27.33789062 C4.86210937 28.14033203 4.59140625 28.94277344 4.3125 29.76953125 C3.93544922 30.87711792 3.93544922 30.87711792 3.55078125 32.00708008 C2.86680849 34.13732879 2.86680849 34.13732879 3 37 C7.29 37 11.58 37 16 37 C14.55613874 29.78069368 12.42211826 22.94889267 10 16 C9.67 16 9.34 16 9 16 Z " fill="#264EF5" transform="translate(418,114)"/>
<path d="M0 0 C6.90999352 3.6793472 9.66729965 8.02396205 11.9375 15.3125 C11.9375 15.9725 11.9375 16.6325 11.9375 17.3125 C9.66828464 17.44739391 7.3967933 17.54443995 5.125 17.625 C3.22814453 17.71201172 3.22814453 17.71201172 1.29296875 17.80078125 C0.18566406 17.63964844 -0.92164063 17.47851562 -2.0625 17.3125 C-3.82421875 14.85546875 -3.82421875 14.85546875 -5.0625 12.3125 C-9.86598505 10.71133832 -15.2273862 10.7007954 -20.0625 12.3125 C-20.47975678 15.68650578 -20.47975678 15.68650578 -20.0625 19.3125 C-16.10068046 22.45409908 -11.54451649 23.3882297 -6.75 24.625 C0.25354733 26.5568845 7.22851677 28.62494199 11.08203125 35.29296875 C13.54218151 41.10072073 13.24746391 46.58425617 10.9375 52.3125 C7.85820523 57.316354 4.5429521 59.64942437 -0.98828125 61.6171875 C-9.88192411 63.62871028 -19.74599466 63.53309581 -28.07421875 59.5859375 C-31.24569679 57.55469616 -32.96882484 55.45301274 -35.0625 52.3125 C-35.7121875 51.3534375 -35.7121875 51.3534375 -36.375 50.375 C-37.38566702 47.34299895 -37.1842722 44.47857719 -37.0625 41.3125 C-32.7725 41.3125 -28.4825 41.3125 -24.0625 41.3125 C-23.65 42.26125 -23.2375 43.21 -22.8125 44.1875 C-20.95499588 47.50447164 -20.4621622 48.04064056 -17.0625 49.3125 C-14.61045415 49.66371415 -14.61045415 49.66371415 -12.0625 49.625 C-11.216875 49.64175781 -10.37125 49.65851563 -9.5 49.67578125 C-6.56144866 49.23782408 -5.19986699 48.34785629 -3.0625 46.3125 C-2.39583333 43.8125 -2.39583333 43.8125 -3.0625 41.3125 C-6.98355119 37.41171264 -12.42238282 36.64490984 -17.59960938 35.29492188 C-24.55657645 33.38746595 -31.28436519 30.85157948 -35.0625 24.3125 C-36.51902796 18.62561509 -36.27909607 13.80121407 -34.0625 8.3125 C-27.49057527 -2.55645245 -10.99671132 -4.5989619 0 0 Z " fill="#264EF5" transform="translate(543.0625,114.6875)"/>
<path d="M0 0 C4.62 0 9.24 0 14 0 C14.33 1.65 14.66 3.3 15 5 C15.598125 4.360625 16.19625 3.72125 16.8125 3.0625 C20.77120725 -0.66999541 25.02899814 -0.33597162 30.20703125 -0.28125 C35.49887174 0.25163464 38.60877355 2.57117284 42.3125 6.375 C47.513585 14.46557666 47.74688179 24.20168593 45.78515625 33.38671875 C44.15885864 38.79961976 41.59071348 43.25441302 36.875 46.5 C32.16946368 48.80643356 27.09933176 48.78982131 22 48 C19.20484638 46.78495272 17.16561966 45.16561966 15 43 C14.67 50.26 14.34 57.52 14 65 C9.38 65 4.76 65 0 65 C0 43.55 0 22.1 0 0 Z M15 16 C13.25094221 21.24717336 13.33020583 26.19155575 15.25 31.375 C17.55627544 34.84597536 17.55627544 34.84597536 21 37 C25.33681443 37.07744311 27.26675655 36.69564122 30.4375 33.6875 C33.07438279 29.00475988 32.77224461 23.16916885 32 18 C30.30392765 14.52379341 29.25936599 13.17291066 26 11 C20.46443596 10.15763156 18.45738116 11.75236029 15 16 Z " fill="#264EF5" transform="translate(452,44)"/>
<path d="M0 0 C14.19 0 28.38 0 43 0 C43 3.63 43 7.26 43 11 C33.43 11 23.86 11 14 11 C14 15.62 14 20.24 14 25 C22.58 25 31.16 25 40 25 C40 28.96 40 32.92 40 37 C31.42 37 22.84 37 14 37 C14 41.62 14 46.24 14 51 C23.57 51 33.14 51 43 51 C43 54.63 43 58.26 43 62 C28.81 62 14.62 62 0 62 C0 41.54 0 21.08 0 0 Z " fill="#264EF5" transform="translate(263,29)"/>
<path d="M0 0 C4.62 0 9.24 0 14 0 C14.33 10.23 14.66 20.46 15 31 C16.77375 28.916875 18.5475 26.83375 20.375 24.6875 C20.93106934 24.03612061 21.48713867 23.38474121 22.06005859 22.71362305 C22.50172363 22.19324463 22.94338867 21.67286621 23.3984375 21.13671875 C23.84880371 20.60780029 24.29916992 20.07888184 24.76318359 19.53393555 C25.92874273 18.08837533 26.96996304 16.54505544 28 15 C30.7885289 14.77892213 33.34653181 14.71892465 36.125 14.8125 C36.87910156 14.82603516 37.63320313 14.83957031 38.41015625 14.85351562 C40.27374127 14.88890015 42.13695978 14.94270833 44 15 C42.70203688 17.81768878 41.28704242 20.00906444 39.21484375 22.3125 C38.68439453 22.91320312 38.15394531 23.51390625 37.60742188 24.1328125 C36.49240299 25.37954707 35.37520536 26.62433644 34.25585938 27.8671875 C33.72669922 28.46789062 33.19753906 29.06859375 32.65234375 29.6875 C32.16757568 30.22761719 31.68280762 30.76773438 31.18334961 31.32421875 C29.82531069 33.24738342 29.29649876 34.66762079 29 37 C30.3654991 39.72067834 30.3654991 39.72067834 32.4375 42.5 C33.53384766 44.07201172 33.53384766 44.07201172 34.65234375 45.67578125 C35.0376123 46.21928223 35.42288086 46.7627832 35.81982422 47.32275391 C37.76003978 50.08015583 39.62744603 52.88369379 41.5 55.6875 C42.1703125 56.68136719 42.840625 57.67523438 43.53125 58.69921875 C45 61 45 61 45 62 C33.49890794 63.80121511 33.49890794 63.80121511 28 62 C23.24686097 58.16916999 20.4952559 52.45645639 18 47 C18 46.34 18 45.68 18 45 C17.01 45.66 16.02 46.32 15 47 C14.61588725 49.609621 14.39706803 52.0058074 14.3125 54.625 C14.27833984 55.33140625 14.24417969 56.0378125 14.20898438 56.765625 C14.12648692 58.50985688 14.06156665 60.25490395 14 62 C9.38 62 4.76 62 0 62 C0 41.54 0 21.08 0 0 Z " fill="#264EF5" transform="translate(983,29)"/>
<path d="M0 0 C4.62 0 9.24 0 14 0 C16.53547749 6.39579908 18.42142535 12.8543265 20.1875 19.5 C20.46013672 20.51320312 20.73277344 21.52640625 21.01367188 22.5703125 C21.67929321 25.04595676 22.34131557 27.52250281 23 30 C25.01353621 26.97969569 25.74916399 24.78179043 26.69140625 21.30859375 C26.99626953 20.19935547 27.30113281 19.09011719 27.61523438 17.94726562 C27.92783203 16.78904297 28.24042969 15.63082031 28.5625 14.4375 C29.18705962 12.14405602 29.81327772 9.85106284 30.44140625 7.55859375 C30.71670166 6.54079834 30.99199707 5.52300293 31.27563477 4.47436523 C32 2 32 2 33 0 C37.95 0 42.9 0 48 0 C37.34963205 32.30350572 37.34963205 32.30350572 32.5 45.75 C32.18675781 46.6280127 31.87351562 47.50602539 31.55078125 48.41064453 C28.96103284 55.49993945 26.79847792 60.11515547 20 64 C17.11890956 64.90733728 14.5132272 65.13531927 11.5 65.125 C10.7471875 65.12757813 9.994375 65.13015625 9.21875 65.1328125 C7.026465 65.00158417 5.10680863 64.60331338 3 64 C3.30921884 62.54096742 3.62248799 61.08279278 3.9375 59.625 C4.19853516 58.40683594 4.19853516 58.40683594 4.46484375 57.1640625 C5 55 5 55 6 53 C7.3921875 53.0928125 7.3921875 53.0928125 8.8125 53.1875 C11.90103747 53.23425746 11.90103747 53.23425746 13.9375 51.9375 C15.57384917 48.95356916 14.701711 46.1908373 14 43 C13.06572155 39.84620037 11.96195482 36.76313701 10.83984375 33.671875 C10.53051407 32.80105286 10.22118439 31.93023071 9.90248108 31.03302002 C8.92035423 28.26975469 7.92973156 25.50965154 6.9375 22.75 C5.94236975 19.97584313 4.94921925 17.20104725 3.96180725 14.4241333 C3.34883221 12.70074468 2.73133706 10.97895569 2.10887146 9.25897217 C1.83180862 8.48096252 1.55474579 7.70295288 1.26928711 6.90136719 C1.02359482 6.21854675 0.77790253 5.53572632 0.52476501 4.83221436 C0 3 0 3 0 0 Z " fill="#264EF5" transform="translate(724,129)"/>
<path d="M0 0 C5.61229878 3.41884576 8.88587287 9.35599149 10.4375 15.5625 C10.4375 19.1925 10.4375 22.8225 10.4375 26.5625 C0.2075 26.5625 -10.0225 26.5625 -20.5625 26.5625 C-18.37489782 33.08954086 -18.37489782 33.08954086 -15.8125 35.0625 C-12.42504734 35.81526726 -9.92166552 35.3875582 -6.5625 34.5625 C-5.840625 33.86125 -5.11875 33.16 -4.375 32.4375 C0.23225375 29.3659975 5.14804799 30.78637626 10.4375 31.5625 C8.79865906 37.81989269 6.01097306 41.88414801 0.5625 45.4375 C-6.44538374 48.00962436 -16.29464956 48.05915309 -23.125 45 C-29.1596628 41.27928198 -32.73425683 36.36855072 -34.5625 29.5625 C-35.3854754 21.39973238 -35.42659308 13.46866131 -30.5625 6.5625 C-22.67238607 -1.91342285 -10.96225954 -4.66162105 0 0 Z M-19.5625 12.5625 C-19.8925 14.2125 -20.2225 15.8625 -20.5625 17.5625 C-14.6225 17.5625 -8.6825 17.5625 -2.5625 17.5625 C-3.90063588 11.75564455 -3.90063588 11.75564455 -6.875 9.6875 C-12.42111842 7.36586903 -15.36037539 8.2436497 -19.5625 12.5625 Z " fill="#264EF5" transform="translate(676.5625,130.4375)"/>
<path d="M0 0 C6.59415459 3.05027112 9.78744818 7.60338608 12.47265625 14.31640625 C12.96765625 20.75140625 12.96765625 20.75140625 13.47265625 27.31640625 C2.91265625 27.31640625 -7.64734375 27.31640625 -18.52734375 27.31640625 C-16.05173423 33.13608132 -16.05173423 33.13608132 -11.52734375 36.31640625 C-8.71703863 36.45293929 -6.16913867 36.30911358 -3.52734375 35.31640625 C-3.0890625 34.63191406 -2.65078125 33.94742188 -2.19921875 33.2421875 C-1.6475 32.60667969 -1.09578125 31.97117188 -0.52734375 31.31640625 C2.609375 31.14453125 2.609375 31.14453125 6.16015625 31.56640625 C7.33964844 31.6953125 8.51914062 31.82421875 9.734375 31.95703125 C10.63800781 32.075625 11.54164063 32.19421875 12.47265625 32.31640625 C11.66394775 38.75941351 9.26362919 40.94830799 4.41015625 45.06640625 C-1.52116223 48.89306333 -9.75982095 47.80846007 -16.52734375 47.31640625 C-22.3924748 45.90625989 -26.00758414 42.43232442 -29.3359375 37.5078125 C-33.32340175 30.17349301 -32.91886985 22.36655722 -31.52734375 14.31640625 C-26.63109557 0.85172377 -13.13147828 -3.55179088 0 0 Z M-16.52734375 12.31640625 C-17.18734375 14.29640625 -17.84734375 16.27640625 -18.52734375 18.31640625 C-12.58734375 18.31640625 -6.64734375 18.31640625 -0.52734375 18.31640625 C-1.0401667 13.39820261 -1.0401667 13.39820261 -3.77734375 11.00390625 C-8.6600757 8.00768437 -12.12902381 8.75020089 -16.52734375 12.31640625 Z " fill="#264EF5" transform="translate(771.52734375,44.68359375)"/>
<path d="M0 0 C6.59415459 3.05027112 9.78744818 7.60338608 12.47265625 14.31640625 C12.96765625 20.75140625 12.96765625 20.75140625 13.47265625 27.31640625 C2.91265625 27.31640625 -7.64734375 27.31640625 -18.52734375 27.31640625 C-16.05173423 33.13608132 -16.05173423 33.13608132 -11.52734375 36.31640625 C-8.71703863 36.45293929 -6.16913867 36.30911358 -3.52734375 35.31640625 C-3.0890625 34.63191406 -2.65078125 33.94742188 -2.19921875 33.2421875 C-1.6475 32.60667969 -1.09578125 31.97117188 -0.52734375 31.31640625 C2.609375 31.14453125 2.609375 31.14453125 6.16015625 31.56640625 C7.33964844 31.6953125 8.51914062 31.82421875 9.734375 31.95703125 C10.63800781 32.075625 11.54164063 32.19421875 12.47265625 32.31640625 C11.66394775 38.75941351 9.26362919 40.94830799 4.41015625 45.06640625 C-1.52116223 48.89306333 -9.75982095 47.80846007 -16.52734375 47.31640625 C-22.3924748 45.90625989 -26.00758414 42.43232442 -29.3359375 37.5078125 C-33.32340175 30.17349301 -32.91886985 22.36655722 -31.52734375 14.31640625 C-26.63109557 0.85172377 -13.13147828 -3.55179088 0 0 Z M-16.52734375 12.31640625 C-17.18734375 14.29640625 -17.84734375 16.27640625 -18.52734375 18.31640625 C-12.58734375 18.31640625 -6.64734375 18.31640625 -0.52734375 18.31640625 C-1.0401667 13.39820261 -1.0401667 13.39820261 -3.77734375 11.00390625 C-8.6600757 8.00768437 -12.12902381 8.75020089 -16.52734375 12.31640625 Z " fill="#264EF5" transform="translate(536.52734375,44.68359375)"/>
<path d="M0 0 C3.73650573 1.96428455 5.65006543 5.66146968 7.25 9.4375 C7.75034429 12.30969959 7.72054131 15.08774445 7.640625 17.99609375 C7.63496521 18.78524673 7.62930542 19.57439972 7.62347412 20.38746643 C7.60125686 22.88395374 7.55109219 25.37895375 7.5 27.875 C7.47991588 29.57745309 7.46166847 31.27992889 7.4453125 32.98242188 C7.40144072 37.13467914 7.33251908 41.28583828 7.25 45.4375 C2.96 45.4375 -1.33 45.4375 -5.75 45.4375 C-6.08 44.4475 -6.41 43.4575 -6.75 42.4375 C-7.4925 43.0975 -8.235 43.7575 -9 44.4375 C-13.75537571 47.61907279 -19.27100288 47.06882477 -24.75 46.4375 C-28.45788871 45.07143574 -31.28073206 43.5565753 -33.75 40.4375 C-35.61668041 34.83745877 -35.63555522 29.38572149 -33.1875 24 C-28.3683619 18.93372661 -21.96382364 17.86362509 -15.3125 16.75 C-14.21518555 16.55567383 -14.21518555 16.55567383 -13.09570312 16.35742188 C-11.315123 16.04320185 -9.53273417 15.73925932 -7.75 15.4375 C-7.75 13.4575 -7.75 11.4775 -7.75 9.4375 C-11.76963908 9.16194228 -11.76963908 9.16194228 -15.75 9.4375 C-16.348125 10.0975 -16.94625 10.7575 -17.5625 11.4375 C-20.83092752 14.42577659 -23.90817681 13.83155459 -28.19140625 13.7734375 C-30.75 13.4375 -30.75 13.4375 -33.75 11.4375 C-31.55839315 6.0229419 -28.46995675 2.73074255 -23.75 -0.5625 C-16.96967424 -2.82260859 -6.55873666 -2.91222842 0 0 Z M-15.375 26.8125 C-16.15101563 27.06773438 -16.92703125 27.32296875 -17.7265625 27.5859375 C-19.92577296 28.36163513 -19.92577296 28.36163513 -21.75 30.4375 C-21.58492354 33.01290213 -21.58492354 33.01290213 -20.75 35.4375 C-17.54419594 37.04040203 -14.22817686 36.91867071 -10.75 36.4375 C-8.1030128 35.04064994 -8.1030128 35.04064994 -6.75 32.4375 C-6.41582071 28.7699787 -6.41582071 28.7699787 -6.75 25.4375 C-10.24695066 25.4375 -12.16371246 25.7277507 -15.375 26.8125 Z " fill="#264EF5" transform="translate(589.75,45.5625)"/>
<path d="M0 0 C2.88729264 2.61464273 5.26430331 5.50672775 5.96452332 9.42782593 C6.07406905 11.6757804 6.06358005 13.89080636 6.00390625 16.140625 C5.99824646 16.95338898 5.99258667 17.76615295 5.98675537 18.60354614 C5.96448963 21.18162695 5.9143144 23.75828181 5.86328125 26.3359375 C5.84320345 28.09112566 5.82495492 29.84633576 5.80859375 31.6015625 C5.76465737 35.88856439 5.69570036 40.17450977 5.61328125 44.4609375 C1.32328125 44.4609375 -2.96671875 44.4609375 -7.38671875 44.4609375 C-7.71671875 43.4709375 -8.04671875 42.4809375 -8.38671875 41.4609375 C-9.12921875 42.1209375 -9.87171875 42.7809375 -10.63671875 43.4609375 C-15.40190272 46.64907249 -20.8978273 46.07165207 -26.38671875 45.4609375 C-30.38611321 44.17541785 -31.95796741 42.93482056 -34.76171875 39.8359375 C-37.38327694 34.3911628 -37.11253294 29.86519701 -35.38671875 24.1484375 C-30.38896233 17.4327023 -22.5133628 16.691244 -14.7590332 15.49926758 C-12.95781673 15.21243332 -11.17011347 14.84324355 -9.38671875 14.4609375 C-9.05671875 13.8009375 -8.72671875 13.1409375 -8.38671875 12.4609375 C-8.71671875 11.4709375 -9.04671875 10.4809375 -9.38671875 9.4609375 C-12.22755516 8.04051929 -14.24149153 8.14641478 -17.38671875 8.4609375 C-17.94359375 9.1209375 -18.50046875 9.7809375 -19.07421875 10.4609375 C-22.48001696 13.40649271 -25.56221743 12.81035509 -29.92578125 12.69921875 C-32.38671875 12.4609375 -32.38671875 12.4609375 -34.38671875 11.4609375 C-33.9659755 6.69251404 -31.84159926 3.6248807 -28.38671875 0.4609375 C-20.48631091 -4.69150239 -8.21016133 -4.41650058 0 0 Z M-14.26171875 24.7734375 C-15.86660156 25.13888672 -15.86660156 25.13888672 -17.50390625 25.51171875 C-20.34417971 26.44693074 -21.64793594 27.06473504 -23.38671875 29.4609375 C-23.11635728 32.43491366 -22.53225849 33.31539776 -20.38671875 35.4609375 C-14.72813869 36.13162278 -14.72813869 36.13162278 -9.94921875 33.5859375 C-7.32936664 30.02293864 -7.29122082 27.85384248 -7.38671875 23.4609375 C-9.68674161 23.4609375 -12.04224556 24.25449593 -14.26171875 24.7734375 Z " fill="#264EF5" transform="translate(597.38671875,131.5390625)"/>
<path d="M0 0 C4.29 0 8.58 0 13 0 C13.33 1.98 13.66 3.96 14 6 C14.78375 5.195625 15.5675 4.39125 16.375 3.5625 C20.72622335 -0.68512279 24.04069911 -0.3410626 29.9453125 -0.27734375 C34.43750143 0.13051484 36.48791072 1.16043845 40 4 C43.63887341 9.82219746 44.14722026 14.87582581 44.09765625 21.609375 C44.0962413 22.33618469 44.09482635 23.06299438 44.09336853 23.81182861 C44.08778792 26.12459494 44.07523904 28.43726312 44.0625 30.75 C44.05748249 32.32161318 44.05292002 33.89322789 44.04882812 35.46484375 C44.03782485 39.30993343 44.02057361 43.1549501 44 47 C39.38 47 34.76 47 30 47 C29.93941406 44.79699219 29.87882813 42.59398437 29.81640625 40.32421875 C29.75458941 38.18950054 29.69121311 36.05483392 29.62768555 33.92016602 C29.5843867 32.43713985 29.54270801 30.95406546 29.50268555 29.47094727 C29.44486042 27.33855661 29.38120168 25.20640758 29.31640625 23.07421875 C29.27974854 21.79119873 29.24309082 20.50817871 29.20532227 19.1862793 C29.13438766 15.97888449 29.13438766 15.97888449 28 13 C26.783125 12.731875 25.56625 12.46375 24.3125 12.1875 C23.62800781 12.03667969 22.94351563 11.88585938 22.23828125 11.73046875 C18.59754504 12.16888201 17.26890153 14.24082406 15 17 C14.22673831 20.36687898 14.22673831 20.36687898 14.29296875 24.05078125 C14.27784744 24.70958786 14.26272614 25.36839447 14.24714661 26.04716492 C14.20441434 28.135962 14.19544735 30.2233102 14.1875 32.3125 C14.16434386 33.73506417 14.13897617 35.15759417 14.11132812 36.58007812 C14.0444798 40.05416509 14.02338414 43.5242667 14 47 C9.38 47 4.76 47 0 47 C0 31.49 0 15.98 0 0 Z " fill="#264EF5" transform="translate(606,44)"/>
<path d="M0 0 C5.86092435 2.59343046 9.879582 7.51219322 12.25390625 13.40234375 C14.61192708 21.72091722 13.73401344 29.47384017 10.44140625 37.38671875 C8.02167738 41.67623812 4.46759426 44.6665204 0.01953125 46.6953125 C-6.64863209 48.48359267 -14.45881744 48.6847271 -20.8515625 46.0078125 C-27.01724474 42.31552083 -30.46349432 37.50775213 -32.80859375 30.82421875 C-34.29842503 24.22639451 -33.60478083 17.26373323 -31.30859375 10.94921875 C-23.73032043 -0.14753861 -12.79633228 -3.06721247 0 0 Z M-13.80859375 10.13671875 C-17.70740947 13.32665888 -18.74566692 16.48593129 -19.55859375 21.38671875 C-19.81543949 26.12669015 -19.21359603 30.02775859 -16.43359375 33.94921875 C-13.71754353 36.66799912 -13.71754353 36.66799912 -9.99609375 37.01171875 C-6.03827829 36.29211594 -4.90269467 35.5990052 -2.55859375 32.38671875 C0.50029411 26.8807206 0.00744416 21.41779594 -1.62109375 15.57421875 C-3.37601322 12.16190724 -3.37601322 12.16190724 -6.87109375 10.26171875 C-10.48400463 9.11634124 -10.48400463 9.11634124 -13.80859375 10.13671875 Z " fill="#264EF5" transform="translate(927.55859375,44.61328125)"/>
<path d="M0 0 C5.86092435 2.59343046 9.879582 7.51219322 12.25390625 13.40234375 C14.61192708 21.72091722 13.73401344 29.47384017 10.44140625 37.38671875 C8.02167738 41.67623812 4.46759426 44.6665204 0.01953125 46.6953125 C-6.64863209 48.48359267 -14.45881744 48.6847271 -20.8515625 46.0078125 C-27.01724474 42.31552083 -30.46349432 37.50775213 -32.80859375 30.82421875 C-34.29842503 24.22639451 -33.60478083 17.26373323 -31.30859375 10.94921875 C-23.73032043 -0.14753861 -12.79633228 -3.06721247 0 0 Z M-13.80859375 10.13671875 C-17.70740947 13.32665888 -18.74566692 16.48593129 -19.55859375 21.38671875 C-19.81543949 26.12669015 -19.21359603 30.02775859 -16.43359375 33.94921875 C-13.71754353 36.66799912 -13.71754353 36.66799912 -9.99609375 37.01171875 C-6.03827829 36.29211594 -4.90269467 35.5990052 -2.55859375 32.38671875 C0.50029411 26.8807206 0.00744416 21.41779594 -1.62109375 15.57421875 C-3.37601322 12.16190724 -3.37601322 12.16190724 -6.87109375 10.26171875 C-10.48400463 9.11634124 -10.48400463 9.11634124 -13.80859375 10.13671875 Z " fill="#264EF5" transform="translate(431.55859375,44.61328125)"/>
<path d="M0 0 C6.26622643 3.75250212 10.09856686 8.80550609 11.95703125 15.80859375 C13.74254823 25.0261344 11.815533 32.78614443 6.70703125 40.62109375 C1.57351113 45.75461387 -3.46831286 46.92319124 -10.60546875 46.99609375 C-16.59338709 46.95551243 -21.59397574 46.60575053 -26.29296875 42.62109375 C-31.92865152 36.78277969 -34.2925 30.85824382 -34.60546875 22.74609375 C-34.41081602 14.74100024 -32.17016916 8.23708525 -26.29296875 2.62109375 C-19.2330628 -3.00230528 -8.11840135 -3.39952038 0 0 Z M-17.29296875 11.62109375 C-20.11012283 16.41025569 -21.26220967 21.11830656 -20.29296875 26.62109375 C-18.38993913 32.02476743 -18.38993913 32.02476743 -14.29296875 35.62109375 C-10.91990257 36.20524077 -10.91990257 36.20524077 -7.29296875 35.62109375 C-3.52811884 32.34731122 -2.53178248 30.6081905 -1.35546875 25.74609375 C-1.00611414 20.3824729 -1.82463175 15.52993186 -5.16796875 11.18359375 C-9.84029692 7.74805833 -12.47077072 8.33789509 -17.29296875 11.62109375 Z " fill="#264EF5" transform="translate(326.29296875,130.37890625)"/>
<path d="M0 0 C4.29 0 8.58 0 13 0 C13.06058594 1.95164063 13.12117188 3.90328125 13.18359375 5.9140625 C13.2680203 8.48438187 13.35266724 11.05469401 13.4375 13.625 C13.47681641 14.91019531 13.51613281 16.19539063 13.55664062 17.51953125 C13.61948242 19.38544922 13.61948242 19.38544922 13.68359375 21.2890625 C13.72025146 22.43068848 13.75690918 23.57231445 13.79467773 24.74853516 C13.99326801 27.8933928 14.4238847 30.9041491 15 34 C16.41154099 34.27748242 17.82979799 34.52093516 19.25 34.75 C20.03890625 34.88921875 20.8278125 35.0284375 21.640625 35.171875 C24.11953203 35.20289387 24.11953203 35.20289387 26.109375 33.4375 C28.66055609 30.14837397 28.54159318 27.96281591 28.609375 23.828125 C28.62591125 23.1457074 28.64244751 22.46328979 28.65948486 21.76019287 C28.70789839 19.59003646 28.72931865 17.42058028 28.75 15.25 C28.77816562 13.77470448 28.80809389 12.29944149 28.83984375 10.82421875 C28.9169635 7.21582604 28.95753375 3.60963105 29 0 C33.62 0 38.24 0 43 0 C43 15.51 43 31.02 43 47 C38.71 47 34.42 47 30 47 C29.505 44.525 29.505 44.525 29 42 C28.05125 42.804375 27.1025 43.60875 26.125 44.4375 C21.98008767 47.9516648 19.08522632 48.40637744 13.67578125 48.34375 C9.38855841 47.79298269 6.06048833 46.03928402 3 43 C-0.12305081 37.95854487 -0.40704227 34.0547048 -0.29296875 28.3203125 C-0.28872391 27.50754852 -0.28447906 26.69478455 -0.28010559 25.85739136 C-0.26340804 23.27958041 -0.22577362 20.7025718 -0.1875 18.125 C-0.17244158 16.36980301 -0.1587552 14.61459369 -0.14648438 12.859375 C-0.11353392 8.57261087 -0.06181453 4.28644114 0 0 Z " fill="#264EF5" transform="translate(315,44)"/>
<path d="M0 0 C-0.66 3.63 -1.32 7.26 -2 11 C-4.97 11 -7.94 11 -11 11 C-11.33 12.98 -11.66 14.96 -12 17 C-8.7 17 -5.4 17 -2 17 C-2 20.63 -2 24.26 -2 28 C-5.3 28 -8.6 28 -12 28 C-12 39.88 -12 51.76 -12 64 C-16.62 64 -21.24 64 -26 64 C-26 52.12 -26 40.24 -26 28 C-27.98 28 -29.96 28 -32 28 C-32 24.37 -32 20.74 -32 17 C-30.02 17 -28.04 17 -26 17 C-25.97421875 16.41992188 -25.9484375 15.83984375 -25.921875 15.2421875 C-25.52665867 9.79898075 -24.7270945 6.23075592 -21 2 C-15.24949435 -2.31287924 -6.66244691 -2.22081564 0 0 Z " fill="#254CF5" transform="translate(291,112)"/>
<path d="M0 0 C1.56814453 0.00966797 1.56814453 0.00966797 3.16796875 0.01953125 C5.8125 0.1875 5.8125 0.1875 7.8125 1.1875 C7.6989371 2.83416203 7.57132619 4.47986082 7.4375 6.125 C7.36789062 7.04152344 7.29828125 7.95804687 7.2265625 8.90234375 C7.08992187 9.65644531 6.95328125 10.41054687 6.8125 11.1875 C4.10370665 12.54189668 1.80316732 12.25251451 -1.1875 12.1875 C-1.8475 14.1675 -2.5075 16.1475 -3.1875 18.1875 C-0.2175 18.1875 2.7525 18.1875 5.8125 18.1875 C5.8125 21.8175 5.8125 25.4475 5.8125 29.1875 C2.8425 29.1875 -0.1275 29.1875 -3.1875 29.1875 C-3.1875 41.0675 -3.1875 52.9475 -3.1875 65.1875 C-7.8075 65.1875 -12.4275 65.1875 -17.1875 65.1875 C-17.1875 53.3075 -17.1875 41.4275 -17.1875 29.1875 C-19.1675 29.1875 -21.1475 29.1875 -23.1875 29.1875 C-23.1875 25.5575 -23.1875 21.9275 -23.1875 18.1875 C-21.2075 18.1875 -19.2275 18.1875 -17.1875 18.1875 C-17.17332031 17.53523438 -17.15914062 16.88296875 -17.14453125 16.2109375 C-16.7950929 9.80771592 -15.98055116 6.54481923 -11.1875 2.1875 C-7.36172384 0.27134203 -4.25376037 -0.05812592 0 0 Z " fill="#264EF5" transform="translate(632.1875,110.8125)"/>
<path d="M0 0 C4.62 0 9.24 0 14 0 C14 3.63 14 7.26 14 11 C16.97 11 19.94 11 23 11 C23 14.63 23 18.26 23 22 C20.03 22 17.06 22 14 22 C14.33 30.25 14.66 38.5 15 47 C17.31 47 19.62 47 22 47 C22.99 52.445 22.99 52.445 24 58 C19.83612077 60.08193962 14.54597336 59.32683469 10 59 C6.17036426 57.72345475 4.61508666 56.80597562 2.1875 53.625 C0.18457697 49.19748593 -0.12344071 45.08341214 -0.09765625 40.26171875 C-0.09443359 39.19501953 -0.09121094 38.12832031 -0.08789062 37.02929688 C-0.07951172 35.92650391 -0.07113281 34.82371094 -0.0625 33.6875 C-0.05798828 32.56537109 -0.05347656 31.44324219 -0.04882812 30.28710938 C-0.03707313 27.5246849 -0.02064077 24.76237002 0 22 C-1.98 22 -3.96 22 -6 22 C-6 18.37 -6 14.74 -6 11 C-4.02 11 -2.04 11 0 11 C0 7.37 0 3.74 0 0 Z " fill="#264EF5" transform="translate(697,118)"/>
<path d="M0 0 C4.62 0 9.24 0 14 0 C14 3.63 14 7.26 14 11 C16.97 11 19.94 11 23 11 C23 14.63 23 18.26 23 22 C20.03 22 17.06 22 14 22 C14.33 29.92 14.66 37.84 15 46 C18.465 46.495 18.465 46.495 22 47 C22.99 52.445 22.99 52.445 24 58 C18.29233892 59.90255369 12.14370909 59.76561039 6.5 57.75 C2.62343986 55.0364079 0.88439287 52.60944161 0 48 C-0.08091092 45.97531289 -0.10758899 43.94815381 -0.09765625 41.921875 C-0.09443359 40.76171875 -0.09121094 39.6015625 -0.08789062 38.40625 C-0.07951172 37.1996875 -0.07113281 35.993125 -0.0625 34.75 C-0.05798828 33.52796875 -0.05347656 32.3059375 -0.04882812 31.046875 C-0.03704815 28.03120054 -0.02059853 25.01562502 0 22 C-1.98 22 -3.96 22 -6 22 C-6 18.37 -6 14.74 -6 11 C-4.02 11 -2.04 11 0 11 C0 7.37 0 3.74 0 0 Z " fill="#264EF5" transform="translate(795,33)"/>
<path d="M0 0 C4.62 0 9.24 0 14 0 C14 20.46 14 40.92 14 62 C9.38 62 4.76 62 0 62 C0 41.54 0 21.08 0 0 Z " fill="#264FF4" transform="translate(464,114)"/>
<path d="M0 0 C4.62 0 9.24 0 14 0 C14.33 1.32 14.66 2.64 15 4 C15.639375 3.34 16.27875 2.68 16.9375 2 C21.20751756 -0.7885829 23.96587748 -0.30054463 29 0 C29 3.96 29 7.92 29 12 C27.5975 12.103125 26.195 12.20625 24.75 12.3125 C21.03941591 12.72673187 18.62603063 13.15513348 16 16 C14.8992924 19.3021228 14.79372928 21.94083279 14.68359375 25.41796875 C14.64169922 26.67158203 14.59980469 27.92519531 14.55664062 29.21679688 C14.51732422 30.52712891 14.47800781 31.83746094 14.4375 33.1875 C14.39429008 34.52279978 14.350675 35.85808652 14.30664062 37.19335938 C14.20043566 40.46211234 14.09970215 43.73104223 14 47 C9.38 47 4.76 47 0 47 C0 31.49 0 15.98 0 0 Z " fill="#264EF5" transform="translate(948,44)"/>
<path d="M0 0 C4.29 0 8.58 0 13 0 C13.33 1.65 13.66 3.3 14 5 C14.61875 4.360625 15.2375 3.72125 15.875 3.0625 C19.98784731 -0.92938121 23.47584906 -0.07891644 29 0 C29 3.96 29 7.92 29 12 C27.411875 12.144375 25.82375 12.28875 24.1875 12.4375 C21.21103374 12.70808784 18.85082796 13.04972401 16 14 C14.85705686 17.42882941 14.79035528 20.24082838 14.68359375 23.85546875 C14.66281265 24.51710526 14.64203156 25.17874176 14.62062073 25.86042786 C14.55535273 27.96934852 14.49634656 30.07839135 14.4375 32.1875 C14.39429311 33.61915315 14.35067812 35.05079404 14.30664062 36.48242188 C14.19892815 39.98815796 14.09968692 43.49398975 14 47 C9.38 47 4.76 47 0 47 C0 31.49 0 15.98 0 0 Z " fill="#264EF5" transform="translate(346,129)"/>
<path d="M0 0 C4.29 0 8.58 0 13 0 C13.33 1.32 13.66 2.64 14 4 C14.928125 3.01 14.928125 3.01 15.875 2 C20.39567104 -0.89322946 23.69182397 -0.28310272 29 0 C29 3.96 29 7.92 29 12 C27.4325 12.0825 25.865 12.165 24.25 12.25 C20.81445298 12.5950125 19.30058456 12.78739141 16.4375 14.8125 C13.87652745 18.70963214 13.84113301 22.4869808 13.68359375 27.078125 C13.64169922 28.23828125 13.59980469 29.3984375 13.55664062 30.59375 C13.49766602 32.40359375 13.49766602 32.40359375 13.4375 34.25 C13.39431641 35.47203125 13.35113281 36.6940625 13.30664062 37.953125 C13.20062717 40.96861881 13.0998156 43.98429468 13 47 C8.71 47 4.42 47 0 47 C0 31.49 0 15.98 0 0 Z " fill="#264EF5" transform="translate(368,44)"/>
</svg>
