<?xml version="1.0" encoding="UTF-8"?>
<svg version="1.1" xmlns="http://www.w3.org/2000/svg" width="512" height="512">
<path d="M0 0 C0.72638672 -0.02449219 1.45277344 -0.04898438 2.20117188 -0.07421875 C13.92583687 -0.13533777 23.76223167 5.37210147 33.5625 11.25 C35.28018689 12.26077991 36.9978782 13.27155247 38.71589661 14.2817688 C40.46116374 15.31033121 42.20335418 16.34393008 43.94482422 17.37890625 C48.02512295 19.79738692 52.12420664 22.18245169 56.22558594 24.56494141 C67.34809753 31.02903496 78.43796432 37.54942127 89.53442383 44.05810547 C97.12103461 48.50753917 104.7137181 52.94637188 112.3125 57.375 C150.15248254 79.43904631 150.15248254 79.43904631 168.8371582 90.69750977 C177.00207826 95.60922458 185.21237832 100.4401191 193.4375 105.25 C202.45028213 110.52105166 211.44800039 115.81161945 220.38232422 121.21484375 C222.74010454 122.63201704 225.10635061 124.03460961 227.47265625 125.4375 C228.37685303 125.97528076 229.2810498 126.51306152 230.21264648 127.06713867 C231.98258891 128.11965259 233.75414885 129.16945291 235.52758789 130.21606445 C244.87758138 135.789149 252.27335516 142.22996542 255.83984375 152.88671875 C257.67059631 162.52464752 257.43057261 172.83499472 252.3125 181.375 C246.54693103 188.94583972 240.17068646 193.86727702 231.9375 198.5 C229.7083314 199.79556959 227.4791648 201.09114262 225.25 202.38671875 C224.1053125 203.04333496 222.960625 203.69995117 221.78125 204.37646484 C216.1281229 207.62293081 210.53912412 210.9782971 204.9375 214.3125 C202.66970874 215.65568754 200.40147737 216.99813228 198.1328125 218.33984375 C192.48151485 221.68292183 186.83206624 225.02910413 181.18359375 228.37695312 C177.80750331 230.37796154 174.43109531 232.37843341 171.0546875 234.37890625 C166.57961613 237.03068053 162.1057567 239.68448311 157.6328125 242.33984375 C136.28098753 255.01159621 114.86109118 267.56499774 93.40942383 280.06689453 C84.92038987 285.0158357 76.44327022 289.98495545 67.96786499 294.95718384 C58.40534519 300.56698568 48.83389345 306.16113261 39.25 311.734375 C37.89841797 312.52134766 37.89841797 312.52134766 36.51953125 313.32421875 C35.65392578 313.82791992 34.78832031 314.33162109 33.89648438 314.85058594 C31.25171924 316.41085743 28.63685599 318.01531908 26.01953125 319.62109375 C14.91172151 326.28621687 2.0022347 328.64370041 -10.68432617 325.67333984 C-18.50887385 323.46292396 -25.09900695 320.24526885 -32 316 C-34.10655302 314.73791763 -36.21333008 313.47620913 -38.3203125 312.21484375 C-39.38024414 311.57401855 -40.44017578 310.93319336 -41.53222656 310.27294922 C-46.44861146 307.3156623 -51.41283109 304.44204467 -56.375 301.5625 C-65.9431683 295.98600379 -75.49739703 290.38583317 -85.04989624 284.78256226 C-93.25612573 279.96918035 -101.46781131 275.16537838 -109.6875 270.375 C-147.66111606 248.23792883 -147.66111606 248.23792883 -161.6796875 239.78125 C-167.2481187 236.42897769 -172.84498954 233.12437572 -178.4375 229.8125 C-179.30149918 229.30074722 -179.30149918 229.30074722 -180.18295288 228.77865601 C-185.53064816 225.61124576 -190.87909339 222.4451031 -196.22802734 219.27978516 C-196.80742569 218.93689453 -197.38682404 218.59400391 -197.98377991 218.24072266 C-199.14556694 217.55317646 -200.30738119 216.86567624 -201.46922302 216.17822266 C-205.42749334 213.83558215 -209.38201792 211.48669256 -213.3359375 209.13671875 C-217.36969481 206.74095199 -221.4154178 204.36854224 -225.4765625 202.01953125 C-239.24990822 194.00916466 -250.40784587 187.21396238 -255.6875 171.375 C-256.334587 162.02936644 -256.40312672 153.74796098 -251.6875 145.375 C-251.34847656 144.74335938 -251.00945312 144.11171875 -250.66015625 143.4609375 C-244.83004884 134.04147571 -232.65398304 128.86459412 -223.375 123.5 C-222.10381371 122.76055782 -220.83290482 122.02063858 -219.56225586 121.28027344 C-216.92571658 119.74456204 -214.28800982 118.21088609 -211.64941406 116.67871094 C-205.95079924 113.36770777 -200.26577034 110.03354902 -194.58096313 106.69891357 C-192.74587499 105.62258056 -190.91044502 104.54683241 -189.07495117 103.47119141 C-181.06315037 98.77503016 -173.06415771 94.05752357 -165.07250977 89.32714844 C-156.82997504 84.45151669 -148.5669386 79.61107962 -140.30322266 74.77148438 C-132.42178787 70.15536184 -124.54750241 65.52755748 -116.6875 60.875 C-107.57474072 55.48090034 -98.4410281 50.12298484 -89.30322266 44.77148438 C-81.42178584 40.15536065 -73.54779239 35.5270698 -65.6875 30.875 C-63.02825546 29.30294377 -60.36871716 27.73138629 -57.70898438 26.16015625 C-55.50163317 24.85600693 -53.29465225 23.55123978 -51.08789062 22.24609375 C-47.84863375 20.3309036 -44.60706303 18.41967331 -41.36425781 16.51049805 C-40.10053932 15.76574961 -38.83749399 15.01985748 -37.57519531 14.27270508 C-13.49520359 0.02332792 -13.49520359 0.02332792 0 0 Z " fill="#000000" transform="translate(255.6875,-0.375)"/>
<path d="M0 0 C1.29504865 0.77171381 2.59063036 1.54253371 3.88671875 2.3125 C7.16843736 4.26550866 10.44289417 6.23030471 13.71453857 8.20013428 C16.47559426 9.86212985 19.2399479 11.51861869 22.00390625 13.17578125 C25.03672636 14.99542476 28.06878297 16.81628362 31.09863281 18.64086914 C40.95237492 24.56921938 50.87417809 30.37871117 60.80076599 36.18382263 C61.40018509 36.5343721 61.99960419 36.88492157 62.6171875 37.24609375 C63.2110878 37.59338028 63.8049881 37.94066681 64.41688538 38.29847717 C69.91356973 41.51438831 75.39562336 44.75471897 80.875 48 C91.39924599 54.22946412 101.96173345 60.3924458 112.53027344 66.54638672 C116.54383844 68.88407828 120.55580984 71.22449597 124.56762695 73.56518555 C126.56343991 74.72961314 128.55937083 75.89383857 130.55541992 77.05786133 C135.59463463 79.99661601 140.63251267 82.93762161 145.66796875 85.8828125 C150.65785239 88.80116744 155.6540635 91.70849642 160.65185547 94.61328125 C163.54704902 96.3034798 166.4321368 98.00999177 169.31640625 99.71875 C188.06222658 110.74579976 207.05227811 117.2918558 229.0625 112.125 C239.89697752 108.71187373 249.51255241 103.84219549 259.1875 97.9375 C261.56950925 96.50169872 263.95493273 95.07159962 266.33984375 93.640625 C266.94131729 93.27863007 267.54279083 92.91663513 268.16249084 92.54367065 C274.31317379 88.84647562 280.52632542 85.26025456 286.75 81.6875 C299.05095877 74.61359582 311.31482575 67.47821395 323.5625 60.3125 C324.69558594 59.64992188 325.82867187 58.98734375 326.99609375 58.3046875 C343.51612466 48.64344612 359.99883498 38.92133551 376.45654297 29.15429688 C381.15519497 26.36805016 385.85862968 23.58992494 390.5625 20.8125 C396.54731731 17.27856558 402.52967512 13.74053657 408.5078125 10.1953125 C409.10398376 9.84180725 409.70015503 9.488302 410.31439209 9.12408447 C413.21905253 7.4016594 416.12342305 5.67875035 419.02734375 3.95507812 C421.15603893 2.6925328 423.28653387 1.43301627 425.41894531 0.17675781 C427.56302743 -1.09477147 429.69748727 -2.38263297 431.82324219 -3.68457031 C432.86899414 -4.31717773 433.91474609 -4.94978516 434.9921875 -5.6015625 C435.92015137 -6.17084473 436.84811523 -6.74012695 437.80419922 -7.32666016 C442.14727675 -9.46936808 445.27970152 -10.06758844 449.9375 -8.6875 C458.52668334 -4.45927067 465.03083983 3.1034433 468.203125 12.13671875 C470.01740983 23.12103016 469.29894274 33.65698132 462.75 42.859375 C457.56490981 49.15010943 451.66527871 53.16370469 444.61669922 57.14306641 C441.44377755 58.9493767 438.3118118 60.82379704 435.1730957 62.6887207 C432.34280817 64.36870664 429.50791877 66.04068894 426.671875 67.7109375 C420.33775792 71.4430304 414.01180858 75.18881522 407.6875 78.9375 C406.57205811 79.59854736 405.45661621 80.25959473 404.30737305 80.94067383 C395.97401829 85.87999992 387.6446909 90.82609666 379.31585693 95.77304077 C361.2471598 106.50444929 343.17301283 117.22439369 325.01367188 127.80200195 C317.02153745 132.45789385 309.04044824 137.1323644 301.0625 141.8125 C291.16230761 147.61961272 281.25767755 153.41894773 271.33935547 159.19506836 C266.25016394 162.15897578 261.1661712 165.13129093 256.08984375 168.1171875 C255.01839111 168.7460083 253.94693848 169.3748291 252.84301758 170.02270508 C250.81138999 171.2152744 248.78116412 172.41023654 246.75268555 173.6081543 C235.72629039 180.07210158 225.92504258 185.66494159 212.875 185.6875 C212.14861328 185.71199219 211.42222656 185.73648438 210.67382812 185.76171875 C199.03611554 185.8223845 189.23482618 180.39369725 179.5 174.5625 C177.82550781 173.57830078 177.82550781 173.57830078 176.1171875 172.57421875 C173.17716994 170.84572562 170.24542583 169.10371777 167.31610107 167.35717773 C164.47564427 165.66502436 161.63009388 163.98148067 158.78515625 162.296875 C155.41259428 160.29886415 152.04081378 158.29960287 148.67163086 156.29589844 C141.00358356 151.73935445 133.29707341 147.25505657 125.5625 142.8125 C115.50055183 137.0322481 105.50178568 131.15247912 95.52734375 125.22265625 C88.22591908 120.88400622 80.90436515 116.58232778 73.5625 112.3125 C61.66417614 105.38946268 49.82201832 98.37335211 37.98583984 91.34472656 C33.46772124 88.6625971 28.94748656 85.98404754 24.42700195 83.3059082 C22.19226366 81.98186509 19.95772436 80.65748606 17.72338867 79.33276367 C12.51503314 76.24496645 7.30543468 73.15937298 2.09069824 70.08236694 C-0.33616793 68.65017148 -2.76222742 67.21661258 -5.18823242 65.78295898 C-6.87275679 64.78823148 -8.55842625 63.7954439 -10.24414062 62.80273438 C-38.38145891 46.17060738 -38.38145891 46.17060738 -43.05078125 32.51953125 C-44.68835025 23.17380918 -44.61989511 12.48579867 -39.4375 4.3125 C-26.24782984 -12.83899273 -16.97375841 -10.24889169 0 0 Z " fill="#000000" transform="translate(43.4375,233.6875)"/>
<path d="M0 0 C3.91278844 1.59223588 7.37509889 3.74341247 10.9375 6 C13.0585332 7.29046411 15.17962937 8.58082472 17.30078125 9.87109375 C18.39729004 10.54897949 19.49379883 11.22686523 20.62353516 11.92529297 C26.2458536 15.37999016 31.94031395 18.71183476 37.625 22.0625 C39.90991549 23.41618831 42.19319771 24.77260098 44.4765625 26.12890625 C50.31310137 29.59376405 56.15516357 33.04916217 62 36.5 C67.84483643 39.95083783 73.68689863 43.40623595 79.5234375 46.87109375 C93.33102414 55.06708857 107.16892374 63.20835352 121.04833984 71.28222656 C126.03460377 74.18407544 131.01709216 77.09239336 136 80 C137.99998229 81.16669702 139.99998229 82.3333637 142 83.5 C154 90.5 154 90.5 157.00292969 92.25219727 C158.99259711 93.41251244 160.98282718 94.5718634 162.97363281 95.73022461 C168.13687856 98.73619487 173.2877467 101.76093213 178.421875 104.81640625 C179.48148438 105.44353516 180.54109375 106.07066406 181.6328125 106.71679688 C183.63654786 107.90321913 185.63685793 109.09545595 187.6328125 110.29492188 C206.14557362 121.22367371 225.69450536 125.5696059 246.9375 120.5 C254.85294787 117.99587131 261.88740064 114.19505606 269 110 C269.94891113 109.44231934 270.89782227 108.88463867 271.87548828 108.31005859 C276.36577925 105.66556796 280.85081626 103.01252636 285.32641602 100.34326172 C293.24315683 95.62180529 301.19608837 90.96945993 309.1875 86.375 C320.41669866 79.91635943 331.61823206 73.4123199 342.79980469 66.87158203 C345.02137725 65.57233155 347.24331714 64.27373029 349.46582031 62.97607422 C363.20962238 54.9508795 376.91790557 46.87449043 390.55102539 38.66210938 C399.66398666 33.18119343 408.82546571 27.78511332 418.02075195 22.44360352 C423.59614178 19.2001162 429.14830521 15.93209461 434.62585449 12.52522278 C437.0585595 11.01259512 439.50041939 9.51506886 441.94244385 8.01754761 C443.63668853 6.96894816 445.31643029 5.89702829 446.99560547 4.82446289 C453.24268532 1.00173169 458.57181571 -1.69175706 466 0 C469.09655068 1.64472203 471.48967342 3.56000584 474 6 C474.556875 6.52980469 475.11375 7.05960937 475.6875 7.60546875 C482.66164812 14.94575965 484.61034398 23.16557744 484.47045898 33.09741211 C484.06922739 42.1203081 481.12259376 48.35789015 475.171875 55.015625 C467.89148533 61.66749182 459.43227887 66.41230823 450.9375 71.3125 C448.96064012 72.46057988 446.98483446 73.61046019 445.0090332 74.76036072 C443.72307932 75.50855776 442.43678836 76.25617578 441.15014648 77.00318909 C436.87010078 79.48854284 432.61237406 82.00520759 428.375 84.5625 C418.7388797 90.3754728 409.04558124 96.09238786 399.3614502 101.82485962 C395.33049581 104.21124961 391.30147348 106.60087326 387.2734375 108.9921875 C372.71389123 117.63377565 358.12356876 126.22097852 343.51145935 134.77325439 C339.19510267 137.29968127 334.88031034 139.8287628 330.56640625 142.359375 C316.37665452 150.68293257 302.17684896 158.9889587 287.96337891 167.27197266 C283.80724977 169.6955253 279.65354885 172.12322742 275.49975586 174.55078125 C272.46527899 176.32229552 269.42819182 178.08925942 266.390625 179.85546875 C263.15997077 181.73476396 259.93957807 183.62843361 256.734375 185.55078125 C247.08510362 191.30502648 239.34735675 194.20438083 228.125 194.4375 C227.40602539 194.46005859 226.68705078 194.48261719 225.94628906 194.50585938 C214.30773843 194.45392474 204.48416741 188.96325323 194.75 183.125 C193.03231311 182.11422009 191.3146218 181.10344753 189.59660339 180.0932312 C187.85133626 179.06466879 186.10914582 178.03106992 184.36767578 176.99609375 C180.28737705 174.57761308 176.18829336 172.19254831 172.08691406 169.81005859 C160.96440247 163.34596504 149.87453568 156.82557873 138.77807617 150.31689453 C131.1914656 145.86746095 123.59882964 141.42854597 116 137 C78.02638394 114.86292883 78.02638394 114.86292883 64.0078125 106.40625 C58.4393813 103.05397769 52.84251046 99.74937572 47.25 96.4375 C46.67400055 96.09633148 46.0980011 95.75516296 45.50454712 95.40365601 C40.15685184 92.23624576 34.80840661 89.0701031 29.45947266 85.90478516 C22.68390146 81.89509093 15.91025628 77.88217646 9.14013672 73.86328125 C7.07993008 72.64080441 5.01907886 71.41941307 2.95751953 70.19921875 C0.17777992 68.55320418 -2.59901169 66.90233099 -5.375 65.25 C-6.18316162 64.77272461 -6.99132324 64.29544922 -7.82397461 63.80371094 C-16.92649885 58.3687229 -24.06371839 51.8376768 -27.52734375 41.48828125 C-29.32720856 32.01295989 -29.2775975 21.323445 -24 13 C-17.34423397 4.34502066 -11.52189028 -1.9977055 0 0 Z " fill="#000000" transform="translate(28,318)"/>
</svg>
