<?xml version="1.0" encoding="UTF-8"?>
<svg version="1.1" xmlns="http://www.w3.org/2000/svg" width="512" height="512">
<path d="M0 0 C0.85351044 -0.00979385 1.70702087 -0.01958771 2.58639526 -0.02967834 C41.26722434 -0.38199191 76.5372126 5.85927873 110.91015625 24.23828125 C111.51601563 24.56054688 112.121875 24.8828125 112.74609375 25.21484375 C153.98928514 47.36730026 186.26717807 85.04735626 200.20361328 129.88085938 C202.019676 135.94025869 203.69607818 142.02665432 204.91015625 148.23828125 C205.08748291 149.13804687 205.26480957 150.0378125 205.44750977 150.96484375 C207.11827758 160.44665555 207.2668857 169.76839898 207.22265625 179.36328125 C207.21992203 180.59167221 207.21992203 180.59167221 207.21713257 181.84487915 C207.17201059 193.8762809 206.75567314 205.49734512 203.91015625 217.23828125 C203.74918457 217.95290527 203.58821289 218.6675293 203.42236328 219.40380859 C199.07744565 238.3903891 191.08321421 259.96734227 178.5234375 275.1171875 C175.32757957 281.29997318 179.66896763 289.94660964 181.67593384 296.30725098 C182.03424286 297.42917847 182.39255188 298.55110596 182.76171875 299.70703125 C183.13944427 300.90017944 183.5171698 302.09332764 183.90634155 303.32263184 C184.90988809 306.49001029 185.91676767 309.65628867 186.92529297 312.82208252 C187.92188064 315.95337454 188.91378734 319.08614857 189.90625 322.21875 C190.4904068 324.05977295 190.4904068 324.05977295 191.08636475 325.93798828 C191.86936575 328.40722465 192.65082175 330.87695147 193.4307251 333.34716797 C195.32497051 339.32976927 197.25617661 345.29434143 199.28027344 351.234375 C199.65364838 352.34760132 200.02702332 353.46082764 200.41171265 354.60778809 C201.10710906 356.67544413 201.81622957 358.73856463 202.54263306 360.79553223 C205.15621363 368.63046319 206.87537035 377.08949592 203.22265625 384.80078125 C200.20670667 387.97975513 197.5728244 389.94224924 193.20336914 390.72021484 C185.01285089 390.8381239 179.46123464 388.77646694 172.34765625 384.86328125 C171.41630859 384.37472656 170.48496094 383.88617188 169.52539062 383.3828125 C166.92392366 382.01361936 164.33457006 380.62375757 161.7477417 379.22717285 C147.60736981 371.61757026 133.29287786 364.37672735 118.91015625 357.23828125 C115.17983139 355.38643235 111.45086297 353.53189001 107.72265625 351.67578125 C106.87904541 351.258125 106.03543457 350.84046875 105.16625977 350.41015625 C104.38694092 350.02214844 103.60762207 349.63414062 102.8046875 349.234375 C102.12253174 348.89591553 101.44037598 348.55745605 100.73754883 348.20874023 C98.91015625 347.23828125 98.91015625 347.23828125 95.91015625 345.23828125 C91.06515966 345.50954078 86.6507061 347.30697784 82.11743164 348.91772461 C63.07918312 355.66707539 43.21119107 360.27733817 22.94140625 360.4765625 C22.11155212 360.48635635 21.281698 360.49615021 20.42669678 360.50624084 C-17.93552692 360.86567141 -53.01688021 354.45688625 -87.08984375 336.23828125 C-87.69570312 335.91601562 -88.3015625 335.59375 -88.92578125 335.26171875 C-129.50480585 313.46599811 -161.86387939 276.2602889 -176.08984375 232.23828125 C-181.14941873 215.17332568 -183.50630118 198.57044554 -183.46484375 180.80078125 C-183.46463226 179.96367615 -183.46442078 179.12657104 -183.46420288 178.26409912 C-183.43059213 164.91441727 -182.5777593 152.18734425 -179.08984375 139.23828125 C-178.89729004 138.51108887 -178.70473633 137.78389648 -178.50634766 137.03466797 C-165.48332856 89.26183852 -133.45279764 50.78711913 -90.90234375 26.11328125 C-63.66233206 10.6591538 -31.48894328 0.29900728 0 0 Z M-61.08984375 171.23828125 C-63.84775305 175.66204181 -63.73706612 180.18035825 -63.08984375 185.23828125 C-60.92685538 189.64436868 -58.69303896 192.43703095 -54.08984375 194.23828125 C-49.04658991 194.92254182 -45.25907491 194.81226745 -40.65234375 192.55078125 C-37.29328363 189.51943431 -35.39628744 187.49688477 -34.7734375 182.90625 C-34.50770723 177.18876316 -35.12137223 173.63577672 -39.08984375 169.23828125 C-42.88901041 165.88607537 -46.6905334 165.67039139 -51.58203125 165.81640625 C-55.54808192 166.48359234 -58.3738057 168.30619472 -61.08984375 171.23828125 Z M-1.08984375 171.23828125 C-3.84775305 175.66204181 -3.73706612 180.18035825 -3.08984375 185.23828125 C-0.92685538 189.64436868 1.30696104 192.43703095 5.91015625 194.23828125 C10.95341009 194.92254182 14.74092509 194.81226745 19.34765625 192.55078125 C22.70671637 189.51943431 24.60371256 187.49688477 25.2265625 182.90625 C25.49229277 177.18876316 24.87862777 173.63577672 20.91015625 169.23828125 C17.11098959 165.88607537 13.3094666 165.67039139 8.41796875 165.81640625 C4.45191808 166.48359234 1.6261943 168.30619472 -1.08984375 171.23828125 Z M58.91015625 171.23828125 C56.15224695 175.66204181 56.26293388 180.18035825 56.91015625 185.23828125 C59.07314462 189.64436868 61.30696104 192.43703095 65.91015625 194.23828125 C70.95341009 194.92254182 74.74092509 194.81226745 79.34765625 192.55078125 C82.70671637 189.51943431 84.60371256 187.49688477 85.2265625 182.90625 C85.49229277 177.18876316 84.87862777 173.63577672 80.91015625 169.23828125 C77.11098959 165.88607537 73.3094666 165.67039139 68.41796875 165.81640625 C64.45191808 166.48359234 61.6261943 168.30619472 58.91015625 171.23828125 Z " fill="#000000" transform="translate(305.08984375,90.76171875)"/>
<path d="M0 0 C0.84225128 -0.00701431 1.68450256 -0.01402863 2.55227661 -0.02125549 C5.26016629 -0.03868946 7.96783748 -0.04510896 10.67578125 -0.046875 C11.59934418 -0.04754974 12.5229071 -0.04822449 13.47445679 -0.04891968 C26.86276881 -0.03334798 39.86732024 0.29712132 52.98828125 3.203125 C54.20354492 3.46053467 54.20354492 3.46053467 55.44335938 3.72314453 C78.02960183 8.60229613 102.23845929 16.23187538 120.98828125 30.203125 C120.98828125 30.533125 120.98828125 30.863125 120.98828125 31.203125 C120.2104126 31.29287598 119.43254395 31.38262695 118.63110352 31.47509766 C64.02914296 37.91111591 14.53536224 56.07089787 -26.01171875 94.203125 C-26.57020508 94.7276123 -27.12869141 95.25209961 -27.70410156 95.79248047 C-62.9215374 129.1439037 -87.86739896 178.0180485 -89.30023193 227.04492188 C-89.38171676 231.22298557 -89.39644948 235.39936675 -89.38671875 239.578125 C-89.38617493 240.45852448 -89.3856311 241.33892395 -89.3850708 242.2460022 C-89.34452492 256.55626499 -88.4251135 270.25340673 -85.01171875 284.203125 C-84.79741211 285.0993457 -84.58310547 285.99556641 -84.36230469 286.91894531 C-79.62023448 306.21164723 -72.11731833 327.04053537 -60.77734375 343.52734375 C-59.01171875 346.203125 -59.01171875 346.203125 -59.01171875 348.203125 C-59.6871875 347.97496094 -60.36265625 347.74679687 -61.05859375 347.51171875 C-61.950625 347.22425781 -62.84265625 346.93679688 -63.76171875 346.640625 C-64.6434375 346.35058594 -65.52515625 346.06054688 -66.43359375 345.76171875 C-71.12929639 344.74431651 -74.49554531 346.82060159 -78.67211914 348.91186523 C-79.81173599 349.48013535 -80.95135284 350.04840546 -82.12550354 350.63389587 C-83.37019703 351.25969828 -84.61481889 351.88564318 -85.859375 352.51171875 C-87.15320945 353.15923337 -88.4471931 353.80644996 -89.74131775 354.4533844 C-92.46363914 355.81532787 -95.18459675 357.17994637 -97.90454102 358.54663086 C-101.33148406 360.26846664 -104.76094736 361.98520335 -108.19135475 363.70012474 C-121.58286144 370.39617558 -134.94806827 377.12963203 -148.16186523 384.17211914 C-150.87296147 385.60753977 -153.58739593 387.03567716 -156.31616211 388.43725586 C-156.94880478 388.76374619 -157.58144745 389.09023651 -158.23326111 389.42662048 C-162.60149807 391.33386621 -167.39512749 390.8459415 -172.01171875 390.203125 C-176.63127151 388.0149158 -178.72539679 385.70118898 -181.01171875 381.203125 C-182.34671824 372.66188946 -180.16091795 364.92602335 -177.42578125 356.90625 C-177.05273361 355.76543472 -176.67968597 354.62461945 -176.29533386 353.44923401 C-175.5004757 351.02564655 -174.69763601 348.60466409 -173.88735962 346.18618774 C-172.62710237 342.42442087 -171.38820552 338.65622228 -170.1550293 334.88549805 C-168.52973637 329.92095927 -166.89711985 324.95895616 -165.25634766 319.99951172 C-162.61696126 312.01683822 -160.00327741 304.02661425 -157.46136475 296.0123291 C-156.8397906 294.06442447 -156.2038704 292.12162298 -155.56689453 290.17871094 C-155.02331299 288.46796387 -155.02331299 288.46796387 -154.46875 286.72265625 C-154.1591333 285.76464111 -153.8495166 284.80662598 -153.53051758 283.81958008 C-152.6851771 279.5562794 -153.53366218 276.99063784 -155.76171875 273.3203125 C-156.50421875 272.25039063 -157.24671875 271.18046875 -158.01171875 270.078125 C-173.17014788 247.33895231 -182.96357355 218.41132382 -183.25 190.98046875 C-183.25974854 190.20607956 -183.26949707 189.43169037 -183.27954102 188.63383484 C-183.44769335 171.81492343 -183.41912505 155.56584395 -179.01171875 139.203125 C-178.81916504 138.47593262 -178.62661133 137.74874023 -178.42822266 136.99951172 C-165.40520356 89.22668227 -133.37467264 50.75196288 -90.82421875 26.078125 C-63.65740598 10.66552563 -31.42160321 0.17508367 0 0 Z " fill="#000000" transform="translate(183.01171875,30.796875)"/>
</svg>
