<?xml version="1.0" encoding="UTF-8"?>
<svg version="1.1" xmlns="http://www.w3.org/2000/svg" width="512" height="512">
<path d="M0 0 C0.68449219 0.60199219 1.36898437 1.20398438 2.07421875 1.82421875 C13.79400785 12.80720382 22.55767926 27.84862397 26.19921875 43.44921875 C26.3756189 44.17991577 26.55201904 44.91061279 26.73376465 45.66345215 C27.16193803 47.44084421 27.58185075 49.22022299 28 51 C29.40155334 50.98667633 29.40155334 50.98667633 30.8314209 50.9730835 C39.65854649 50.89182014 48.48559568 50.83194969 57.31301117 50.79275131 C61.85076042 50.77192111 66.38820647 50.74368754 70.92578125 50.69824219 C75.30893412 50.65462065 79.69179627 50.63082857 84.07514954 50.62049103 C85.74323601 50.61312881 87.41130748 50.59875219 89.07926941 50.57707977 C105.36244473 50.37401741 105.36244473 50.37401741 112 55 C117.01259178 60.26964776 117.14342833 64.7064776 117.11352539 71.6940918 C117.11367142 72.5821048 117.11381744 73.4701178 117.1139679 74.38504028 C117.11327068 77.32312454 117.10548718 80.26114556 117.09765625 83.19921875 C117.09579139 85.23517319 117.09436781 87.27112808 117.09336853 89.30708313 C117.08954869 94.66811357 117.07972292 100.02911697 117.06866455 105.39013672 C117.05664143 111.82119437 117.05204565 118.25226105 117.04621124 124.68332672 C117.03651092 134.45556997 117.0173506 144.22775385 117 154 C135.81 154 154.62 154 174 154 C174.33 151.03 174.66 148.06 175 145 C175.79335538 142.30312417 176.60597916 139.78883103 177.625 137.1875 C177.89223877 136.49809326 178.15947754 135.80868652 178.43481445 135.09838867 C187.65123033 112.05868432 204.92519724 95.81608531 227.25390625 85.49609375 C250.03820525 76.13076839 275.37454818 76.32203606 298.22998047 85.27587891 C321.79269914 95.18053633 339.38518103 114.52691976 349 138 C357.16289587 161.53708318 356.11182718 187.14105931 345.69140625 209.7578125 C333.84845552 232.45908064 314.36285568 249.60749944 289.98779297 257.39794922 C265.40469401 264.84353041 241.04152691 261.28349779 218.375 249.75 C211.95461493 246.18311941 206.45764001 241.89336059 201 237 C200.37738281 236.45988281 199.75476563 235.91976563 199.11328125 235.36328125 C187.10850493 224.2539661 177.07846448 207.12529012 174 191 C174 189.35 174 187.7 174 186 C155.19 186 136.38 186 117 186 C117 248.04 117 310.08 117 374 C135.81 374 154.62 374 174 374 C174.33 371.03 174.66 368.06 175 365 C181.31709757 343.17729932 195.92087595 323.21948857 215.79931641 311.98291016 C237.14394706 300.34575947 260.0022945 295.7731525 283.8125 301.75 C307.91433236 308.84778538 328.87993244 323.37971683 341.0703125 345.734375 C352.8406983 368.03017593 356.33610889 392.14600076 349.1640625 416.5 C341.01201617 441.01085072 325.27636438 460.4031835 302.1875 472.1875 C280.31884834 482.89841727 255.97540874 484.84990083 232.75 477.375 C220.47117921 473.12540272 209.73014292 466.63954897 200 458 C199.31550781 457.39800781 198.63101562 456.79601562 197.92578125 456.17578125 C186.20599215 445.19279618 177.44232074 430.15137603 173.80078125 414.55078125 C173.6243811 413.82008423 173.44798096 413.08938721 173.26623535 412.33654785 C172.83806197 410.55915579 172.41814925 408.77977701 172 407 C171.0656311 407.00888245 170.13126221 407.01776489 169.1685791 407.0269165 C160.34145351 407.10817986 151.51440432 407.16805031 142.68698883 407.20724869 C138.14923958 407.22807889 133.61179353 407.25631246 129.07421875 407.30175781 C124.69106588 407.34537935 120.30820373 407.36917143 115.92485046 407.37950897 C114.25676399 407.38687119 112.58869252 407.40124781 110.92073059 407.42292023 C94.63755527 407.62598259 94.63755527 407.62598259 88 403 C83.95219566 398.74461595 82.87462631 395.55361864 82.87695217 389.77385426 C82.87496112 388.68454509 82.87297007 387.59523592 82.87091869 386.47291738 C82.87383153 385.27157098 82.87674437 384.07022459 82.87974548 382.83247375 C82.87846385 380.92365167 82.87846385 380.92365167 82.87715632 378.97626752 C82.87491468 375.4371448 82.87892815 371.89805221 82.88393438 368.35893333 C82.88824341 364.5450445 82.88679213 360.73115743 82.8860321 356.91726685 C82.88550716 350.30713306 82.88865091 343.69700913 82.89426994 337.08687782 C82.90238889 327.5296783 82.90500057 317.97248356 82.90625793 308.41528096 C82.90844783 292.91023343 82.91510623 277.40519116 82.92456055 261.90014648 C82.93373627 246.83634467 82.94081632 231.77254428 82.94506836 216.70874023 C82.94533108 215.78057278 82.94559381 214.85240533 82.94586449 213.89611159 C82.94716951 209.23987734 82.94843322 204.58364308 82.94967639 199.92740881 C82.96004707 161.28493535 82.97793846 122.64246843 83 84 C64.19 84 45.38 84 26 84 C25.67 86.64 25.34 89.28 25 92 C18.04067761 116.44750892 2.24448605 135.19413689 -19.46875 148.14453125 C-41.15826434 159.54112341 -65.61342347 161.88352287 -89.0625 154.875 C-101.33177257 150.92690727 -112.4467223 144.6805476 -122 136 C-122.90363281 135.18917969 -123.80726562 134.37835938 -124.73828125 133.54296875 C-142.53295205 116.73278873 -152.21215929 93.76727151 -152.99609375 69.39453125 C-153.27692208 46.38192614 -145.55806579 24.12225194 -130 7 C-129.18917969 6.09636719 -128.37835938 5.19273438 -127.54296875 4.26171875 C-111.80507221 -12.39787012 -89.65155126 -22.91742203 -66.65625 -24.02734375 C-41.21381097 -23.8370691 -19.26774773 -17.10814028 0 0 Z " fill="#000000" transform="translate(156,27)"/>
</svg>
