<?xml version="1.0" encoding="UTF-8"?>
<svg version="1.1" xmlns="http://www.w3.org/2000/svg" width="512" height="512">
<path d="M0 0 C1.14008514 -0.00525696 2.28017029 -0.01051392 3.45480347 -0.01593018 C7.180381 -0.02900948 10.90552251 -0.02043424 14.63110352 -0.01025391 C17.24699484 -0.01227824 19.86288562 -0.01519266 22.47877502 -0.01895142 C27.94471861 -0.0243827 33.4105399 -0.01728781 38.87646484 -0.00292969 C45.15848112 0.01338363 51.44020498 0.0081074 57.72221416 -0.0084089 C63.81177163 -0.02376675 69.90120147 -0.02200957 75.99077034 -0.0132637 C78.56095484 -0.01127525 81.1311469 -0.01367283 83.70132256 -0.02070236 C105.97790377 -0.06826677 125.80630871 0.97137182 142.76074219 17.0625 C155.59480874 29.95108681 159.9659828 45.58285216 159.98364258 63.26171875 C159.98860748 64.45276215 159.99357239 65.64380554 159.99868774 66.87094116 C160.01076029 70.12749191 160.01824543 73.38400684 160.0226984 76.64057589 C160.02563966 78.68063789 160.02974647 80.72069441 160.03420258 82.76075363 C160.04786392 89.15944631 160.05753638 95.55812629 160.06140447 101.95683253 C160.06587745 109.3134193 160.08339558 116.66981956 160.11240506 124.02634966 C160.13411364 129.73192262 160.14411367 135.43744346 160.14544559 141.14305723 C160.14648738 144.54161802 160.15225976 147.94000318 160.1702652 151.33852005 C160.18742532 155.13858188 160.18542068 158.93819581 160.17895508 162.73828125 C160.18816986 163.84520325 160.19738464 164.95212524 160.20687866 166.09259033 C160.12021757 182.44991013 154.48892226 196.32401014 143.13891602 208.17333984 C129.91015764 220.8220852 115.47410507 225.87710668 97.26782227 225.77636719 C95.47994293 225.78425262 95.47994293 225.78425262 93.65594482 225.79229736 C90.42442026 225.80314525 87.1932719 225.80073475 83.96175385 225.79116011 C80.55611979 225.78348566 77.15050824 225.79063046 73.74487305 225.7953186 C68.02917061 225.80075376 62.31358503 225.79364382 56.59790039 225.77929688 C50.01992234 225.76297461 43.44222339 225.76826472 36.86425209 225.78477609 C31.1840154 225.79845528 25.50386199 225.80027942 19.82361412 225.79246008 C16.44529023 225.78781867 13.06709688 225.78705996 9.68878174 225.79706955 C5.91806539 225.80474231 2.14787476 225.79299775 -1.62280273 225.77636719 C-2.72029846 225.78243988 -3.81779419 225.78851257 -4.94854736 225.79476929 C-22.01965689 225.65624524 -37.44427778 219.52524135 -49.48217773 207.40771484 C-61.8474239 194.07684344 -65.31011776 178.45671883 -65.35449219 160.92358398 C-65.36106339 159.78758759 -65.36763458 158.65159119 -65.37440491 157.48117065 C-65.39406527 153.73272627 -65.40578629 149.98432189 -65.41577148 146.23583984 C-65.41984701 144.94935484 -65.42392254 143.66286983 -65.42812157 142.33740044 C-65.44681097 136.22489328 -65.46138101 130.1124059 -65.46973354 123.99987608 C-65.4794771 116.98853026 -65.50573114 109.97750255 -65.54623443 102.9662686 C-65.58028315 96.85860133 -65.59189895 90.75106547 -65.59593773 84.64330864 C-65.60077949 82.06359136 -65.61232371 79.48387688 -65.63097572 76.90422249 C-65.78158426 54.6882571 -64.50924341 34.36464942 -48.33374023 17.38037109 C-34.78145598 4.85923891 -18.19181095 -0.10581685 0 0 Z M42.51000977 66.95068359 C39.46066552 71.35529195 39.69039829 75.4026924 39.72485352 80.55615234 C39.72697594 81.74837151 39.72697594 81.74837151 39.72914124 82.9646759 C39.73473599 85.50171685 39.74728749 88.03866935 39.76000977 90.57568359 C39.76502545 92.29638544 39.76958823 94.01708868 39.77368164 95.73779297 C39.7847037 99.95462389 39.8019647 104.17138875 39.82250977 108.38818359 C38.72092529 108.3752124 37.61934082 108.36224121 36.484375 108.34887695 C28.80997341 108.43125436 22.19038589 112.00513919 16.64672852 117.18896484 C11.04448416 123.9428483 7.47239668 132.30560688 7.60375977 141.10693359 C8.52875903 150.75335453 12.97885513 158.12268489 19.82641602 164.77880859 C25.97558862 169.73665422 33.70554255 171.7981887 41.51782227 171.66552734 C50.4969392 170.58498954 58.85380553 166.23194734 64.57641602 159.24755859 C70.65389572 150.63657531 71.11073061 143.19816314 71.01782227 132.89208984 C71.01499237 131.70340805 71.01216248 130.51472626 71.00924683 129.2900238 C70.99809182 125.51013941 70.97299543 121.73049584 70.94750977 117.95068359 C70.93747394 115.38102557 70.92834914 112.81136381 70.92016602 110.24169922 C70.89816778 103.95711246 70.86473666 97.67266524 70.82250977 91.38818359 C71.43449219 91.40196045 72.04647461 91.4157373 72.67700195 91.42993164 C73.48298828 91.44064697 74.28897461 91.4513623 75.11938477 91.46240234 C75.91699219 91.4761792 76.71459961 91.48995605 77.53637695 91.50415039 C82.29006834 91.26301376 85.1846159 88.95520036 88.63500977 85.88818359 C92.19605165 81.81842144 92.17148725 78.08168708 92.09594727 72.89208984 C91.68253537 69.10641807 90.39404244 67.15752647 87.82250977 64.38818359 C81.62892872 59.51542387 75.49211155 59.77054994 67.80664062 59.86669922 C65.76059968 59.8881774 63.71805413 59.86682451 61.67211914 59.84130859 C60.36952148 59.84646484 59.06692383 59.85162109 57.72485352 59.85693359 C56.5439917 59.86144531 55.36312988 59.86595703 54.14648438 59.87060547 C49.01694221 60.66932962 45.93090064 63.15996668 42.51000977 66.95068359 Z " fill="#000000" transform="translate(91.177490234375,25.61181640625)"/>
<path d="M0 0 C1.7039946 -0.0098568 1.7039946 -0.0098568 3.44241333 -0.01991272 C7.19085771 -0.03957308 10.9392621 -0.0512941 14.68774414 -0.0612793 C15.97422915 -0.06535482 17.26071415 -0.06943035 18.58618355 -0.07362938 C24.69869071 -0.09231878 30.81117809 -0.10688882 36.9237079 -0.11524135 C43.93505372 -0.12498491 50.94608143 -0.15123895 57.95731539 -0.19174224 C64.06498265 -0.22579097 70.17251852 -0.23740677 76.28027534 -0.24144554 C78.85999262 -0.2462873 81.4397071 -0.25783153 84.0193615 -0.27648354 C107.26409636 -0.4340664 127.00444629 1.27590249 144.53540039 18.17700195 C156.35244522 31.76258411 161.02713469 47.55227045 160.92358398 65.35449219 C160.93146942 67.0646199 160.93146942 67.0646199 160.93951416 68.80929565 C160.95259346 72.53487319 160.94401823 76.2600147 160.93383789 79.9855957 C160.93586222 82.60148703 160.93877665 85.2173778 160.9425354 87.83326721 C160.94796668 93.2992108 160.94087179 98.76503209 160.92651367 104.23095703 C160.91020035 110.51297331 160.91547658 116.79469717 160.93199289 123.07670635 C160.94735074 129.16626382 160.94559356 135.25569366 160.93684769 141.34526253 C160.93485924 143.91544703 160.93725681 146.48563909 160.94428635 149.05581474 C160.99185076 171.33239595 159.95221217 191.16080089 143.86108398 208.11523438 C130.97249718 220.94930093 115.34073183 225.32047499 97.66186523 225.33813477 C95.87530014 225.34558212 95.87530014 225.34558212 94.05264282 225.35317993 C90.79609207 225.36525248 87.53957714 225.37273762 84.2830081 225.37719059 C82.24294609 225.38013184 80.20288957 225.38423866 78.16283035 225.38869476 C71.76413768 225.40235611 65.3654577 225.41202856 58.96675146 225.41589665 C51.61016468 225.42036964 44.25376443 225.43788777 36.89723432 225.46689725 C31.19166136 225.48860583 25.48614052 225.49860585 19.78052676 225.49993777 C16.38196596 225.50097956 12.9835808 225.50675195 9.58506393 225.52475739 C5.78500211 225.54191751 1.98538817 225.53991287 -1.81469727 225.53344727 C-3.47508026 225.54726944 -3.47508026 225.54726944 -5.16900635 225.56137085 C-21.52632615 225.47470976 -35.40042616 219.84341445 -47.24975586 208.4934082 C-59.89850122 195.26464983 -64.9535227 180.82859726 -64.8527832 162.62231445 C-64.86066864 160.83443512 -64.86066864 160.83443512 -64.86871338 159.01043701 C-64.87956126 155.77891245 -64.87715077 152.54776409 -64.86757612 149.31624603 C-64.85990167 145.91061198 -64.86704648 142.50500043 -64.87173462 139.09936523 C-64.87716978 133.3836628 -64.87005984 127.66807721 -64.85571289 121.95239258 C-64.83939063 115.37441453 -64.84468074 108.79671558 -64.86119211 102.21874428 C-64.8748713 96.53850758 -64.87669543 90.85835418 -64.8688761 85.17810631 C-64.86423468 81.79978242 -64.86347598 78.42158907 -64.87348557 75.04327393 C-64.88115833 71.27255758 -64.86941377 67.50236695 -64.8527832 63.73168945 C-64.8588559 62.63419373 -64.86492859 61.536698 -64.8711853 60.40594482 C-64.73266126 43.3348353 -58.60165736 27.91021441 -46.48413086 15.87231445 C-33.15325946 3.50706828 -17.53313485 0.04437443 0 0 Z M-7.90209961 71.86450195 C-10.41133816 77.18408767 -11.24980427 81.77519945 -9.40209961 87.42700195 C-6.72889839 91.22122304 -3.66716902 94.07571725 0.53540039 96.17700195 C2.46886574 96.28871442 4.40616456 96.33628392 6.34277344 96.35400391 C8.17058601 96.37325676 8.17058601 96.37325676 10.0353241 96.39289856 C11.37258497 96.40106812 12.70985046 96.40851144 14.04711914 96.4152832 C15.05729064 96.42139649 15.05729064 96.42139649 16.08786964 96.42763329 C19.65558185 96.44849948 23.22325559 96.46279614 26.79101562 96.47216797 C30.46519093 96.48320579 34.13875614 96.5175725 37.81271648 96.55733967 C40.64643934 96.58357386 43.48001871 96.59186598 46.31385231 96.59544945 C48.32290415 96.60265159 50.33185765 96.62906641 52.34074402 96.65583801 C59.28043351 96.63938943 63.96262801 96.48285512 69.53540039 92.17700195 C72.85656884 88.60035901 73.80287872 85.88219309 73.97290039 81.11450195 C73.74333622 76.16776437 72.73558833 73.28701826 69.10571289 69.8059082 C64.69657783 65.93420503 61.63967004 65.05548385 55.90576172 65 C54.75058548 64.98716476 53.59540924 64.97432953 52.40522766 64.96110535 C51.15525497 64.95371841 49.90528229 64.94633148 48.61743164 64.9387207 C47.33108322 64.93064896 46.0447348 64.92257721 44.71940613 64.91426086 C41.99327731 64.8992446 39.26717443 64.88940274 36.54101562 64.88183594 C33.06536924 64.87080118 29.59036833 64.83643197 26.11494923 64.79666424 C22.78247048 64.76407025 19.45005738 64.75970788 16.11743164 64.7512207 C14.87758011 64.73371262 13.63772858 64.71620453 12.36030579 64.69816589 C4.03325827 64.71897089 -2.04277478 65.40422073 -7.90209961 71.86450195 Z M-7.90209961 135.86450195 C-10.41133816 141.18408767 -11.24980427 145.77519945 -9.40209961 151.42700195 C-6.72889839 155.22122304 -3.66716902 158.07571725 0.53540039 160.17700195 C3.45784196 160.29132883 6.35698543 160.34487216 9.28027344 160.35400391 C10.18615707 160.3605751 11.09204071 160.3671463 12.02537537 160.37391663 C15.03262408 160.39367649 18.03982275 160.40531942 21.04711914 160.4152832 C22.0736088 160.41935873 23.10009846 160.42343426 24.15769386 160.42763329 C29.59275742 160.44850744 35.02779563 160.46280223 40.46289062 160.47216797 C46.07406333 160.48322337 51.68483847 160.51760959 57.29587078 160.55733967 C61.61193065 160.58350426 65.92789589 160.59185978 70.24402809 160.59544945 C72.31204723 160.60031734 74.3800621 160.61193705 76.44800377 160.63048744 C79.34683925 160.65487071 82.24464776 160.65391498 85.14355469 160.64697266 C85.99421509 160.65978271 86.84487549 160.67259277 87.72131348 160.68579102 C93.47888255 160.6356702 96.79259077 159.47985934 101.53540039 156.17700195 C104.85656884 152.60035901 105.80287872 149.88219309 105.97290039 145.11450195 C105.74333622 140.16776437 104.73558833 137.28701826 101.10571289 133.8059082 C95.84630599 129.18757328 91.68742979 129.02183181 84.96826172 129 C84.09309906 128.9934288 83.2179364 128.9868576 82.31625366 128.98008728 C79.41664544 128.96035914 76.51708905 128.94869169 73.61743164 128.9387207 C72.62620489 128.93464518 71.63497814 128.93056965 70.61371422 128.92637062 C65.36552514 128.90551025 60.11736219 128.89120934 54.86914062 128.88183594 C49.45650612 128.87078188 44.04428389 128.8363933 38.63179493 128.79666424 C34.46324414 128.7704772 30.29479119 128.76214215 26.12616539 128.75855446 C24.13154 128.75369258 22.13691887 128.74209 20.14237404 128.72351646 C17.34442442 128.69908461 14.54753607 128.70009764 11.74951172 128.70703125 C10.93206985 128.69422119 10.11462799 128.68141113 9.27241516 128.66821289 C2.29647029 128.73093018 -3.15494588 130.63046066 -7.90209961 135.86450195 Z " fill="#000000" transform="translate(325.464599609375,25.822998046875)"/>
<path d="M0 0 C1.78722221 -0.0076664 1.78722221 -0.0076664 3.61054993 -0.01548767 C6.85456922 -0.02694593 10.09842874 -0.02946681 13.34246278 -0.02692437 C16.06322705 -0.02584796 18.78396826 -0.03075516 21.50472754 -0.03552979 C27.93122945 -0.04659306 34.35767289 -0.04708075 40.78417969 -0.04101562 C47.38423661 -0.03498184 53.98408003 -0.04727892 60.58410054 -0.06858569 C66.27700515 -0.08627914 71.96984227 -0.09219082 77.66277331 -0.08894795 C81.051215 -0.0871468 84.43950446 -0.08965274 87.82792091 -0.10366249 C91.61330966 -0.11607838 95.39821206 -0.1092036 99.18359375 -0.09765625 C100.28580261 -0.10529999 101.38801147 -0.11294373 102.52362061 -0.12081909 C119.60812093 -0.00634554 135.04410556 6.12897311 147.09057617 18.25512695 C159.45582234 31.58599835 162.9185162 47.20612297 162.96289062 64.73925781 C162.96946182 65.87525421 162.97603302 67.01125061 162.98280334 68.18167114 C163.00246371 71.93011552 163.01418473 75.67851991 163.02416992 79.42700195 C163.02824545 80.71348696 163.03232098 81.99997196 163.03652 83.32544136 C163.05520941 89.43794852 163.06977945 95.5504359 163.07813197 101.66296571 C163.08787554 108.67431154 163.11412958 115.68533924 163.15463287 122.6965732 C163.18868159 128.80424047 163.20029739 134.91177633 163.20433617 141.01953316 C163.20917792 143.59925044 163.22072215 146.17896492 163.23937416 148.75861931 C163.38998269 170.9745847 162.11764184 191.29819237 145.94213867 208.2824707 C132.38985442 220.80360289 115.80020939 225.76865864 97.60839844 225.6628418 C95.89827072 225.67072723 95.89827072 225.67072723 94.15359497 225.67877197 C90.42801744 225.69185127 86.70287593 225.68327604 82.97729492 225.6730957 C80.3614036 225.67512004 77.74551282 225.67803446 75.12962341 225.68179321 C69.66367983 225.6872245 64.19785853 225.68012961 58.73193359 225.66577148 C52.44991732 225.64945817 46.16819345 225.65473439 39.88618428 225.6712507 C33.79662681 225.68660855 27.70719696 225.68485137 21.6176281 225.6761055 C19.0474436 225.67411705 16.47725154 225.67651462 13.90707588 225.68354416 C-8.36950533 225.73110857 -28.19791027 224.69146998 -45.15234375 208.6003418 C-57.98641031 195.71175499 -62.35758437 180.07998964 -62.37524414 162.40112305 C-62.38020905 161.21007965 -62.38517395 160.01903625 -62.39028931 158.79190063 C-62.40236186 155.53534989 -62.40984699 152.27883496 -62.41429996 149.02226591 C-62.41724122 146.98220391 -62.42134803 144.94214739 -62.42580414 142.90208817 C-62.43946548 136.50339549 -62.44913794 130.10471551 -62.45300603 123.70600927 C-62.45747901 116.3494225 -62.47499714 108.99302224 -62.50400662 101.63649213 C-62.5257152 95.93091918 -62.53571523 90.22539833 -62.53704715 84.51978457 C-62.53808894 81.12122378 -62.54386132 77.72283861 -62.56186676 74.32432175 C-62.57902688 70.52425992 -62.57702224 66.72464599 -62.57055664 62.92456055 C-62.57977142 61.81763855 -62.58898621 60.71071655 -62.59848022 59.57025146 C-62.50906599 42.69327446 -56.71313865 28.83896728 -44.93286133 16.8996582 C-32.12114237 4.52972266 -17.49283342 -0.03910292 0 0 Z M8.78588867 57.2746582 C4.72083565 61.12963097 2.85582331 64.44787416 2.63871765 70.11895752 C2.62359912 71.75968541 2.61409047 73.40047047 2.60888672 75.04125977 C2.60231552 75.93753586 2.59574432 76.83381195 2.588974 77.75724792 C2.56924613 80.72659386 2.55757929 83.69588923 2.54760742 86.6652832 C2.54353189 87.67982323 2.53945637 88.69436325 2.53525734 89.73964691 C2.51439841 95.10987647 2.50009612 100.48008049 2.49072266 105.8503418 C2.47966087 111.3931065 2.44526292 116.93546946 2.40555096 122.47809219 C2.37938737 126.74353779 2.37103102 131.00888765 2.36744118 135.27440643 C2.36257429 137.31730613 2.3509574 139.36020153 2.33240318 141.40302277 C2.30801837 144.26583048 2.3089757 147.12759843 2.31591797 149.99047852 C2.30310791 150.83021713 2.29029785 151.66995575 2.27709961 152.53514099 C2.32756928 158.26112422 3.50657255 161.55531587 6.78588867 166.2746582 C10.17272142 169.41957433 12.94196961 170.57649837 17.47338867 170.8996582 C21.57933166 170.67108159 24.27294774 169.71839389 27.82495117 167.6730957 C28.7858667 167.12830566 29.74678223 166.58351563 30.73681641 166.0222168 C31.74301025 165.44552246 32.7492041 164.86882812 33.78588867 164.2746582 C35.82971844 163.14649446 37.87533462 162.02156177 39.92260742 160.8996582 C54.08801106 153.0717489 68.13836139 145.07667733 82.08227539 136.85864258 C84.67369691 135.34038876 87.27585851 133.84288972 89.88354492 132.3527832 C90.66455566 131.90330322 91.44556641 131.45382324 92.25024414 130.99072266 C93.67157572 130.1732931 95.09609975 129.36137368 96.5246582 128.55664062 C101.40907031 125.72991435 105.92901431 122.84528129 107.78588867 117.2746582 C108.05734816 114.96360858 108.05734816 114.96360858 108.09838867 112.4621582 C108.13577148 111.63071289 108.1731543 110.79926758 108.21166992 109.94262695 C107.45074676 105.17464051 104.82550224 102.0511597 101.01733398 99.20678711 C99.97673828 98.6027002 98.93614258 97.99861328 97.86401367 97.3762207 C97.29491272 97.04111481 96.72581177 96.70600891 96.13946533 96.36074829 C94.36229678 95.31874203 92.5749941 94.29600179 90.78588867 93.2746582 C89.7037207 92.64398438 88.62155273 92.01331055 87.5065918 91.36352539 C84.19306071 89.44079749 80.8667722 87.54215163 77.53588867 85.6496582 C76.32148435 84.95768665 75.10712988 84.26562758 73.89282227 83.57348633 C64.71296409 78.34660134 55.50785057 73.16470764 46.27539062 68.03125 C41.95139418 65.62489774 37.63990765 63.21218916 33.39916992 60.66137695 C32.4456665 60.09290039 32.4456665 60.09290039 31.47290039 59.51293945 C29.89194512 58.56339557 28.3207181 57.59770026 26.75073242 56.63012695 C20.38204018 53.71848504 14.95100245 53.66864826 8.78588867 57.2746582 Z " fill="#000000" transform="translate(323.214111328125,260.725341796875)"/>
<path d="M0 0 C1.1910434 -0.0049649 2.38208679 -0.00992981 3.60922241 -0.01504517 C6.86577316 -0.02711772 10.12228809 -0.03460285 13.37885714 -0.03905582 C15.41891914 -0.04199708 17.45897566 -0.04610389 19.49903488 -0.05056 C25.89772756 -0.06422134 32.29640754 -0.0738938 38.69511378 -0.07776189 C46.05170055 -0.08223487 53.40810081 -0.099753 60.76463091 -0.12876248 C66.47020387 -0.15047106 72.17572471 -0.16047109 77.88133848 -0.16180301 C81.27989927 -0.1628448 84.67828443 -0.16861718 88.0768013 -0.18662262 C91.87686313 -0.20378274 95.67647706 -0.2017781 99.4765625 -0.1953125 C101.1369455 -0.20913467 101.1369455 -0.20913467 102.83087158 -0.22323608 C119.7099009 -0.13381098 133.5455853 5.66596956 145.49755859 17.43066406 C157.87490039 30.28617954 162.61255609 45.02132659 162.51464844 62.71582031 C162.52253387 64.50369965 162.52253387 64.50369965 162.53057861 66.32769775 C162.5414265 69.55922232 162.539016 72.79037068 162.52944136 76.02188873 C162.52176691 79.42752279 162.52891171 82.83313434 162.53359985 86.23876953 C162.53903501 91.95447197 162.53192507 97.67005755 162.51757812 103.38574219 C162.50125586 109.96372024 162.50654597 116.54141919 162.52305734 123.11939049 C162.53673653 128.79962718 162.53856067 134.47978059 162.53074133 140.16002846 C162.52609992 143.53835235 162.52534121 146.9165457 162.5353508 150.29486084 C162.54302356 154.06557718 162.531279 157.83576782 162.51464844 161.60644531 C162.52072113 162.70394104 162.52679382 163.80143677 162.53305054 164.93218994 C162.39452649 182.00329947 156.2635226 197.42792035 144.14599609 209.46582031 C130.81512469 221.83106648 115.19500008 225.29376034 97.66186523 225.33813477 C96.52586884 225.34470596 95.38987244 225.35127716 94.2194519 225.35804749 C90.47100752 225.37770785 86.72260314 225.38942887 82.97412109 225.39941406 C81.68763609 225.40348959 80.40115108 225.40756512 79.07568169 225.41176414 C72.96317453 225.43045355 66.85068715 225.44502359 60.73815733 225.45337611 C53.72681151 225.46311968 46.7157838 225.48937372 39.70454985 225.52987701 C33.59688258 225.56392573 27.48934672 225.57554153 21.38158989 225.57958031 C18.80187261 225.58442206 16.22215813 225.59596629 13.64250374 225.6146183 C-8.57346165 225.76522683 -28.89706933 224.49288598 -45.88134766 208.31738281 C-58.40247984 194.76509856 -63.3675356 178.17545353 -63.26171875 159.98364258 C-63.26697571 158.84355743 -63.27223267 157.70347229 -63.27764893 156.52883911 C-63.29072823 152.80326158 -63.28215299 149.07812007 -63.27197266 145.35253906 C-63.27399699 142.73664774 -63.27691141 140.12075696 -63.28067017 137.50486755 C-63.28610145 132.03892397 -63.27900656 126.57310268 -63.26464844 121.10717773 C-63.24833512 114.82516146 -63.25361135 108.54343759 -63.27012765 102.26142842 C-63.2854855 96.17187095 -63.28372832 90.0824411 -63.27498245 83.99287224 C-63.272994 81.42268774 -63.27539158 78.85249568 -63.28242111 76.28232002 C-63.32998552 54.00573881 -62.29034693 34.17733387 -46.19921875 17.22290039 C-33.31063194 4.38883383 -17.67886659 0.01765977 0 0 Z M-24.87353516 43.16113281 C-27.16912828 46.52844376 -29.09611138 49.38849157 -28.57348633 53.55078125 C-27.83565652 56.30239489 -26.97482271 57.74926473 -25.20556641 59.95410156 C-24.64933594 60.65728516 -24.09310547 61.36046875 -23.52001953 62.08496094 C-22.91480469 62.83197266 -22.30958984 63.57898438 -21.68603516 64.34863281 C-20.40064166 65.96693398 -19.1154921 67.58542893 -17.83056641 69.20410156 C-16.8417749 70.44039307 -16.8417749 70.44039307 -15.83300781 71.70166016 C-12.81139912 75.49429484 -9.84374414 79.32821102 -6.87353516 83.16113281 C-5.70716194 84.661361 -4.54049431 86.16136035 -3.37353516 87.66113281 C3.62646484 96.66113281 3.62646484 96.66113281 5.37890625 98.91430664 C6.53738976 100.40376232 7.69591789 101.89318329 8.85449219 103.38256836 C11.89674119 107.29360276 14.93805184 111.20536218 17.97802734 115.11816406 C18.60966797 115.93091797 19.24130859 116.74367188 19.89208984 117.58105469 C21.09810664 119.13291453 22.30385232 120.68498513 23.50927734 122.23730469 C26.35598012 125.89974894 29.21649749 129.54851481 32.12646484 133.16113281 C35.4836524 131.89356677 38.5043409 130.45215316 41.56787109 128.58691406 C42.39327393 128.08724121 43.21867676 127.58756836 44.0690918 127.07275391 C44.9336499 126.54504395 45.79820801 126.01733398 46.68896484 125.47363281 C48.48565788 124.38869601 50.28253227 123.30405946 52.07958984 122.21972656 C54.42720303 120.79850423 56.77404744 119.37616277 59.11669922 117.94677734 C68.18202969 112.4217985 75.84740136 108.3089099 86.72802734 110.74316406 C99.34666843 114.63539279 108.13941836 126.05329149 117.18896484 135.22363281 C119.23949732 137.30070122 121.29331351 139.37444331 123.34912109 141.44628906 C124.24381104 142.35258057 125.13850098 143.25887207 126.06030273 144.19262695 C127.77150369 146.27609777 127.77150369 146.27609777 129.12646484 146.16113281 C129.21936575 134.33859752 129.29033174 122.51614985 129.33371353 110.69332314 C129.35454031 105.20280641 129.38276815 99.71254042 129.42822266 94.22216797 C129.47185559 88.91830372 129.49563884 83.61467983 129.50597382 78.31064987 C129.51333393 76.29254755 129.52770623 74.27445758 129.54938507 72.25645828 C129.97593675 55.04867024 129.97593675 55.04867024 122.00146484 40.28613281 C114.48281771 33.68474383 106.08027535 32.56842552 96.39379883 32.64355469 C95.26562744 32.63654541 94.13745605 32.62953613 92.97509766 32.62231445 C89.27399532 32.6048179 85.57366768 32.61632753 81.87255859 32.62988281 C79.28524123 32.62718571 76.69792487 32.62330148 74.11061096 32.61828613 C68.69985312 32.61240249 63.28938258 32.62053239 57.87866211 32.63964844 C51.64367727 32.6614237 45.40921562 32.6543515 39.17424339 32.63234282 C33.14817931 32.61193184 27.12236901 32.61418287 21.09626961 32.62586975 C18.54428089 32.62853072 15.99227873 32.62528957 13.44030571 32.61595154 C9.86976003 32.60575127 6.3002083 32.621337 2.72973633 32.64355469 C1.68376785 32.63545776 0.63779938 32.62736084 -0.43986511 32.61901855 C-10.12739839 32.73024737 -18.33860236 35.78189345 -24.87353516 43.16113281 Z " fill="#000000" transform="translate(88.87353515625,260.8388671875)"/>
<path d="M0 0 C3.94933743 2.6385295 6.29375889 5.51716925 7.76171875 10.09375 C8.72061549 16.50435178 7.90159549 20.99215965 4.34375 26.40234375 C1.53903498 29.40096499 -1.06731745 30.91881463 -5.140625 31.52734375 C-11.32757894 31.53530637 -15.48176678 31.49352589 -20.23828125 27.09375 C-24.32182941 22.56873717 -25.55457543 19.3030971 -25.453125 13.1484375 C-24.85794121 7.45631618 -21.38796221 3.72472084 -17.23828125 0.09375 C-11.86157273 -1.69848617 -5.32998028 -2.15803739 0 0 Z " fill="#000000" transform="translate(179.23828125,320.90625)"/>
</svg>
