<?xml version="1.0" encoding="UTF-8"?>
<svg version="1.1" xmlns="http://www.w3.org/2000/svg" width="512" height="512">
<path d="M0 0 C7.15445158 6.04427806 9.85972726 13.07251587 11.4609375 22.1015625 C11.9707411 28.36626438 10.2443125 33.61884275 8.1484375 39.4140625 C7.8422348 40.27414413 7.5360321 41.13422577 7.22055054 42.02037048 C2.90885707 54.01927502 -1.72932539 65.89731216 -6.3359375 77.78515625 C-7.70599091 81.32875485 -9.07516339 84.87269188 -10.4437561 88.41685486 C-11.2874259 90.60081874 -12.13209035 92.78439872 -12.97787476 94.96754456 C-13.35562042 95.94384323 -13.73336609 96.92014191 -14.12255859 97.92602539 C-14.4545224 98.78281387 -14.78648621 99.63960236 -15.12850952 100.52235413 C-15.77884714 102.24134877 -16.37974204 103.97906987 -16.9609375 105.72265625 C-15.98089752 105.72852249 -15.00085754 105.73438873 -13.99111938 105.74043274 C-4.72290564 105.79782325 4.54507715 105.87066926 13.81305504 105.95837116 C18.57701273 106.00296273 23.34088712 106.04224317 28.10498047 106.0690918 C32.70873795 106.09523715 37.31217289 106.13571782 41.91572952 106.18584251 C43.66580801 106.20243564 45.4159422 106.21399669 47.1660881 106.22027016 C70.45243336 106.31213133 70.45243336 106.31213133 79.3515625 114.90625 C85.10475948 121.09892731 87.02765741 127.46920695 87.2890625 135.78515625 C86.76100417 144.10207488 84.89549864 150.32531965 78.4140625 156.03515625 C76.0390625 157.72265625 76.0390625 157.72265625 74.0390625 158.72265625 C74.8846875 158.7484375 75.7303125 158.77421875 76.6015625 158.80078125 C85.68889642 159.25514795 92.10930719 160.26372483 98.4140625 167.09765625 C103.29232986 173.38107671 103.91146124 179.95941178 103.0390625 187.72265625 C101.04057513 194.69941155 96.20255701 199.37075859 89.9921875 202.87890625 C87.5760101 203.92269489 85.64329243 203.86733569 83.0390625 203.72265625 C83.0390625 204.38265625 83.0390625 205.04265625 83.0390625 205.72265625 C83.5959375 205.94953125 84.1528125 206.17640625 84.7265625 206.41015625 C89.81810906 209.29995295 92.95692368 213.30909531 95.0390625 218.72265625 C96.73056125 225.48865124 95.91871957 231.38518702 93.0390625 237.72265625 C89.3480627 242.31146681 84.6525959 245.85147845 79.0390625 247.72265625 C76.64651674 247.94826301 74.24978127 248.1311422 71.8515625 248.28515625 C70.57925781 248.36894531 69.30695313 248.45273437 67.99609375 248.5390625 C67.02027344 248.59964844 66.04445313 248.66023437 65.0390625 248.72265625 C65.9465625 249.27953125 66.8540625 249.83640625 67.7890625 250.41015625 C73.4843112 254.46254475 76.27464678 259.06134762 78.0390625 265.72265625 C78.75190738 272.25706763 77.26564472 277.99622351 73.9140625 283.60546875 C68.13751821 290.60638928 58.31928403 292.90389244 50.0390625 295.72265625 C49.26949219 295.98965332 48.49992188 296.25665039 47.70703125 296.53173828 C35.03965603 300.88817163 22.17349566 304.12041742 9.0390625 306.72265625 C8.23887695 306.88926758 7.43869141 307.05587891 6.61425781 307.22753906 C-21.46797517 312.86733887 -54.09382228 312.07873842 -81.9609375 305.72265625 C-82.9111377 305.50834961 -83.86133789 305.29404297 -84.84033203 305.07324219 C-98.39733922 301.90909612 -111.18675813 297.20824018 -123.9609375 291.72265625 C-126.29424252 290.72259019 -128.62757345 289.72258458 -130.9609375 288.72265625 C-130.96424765 287.86089342 -130.96755779 286.99913059 -130.97096825 286.11125374 C-131.05227318 265.11950748 -131.14439015 244.12783278 -131.24846458 223.1361866 C-131.29853536 212.98468652 -131.34497885 202.83319429 -131.3828125 192.68164062 C-131.41580675 183.83108716 -131.45567886 174.98059563 -131.50372756 166.13011062 C-131.52891874 161.44609921 -131.55072165 156.7621285 -131.56428146 152.07806778 C-131.57716901 147.66383165 -131.59929479 143.2497356 -131.62832069 138.83557701 C-131.63734438 137.22078535 -131.64307444 135.60597116 -131.64515114 133.99115562 C-131.66120792 122.74043361 -131.66120792 122.74043361 -133.6769352 111.69181633 C-134.21088531 107.98961663 -132.28414445 105.46337299 -130.1484375 102.59765625 C-129.72828369 102.00001465 -129.30812988 101.40237305 -128.87524414 100.78662109 C-121.16140737 90.15610254 -111.60747716 85.12584702 -99.9609375 79.72265625 C-98.10271986 78.85629244 -96.24780632 77.98275172 -94.3984375 77.09765625 C-93.34462891 76.61425781 -93.34462891 76.61425781 -92.26953125 76.12109375 C-85.17437146 71.8231797 -81.28797775 66.64352783 -77.3984375 59.41015625 C-76.89521973 58.50297852 -76.39200195 57.59580078 -75.87353516 56.66113281 C-74.79173527 54.70932622 -73.71573585 52.75429544 -72.64501953 50.79638672 C-69.74424044 45.50198127 -66.78690459 40.2392013 -63.8359375 34.97265625 C-63.24748047 33.92134521 -62.65902344 32.87003418 -62.05273438 31.78686523 C-58.52964233 25.4992064 -55.00337497 19.21383397 -51.3984375 12.97265625 C-51.0173584 12.30008789 -50.6362793 11.62751953 -50.24365234 10.93457031 C-44.9898776 1.93009988 -37.57903145 -4.12865058 -27.5234375 -6.96484375 C-17.20158862 -8.22360581 -8.48975579 -6.10482439 0 0 Z " fill="#000000" transform="translate(245.9609375,18.27734375)"/>
<path d="M0 0 C26.59052272 -0.50237315 52.32225588 5.24149566 77.4375 13.5 C78.51245728 13.84973877 78.51245728 13.84973877 79.60913086 14.20654297 C90.42141124 17.74971867 99.79503444 20.84641999 106 31 C108.11459088 37.34377263 108.20363234 45.36151571 105.375 51.5 C102.86431399 55.74126602 99.4226028 58.7886986 95 61 C95.82242188 61.01417969 96.64484375 61.02835938 97.4921875 61.04296875 C105.21148806 61.3727772 111.73840278 62.19642812 118 67 C123.27262209 73.03661427 125.40412132 78.61692364 125.2734375 86.5625 C124.58298929 92.71735257 122.01147695 97.4442926 117.375 101.5 C115.6029444 102.89288213 114.01715687 103.99142156 112 105 C112.6290625 105.13535156 113.258125 105.27070313 113.90625 105.41015625 C121.94671318 107.43238118 127.2158072 110.95842981 131.9375 117.8125 C134.55121904 125.65365712 134.69581239 132.50771108 131 140 C127.60424912 145.14213705 123.90040013 148.30784321 118 150 C112.99721953 150.60378385 108.03492938 150.86888205 103 151 C103.93328125 151.59941406 104.8665625 152.19882812 105.828125 152.81640625 C110.82898168 156.25911424 114.13964282 160.12258839 116 166 C116.93630257 176.1360197 116.72866401 185.51533344 110.52734375 194.01953125 C105.28163619 199.91010121 98.75269877 202.87116439 90.89935303 203.34533691 C85.88816188 203.513268 80.87984439 203.45048813 75.8671875 203.390625 C74.02060563 203.38315279 72.17401577 203.3774645 70.3274231 203.37347412 C65.49729018 203.35829486 60.66764818 203.31908065 55.83770752 203.2746582 C50.89708087 203.23353805 45.95637391 203.21542754 41.015625 203.1953125 C31.34353583 203.15257798 21.67180894 203.08442146 12 203 C12.24754532 203.64685257 12.49509064 204.29370514 12.75013733 204.9601593 C15.11842683 211.14929146 17.48556063 217.33886434 19.85149479 223.52889729 C21.06697669 226.70886849 22.28285767 229.88868572 23.49975586 233.06811523 C26.67829616 241.37428526 29.84603343 249.6844672 33 258 C33.3774234 258.99302124 33.7548468 259.98604248 34.14370728 261.00915527 C35.1411979 263.64049682 36.13088523 266.27460413 37.1171875 268.91015625 C37.40010147 269.65469559 37.68301544 270.39923492 37.97450256 271.16633606 C41.18404693 279.81259872 42.30723074 288.23128731 39 297 C34.52752557 306.37225533 28.72657789 312.71937559 18.875 316.30859375 C10.58286858 318.30276122 0.57004239 318.31396245 -7 314 C-18.20844338 305.88885166 -23.52340905 294.1667466 -30.0625 282.3125 C-30.71769497 281.13087942 -31.37330088 279.94948661 -32.02929688 278.76831055 C-35.23942987 272.98792696 -38.4385674 267.20189942 -41.62109375 261.40625 C-42.74697434 259.37476635 -43.87325631 257.34350507 -45 255.3125 C-45.50281494 254.38800049 -46.00562988 253.46350098 -46.52368164 252.51098633 C-51.43457994 243.70352939 -56.38366169 237.00143674 -65.75 232.875 C-67.16458996 232.20554049 -68.57865124 231.53496275 -69.9921875 230.86328125 C-71.01844238 230.38689209 -71.01844238 230.38689209 -72.06542969 229.90087891 C-84.57591529 224.07507226 -93.84173337 216.92262114 -101 205 C-101.66 204.175 -102.32 203.35 -103 202.5 C-104.16060362 199.59849095 -103.87527868 198.86571073 -103.08837891 195.93188477 C-101.93591098 191.10859533 -101.65674157 186.53412191 -101.5859375 181.58984375 C-101.56657135 180.73693253 -101.5472052 179.8840213 -101.5272522 179.00526428 C-101.46809898 176.31610706 -101.42133162 173.6269055 -101.375 170.9375 C-101.33676089 169.09959206 -101.29770583 167.2617009 -101.2578125 165.42382812 C-101.1624515 160.9493572 -101.07818747 156.47480262 -101 152 C-100.35264893 151.8548999 -99.70529785 151.7097998 -99.03833008 151.56030273 C-84.054552 148.16877127 -69.42049554 144.32221621 -55 139 C-54.29713867 138.7421875 -53.59427734 138.484375 -52.87011719 138.21875 C-40.6780127 133.65339834 -32.60455102 127.99445313 -27 116 C-25.17274695 111.06761105 -24.95324844 107.21918364 -25.33325195 102.08520508 C-26.04941338 91.51894058 -26.04941338 91.51894058 -22.95703125 87.04296875 C-20.3125 84.8125 -20.3125 84.8125 -17.546875 82.828125 C-11.14579359 78.23348374 -8.42041981 70.5237862 -7 63 C-6.54944801 57.88905089 -6.5036581 53.04709668 -8.0625 48.125 C-9.09020399 44.69932002 -8.96845718 43.37678984 -8 40 C-6.6953125 37.82421875 -6.6953125 37.82421875 -5.125 35.6875 C0.84411247 27.08453454 3.25694189 17.66188055 1.55078125 7.26171875 C1.06630253 4.83245309 0.5416803 2.41696784 0 0 Z " fill="#000000" transform="translate(362,186)"/>
<path d="M0 0 C0.85809265 -0.00960754 1.7161853 -0.01921509 2.60028076 -0.02911377 C3.52528381 -0.03336365 4.45028687 -0.03761353 5.40332031 -0.04199219 C6.35909973 -0.04769226 7.31487915 -0.05339233 8.29962158 -0.05926514 C10.32375991 -0.06871351 12.3479136 -0.07524847 14.37207031 -0.07910156 C17.45568016 -0.08878627 20.53861749 -0.11980273 23.62207031 -0.15136719 C25.59081636 -0.15789962 27.55956717 -0.16314915 29.52832031 -0.16699219 C30.44522644 -0.17933899 31.36213257 -0.19168579 32.30682373 -0.20440674 C39.30215609 -0.1802955 44.06176026 0.9067321 49.54394531 5.53613281 C53.43550345 10.20600258 53.98243794 14.08591976 53.99887085 20.08650208 C54.00340196 20.77116647 54.00793308 21.45583086 54.01260149 22.16124266 C54.02523233 24.4487915 54.023626 26.73610185 54.02197266 29.02368164 C54.02795877 30.66659348 54.03476451 32.3095025 54.04232788 33.95240784 C54.05998746 38.41119945 54.06468327 42.86991429 54.06595945 47.3287375 C54.06738172 50.1160291 54.07165278 52.90330123 54.07695389 55.690588 C54.09545457 65.41914483 54.10362452 75.14764687 54.10205078 84.8762207 C54.10084962 93.93702727 54.12194687 102.99759553 54.15353811 112.0583418 C54.17971268 119.84365259 54.19041757 127.62888562 54.18913996 135.41424006 C54.18863064 140.06131315 54.19429712 144.70817447 54.21549606 149.35520363 C54.23489818 153.72770051 54.23498954 158.09978407 54.2204628 162.47229576 C54.21837599 164.07344035 54.22306802 165.67461095 54.23518372 167.27571106 C54.34266351 182.46811692 54.34266351 182.46811692 49.73144531 189.16113281 C45.40644399 192.60348081 41.88712053 194.26769153 36.38696289 194.33813477 C35.51207718 194.35097 34.63719147 194.36380524 33.73579407 194.37702942 C32.3201844 194.38810982 32.3201844 194.38810982 30.87597656 194.39941406 C29.41257088 194.41152168 29.41257088 194.41152168 27.91960144 194.4238739 C25.85258762 194.43770812 23.78555101 194.44843324 21.71850586 194.45629883 C18.57328324 194.47347262 15.42912258 194.51736051 12.28417969 194.56152344 C10.27311969 194.57165424 8.26205077 194.58016913 6.25097656 194.58691406 C4.85054863 194.61317619 4.85054863 194.61317619 3.42182922 194.63996887 C-2.6375774 194.62006512 -7.2186116 193.62596585 -12.26855469 190.16113281 C-16.81283037 185.38381736 -17.39351137 181.848623 -17.41572571 175.39361572 C-17.4194024 174.70178751 -17.42307908 174.00995929 -17.42686719 173.29716659 C-17.43790093 170.9734942 -17.44174733 168.64986654 -17.44555664 166.32617188 C-17.45182152 164.66223 -17.45846834 162.99828953 -17.46546936 161.33435059 C-17.48650894 155.8651629 -17.49687152 150.39597494 -17.50683594 144.92675781 C-17.5108835 143.04388158 -17.51500043 141.1610055 -17.51918602 139.27812958 C-17.53823732 130.43241084 -17.55246858 121.58670044 -17.56079799 112.74096513 C-17.57057116 102.53057588 -17.59689303 92.32040337 -17.63729888 82.11009049 C-17.66745942 74.21783967 -17.6822668 66.32565098 -17.685579 58.43334365 C-17.68792954 53.7197494 -17.69689041 49.00638673 -17.72204018 44.29285431 C-17.74532487 39.85720725 -17.74955258 35.42194417 -17.73927879 30.98625183 C-17.73878342 29.3604937 -17.74510436 27.73471664 -17.75883484 26.10901642 C-17.77656856 23.88441445 -17.7694419 21.66118837 -17.75630188 19.43658447 C-17.75869023 18.19329502 -17.76107859 16.95000557 -17.76353931 15.66904068 C-16.96815912 10.03225864 -14.77129176 6.32652075 -10.20605469 2.78613281 C-6.63530686 0.8108255 -4.01746311 0.03638676 0 0 Z " fill="#000000" transform="translate(51.2685546875,124.8388671875)"/>
<path d="M0 0 C4.69189581 1.62512592 7.10492249 6.51114563 9.1953125 10.7421875 C10.19872914 12.87172655 11.1759788 15.01152877 12.14648438 17.15625 C12.47197266 17.84460938 12.79746094 18.53296875 13.1328125 19.2421875 C13.55639038 20.17466309 13.55639038 20.17466309 13.98852539 21.12597656 C15.83112227 23.78502679 18.12342112 24.5247334 21.21655273 25.16552734 C21.95977783 25.25527832 22.70300293 25.3450293 23.46875 25.4375 C24.29052734 25.54835938 25.11230469 25.65921875 25.95898438 25.7734375 C27.67162434 25.99157512 29.38519147 26.20255678 31.09960938 26.40625 C36.15430841 27.1029039 39.45032867 27.86170047 43.09765625 31.7265625 C44.24860306 35.10746875 44.54340842 36.80399529 42.9765625 40.046875 C40.25384536 43.93000173 36.8691333 46.97401231 33.39257812 50.17773438 C29.988637 53.4386174 27.88933596 55.91869742 27.09765625 60.7265625 C27.35543985 64.12981935 27.95568216 67.43952592 28.59765625 70.7890625 C30.69235344 81.7662352 30.69235344 81.7662352 26.91015625 87.5390625 C23.92267045 89.49638079 21.61654574 89.04677796 18.09765625 88.7265625 C14.13414069 87.12933835 10.47675564 84.94964009 6.76953125 82.83789062 C3.08757099 80.84975732 0.75221481 79.73225431 -3.49609375 79.6953125 C-8.20668849 81.12145586 -12.10304621 83.40237275 -16.296875 85.93164062 C-20.64799378 88.42249848 -23.75503712 89.32072305 -28.90234375 88.7265625 C-31.83984375 86.7265625 -31.83984375 86.7265625 -33.90234375 83.7265625 C-34.4796438 78.94321921 -33.78820429 74.87787514 -32.90234375 70.1640625 C-31.07771695 62.78262203 -31.07771695 62.78262203 -33.15234375 55.83984375 C-35.70379673 52.8336179 -38.44366346 50.14024567 -41.37109375 47.5 C-47.57872024 41.7834832 -47.57872024 41.7834832 -48.578125 38.51953125 C-48.6817543 35.57973161 -48.15016078 33.21948323 -46.83203125 30.59765625 C-44.04421334 27.89448868 -40.98105307 27.63555386 -37.27734375 27.1015625 C-35.20800432 26.76920206 -33.14072244 26.43139395 -31.07592773 26.07177734 C-28.90234375 25.7265625 -28.90234375 25.7265625 -26.55883789 25.52587891 C-22.98117098 25.06978869 -20.70535917 24.67844043 -18.31933594 21.85009766 C-16.91095309 19.40156005 -15.72753974 16.93671372 -14.58984375 14.3515625 C-8.09108659 0.41822714 -8.09108659 0.41822714 0 0 Z " fill="#000000" transform="translate(405.90234375,55.2734375)"/>
<path d="M0 0 C4.69189581 1.62512592 7.10492249 6.51114563 9.1953125 10.7421875 C10.19872914 12.87172655 11.1759788 15.01152877 12.14648438 17.15625 C12.47197266 17.84460938 12.79746094 18.53296875 13.1328125 19.2421875 C13.55639038 20.17466309 13.55639038 20.17466309 13.98852539 21.12597656 C15.83112227 23.78502679 18.12342112 24.5247334 21.21655273 25.16552734 C21.95977783 25.25527832 22.70300293 25.3450293 23.46875 25.4375 C24.29052734 25.54835938 25.11230469 25.65921875 25.95898438 25.7734375 C27.67162434 25.99157512 29.38519147 26.20255678 31.09960938 26.40625 C36.15430841 27.1029039 39.45032867 27.86170047 43.09765625 31.7265625 C44.24860306 35.10746875 44.54340842 36.80399529 42.9765625 40.046875 C40.25384536 43.93000173 36.8691333 46.97401231 33.39257812 50.17773438 C29.988637 53.4386174 27.88933596 55.91869742 27.09765625 60.7265625 C27.35543985 64.12981935 27.95568216 67.43952592 28.59765625 70.7890625 C30.69235344 81.7662352 30.69235344 81.7662352 26.91015625 87.5390625 C23.92267045 89.49638079 21.61654574 89.04677796 18.09765625 88.7265625 C14.13414069 87.12933835 10.47675564 84.94964009 6.76953125 82.83789062 C3.08757099 80.84975732 0.75221481 79.73225431 -3.49609375 79.6953125 C-8.20668849 81.12145586 -12.10304621 83.40237275 -16.296875 85.93164062 C-20.64799378 88.42249848 -23.75503712 89.32072305 -28.90234375 88.7265625 C-31.83984375 86.7265625 -31.83984375 86.7265625 -33.90234375 83.7265625 C-34.4796438 78.94321921 -33.78820429 74.87787514 -32.90234375 70.1640625 C-31.07771695 62.78262203 -31.07771695 62.78262203 -33.15234375 55.83984375 C-35.70379673 52.8336179 -38.44366346 50.14024567 -41.37109375 47.5 C-47.57872024 41.7834832 -47.57872024 41.7834832 -48.578125 38.51953125 C-48.6817543 35.57973161 -48.15016078 33.21948323 -46.83203125 30.59765625 C-44.04421334 27.89448868 -40.98105307 27.63555386 -37.27734375 27.1015625 C-35.20800432 26.76920206 -33.14072244 26.43139395 -31.07592773 26.07177734 C-28.90234375 25.7265625 -28.90234375 25.7265625 -26.55883789 25.52587891 C-22.98117098 25.06978869 -20.70535917 24.67844043 -18.31933594 21.85009766 C-16.91095309 19.40156005 -15.72753974 16.93671372 -14.58984375 14.3515625 C-8.09108659 0.41822714 -8.09108659 0.41822714 0 0 Z " fill="#000000" transform="translate(109.90234375,375.2734375)"/>
<path d="M0 0 C0.09916726 5.44428237 0.17160909 10.88803448 0.21972656 16.33300781 C0.23979339 18.18368696 0.26705345 20.03430309 0.30175781 21.88476562 C0.35049433 24.55093977 0.37301787 27.21627287 0.390625 29.8828125 C0.41127014 30.70492218 0.43191528 31.52703186 0.45318604 32.37405396 C0.45525972 37.73018479 -0.33955135 40.82629775 -4 45 C-9.30459168 49.8849504 -14.47167485 49.58431035 -21.3125 49.53125 C-22.39958252 49.5350769 -23.48666504 49.53890381 -24.60668945 49.54284668 C-26.89958627 49.54556241 -29.19251425 49.53822511 -31.48535156 49.52148438 C-34.98833506 49.50007131 -38.48926755 49.52129906 -41.9921875 49.546875 C-44.22396285 49.54423167 -46.45573692 49.53910657 -48.6875 49.53125 C-49.73139893 49.53934692 -50.77529785 49.54744385 -51.85083008 49.55578613 C-57.88154652 49.4782915 -61.42357181 49.04471177 -66 45 C-70.59316088 39.0413048 -71.15173544 34.73758585 -71.09765625 27.390625 C-71.0962413 26.66381531 -71.09482635 25.93700562 -71.09336853 25.18817139 C-71.08778792 22.87540506 -71.07523904 20.56273688 -71.0625 18.25 C-71.05748249 16.67838682 -71.05292002 15.10677211 -71.04882812 13.53515625 C-71.03782485 9.69006657 -71.02057361 5.8450499 -71 2 C-70.06064354 2.00666183 -70.06064354 2.00666183 -69.10231018 2.01345825 C-62.49816199 2.05820783 -55.89405786 2.0880771 -49.28979492 2.10986328 C-46.83535 2.1198309 -44.38091667 2.13340985 -41.92651367 2.15087891 C-27.88195995 2.24823157 -13.87047819 0 0 0 Z " fill="#000000" transform="translate(250,340)"/>
</svg>
