<?xml version="1.0" encoding="UTF-8"?>
<svg version="1.1" xmlns="http://www.w3.org/2000/svg" width="512" height="512">
<path d="M0 0 C4.16277749 3.62676768 8.28650192 7.28185286 12.3359375 11.03515625 C12.92890625 11.56238281 13.521875 12.08960938 14.1328125 12.6328125 C32.69688708 29.91508193 44.42426303 55.75026625 50.3359375 80.03515625 C50.57570313 81.0101709 50.57570313 81.0101709 50.8203125 82.00488281 C53.31959383 92.72916973 53.56135778 103.4542344 53.7734375 114.41015625 C54.32971754 141.8911573 60.76395695 163.73765527 77.16796875 185.875 C77.63356201 186.50833252 78.09915527 187.14166504 78.57885742 187.79418945 C79.48109636 189.01231562 80.39616629 190.22107108 81.32543945 191.41870117 C84.37640506 195.50170844 84.37640506 195.50170844 84.18310547 198.04980469 C83.0909083 200.60938606 81.91770842 201.32097164 79.5546875 202.76171875 C78.79542969 203.23609375 78.03617187 203.71046875 77.25390625 204.19921875 C76.45597656 204.68132812 75.65804688 205.1634375 74.8359375 205.66015625 C73.26045112 206.6273369 71.68740075 207.5985005 70.1171875 208.57421875 C69.41658203 208.99912598 68.71597656 209.4240332 67.99414062 209.86181641 C66.18312508 210.94760635 66.18312508 210.94760635 65.3359375 213.03515625 C65.18214898 214.99289694 65.08622287 216.95532977 65.01953125 218.91796875 C64.97763672 220.08457031 64.93574219 221.25117188 64.89257812 222.453125 C64.83360352 224.28810547 64.83360352 224.28810547 64.7734375 226.16015625 C64.73025391 227.39121094 64.68707031 228.62226563 64.64257812 229.890625 C64.53625046 232.93868478 64.43421969 235.98682815 64.3359375 239.03515625 C60.72287412 240.59041974 57.10901279 242.12665815 53.4609375 243.59765625 C50.25374856 244.67812954 50.25374856 244.67812954 49.3359375 247.03515625 C49.27678412 252.5482516 50.4793128 257.570302 52.14501953 262.79589844 C54.81612902 271.51695676 54.81612902 271.51695676 53.296875 276.3203125 C52.18366579 278.40692028 51.03944242 280.47723316 49.8671875 282.53125 C47.66433263 287.57196638 47.64408763 292.32536018 47.65161133 297.76904297 C47.61891963 302.59776684 47.00608958 305.83177816 44.3359375 310.03515625 C41.39605942 311.50509529 38.41972542 311.19665541 35.19580078 311.20874023 C34.46066254 311.21542725 33.72552429 311.22211426 32.96810913 311.22900391 C31.36937246 311.24306681 29.77061557 311.25495691 28.1718483 311.26495171 C25.64174317 311.28134399 23.11178769 311.30458131 20.58175659 311.32984924 C13.38742515 311.40067215 6.19303233 311.4607416 -1.00146484 311.51196289 C-5.39994598 311.54375851 -9.79825571 311.58503653 -14.19659805 311.63215828 C-15.87349488 311.64817608 -17.55043121 311.66049869 -19.22738266 311.66906548 C-21.57347763 311.68122254 -23.91916989 311.705374 -26.26513672 311.73217773 C-27.30483612 311.73306145 -27.30483612 311.73306145 -28.36553955 311.73396301 C-31.92378132 311.78781911 -34.73664258 311.89827191 -37.6640625 314.03515625 C-38.79952653 316.62571896 -39.66964456 319.02965786 -40.4765625 321.72265625 C-40.72301514 322.50125 -40.96946777 323.27984375 -41.22338867 324.08203125 C-42.05486999 326.72786535 -42.86100726 329.38056139 -43.6640625 332.03515625 C-44.29932 334.11463196 -44.93474173 336.19405751 -45.5703125 338.2734375 C-46.51758016 341.37784933 -47.46099437 344.48315314 -48.3918457 347.5925293 C-48.67374756 348.53265869 -48.95564941 349.47278809 -49.24609375 350.44140625 C-49.49593018 351.27994141 -49.7457666 352.11847656 -50.00317383 352.98242188 C-50.6640625 355.03515625 -50.6640625 355.03515625 -51.6640625 357.03515625 C-67.57419195 357.43081834 -83.48442214 357.82214438 -99.3947773 358.20861053 C-106.78585867 358.38823768 -114.17690337 358.56916922 -121.56787109 358.75341797 C-128.02626626 358.91441512 -134.48472159 359.07271432 -140.94325531 359.22805738 C-144.34804686 359.31003749 -147.75278059 359.39357788 -151.15747452 359.47956848 C-169.99899216 359.95430667 -188.81783835 360.12161663 -207.6640625 360.03515625 C-207.19348992 358.45050277 -206.72162981 356.86623159 -206.24923706 355.28211975 C-205.98661009 354.39983735 -205.72398312 353.51755495 -205.45339775 352.60853672 C-204.38466932 349.12428225 -203.16887748 345.70478231 -201.921875 342.28125 C-188.90838861 305.92577498 -181.98000495 270.92321576 -191.76171875 232.8046875 C-192.62588134 229.19465761 -193.20150293 225.71178957 -193.6640625 222.03515625 C-193.02339844 221.61105469 -192.38273438 221.18695313 -191.72265625 220.75 C-179.00105063 212.12357592 -171.75020528 203.18309872 -168.7890625 187.78515625 C-168.39651348 185.53815152 -168.01507454 183.28902305 -167.6640625 181.03515625 C-167.02339844 180.88820313 -166.38273437 180.74125 -165.72265625 180.58984375 C-158.56030184 178.73254171 -153.39925853 176.34491617 -149.34765625 169.9609375 C-146.23767581 163.75181279 -145.32418875 158.11034829 -147.51171875 151.45703125 C-150.51762297 144.65044136 -154.71382429 139.9592111 -161.734375 137.23046875 C-163.82553713 136.58379935 -163.82553713 136.58379935 -166.6640625 136.03515625 C-165.94392471 121.63240043 -158.79678147 109.40097377 -148.21484375 99.82421875 C-144.1851701 96.30461005 -140.02355011 92.94789026 -135.86791992 89.57910156 C-131.82536344 86.22268472 -128.43351044 82.69360968 -125.2265625 78.53515625 C-124.75702148 77.92696045 -124.28748047 77.31876465 -123.80371094 76.69213867 C-105.39633548 52.34032277 -98.00628251 22.39058353 -102.05371094 -7.87890625 C-102.75177771 -11.75039316 -103.64689432 -15.53674072 -104.69140625 -19.328125 C-105.64923668 -22.90941067 -106.21296206 -26.2943107 -106.6640625 -29.96484375 C-69.49968933 -35.37057076 -28.84757097 -24.10353521 0 0 Z M-42.4140625 11.03515625 C-45.27386817 13.57720573 -46.06056261 15.26328195 -46.6640625 19.03515625 C-44.57418272 23.91419116 -40.96203628 26.10369687 -36.6015625 28.78515625 C-15.58310214 42.32187155 -0.72469645 63.58793497 4.79882812 88.08837891 C5.39891921 91.11174422 5.94141469 94.13183875 6.40234375 97.1796875 C7.58754372 100.80471335 9.17009723 101.99687553 12.3359375 104.03515625 C14.8359375 104.86848958 14.8359375 104.86848958 17.3359375 104.03515625 C20.15790319 101.93369244 21.1095159 101.18798537 22.3359375 98.03515625 C22.99967326 75.43495364 7.61110837 49.35279691 -7.109375 33.1796875 C-22.61635259 16.39953259 -22.61635259 16.39953259 -42.4140625 11.03515625 Z " fill="#000000" transform="translate(366.6640625,119.96484375)"/>
<path d="M0 0 C16.89580102 16.19807099 27.96098914 39.66955975 28.88867188 63.07519531 C29.13000682 74.77790877 29.18950074 86.25458916 25.53710938 97.47363281 C25.23909424 98.41674316 25.23909424 98.41674316 24.93505859 99.37890625 C18.79663461 118.44250613 7.20611277 135.6907202 -8.83789062 147.84863281 C-25.07690283 160.31048938 -34.73432466 177.15192511 -37.46289062 197.47363281 C-39.77289063 197.47363281 -42.08289063 197.47363281 -44.46289062 197.47363281 C-44.46289062 175.36363281 -44.46289062 153.25363281 -44.46289062 130.47363281 C-38.52289063 130.14363281 -32.58289063 129.81363281 -26.46289062 129.47363281 C-18.84089041 126.73965447 -14.46940786 123.54047871 -10.46289062 116.47363281 C-8.4422329 110.41165964 -8.2897601 103.52620773 -10.59179688 97.53613281 C-14.15994939 91.27556235 -17.89293017 87.87361731 -24.65039062 85.22363281 C-32.74299306 83.63164545 -40.03032893 83.7246094 -47.46289062 87.47363281 C-48.51476562 87.98925781 -49.56664062 88.50488281 -50.65039062 89.03613281 C-56.95373222 94.49902886 -58.6820603 100.95682223 -59.27539062 109.09863281 C-59.33726562 111.20238281 -59.39914063 113.30613281 -59.46289062 115.47363281 C-65.07289063 115.47363281 -70.68289062 115.47363281 -76.46289062 115.47363281 C-76.68976563 112.99863281 -76.91664063 110.52363281 -77.15039062 107.97363281 C-78.05099685 99.97289846 -80.0518947 94.97937862 -85.71289062 89.16113281 C-93.26091814 84.52938866 -101.16479702 83.23669135 -109.84960938 84.94238281 C-116.32142966 86.78833495 -121.44969209 89.86417035 -124.78320312 95.84082031 C-127.80522541 102.79358486 -128.4083246 108.22466781 -125.96289062 115.47363281 C-123.6772223 120.79064849 -120.36051703 124.40608033 -115.46289062 127.47363281 C-107.66492169 130.36530847 -107.66492169 130.36530847 -91.46289062 130.47363281 C-91.46289062 152.58363281 -91.46289062 174.69363281 -91.46289062 197.47363281 C-93.77289063 197.47363281 -96.08289063 197.47363281 -98.46289062 197.47363281 C-98.69363281 196.53003906 -98.924375 195.58644531 -99.16210938 194.61425781 C-104.40699239 173.71954127 -113.69582214 157.87764026 -130.92382812 144.51660156 C-150.41144921 128.83656183 -162.08876339 105.73222896 -165.15039062 81.07519531 C-167.36082402 55.59995043 -161.14144155 29.87671546 -145.08789062 9.66113281 C-126.96870499 -11.25518268 -103.70366224 -24.96954668 -75.81835938 -27.30761719 C-47.25393306 -29.06185606 -21.02897192 -19.30003696 0 0 Z " fill="#000000" transform="translate(222.462890625,58.5263671875)"/>
<path d="M0 0 C0.92074814 -0.00861557 1.84149628 -0.01723114 2.79014587 -0.02610779 C5.83369048 -0.04881076 8.87631763 -0.04202125 11.91992188 -0.03295898 C14.03454869 -0.03819241 16.14917317 -0.04446785 18.26379395 -0.05174255 C22.69566838 -0.0621546 27.1272219 -0.05757326 31.55908203 -0.04296875 C37.24243216 -0.02577453 42.92477196 -0.04928037 48.60800934 -0.08445835 C52.97461667 -0.1064028 57.34098112 -0.10499809 61.70762634 -0.09669304 C63.80322885 -0.09587201 65.89884892 -0.10276432 67.99440002 -0.11746407 C70.92268273 -0.13485642 73.84913521 -0.1204119 76.77734375 -0.09765625 C78.07882607 -0.11519455 78.07882607 -0.11519455 79.40660095 -0.13308716 C85.26850149 -0.04025806 85.26850149 -0.04025806 88.42687988 2.88148499 C90.214572 6.12469064 90.50974928 7.88461753 89.88867188 11.53344727 C88.02157277 13.83620283 86.53219446 15.21168597 83.88867188 16.53344727 C81.04710653 16.64243719 78.22967728 16.69077901 75.38745117 16.69458008 C74.06769791 16.70202744 74.06769791 16.70202744 72.72128296 16.70962524 C69.80181097 16.72426619 66.88239334 16.73105238 63.96289062 16.73657227 C61.93748472 16.7423225 59.91207884 16.74808024 57.88667297 16.75384521 C53.63546494 16.76436096 49.38427585 16.77019975 45.13305664 16.77368164 C39.68542305 16.77916502 34.23803959 16.80318736 28.79048443 16.83165359 C24.60489674 16.85027773 20.41936929 16.85548548 16.23374367 16.85701752 C14.22548875 16.8600455 12.21723493 16.86807892 10.20902061 16.8812027 C7.39851242 16.89825702 4.58861512 16.89638432 1.77807617 16.88989258 C0.94827744 16.89910736 0.1184787 16.90832214 -0.73646545 16.91781616 C-5.78605549 16.88127855 -9.3652761 16.27949929 -13.11132812 12.53344727 C-13.69783985 5.37800425 -13.69783985 5.37800425 -11.6541748 2.43519592 C-7.89129067 -0.3789965 -4.58612869 -0.03449358 0 0 Z " fill="#000000" transform="translate(116.111328125,270.466552734375)"/>
<path d="M0 0 C19.47 0 38.94 0 59 0 C57.78760003 10.91159977 55.46498681 16.67598816 46.984375 23.5625 C39.79730822 28.76887909 32.66014045 29.69798147 24 29 C16.34337164 27.50910537 9.78253682 23.88345357 5.203125 17.4921875 C1.32241209 11.15368974 0 7.73095994 0 0 Z " fill="#000000" transform="translate(125,302)"/>
<path d="M0 0 C5.61 0 11.22 0 17 0 C17 22.11 17 44.22 17 67 C11.39 67 5.78 67 0 67 C0 44.89 0 22.78 0 0 Z " fill="#000000" transform="translate(146,189)"/>
<path d="M0 0 C2.93423195 1.79646854 4.47205355 2.9441071 6 6 C6.07033769 7.87379605 6.0843022 9.75001102 6.0625 11.625 C6.05347656 12.62789062 6.04445312 13.63078125 6.03515625 14.6640625 C6.02355469 15.43492187 6.01195312 16.20578125 6 17 C3.24894578 17.10812003 0.50214913 17.18734945 -2.25 17.25 C-3.41595703 17.30027344 -3.41595703 17.30027344 -4.60546875 17.3515625 C-10.3788275 17.45025239 -10.3788275 17.45025239 -13.484375 15.19921875 C-15.642778 12.06730924 -16 9.78743003 -16 6 C-11.86113561 -0.56509524 -7.3274717 -0.86408864 0 0 Z " fill="#000000" transform="translate(125,157)"/>
<path d="M0 0 C2 1.625 2 1.625 3 3.625 C3.55988858 9.41051532 3.55988858 9.41051532 3 11.625 C0.90810698 13.96563663 -0.74713776 15.4191772 -3.91113281 15.93896484 C-6.05912881 16.01823973 -8.16553496 15.9747696 -10.3125 15.875 C-11.42334961 15.84792969 -11.42334961 15.84792969 -12.55664062 15.8203125 C-14.3716571 15.77347337 -16.18600166 15.70173789 -18 15.625 C-18.08133791 13.70904032 -18.13934367 11.79208068 -18.1875 9.875 C-18.22230469 8.80765625 -18.25710937 7.7403125 -18.29296875 6.640625 C-17.96625336 3.27763456 -17.36910987 1.98858747 -15 -0.375 C-9.91602433 -2.06965856 -4.90689304 -2.24899264 0 0 Z " fill="#000000" transform="translate(196,158.375)"/>
</svg>
