<svg width="217" height="43" viewBox="0 0 217 43" fill="none" xmlns="http://www.w3.org/2000/svg">
<path d="M66.3814 9.28368H75.0706L81.0475 23.8494H81.3489L87.3259 9.28368H96.015V34.9996H89.1842V20.1326H88.9833L83.2575 34.7987H79.1389L73.4131 20.0321H73.2122V34.9996H66.3814V9.28368ZM108.073 9.28368V34.9996H101.092V9.28368H108.073ZM113.15 34.9996V9.28368H124.25C126.158 9.28368 127.828 9.63108 129.26 10.3259C130.691 11.0207 131.805 12.021 132.6 13.3269C133.395 14.6328 133.793 16.1982 133.793 18.0231C133.793 19.8647 133.383 21.4176 132.562 22.6816C131.75 23.9456 130.608 24.8999 129.134 25.5445C127.669 26.1891 125.958 26.5114 123.999 26.5114H117.369V21.0869H122.592C123.413 21.0869 124.112 20.9864 124.689 20.7855C125.275 20.5763 125.723 20.2456 126.033 19.7936C126.351 19.3415 126.51 18.7514 126.51 18.0231C126.51 17.2864 126.351 16.6879 126.033 16.2275C125.723 15.7587 125.275 15.4155 124.689 15.1978C124.112 14.9718 123.413 14.8588 122.592 14.8588H120.131V34.9996H113.15ZM128.218 23.1964L134.647 34.9996H127.063L120.784 23.1964H128.218ZM145.518 9.28368V34.9996H138.537V9.28368H145.518Z" fill="white"/>
<path d="M66.3814 9.28368V8.79388H65.8916V9.28368H66.3814ZM75.0706 9.28368L75.5237 9.09774L75.399 8.79388H75.0706V9.28368ZM81.0475 23.8494L80.5944 24.0353L80.7191 24.3392H81.0475V23.8494ZM81.3489 23.8494V24.3392H81.6773L81.802 24.0353L81.3489 23.8494ZM87.3259 9.28368V8.79388H86.9974L86.8727 9.09774L87.3259 9.28368ZM96.015 9.28368H96.5048V8.79388H96.015V9.28368ZM96.015 34.9996V35.4894H96.5048V34.9996H96.015ZM89.1842 34.9996H88.6944V35.4894H89.1842V34.9996ZM89.1842 20.1326H89.674V19.6428H89.1842V20.1326ZM88.9833 20.1326V19.6428H88.6487L88.5271 19.9545L88.9833 20.1326ZM83.2575 34.7987V35.2885H83.5921L83.7138 34.9769L83.2575 34.7987ZM79.1389 34.7987L78.6823 34.9758L78.8035 35.2885H79.1389V34.7987ZM73.4131 20.0321L73.8698 19.8551L73.7485 19.5423H73.4131V20.0321ZM73.2122 20.0321V19.5423H72.7224V20.0321H73.2122ZM73.2122 34.9996V35.4894H73.702V34.9996H73.2122ZM66.3814 34.9996H65.8916V35.4894H66.3814V34.9996ZM66.3814 9.77347H75.0706V8.79388H66.3814V9.77347ZM74.6175 9.46962L80.5944 24.0353L81.5007 23.6634L75.5237 9.09774L74.6175 9.46962ZM81.0475 24.3392H81.3489V23.3596H81.0475V24.3392ZM81.802 24.0353L87.779 9.46962L86.8727 9.09774L80.8958 23.6634L81.802 24.0353ZM87.3259 9.77347H96.015V8.79388H87.3259V9.77347ZM95.5252 9.28368V34.9996H96.5048V9.28368H95.5252ZM96.015 34.5098H89.1842V35.4894H96.015V34.5098ZM89.674 34.9996V20.1326H88.6944V34.9996H89.674ZM89.1842 19.6428H88.9833V20.6224H89.1842V19.6428ZM88.5271 19.9545L82.8013 34.6206L83.7138 34.9769L89.4396 20.3107L88.5271 19.9545ZM83.2575 34.3089H79.1389V35.2885H83.2575V34.3089ZM79.5956 34.6217L73.8698 19.8551L72.9565 20.2092L78.6823 34.9758L79.5956 34.6217ZM73.4131 19.5423H73.2122V20.5219H73.4131V19.5423ZM72.7224 20.0321V34.9996H73.702V20.0321H72.7224ZM73.2122 34.5098H66.3814V35.4894H73.2122V34.5098ZM66.8712 34.9996V9.28368H65.8916V34.9996H66.8712ZM108.073 9.28368H108.563V8.79388H108.073V9.28368ZM108.073 34.9996V35.4894H108.563V34.9996H108.073ZM101.092 34.9996H100.602V35.4894H101.092V34.9996ZM101.092 9.28368V8.79388H100.602V9.28368H101.092ZM107.583 9.28368V34.9996H108.563V9.28368H107.583ZM108.073 34.5098H101.092V35.4894H108.073V34.5098ZM101.581 34.9996V9.28368H100.602V34.9996H101.581ZM101.092 9.77347H108.073V8.79388H101.092V9.77347ZM113.15 34.9996H112.66V35.4894H113.15V34.9996ZM113.15 9.28368V8.79388H112.66V9.28368H113.15ZM132.6 13.3269L133.018 13.0722L133.018 13.0722L132.6 13.3269ZM132.562 22.6816L132.151 22.4149L132.15 22.4169L132.562 22.6816ZM129.134 25.5445L128.938 25.0958L128.937 25.0962L129.134 25.5445ZM117.369 26.5114H116.879V27.0012H117.369V26.5114ZM117.369 21.0869V20.5971H116.879V21.0869H117.369ZM124.689 20.7855L124.85 21.2482L124.854 21.2468L124.689 20.7855ZM126.033 19.7936L125.632 19.5117L125.629 19.5167L126.033 19.7936ZM126.033 16.2275L125.624 16.4975L125.63 16.5059L126.033 16.2275ZM124.689 15.1978L124.511 15.654L124.519 15.657L124.689 15.1978ZM120.131 14.8588V14.369H119.641V14.8588H120.131ZM120.131 34.9996V35.4894H120.621V34.9996H120.131ZM128.218 23.1964L128.648 22.9621L128.509 22.7066H128.218V23.1964ZM134.647 34.9996V35.4894H135.471L135.077 34.7654L134.647 34.9996ZM127.063 34.9996L126.63 35.2296L126.768 35.4894H127.063V34.9996ZM120.784 23.1964V22.7066H119.969L120.352 23.4264L120.784 23.1964ZM113.64 34.9996V9.28368H112.66V34.9996H113.64ZM113.15 9.77347H124.25V8.79388H113.15V9.77347ZM124.25 9.77347C126.099 9.77347 127.693 10.1099 129.046 10.7665L129.474 9.88524C127.964 9.15227 126.218 8.79388 124.25 8.79388V9.77347ZM129.046 10.7665C130.397 11.422 131.437 12.3594 132.182 13.5817L133.018 13.0722C132.172 11.6826 130.986 10.6193 129.474 9.88524L129.046 10.7665ZM132.182 13.5817C132.922 14.7971 133.303 16.2705 133.303 18.0231H134.283C134.283 16.1258 133.869 14.4685 133.018 13.0722L132.182 13.5817ZM133.303 18.0231C133.303 19.7912 132.91 21.2464 132.151 22.4149L132.973 22.9482C133.855 21.5888 134.283 19.9382 134.283 18.0231H133.303ZM132.15 22.4169C131.394 23.5938 130.329 24.4871 128.938 25.0958L129.331 25.9932C130.886 25.3128 132.106 24.2974 132.974 22.9463L132.15 22.4169ZM128.937 25.0962C127.547 25.708 125.904 26.0216 123.999 26.0216V27.0012C126.011 27.0012 127.792 26.6701 129.332 25.9928L128.937 25.0962ZM123.999 26.0216H117.369V27.0012H123.999V26.0216ZM117.859 26.5114V21.0869H116.879V26.5114H117.859ZM117.369 21.5767H122.592V20.5971H117.369V21.5767ZM122.592 21.5767C123.45 21.5767 124.207 21.472 124.85 21.2482L124.528 20.3229C124.017 20.5009 123.375 20.5971 122.592 20.5971V21.5767ZM124.854 21.2468C125.524 21.0077 126.061 20.6189 126.437 20.0704L125.629 19.5167C125.385 19.8723 125.027 20.1448 124.525 20.3243L124.854 21.2468ZM126.433 20.0754C126.826 19.5183 127 18.8206 127 18.0231H126.02C126.02 18.6822 125.876 19.1648 125.632 19.5117L126.433 20.0754ZM127 18.0231C127 17.2181 126.826 16.5136 126.436 15.9491L125.63 16.5059C125.876 16.8622 126.02 17.3548 126.02 18.0231H127ZM126.442 15.9575C126.068 15.3923 125.532 14.9883 124.86 14.7387L124.519 15.657C125.019 15.8427 125.378 16.1251 125.624 16.4975L126.442 15.9575ZM124.868 14.7417C124.218 14.4875 123.455 14.369 122.592 14.369V15.3486C123.37 15.3486 124.005 15.4561 124.511 15.654L124.868 14.7417ZM122.592 14.369H120.131V15.3486H122.592V14.369ZM119.641 14.8588V34.9996H120.621V14.8588H119.641ZM120.131 34.5098H113.15V35.4894H120.131V34.5098ZM127.788 23.4307L134.217 35.2339L135.077 34.7654L128.648 22.9621L127.788 23.4307ZM134.647 34.5098H127.063V35.4894H134.647V34.5098ZM127.495 34.7696L121.217 22.9664L120.352 23.4264L126.63 35.2296L127.495 34.7696ZM120.784 23.6862H128.218V22.7066H120.784V23.6862ZM145.518 9.28368H146.008V8.79388H145.518V9.28368ZM145.518 34.9996V35.4894H146.008V34.9996H145.518ZM138.537 34.9996H138.047V35.4894H138.537V34.9996ZM138.537 9.28368V8.79388H138.047V9.28368H138.537ZM145.028 9.28368V34.9996H146.008V9.28368H145.028ZM145.518 34.5098H138.537V35.4894H145.518V34.5098ZM139.027 34.9996V9.28368H138.047V34.9996H139.027ZM138.537 9.77347H145.518V8.79388H138.537V9.77347Z" fill="white"/>
<g opacity="0.4">
<path fill-rule="evenodd" clip-rule="evenodd" d="M31.7467 34.9286C31.7825 34.735 31.8128 34.5735 31.8413 34.4283C32.2837 32.262 32.9192 29.8637 33.8337 27.4805L34.0026 27.0506C34.6526 25.5048 34.7396 25.3052 35.2822 24.2611C35.9322 23.0992 35.9885 23.0019 36.4287 22.3519C36.3006 22.5361 36.1754 22.7231 36.0531 22.9125C36.1573 22.747 36.2657 22.585 36.4236 22.3519C32.9376 27.3691 31.6212 34.3783 31.1246 38.7286L31.1465 38.4543C31.0457 39.3431 30.9763 40.1319 30.9287 40.782C30.9087 41.0267 30.8922 41.2512 30.8786 41.4539C30.9232 40.7078 31.0022 39.6697 31.1424 38.4411L31.1414 38.4543C31.6839 33.6891 33.1478 26.0423 37.0992 21.4664C37.2425 21.3078 37.437 21.0928 37.5905 20.9444C37.6085 20.929 37.629 20.911 37.6495 20.8931C37.6699 20.8752 37.6904 20.8573 37.7083 20.842C37.697 20.8502 37.6858 20.8584 37.6746 20.8667C37.6845 20.858 37.6942 20.8497 37.7031 20.842C37.4575 21.0211 37.2169 21.2208 36.9815 21.4306L36.9866 21.4357C33.3258 24.7229 31.8378 32.0731 31.2339 37.2108L31.302 36.2662C31.901 31.2611 33.2456 24.7166 36.2598 21.9066C36.6744 21.5227 37.1145 21.1952 37.5701 20.929C37.5362 20.9466 37.4995 20.966 37.4614 20.9862C37.456 20.989 37.4505 20.9919 37.445 20.9948C37.3437 21.0485 37.2345 21.1063 37.1452 21.1491C36.8996 21.2566 36.572 21.3897 36.3212 21.4767C35.7275 21.6865 35.1542 22.0653 34.6372 22.6539C33.2789 24.2074 32.4026 27.4637 31.838 30.9094C31.736 31.5308 31.644 32.1583 31.5611 32.7831L31.7863 29.7991C31.0718 34.6463 30.8818 40.3182 30.8363 42.1316C30.8376 42.0289 30.8391 41.9138 30.8407 41.7872C30.9009 39.6791 31.1103 34.3754 31.7813 29.8031L31.7812 29.8043C32.2163 26.8561 32.8407 24.2099 33.7415 22.9252C34.1919 22.2803 34.6987 21.9373 35.2207 21.8042L35.2067 21.8073C35.1842 21.8121 35.1611 21.8171 35.1376 21.8221C35.1653 21.8139 35.193 21.8062 35.2207 21.7991L35.2069 21.8021C34.8756 21.8735 34.433 21.9688 34.0998 22.0243L34.1042 22.0287C34.1027 22.029 34.1013 22.0292 34.0998 22.0295H34.1049C33.5777 22.096 32.8765 22.1728 32.3493 22.2137C32.1753 22.2291 32.0013 22.5106 31.8477 23.2016C31.2061 26.0405 30.9356 36.7714 30.8503 40.9959C30.9007 36.7712 31.0109 26.0419 30.8599 23.2067C30.8241 22.5106 30.7729 22.2291 30.7166 22.224C30.6096 22.2155 30.4938 22.2068 30.3734 22.1978C29.9812 22.1683 29.5398 22.1352 29.1913 22.096C28.7409 22.0243 28.142 21.922 27.6967 21.8298C28.1472 21.9373 28.5771 22.2803 28.9507 22.9559V22.9508C30.7541 26.2357 30.8407 38.5412 30.8333 41.88C30.8304 42.0369 30.8279 42.174 30.8259 42.2895C30.8316 39.716 30.7442 26.3624 28.0448 22.7C27.5739 22.0602 27.0365 21.6763 26.4786 21.492C26.4168 21.4693 26.3497 21.4451 26.28 21.4199C26.0669 21.3428 25.8294 21.257 25.6443 21.1798C25.4191 21.0774 25.1171 20.9341 24.8919 20.8164C25.4191 21.1133 25.9207 21.492 26.3864 21.9732H26.3916C30.6184 26.3292 30.8205 39.9523 30.8247 42.356C30.8244 42.3774 30.824 42.3978 30.8237 42.4174C30.8141 40.1926 30.5897 26.3272 25.6443 21.5074C25.3065 21.1798 24.9533 20.8881 24.5899 20.6321L24.5387 20.5963C24.549 20.6054 24.56 20.6147 24.5713 20.6243C24.5738 20.6265 24.5764 20.6287 24.5791 20.6309C24.61 20.6571 24.642 20.6842 24.6667 20.7089H24.6615L24.8765 20.929C30.5229 27.064 30.8089 40.3431 30.8233 42.4392C30.8229 42.4608 30.8226 42.4813 30.8222 42.5005C30.8207 42.5868 30.8197 42.6487 30.819 42.6843L30.819 42.6831C30.8198 42.6424 30.8212 42.5686 30.8235 42.4648C30.824 42.5474 30.8241 42.6108 30.8241 42.6538C30.8241 42.6624 30.8241 42.6702 30.8241 42.6772V42.6872L30.8279 42.636H30.8292C30.8293 42.6303 30.8295 42.6244 30.8297 42.6181C30.8297 42.62 30.8296 42.6219 30.8296 42.6238C30.8294 42.6503 30.8293 42.6715 30.8292 42.6872L30.8302 42.6044L30.8352 42.538C30.8349 42.5471 30.8346 42.5559 30.8343 42.5643C30.8359 42.5457 30.8369 42.5255 30.8377 42.5049L31.0634 39.486C31.0672 39.4512 31.071 39.4161 31.0749 39.3807V39.3538C31.0988 39.1116 31.124 38.9065 31.167 38.572L31.1722 38.5335C31.367 37.0952 31.3885 36.9364 31.5457 36.0384C31.6094 35.699 31.6607 35.4211 31.7041 35.1861C31.7654 34.8543 31.8109 34.6082 31.8529 34.3954C31.9011 34.165 31.9507 33.9304 32.0025 33.693C32.0221 33.606 32.043 33.514 32.066 33.4127C32.084 33.3336 32.1033 33.249 32.1241 33.1568L32.1497 33.0391C32.0985 33.2586 32.0496 33.4769 32.0025 33.693C31.9474 33.9376 31.903 34.1415 31.8529 34.3954C31.8162 34.5749 31.7808 34.7526 31.7467 34.9286ZM30.8455 42.1203C30.8451 42.1255 30.8447 42.1307 30.8444 42.136C30.8419 42.1717 30.8394 42.2067 30.8394 42.2368H30.8385H30.8372C30.8359 42.2749 30.8347 42.311 30.8336 42.3448C30.8335 42.3518 30.8334 42.3588 30.8333 42.3656C30.8338 42.3539 30.8343 42.3418 30.8348 42.3294C30.8342 42.3447 30.8337 42.3596 30.8332 42.374C30.8332 42.376 30.8332 42.3779 30.8332 42.3798C30.8335 42.3747 30.8339 42.3697 30.8343 42.3647C30.8373 42.2934 30.841 42.2117 30.8455 42.1203ZM30.8455 42.1203C30.8474 42.093 30.8491 42.0657 30.8495 42.0402C30.8481 42.0676 30.8468 42.0944 30.8455 42.1203ZM30.8545 41.9456C30.8528 41.9781 30.8511 42.0096 30.8495 42.0402C30.8496 42.0357 30.8497 42.0313 30.8497 42.0269C30.8513 41.999 30.853 41.9719 30.8545 41.9456ZM30.8606 41.8365C30.8585 41.8739 30.8565 41.9103 30.8545 41.9456C30.8555 41.9298 30.8564 41.9143 30.8573 41.8991C30.8445 42.1488 30.8366 42.3463 30.8318 42.4849C30.8313 42.5205 30.8309 42.5522 30.8306 42.58L30.8304 42.5927C30.8352 42.4293 30.8464 42.1162 30.8707 41.6799C30.8666 41.7464 30.8622 41.819 30.8573 41.8991C30.8584 41.8786 30.8595 41.8577 30.8606 41.8365ZM30.9575 40.5023C30.9547 40.5352 30.9519 40.5678 30.9491 40.6C30.931 40.8308 30.9156 41.0456 30.9025 41.243C30.9222 40.9598 30.947 40.6403 30.9779 40.2886C30.9715 40.3556 30.9647 40.4266 30.9575 40.5023ZM31.0749 39.3214V39.3388C31.117 38.9527 31.1668 38.5399 31.2253 38.1038C31.2139 38.1879 31.2018 38.2773 31.1888 38.3728C31.1483 38.6899 31.1121 38.9939 31.08 39.2835L31.0816 39.2602C31.0793 39.2805 31.0771 39.3008 31.0749 39.3214ZM31.3222 37.3997C31.3679 37.0868 31.4178 36.7642 31.4723 36.4329C31.4923 36.3156 31.5146 36.1871 31.5406 36.0384C31.5525 35.9754 31.5639 35.9144 31.5749 35.8555C31.4471 36.5786 31.3407 37.2645 31.2527 37.9029C31.2793 37.7077 31.3018 37.5442 31.3222 37.3997ZM30.895 41.3706C30.8891 41.4616 30.8826 41.5637 30.8751 41.686C30.8781 41.6329 30.8814 41.5779 30.8848 41.5212C30.888 41.4723 30.8914 41.4221 30.895 41.3706ZM30.8548 42.0254C30.8508 42.0998 30.8475 42.1686 30.8445 42.2317C30.8448 42.2279 30.8452 42.2242 30.8455 42.2203C30.8481 42.1606 30.8512 42.0958 30.8548 42.0262C30.8548 42.0259 30.8548 42.0257 30.8548 42.0254ZM30.8392 42.4292C30.8377 42.4695 30.8364 42.5058 30.8352 42.538L30.8377 42.5049C30.8386 42.4799 30.839 42.4542 30.8392 42.4292ZM30.8297 42.6115C30.8299 42.5877 30.8301 42.5602 30.8303 42.5291C30.8299 42.5414 30.8295 42.5532 30.8292 42.5643C30.8292 42.5422 30.8292 42.5181 30.8294 42.4934C30.8276 42.552 30.8263 42.5997 30.8254 42.636H30.8279L30.8297 42.6115ZM30.8253 42.6349C30.8263 42.5953 30.8277 42.5412 30.8297 42.4737C30.8298 42.4678 30.8299 42.4619 30.83 42.456C30.8303 42.4471 30.8306 42.438 30.831 42.4288C30.831 42.4262 30.831 42.4236 30.831 42.421C30.8306 42.4325 30.8302 42.4442 30.83 42.456C30.8297 42.4649 30.8294 42.4736 30.8291 42.4822C30.8285 42.5019 30.828 42.5205 30.8275 42.5378C30.8266 42.576 30.8259 42.6085 30.8253 42.6349ZM30.8477 41.9664C30.8493 41.9357 30.8511 41.9041 30.8529 41.8716C30.8885 41.0679 30.9656 39.7464 31.1316 38.1376C30.9583 39.8121 30.8811 41.1746 30.8477 41.9664ZM31.2491 35.5433C31.3349 34.6493 31.4377 33.7193 31.5611 32.7831L31.56 32.7982C31.4372 33.7292 31.3347 34.654 31.2491 35.5433ZM30.8315 42.3307C30.832 42.2568 30.8323 42.1731 30.8327 42.08C30.8299 42.1876 30.8276 42.2827 30.8257 42.3646C30.8254 42.4755 30.8249 42.5621 30.8245 42.622C30.8251 42.6011 30.8259 42.577 30.8268 42.5498C30.828 42.491 30.8295 42.4177 30.8315 42.3307ZM30.8265 42.5619C30.8259 42.5905 30.8258 42.6152 30.8254 42.636C30.8257 42.6187 30.8257 42.5989 30.8262 42.5765C30.8263 42.5717 30.8264 42.5668 30.8265 42.5619ZM30.8243 42.6728L30.8241 42.6803C30.8241 42.6801 30.8241 42.6798 30.8241 42.6796C30.8242 42.6676 30.8243 42.6531 30.8244 42.636C30.8243 42.6456 30.8243 42.6543 30.8242 42.6623L30.8241 42.6796M30.8244 42.6245C30.8247 42.5718 30.8249 42.4979 30.8248 42.4043C30.8245 42.4198 30.8241 42.4349 30.8238 42.4493C30.8241 42.5279 30.8241 42.5902 30.8241 42.6352C30.8242 42.6317 30.8243 42.6281 30.8244 42.6245Z" fill="white"/>
<path d="M32.1548 33.0391L32.1932 32.8804C32.1804 32.9329 32.1676 32.9853 32.1548 33.0391Z" fill="white"/>
<path d="M32.1932 32.8804L32.2316 32.7217C32.2188 32.7755 32.206 32.828 32.1932 32.8804Z" fill="white"/>
<path d="M29.8649 33.5186C29.8408 33.3879 29.8159 33.2536 29.7901 33.1158H29.7852C29.7442 32.9127 29.7015 32.7079 29.6571 32.5016C29.6802 32.6139 29.7054 32.7348 29.7342 32.8724C29.75 32.948 29.7671 33.0287 29.7852 33.1158C29.8125 33.2508 29.8391 33.3851 29.8649 33.5186Z" fill="white"/>
<path d="M30.2061 35.4802C30.1087 34.8501 29.9958 34.1941 29.8649 33.5186C30.0083 34.297 30.122 34.9509 30.2061 35.4802Z" fill="white"/>
<path d="M30.2972 36.093C30.2937 36.0664 30.2902 36.0397 30.2866 36.0128C30.2638 35.8521 30.2369 35.6745 30.2061 35.4802C30.2381 35.6873 30.2685 35.8917 30.2972 36.093Z" fill="white"/>
<path d="M30.5606 38.2372C30.4924 37.5742 30.4062 36.8553 30.2972 36.093C30.4156 36.9893 30.5034 37.7041 30.5606 38.2372Z" fill="white"/>
<path d="M30.6032 38.6687C30.6001 38.6334 30.5969 38.5978 30.5937 38.5618C30.5841 38.4623 30.5731 38.3541 30.5606 38.2372C30.5756 38.3838 30.5898 38.5277 30.6032 38.6687Z" fill="white"/>
<path d="M30.7139 40.0179C30.6854 39.6057 30.6492 39.1542 30.6032 38.6687C30.6502 39.2017 30.6871 39.6514 30.7139 40.0179Z" fill="white"/>
<path d="M30.759 40.7474C30.7892 41.3849 30.8075 41.8677 30.8138 42.1958C30.8143 42.2177 30.8146 42.239 30.815 42.2596C30.8188 42.4827 30.8189 42.6301 30.8189 42.6923V42.6881C30.8189 42.6878 30.8189 42.6875 30.8189 42.6872C30.819 41.9053 30.8171 29.3407 25.6307 21.9222C25.6215 21.9078 25.6122 21.8932 25.6027 21.8785L25.588 21.8554L25.5855 21.8579C25.5156 21.7589 25.4448 21.6608 25.373 21.5637L25.5829 21.8605L25.5855 21.8579C25.6006 21.8793 25.6157 21.9007 25.6307 21.9222C26.2128 22.8315 26.3331 23.0229 26.8829 24.1075C26.9046 24.154 26.9273 24.2022 26.9506 24.252C26.956 24.2634 26.9614 24.275 26.9668 24.2866C27.1382 24.652 27.3425 25.0875 27.4869 25.4332C30.5799 32.7152 30.8018 40.8715 30.8177 42.4524C30.8171 42.3964 30.8163 42.332 30.815 42.2596C30.8092 41.92 30.7948 41.4049 30.759 40.7474Z" fill="white"/>
<path d="M30.759 40.7474C30.7569 40.7021 30.7547 40.656 30.7524 40.6091C30.7436 40.4448 30.7307 40.2477 30.7139 40.0179C30.7318 40.277 30.7467 40.5207 30.759 40.7474Z" fill="white"/>
<path d="M29.6622 32.4965C29.6392 32.3865 29.6174 32.2842 29.595 32.1818C29.6187 32.2867 29.6417 32.3916 29.6622 32.4965Z" fill="white"/>
<path d="M29.524 31.867C29.5393 31.9369 29.5553 32.0069 29.5712 32.0768C29.5792 32.1118 29.5871 32.1468 29.595 32.1818C29.5726 32.0794 29.5496 31.977 29.524 31.867Z" fill="white"/>
<path d="M29.0633 30.0295C29.309 30.9866 29.4319 31.478 29.524 31.867C29.3858 31.263 29.2322 30.6488 29.0633 30.0295Z" fill="white"/>
</g>
<path fill-rule="evenodd" clip-rule="evenodd" d="M30.6057 39.0514C30.6102 39.0868 30.6142 39.1186 30.6142 39.1504C30.6091 39.1146 30.604 39.0736 30.604 39.0378C30.6045 39.0424 30.6051 39.0469 30.6057 39.0514ZM30.5991 38.9776C30.6015 38.9977 30.6039 39.0172 30.604 39.0366C30.6039 39.0171 30.6015 38.9964 30.5991 38.9752C30.5964 38.9522 30.5937 38.9284 30.5937 38.9047V38.9099C30.5937 38.9336 30.5964 38.9559 30.5991 38.9776ZM30.5937 38.8843C30.5477 38.4134 30.4965 37.9118 30.4299 37.3846C30.4709 37.7326 30.517 38.1472 30.5937 38.8843ZM30.3839 37.0058C30.3916 37.0698 30.3992 37.1325 30.4069 37.1952C30.4146 37.2579 30.4223 37.3206 30.4299 37.3846C30.4207 37.3048 30.4115 37.2304 30.4023 37.1561C30.3962 37.1066 30.39 37.057 30.3839 37.0058ZM30.3738 36.927C30.3773 36.9535 30.3806 36.9798 30.3839 37.0058C30.3806 36.9796 30.3772 36.9533 30.3738 36.927ZM25.9197 22.3504C25.92 22.3509 25.9204 22.3514 25.9207 22.3519C24.6769 23.2732 23.6225 24.9777 23.5253 25.1363C24.8714 25.4537 26.2482 25.6942 27.6558 25.8529C28.1574 27.1376 28.5771 28.4377 28.9354 29.7121L29.0633 30.1882C29.346 31.2507 29.3874 31.4453 29.7354 33.0834C29.7529 33.1656 29.7711 33.2513 29.7902 33.3411C29.9856 34.333 30.0131 34.5132 30.2512 36.0728L30.2866 36.3046C30.3224 36.5503 30.3503 36.7453 30.3738 36.927C29.977 33.8269 29.2253 29.8879 27.8093 25.8682C28.6078 25.9553 29.4114 26.0167 30.2252 26.0525C30.2406 25.8119 30.517 22.2189 30.7166 22.2137C30.261 22.1881 29.652 22.1267 29.1964 22.0807C28.796 22.0215 28.2823 21.9219 27.8568 21.8394C27.8036 21.8291 27.7519 21.819 27.7019 21.8094C27.2361 21.6968 26.7498 21.835 26.279 22.1165C26.1561 21.8554 26.0333 21.5944 25.9053 21.3334C26.0998 21.359 26.3148 21.4306 26.5042 21.4972C26.3979 21.4598 26.2724 21.4048 26.1456 21.3492C26.0463 21.3057 25.9463 21.2619 25.8541 21.2259C24.9226 19.3577 23.7505 17.6584 22.4351 15.9591C14.6859 5.98339 1.66473 0.609103 0.968628 0.327593V0.353185V0.358303V0.383895C1.00446 2.3084 1.25526 4.02305 1.75686 5.82984C1.76097 5.83077 1.76557 5.83182 1.77064 5.83297C2.59758 6.02059 16.0382 9.07012 22.8906 17.4741C23.8068 18.595 24.5234 19.7364 25.2706 20.97L25.025 20.8471C24.4159 19.9309 23.7147 19.1478 22.9623 18.3494C15.6891 10.5643 3.47663 8.8292 2.82148 8.73707C3.56876 10.5131 4.40817 12.0231 5.56492 13.5995C5.57134 13.5992 5.57908 13.5989 5.58811 13.5985C6.40678 13.5617 17.854 13.0476 23.8733 19.6238C24.0458 19.8141 24.2061 20.0234 24.3665 20.2327C24.4821 20.3836 24.5977 20.5345 24.7179 20.6782C24.6923 20.6629 24.6667 20.6475 24.636 20.6373C24.636 20.6373 24.6257 20.627 24.6206 20.627C24.6157 20.6221 24.6107 20.6166 24.6056 20.611C24.5974 20.6019 24.5887 20.5923 24.5789 20.5836C24.5766 20.5795 24.5694 20.5759 24.5694 20.5759C24.5727 20.5783 24.5759 20.5809 24.5789 20.5836C24.5794 20.5844 24.5797 20.5853 24.5797 20.5861L24.5643 20.5759L24.5643 20.5758C24.4926 20.4991 24.421 20.4223 24.3442 20.3506C20.3468 16.4607 14.4709 15.7646 10.7857 15.7646C8.89784 15.7646 7.57967 15.9477 7.38884 15.9742L7.38706 15.9744H7.3973C8.73831 17.4332 10.2585 18.7691 11.9271 19.9565L11.932 19.9547C12.3915 19.7823 19.6131 17.0728 24.5438 20.5605C24.5566 20.5707 24.5694 20.5823 24.5822 20.5938C24.595 20.6053 24.6078 20.6168 24.6206 20.627L24.6308 20.6373C20.4235 18.4671 14.8804 21.446 14.5477 21.6251C16.3596 22.659 18.3045 23.5394 20.357 24.2304L20.3604 24.2268C20.5594 24.016 22.9046 21.5317 25.2246 21.3231C25.2246 21.3232 25.2246 21.3232 25.2246 21.3232C25.542 21.8043 25.9104 22.357 25.9104 22.357L25.9197 22.3504ZM25.9442 22.3329C25.9449 22.3341 25.9456 22.3354 25.9463 22.3366C25.9502 22.3336 25.9543 22.3305 25.9586 22.3272C25.9766 22.3135 25.9972 22.2978 26.0179 22.2854C25.8439 21.9578 25.6647 21.6354 25.4754 21.3129C25.4523 21.3129 25.4293 21.3142 25.4063 21.3155C25.3832 21.3167 25.3602 21.318 25.3372 21.318C25.3372 21.318 25.6187 21.7582 25.9463 22.3315L25.9442 22.3329ZM33.977 27.1939L33.8285 27.588C33.8646 27.484 33.9037 27.3831 33.9435 27.2805C33.9546 27.2518 33.9658 27.223 33.977 27.1939ZM33.9954 27.1458L33.9975 27.1478L33.977 27.1939C33.9838 27.1779 33.9897 27.1618 33.9954 27.1458ZM34.0059 27.1169C34.003 27.1247 34.0002 27.1324 33.9975 27.1402C33.9968 27.142 33.9961 27.1439 33.9954 27.1458L33.9923 27.1427C33.995 27.1374 33.9976 27.1325 34.0002 27.1277C34.0021 27.124 34.004 27.1205 34.0059 27.1169ZM34.0059 27.1169C34.0096 27.1067 34.0136 27.0966 34.0179 27.0864C34.0151 27.0975 34.0108 27.1072 34.0059 27.1169ZM34.0486 27.025C34.0384 27.0455 34.023 27.0864 34.023 27.0864C34.0282 27.0762 34.032 27.066 34.0358 27.0557C34.0397 27.0455 34.0435 27.0352 34.0486 27.025ZM34.1693 26.722C34.1577 26.7498 34.1462 26.7774 34.1356 26.8049C34.1538 26.7626 34.1701 26.7221 34.1857 26.6824C34.1967 26.6556 34.2075 26.6283 34.2175 26.6002C34.2374 26.5548 34.2557 26.5095 34.2732 26.4658C34.2741 26.4637 34.2749 26.4616 34.2758 26.4595C34.2892 26.4275 34.3024 26.3957 34.3148 26.3647C34.3019 26.3948 34.289 26.4266 34.2758 26.4595C34.2726 26.4671 34.2694 26.4748 34.2662 26.4825C34.2495 26.5221 34.2329 26.5618 34.2175 26.6002L34.2174 26.6004C34.207 26.6276 34.1965 26.6548 34.1857 26.6824C34.1803 26.6957 34.1748 26.7089 34.1693 26.722ZM36.7921 21.3231C36.6897 21.4869 36.5873 21.6558 36.4901 21.8247H36.4952C36.5257 21.8324 36.5562 21.8428 36.5888 21.854C36.6 21.8578 36.6114 21.8618 36.6232 21.8657C36.7188 21.7103 36.8175 21.5611 36.917 21.4109C36.9452 21.3681 36.9736 21.3253 37.0019 21.2822C36.9303 21.2924 36.8586 21.3078 36.7921 21.3231ZM36.1216 21.7428C37.1606 19.6801 38.4044 17.6635 39.8989 15.7953V15.8055C47.8543 5.86893 61.0534 0.384447 61.9361 0.0176765L61.954 0.0102539C61.9898 1.90917 61.7851 3.7569 61.3654 5.53809L61.3551 5.54055C60.5587 5.73056 47.5555 8.83304 39.73 17.382C38.6347 18.5848 37.6776 19.89 36.833 21.2617C36.8859 21.2382 36.9371 21.2164 36.9866 21.1953C37.0234 21.1796 37.0592 21.1644 37.0941 21.1491C37.8106 20.0896 38.604 19.0813 39.4946 18.1651C47.0976 10.3331 59.7149 8.41099 60.5183 8.28859L60.5311 8.28666C59.8606 10.073 58.9648 11.7723 57.8746 13.3641L57.8712 13.364C57.2281 13.3476 45.6852 13.0537 38.7371 19.6136C38.2969 20.0282 37.8772 20.4786 37.4831 20.9546C37.5027 20.9415 37.5224 20.9305 37.5408 20.9202C37.551 20.9145 37.5609 20.9089 37.5701 20.9034C37.5905 20.8932 37.611 20.883 37.6264 20.8727C37.8209 20.6629 38.0205 20.4581 38.2303 20.2636C44.6911 14.3217 55.3941 15.58 56.0819 15.6609L56.0934 15.6622C54.8139 17.1363 53.35 18.4927 51.7326 19.7006L51.7273 19.6988C51.2217 19.5264 43.1034 16.7573 37.7083 20.8113L37.6827 20.8369C42.3952 18.1075 48.8022 21.2222 49.1872 21.4094L49.1888 21.4102C47.4229 22.4697 45.5189 23.3705 43.4971 24.0922C43.2873 23.8926 40.16 20.9751 37.2425 21.2566C37.0736 21.4716 36.9098 21.6865 36.746 21.9118C38.5548 22.5824 40.2172 24.8216 40.3718 25.0297L40.3749 25.034C38.4709 25.51 36.485 25.8324 34.4427 25.986C33.4651 28.3455 32.7537 30.7307 32.2316 32.947L32.1292 33.3923C31.8597 34.6718 31.6669 35.6529 31.5509 36.3353C31.37 37.4852 31.2438 38.3485 31.1721 38.9252C31.1522 39.1031 31.1347 39.2587 31.1193 39.3962C31.0672 39.8601 31.0383 40.1172 31.0186 40.3225C31.3257 37.1287 32.1395 31.652 34.2636 25.9962C34.1715 26.0013 34.0806 26.0077 33.9898 26.0141C33.8989 26.0205 33.8081 26.0269 33.7159 26.032C33.7148 26.0262 33.7133 26.0184 33.7115 26.0087C33.6372 25.617 32.9787 22.1486 32.3545 22.2035C32.8816 22.1574 33.5829 22.0909 34.1101 22.0141C34.184 21.9996 34.2633 21.9843 34.3457 21.9684C34.6394 21.9117 34.9711 21.8478 35.231 21.7838C35.5227 21.707 35.8247 21.6968 36.1216 21.7428Z" fill="white"/>
<path d="M172.57 35.4928L173.093 28.3325H174.755L175.493 32.1486L175.709 33.7079L175.924 32.1486L176.622 28.3325H178.273L178.797 35.4928H177.525L177.36 31.3177L177.33 29.6045L177.012 31.3177L176.191 35.4928H175.145L174.334 31.3177L174.026 29.5943L173.985 31.3177L173.832 35.4928H172.57Z" fill="white"/>
<path d="M166.637 33.8309V32.7538H170.699V33.8309H166.637ZM167.652 28.3325H169.54L171.622 35.4928H170.299L169.016 30.9792L168.596 29.2968L168.155 30.9894L166.862 35.4928H165.57L167.652 28.3325Z" fill="white"/>
<path d="M159 35.4928V28.3325H164.191V29.4096H160.283V31.2459H162.919V32.323H160.283V34.4157H164.232V35.4928H159Z" fill="white"/>
<path d="M153.785 35.4928V29.4096H151.549V28.3325H157.304V29.4096H155.067V35.4928H153.785Z" fill="white"/>
<path d="M212.167 25.723V18.5627H216.959V19.6399H213.449V21.4761H215.687V22.5532H213.449V24.6459H217V25.723H212.167Z" fill="white"/>
<path d="M208.25 25.846C207.614 25.846 207.064 25.6922 206.599 25.3844C206.14 25.0698 205.785 24.6321 205.532 24.0714C205.279 23.5106 205.152 22.8677 205.152 22.1428C205.152 21.3905 205.282 20.7374 205.542 20.1835C205.802 19.6295 206.168 19.2021 206.64 18.9012C207.111 18.5934 207.665 18.4396 208.301 18.4396C208.807 18.4396 209.266 18.5387 209.676 18.7371C210.093 18.9354 210.432 19.2192 210.692 19.5885C210.958 19.951 211.109 20.3921 211.143 20.9118H209.738C209.69 20.4878 209.539 20.1493 209.286 19.8962C209.033 19.6432 208.701 19.5167 208.291 19.5167C207.942 19.5167 207.631 19.6227 207.358 19.8347C207.084 20.0399 206.872 20.3408 206.722 20.7374C206.571 21.1272 206.496 21.5957 206.496 22.1428C206.496 22.6968 206.571 23.1686 206.722 23.5584C206.879 23.9483 207.088 24.2492 207.347 24.4612C207.614 24.6663 207.915 24.7689 208.25 24.7689C208.537 24.7689 208.787 24.7108 208.999 24.5945C209.218 24.4714 209.396 24.3005 209.532 24.0816C209.669 23.8628 209.748 23.6063 209.768 23.3123H211.184C211.136 23.8252 210.986 24.2731 210.733 24.6561C210.486 25.0322 210.151 25.3263 209.727 25.5383C209.31 25.7435 208.818 25.846 208.25 25.846Z" fill="white"/>
<path d="M198.763 25.723V18.5627H200.384L203.041 24.0817L202.948 21.7428V18.5627H204.169V25.723H202.558L199.881 20.2759L199.984 22.543V25.723H198.763Z" fill="white"/>
<path d="M192.782 24.0612V22.9841H196.845V24.0612H192.782ZM193.798 18.5627H195.685L197.768 25.723H196.445L195.162 21.2094L194.742 19.527L194.301 21.2196L193.008 25.723H191.715L193.798 18.5627Z" fill="white"/>
<path d="M185.339 25.723V18.5627H186.96L189.617 24.0817L189.525 21.7428V18.5627H190.746V25.723H189.135L186.458 20.2759L186.56 22.543V25.723H185.339Z" fill="white"/>
<path d="M179.759 22.8302V21.7633H181.513C181.78 21.7633 182.016 21.7189 182.221 21.63C182.426 21.5342 182.587 21.4043 182.703 21.2402C182.819 21.0692 182.877 20.8743 182.877 20.6554C182.877 20.4434 182.826 20.2622 182.724 20.1117C182.621 19.9613 182.481 19.845 182.303 19.763C182.125 19.6809 181.923 19.6399 181.698 19.6399H179.759V18.5627H181.698C182.183 18.5627 182.614 18.6448 182.99 18.8089C183.373 18.9731 183.674 19.2124 183.893 19.527C184.112 19.8348 184.221 20.2109 184.221 20.6554C184.221 20.929 184.156 21.1957 184.026 21.4556C183.896 21.7155 183.712 21.9514 183.472 22.1634C183.233 22.3686 182.942 22.5327 182.6 22.6558C182.258 22.7721 181.872 22.8302 181.441 22.8302H179.759ZM178.836 25.723V18.5627H180.128V25.723H178.836ZM182.877 25.723C182.85 25.4084 182.775 25.0973 182.652 24.7895C182.529 24.4749 182.354 24.174 182.129 23.8868C181.91 23.5996 181.64 23.3363 181.318 23.0969C180.997 22.8507 180.621 22.6387 180.19 22.4609L181.626 22.1531C182.057 22.372 182.429 22.6182 182.744 22.8917C183.059 23.1653 183.318 23.4594 183.524 23.7739C183.736 24.0817 183.896 24.4031 184.006 24.7382C184.115 25.0665 184.18 25.3947 184.201 25.723H182.877Z" fill="white"/>
<path d="M172.287 25.723V18.5627H177.477V19.6399H173.569V21.4761H176.205V22.5532H173.569V24.6459H177.518V25.723H172.287Z" fill="white"/>
<path d="M167.317 25.723L165.224 18.5627H166.568L167.912 23.0251L168.281 24.6869L168.64 23.0353L169.995 18.5627H171.308L169.205 25.723H167.317Z" fill="white"/>
<path d="M161.524 25.846C160.908 25.846 160.368 25.6956 159.903 25.3947C159.445 25.0938 159.089 24.6663 158.836 24.1124C158.583 23.5584 158.457 22.9019 158.457 22.1428C158.457 21.3837 158.583 20.7272 158.836 20.1732C159.089 19.6124 159.445 19.185 159.903 18.8909C160.368 18.59 160.908 18.4396 161.524 18.4396C162.139 18.4396 162.676 18.59 163.134 18.8909C163.593 19.185 163.948 19.609 164.201 20.163C164.454 20.7169 164.581 21.3769 164.581 22.1428C164.581 22.9019 164.454 23.5584 164.201 24.1124C163.948 24.6663 163.593 25.0938 163.134 25.3947C162.676 25.6956 162.139 25.846 161.524 25.846ZM161.524 24.7689C161.859 24.7689 162.156 24.6629 162.416 24.4509C162.676 24.2389 162.878 23.938 163.022 23.5482C163.172 23.1515 163.247 22.6831 163.247 22.1428C163.247 21.5957 163.172 21.1272 163.022 20.7374C162.878 20.3408 162.676 20.0399 162.416 19.8347C162.156 19.6227 161.859 19.5167 161.524 19.5167C161.189 19.5167 160.888 19.6227 160.621 19.8347C160.361 20.0467 160.16 20.351 160.016 20.7477C159.872 21.1375 159.801 21.6025 159.801 22.1428C159.801 22.6831 159.872 23.1515 160.016 23.5482C160.16 23.938 160.361 24.2389 160.621 24.4509C160.888 24.6629 161.189 24.7689 161.524 24.7689Z" fill="white"/>
<path d="M154.524 25.846C153.895 25.846 153.344 25.6922 152.872 25.3844C152.4 25.0767 152.031 24.6458 151.764 24.0919C151.504 23.5379 151.374 22.8882 151.374 22.1428C151.374 21.4042 151.504 20.7579 151.764 20.204C152.031 19.6501 152.404 19.2192 152.882 18.9115C153.368 18.5969 153.939 18.4396 154.596 18.4396C155.081 18.4396 155.526 18.5387 155.929 18.7371C156.333 18.9286 156.661 19.2089 156.914 19.5782C157.174 19.9407 157.321 20.3818 157.355 20.9016H155.939C155.892 20.4912 155.748 20.1595 155.509 19.9065C155.269 19.6466 154.955 19.5167 154.565 19.5167C154.216 19.5167 153.901 19.6227 153.621 19.8347C153.341 20.0399 153.118 20.3374 152.954 20.7272C152.797 21.117 152.718 21.5889 152.718 22.1428C152.718 22.7036 152.8 23.1823 152.964 23.579C153.135 23.9688 153.365 24.2663 153.652 24.4714C153.939 24.6698 154.267 24.7689 154.637 24.7689C154.951 24.7689 155.228 24.7142 155.468 24.6048C155.707 24.4954 155.912 24.3518 156.083 24.1739V22.9635L154.934 23.0045L154.975 21.9171H157.355V24.5432C157.068 24.9536 156.685 25.275 156.206 25.5075C155.727 25.7332 155.167 25.846 154.524 25.846Z" fill="white"/>
<path d="M208.626 15.9532V8.79291H209.919V14.8761H213.571V15.9532H208.626Z" fill="white"/>
<path d="M202.048 14.2913V13.2142H206.11V14.2913H202.048ZM203.063 8.79291H204.951L207.033 15.9532H205.71L204.427 11.4395L204.007 9.75718L203.566 11.4498L202.273 15.9532H200.981L203.063 8.79291Z" fill="white"/>
<path d="M197.027 16.0763C196.391 16.0763 195.841 15.9224 195.376 15.6146C194.917 15.3001 194.562 14.8624 194.309 14.3016C194.056 13.7408 193.929 13.098 193.929 12.373C193.929 11.6208 194.059 10.9677 194.319 10.4137C194.579 9.85976 194.945 9.43233 195.417 9.13142C195.889 8.82367 196.443 8.6698 197.079 8.6698C197.585 8.6698 198.043 8.76896 198.453 8.96729C198.87 9.16562 199.209 9.44943 199.469 9.81873C199.735 10.1812 199.886 10.6223 199.92 11.142H198.515C198.467 10.718 198.316 10.3795 198.063 10.1265C197.81 9.87344 197.479 9.74692 197.068 9.74692C196.72 9.74692 196.408 9.85292 196.135 10.0649C195.861 10.2701 195.649 10.571 195.499 10.9677C195.348 11.3575 195.273 11.8259 195.273 12.373C195.273 12.927 195.348 13.3989 195.499 13.7887C195.656 14.1785 195.865 14.4794 196.125 14.6914C196.391 14.8966 196.692 14.9991 197.027 14.9991C197.315 14.9991 197.564 14.941 197.776 14.8248C197.995 14.7017 198.173 14.5307 198.31 14.3118C198.446 14.093 198.525 13.8365 198.545 13.5425H199.961C199.913 14.0554 199.763 14.5033 199.51 14.8863C199.264 15.2624 198.928 15.5565 198.504 15.7685C198.087 15.9737 197.595 16.0763 197.027 16.0763Z" fill="white"/>
<path d="M189.196 15.9532V8.79291H190.478V15.9532H189.196ZM187.452 8.79291H192.222V9.87003H187.452V8.79291ZM187.452 14.8761H192.222V15.9532H187.452V14.8761Z" fill="white"/>
<path d="M180.062 15.9532V8.79291H181.683L184.34 14.3119L184.248 11.973V8.79291H185.468V15.9532H183.858L181.18 10.506L181.283 12.7731V15.9532H180.062Z" fill="white"/>
<path d="M177.135 15.9532V8.79291H178.427V15.9532H177.135ZM172.939 15.9532V8.79291H174.232V15.9532H172.939ZM174.068 12.7834V11.7063H177.289V12.7834H174.068Z" fill="white"/>
<path d="M168.698 16.0763C168.062 16.0763 167.512 15.9224 167.047 15.6146C166.589 15.3001 166.233 14.8624 165.98 14.3016C165.727 13.7408 165.6 13.098 165.6 12.373C165.6 11.6208 165.73 10.9677 165.99 10.4137C166.25 9.85976 166.616 9.43233 167.088 9.13142C167.56 8.82367 168.114 8.6698 168.75 8.6698C169.256 8.6698 169.714 8.76896 170.124 8.96729C170.541 9.16562 170.88 9.44943 171.14 9.81873C171.407 10.1812 171.557 10.6223 171.591 11.142H170.186C170.138 10.718 169.988 10.3795 169.735 10.1265C169.481 9.87344 169.15 9.74692 168.739 9.74692C168.391 9.74692 168.08 9.85292 167.806 10.0649C167.532 10.2701 167.32 10.571 167.17 10.9677C167.019 11.3575 166.944 11.8259 166.944 12.373C166.944 12.927 167.019 13.3989 167.17 13.7887C167.327 14.1785 167.536 14.4794 167.796 14.6914C168.062 14.8966 168.363 14.9991 168.698 14.9991C168.986 14.9991 169.235 14.941 169.447 14.8248C169.666 14.7017 169.844 14.5307 169.981 14.3118C170.117 14.093 170.196 13.8365 170.217 13.5425H171.632C171.584 14.0554 171.434 14.5033 171.181 14.8863C170.935 15.2624 170.6 15.5565 170.176 15.7685C169.758 15.9737 169.266 16.0763 168.698 16.0763Z" fill="white"/>
<path d="M159 15.9532V8.79291H164.191V9.87003H160.283V11.7063H162.919V12.7834H160.283V14.8761H164.232V15.9532H159Z" fill="white"/>
<path d="M153.785 15.9533V9.87015H151.549V8.79303H157.304V9.87015H155.068V15.9533H153.785Z" fill="white"/>
</svg>
