<?xml version="1.0" encoding="UTF-8"?>
<svg version="1.1" xmlns="http://www.w3.org/2000/svg" width="1518" height="506">
<path d="M0 0 C500.94 0 1001.88 0 1518 0 C1518 166.98 1518 333.96 1518 506 C1017.06 506 516.12 506 0 506 C0 339.02 0 172.04 0 0 Z " fill="#FEFEFE" transform="translate(0,0)"/>
<path d="M0 0 C3.65559757 2.66759822 6.02537925 4.91299425 8 9 C8.29296875 12.33203125 8.29296875 12.33203125 8.1875 15.8125 C8.14689453 17.55466797 8.14689453 17.55466797 8.10546875 19.33203125 C8.07066406 20.21246094 8.03585938 21.09289062 8 22 C10.42999536 19.72635823 11.42805835 18.31726155 12 15 C15 16 15 16 16.13671875 18.11328125 C17.14561445 21.48691892 17.48196773 24.68240502 17.8125 28.1875 C18.60279789 34.99545802 20.3991947 40.1840396 24 46 C24.57492188 46.95003906 25.14984375 47.90007812 25.7421875 48.87890625 C33.10665787 60.74739819 39.88981438 67.36467859 53.55859375 71.25390625 C59.00558324 72.43480863 64.43876596 72.81796288 70 73 C69.37609375 72.24976563 68.7521875 71.49953125 68.109375 70.7265625 C65.0940352 66.82895661 63 63.04448358 63 58 C64.28197266 57.81824219 64.28197266 57.81824219 65.58984375 57.6328125 C66.69457031 57.46523438 67.79929687 57.29765625 68.9375 57.125 C70.03964844 56.96257812 71.14179688 56.80015625 72.27734375 56.6328125 C73.17582031 56.42398438 74.07429688 56.21515625 75 56 C75.495 55.01 75.495 55.01 76 54 C73.69 54 71.38 54 69 54 C70.44424635 50.76138697 72.25772247 48.38030837 74.625 45.75 C75.57246094 44.69039062 75.57246094 44.69039062 76.5390625 43.609375 C77.02117187 43.07828125 77.50328125 42.5471875 78 42 C73.70151887 44.26113998 70.97551225 47.02682773 67.8125 50.6875 C66.24921996 52.49452985 64.6540606 54.27567842 63 56 C62.34 56 61.68 56 61 56 C59.45703125 54.20703125 59.45703125 54.20703125 57.8125 51.8125 C57.26207031 51.03519531 56.71164062 50.25789063 56.14453125 49.45703125 C54.74071223 46.44337199 54.97686472 45.115912 56 42 C56.515625 41.175 57.03125 40.35 57.5625 39.5 C59.16189509 36.71844332 59.27005944 35.15069341 59 32 C58.401875 32.969375 57.80375 33.93875 57.1875 34.9375 C55 38 55 38 52 39 C49.48550798 32.08514695 48.64612683 24.06161951 51 17 C50.34 17 49.68 17 49 17 C48.67 21.62 48.34 26.24 48 31 C47.01 30.34 46.02 29.68 45 29 C45.86625 30.68029297 45.86625 30.68029297 46.75 32.39453125 C47.50031605 33.8670265 48.25029875 35.33969164 49 36.8125 C49.3815625 37.55048828 49.763125 38.28847656 50.15625 39.04882812 C50.5171875 39.76103516 50.878125 40.47324219 51.25 41.20703125 C51.75273437 42.18893433 51.75273437 42.18893433 52.265625 43.19067383 C53 45 53 45 53 48 C49.61108678 47.31113213 46.81988387 46.01283514 43.75 44.4375 C42.85796875 43.98246094 41.9659375 43.52742188 41.046875 43.05859375 C40.37140625 42.70925781 39.6959375 42.35992187 39 42 C41.69873545 44.12349479 44.37558764 45.7682773 47.4375 47.3125 C51.73152738 49.65083174 54.2308264 51.98023188 57 56 C57 56.66 57 57.32 57 58 C54.03 57.67 51.06 57.34 48 57 C48 57.66 48 58.32 48 59 C48.68707031 59.18175781 49.37414062 59.36351562 50.08203125 59.55078125 C50.98308594 59.80214844 51.88414062 60.05351562 52.8125 60.3125 C53.70582031 60.55613281 54.59914063 60.79976563 55.51953125 61.05078125 C58.11528013 62.04411507 59.38922208 62.74705148 61 65 C61 66.32 61 67.64 61 69 C53.70105653 68.05820084 46.80940973 64.39248053 41 60 C39 57 39 57 39 54 C40.65 54 42.3 54 44 54 C44 53.01 44 52.02 44 51 C43.01 50.814375 42.02 50.62875 41 50.4375 C36.01683416 49.04424751 32.53464977 45.65534513 29 42 C27.39274365 38.78548731 27.94251815 35.56387464 28 32 C31.86695678 32 34.5088452 33.41909971 38 35 C37.80921875 34.28070313 37.6184375 33.56140625 37.421875 32.8203125 C36.64952027 27.65697808 38.5346803 23.49249016 41 19 C44.2169444 14.90858331 47.98318733 11.29633675 52 8 C52.66 8 53.32 8 54 8 C57.27591952 13.81475715 59.7342166 18.24520726 59 25 C61.64 25 64.28 25 67 25 C66.24817518 32.51824818 66.24817518 32.51824818 64.9375 35.0625 C63.514904 38.00253174 63.87658219 40.79113695 64 44 C64.76570313 42.89591797 64.76570313 42.89591797 65.546875 41.76953125 C68.46272858 38.47758827 71.41548525 36.74114764 75.25 34.6875 C75.8996875 34.32849609 76.549375 33.96949219 77.21875 33.59960938 C78.80729753 32.72357214 80.40295142 31.86044195 82 31 C83.58270938 35.20171656 84.27274688 38.70067833 84.25 43.1875 C84.25773437 44.72470703 84.25773437 44.72470703 84.265625 46.29296875 C84 49 84 49 82 52 C84.475 51.505 84.475 51.505 87 51 C85.80926438 54.38901675 84.84048419 56.75751248 82 59 C79.30078125 59.73046875 79.30078125 59.73046875 76.3125 60.1875 C75.31863281 60.34605469 74.32476562 60.50460937 73.30078125 60.66796875 C72.54152344 60.77753906 71.78226562 60.88710938 71 61 C70.58274322 64.37400578 70.58274322 64.37400578 71 68 C78.03349414 73.99915677 88.48311337 74.12440276 97.29151809 74.12649983 C97.98381696 74.12802638 98.67611583 74.12955293 99.38939345 74.13112573 C101.70093157 74.13501148 104.01240379 74.13181539 106.32394218 74.12863445 C108.00838146 74.12998162 109.69282043 74.1317658 111.37725884 74.13394669 C116.01694403 74.1386779 120.6566096 74.13717462 125.29629575 74.13466892 C130.33984349 74.13303692 135.38338701 74.13717577 140.42693341 74.14057809 C149.27011254 74.14573519 158.11328619 74.14714875 166.95646667 74.14612198 C180.10652826 74.14459885 193.25658378 74.14875479 206.40664419 74.1539966 C231.25692328 74.16367535 256.10720072 74.16648165 280.95748125 74.16705366 C283.69834176 74.16711841 286.43920226 74.16718635 289.18006277 74.16725707 C290.20028385 74.16728258 290.20028385 74.16728258 291.24111546 74.1673086 C306.31294238 74.16771705 321.38476888 74.16990695 336.45659557 74.17241292 C342.66254121 74.17344127 348.86848685 74.1744313 355.07443249 74.17542917 C355.76013262 74.17553975 356.44583275 74.17565034 357.15231168 74.17576428 C396.44551928 74.18208825 435.7387266 74.18621341 475.03193474 74.18575573 C476.50239351 74.18573995 477.97285228 74.18572422 479.44331105 74.18570852 C486.08233064 74.18563514 492.72135023 74.18554697 499.36036981 74.18545464 C502.3208876 74.18541351 505.28140538 74.18537337 508.24192316 74.18533332 C509.72371526 74.18531293 511.20550735 74.18529191 512.68729944 74.18527026 C559.54983697 74.18458992 606.41236694 74.19190906 653.27490234 74.20581055 C665.08332759 74.20931154 676.89175284 74.21278098 688.70017815 74.21607494 C689.42725924 74.21627782 690.15434033 74.21648069 690.90345418 74.21668971 C713.31019927 74.22290399 735.71694374 74.22667013 758.12368965 74.22793293 C758.82709606 74.22797288 759.53050247 74.22801283 760.25522422 74.22805399 C775.69612384 74.22890724 791.13702342 74.22916847 806.57792306 74.22888362 C812.10282307 74.22878713 817.62772309 74.22873509 823.15262311 74.22870489 C824.5270864 74.22869697 825.90154969 74.22868677 827.27601298 74.22867426 C849.18125841 74.2284979 871.08649737 74.23419736 892.99174095 74.24282808 C915.66521824 74.25171609 938.33868777 74.25330311 961.01216637 74.24651595 C974.08754139 74.2428132 987.1628881 74.24467425 1000.23826014 74.25445829 C1008.96641822 74.26043888 1017.69455568 74.2591843 1026.4227128 74.25198779 C1031.39951169 74.24809003 1036.37625559 74.24737722 1041.35305069 74.25544515 C1045.88052279 74.26272059 1050.40789406 74.26079146 1054.93536166 74.25152128 C1056.56304738 74.24979989 1058.19074097 74.25142859 1059.81841866 74.25682249 C1071.29532559 74.29230814 1081.34968983 73.45376607 1092 69 C1093.26472065 67.94570314 1093.26472065 67.94570314 1093.25 65.5625 C1093.12625 64.2940625 1093.12625 64.2940625 1093 63 C1090.04263786 60.74929669 1090.04263786 60.74929669 1086.125 60.25 C1081.38603389 59.18329545 1079.72009729 56.91013986 1077 53 C1077.33 52.34 1077.66 51.68 1078 51 C1079.32 51.33 1080.64 51.66 1082 52 C1081.51080078 51.21109375 1081.51080078 51.21109375 1081.01171875 50.40625 C1079.71231681 47.31578051 1079.77031724 44.84394258 1079.8125 41.5 C1079.81894531 40.3759375 1079.82539062 39.251875 1079.83203125 38.09375 C1079.9704447 35.54436746 1080.25665386 33.4262818 1081 31 C1084.82903425 32.41583598 1088.21140597 34.17373 1091.6875 36.3125 C1093.11642578 37.17294922 1093.11642578 37.17294922 1094.57421875 38.05078125 C1097.25980928 40.20876784 1098.03962124 41.73695871 1099 45 C1099.66 45 1100.32 45 1101 45 C1099.81845324 39.04421015 1099.81845324 39.04421015 1097.875 33.3125 C1096.79165777 30.44938126 1096.85885006 28.03472369 1097 25 C1099.64 25 1102.28 25 1105 25 C1104.896875 24.05125 1104.79375 23.1025 1104.6875 22.125 C1104.63294589 16.81142972 1107.45863005 12.51093167 1110 8 C1116.33343763 10.71226942 1121.16982048 16.39338068 1125.0625 21.9375 C1126.40054771 26.30845586 1126.24194004 30.46586451 1126 35 C1129.0831351 33.80100302 1132.06279492 32.52299523 1135 31 C1136.68507277 34.37014554 1136.97053278 37.41842098 1136 41 C1131.71908702 46.42945061 1126.80252679 49.8421231 1120 51 C1120 51.99 1120 52.98 1120 54 C1121.98 54 1123.96 54 1126 54 C1123.51623258 60.07143146 1120.4784754 62.43357117 1114.5625 65.09765625 C1110.39166465 66.82929771 1106.45851239 68.2132037 1102 69 C1102.1875 66.6875 1102.1875 66.6875 1103 64 C1106.85977638 60.84200114 1111.23015094 60.05098369 1116 59 C1116 58.34 1116 57.68 1116 57 C1111.545 57.495 1111.545 57.495 1107 58 C1108.43128186 52.27487256 1111.35732688 49.99561782 1116.33203125 46.98046875 C1117.48058594 46.38878906 1118.62914062 45.79710937 1119.8125 45.1875 C1120.97394531 44.58292969 1122.13539062 43.97835937 1123.33203125 43.35546875 C1124.65267578 42.68451172 1124.65267578 42.68451172 1126 42 C1123.97652196 42.99818894 1121.97495421 44.01384367 1120 45.10546875 C1119.34 45.46253906 1118.68 45.81960937 1118 46.1875 C1117.34 46.55230469 1116.68 46.91710937 1116 47.29296875 C1113.59324463 48.14379438 1112.37238501 47.83139386 1110 47 C1110.6496875 45.51886719 1110.6496875 45.51886719 1111.3125 44.0078125 C1111.87519045 42.71362446 1112.43768005 41.41934907 1113 40.125 C1113.42925781 39.14853516 1113.42925781 39.14853516 1113.8671875 38.15234375 C1116.15592023 32.86646102 1115.91638104 29.60023935 1115.5 23.875 C1115.4071875 22.59367187 1115.314375 21.31234375 1115.21875 19.9921875 C1115.1465625 19.00476563 1115.074375 18.01734375 1115 17 C1114.34 17 1113.68 17 1113 17 C1113.33 17.99 1113.66 18.98 1114 20 C1114.53524715 27.04055861 1114.40918098 32.74983486 1111 39 C1106.125 34.25 1106.125 34.25 1105 32 C1105.37499415 36.89949987 1105.37499415 36.89949987 1107.625 41.125 C1109 43 1109 43 1108.9375 45.3125 C1107.67749967 48.92450096 1106.10086669 51.78690977 1104 55 C1102.515 55.495 1102.515 55.495 1101 56 C1097.04 51.71 1093.08 47.42 1089 43 C1088.67 43.33 1088.34 43.66 1088 44 C1088.51691406 44.54269531 1089.03382812 45.08539063 1089.56640625 45.64453125 C1090.22511719 46.35996094 1090.88382813 47.07539063 1091.5625 47.8125 C1092.22378906 48.52019531 1092.88507813 49.22789062 1093.56640625 49.95703125 C1094.27603516 50.96830078 1094.27603516 50.96830078 1095 52 C1094.67 52.99 1094.34 53.98 1094 55 C1092.02 54.67 1090.04 54.34 1088 54 C1088.33 54.66 1088.66 55.32 1089 56 C1091.80980673 56.69227032 1091.80980673 56.69227032 1095.0625 57.125 C1096.16722656 57.29257812 1097.27195312 57.46015625 1098.41015625 57.6328125 C1099.26480469 57.75398438 1100.11945313 57.87515625 1101 58 C1100.49082657 62.04445712 1099.76688952 64.91875551 1097.5 68.3125 C1097.0565625 68.98925781 1096.613125 69.66601562 1096.15625 70.36328125 C1095 72 1095 72 1094 73 C1107.63535021 72.22160402 1119.44626317 69.73267848 1129.875 60.4375 C1133.81362904 55.91966081 1137.15405663 51.33262317 1140.125 46.125 C1140.47175781 45.53847656 1140.81851562 44.95195312 1141.17578125 44.34765625 C1145.16141828 37.39951506 1146.23925625 30.79911907 1146.55859375 22.8671875 C1147.05598604 19.63633848 1148.16323982 17.67432282 1150 15 C1152.62078829 17.3711894 1154.22445183 19.96117666 1156 23 C1155.95359375 22.05898437 1155.9071875 21.11796875 1155.859375 20.1484375 C1155.52772959 8.70667082 1155.52772959 8.70667082 1157.75 5.3125 C1159.73349035 3.2739127 1161.60893561 1.53711282 1164 0 C1168.40167394 6.60251091 1168.62910113 10.59629212 1167.5 18.5 C1167.335 19.325 1167.17 20.15 1167 21 C1169.97017694 20.37189827 1169.97017694 20.37189827 1173 19 C1174.27587495 16.6859613 1174.27587495 16.6859613 1175 14 C1177.96698416 8.20731665 1181.86274525 5.10420163 1188 3 C1188 4.32 1188 5.64 1188 7 C1188.48726562 6.566875 1188.97453125 6.13375 1189.4765625 5.6875 C1196.40775725 0.24336158 1202.42370077 0.3412231 1211 1 C1209.35544513 6.60643705 1207.66043672 11.39493445 1204 16 C1203.34 16 1202.68 16 1202 16 C1202 16.66 1202 17.32 1202 18 C1203.98 18.66 1205.96 19.32 1208 20 C1205.71738866 25.60277328 1201.29033444 29.28700798 1196 32 C1190.21330738 33.760119 1183.82409075 33.50299116 1178 32 C1178 31.34 1178 30.68 1178 30 C1182.62 29.34 1187.24 28.68 1192 28 C1190.02 27.34 1188.04 26.68 1186 26 C1189.50538557 24.03698408 1193.13351728 23.04097612 1197 22 C1194.36 22 1191.72 22 1189 22 C1191.56411552 19.43588448 1194.1267962 16.87896726 1196.75 14.375 C1199.19004674 12.13466888 1199.19004674 12.13466888 1200 9 C1199.195625 10.03125 1198.39125 11.0625 1197.5625 12.125 C1193.53944925 16.84896412 1188.53321765 20.23339117 1183 23 C1183.55312735 18.97007218 1184.1558062 14.97977076 1185 11 C1184.34 11 1183.68 11 1183 11 C1182.85304688 11.556875 1182.70609375 12.11375 1182.5546875 12.6875 C1179.5739178 22.82896932 1174.2220765 28.87446696 1165 34 C1164.67 34 1164.34 34 1164 34 C1163.95101563 33.41992188 1163.90203125 32.83984375 1163.8515625 32.2421875 C1163.77679687 31.46101563 1163.70203125 30.67984375 1163.625 29.875 C1163.52058594 28.72644531 1163.52058594 28.72644531 1163.4140625 27.5546875 C1162.92941745 24.56451898 1162.01573447 21.84901131 1161 19 C1161.04640625 19.845625 1161.0928125 20.69125 1161.140625 21.5625 C1161.37431478 28.90703582 1161.14835345 33.83673202 1157 40 C1155.515 40.495 1155.515 40.495 1154 41 C1154 38.36 1154 35.72 1154 33 C1153.76925781 33.78503906 1153.53851562 34.57007813 1153.30078125 35.37890625 C1151.30626756 41.80392071 1149.26620047 46.78575499 1145 52 C1148.54518884 50.60240095 1148.54518884 50.60240095 1152 49 C1153.53668865 48.77532169 1155.07968054 48.59203195 1156.625 48.4375 C1157.44226562 48.35371094 1158.25953125 48.26992187 1159.1015625 48.18359375 C1160.04128906 48.09271484 1160.04128906 48.09271484 1161 48 C1161 47.67 1161 47.34 1161 47 C1166.61 46.34 1172.22 45.68 1178 45 C1174.83754459 43.9458482 1172.13051782 43.68724328 1168.8125 43.4375 C1167.72582031 43.35371094 1166.63914062 43.26992187 1165.51953125 43.18359375 C1164.68808594 43.12300781 1163.85664062 43.06242187 1163 43 C1163 42.34 1163 41.68 1163 41 C1165.56893838 39.71553081 1167.76576337 39.67022856 1170.625 39.4375 C1171.62789062 39.35371094 1172.63078125 39.26992187 1173.6640625 39.18359375 C1174.43492188 39.12300781 1175.20578125 39.06242187 1176 39 C1174.68 38.34 1173.36 37.68 1172 37 C1172 36.34 1172 35.68 1172 35 C1179.85368715 34.34451452 1185.67289961 34.24995984 1192.0546875 39.20703125 C1194.98099018 41.90416565 1197.80582738 44.66141577 1200 48 C1200 48.66 1200 49.32 1200 50 C1194.28094617 50.82536345 1188.7732851 51.12753701 1183 51.0625 C1182.22527344 51.05798828 1181.45054688 51.05347656 1180.65234375 51.04882812 C1178.76819476 51.03719758 1176.88408635 51.01926906 1175 51 C1177.64 52.32 1180.28 53.64 1183 55 C1183 55.99 1183 56.98 1183 58 C1182.08822998 57.97905273 1181.17645996 57.95810547 1180.23706055 57.93652344 C1176.8020586 57.86769707 1173.36780612 57.81788904 1169.93237305 57.78027344 C1168.45536622 57.76035513 1166.97843616 57.73320993 1165.50170898 57.69824219 C1153.36909875 57.41848041 1143.93274449 58.99395877 1133.625 65.875 C1119.72146733 74.68385758 1107.63137997 77.69809587 1091.36328125 78.75390625 C1088.98352838 78.86149804 1088.98352838 78.86149804 1087 80 C1097.15262057 81.12424837 1107.27535875 82.19663016 1117.5 82.1875 C1118.18634521 82.18814453 1118.87269043 82.18878906 1119.57983398 82.18945312 C1122.27247715 82.15980811 1124.82156904 82.03591241 1127.46484375 81.50390625 C1130.98981376 80.80325736 1134.48303151 80.77624725 1138.0625 80.75 C1138.76955078 80.729375 1139.47660156 80.70875 1140.20507812 80.6875 C1143.51064962 80.66266942 1145.63834969 80.78040638 1148.49609375 82.515625 C1148.99238281 83.00546875 1149.48867187 83.4953125 1150 84 C1148.515 84.99 1148.515 84.99 1147 86 C1147 87.32 1147 88.64 1147 90 C1147.60996826 89.98952637 1148.21993652 89.97905273 1148.84838867 89.96826172 C1151.62805007 89.92653379 1154.40764539 89.90062078 1157.1875 89.875 C1158.14720703 89.85824219 1159.10691406 89.84148437 1160.09570312 89.82421875 C1161.02705078 89.81777344 1161.95839844 89.81132812 1162.91796875 89.8046875 C1163.77156982 89.79421387 1164.6251709 89.78374023 1165.50463867 89.77294922 C1168.30726815 90.02795806 1170.44729419 90.84458578 1173 92 C1172.401875 92.2475 1171.80375 92.495 1171.1875 92.75 C1168.71352479 94.16370012 1167.56629745 95.65055383 1166 98 C1167.485 97.505 1167.485 97.505 1169 97 C1176.91369766 96.07827149 1183.47208863 97.23166968 1190 102 C1190.33 102.99 1190.66 103.98 1191 105 C1189.39125 105.8971875 1189.39125 105.8971875 1187.75 106.8125 C1185.62762879 108.01917073 1183.70812553 109.21890586 1181.75 110.6875 C1178.39519191 113.20360607 1175.35016057 113.11000189 1171.3125 113.0625 C1170.31863281 113.05347656 1169.32476563 113.04445313 1168.30078125 113.03515625 C1167.54152344 113.02355469 1166.78226563 113.01195312 1166 113 C1166.52090799 117.16726396 1167.13243882 119.18957456 1170.25390625 122.10546875 C1172.0102211 123.46808275 1173.78854114 124.80290678 1175.58984375 126.10546875 C1178.55790332 128.43854637 1180.76596753 130.29000273 1181.29296875 134.140625 C1181.1953125 136.09375 1181.09765625 138.046875 1181 140 C1178.36 139.34 1175.72 138.68 1173 138 C1173.28875 138.55945313 1173.5775 139.11890625 1173.875 139.6953125 C1177.34245304 147.18404789 1177.42315169 153.84257566 1177 162 C1173.81293058 160.56438314 1171.37830895 158.79733671 1168.75 156.5 C1168.04359375 155.8915625 1167.3371875 155.283125 1166.609375 154.65625 C1165 153 1165 153 1165 151 C1163.68 150.67 1162.36 150.34 1161 150 C1160.34 150.99 1159.68 151.98 1159 153 C1158.34 153 1157.68 153 1157 153 C1156.14583333 151.29166667 1155.29166667 149.58333333 1154.4375 147.875 C1153.89222656 146.78832031 1153.34695313 145.70164062 1152.78515625 144.58203125 C1151.56800769 142.14975485 1150.3700349 139.70911184 1149.18359375 137.26171875 C1148.88203369 136.64506348 1148.58047363 136.0284082 1148.26977539 135.39306641 C1147.41298859 133.64021854 1146.56183075 131.88462261 1145.7109375 130.12890625 C1144.05991175 127.10956464 1142.23334268 124.60881732 1140 122 C1138.29915181 127.32932432 1137.47986031 132.43109483 1137 138 C1133.21893711 137.74220026 1131.47578037 137.47578037 1128.75 134.75 C1127.13064983 132.20530687 1125.97594578 129.84650852 1125 127 C1123.515 127.99 1123.515 127.99 1122 129 C1118.37669902 122.23650484 1116.23068192 116.28351137 1115.625 108.625 C1115.12062708 103.32449908 1113.12114584 98.83461164 1111 94 C1110.32812578 92.3354258 1109.66002743 90.66930705 1109 89 C1112.96224576 88.71108625 1114.88016817 89.17190642 1118 91.625 C1118.639375 92.11226563 1119.27875 92.59953125 1119.9375 93.1015625 C1127.15824055 99.74792596 1127.15824055 99.74792596 1127.70703125 105.0859375 C1127.76602264 106.51483999 1127.80086288 107.94492766 1127.8125 109.375 C1127.85020508 110.47908203 1127.85020508 110.47908203 1127.88867188 111.60546875 C1127.94703593 113.40308149 1127.97650538 115.2015935 1128 117 C1128.33 114.69 1128.66 112.38 1129 110 C1132.875 111.875 1132.875 111.875 1134 113 C1134.55246175 106.81242837 1133.71599916 103.71508772 1130.09375 98.6640625 C1129 97 1129 97 1129 95 C1135.97544358 98.20331529 1138.91940336 103.3282655 1141.55908203 110.21044922 C1142.74959078 113.45994678 1143.89027229 116.72197452 1145 120 C1145 117.03 1145 114.06 1145 111 C1152.89304957 118.01604407 1154.69750225 125.71712306 1156 136 C1156.33 134.35 1156.66 132.7 1157 131 C1160.13395713 133.91996446 1162.37688962 136.92293804 1164.625 140.5625 C1165.21539063 141.51253906 1165.80578125 142.46257812 1166.4140625 143.44140625 C1166.93742187 144.28574219 1167.46078125 145.13007813 1168 146 C1168.66 146.99 1169.32 147.98 1170 149 C1168.69139194 143.89642856 1166.25250749 140.18773781 1163.2421875 135.953125 C1162 134 1162 134 1162 132 C1164.31 132.33 1166.62 132.66 1169 133 C1168.32453125 132.79246094 1167.6490625 132.58492187 1166.953125 132.37109375 C1158.75723339 129.54043176 1158.75723339 129.54043176 1156.5 125.625 C1155.18281579 122.44180483 1153.96762535 119.30605329 1153 116 C1154.32 115.67 1155.64 115.34 1157 115 C1155.96746094 114.79375 1154.93492188 114.5875 1153.87109375 114.375 C1149.3752546 113.08820905 1147.03031225 110.48091948 1144.0625 107 C1143.56943359 106.4534375 1143.07636719 105.906875 1142.56835938 105.34375 C1139 101.30521845 1139 101.30521845 1139 99 C1142.05455984 99.52415524 1144.9725328 100.26847211 1147.92578125 101.19140625 C1148.99795898 101.52495117 1148.99795898 101.52495117 1150.09179688 101.86523438 C1151.56273115 102.32708445 1153.0315426 102.79575511 1154.49804688 103.27148438 C1159.51363385 104.81439588 1163.75247654 105.2312468 1169 105 C1168.02417969 104.89042969 1167.04835938 104.78085937 1166.04296875 104.66796875 C1164.77066406 104.50941406 1163.49835938 104.35085938 1162.1875 104.1875 C1160.92292969 104.03667969 1159.65835937 103.88585937 1158.35546875 103.73046875 C1155 103 1155 103 1152 100 C1154.64 98.35 1157.28 96.7 1160 95 C1157.0280615 96.12451727 1154.66559313 97.22293791 1152 99 C1143.85718507 99.61306908 1136.32434158 96.11112315 1129 93 C1131.31881505 90.32098068 1133.31814468 89.33795597 1136.6875 88.3125 C1137.49574219 88.06113281 1138.30398438 87.80976563 1139.13671875 87.55078125 C1139.75160156 87.36902344 1140.36648438 87.18726563 1141 87 C1129.9419037 90.40249117 1119.40695803 88.97603073 1108.17700195 87.15551758 C1094.67744456 85.02127713 1081.14161345 84.85275488 1067.51024723 84.87136555 C1065.78436677 84.8700161 1064.05848661 84.86823064 1062.332607 84.86605331 C1057.61039763 84.86135265 1052.88820769 84.8628154 1048.1659974 84.86533108 C1043.02061641 84.86697102 1037.87523945 84.86281764 1032.72985977 84.85942191 C1023.71832232 84.85427753 1014.70679024 84.85284904 1005.69525146 84.85387802 C992.29420717 84.85540447 978.8931688 84.8512378 965.49212565 84.8460034 C940.16292096 84.8363362 914.83371896 84.83351876 889.50451291 84.83294634 C886.71260246 84.83288159 883.92069201 84.83281365 881.12878156 84.83274293 C880.43591785 84.83272592 879.74305414 84.83270892 879.02919456 84.8326914 C863.6590357 84.83228253 848.28887726 84.83009125 832.91871862 84.82758708 C826.58501499 84.82655869 820.25131136 84.82556864 813.91760772 84.82457083 C813.21773457 84.82446025 812.51786142 84.82434966 811.79677999 84.82423572 C771.70224826 84.81791354 731.6077168 84.81378639 691.51318455 84.81424427 C690.01342501 84.81426005 688.51366548 84.81427578 687.01390595 84.81429148 C680.24298911 84.81436486 673.47207228 84.81445303 666.70115545 84.81454536 C663.68198619 84.81458649 660.66281693 84.81462663 657.64364767 84.81466668 C656.13250073 84.81468707 654.6213538 84.81470809 653.11020686 84.81472974 C605.33884894 84.8154098 557.56749843 84.80809504 509.79614258 84.79418945 C497.7615309 84.79068823 485.72691921 84.78721868 473.69230747 84.78392506 C472.58067269 84.78362075 472.58067269 84.78362075 471.44658064 84.78331029 C448.59197321 84.77709171 425.73736638 84.77332903 402.88275814 84.77206707 C402.16482052 84.77202712 401.4468829 84.77198717 400.70718959 84.77194601 C384.94384762 84.77109258 369.1805057 84.77083159 353.41716371 84.77111638 C347.77620146 84.77121286 342.13523922 84.77126491 336.49427697 84.77129511 C335.09103229 84.77130303 333.6877876 84.77131323 332.28454292 84.77132574 C309.96067511 84.77150178 287.63681367 84.76581533 265.31294768 84.75717192 C242.1901375 84.7482647 219.06733705 84.74671236 195.94452513 84.75348405 C182.62544007 84.75717453 169.30638287 84.75536232 155.98730077 84.74554171 C147.07907128 84.73952956 138.1708619 84.74085088 129.26263332 84.74801221 C124.19459251 84.75188328 119.1266055 84.75269962 114.05856854 84.74455485 C80.79402479 84.00883429 80.79402479 84.00883429 48.02073154 88.57556759 C44.60962355 89.29203326 41.36237877 89.26364923 37.875 89.25 C36.87919922 89.26160156 36.87919922 89.26160156 35.86328125 89.2734375 C31.19088277 89.25515023 27.39138606 88.43718089 23 87 C26.96 88.65 30.92 90.3 35 92 C31.70535018 94.19643321 28.40029256 95.42103723 24.6875 96.6875 C24.03587891 96.92533203 23.38425781 97.16316406 22.71289062 97.40820312 C18.41401522 98.87558702 15.38355492 99.20881776 11 98 C9.31008021 97.0398183 7.63790712 96.04644066 6 95 C5.34 95 4.68 95 4 95 C6.64 96.65 9.28 98.3 12 100 C11.67 100.66 11.34 101.32 11 102 C8.27734375 102.8515625 8.27734375 102.8515625 4.9375 103.625 C3.83277344 103.88539063 2.72804687 104.14578125 1.58984375 104.4140625 C0.73519531 104.60742188 -0.11945313 104.80078125 -1 105 C6.03857935 104.64210613 11.59494689 102.79448476 18.08203125 100.05859375 C21 99 21 99 25 99 C25 101 25 101 22.875 103.1875 C22.41609375 103.620625 21.9571875 104.05375 21.484375 104.5 C19.87172183 106.12962847 18.52875788 107.87619952 17.125 109.6875 C14.09134832 113.32156191 11.60406382 114.17126851 7 115 C8.32 115.33 9.64 115.66 11 116 C7.65231333 127.43792945 7.65231333 127.43792945 2.73828125 130.33203125 C0.51530898 131.31963118 -1.70043207 132.20890932 -4 133 C-2.02 132.67 -0.04 132.34 2 132 C0.27947899 136.65208836 -2.13317329 140.60484829 -4.7578125 144.79296875 C-6.16349364 146.86838549 -6.16349364 146.86838549 -6 149 C-0.06 140.09 -0.06 140.09 6 131 C6.66 131.33 7.32 131.66 8 132 C8.2475 130.845 8.495 129.69 8.75 128.5 C10.4402259 121.7748054 13.42732462 116.22591472 18 111 C18.66 111.33 19.32 111.66 20 112 C20 113.98 20 115.96 20 118 C20.41958984 116.62328125 20.41958984 116.62328125 20.84765625 115.21875 C23.29235282 107.73530585 25.72904903 101.15644547 32 96 C32.99 95.67 33.98 95.34 35 95 C33.99685608 97.7007721 33.00802647 99.98826901 31.375 102.375 C29.62162461 105.72235302 29.78093684 108.27592629 30 112 C30.66 111.34 31.32 110.68 32 110 C32.99 110 33.98 110 35 110 C35.33 111.65 35.66 113.3 36 115 C36.02578125 114.05898438 36.0515625 113.11796875 36.078125 112.1484375 C36.66160521 99.33839479 36.66160521 99.33839479 41 95 C49.01656151 88.55678233 49.01656151 88.55678233 55 89 C54.731875 89.515625 54.46375 90.03125 54.1875 90.5625 C51.27228909 96.54635397 49.5416042 101.62413345 48.625 108.1875 C47.46369652 115.65302235 45.32472956 122.17970498 42 129 C41.34 127.68 40.68 126.36 40 125 C39.34 125 38.68 125 38 125 C37.9175 125.86625 37.835 126.7325 37.75 127.625 C36.86348234 131.61432946 35.66488497 133.90297152 33 137 C29.85546875 137.66796875 29.85546875 137.66796875 27 138 C26.86722656 137.09636719 26.73445313 136.19273437 26.59765625 135.26171875 C26.33275391 133.49248047 26.33275391 133.49248047 26.0625 131.6875 C25.80146484 129.92986328 25.80146484 129.92986328 25.53515625 128.13671875 C25.07906969 124.98358597 25.07906969 124.98358597 24 122 C18.96140485 128.37098962 15.49526074 134.84803038 12.57397461 142.37695312 C10.73177311 146.94790506 8.7050417 149.73121748 5 153 C4.34 152.01 3.68 151.02 3 150 C-0.90285767 151.58667578 -3.33520982 154.13350481 -6.25 157.125 C-7.14203125 158.03507813 -8.0340625 158.94515625 -8.953125 159.8828125 C-9.62859375 160.58148438 -10.3040625 161.28015625 -11 162 C-13.61576463 159.38423537 -13.32801545 158.14600117 -13.375 154.5 C-13.30021754 148.30801237 -11.72893853 143.5066081 -9 138 C-12.96 138.99 -12.96 138.99 -17 140 C-17.83323001 133.33415995 -17.83323001 133.33415995 -15.6875 129.8984375 C-12.26112227 125.93668825 -8.47743017 122.5545632 -4.28515625 119.421875 C-2.55297355 117.82485086 -2.55297355 117.82485086 -3 114 C-4.03447266 113.99613281 -4.03447266 113.99613281 -5.08984375 113.9921875 C-12.6903109 113.67941107 -17.10461449 111.69296034 -23 107 C-24.33194701 105.99815424 -25.6648767 104.99760891 -27 104 C-21.6551231 99.27662041 -17.76012426 96.70060418 -10.375 96.8125 C-9.43398437 96.81894531 -8.49296875 96.82539063 -7.5234375 96.83203125 C-5 97 -5 97 -2 98 C-4.71604715 95.12579877 -4.71604715 95.12579877 -8 93 C-8 92.34 -8 91.68 -8 91 C-4.9317362 90.10250178 -2.20730024 89.88288232 0.984375 89.90234375 C1.91894531 89.90556641 2.85351562 89.90878906 3.81640625 89.91210938 C4.78449219 89.92048828 5.75257813 89.92886719 6.75 89.9375 C7.73355469 89.94201172 8.71710938 89.94652344 9.73046875 89.95117188 C12.15370791 89.96293517 14.57682273 89.97937316 17 90 C17.43386092 86.12202338 17.43386092 86.12202338 15.5 84.25 C15.005 83.8375 14.51 83.425 14 83 C17.72758987 80.60639534 21.02465385 80.76474171 25.375 80.8125 C26.66148437 80.81894531 27.94796875 80.82539063 29.2734375 80.83203125 C33 81 33 81 35.984375 81.5 C39.62528481 82.10367417 43.1953297 82.19132546 46.875 82.1875 C47.60662354 82.18741943 48.33824707 82.18733887 49.09204102 82.18725586 C61.92904349 82.27514691 61.92904349 82.27514691 74 79 C73.34104736 78.94054199 72.68209473 78.88108398 72.00317383 78.81982422 C48.02788109 76.5464314 48.02788109 76.5464314 37 70 C35.20870769 68.96908057 33.41427379 67.94377156 31.61962891 66.91870117 C29.92882637 65.9421839 28.25470927 64.93693496 26.58203125 63.9296875 C25.39523125 63.27324985 24.20055806 62.63092391 23 62 C21.94776245 61.44300415 21.94776245 61.44300415 20.87426758 60.87475586 C13.34797306 57.3596898 6.24372989 57.57054884 -1.9375 57.8125 C-4.52987047 57.8646783 -7.12232134 57.91304501 -9.71484375 57.95703125 C-10.85042725 57.98772705 -11.98601074 58.01842285 -13.15600586 58.05004883 C-16 58 -16 58 -19 57 C-19 56.34 -19 55.68 -19 55 C-16.36 53.68 -13.72 52.36 -11 51 C-12.21816406 51.01160156 -13.43632812 51.02320313 -14.69140625 51.03515625 C-16.31510262 51.04454178 -17.93880067 51.05364116 -19.5625 51.0625 C-20.76229492 51.07506836 -20.76229492 51.07506836 -21.98632812 51.08789062 C-26.77163104 51.10742247 -31.28145051 50.80437018 -36 50 C-34.64570715 45.80535243 -32.90616086 43.65104297 -29.5625 40.8125 C-28.38880859 39.80123047 -28.38880859 39.80123047 -27.19140625 38.76953125 C-22.75955443 35.19087016 -20.47685355 34.77106691 -14.8125 34.875 C-13.54019531 34.89304688 -12.26789063 34.91109375 -10.95703125 34.9296875 C-9.98121094 34.95289063 -9.00539062 34.97609375 -8 35 C-7.67 35.66 -7.34 36.32 -7 37 C-8.65 37.66 -10.3 38.32 -12 39 C-7.71 39.66 -3.42 40.32 1 41 C1 41.66 1 42.32 1 43 C0.16855469 43.06058594 -0.66289062 43.12117188 -1.51953125 43.18359375 C-2.60621094 43.26738281 -3.69289062 43.35117188 -4.8125 43.4375 C-5.89144531 43.51871094 -6.97039062 43.59992188 -8.08203125 43.68359375 C-11.05989905 43.90212461 -11.05989905 43.90212461 -14 45 C-8.39 45.66 -2.78 46.32 3 47 C2.01 48.32 1.02 49.64 0 51 C0.66 50.34 1.32 49.68 2 49 C4.2421875 48.69921875 4.2421875 48.69921875 6.875 48.6875 C7.73867187 48.67074219 8.60234375 48.65398437 9.4921875 48.63671875 C12.45189012 49.06546072 13.69222891 50.17019823 16 52 C16.99 52 17.98 52 19 52 C18.60167969 51.46632813 18.20335937 50.93265625 17.79296875 50.3828125 C13.83040508 44.81015606 11.58075954 39.64196333 10 33 C10 35.64 10 38.28 10 41 C6.45352038 39.81784013 5.60495159 38.39981589 3.8515625 35.1875 C2.32275939 31.26029934 2.16813213 27.17808337 2 23 C0.85185003 25.29629994 0.69230191 27.07698086 0.4375 29.625 C0.35371094 30.44226563 0.26992187 31.25953125 0.18359375 32.1015625 C0.12300781 32.72804687 0.06242187 33.35453125 0 34 C-7.00972087 31.1210075 -11.74254664 27.33235017 -16 21 C-17.36412276 17.71971819 -18.30250322 14.48021829 -19 11 C-19.66 11 -20.32 11 -21 11 C-20.649375 12.2375 -20.29875 13.475 -19.9375 14.75 C-19.04406727 17.903292 -18.99118706 19.86774164 -20 23 C-21.89975896 21.60926736 -23.79471601 20.21267198 -25.6875 18.8125 C-26.74324219 18.03519531 -27.79898438 17.25789063 -28.88671875 16.45703125 C-31.85579553 14.11380754 -34.39205801 11.72406556 -37 9 C-33.51752986 14.38199931 -30.32150501 17.45233 -25 21 C-25 21.33 -25 21.66 -25 22 C-27.97 22 -30.94 22 -34 22 C-30.04 22.99 -26.08 23.98 -22 25 C-24.61941217 26.74627478 -26.03824877 27.38722388 -29 28 C-28.08476562 28.12117188 -27.16953125 28.24234375 -26.2265625 28.3671875 C-25.03804687 28.53476563 -23.84953125 28.70234375 -22.625 28.875 C-21.44164062 29.03742188 -20.25828125 29.19984375 -19.0390625 29.3671875 C-16 30 -16 30 -14 32 C-21.35773827 34.09737826 -28.25048961 33.69312832 -35 30 C-39.49589096 27.32999129 -42.63209965 25.31961249 -44 20 C-42.35 19.01 -40.7 18.02 -39 17 C-39.5775 16.360625 -40.155 15.72125 -40.75 15.0625 C-43.61368295 11.16470932 -47 5.99670662 -47 1 C-33.19299191 0.44690027 -33.19299191 0.44690027 -28 4 C-27.01 4.66 -26.02 5.32 -25 6 C-24.67 5.01 -24.34 4.02 -24 3 C-18.86772914 4.66044057 -14.54137086 7.30518719 -11.8359375 12.03515625 C-11.17793891 13.41896245 -10.54886331 14.81709812 -9.95703125 16.23046875 C-8.99310774 18.34258523 -8.99310774 18.34258523 -6 20 C-5.01 20 -4.02 20 -3 20 C-3.11859375 19.14277344 -3.2371875 18.28554687 -3.359375 17.40234375 C-4.17437776 10.17326931 -4.50079715 5.86467508 0 0 Z " fill="#0C0C0C" transform="translate(216,206)"/>
<path d="M0 0 C0.94359375 0.144375 1.8871875 0.28875 2.859375 0.4375 C14.24645501 2.08382482 24.73683558 3.00351051 36 0 C34.52436775 2.9512645 32.49920648 3.06923915 29.4375 4.125 C28.42558594 4.47820312 27.41367188 4.83140625 26.37109375 5.1953125 C25.58863281 5.46085937 24.80617188 5.72640625 24 6 C34.54401671 11.02390431 34.54401671 11.02390431 46 12 C49.32808239 10.11586085 49.32808239 10.11586085 52 8 C53.32 8.33 54.64 8.66 56 9 C53.03 10.65 50.06 12.3 47 14 C49.27257484 16.27257484 50.05331841 16.37445778 53.1328125 16.8515625 C54.34130859 17.04492188 54.34130859 17.04492188 55.57421875 17.2421875 C56.83685547 17.43167969 56.83685547 17.43167969 58.125 17.625 C58.97449219 17.7590625 59.82398438 17.893125 60.69921875 18.03125 C62.79834644 18.36144986 64.89903911 18.68167259 67 19 C67 19.33 67 19.66 67 20 C54.99082326 21.0412581 43.99628456 17.60509764 33 13 C33.68835937 13.77923828 33.68835937 13.77923828 34.390625 14.57421875 C35.00421875 15.27160156 35.6178125 15.96898437 36.25 16.6875 C36.89582031 17.41710937 37.54164062 18.14671875 38.20703125 18.8984375 C40 21 40 21 41.9375 23.8125 C44.90331406 26.95806037 47.90146037 27.70212912 52 29 C52 29.33 52 29.66 52 30 C50.35 30 48.7 30 47 30 C49.85898721 37.88344114 49.85898721 37.88344114 55.58984375 43.6171875 C58.27027134 44.65231864 58.27027134 44.65231864 60.92578125 45.3515625 C61.61027344 45.56554687 62.29476563 45.77953125 63 46 C63.33 46.66 63.66 47.32 64 48 C61.23723823 47.47731534 58.6739124 46.89130413 56 46 C56.66128906 47.04800781 57.32257813 48.09601563 58.00390625 49.17578125 C58.85730881 50.55435461 59.71014411 51.93327925 60.5625 53.3125 C61.21895508 54.34793945 61.21895508 54.34793945 61.88867188 55.40429688 C62.50258789 56.40493164 62.50258789 56.40493164 63.12890625 57.42578125 C63.51119385 58.03848877 63.89348145 58.65119629 64.28735352 59.2824707 C65 61 65 61 64 64 C62.56052003 61.93885782 61.12337429 59.87615188 59.6875 57.8125 C59.28337891 57.23435547 58.87925781 56.65621094 58.46289062 56.06054688 C56.17922307 52.77429357 54.01442146 49.46167572 52 46 C51.67 47.98 51.34 49.96 51 52 C48.43751728 49.43751728 48.60116624 47.99684801 48.1875 44.4375 C47.08534018 37.10152425 44.04554817 32.06832225 40 26 C40 28.97 40 31.94 40 35 C36.67327235 31.67327235 36.10874842 29.73800102 34.75 25.3125 C32.50712696 18.72704299 29.5226139 12.26130695 23 9 C23.433125 9.61746094 23.86625 10.23492187 24.3125 10.87109375 C28.31685617 16.9610521 29.70408843 20.72441951 29 28 C27.02 26.68 25.04 25.36 23 24 C23 26.64 23 29.28 23 32 C22.34 31.67 21.68 31.34 21 31 C20.90936949 29.21057445 20.83115278 27.41939484 20.82519531 25.62768555 C20.80925037 17.27691016 20.80925037 17.27691016 16.75 10.1875 C12.53261828 6.27996673 8.76398767 3.82342681 3 3 C2.67 3.66 2.34 4.32 2 5 C2 3.68 2 2.36 2 1 C1.34 0.67 0.68 0.34 0 0 Z " fill="#E3E3E3" transform="translate(1322,292)"/>
<path d="M0 0 C3.12290635 0.48578543 5.99580359 0.9986012 9 2 C11.57408836 2.09735151 14.11419134 2.14115293 16.6875 2.125 C17.40631348 2.1237915 18.12512695 2.12258301 18.86572266 2.12133789 C22.5746474 2.09401074 26.20229927 1.9602319 29.875 1.4375 C33 1 33 1 35 2 C34.67 2.66 34.34 3.32 34 4 C33.27039063 3.94457031 32.54078125 3.88914062 31.7890625 3.83203125 C28.51863152 4.02898998 27.06144564 4.85499327 24.375 6.6875 C23.61960937 7.18636719 22.86421875 7.68523437 22.0859375 8.19921875 C18.54633229 11.25494534 17.15498659 13.79028162 16.55859375 18.4453125 C16.51863281 19.65960938 16.47867188 20.87390625 16.4375 22.125 C16.20858896 28.68711656 16.20858896 28.68711656 14 32 C14 29.36 14 26.72 14 24 C11.53199953 25.15173355 9.95216435 26.04783565 8 28 C7.21821751 19.92158097 9.39105906 15.57048426 14 9 C6.27272621 14.27295358 3.84064777 20.30189249 1 29 C0.34656287 30.67189777 -0.31529237 32.34066348 -1 34 C-1.33 34 -1.66 34 -2 34 C-2 31.36 -2 28.72 -2 26 C-9.92186582 32.45485363 -11.88986394 42.35672857 -13 52 C-13.33 52 -13.66 52 -14 52 C-14.33 50.02 -14.66 48.04 -15 46 C-18.96 51.94 -22.92 57.88 -27 64 C-28 61 -28 61 -26.63671875 58.1875 C-25.99347656 57.135625 -25.35023438 56.08375 -24.6875 55 C-24.05199219 53.948125 -23.41648438 52.89625 -22.76171875 51.8125 C-21.53660613 49.85666611 -20.28016671 47.92025007 -19 46 C-21.64 46.66 -24.28 47.32 -27 48 C-24.98314935 45.22683036 -23.16578933 44.73433229 -19.9375 44.125 C-17.82849724 43.69400217 -17.82849724 43.69400217 -16 43 C-14.60264182 40.84575944 -14.60264182 40.84575944 -14 38 C-13.31686513 36.55035552 -12.60677905 35.11320747 -11.875 33.6875 C-11.52179688 32.99011719 -11.16859375 32.29273438 -10.8046875 31.57421875 C-10.53914063 31.05472656 -10.27359375 30.53523438 -10 30 C-11.65 30 -13.3 30 -15 30 C-14.67 29.34 -14.34 28.68 -14 28 C-12.824375 27.67 -11.64875 27.34 -10.4375 27 C-5.21299125 25.22084297 -2.79375284 21.43990684 0.3359375 17.08203125 C0.88507813 16.39496094 1.43421875 15.70789063 2 15 C2.66 15 3.32 15 4 15 C4 14.34 4 13.68 4 13 C2.24623047 13.63228516 2.24623047 13.63228516 0.45703125 14.27734375 C-1.09108079 14.83091109 -2.63926151 15.38428641 -4.1875 15.9375 C-4.95642578 16.21529297 -5.72535156 16.49308594 -6.51757812 16.77929688 C-12.61237017 18.95040305 -17.79020957 20.13417352 -24.3125 20.0625 C-25.38113281 20.05347656 -26.44976562 20.04445313 -27.55078125 20.03515625 C-28.35902344 20.02355469 -29.16726562 20.01195312 -30 20 C-30 19.67 -30 19.34 -30 19 C-28.80761719 18.80664062 -27.61523438 18.61328125 -26.38671875 18.4140625 C-24.82024888 18.15142084 -23.25384605 17.88837912 -21.6875 17.625 C-20.90181641 17.49867188 -20.11613281 17.37234375 -19.30664062 17.2421875 C-18.1706543 17.04882812 -18.1706543 17.04882812 -17.01171875 16.8515625 C-16.31522217 16.73635254 -15.61872559 16.62114258 -14.90112305 16.50244141 C-12.69171241 16.02824879 -12.69171241 16.02824879 -10 14 C-14.455 11.525 -14.455 11.525 -19 9 C-17.68 8.67 -16.36 8.34 -15 8 C-13.9275 8.66 -12.855 9.32 -11.75 10 C-8.51243985 11.96029486 -6.22876179 12.40687472 -2.3984375 11.6953125 C2.87586119 10.16628128 7.91617266 8.06530486 13 6 C8.71 4.35 4.42 2.7 0 1 C0 0.67 0 0.34 0 0 Z " fill="#EFEFEF" transform="translate(237,292)"/>
<path d="M0 0 C0.94359375 0.144375 1.8871875 0.28875 2.859375 0.4375 C14.24645501 2.08382482 24.73683558 3.00351051 36 0 C34.52436775 2.9512645 32.49920648 3.06923915 29.4375 4.125 C28.42558594 4.47820312 27.41367188 4.83140625 26.37109375 5.1953125 C25.58863281 5.46085937 24.80617188 5.72640625 24 6 C24.99 7.485 24.99 7.485 26 9 C25.01 9 24.02 9 23 9 C23.433125 9.61746094 23.86625 10.23492187 24.3125 10.87109375 C28.31685617 16.9610521 29.70408843 20.72441951 29 28 C27.02 26.68 25.04 25.36 23 24 C23 26.64 23 29.28 23 32 C22.34 31.67 21.68 31.34 21 31 C20.90936949 29.21057445 20.83115278 27.41939484 20.82519531 25.62768555 C20.80925037 17.27691016 20.80925037 17.27691016 16.75 10.1875 C12.53261828 6.27996673 8.76398767 3.82342681 3 3 C2.67 3.66 2.34 4.32 2 5 C2 3.68 2 2.36 2 1 C1.34 0.67 0.68 0.34 0 0 Z " fill="#EEEEEE" transform="translate(1322,292)"/>
<path d="M0 0 C3.12290635 0.48578543 5.99580359 0.9986012 9 2 C11.57408836 2.09735151 14.11419134 2.14115293 16.6875 2.125 C17.40631348 2.1237915 18.12512695 2.12258301 18.86572266 2.12133789 C22.5746474 2.09401074 26.20229927 1.9602319 29.875 1.4375 C33 1 33 1 35 2 C34.67 2.66 34.34 3.32 34 4 C33.27039063 3.94457031 32.54078125 3.88914062 31.7890625 3.83203125 C28.51863152 4.02898998 27.06144564 4.85499327 24.375 6.6875 C23.61960937 7.18636719 22.86421875 7.68523437 22.0859375 8.19921875 C18.54633229 11.25494534 17.15498659 13.79028162 16.55859375 18.4453125 C16.51863281 19.65960938 16.47867188 20.87390625 16.4375 22.125 C16.20858896 28.68711656 16.20858896 28.68711656 14 32 C14 29.36 14 26.72 14 24 C11.53199953 25.15173355 9.95216435 26.04783565 8 28 C7.01499111 19.41635106 9.99182962 14.83513049 15 8 C14.34 7.67 13.68 7.34 13 7 C12.01 6.34 11.02 5.68 10 5 C8.28428611 4.25967621 6.55364105 3.55336664 4.8125 2.875 C3.91144531 2.52179688 3.01039063 2.16859375 2.08203125 1.8046875 C1.39496094 1.53914063 0.70789063 1.27359375 0 1 C0 0.67 0 0.34 0 0 Z " fill="#EEEEEE" transform="translate(237,292)"/>
<path d="M0 0 C0.66 0 1.32 0 2 0 C1.98839844 1.00160156 1.97679687 2.00320312 1.96484375 3.03515625 C1.95545602 4.37760228 1.94635688 5.72005036 1.9375 7.0625 C1.92589844 8.37347656 1.91429687 9.68445313 1.90234375 11.03515625 C1.99547665 14.8163519 2.38551274 18.27920707 3 22 C3.763125 21.236875 4.52625 20.47375 5.3125 19.6875 C7.20833333 17.79166667 9.10416667 15.89583333 11 14 C11.51326523 19.38928493 10.06999794 21.66588526 7 26 C6.4740625 27.6396875 6.4740625 27.6396875 5.9375 29.3125 C5.628125 30.199375 5.31875 31.08625 5 32 C2 33 2 33 -1.13671875 31.56640625 C-2.3260128 30.90864027 -3.50946371 30.24022185 -4.6875 29.5625 C-5.29400391 29.22412109 -5.90050781 28.88574219 -6.52539062 28.53710938 C-8.0220025 27.70042085 -9.51169189 26.85137169 -11 26 C-11 25.01 -11 24.02 -11 23 C-10.50371094 23.32613281 -10.00742188 23.65226562 -9.49609375 23.98828125 C-8.81675781 24.42527344 -8.13742187 24.86226562 -7.4375 25.3125 C-6.77621094 25.74175781 -6.11492187 26.17101562 -5.43359375 26.61328125 C-2.37818992 28.35432196 0.75015624 29.65673125 4 31 C3.51789063 29.90300781 3.03578125 28.80601562 2.5390625 27.67578125 C1.9009994 26.22137271 1.26298092 24.76694459 0.625 23.3125 C0.30789063 22.59126953 -0.00921875 21.87003906 -0.3359375 21.12695312 C-1.95202801 17.44024665 -3.53536298 13.75035844 -5 10 C-4.01 10.99 -3.02 11.98 -2 13 C-1.93941406 12.22914063 -1.87882812 11.45828125 -1.81640625 10.6640625 C-1.73261719 9.66117188 -1.64882813 8.65828125 -1.5625 7.625 C-1.48128906 6.62726563 -1.40007812 5.62953125 -1.31640625 4.6015625 C-1 2 -1 2 0 0 Z " fill="#DEDEDE" transform="translate(265,223)"/>
<path d="M0 0 C-1.28080392 2.56160784 -2.4565581 2.76461393 -5 4 C-6.051875 4.804375 -6.051875 4.804375 -7.125 5.625 C-9 7 -9 7 -11 7 C-11 6.34 -11 5.68 -11 5 C-12.16917969 5.42152344 -13.33835938 5.84304688 -14.54296875 6.27734375 C-16.09108079 6.83091109 -17.63926151 7.38428641 -19.1875 7.9375 C-19.95642578 8.21529297 -20.72535156 8.49308594 -21.51757812 8.77929688 C-27.61237017 10.95040305 -32.79020957 12.13417352 -39.3125 12.0625 C-40.38113281 12.05347656 -41.44976562 12.04445313 -42.55078125 12.03515625 C-43.35902344 12.02355469 -44.16726562 12.01195312 -45 12 C-45 11.67 -45 11.34 -45 11 C-43.80761719 10.80664062 -42.61523438 10.61328125 -41.38671875 10.4140625 C-39.82024888 10.15142084 -38.25384605 9.88837912 -36.6875 9.625 C-35.90181641 9.49867188 -35.11613281 9.37234375 -34.30664062 9.2421875 C-33.1706543 9.04882812 -33.1706543 9.04882812 -32.01171875 8.8515625 C-31.31522217 8.73635254 -30.61872559 8.62114258 -29.90112305 8.50244141 C-27.69171241 8.02824879 -27.69171241 8.02824879 -25 6 C-29.455 3.525 -29.455 3.525 -34 1 C-32.68 0.67 -31.36 0.34 -30 0 C-28.9275 0.66 -27.855 1.32 -26.75 2 C-23.45588747 4.00996697 -21.14419986 4.34776326 -17.25 3.6328125 C-13.57164824 2.59827607 -10.04340106 1.20369472 -6.515625 -0.2578125 C-3.82977272 -1.05022233 -2.58859501 -0.95560283 0 0 Z M-13 7 C-12.34 7.33 -11.68 7.66 -11 8 C-11.99 8.66 -12.98 9.32 -14 10 C-13.67 9.01 -13.34 8.02 -13 7 Z " fill="#D6D6D6" transform="translate(252,300)"/>
<path d="M0 0 C0.66 0 1.32 0 2 0 C3.26107581 2.52215162 3.32753316 4.62908685 3.5625 7.4375 C3.64628906 8.40558594 3.73007813 9.37367188 3.81640625 10.37109375 C4.15494185 15.2186354 3.17390374 18.527475 1.3125 22.9375 C1.06822266 23.55818359 0.82394531 24.17886719 0.57226562 24.81835938 C-1.21514374 29.06741606 -3.20215847 31.41850294 -7 34 C-6.649375 33.443125 -6.29875 32.88625 -5.9375 32.3125 C-4.7380029 29.35374047 -5.04145262 28.02311098 -6 25 C-6.515625 24.195625 -7.03125 23.39125 -7.5625 22.5625 C-9.28221405 19.49692277 -9.24142721 17.46045668 -9 14 C-6.66666667 16.33333333 -4.33333333 18.66666667 -2 21 C-0.13867327 16.29538677 0.2509496 12.1242304 0.125 7.125 C0.11146484 6.09246094 0.11146484 6.09246094 0.09765625 5.0390625 C0.07432513 3.35922162 0.03846326 1.67956254 0 0 Z " fill="#EDEDED" transform="translate(1329,223)"/>
<path d="M0 0 C1 2 1 2 0.07421875 4.86328125 C-0.61220703 6.57064453 -0.61220703 6.57064453 -1.3125 8.3125 C-1.98732422 10.00826172 -1.98732422 10.00826172 -2.67578125 11.73828125 C-3.11277344 12.81464844 -3.54976562 13.89101563 -4 15 C-4.66705129 16.66651276 -5.33387257 18.33311774 -6 20 C-6.33 20 -6.66 20 -7 20 C-7 17.36 -7 14.72 -7 12 C-7.99 12.33 -8.98 12.66 -10 13 C-10.33 12.34 -10.66 11.68 -11 11 C-7.6381774 6.74828319 -4.25171681 3.3618226 0 0 Z " fill="#F1F1F1" transform="translate(242,306)"/>
<path d="M0 0 C5.06998019 0.65419099 9.41990777 2.8546409 14 5 C13.01 5.33 12.02 5.66 11 6 C11 6.99 11 7.98 11 9 C3.5345605 11.77476512 -3.06714481 12.36801906 -11 12 C-11 11.67 -11 11.34 -11 11 C-9.80761719 10.80664062 -8.61523438 10.61328125 -7.38671875 10.4140625 C-5.82024888 10.15142084 -4.25384605 9.88837912 -2.6875 9.625 C-1.90181641 9.49867188 -1.11613281 9.37234375 -0.30664062 9.2421875 C0.8293457 9.04882812 0.8293457 9.04882812 1.98828125 8.8515625 C2.68477783 8.73635254 3.38127441 8.62114258 4.09887695 8.50244141 C6.30828759 8.02824879 6.30828759 8.02824879 9 6 C4.545 3.525 4.545 3.525 0 1 C0 0.67 0 0.34 0 0 Z " fill="#CDCDCD" transform="translate(218,300)"/>
<path d="M0 0 C-0.64449607 3.01217112 -1.65022182 5.51655836 -3.0625 8.25 C-3.42472656 8.95640625 -3.78695312 9.6628125 -4.16015625 10.390625 C-4.57587891 11.18726563 -4.57587891 11.18726563 -5 12 C-5.99 12 -6.98 12 -8 12 C-6.125 6.25 -6.125 6.25 -5 4 C-6.65 4 -8.3 4 -10 4 C-9.67 3.34 -9.34 2.68 -9 2 C-2.88888889 0 -2.88888889 0 0 0 Z " fill="#E2E2E2" transform="translate(232,318)"/>
<path d="M0 0 C0.66 0 1.32 0 2 0 C3.26107581 2.52215162 3.32753316 4.62908685 3.5625 7.4375 C3.64628906 8.40558594 3.73007813 9.37367188 3.81640625 10.37109375 C3.94719186 12.24383234 4 14.12270016 4 16 C3.34 16.66 2.68 17.32 2 18 C1.34 18 0.68 18 0 18 C0 12.06 0 6.12 0 0 Z " fill="#F3F3F3" transform="translate(1329,223)"/>
<path d="M0 0 C-1.82425535 4.92548944 -5.8931652 7.83569656 -10.375 10.3125 C-11.179375 10.6528125 -11.179375 10.6528125 -12 11 C-10.60807296 7.86989542 -8.97357774 5.67663308 -6.5625 3.25 C-5.96566406 2.63640625 -5.36882812 2.0228125 -4.75390625 1.390625 C-3 0 -3 0 0 0 Z " fill="#DDDDDD" transform="translate(294,248)"/>
<path d="M0 0 C0.639375 0.680625 1.27875 1.36125 1.9375 2.0625 C5.62709757 5.77342473 9.83346374 8.8501349 14 12 C13.34 12.66 12.68 13.32 12 14 C6.90933889 10.51561546 2.97957284 7.4625502 0 2 C0 1.34 0 0.68 0 0 Z " fill="#DCDCDC" transform="translate(178,213)"/>
<path d="M0 0 C0.33 0 0.66 0 1 0 C1.46174018 4.57617505 0.21158892 6.6809077 -2.5 10.3125 C-3.1496875 11.19550781 -3.799375 12.07851563 -4.46875 12.98828125 C-4.9740625 13.65214844 -5.479375 14.31601562 -6 15 C-7 12 -7 12 -5.6015625 9.08203125 C-4.94929687 8.00308594 -4.29703125 6.92414063 -3.625 5.8125 C-2.65433594 4.18248047 -2.65433594 4.18248047 -1.6640625 2.51953125 C-1.11492187 1.68808594 -0.56578125 0.85664063 0 0 Z " fill="#E6E6E6" transform="translate(216,341)"/>
<path d="M0 0 C0.33 0.66 0.66 1.32 1 2 C-0.65 2.33 -2.3 2.66 -4 3 C-4 3.33 -4 3.66 -4 4 C-7.3 4 -10.6 4 -14 4 C-14 3.34 -14 2.68 -14 2 C-11.29816945 0.64908472 -8.88191794 0.66141942 -5.875 0.4375 C-4.77929688 0.35371094 -3.68359375 0.26992187 -2.5546875 0.18359375 C-1.29011719 0.09271484 -1.29011719 0.09271484 0 0 Z " fill="#454545" transform="translate(1393,245)"/>
<path d="M0 0 C7.425 0.99 7.425 0.99 15 2 C13.68 2.33 12.36 2.66 11 3 C11 3.66 11 4.32 11 5 C8.36 4.34 5.72 3.68 3 3 C2.67 3.66 2.34 4.32 2 5 C2 3.68 2 2.36 2 1 C1.34 0.67 0.68 0.34 0 0 Z " fill="#CBCBCB" transform="translate(1322,292)"/>
<path d="M0 0 C-1.43429001 0.67354499 -2.87257057 1.33859701 -4.3125 2 C-5.51326172 2.556875 -5.51326172 2.556875 -6.73828125 3.125 C-9 4 -9 4 -12 4 C-12 3.34 -12 2.68 -12 2 C-10.75579353 1.4654744 -9.50429064 0.94791389 -8.25 0.4375 C-7.55390625 0.14746094 -6.8578125 -0.14257812 -6.140625 -0.44140625 C-3.69987216 -1.07831803 -2.3596345 -0.80248831 0 0 Z " fill="#EBEBEB" transform="translate(241,304)"/>
<path d="M0 0 C-0.33 0.99 -0.66 1.98 -1 3 C-8.42857143 3.28571429 -8.42857143 3.28571429 -12 1 C-7.93631321 0.22596442 -4.13574827 -0.0984702 0 0 Z " fill="#BDBDBD" transform="translate(1311,284)"/>
<path d="M0 0 C2.05883923 4.11767846 2.96165128 7.54993405 4 12 C2.68 12.33 1.36 12.66 0 13 C0 8.71 0 4.42 0 0 Z " fill="#D2D2D2" transform="translate(225,235)"/>
<path d="M0 0 C0.33 0 0.66 0 1 0 C1 4.29 1 8.58 1 13 C0.34 13 -0.32 13 -1 13 C-2.0070238 7.96488101 -1.97387813 4.76052962 0 0 Z " fill="#C4C4C4" transform="translate(1370,235)"/>
<path d="M0 0 C0.66 0 1.32 0 2 0 C1.75 3.375 1.75 3.375 1 7 C-0.98 7.99 -0.98 7.99 -3 9 C-2.01 6.03 -1.02 3.06 0 0 Z " fill="#DFDFDF" transform="translate(1399,217)"/>
<path d="M0 0 C4.16138263 -0.08159574 7.9472484 0.01751476 12 1 C9 3 9 3 6.73828125 2.7578125 C5.93777344 2.54898438 5.13726562 2.34015625 4.3125 2.125 C3.50425781 1.92132813 2.69601563 1.71765625 1.86328125 1.5078125 C1.24839844 1.34023437 0.63351563 1.17265625 0 1 C0 0.67 0 0.34 0 0 Z " fill="#B9B9B9" transform="translate(179,227)"/>
<path d="M0 0 C0 3.99904969 -1.72586967 5.80200422 -4 9 C-4.66 8.34 -5.32 7.68 -6 7 C-4.02 4.69 -2.04 2.38 0 0 Z " fill="#BDBDBD" transform="translate(1417,213)"/>
<path d="M0 0 C-2.95070119 1.96713413 -4.53581611 2.65358161 -8 3 C-8.99 2.34 -9.98 1.68 -11 1 C-7.26562152 0.12132271 -3.83225427 -0.08912219 0 0 Z " fill="#BEBEBE" transform="translate(1416,227)"/>
<path d="M0 0 C0.66 0 1.32 0 2 0 C3.03039555 4.53374042 3.17766075 5.64467851 1 10 C0.67 6.7 0.34 3.4 0 0 Z " fill="#A6A6A6" transform="translate(1329,223)"/>
<path d="M0 0 C2.64752004 2.57784846 4.94432065 4.91648098 7 8 C6.01 8 5.02 8 4 8 C0 2.74285714 0 2.74285714 0 0 Z " fill="#C4C4C4" transform="translate(178,213)"/>
</svg>
