<?xml version="1.0" encoding="UTF-8"?>
<svg version="1.1" xmlns="http://www.w3.org/2000/svg" width="339" height="373">
<path d="M0 0 C1.15822266 0.97066406 1.15822266 0.97066406 2.33984375 1.9609375 C3.12230469 2.60804687 3.90476563 3.25515625 4.7109375 3.921875 C16.69631816 14.79562677 21.04334419 30.27645506 22.33984375 45.9609375 C22.38232093 63.29162693 16.18636058 78.89448488 6.33984375 92.9609375 C5.67984375 92.9609375 5.01984375 92.9609375 4.33984375 92.9609375 C4.10523438 93.51652344 3.870625 94.07210937 3.62890625 94.64453125 C1.4803657 98.50539352 -1.72811728 101.43916161 -4.76171875 104.62109375 C-6.97518405 106.84702469 -6.97518405 106.84702469 -6.66015625 109.9609375 C-4.94259035 111.50391481 -4.94259035 111.50391481 -2.63671875 112.88671875 C-1.77949219 113.43650391 -0.92226562 113.98628906 -0.0390625 114.55273438 C0.86972656 115.12056641 1.77851563 115.68839844 2.71484375 116.2734375 C4.02001953 117.1077832 4.02001953 117.1077832 5.3515625 117.95898438 C28.44876994 132.65565193 55.39052128 147.54709583 83.77734375 141.8359375 C95.54535172 138.84501861 106.41999576 133.23842357 113.21484375 122.8984375 C117.08470298 116.07080708 118.36791852 109.7827847 117.33984375 101.9609375 C115.17656095 95.40609777 112.06986983 90.78095489 106.33984375 86.9609375 C100.46984639 84.17988968 94.71413648 84.10913892 88.33984375 84.9609375 C84.93599942 86.28851397 81.87173932 87.83540255 78.703125 89.6484375 C76.33984375 90.9609375 76.33984375 90.9609375 74.33984375 90.9609375 C74.33984375 91.6209375 74.33984375 92.2809375 74.33984375 92.9609375 C73.19407779 94.00849495 71.99590815 94.99903467 70.77734375 95.9609375 C61.30842709 104.06526511 53.65878712 117.27567448 49.33984375 128.9609375 C42.46540405 128.4922257 33.5437341 126.45032303 28.76171875 121.2421875 C28.07564489 117.5323066 30.08305 114.87709775 31.90234375 111.7734375 C32.28221436 111.10070801 32.66208496 110.42797852 33.0534668 109.73486328 C33.80805688 108.39933693 34.56810484 107.06687738 35.33398438 105.73779297 C36.52040703 103.64197159 37.57710329 101.49043051 38.65234375 99.3359375 C47.97664614 82.77672489 64.14800337 68.45376465 82.33984375 62.9609375 C95.52441167 60.47328317 108.8531035 62.34213016 120.171875 69.8359375 C129.57511722 77.03951567 135.25387835 85.56660372 138.33984375 96.9609375 C138.66984375 97.9509375 138.99984375 98.9409375 139.33984375 99.9609375 C140.42808738 116.1953916 137.69645685 128.93050002 127.33984375 141.9609375 C114.95908896 156.05625737 99.15750499 164.39493841 80.33984375 165.9609375 C69.22693279 166.49286209 58.68804405 165.56516368 47.96875 162.58203125 C45.1412514 161.8076536 45.1412514 161.8076536 41.33984375 161.9609375 C38.8642949 191.62331752 36.52036179 228.63579778 55.51171875 253.84375 C64.08878796 263.75174374 74.92654417 271.93600644 88.31640625 273.25390625 C96.38212678 273.60335784 101.46525751 272.00871511 108.33984375 267.9609375 C109.32984375 267.6309375 110.31984375 267.3009375 111.33984375 266.9609375 C112.44153359 265.26324516 112.44153359 265.26324516 113.33984375 262.9609375 C114.11328125 261.32125 114.11328125 261.32125 114.90234375 259.6484375 C118.00370144 251.69278082 116.97795469 246.75773071 114.33984375 238.9609375 C113.9921879 237.63126675 113.6535994 236.29901309 113.33984375 234.9609375 C112.67984375 234.9609375 112.01984375 234.9609375 111.33984375 234.9609375 C111.33984375 234.3009375 111.33984375 233.6409375 111.33984375 232.9609375 C110.67984375 232.9609375 110.01984375 232.9609375 109.33984375 232.9609375 C109.33984375 232.3009375 109.33984375 231.6409375 109.33984375 230.9609375 C108.75460937 230.67089844 108.169375 230.38085938 107.56640625 230.08203125 C106.21918319 229.40369262 104.87838396 228.71207163 103.55078125 227.99609375 C94.08402376 222.98072648 84.32196971 220.76218407 73.6015625 220.93359375 C72.36986328 220.94583984 71.13816406 220.95808594 69.86914062 220.97070312 C67.28835897 221.00612819 64.70762558 221.04524556 62.12695312 221.08789062 C60.90169922 221.09884766 59.67644531 221.10980469 58.4140625 221.12109375 C56.73703247 221.14635132 56.73703247 221.14635132 55.02612305 221.17211914 C52.33984375 220.9609375 52.33984375 220.9609375 50.33984375 218.9609375 C49.92919922 216.98974609 49.92919922 216.98974609 49.70703125 214.609375 C49.62324219 213.75859375 49.53945312 212.9078125 49.453125 212.03125 C49.37449219 211.14179688 49.29585937 210.25234375 49.21484375 209.3359375 C49.12847656 208.43875 49.04210937 207.5415625 48.953125 206.6171875 C48.74075135 204.3990627 48.5366729 202.18048681 48.33984375 199.9609375 C52.01114129 197.51340581 53.8346872 197.70321951 58.2109375 197.6953125 C58.88850601 197.69339905 59.56607452 197.6914856 60.26417542 197.68951416 C61.70240651 197.68815313 63.14064993 197.69184391 64.57885742 197.70019531 C66.73841489 197.71074729 68.89711163 197.70037645 71.05664062 197.6875 C89.24092687 197.66717826 105.38971008 201.10806722 120.33984375 211.9609375 C120.99597656 212.42113281 121.65210938 212.88132813 122.328125 213.35546875 C131.47342436 220.39187424 137.02596247 232.13565514 139.05859375 243.28125 C140.31850181 255.28537405 136.58606886 266.83912282 130.33984375 276.9609375 C122.04193603 287.14543053 112.0003088 292.49443578 99.40234375 295.7109375 C82.30878051 297.10633042 64.58873162 293.54438984 51.046875 282.34375 C48.00206728 279.68234178 45.1670078 276.85149088 42.33984375 273.9609375 C41.67339844 273.32671875 41.00695312 272.6925 40.3203125 272.0390625 C29.9744032 261.48296543 25.54974266 245.73878849 21.33984375 231.9609375 C2.26176686 231.9609375 -24.37609312 254.8297932 -37.47265625 267.3359375 C-49.87728752 280.19263259 -56.10600293 294.32618943 -55.9375 312.1875 C-55.12503219 323.24163946 -51.11782545 331.77615176 -43.16015625 339.3359375 C-37.06090321 343.30045197 -30.77067977 343.85819488 -23.66015625 342.9609375 C-17.32533345 341.17046391 -13.54771589 338.45460605 -10.09765625 332.8359375 C-4.81440627 322.9878398 -5.50255053 311.75105996 -8.47265625 301.2109375 C-11.73266305 291.1777127 -17.14849876 278.47259499 -24.66015625 270.9609375 C-24.43259602 268.50229759 -23.93887806 267.26879125 -22.27734375 265.43359375 C-21.70242187 264.96824219 -21.1275 264.50289063 -20.53515625 264.0234375 C-19.91253906 263.51683594 -19.28992188 263.01023437 -18.6484375 262.48828125 C-15.70632563 260.22823068 -12.70835142 258.0760117 -9.66015625 255.9609375 C-5.45107213 257.45876473 -3.66201225 260.44602611 -1.41015625 264.0859375 C-1.0231958 264.70267334 -0.63623535 265.31940918 -0.23754883 265.95483398 C11.94606867 285.75290218 20.33999482 307.73055706 15.27734375 331.2734375 C13.43060744 337.67486481 10.28511348 343.59917334 6.33984375 348.9609375 C5.67984375 348.9609375 5.01984375 348.9609375 4.33984375 348.9609375 C4.1078125 349.54746094 3.87578125 350.13398438 3.63671875 350.73828125 C0.3184221 356.42536195 -7.73551228 360.48085398 -13.66015625 362.9609375 C-28.07277127 366.33201364 -43.23965455 365.09474452 -55.99609375 357.5859375 C-57.97265625 356.2734375 -57.97265625 356.2734375 -60.66015625 353.9609375 C-60.66015625 353.3009375 -60.66015625 352.6409375 -60.66015625 351.9609375 C-61.24796875 351.72632813 -61.83578125 351.49171875 -62.44140625 351.25 C-69.42348092 347.19351296 -74.27073761 336.61517842 -76.53125 329.04296875 C-81.76440314 308.88656551 -79.71440972 290.26396136 -69.66015625 271.9609375 C-67.18079846 268.12554106 -64.50068823 264.53282484 -61.66015625 260.9609375 C-61.00015625 259.9709375 -60.34015625 258.9809375 -59.66015625 257.9609375 C-59.00015625 257.9609375 -58.34015625 257.9609375 -57.66015625 257.9609375 C-57.39460937 257.37828125 -57.1290625 256.795625 -56.85546875 256.1953125 C-55.62712629 253.89919522 -54.25700686 252.15737732 -52.53515625 250.2109375 C-51.99632812 249.59734375 -51.4575 248.98375 -50.90234375 248.3515625 C-50.49242187 247.89265625 -50.0825 247.43375 -49.66015625 246.9609375 C-74.70845791 229.31009313 -105.52722786 208.67032057 -137.81640625 213.42578125 C-150.01416486 215.87985411 -162.13998165 221.03701072 -169.4453125 231.5234375 C-174.33419252 239.47509106 -175.43563987 245.61082075 -174.66015625 254.9609375 C-173.00171806 261.15510424 -168.96343181 265.49892393 -163.66015625 268.9609375 C-157.55092581 271.90952475 -150.58461193 272.11799586 -144.08984375 270.203125 C-139.60100352 268.27064124 -135.68257424 265.70795466 -131.66015625 262.9609375 C-131.00015625 262.9609375 -130.34015625 262.9609375 -129.66015625 262.9609375 C-129.66015625 262.3009375 -129.66015625 261.6409375 -129.66015625 260.9609375 C-129.00015625 260.9609375 -128.34015625 260.9609375 -127.66015625 260.9609375 C-127.33015625 259.9709375 -127.00015625 258.9809375 -126.66015625 257.9609375 C-126.00015625 257.9609375 -125.34015625 257.9609375 -124.66015625 257.9609375 C-124.66015625 257.3009375 -124.66015625 256.6409375 -124.66015625 255.9609375 C-124.00015625 255.9609375 -123.34015625 255.9609375 -122.66015625 255.9609375 C-122.4075 255.2390625 -122.15484375 254.5171875 -121.89453125 253.7734375 C-120.56668712 250.74796986 -118.9499593 248.55417548 -116.91015625 245.9609375 C-112.4475245 239.99176035 -109.54011214 233.8226506 -106.66015625 226.9609375 C-101.86274705 227.50404043 -97.79872551 228.46954251 -93.34765625 230.3359375 C-92.32027344 230.75617188 -91.29289062 231.17640625 -90.234375 231.609375 C-87.66015625 232.9609375 -87.66015625 232.9609375 -85.66015625 235.9609375 C-97.18281923 259.81434632 -110.94272364 282.1521371 -136.72265625 292.1484375 C-150.13044199 295.85697398 -162.64806006 294.12861665 -174.8359375 287.65234375 C-185.13762061 281.4827327 -192.57488905 272.0460032 -195.99609375 260.48828125 C-198.81754807 245.50137975 -196.91115649 231.60864521 -188.47265625 218.7109375 C-177.04576811 203.72082617 -162.58144869 194.25839219 -144.1328125 190.4375 C-141.95828706 190.14651468 -139.85328357 190.01086859 -137.66015625 189.9609375 C-136.72816406 189.93386719 -135.79617187 189.90679687 -134.8359375 189.87890625 C-122.15289024 189.70027178 -110.83915403 191.6755115 -98.66015625 194.9609375 C-96.14248048 149.62251074 -96.14248048 149.62251074 -110.05078125 107.09375 C-111.66015625 103.9609375 -111.66015625 103.9609375 -111.66015625 101.9609375 C-112.32015625 101.9609375 -112.98015625 101.9609375 -113.66015625 101.9609375 C-115.31640625 100.24609375 -115.31640625 100.24609375 -117.16015625 98.0234375 C-119.54942624 95.04048571 -119.54942624 95.04048571 -122.66015625 92.9609375 C-122.66015625 92.3009375 -122.66015625 91.6409375 -122.66015625 90.9609375 C-123.65015625 90.5896875 -123.65015625 90.5896875 -124.66015625 90.2109375 C-127.04139221 89.21875585 -129.25373745 88.15047104 -131.53515625 86.9609375 C-139.85063217 82.82634094 -149.26727097 80.99958919 -158.359375 83.7890625 C-160.53307519 84.75195779 -162.58926426 85.79579499 -164.66015625 86.9609375 C-165.99116674 87.63222975 -167.32386004 88.3002298 -168.66015625 88.9609375 C-168.66015625 89.6209375 -168.66015625 90.2809375 -168.66015625 90.9609375 C-169.32015625 90.9609375 -169.98015625 90.9609375 -170.66015625 90.9609375 C-171.34362307 92.62078548 -172.0060394 94.28930555 -172.66015625 95.9609375 C-173.03140625 96.8890625 -173.40265625 97.8171875 -173.78515625 98.7734375 C-175.92533862 106.56981613 -174.54959417 112.07765592 -170.66015625 118.9609375 C-164.64746245 127.89408258 -154.71719998 131.28256032 -144.66015625 133.9609375 C-140.0099157 134.73615164 -135.56318901 135.08030631 -130.8515625 135.05859375 C-128.99047852 135.05375977 -128.99047852 135.05375977 -127.09179688 135.04882812 C-125.81498047 135.04044922 -124.53816406 135.03207031 -123.22265625 135.0234375 C-121.91876953 135.01892578 -120.61488281 135.01441406 -119.27148438 135.00976562 C-116.06766073 134.99803001 -112.86393262 134.98161113 -109.66015625 134.9609375 C-107.54884999 138.86417914 -106.9087705 142.66401137 -106.34765625 147.0234375 C-106.23615234 147.74337891 -106.12464844 148.46332031 -106.00976562 149.20507812 C-105.32672932 154.42231289 -105.32672932 154.42231289 -106.71459961 156.66430664 C-109.67163744 158.63504675 -112.19144388 158.3500901 -115.71484375 158.359375 C-116.76093307 158.36368027 -116.76093307 158.36368027 -117.82815552 158.36807251 C-119.30927336 158.37011452 -120.79041808 158.36457498 -122.27148438 158.35205078 C-124.49283766 158.33623873 -126.71230327 158.35176525 -128.93359375 158.37109375 C-137.89324003 158.38401973 -145.989189 157.4248517 -154.66015625 154.9609375 C-156.21790771 154.54171021 -156.21790771 154.54171021 -157.80712891 154.11401367 C-171.19568815 150.38091321 -183.24898749 142.02403854 -190.40234375 130.04296875 C-196.69124858 118.17228476 -198.61070628 106.84748832 -194.7109375 93.8359375 C-189.97762893 80.88532372 -183.07624472 71.43837201 -170.91015625 64.7109375 C-155.3973932 57.57014181 -139.27169805 59.00578245 -123.59765625 64.6484375 C-108.71949657 71.03857091 -97.53399818 81.99121796 -89.66015625 95.9609375 C-89.28375 96.62609375 -88.90734375 97.29125 -88.51953125 97.9765625 C-85.3091468 104.04062201 -83.05171651 110.54345918 -80.66015625 116.9609375 C-80.10966246 118.42979526 -79.5588771 119.89854379 -79.0078125 121.3671875 C-78.56308594 122.553125 -78.11835937 123.7390625 -77.66015625 124.9609375 C-63.52747509 118.63000793 -48.80694068 111.87703349 -36.52905273 102.29833984 C-34.66015625 100.9609375 -34.66015625 100.9609375 -32.66015625 100.9609375 C-32.66015625 100.3009375 -32.66015625 99.6409375 -32.66015625 98.9609375 C-30.97265625 97.515625 -30.97265625 97.515625 -28.66015625 95.8359375 C-15.16568674 85.52531939 -5.45098749 72.2173859 -1.91015625 55.3984375 C-1.03312528 43.33926168 -1.864459 32.34275467 -8.66015625 21.9609375 C-13.1841048 16.83235621 -18.58017552 13.47450151 -25.453125 12.609375 C-32.66623633 12.26197547 -38.00433377 13.33660724 -43.66015625 17.9609375 C-50.88701391 25.73689464 -51.2642716 33.8842157 -51.0390625 44.0234375 C-50.66859856 50.93876445 -48.57171289 56.67810475 -45.66015625 62.9609375 C-45.1909375 63.99734375 -44.72171875 65.03375 -44.23828125 66.1015625 C-41.27006168 72.3252487 -37.79203584 77.97630608 -33.78515625 83.5859375 C-32.66015625 85.9609375 -32.66015625 85.9609375 -33.05859375 87.9453125 C-35.39530401 90.88614785 -38.28148388 93.00310994 -41.28515625 95.2109375 C-41.89617187 95.66984375 -42.5071875 96.12875 -43.13671875 96.6015625 C-44.63923545 97.72845002 -46.14900034 98.84566187 -47.66015625 99.9609375 C-50.75344588 98.63236981 -52.36193605 97.41509434 -54.2109375 94.609375 C-54.88274048 93.59206299 -54.88274048 93.59206299 -55.56811523 92.55419922 C-56.26336304 91.45615967 -56.26336304 91.45615967 -56.97265625 90.3359375 C-57.45613525 89.57684082 -57.93961426 88.81774414 -58.43774414 88.03564453 C-70.19473538 69.12333157 -77.21927213 47.67628843 -72.96484375 25.3046875 C-72.06460933 22.36946939 -71.00523061 19.71833993 -69.66015625 16.9609375 C-69.24765625 16.0946875 -68.83515625 15.2284375 -68.41015625 14.3359375 C-62.17875297 2.72286775 -52.1229729 -4.02687352 -39.97265625 -8.3515625 C-25.8210812 -11.29029683 -11.49676601 -8.8321995 0 0 Z M-32.328125 126.0859375 C-33.0485498 126.54137939 -33.76897461 126.99682129 -34.51123047 127.46606445 C-35.66776123 128.20602661 -35.66776123 128.20602661 -36.84765625 128.9609375 C-44.52280642 133.76544845 -52.29692315 137.98061733 -60.45996094 141.89306641 C-65.21661399 144.20172159 -69.93464121 146.5893692 -74.66015625 148.9609375 C-74.6852124 150.05857422 -74.71026855 151.15621094 -74.73608398 152.28710938 C-74.83172006 156.4396939 -74.93152986 160.59217023 -75.0324707 164.74462891 C-75.07523967 166.52682936 -75.1169424 168.30905578 -75.1574707 170.09130859 C-75.41559507 181.40416654 -75.85202134 192.67282971 -76.66015625 203.9609375 C-70.87327358 207.36658172 -65.09411955 210.75387009 -59.16015625 213.8984375 C-52.0499073 217.74513334 -45.32347297 222.21600101 -38.85546875 227.0625 C-37.98664063 227.70960938 -37.1178125 228.35671875 -36.22265625 229.0234375 C-35.46082031 229.61253906 -34.69898438 230.20164062 -33.9140625 230.80859375 C-31.72760962 232.15312419 -31.72760962 232.15312419 -29.2734375 231.8984375 C-25.93461212 230.70065261 -23.18750887 228.89058729 -20.28515625 226.8984375 C-8.98698239 219.40188352 2.98777884 213.51264319 15.33984375 207.9609375 C15.99984375 207.6309375 16.65984375 207.3009375 17.33984375 206.9609375 C17.37742798 205.20789307 17.37742798 205.20789307 17.41577148 203.41943359 C17.5110802 199.01717104 17.6109814 194.6150219 17.7121582 190.21289062 C17.75504669 188.32001427 17.79674621 186.42711054 17.8371582 184.53417969 C18.07046062 173.6467334 18.40534052 162.81493449 19.33984375 151.9609375 C13.37115208 148.44693348 7.3936385 144.95188006 1.33984375 141.5859375 C0.47359375 141.10382813 -0.39265625 140.62171875 -1.28515625 140.125 C-3.43260244 139.07246881 -5.32439776 138.42592646 -7.66015625 137.9609375 C-7.66015625 137.3009375 -7.66015625 136.6409375 -7.66015625 135.9609375 C-8.58828125 135.4659375 -9.51640625 134.9709375 -10.47265625 134.4609375 C-15.01115181 131.89933264 -19.07478312 128.73298286 -23.20703125 125.5703125 C-26.95083765 123.11418474 -28.81055016 123.82072794 -32.328125 126.0859375 Z " fill="#000000" transform="translate(196.66015625,9.0390625)"/>
</svg>
