<?xml version="1.0" encoding="UTF-8"?>
<svg version="1.1" xmlns="http://www.w3.org/2000/svg" width="377" height="415">
<path d="M0 0 C14.73987702 11.56547579 22.82271815 26.68985895 25.19140625 45.15234375 C27.53341872 68.85408472 19.31156701 90.00425573 4.68603516 108.2265625 C0.93145285 112.77470006 -3.06951655 117.0339294 -7.40625 121.03515625 C19.83867814 143.42404654 54.84479432 160.03397318 90.59375 158.03515625 C102.74464711 156.53691215 115.45633667 150.30328077 123.59375 141.03515625 C129.9256569 132.13932284 132.92380181 124.03579312 131.59375 113.03515625 C129.17508687 105.32566751 124.78157103 99.82533402 117.68359375 96.0078125 C110.74253395 93.01335927 104.34429271 93.25457715 97.21875 95.53515625 C76.03626732 103.97852347 65.44329279 124.8728305 55.59375 144.03515625 C50.18866957 143.42211997 45.66935955 141.59134932 40.71875 139.47265625 C39.935 139.14330078 39.15125 138.81394531 38.34375 138.47460938 C36.42466244 137.66718839 34.5088635 136.85195856 32.59375 136.03515625 C39.93988801 111.98467589 56.39793834 88.17756351 78.48046875 75.5859375 C91.72798113 68.98711389 106.12712073 66.51508963 120.53125 70.72265625 C134.51211306 75.6702613 144.65495759 83.7703479 151.59375 97.03515625 C157.69389812 110.97835196 158.47459789 125.53156912 153.59375 140.03515625 C149.72703332 149.03653736 144.54820377 156.18660786 137.59375 163.03515625 C136.52833984 164.09863281 136.52833984 164.09863281 135.44140625 165.18359375 C117.97395729 181.67185479 97.00306855 184.89074571 73.88476562 184.23632812 C65.02303153 183.69463162 56.01504554 181.84225476 47.59375 179.03515625 C44.29749803 213.1160472 43.67332381 256.02658566 66.59375 284.03515625 C67.21507812 284.80472656 67.83640625 285.57429688 68.4765625 286.3671875 C76.84427703 295.70530239 89.57589341 301.77884524 101.9921875 303.3359375 C110.5306944 303.38656106 118.13824692 301.27088749 124.8359375 295.84765625 C129.69488475 290.83754175 132.30308445 284.74114198 132.84375 277.84765625 C132.31674813 269.81087777 129.7323315 264.03220876 124.15234375 258.17578125 C109.55520092 245.96320985 90.66647609 244.84731976 72.53125 244.97265625 C71.28408203 244.97716797 70.03691406 244.98167969 68.75195312 244.98632812 C65.69916779 244.99802462 62.64648502 245.01441539 59.59375 245.03515625 C57.21137011 236.87114711 56.44052015 229.49684906 56.59375 221.03515625 C78.63461486 214.82650679 107.27673009 219.07498305 127.53125 229.28515625 C133.63179247 232.79296817 138.66602023 237.03575041 143.59375 242.03515625 C144.17898438 242.61007813 144.76421875 243.185 145.3671875 243.77734375 C154.88030775 253.8699434 157.22115586 267.37264608 156.90625 280.70703125 C156.25421789 293.04130536 150.53808143 303.80762065 142.59375 313.03515625 C128.43885391 325.65570483 113.56408287 328.886686 95.125 328.20996094 C79.53722043 327.13349005 65.03030423 319.3156689 53.59375 309.03515625 C52.67722656 308.25785156 52.67722656 308.25785156 51.7421875 307.46484375 C39.03570812 295.91877344 30.40244304 276.42909585 26.59375 260.03515625 C26.59375 258.71515625 26.59375 257.39515625 26.59375 256.03515625 C6.86251668 265.05376773 -12.07598803 274.55759823 -28.40625 289.03515625 C-29.25316406 289.75058594 -30.10007813 290.46601563 -30.97265625 291.203125 C-44.24546542 302.6521894 -56.81455131 318.21220844 -58.62939453 336.25341797 C-59.4788069 349.18632035 -58.57457161 362.12053573 -49.91015625 372.45703125 C-43.97942615 378.68044673 -37.66243101 381.51984439 -29.21875 382.34765625 C-22.40171184 381.78888263 -15.1075397 379.13941364 -10.40625 374.03515625 C-3.64897936 362.52276923 -2.76066857 351.72748349 -5.90625 338.66015625 C-9.59545087 326.11948051 -16.11325183 314.81696706 -23.40625 304.03515625 C-25.40625 301.03515625 -25.40625 301.03515625 -25.4296875 299.16796875 C-23.82762361 295.82931653 -20.95600807 294.03438786 -18.03125 291.91015625 C-17.44085938 291.46800781 -16.85046875 291.02585937 -16.2421875 290.5703125 C-8.82668839 285.04209132 -8.82668839 285.04209132 -6.51171875 285.00390625 C-3.20267653 286.62466162 -1.64121836 289.51505597 0.28125 292.53515625 C0.71332764 293.20224609 1.14540527 293.86933594 1.59057617 294.55664062 C15.29273591 316.08039784 25.97277088 340.348625 20.46411133 366.3527832 C18.70099874 373.67547899 16.11895832 379.9687538 11.59375 386.03515625 C11.08070313 386.74027344 10.56765625 387.44539063 10.0390625 388.171875 C2.51395721 397.62326322 -9.48384367 404.17282417 -21.40625 406.03515625 C-38.29543685 407.18626284 -52.30253408 403.58585752 -65.59375 392.78515625 C-78.54131036 380.88175398 -84.58921686 363.42291061 -85.56640625 346.21484375 C-86.27457651 321.15177462 -75.95983908 300.93084532 -59.12402344 282.90332031 C-56.91902659 280.57896007 -54.67564824 278.29635283 -52.40625 276.03515625 C-58.33863844 271.22945143 -64.39735636 266.98004495 -70.96875 263.09765625 C-71.83790039 262.58187012 -72.70705078 262.06608398 -73.60253906 261.53466797 C-98.43669948 246.95335115 -127.51246089 233.66005151 -156.96875 240.22265625 C-170.69098885 244.34505346 -182.38893833 252.31627885 -189.40625 265.03515625 C-192.45563496 272.65861866 -192.89195592 281.36550471 -189.71875 289.03515625 C-186.3774672 295.42565168 -181.68943318 298.83644481 -175.40625 302.03515625 C-166.95117351 304.57841631 -159.19991457 302.87583822 -151.40625 299.03515625 C-146.20609647 295.63815193 -141.62565904 291.58767653 -137.40625 287.03515625 C-136.90996094 286.54402344 -136.41367188 286.05289062 -135.90234375 285.546875 C-131.57136271 281.01492036 -128.38908972 275.96976681 -125.21875 270.59765625 C-124.80278564 269.89415039 -124.38682129 269.19064453 -123.95825195 268.46582031 C-121.07474986 263.46859636 -118.65418029 258.34667884 -116.40625 253.03515625 C-110.73965572 253.57801896 -106.20058143 255.13550917 -101.03125 257.47265625 C-100.30808594 257.78525391 -99.58492188 258.09785156 -98.83984375 258.41992188 C-93.53750377 260.77264872 -93.53750377 260.77264872 -92.40625 263.03515625 C-93.44463856 265.69488836 -94.54753085 268.21668061 -95.78125 270.78515625 C-96.14412109 271.54578369 -96.50699219 272.30641113 -96.88085938 273.09008789 C-107.15481736 294.12755357 -122.60445371 315.18480993 -144.79296875 324.44921875 C-160.02686996 329.65835102 -174.61849142 329.51919929 -189.40625 322.97265625 C-201.94499752 316.32392548 -210.07996303 305.78697182 -214.64453125 292.61328125 C-218.74646643 278.72980834 -217.04391257 263.8271122 -210.8984375 250.8515625 C-200.85282689 232.51248267 -183.96998756 220.51073319 -164.09375 214.59765625 C-145.90325399 210.14912753 -125.05299055 212.1529094 -107.40625 218.03515625 C-105.23216095 184.06501487 -102.70455049 140.74158338 -126.515625 113.015625 C-127.13953125 112.36207031 -127.7634375 111.70851563 -128.40625 111.03515625 C-129.13328125 110.26816406 -129.8603125 109.50117187 -130.609375 108.7109375 C-139.71209718 99.82844247 -151.45739242 94.30022434 -164.21875 93.66015625 C-172.80862594 93.88446945 -180.54537915 97.02948365 -186.74609375 102.98828125 C-191.10074859 108.35731451 -193.13175807 114.84124756 -192.80078125 121.73046875 C-191.78307358 127.67549373 -189.71068744 132.81705423 -185.40625 137.03515625 C-185.40625 137.69515625 -185.40625 138.35515625 -185.40625 139.03515625 C-184.61734375 139.42380859 -184.61734375 139.42380859 -183.8125 139.8203125 C-181.9876766 140.74161133 -180.17761552 141.69222237 -178.375 142.65625 C-163.24704078 150.5779854 -149.2766106 152.21468293 -132.34375 152.09765625 C-131.09658203 152.09314453 -129.84941406 152.08863281 -128.56445312 152.08398438 C-125.51166779 152.07228788 -122.45898502 152.05589711 -119.40625 152.03515625 C-117.34808538 160.14231688 -116.2352124 167.65431397 -116.40625 176.03515625 C-135.14939393 181.12366266 -159.34684616 178.5519318 -177.40625 172.03515625 C-178.30214844 171.73738281 -179.19804687 171.43960938 -180.12109375 171.1328125 C-186.64382091 168.791063 -191.92863578 165.23373365 -197.40625 161.03515625 C-198.03402344 160.58527344 -198.66179687 160.13539063 -199.30859375 159.671875 C-208.13170252 152.88948527 -214.49789844 141.92816919 -216.40625 131.03515625 C-218.05387377 114.54179149 -216.01181474 100.76470303 -205.48828125 87.4296875 C-196.81259751 77.45183735 -184.43032422 70.04906086 -171.04638672 68.81811523 C-149.67368031 67.79667186 -131.06261589 72.95210286 -114.60546875 86.98828125 C-99.9712163 100.6087933 -91.23825158 118.79242056 -86.40625 138.03515625 C-86.40625 139.02515625 -86.40625 140.01515625 -86.40625 141.03515625 C-66.64783806 132.10852381 -47.96443268 122.15179798 -31.40625 108.03515625 C-30.42140625 107.21402344 -29.4365625 106.39289063 -28.421875 105.546875 C-16.22935734 94.98788526 -2.64684988 77.97204158 -1.40625 61.03515625 C-0.54195332 48.04282557 -1.70728135 35.87098692 -9.640625 24.97265625 C-15.37622902 18.6787191 -22.353097 15.50304079 -30.78125 14.72265625 C-38.68017756 15.40359828 -45.15574423 17.93911449 -50.40625 24.03515625 C-56.31830767 33.36147215 -56.8576635 44.39550099 -55.05615234 55.11914062 C-51.86761257 69.22747914 -44.37174897 82.76260203 -35.62109375 94.15234375 C-34.40625 96.03515625 -34.40625 96.03515625 -34.40625 99.03515625 C-36.88162797 101.59772953 -39.81782561 103.63903049 -42.65625 105.78515625 C-43.43355469 106.40003906 -44.21085938 107.01492187 -45.01171875 107.6484375 C-45.76582031 108.22464844 -46.51992187 108.80085938 -47.296875 109.39453125 C-47.98813477 109.92530273 -48.67939453 110.45607422 -49.39160156 111.00292969 C-51.40625 112.03515625 -51.40625 112.03515625 -53.53100586 111.85766602 C-58.47495228 109.68917812 -61.53231006 102.5408249 -64.40625 98.03515625 C-65.04304687 97.04386719 -65.67984375 96.05257812 -66.3359375 95.03125 C-78.37428375 75.36861779 -85.24544873 51.51315395 -80.28125 28.53515625 C-76.20457689 14.98399285 -67.63695715 3.69335295 -55.40625 -3.4921875 C-37.53664958 -12.26411375 -16.50725264 -11.43369999 0 0 Z M-33.90625 141.16796875 C-34.61571777 141.63799316 -35.32518555 142.10801758 -36.05615234 142.59228516 C-36.83168457 143.10968262 -37.6072168 143.62708008 -38.40625 144.16015625 C-46.61253128 149.5003389 -55.08340872 154.18655325 -63.78125 158.66015625 C-64.95171875 159.26359863 -66.1221875 159.86704102 -67.328125 160.48876953 C-71.96696844 162.85617463 -76.54074148 165.16636622 -81.40625 167.03515625 C-81.40101318 168.13690186 -81.39577637 169.23864746 -81.39038086 170.3737793 C-81.21527313 210.68092192 -81.21527313 210.68092192 -82.40625 228.03515625 C-81.26671875 228.6178125 -80.1271875 229.20046875 -78.953125 229.80078125 C-62.3703067 238.35685693 -45.98338053 247.30234387 -31.40625 259.03515625 C-30.80941406 258.64585937 -30.21257812 258.2565625 -29.59765625 257.85546875 C4.9292031 235.59000522 4.9292031 235.59000522 21.59375 230.03515625 C21.58851318 228.82682129 21.58327637 227.61848633 21.57788086 226.37353516 C21.55949187 221.79981252 21.54819695 217.22609299 21.53881836 212.65234375 C21.53385429 210.68977302 21.52708083 208.72720585 21.51831055 206.76464844 C21.4634281 194.14814139 21.72616752 181.6234162 22.59375 169.03515625 C21.99651123 168.73448242 21.39927246 168.43380859 20.78393555 168.12402344 C10.01134038 162.6733519 -0.6426548 157.13160814 -10.84375 150.66015625 C-11.59245361 150.18545898 -12.34115723 149.71076172 -13.11254883 149.22167969 C-17.4775175 146.40391938 -21.61216855 143.40300541 -25.66430664 140.14990234 C-28.95571894 138.04358299 -30.98209152 139.18006758 -33.90625 141.16796875 Z " fill="#076AA5" transform="translate(216.40625,8.96484375)"/>
</svg>
