<?xml version="1.0" encoding="UTF-8"?>
<svg version="1.1" xmlns="http://www.w3.org/2000/svg" width="300" height="204">
<path d="M0 0 C1.875 1.6875 1.875 1.6875 3 4 C2.67272727 10.32727273 2.67272727 10.32727273 0 13 C-3.3125 13.4375 -3.3125 13.4375 -7 13 C-10.15954305 10.45862841 -11.71540886 8.85377341 -13 5 C-16.89585243 8.50626718 -18.74787278 11.49639741 -19.2784729 16.76521301 C-19.29179657 17.76670883 -19.30512024 18.76820465 -19.31884766 19.80004883 C-19.33871735 20.94085403 -19.35858704 22.08165924 -19.37905884 23.2570343 C-19.39638565 25.08853279 -19.39638565 25.08853279 -19.4140625 26.95703125 C-19.43342865 28.21513107 -19.4527948 29.4732309 -19.4727478 30.76945496 C-19.52233077 34.10174319 -19.56363098 37.43392331 -19.60089111 40.76635742 C-19.64101624 44.17181239 -19.6920696 47.5771019 -19.7421875 50.98242188 C-19.83817501 57.65485034 -19.92223075 64.32733533 -20 71 C-15.38 71 -10.76 71 -6 71 C-6 73.31 -6 75.62 -6 78 C-10.62 78 -15.24 78 -20 78 C-19.67 92.19 -19.34 106.38 -19 121 C-15.7 122.32 -12.4 123.64 -9 125 C-9.33 126.65 -9.66 128.3 -10 130 C-20.23 130 -30.46 130 -41 130 C-41 128.02 -41 126.04 -41 124 C-37.535 123.01 -37.535 123.01 -34 122 C-33.67 107.48 -33.34 92.96 -33 78 C-36.63 78 -40.26 78 -44 78 C-44 75.69 -44 73.38 -44 71 C-40.37 71 -36.74 71 -33 71 C-33.00523682 70.18547363 -33.01047363 69.37094727 -33.01586914 68.53173828 C-33.31184206 15.41396491 -33.31184206 15.41396491 -25 5 C-18.53595967 -1.46404033 -8.40519321 -4.66955178 0 0 Z " fill="#15192E" transform="translate(244,36)"/>
<path d="M0 0 C1.50046875 0.00386719 1.50046875 0.00386719 3.03125 0.0078125 C4.0315625 0.00523438 5.031875 0.00265625 6.0625 0 C8.53125 0.1328125 8.53125 0.1328125 9.53125 1.1328125 C9.6308975 2.81930643 9.66033911 4.50998334 9.66255188 6.19941711 C9.66656006 7.29726532 9.67056824 8.39511353 9.67469788 9.52622986 C9.6739048 11.3488308 9.6739048 11.3488308 9.6730957 13.20825195 C9.67842905 15.15994837 9.68376837 17.11164477 9.68933237 19.06334054 C9.69453927 21.16787663 9.69744617 23.27240644 9.69991493 25.3769474 C9.70581356 29.75941046 9.72234332 34.1417918 9.74125671 38.5242157 C9.74759452 40.02323241 9.75392014 41.52224917 9.76023388 43.02126598 C9.76339969 43.77211007 9.7665655 44.52295417 9.76982725 45.29655111 C9.81193769 55.50326883 9.84487802 65.70994926 9.85717773 75.91674805 C9.86555276 82.79586997 9.88802416 89.67479053 9.9265334 96.55381173 C9.94631663 100.19588636 9.95869137 103.83765983 9.95369911 107.47979164 C9.94819756 111.54320502 9.97343144 115.60586738 10.0012207 119.66918945 C9.99461929 120.87818405 9.98801788 122.08717865 9.98121643 123.33280945 C9.99368408 124.43911713 10.00615173 125.5454248 10.01899719 126.68525696 C10.02138555 127.64631001 10.0237739 128.60736307 10.02623463 129.59753895 C10.68303485 132.89480142 11.90387757 134.09406966 14.53125 136.1328125 C17.80525478 136.61545039 17.80525478 136.61545039 21.28125 136.3828125 C22.45171875 136.34671875 23.6221875 136.310625 24.828125 136.2734375 C25.72015625 136.22703125 26.6121875 136.180625 27.53125 136.1328125 C26.87125 138.4428125 26.21125 140.7528125 25.53125 143.1328125 C18.08500429 145.39739238 11.22083937 147.20688523 3.53125 145.1328125 C-0.59414578 142.72633163 -2.00713518 140.59233699 -3.46875 136.1328125 C-3.71763897 133.41202164 -3.71763897 133.41202164 -3.71598816 130.41314697 C-3.72018265 129.27180801 -3.72437714 128.13046906 -3.72869873 126.95454407 C-3.72307922 125.71174179 -3.71745972 124.46893951 -3.71166992 123.18847656 C-3.71356827 121.8726207 -3.71546661 120.55676483 -3.71742249 119.20103455 C-3.72226051 115.6000922 -3.71462958 111.99927421 -3.70446944 108.3983469 C-3.69567789 104.631187 -3.69744656 100.86403086 -3.6978302 97.09686279 C-3.69689445 90.77532879 -3.68822011 84.45384286 -3.67456055 78.13232422 C-3.6588088 70.81533993 -3.65356342 63.49840819 -3.6542961 56.18140817 C-3.65490544 49.14678736 -3.64981032 42.11218371 -3.64150429 35.07756805 C-3.63796663 32.08076595 -3.63614036 29.08396992 -3.63561058 26.08716583 C-3.63442378 21.91127518 -3.62472933 17.73544737 -3.61401367 13.55957031 C-3.61446686 12.30867111 -3.61492004 11.05777191 -3.61538696 9.76896667 C-3.61112198 8.63890701 -3.60685699 7.50884735 -3.60246277 6.34454346 C-3.60078692 5.35642292 -3.59911108 4.36830238 -3.59738445 3.3502388 C-3.41467269 0.20061711 -3.16387596 0.17020852 0 0 Z " fill="#15192E" transform="translate(135.46875,19.8671875)"/>
<path d="M0 0 C1.04124023 -0.0299707 1.04124023 -0.0299707 2.10351562 -0.06054688 C5.70583785 -0.05712587 7.80889038 0.35904643 10.90234375 2.24609375 C12.9375 4.4375 12.9375 4.4375 13.4375 7.9375 C12.67116834 13.30182161 12.67116834 13.30182161 9.9375 15.4375 C3.47235742 16.49735944 3.47235742 16.49735944 0.08203125 14.15625 C-1.47163786 12.65055642 -2.84088309 11.223652 -4.0625 9.4375 C-4.0625 8.7775 -4.0625 8.1175 -4.0625 7.4375 C-5.7125 7.7675 -7.3625 8.0975 -9.0625 8.4375 C-9.206875 9.16839844 -9.35125 9.89929688 -9.5 10.65234375 C-9.83983313 12.33498975 -10.19072793 14.01552748 -10.5625 15.69140625 C-11.98219284 22.24639428 -12.62585293 28.74990534 -13.0625 35.4375 C-11.91910156 35.42589844 -10.77570312 35.41429687 -9.59765625 35.40234375 C-8.10677246 35.39296712 -6.61588691 35.38386679 -5.125 35.375 C-4.37025391 35.36662109 -3.61550781 35.35824219 -2.83789062 35.34960938 C-0.91255687 35.34097559 1.01285581 35.38525667 2.9375 35.4375 C3.9375 36.4375 3.9375 36.4375 3.9375 43.4375 C-1.6725 43.4375 -7.2825 43.4375 -13.0625 43.4375 C-12.96904801 49.93393284 -12.86297225 56.42998934 -12.74511719 62.92602539 C-12.70679983 65.13657968 -12.67195186 67.34719692 -12.640625 69.55786133 C-12.59503448 72.73281371 -12.53702997 75.90733172 -12.4765625 79.08203125 C-12.46501129 80.07274124 -12.45346008 81.06345123 -12.44155884 82.08418274 C-12.42168915 83.00491074 -12.40181946 83.92563873 -12.38134766 84.87426758 C-12.36802399 85.6847908 -12.35470032 86.49531403 -12.3409729 87.33039856 C-12.18026223 89.73850191 -12.18026223 89.73850191 -10.0625 92.4375 C-7.7383266 93.11982614 -5.45101242 93.44502449 -3.05859375 93.8125 C-2.07052734 94.121875 -2.07052734 94.121875 -1.0625 94.4375 C-0.0625 97.4375 -0.0625 97.4375 -0.0625 100.4375 C-11.6125 100.4375 -23.1625 100.4375 -35.0625 100.4375 C-35.5575 97.9625 -35.5575 97.9625 -36.0625 95.4375 C-35.49660156 95.24414062 -34.93070313 95.05078125 -34.34765625 94.8515625 C-33.24744141 94.46097656 -33.24744141 94.46097656 -32.125 94.0625 C-31.39410156 93.80726562 -30.66320312 93.55203125 -29.91015625 93.2890625 C-27.87567884 92.58478587 -27.87567884 92.58478587 -27.0625 90.4375 C-26.94444823 88.9267243 -26.88553551 87.41111169 -26.85717773 85.89599609 C-26.83723251 84.95517181 -26.81728729 84.01434753 -26.79673767 83.04501343 C-26.78002518 82.02726837 -26.76331268 81.00952332 -26.74609375 79.9609375 C-26.7149221 78.40036118 -26.7149221 78.40036118 -26.68312073 76.80825806 C-26.61760128 73.47640751 -26.55872908 70.1444765 -26.5 66.8125 C-26.45681706 64.55728326 -26.41320285 62.30207473 -26.36914062 60.046875 C-26.26191742 54.51049967 -26.16065671 48.9740432 -26.0625 43.4375 C-30.3525 43.4375 -34.6425 43.4375 -39.0625 43.4375 C-39.10491723 41.10455225 -39.10342937 38.77047433 -39.0625 36.4375 C-38.0625 35.4375 -38.0625 35.4375 -35.33984375 35.33984375 C-34.23769531 35.35144531 -33.13554688 35.36304688 -32 35.375 C-30.34291016 35.38853516 -30.34291016 35.38853516 -28.65234375 35.40234375 C-27.79769531 35.41394531 -26.94304688 35.42554688 -26.0625 35.4375 C-26.10890625 34.69886719 -26.1553125 33.96023437 -26.203125 33.19921875 C-26.61074789 21.74210397 -23.9866571 13.82361632 -16.2578125 5.3125 C-11.18966138 0.98383 -6.53818248 -0.0671522 0 0 Z " fill="#15192E" transform="translate(43.0625,-0.4375)"/>
<path d="M0 0 C5.38602049 3.74029201 8.80753283 8.45289659 10 15 C10.51919742 23.57674193 10.37100513 30.99386283 7 39 C6.34 39 5.68 39 5 39 C4.83854492 39.53729736 4.67708984 40.07459473 4.51074219 40.62817383 C2.3416796 47.51442826 -0.7097142 53.76506606 -4.03515625 60.15820312 C-6.35601294 64.83393558 -7.65967075 67.75848879 -6 73 C-4.35 73.33 -2.7 73.66 -1 74 C10.37789004 60.40672919 18.87320138 41.46789329 17.6875 23.625 C17.47914596 21.74757332 17.2579964 19.87125098 17 18 C17.66 18 18.32 18 19 18 C20.4375 20.01171875 20.4375 20.01171875 22 22.6875 C22.515625 23.55761719 23.03125 24.42773438 23.5625 25.32421875 C28.75367061 34.98713143 29.74230731 46.65634645 26.8125 57.25 C25.11140613 62.16959543 22.80567954 66.62347593 20 71 C19.63132813 71.57878906 19.26265625 72.15757813 18.8828125 72.75390625 C15.54977695 77.33970344 11.29410229 79.41355184 6 81 C-0.66680963 81.846579 -6.15863931 80.3407113 -12 77 C-16.3431713 73.22876895 -19.48388691 68.89504095 -20.25 63.11328125 C-20.88942033 51.98337121 -15.15569913 41.82538272 -9.9375 32.375 C-5.0541779 23.52435045 -0.96880549 15.1133656 -0.3125 4.875 C-0.24675781 3.94429687 -0.18101562 3.01359375 -0.11328125 2.0546875 C-0.07589844 1.37664063 -0.03851563 0.69859375 0 0 Z " fill="#F49954" transform="translate(177,15)"/>
<path d="M0 0 C1.53200637 1.53200637 1.14700891 2.93772584 1.17358398 5.07324219 C1.18707382 5.93794128 1.20056366 6.80264038 1.21446228 7.69354248 C1.22490067 8.63514221 1.23533905 9.57674194 1.24609375 10.546875 C1.27904269 12.52604591 1.31225415 14.50521247 1.34570312 16.484375 C1.39306797 19.61585371 1.43746628 22.74731608 1.47680664 25.87890625 C1.51658416 28.89342288 1.5681288 31.90756526 1.62109375 34.921875 C1.6295079 35.85537781 1.63792206 36.78888062 1.64659119 37.75067139 C1.7952226 45.59694535 1.7952226 45.59694535 6 52 C10.51548015 52.77666259 14.63229834 52.64409698 18.5 50.0625 C20.29981391 48.58606908 20.29981391 48.58606908 22 47 C22.08858646 44.26105915 22.11523479 41.5474673 22.09765625 38.80859375 C22.09553383 37.57883568 22.09553383 37.57883568 22.09336853 36.32423401 C22.08775289 33.69528618 22.07519779 31.06642227 22.0625 28.4375 C22.05748701 26.65950643 22.05292376 24.88151154 22.04882812 23.10351562 C22.03777839 18.73564455 22.02050331 14.36783652 22 10 C18.7 8.68 15.4 7.36 12 6 C13 2 13 2 14 1 C17.48614907 0.61928025 20.99733753 0.53026796 24.5 0.375 C25.48871094 0.3234375 26.47742188 0.271875 27.49609375 0.21875 C28.43582031 0.17492188 29.37554687 0.13109375 30.34375 0.0859375 C31.21193359 0.0451709 32.08011719 0.0044043 32.97460938 -0.03759766 C35 0 35 0 36 1 C36.11212597 2.52358716 36.15673172 4.05221948 36.17358398 5.57983398 C36.18707382 6.55431992 36.20056366 7.52880585 36.21446228 8.53282166 C36.22490067 9.59320145 36.23533905 10.65358124 36.24609375 11.74609375 C36.27902659 13.9668009 36.31223833 16.18750393 36.34570312 18.40820312 C36.39319739 21.92843836 36.43762417 25.44865619 36.47680664 28.96899414 C36.51638669 32.35320653 36.56796233 35.73707089 36.62109375 39.12109375 C36.6295079 40.17944931 36.63792206 41.23780487 36.64659119 42.32823181 C36.67155418 43.79468895 36.67155418 43.79468895 36.69702148 45.29077148 C36.70732895 46.15379379 36.71763641 47.0168161 36.72825623 47.9059906 C36.81181571 50.21863386 36.81181571 50.21863386 39 52 C40.98356483 52.71408334 42.98315437 53.38617742 45 54 C45 55.65 45 57.3 45 59 C37.97360585 59.74805717 31.06608191 60.13794954 24 60 C23.505 57.03 23.505 57.03 23 54 C22.113125 54.78375 21.22625 55.5675 20.3125 56.375 C14.80591183 61.24128722 9.20503092 61.43262196 2.10546875 61.3203125 C-3.10832834 60.7825372 -5.32136526 58.85228661 -8.8125 55 C-11.43706713 50.57967642 -11.17668558 45.89033461 -11.24609375 40.875 C-11.27901948 39.2656193 -11.31223133 37.65624443 -11.34570312 36.046875 C-11.39316377 33.51891917 -11.4376396 30.99098912 -11.47680664 28.46289062 C-11.51654556 26.01668648 -11.56806785 23.57094717 -11.62109375 21.125 C-11.6295079 20.3707373 -11.63792206 19.61647461 -11.64659119 18.83935547 C-11.73447183 13.58831687 -11.73447183 13.58831687 -14 9 C-17.04199472 7.70768358 -17.04199472 7.70768358 -20 7 C-20.042721 5.33388095 -20.04063832 3.66617115 -20 2 C-18.17046708 0.17046708 -15.28255365 0.61333433 -12.8125 0.4375 C-11.12060547 0.31181641 -11.12060547 0.31181641 -9.39453125 0.18359375 C-6.24811738 0.01341947 -3.14947261 -0.10731536 0 0 Z " fill="#15192E" transform="translate(75,37)"/>
<path d="M0 0 C5.40722876 4.94703908 7.56656583 11.18494044 8.21484375 18.38671875 C8.25 20.5625 8.25 20.5625 8 24 C7 25 7 25 3.48999023 25.11352539 C1.92951578 25.11336626 0.36903607 25.10767142 -1.19140625 25.09765625 C-2.01124496 25.0962413 -2.83108368 25.09482635 -3.67576599 25.09336853 C-6.30471382 25.08775289 -8.93357773 25.07519779 -11.5625 25.0625 C-13.34049357 25.05748701 -15.11848846 25.05292376 -16.89648438 25.04882812 C-21.26435545 25.03777839 -25.63216348 25.02050331 -30 25 C-29.72278646 26.90631519 -29.43408006 28.81096112 -29.140625 30.71484375 C-28.98110352 31.77566162 -28.82158203 32.83647949 -28.65722656 33.92944336 C-27.43266545 39.65058196 -24.96134015 43.5735708 -20.25 47 C-14.80890957 48.67418167 -10.16787579 48.70872862 -4.75 46.9375 C-1.15284218 44.40313881 0.62893069 41.69607862 3 38 C4.98 38.66 6.96 39.32 9 40 C8.22103735 46.22088229 4.69553993 49.16183682 0 53 C-6.97436521 57.79654619 -14.78206757 58.05525723 -23 57 C-30.40834684 54.81574556 -35.76057697 50.40046597 -40 44 C-44.91283934 34.17432132 -45.16676836 24.08617767 -42.03125 13.70703125 C-38.87867616 5.43152492 -33.89274521 0.01812483 -26 -4 C-16.8655991 -7.00766859 -7.7825226 -5.39340261 0 0 Z M-27.3125 6.625 C-29.60549882 10.72484948 -29.60549882 10.72484948 -30 19 C-22.08 19 -14.16 19 -6 19 C-5.80890756 9.94535186 -5.80890756 9.94535186 -10 3 C-16.06110963 -1.49695231 -22.74894601 1.44474953 -27.3125 6.625 Z " fill="#15192E" transform="translate(285,110)"/>
<path d="M0 0 C4.66440928 3.9017452 7.31859216 8.48818392 8.6484375 14.37890625 C8.87681733 18.06213845 8.83129702 21.6946256 8.6484375 25.37890625 C4.43710197 26.40251934 0.48653886 26.49379908 -3.83984375 26.4765625 C-4.54304245 26.47514755 -5.24624115 26.4737326 -5.9707489 26.47227478 C-8.20189794 26.46670734 -10.43294414 26.454161 -12.6640625 26.44140625 C-14.18294125 26.43638704 -15.70182159 26.43182487 -17.22070312 26.42773438 C-20.93102262 26.41674861 -24.64128251 26.39950659 -28.3515625 26.37890625 C-28.2313766 27.95381477 -28.10032497 29.52789597 -27.96484375 31.1015625 C-27.89305908 31.97820557 -27.82127441 32.85484863 -27.74731445 33.75805664 C-26.99539451 38.73761284 -24.95499136 42.8726549 -21.2890625 46.31640625 C-16.24323239 49.08347438 -10.954993 48.94888271 -5.3515625 48.37890625 C-0.36032682 46.01941302 1.92154158 42.9936532 4.6484375 38.37890625 C6.2984375 39.03890625 7.9484375 39.69890625 9.6484375 40.37890625 C9.0366148 45.57939923 6.9789138 49.28951371 3.0625 52.80078125 C-3.59667849 57.57740717 -11.48117988 58.79670868 -19.5390625 58.10546875 C-27.13124015 56.61414814 -32.44928203 53.37173641 -37.3515625 47.37890625 C-42.8763532 38.15557511 -43.72695231 27.23494636 -41.890625 16.74609375 C-39.64799606 9.1739231 -34.89910205 2.65176556 -28.25390625 -1.65234375 C-19.28615627 -6.21908296 -8.2099862 -5.88103093 0 0 Z M-25.6640625 6.44140625 C-28.0874806 10.29904885 -28.0874806 10.29904885 -29.3515625 19.37890625 C-21.1015625 19.37890625 -12.8515625 19.37890625 -4.3515625 19.37890625 C-5.02552158 9.37714851 -5.02552158 9.37714851 -10.3515625 2.37890625 C-16.5028083 0.51922729 -20.94205606 2.229887 -25.6640625 6.44140625 Z " fill="#15192E" transform="translate(285.3515625,40.62109375)"/>
<path d="M0 0 C1.62607636 1.62607636 1.16590931 3.45683065 1.20532227 5.70336914 C1.22526749 6.70433121 1.24521271 7.70529327 1.26576233 8.73658752 C1.28247482 9.8251152 1.29918732 10.91364288 1.31640625 12.03515625 C1.33718735 13.14354355 1.35796844 14.25193085 1.37937927 15.39390564 C1.44499623 18.95003808 1.50381596 22.50624703 1.5625 26.0625 C1.60567368 28.46680493 1.64928758 30.87110199 1.69335938 33.27539062 C1.80068992 39.18351185 1.90243331 45.09170991 2 51 C4.31 51.99 6.62 52.98 9 54 C9 55.98 9 57.96 9 60 C-0.57 60 -10.14 60 -20 60 C-20 58.02 -20 56.04 -20 54 C-17.69 53.34 -15.38 52.68 -13 52 C-12.90119885 46.21595259 -12.8285637 40.43239516 -12.78027344 34.64770508 C-12.76014519 32.6795191 -12.73283981 30.71139301 -12.69824219 28.7434082 C-12.64977689 25.9160282 -12.62704382 23.08943799 -12.609375 20.26171875 C-12.57840729 18.93970711 -12.57840729 18.93970711 -12.54681396 17.59098816 C-12.41495808 12.82798704 -12.41495808 12.82798704 -14.85253906 8.96411133 C-17.23013041 7.89668201 -19.42230086 7.35801377 -22 7 C-22 5.02 -22 3.04 -22 1 C-6.66774194 -0.47526882 -6.66774194 -0.47526882 0 0 Z " fill="#15192E" transform="translate(188,106)"/>
<path d="M0 0 C1.5625 1.8125 1.5625 1.8125 1.9375 4.375 C1.5625 6.8125 1.5625 6.8125 -0.4375 8.8125 C-3.375 9.1875 -3.375 9.1875 -6.4375 8.8125 C-8.1875 6.8125 -8.1875 6.8125 -9.4375 4.8125 C-10.0975 4.8125 -10.7575 4.8125 -11.4375 4.8125 C-13.89605991 10.07572777 -15.99926509 15.17941325 -17.4375 20.8125 C-14.1375 20.8125 -10.8375 20.8125 -7.4375 20.8125 C-7.9325 23.2875 -7.9325 23.2875 -8.4375 25.8125 C-11.7375 25.8125 -15.0375 25.8125 -18.4375 25.8125 C-18.57325439 26.50698242 -18.70900879 27.20146484 -18.84887695 27.91699219 C-19.47939029 31.132797 -20.11467428 34.34764262 -20.75 37.5625 C-20.96333984 38.65433594 -21.17667969 39.74617188 -21.39648438 40.87109375 C-26.61101373 67.17722693 -26.61101373 67.17722693 -37.4375 74.8125 C-42.08720163 77.04048203 -45.43365919 76.96723249 -50.4375 75.8125 C-52.4375 73.8125 -52.4375 73.8125 -52.75 70.8125 C-52.646875 69.8225 -52.54375 68.8325 -52.4375 67.8125 C-49.4375 65.8125 -49.4375 65.8125 -47 65.9375 C-43.95978253 66.97562304 -42.52655886 68.41395094 -40.4375 70.8125 C-37.28662215 65.77801231 -35.54772607 61.36717881 -34.33203125 55.578125 C-34.16249435 54.81828308 -33.99295746 54.05844116 -33.81828308 53.27557373 C-33.28460043 50.87346895 -32.76683473 48.46827998 -32.25 46.0625 C-31.71895409 43.64331759 -31.18468948 41.22486649 -30.64958191 38.80657959 C-30.31923992 37.30811901 -29.99189622 35.80899349 -29.66792297 34.30914307 C-29.03991107 31.41653688 -28.3744788 28.6234364 -27.4375 25.8125 C-29.7475 25.8125 -32.0575 25.8125 -34.4375 25.8125 C-34.1075 24.1625 -33.7775 22.5125 -33.4375 20.8125 C-29.9725 20.3175 -29.9725 20.3175 -26.4375 19.8125 C-26.29054688 19.255625 -26.14359375 18.69875 -25.9921875 18.125 C-23.78600752 10.61891639 -20.56209833 4.21307757 -13.5 0.3125 C-8.85187964 -1.68716937 -4.67094615 -2.27558915 0 0 Z " fill="#15192E" transform="translate(121.4375,106.1875)"/>
<path d="M0 0 C3.79224798 3.01475781 5.7921638 6.02730155 6.6796875 10.859375 C7.45485671 19.07616866 4.76074334 26.43333379 -0.3203125 32.859375 C-5.0549135 37.33805163 -10.26836285 39.97373463 -16.8203125 40.296875 C-21.43673498 40.10026416 -24.88821933 39.01583375 -28.3203125 35.859375 C-31.7177083 31.40657518 -32.98562523 26.78492921 -32.70703125 21.22265625 C-31.43296878 13.43671895 -28.00598812 6.42941357 -21.6796875 1.609375 C-15.43322144 -2.16999942 -6.66078831 -3.27432692 0 0 Z M-17.3203125 5.859375 C-20.94099382 11.67184 -22.49610574 16.93995193 -22.6328125 23.796875 C-22.67019531 25.02277344 -22.70757812 26.24867188 -22.74609375 27.51171875 C-22.59741842 30.91288773 -22.59741842 30.91288773 -20.484375 33.26953125 C-18.36128673 35.07830707 -18.36128673 35.07830707 -15.3828125 35.359375 C-11.39211404 34.7078324 -10.0483313 33.87455367 -7.3203125 30.859375 C-2.96461942 23.59515723 -1.897198 15.16785231 -3.3203125 6.859375 C-5.40948612 4.20555986 -6.41402779 3.02204149 -9.7578125 2.421875 C-13.06401823 2.98634915 -14.70632866 3.71456774 -17.3203125 5.859375 Z " fill="#15192E" transform="translate(75.3203125,127.140625)"/>
<path d="M0 0 C0.66 0 1.32 0 2 0 C3.4375 2.01171875 3.4375 2.01171875 5 4.6875 C5.515625 5.55761719 6.03125 6.42773438 6.5625 7.32421875 C11.75367061 16.98713143 12.74230731 28.65634645 9.8125 39.25 C6.93611571 47.56855739 2.55538256 55.71588699 -4.6875 60.9375 C-10.39894535 62.76947304 -15.78429502 62.10785249 -21.125 59.4375 C-21.74375 58.963125 -22.3625 58.48875 -23 58 C-22.67 57.34 -22.34 56.68 -22 56 C-21.2575 55.95875 -20.515 55.9175 -19.75 55.875 C-14.75854542 54.28680991 -12.9546896 48.79624066 -10.59912109 44.36425781 C-9.13240787 41.48919799 -7.71678996 38.59352045 -6.3125 35.6875 C-5.82716797 34.71876953 -5.34183594 33.75003906 -4.84179688 32.75195312 C-0.58307789 23.9466845 1.68274318 15.64951158 0.625 5.8125 C0.51414063 4.70519531 0.40328125 3.59789062 0.2890625 2.45703125 C0.19367188 1.64621094 0.09828125 0.83539063 0 0 Z " fill="#E36843" transform="translate(194,33)"/>
<path d="M0 0 C0.99 0.33 1.98 0.66 3 1 C3.99 1 4.98 1 6 1 C6.825 1.20625 7.65 1.4125 8.5 1.625 C11.24371063 2.32285229 11.24371063 2.32285229 14 0 C14 0.66 14 1.32 14 2 C14.66 2 15.32 2 16 2 C14.79354495 6.05807608 13.17285014 9.7121204 11.3125 13.5 C9.33523241 17.76765087 8.38436775 20.38390786 10 25 C10.33 25.99 10.66 26.98 11 28 C13.55401848 29.24950052 13.55401848 29.24950052 16.5625 30.1875 C17.57441406 30.53167969 18.58632812 30.87585938 19.62890625 31.23046875 C20.80259766 31.61138672 20.80259766 31.61138672 22 32 C22 32.33 22 32.66 22 33 C15.24511641 33.50036175 9.92497157 32.38852889 4 29 C-0.36471145 25.21006537 -3.67616716 20.78039638 -4.1796875 14.90234375 C-4.32108575 10.19692424 -3.8094696 6.41058214 -2 2 C-1.34 2 -0.68 2 0 2 C0 1.34 0 0.68 0 0 Z " fill="#F2864E" transform="translate(161,63)"/>
<path d="M0 0 C5.32189041 4.01785104 8.78652461 8.25587713 10 15 C10.14418686 17.55654401 10.23040973 20.0684699 10.25 22.625 C10.270625 23.305625 10.29125 23.98625 10.3125 24.6875 C10.328125 26.6640625 10.328125 26.6640625 10 30 C9.01 30.66 8.02 31.32 7 32 C6.34 32.99 5.68 33.98 5 35 C4.236875 34.319375 3.47375 33.63875 2.6875 32.9375 C1.800625 32.298125 0.91375 31.65875 0 31 C-0.99 31.33 -1.98 31.66 -3 32 C-5.6875 31.5625 -5.6875 31.5625 -8 31 C-7.1294974 28.24340842 -6.2437352 25.53641723 -5.046875 22.90234375 C-1.68980657 15.39904528 -0.82279821 8.11971919 0 0 Z " fill="#F9AD5A" transform="translate(177,15)"/>
<path d="M0 0 C2.7265625 -0.3125 2.7265625 -0.3125 6 0 C8.3359375 2.1875 8.3359375 2.1875 10.375 5 C11.06335938 5.928125 11.75171875 6.85625 12.4609375 7.8125 C12.96882812 8.534375 13.47671875 9.25625 14 10 C14 7.69 14 5.38 14 3 C13.34 3 12.68 3 12 3 C12 2.01 12 1.02 12 0 C14.64 0 17.28 0 20 0 C20 0.99 20 1.98 20 3 C19.34 3 18.68 3 18 3 C18 8.28 18 13.56 18 19 C16.68 19 15.36 19 14 19 C12.078125 16.8125 12.078125 16.8125 10.25 14 C9.63640625 13.071875 9.0228125 12.14375 8.390625 11.1875 C7.93171875 10.465625 7.4728125 9.74375 7 9 C7 11.31 7 13.62 7 16 C7.66 16.33 8.32 16.66 9 17 C8.67 17.99 8.34 18.98 8 20 C5.69 20 3.38 20 1 20 C0.67 19.01 0.34 18.02 0 17 C0.66 16.67 1.32 16.34 2 16 C2 12.04 2 8.08 2 4 C1.34 3.67 0.68 3.34 0 3 C0 2.01 0 1.02 0 0 Z " fill="#15192E" transform="translate(128,178)"/>
<path d="M0 0 C4.95 0 9.9 0 15 0 C15 1.98 15 3.96 15 6 C14.01 6 13.02 6 12 6 C12 8.64 12 11.28 12 14 C10 14 10 14 8.375 12.5 C7.92125 12.005 7.4675 11.51 7 11 C7 12.98 7 14.96 7 17 C9.43717258 16.72965366 9.43717258 16.72965366 12 16 C12.66 15.01 13.32 14.02 14 13 C14.66 13 15.32 13 16 13 C16 15.31 16 17.62 16 20 C11.05 20 6.1 20 1 20 C0.67 19.01 0.34 18.02 0 17 C0.66 17 1.32 17 2 17 C2 12.38 2 7.76 2 3 C1.34 3 0.68 3 0 3 C0 2.01 0 1.02 0 0 Z M7 3 C7 4.65 7 6.3 7 8 C8.32 7.34 9.64 6.68 11 6 C11 5.01 11 4.02 11 3 C9.68 3 8.36 3 7 3 Z " fill="#15192E" transform="translate(274,178)"/>
<path d="M0 0 C0.60328125 0.27714844 1.2065625 0.55429688 1.828125 0.83984375 C2.62734375 1.20207031 3.4265625 1.56429687 4.25 1.9375 C5.43335938 2.47697266 5.43335938 2.47697266 6.640625 3.02734375 C8.75823698 3.90033279 10.76669362 4.51338508 13 5 C12.70985788 8.48170548 12.27243676 9.74228955 9.6875 12.1875 C4.46544455 15.70935135 1.65580344 16.24773025 -4.58203125 15.4921875 C-7.51082611 14.89601924 -9.63263466 13.81498009 -12 12 C-11.67 11.34 -11.34 10.68 -11 10 C-10.22269531 9.88785156 -9.44539062 9.77570313 -8.64453125 9.66015625 C-5.15832867 8.78989298 -4.51760418 7.45929992 -2.6875 4.4375 C-2.17574219 3.61121094 -1.66398438 2.78492187 -1.13671875 1.93359375 C-0.76160156 1.29550781 -0.38648438 0.65742187 0 0 Z " fill="#7D291B" transform="translate(183,79)"/>
<path d="M0 0 C2.64 0 5.28 0 8 0 C8 3 8 3 7.5 5.25 C6.90255172 8.53596556 6.93465259 11.66728222 7 15 C8.65 15.33 10.3 15.66 12 16 C13.22691067 13.54617866 13.20175931 11.80015897 13.25 9.0625 C13.27578125 8.18722656 13.3015625 7.31195313 13.328125 6.41015625 C12.94290357 3.5806131 12.19305243 2.74867075 10 1 C11 0 11 0 12.84765625 -0.09765625 C14.8984375 -0.06510417 16.94921875 -0.03255208 19 0 C19 0.99 19 1.98 19 3 C18.34 3 17.68 3 17 3 C17.05800781 3.89203125 17.11601562 4.7840625 17.17578125 5.703125 C17.22089844 6.87359375 17.26601562 8.0440625 17.3125 9.25 C17.37050781 10.41015625 17.42851562 11.5703125 17.48828125 12.765625 C17 16 17 16 14.671875 18.39453125 C11.43191241 20.34135087 9.7208267 20.55416568 6 20 C3.83203125 18.921875 3.83203125 18.921875 2 17 C1.609375 13.64453125 1.609375 13.64453125 1.75 9.8125 C1.78609375 8.54019531 1.8221875 7.26789063 1.859375 5.95703125 C1.90578125 4.98121094 1.9521875 4.00539062 2 3 C1.34 3 0.68 3 0 3 C0 2.01 0 1.02 0 0 Z " fill="#15192E" transform="translate(229,178)"/>
<path d="M0 0 C1.21236328 0.04060547 1.21236328 0.04060547 2.44921875 0.08203125 C3.06410156 0.11683594 3.67898437 0.15164062 4.3125 0.1875 C4.3125 2.8275 4.3125 5.4675 4.3125 8.1875 C3.3225 7.8575 2.3325 7.5275 1.3125 7.1875 C0.9825 6.1975 0.6525 5.2075 0.3125 4.1875 C-0.6775 4.1875 -1.6675 4.1875 -2.6875 4.1875 C-2.6875 4.8475 -2.6875 5.5075 -2.6875 6.1875 C-0.89784453 7.55027086 -0.89784453 7.55027086 1.3125 8.8125 C2.055 9.25851563 2.7975 9.70453125 3.5625 10.1640625 C4.14 10.50179687 4.7175 10.83953125 5.3125 11.1875 C5 14.5625 5 14.5625 4.3125 18.1875 C1.14307116 20.30045256 0.31620047 20.44000929 -3.3125 20.375 C-4.10914063 20.36855469 -4.90578125 20.36210937 -5.7265625 20.35546875 C-7.6875 20.1875 -7.6875 20.1875 -8.6875 19.1875 C-8.72842937 16.85452567 -8.72991723 14.52044775 -8.6875 12.1875 C-7.6975 12.1875 -6.7075 12.1875 -5.6875 12.1875 C-4.1875 14.1875 -4.1875 14.1875 -2.6875 16.1875 C-1.6975 16.1875 -0.7075 16.1875 0.3125 16.1875 C-0.40389199 12.89906462 -0.40389199 12.89906462 -3.6875 11.5625 C-4.6775 11.10875 -5.6675 10.655 -6.6875 10.1875 C-7.6875 9.1875 -7.6875 9.1875 -7.9375 6.3125 C-7.6875 3.1875 -7.6875 3.1875 -6.46484375 1.50390625 C-4.16603506 -0.19872788 -2.82767258 -0.12294229 0 0 Z " fill="#15192E" transform="translate(161.6875,177.8125)"/>
<path d="M0 0 C1.48831242 0.00667405 2.97660807 0.01863442 4.46484375 0.03515625 C5.22345703 0.03966797 5.98207031 0.04417969 6.76367188 0.04882812 C8.64326246 0.06064945 10.52281274 0.07858547 12.40234375 0.09765625 C12.40234375 2.40765625 12.40234375 4.71765625 12.40234375 7.09765625 C9.40234375 6.09765625 9.40234375 6.09765625 6.40234375 3.09765625 C6.40234375 7.71765625 6.40234375 12.33765625 6.40234375 17.09765625 C7.39234375 17.42765625 8.38234375 17.75765625 9.40234375 18.09765625 C7.40234375 20.09765625 7.40234375 20.09765625 5.45703125 20.29296875 C3.43880208 20.22786458 1.42057292 20.16276042 -0.59765625 20.09765625 C-0.59765625 19.10765625 -0.59765625 18.11765625 -0.59765625 17.09765625 C0.06234375 17.09765625 0.72234375 17.09765625 1.40234375 17.09765625 C1.40234375 12.47765625 1.40234375 7.85765625 1.40234375 3.09765625 C0.08234375 4.41765625 -1.23765625 5.73765625 -2.59765625 7.09765625 C-3.25765625 7.09765625 -3.91765625 7.09765625 -4.59765625 7.09765625 C-4.64019981 5.09810879 -4.63846408 3.09723989 -4.59765625 1.09765625 C-3.59765625 0.09765625 -3.59765625 0.09765625 0 0 Z " fill="#15192E" transform="translate(256.59765625,177.90234375)"/>
<path d="M0 0 C1.48831242 0.00667405 2.97660807 0.01863442 4.46484375 0.03515625 C5.22345703 0.03966797 5.98207031 0.04417969 6.76367188 0.04882812 C8.64326246 0.06064945 10.52281274 0.07858547 12.40234375 0.09765625 C12.40234375 2.40765625 12.40234375 4.71765625 12.40234375 7.09765625 C9.40234375 6.09765625 9.40234375 6.09765625 6.40234375 3.09765625 C6.40234375 7.71765625 6.40234375 12.33765625 6.40234375 17.09765625 C7.39234375 17.42765625 8.38234375 17.75765625 9.40234375 18.09765625 C9.07234375 18.75765625 8.74234375 19.41765625 8.40234375 20.09765625 C5.76234375 20.09765625 3.12234375 20.09765625 0.40234375 20.09765625 C0.07234375 19.10765625 -0.25765625 18.11765625 -0.59765625 17.09765625 C0.06234375 17.09765625 0.72234375 17.09765625 1.40234375 17.09765625 C1.40234375 12.47765625 1.40234375 7.85765625 1.40234375 3.09765625 C0.08234375 4.41765625 -1.23765625 5.73765625 -2.59765625 7.09765625 C-3.25765625 7.09765625 -3.91765625 7.09765625 -4.59765625 7.09765625 C-4.64019981 5.09810879 -4.63846408 3.09723989 -4.59765625 1.09765625 C-3.59765625 0.09765625 -3.59765625 0.09765625 0 0 Z " fill="#15192E" transform="translate(211.59765625,177.90234375)"/>
<path d="M0 0 C5.28 0 10.56 0 16 0 C17 5 17 5 16 7 C15.34 7 14.68 7 14 7 C12.68 5.68 11.36 4.36 10 3 C10 7.62 10 12.24 10 17 C10.99 17 11.98 17 13 17 C12.67 17.99 12.34 18.98 12 20 C9.36 20 6.72 20 4 20 C3.67 19.01 3.34 18.02 3 17 C3.99 17 4.98 17 6 17 C6 12.38 6 7.76 6 3 C4.68 4.32 3.36 5.64 2 7 C1.34 7 0.68 7 0 7 C0 4.69 0 2.38 0 0 Z " fill="#15192E" transform="translate(172,178)"/>
<path d="M0 0 C4.47238653 1.41807378 8.71146306 3.11304374 13 5 C13.32613618 9.67461851 12.70582788 12.16674383 10 16 C-0.74259681 12.14578588 -0.74259681 12.14578588 -4 8 C-2.68 5.36 -1.36 2.72 0 0 Z " fill="#BD4F35" transform="translate(187,70)"/>
<path d="M0 0 C2.97 0 5.94 0 9 0 C9 0.99 9 1.98 9 3 C8.34 3 7.68 3 7 3 C7 7.62 7 12.24 7 17 C7.66 17 8.32 17 9 17 C9 17.99 9 18.98 9 20 C6.03 20 3.06 20 0 20 C0 19.01 0 18.02 0 17 C0.66 17 1.32 17 2 17 C2 12.38 2 7.76 2 3 C1.34 3 0.68 3 0 3 C0 2.01 0 1.02 0 0 Z " fill="#15192E" transform="translate(114,178)"/>
<path d="M0 0 C1.93166016 0.01740234 1.93166016 0.01740234 3.90234375 0.03515625 C5.19269531 0.04417969 6.48304688 0.05320313 7.8125 0.0625 C8.81152344 0.07410156 9.81054688 0.08570313 10.83984375 0.09765625 C10.88226098 2.430604 10.88077312 4.76468192 10.83984375 7.09765625 C9.83984375 8.09765625 9.83984375 8.09765625 6.93359375 8.23046875 C5.74765625 8.22789063 4.56171875 8.2253125 3.33984375 8.22265625 C2.15390625 8.22523437 0.96796875 8.2278125 -0.25390625 8.23046875 C-3.16015625 8.09765625 -3.16015625 8.09765625 -4.16015625 7.09765625 C-4.28515625 4.09765625 -4.28515625 4.09765625 -4.16015625 1.09765625 C-3.16015625 0.09765625 -3.16015625 0.09765625 0 0 Z " fill="#15192E" transform="translate(150.16015625,37.90234375)"/>
<path d="M0 0 C2.64 0 5.28 0 8 0 C8 0.99 8 1.98 8 3 C7.34 3 6.68 3 6 3 C6 7.62 6 12.24 6 17 C6.99 17 7.98 17 9 17 C8.67 17.99 8.34 18.98 8 20 C5.36 20 2.72 20 0 20 C-0.33 19.01 -0.66 18.02 -1 17 C-0.34 16.67 0.32 16.34 1 16 C1 12.04 1 8.08 1 4 C0.34 3.67 -0.32 3.34 -1 3 C-0.67 2.01 -0.34 1.02 0 0 Z " fill="#15192E" transform="translate(194,178)"/>
<path d="M0 0 C2 3 2 3 2.7734375 5.54296875 C3.81323615 8.22553687 3.81323615 8.22553687 6.6015625 9.36328125 C7.59929687 9.67652344 8.59703125 9.98976563 9.625 10.3125 C10.62789062 10.63863281 11.63078125 10.96476562 12.6640625 11.30078125 C13.43492187 11.53152344 14.20578125 11.76226562 15 12 C15 12.33 15 12.66 15 13 C8.79029227 13.33266291 4.71735105 12.45029331 -1 10 C-0.67 9.01 -0.34 8.02 0 7 C0 6.34 0 5.68 0 5 C0 3.33333333 0 1.66666667 0 0 Z " fill="#E57045" transform="translate(168,83)"/>
</svg>
