<?xml version="1.0" encoding="UTF-8"?>
<svg version="1.1" xmlns="http://www.w3.org/2000/svg" width="500" height="126">
<path d="M0 0 C6.27 0 12.54 0 19 0 C20.65768231 3.31536462 20.18071814 7.02552869 20.20532227 10.67236328 C20.21522186 11.56998383 20.22512146 12.46760437 20.23532104 13.39242554 C20.266985 16.36836075 20.29171281 19.34431194 20.31640625 22.3203125 C20.33697155 24.38012107 20.35796791 26.43992539 20.37937927 28.49972534 C20.43464372 33.92812658 20.4840337 39.35656617 20.53222656 44.78503418 C20.58240968 50.32156804 20.63811237 55.85804601 20.69335938 61.39453125 C20.80099443 72.26297312 20.90242751 83.13146346 21 94 C17.52085059 94.02887814 14.04173169 94.04675687 10.5625 94.0625 C9.07266602 94.07506836 9.07266602 94.07506836 7.55273438 94.08789062 C6.60849609 94.09111328 5.66425781 94.09433594 4.69140625 94.09765625 C3.81685791 94.10289307 2.94230957 94.10812988 2.04125977 94.11352539 C0 94 0 94 -1 93 C-1.10053696 90.18024137 -1.1361571 87.38494262 -1.12939453 84.56469727 C-1.13114685 83.6801889 -1.13289917 82.79568054 -1.13470459 81.8843689 C-1.13912487 78.94502836 -1.13618425 76.00574745 -1.1328125 73.06640625 C-1.13348555 71.03238412 -1.13445558 68.99836207 -1.13571167 66.96434021 C-1.13718893 62.69456214 -1.13503341 58.42480495 -1.13037109 54.1550293 C-1.1246774 48.67241279 -1.12795036 43.18984527 -1.13394356 37.70723057 C-1.13755149 33.50460946 -1.13640945 29.30200003 -1.13381577 25.09937859 C-1.13314695 23.07749361 -1.13397333 21.05560759 -1.13629532 19.03372383 C-1.13882523 16.21068629 -1.13497624 13.38772882 -1.12939453 10.56469727 C-1.13141876 9.72254166 -1.13344299 8.88038605 -1.13552856 8.01271057 C-1.11426318 2.22852636 -1.11426318 2.22852636 0 0 Z " fill="#FFFFFF" transform="translate(136,16)"/>
<path d="M0 0 C1.32 0 2.64 0 4 0 C4.46672119 0.8206897 4.46672119 0.8206897 4.94287109 1.65795898 C10.78873171 11.93058415 16.65500561 22.1877868 22.68530273 32.35351562 C25.23083256 36.65370063 27.67732623 40.9890255 29.96484375 45.43359375 C31.0709423 47.32776318 31.0709423 47.32776318 34 49 C34.37695858 50.6573446 34.70599529 52.32594799 35 54 C36.06604336 56.21969259 36.06604336 56.21969259 37.44140625 58.37109375 C37.93938721 59.18650635 38.43736816 60.00191895 38.95043945 60.84204102 C39.48241943 61.69854248 40.01439941 62.55504395 40.5625 63.4375 C41.65188467 65.22604931 42.74042201 67.01511498 43.828125 68.8046875 C44.6334668 70.12291504 44.6334668 70.12291504 45.45507812 71.46777344 C47.60054553 74.98433284 49.72652125 78.51033504 51.8125 82.0625 C52.45832031 83.14660156 53.10414062 84.23070313 53.76953125 85.34765625 C55 88 55 88 54 91 C50.89601022 91.08710289 47.79233452 91.14042309 44.6875 91.1875 C43.80642578 91.21263672 42.92535156 91.23777344 42.01757812 91.26367188 C41.17001953 91.27333984 40.32246094 91.28300781 39.44921875 91.29296875 C38.66893311 91.3086792 37.88864746 91.32438965 37.0847168 91.34057617 C34.4061614 90.90298573 33.66596624 90.11258698 32 88 C31.12716273 86.61785244 30.30301378 85.20422004 29.51953125 83.76953125 C29.07802734 82.96708984 28.63652344 82.16464844 28.18164062 81.33789062 C27.72982422 80.50451172 27.27800781 79.67113281 26.8125 78.8125 C26.34908203 77.96751953 25.88566406 77.12253906 25.40820312 76.25195312 C24.26749219 74.17044966 23.13162891 72.08645072 22 70 C21.34 70 20.68 70 20 70 C19.88624023 69.26765137 19.77248047 68.53530273 19.65527344 67.78076172 C18.97958873 64.91338137 18.0425452 63.01262973 16.515625 60.5078125 C15.99846924 59.64857178 15.48131348 58.78933105 14.94848633 57.90405273 C14.38798584 56.98696533 13.82748535 56.06987793 13.25 55.125 C12.06977034 53.16126349 10.8914471 51.19638017 9.71484375 49.23046875 C9.10495605 48.21259277 8.49506836 47.1947168 7.86669922 46.14599609 C4.78213178 40.94749543 1.79053139 35.69756394 -1.1875 30.4375 C-1.73954102 29.46893066 -2.29158203 28.50036133 -2.86035156 27.50244141 C-3.37436523 26.59284668 -3.88837891 25.68325195 -4.41796875 24.74609375 C-4.86938232 23.94872803 -5.3207959 23.1513623 -5.78588867 22.32983398 C-9.20940866 15.76022787 -9.20940866 15.76022787 -8.46435547 13.05541992 C-8.10229004 12.45318604 -7.74022461 11.85095215 -7.3671875 11.23046875 C-6.97273438 10.56982422 -6.57828125 9.90917969 -6.171875 9.22851562 C-5.74390625 8.55498047 -5.3159375 7.88144531 -4.875 7.1875 C-4.47023438 6.49462891 -4.06546875 5.80175781 -3.6484375 5.08789062 C-2.4296875 3.10546875 -2.4296875 3.10546875 0 0 Z " fill="#FFFFFF" transform="translate(70,19)"/>
<path d="M0 0 C2.58008948 2.28402869 3.77456672 4.37374049 5.04296875 7.5625 C5.39423828 8.44164063 5.74550781 9.32078125 6.10742188 10.2265625 C6.64206055 11.59941406 6.64206055 11.59941406 7.1875 13 C7.73954102 14.37285156 7.73954102 14.37285156 8.30273438 15.7734375 C11 22.59917092 11 22.59917092 11 26 C12.98 26 14.96 26 17 26 C17 19.07 17 12.14 17 5 C16.01 5 15.02 5 14 5 C14 3.68 14 2.36 14 1 C17.63 1 21.26 1 25 1 C24 5 24 5 23 6 C22.91348389 7.41570123 22.89295096 8.835595 22.90234375 10.25390625 C22.90556641 11.10791016 22.90878906 11.96191406 22.91210938 12.84179688 C22.92048828 13.73962891 22.92886719 14.63746094 22.9375 15.5625 C22.94201172 16.46419922 22.94652344 17.36589844 22.95117188 18.29492188 C22.96299775 20.53001314 22.9794778 22.76497437 23 25 C23.66 25.33 24.32 25.66 25 26 C25 26.99 25 27.98 25 29 C17.74 29 10.48 29 3 29 C3 28.01 3 27.02 3 26 C3.66 26 4.32 26 5 26 C4.34 24.68 3.68 23.36 3 22 C0.69 22 -1.62 22 -4 22 C-4.33 22.99 -4.66 23.98 -5 25 C-4.34 25.33 -3.68 25.66 -3 26 C-3 26.99 -3 27.98 -3 29 C-5.97 29 -8.94 29 -12 29 C-12 28.01 -12 27.02 -12 26 C-11.34 25.67 -10.68 25.34 -10 25 C-8.88652924 22.60796337 -8.88652924 22.60796337 -7.87109375 19.6875 C-7.47599609 18.61242187 -7.08089844 17.53734375 -6.67382812 16.4296875 C-6.26583984 15.29789063 -5.85785156 14.16609375 -5.4375 13 C-4.62601022 10.76999054 -3.8123273 8.54077751 -2.99609375 6.3125 C-2.63700928 5.31863281 -2.2779248 4.32476562 -1.90795898 3.30078125 C-1 1 -1 1 0 0 Z M-1 10 C-1.66 12.64 -2.32 15.28 -3 18 C-1.02 18 0.96 18 3 18 C2.01 15.36 1.02 12.72 0 10 C-0.33 10 -0.66 10 -1 10 Z " fill="#FFFFFF" transform="translate(452,79)"/>
<path d="M0 0 C1.11375 0.49306641 1.11375 0.49306641 2.25 0.99609375 C5.6376872 2.23279206 7.50339185 1.81623313 11 1.0625 C15.05062326 0.19967591 17.98915951 -0.16398518 22 1 C24.72442001 3.04331501 25.36457519 4.72285538 26 8 C26.06388716 10.26799402 25.99962722 12.51360664 25.9375 14.78125 C25.9296264 17.32801888 25.9296264 17.32801888 27 21 C24.03 21 21.06 21 18 21 C18 20.01 18 19.02 18 18 C18.66 18 19.32 18 20 18 C19.505 12.06 19.505 12.06 19 6 C16.03 5.505 16.03 5.505 13 5 C13 9.29 13 13.58 13 18 C13.66 18 14.32 18 15 18 C15 18.99 15 19.98 15 21 C11.7 21 8.4 21 5 21 C5.33 20.01 5.66 19.02 6 18 C6.22325814 15.94106379 6.40705759 13.87766347 6.5625 11.8125 C6.64628906 10.72582031 6.73007812 9.63914062 6.81640625 8.51953125 C6.90728516 7.27236328 6.90728516 7.27236328 7 6 C6.0925 6.165 5.185 6.33 4.25 6.5 C1 7 1 7 -3 7 C-3.33 10.63 -3.66 14.26 -4 18 C-3.34 18 -2.68 18 -2 18 C-2 18.99 -2 19.98 -2 21 C-5.3 21 -8.6 21 -12 21 C-12.33 19.35 -12.66 17.7 -13 16 C-12.34 16 -11.68 16 -11 16 C-10.67 13.03 -10.34 10.06 -10 7 C-10.33 7.99 -10.66 8.98 -11 10 C-11.66 10 -12.32 10 -13 10 C-12.67 7.36 -12.34 4.72 -12 2 C-4.25 1 -4.25 1 -2 1 C-1.34 0.67 -0.68 0.34 0 0 Z " fill="#FFFFFF" transform="translate(274,87)"/>
<path d="M0 0 C0.74507812 0.01353516 1.49015625 0.02707031 2.2578125 0.04101562 C4.08885416 0.07622796 5.91952169 0.13003149 7.75 0.1875 C7.75 3.4875 7.75 6.7875 7.75 10.1875 C6.76 10.1875 5.77 10.1875 4.75 10.1875 C4.358125 9.3625 3.96625 8.5375 3.5625 7.6875 C2.06091791 5.0401933 2.06091791 5.0401933 -0.1484375 4.75 C-2.61579111 4.62294834 -2.61579111 4.62294834 -6.25 5.1875 C-7.24 6.6725 -7.24 6.6725 -8.25 8.1875 C-8.641875 8.744375 -9.03375 9.30125 -9.4375 9.875 C-10.68971729 13.43900305 -10.2565866 16.58303179 -9.25 20.1875 C-6.9251888 23.6747168 -5.65064292 24.10737142 -1.5 24.9375 C-0.4275 25.02 0.645 25.1025 1.75 25.1875 C1.79254356 23.18795254 1.79080783 21.18708364 1.75 19.1875 C1.42 18.8575 1.09 18.5275 0.75 18.1875 C0.75 16.8675 0.75 15.5475 0.75 14.1875 C4.05 14.1875 7.35 14.1875 10.75 14.1875 C10.75 15.1775 10.75 16.1675 10.75 17.1875 C10.42 17.5175 10.09 17.8475 9.75 18.1875 C9.54231771 19.66146739 9.38283983 21.1424126 9.25 22.625 C8.85958904 26.96832192 8.85958904 26.96832192 7.75 29.1875 C1.84511678 30.69512976 -3.46172144 30.02208999 -9.25 28.1875 C-12.83566024 25.94646235 -14.64823856 24.05261999 -16.25 20.1875 C-17.22800285 13.3983407 -16.29308022 8.69058141 -12.25 3.1875 C-8.66410682 -0.51907228 -4.84580779 -0.16694921 0 0 Z M-4.25 3.1875 C-0.25 4.1875 -0.25 4.1875 -0.25 4.1875 Z " fill="#FFFFFF" transform="translate(188.25,79.8125)"/>
<path d="M0 0 C0 3.3 0 6.6 0 10 C0.66 9.67 1.32 9.34 2 9 C5.49076486 8.62056904 7.30195515 8.48835064 10.1796875 10.59765625 C12.60419839 13.79738629 12.40864063 15.78398435 12.25 19.75 C12.21390625 20.92046875 12.1778125 22.0909375 12.140625 23.296875 C12.07101562 24.63492188 12.07101562 24.63492188 12 26 C12.66 26 13.32 26 14 26 C14 27.32 14 28.64 14 30 C10.7 30 7.4 30 4 30 C4.33 24.72 4.66 19.44 5 14 C3.68 14 2.36 14 1 14 C0.67 17.96 0.34 21.92 0 26 C0.66 26 1.32 26 2 26 C2 27.32 2 28.64 2 30 C-1.3 30 -4.6 30 -8 30 C-8 29.01 -8 28.02 -8 27 C-7.34 27 -6.68 27 -6 27 C-6 19.41 -6 11.82 -6 4 C-6.99 4 -7.98 4 -9 4 C-9 3.01 -9 2.02 -9 1 C-5.8035914 -0.06546953 -3.34252724 -0.07427838 0 0 Z M6 17 C6 19.64 6 22.28 6 25 C6.33 25 6.66 25 7 25 C7 22.36 7 19.72 7 17 C6.67 17 6.34 17 6 17 Z " fill="#FFFFFF" transform="translate(389,33)"/>
<path d="M0 0 C0.99 0 1.98 0 3 0 C4.32 0 5.64 0 7 0 C7 3.63 7 7.26 7 11 C6.01 11 5.02 11 4 11 C2.04783565 9.04783565 1.15173355 7.46800047 0 5 C-4.77242318 4.47899569 -4.77242318 4.47899569 -8.875 6.5 C-10.42592951 9.94651001 -11.14436174 13.23937678 -11 17 C-9.49408732 20.81405033 -9.49408732 20.81405033 -7 24 C-5.5444063 24.09858603 -4.08392081 24.12972143 -2.625 24.125 C-1.43777344 24.12886719 -1.43777344 24.12886719 -0.2265625 24.1328125 C2.17343496 24.08617666 2.17343496 24.08617666 5 23 C5 22.34 5 21.68 5 21 C5.99 21.33 6.98 21.66 8 22 C6.59908008 25.38555647 5.20330189 27.18190974 2 29 C-3.64135386 30.49016894 -6.91032476 29.78491664 -12 27 C-15.34121639 24.18634409 -16.77355819 22.15676548 -17.23828125 17.73046875 C-17.44038771 10.80566304 -15.99675928 7.47624076 -11.4375 2.1875 C-8.02084995 -0.63495005 -4.19313734 -0.07487745 0 0 Z " fill="#FFFFFF" transform="translate(189,34)"/>
<path d="M0 0 C7.25 0.46774194 7.25 0.46774194 9.9375 2.375 C12.15217834 5.76215511 12.10860142 8.76887898 12.0625 12.6875 C12.05347656 13.68136719 12.04445312 14.67523438 12.03515625 15.69921875 C12.02355469 16.45847656 12.01195312 17.21773437 12 18 C12.66 18 13.32 18 14 18 C14 19.32 14 20.64 14 22 C10.7 22 7.4 22 4 22 C4 21.01 4 20.02 4 19 C4.66 19 5.32 19 6 19 C5.67 14.38 5.34 9.76 5 5 C3.02 5.33 1.04 5.66 -1 6 C-1 9.96 -1 13.92 -1 18 C-0.34 18 0.32 18 1 18 C1 19.32 1 20.64 1 22 C-1.97 22 -4.94 22 -8 22 C-7.34 16.72 -6.68 11.44 -6 6 C-6.99 5.67 -7.98 5.34 -9 5 C-9 4.01 -9 3.02 -9 2 C-6.94921875 1.77213542 -4.8984375 1.54427083 -2.84765625 1.31640625 C-0.98859771 1.18113386 -0.98859771 1.18113386 0 0 Z " fill="#FFFFFF" transform="translate(227,41)"/>
<path d="M0 0 C2.78987918 2.64304344 3.86652053 4.19912317 4.5 8 C3.88466097 11.69203416 2.58383614 13.34016868 0 16 C-3.10048928 17.55024464 -5.57894218 17.28992015 -9 17 C-11.75329021 15.20437595 -13.52627461 13.94745078 -15 11 C-15.50192696 6.56631189 -15.54663334 4.69847593 -12.75 1.125 C-8.00945363 -2.53814947 -5.50865289 -2.52479924 0 0 Z " fill="#FFFFFF" transform="translate(39,93)"/>
<path d="M0 0 C3.77010612 4.90113796 3.31429926 10.10979897 3 16 C3.66 16.33 4.32 16.66 5 17 C5 17.99 5 18.98 5 20 C1.7 20 -1.6 20 -5 20 C-5 19.01 -5 18.02 -5 17 C-4.34 17 -3.68 17 -3 17 C-3.33 12.71 -3.66 8.42 -4 4 C-5.65 4.33 -7.3 4.66 -9 5 C-9.33 8.96 -9.66 12.92 -10 17 C-9.34 17 -8.68 17 -8 17 C-8 17.99 -8 18.98 -8 20 C-10.97 20 -13.94 20 -17 20 C-17 19.01 -17 18.02 -17 17 C-16.34 17 -15.68 17 -15 17 C-15 13.37 -15 9.74 -15 6 C-15.66 5.67 -16.32 5.34 -17 5 C-17.625 2.9375 -17.625 2.9375 -18 1 C-16.12739946 0.63335815 -14.25175307 0.28225634 -12.375 -0.0625 C-11.33085937 -0.25972656 -10.28671875 -0.45695312 -9.2109375 -0.66015625 C-5.84533572 -1.01636958 -3.26997294 -0.85507913 0 0 Z " fill="#FFFFFF" transform="translate(340,88)"/>
<path d="M0 0 C1.67578125 1.09765625 1.67578125 1.09765625 3 3 C3.29296875 6.35546875 3.29296875 6.35546875 3.1875 10.1875 C3.16042969 11.45980469 3.13335937 12.73210937 3.10546875 14.04296875 C3.07066406 15.01878906 3.03585937 15.99460937 3 17 C3.99 17 4.98 17 6 17 C6 17.99 6 18.98 6 20 C5.43152344 19.98839844 4.86304688 19.97679688 4.27734375 19.96484375 C0.43393657 19.91992914 -3.00946407 20.00170664 -6.8125 20.6875 C-10 21 -10 21 -12.4375 19.5625 C-12.953125 19.046875 -13.46875 18.53125 -14 18 C-13.875 15.25 -13.875 15.25 -13 12 C-9.9375 9.625 -9.9375 9.625 -7 8 C-8.65 7.67 -10.3 7.34 -12 7 C-12.33 5.68 -12.66 4.36 -13 3 C-8.46466847 -0.59698707 -5.70393619 -1.42598405 0 0 Z M-8 3 C-7.28436734 5.0162233 -7.28436734 5.0162233 -6 7 C-3.94999129 7.80528889 -3.94999129 7.80528889 -2 8 C-2.33 6.35 -2.66 4.7 -3 3 C-4.65 3 -6.3 3 -8 3 Z M-8 13 C-7.67 14.32 -7.34 15.64 -7 17 C-5.68 16.67 -4.36 16.34 -3 16 C-3 14.68 -3 13.36 -3 12 C-5.21081851 11.89459074 -5.21081851 11.89459074 -8 13 Z " fill="#FFFFFF" transform="translate(316,88)"/>
<path d="M0 0 C2.75357293 2.08378492 3.8111953 3.37549215 4.8125 6.6875 C4.874375 7.450625 4.93625 8.21375 5 9 C4 10 4 10 1.27734375 10.09765625 C-0.37587891 10.08025391 -0.37587891 10.08025391 -2.0625 10.0625 C-3.71958984 10.04896484 -3.71958984 10.04896484 -5.41015625 10.03515625 C-6.26480469 10.02355469 -7.11945313 10.01195313 -8 10 C-7.34 11.98 -6.68 13.96 -6 16 C-2.53058454 15.54177532 0.67395049 15.10868317 4 14 C4.33 14.99 4.66 15.98 5 17 C-0.22468764 21.39973696 -4.30713088 21.47617251 -11 21 C-13.64188276 15.71623448 -14.91668403 12.00377674 -14 6 C-10.72662174 -0.11704663 -6.60167711 -1.75146536 0 0 Z M-6 3 C-4.515 3.99 -4.515 3.99 -3 5 C-2.34 4.67 -1.68 4.34 -1 4 C-2.65 3.67 -4.3 3.34 -6 3 Z M-8 5 C-7 7 -7 7 -7 7 Z " fill="#FFFFFF" transform="translate(380,88)"/>
<path d="M0 0 C2.375 1.6875 2.375 1.6875 4 4 C4 5.98 4 7.96 4 10 C0.04 10 -3.92 10 -8 10 C-7.34 11.98 -6.68 13.96 -6 16 C-2.53058454 15.54177532 0.67395049 15.10868317 4 14 C3.67 15.98 3.34 17.96 3 20 C-0.71616032 21.1891713 -4.12097502 21.34026535 -8 21 C-11.09037634 18.93974911 -14.34519921 16.66834883 -15.734375 13.12890625 C-16.06621054 10.469342 -15.49914999 9.28644509 -14.25 6.9375 C-13.90453125 6.26589844 -13.5590625 5.59429687 -13.203125 4.90234375 C-9.75550968 -0.54891814 -6.26873011 -1.66313248 0 0 Z M-7 3 C-7 3.99 -7 4.98 -7 6 C-5.68 5.34 -4.36 4.68 -3 4 C-2.67 4.66 -2.34 5.32 -2 6 C-2 5.01 -2 4.02 -2 3 C-3.65 3 -5.3 3 -7 3 Z " fill="#FFFFFF" transform="translate(256,88)"/>
<path d="M0 0 C4.00535091 2.44771444 5.66804391 3.92602443 7.0625 8.4375 C6.97857775 13.22106808 5.44600975 16.00312939 2.6875 19.8125 C0.11192522 21.62494151 -1.86676689 21.87712811 -5 22 C-8.45289937 20.78132963 -10.47272661 19.57829985 -12.9375 16.875 C-14.48046163 12.69992734 -14.37014083 9.23289317 -13 5 C-9.73755428 0.27545486 -5.5478566 -0.99068868 0 0 Z M-7 4 C-8.19920347 8.36401863 -8.49613479 11.94301718 -6.5625 16.0625 C-6.046875 16.701875 -5.53125 17.34125 -5 18 C-2.24358584 17.50243908 -2.24358584 17.50243908 0 16 C0.23846903 13.7377642 0.23846903 13.7377642 0.25 11.125 C0.27578125 10.24070312 0.3015625 9.35640625 0.328125 8.4453125 C0.19885526 5.94836876 0.19885526 5.94836876 -1.390625 4.1796875 C-3.67032003 2.50864891 -4.50576148 2.75288074 -7 4 Z " fill="#FFFFFF" transform="translate(331,42)"/>
<path d="M0 0 C1.375 1.9375 1.375 1.9375 2 4 C1.67 4.66 1.34 5.32 1 6 C-0.33333333 6.33333333 -1.66666667 6.66666667 -3 7 C-3.33 7.66 -3.66 8.32 -4 9 C-3.01 9.33 -2.02 9.66 -1 10 C-1 10.99 -1 11.98 -1 13 C-2.65 13 -4.3 13 -6 13 C-6 17.29 -6 21.58 -6 26 C-5.34 26 -4.68 26 -4 26 C-4 27.32 -4 28.64 -4 30 C-7.3 30 -10.6 30 -14 30 C-14 29.01 -14 28.02 -14 27 C-13.34 27 -12.68 27 -12 27 C-12 22.38 -12 17.76 -12 13 C-12.99 13 -13.98 13 -15 13 C-15 12.01 -15 11.02 -15 10 C-14.34 9.67 -13.68 9.34 -13 9 C-12.566875 7.88625 -12.13375 6.7725 -11.6875 5.625 C-9.19465729 0.27000455 -5.84849778 -2.37101261 0 0 Z M-6 3 C-6 5.31 -6 7.62 -6 10 C-5.67 10 -5.34 10 -5 10 C-4.67 7.69 -4.34 5.38 -4 3 C-4.66 3 -5.32 3 -6 3 Z " fill="#FFFFFF" transform="translate(318,33)"/>
<path d="M0 0 C2.70567626 1.82339052 4.53728718 3.07457436 6 6 C6.68128376 12.81283762 6.68128376 12.81283762 4.953125 15.82421875 C2.04275856 19.35945798 0.28356236 20.85189665 -4.25 21.375 C-9.19272958 20.88072704 -10.53828301 19.46171699 -14 16 C-15.75331113 12.49337774 -14.95431841 8.70839169 -14 5 C-9.46475294 -0.58184254 -6.98886056 -1.53991843 0 0 Z M-7 3 C-9.46751239 6.70126859 -9.30721156 8.62223532 -9 13 C-8.11935073 15.35369807 -8.11935073 15.35369807 -7 17 C-5.02 17 -3.04 17 -1 17 C0.41933513 12.74199462 0.72651677 8.77088462 -1 4.5625 C-1.33 4.046875 -1.66 3.53125 -2 3 C-4.41619823 2.74969023 -4.41619823 2.74969023 -7 3 Z " fill="#FFFFFF" transform="translate(215,88)"/>
<path d="M0 0 C3.49863793 3.03215287 5.78279496 5.08859567 6.3125 9.75 C5.91993628 13.83266269 4.53100884 15.81816032 2 19 C-1.76875875 21.51250583 -3.53150134 21.53016086 -8 21 C-11.18353424 19.11346119 -13.34579628 17.66334776 -14.734375 14.1328125 C-15.47462218 10.32794198 -15.13395671 7.58524271 -13.375 4.125 C-9.52017732 -0.9471351 -6.0967509 -1.90523466 0 0 Z M-7 3 C-8.99825961 5.99738941 -9.27550398 6.63347508 -9.25 10 C-9.25515625 10.680625 -9.2603125 11.36125 -9.265625 12.0625 C-9.09917603 14.32416007 -9.09917603 14.32416007 -7 17 C-4.41619823 17.25030977 -4.41619823 17.25030977 -2 17 C-0.00825897 14.18813032 0.08443886 12.18282387 -0.3125 8.875 C-0.77176758 5.21972457 -0.77176758 5.21972457 -2 3 C-4.41619823 2.74969023 -4.41619823 2.74969023 -7 3 Z " fill="#FFFFFF" transform="translate(411,88)"/>
<path d="M0 0 C2.9375 2.1875 2.9375 2.1875 5 5 C5 6.65 5 8.3 5 10 C1.37 10 -2.26 10 -6 10 C-6 11.98 -6 13.96 -6 16 C-0.42169984 16.12469099 -0.42169984 16.12469099 5 15 C4.9375 16.8125 4.9375 16.8125 4 19 C-0.11775081 21.47065049 -1.89349293 22.15003486 -6.6875 21.5 C-10.49963533 19.77375004 -12.00243339 18.67552256 -14 15 C-14.91825498 8.57221516 -14.91825498 8.57221516 -12.94140625 5.1875 C-8.95007505 0.26051549 -6.27204474 -0.63783506 0 0 Z M-7 4 C-7.33 4.99 -7.66 5.98 -8 7 C-5.36 7 -2.72 7 0 7 C-0.33 6.01 -0.66 5.02 -1 4 C-4 2.66666667 -4 2.66666667 -7 4 Z M-8 10 C-7 14 -7 14 -7 14 Z " fill="#FFFFFF" transform="translate(418,42)"/>
<path d="M0 0 C0.89203125 0.01804688 1.7840625 0.03609375 2.703125 0.0546875 C3.71632812 0.08949219 3.71632812 0.08949219 4.75 0.125 C6.48734147 3.92543446 6.75 5.72214577 6.75 10.125 C2.46 10.125 -1.83 10.125 -6.25 10.125 C-5.59 12.105 -4.93 14.085 -4.25 16.125 C1.32830016 16.24969099 1.32830016 16.24969099 6.75 15.125 C6.6875 16.9375 6.6875 16.9375 5.75 19.125 C1.55728897 21.64062662 -0.12801346 22.31199776 -5 21.5 C-9.4579646 19.61393805 -9.4579646 19.61393805 -11.25 17.125 C-12.76687471 12.57437587 -12.96895824 8.74265604 -11 4.3125 C-7.8627512 0.390939 -4.89229751 -0.12874467 0 0 Z M-6.25 5.125 C-6.25 5.785 -6.25 6.445 -6.25 7.125 C-3.94 7.125 -1.63 7.125 0.75 7.125 C0.42 5.805 0.09 4.485 -0.25 3.125 C-3.43490007 2.8476499 -3.43490007 2.8476499 -6.25 5.125 Z " fill="#FFFFFF" transform="translate(210.25,41.875)"/>
<path d="M0 0 C3.2871343 1.92940491 4.68892622 3.04455909 5.875 6.6875 C5.91625 7.450625 5.9575 8.21375 6 9 C5 10 5 10 2.05859375 10.09765625 C0.26615234 10.08025391 0.26615234 10.08025391 -1.5625 10.0625 C-3.35880859 10.04896484 -3.35880859 10.04896484 -5.19140625 10.03515625 C-6.11824219 10.02355469 -7.04507812 10.01195312 -8 10 C-7.34 11.98 -6.68 13.96 -6 16 C-0.42169984 16.12469099 -0.42169984 16.12469099 5 15 C5 15.99 5 16.98 5 18 C2.00412209 20.99587791 -0.80916238 21.8323665 -5 22 C-8.97472063 20.47126129 -10.61853665 19.57219503 -13 16 C-13.71207438 11.11483856 -13.72852643 7.1899265 -11.125 2.9375 C-7.46753897 -0.39724388 -4.90894935 -0.41601266 0 0 Z M-7 5 C-7 5.66 -7 6.32 -7 7 C-4.69 7 -2.38 7 0 7 C-0.66 5.68 -1.32 4.36 -2 3 C-4.32357511 2.81509993 -4.32357511 2.81509993 -7 5 Z " fill="#FFFFFF" transform="translate(287,42)"/>
<path d="M0 0 C2 2 2 2 2.25 5 C2 8 2 8 0 10 C-0.6425235 12.06874034 -0.6425235 12.06874034 -1 14 C-2.32 14 -3.64 14 -5 14 C-5 18.29 -5 22.58 -5 27 C-4.34 27 -3.68 27 -3 27 C-3 27.99 -3 28.98 -3 30 C-6.3 30 -9.6 30 -13 30 C-13 29.01 -13 28.02 -13 27 C-12.01 27 -11.02 27 -10 27 C-10 22.71 -10 18.42 -10 14 C-10.99 14 -11.98 14 -13 14 C-13 12.68 -13 11.36 -13 10 C-12.01 10 -11.02 10 -10 10 C-9.896875 8.906875 -9.79375 7.81375 -9.6875 6.6875 C-9 3 -9 3 -7.8125 1.0625 C-5.12921967 -0.51045744 -3.04360748 -0.32378803 0 0 Z M-4 3 C-4.33 4.65 -4.66 6.3 -5 8 C-3.68 7.67 -2.36 7.34 -1 7 C-1.66 6.67 -2.32 6.34 -3 6 C-3.33 5.01 -3.66 4.02 -4 3 Z " fill="#FFFFFF" transform="translate(431,78)"/>
<path d="M0 0 C0.99 0 1.98 0 3 0 C3 1.65 3 3.3 3 5 C4.65 5 6.3 5 8 5 C8 6.32 8 7.64 8 9 C6.35 9 4.7 9 3 9 C3 13.29 3 17.58 3 22 C4.98 21.34 6.96 20.68 9 20 C8.98839844 19.04738281 8.97679687 18.09476563 8.96484375 17.11328125 C8.95130859 15.23189453 8.95130859 15.23189453 8.9375 13.3125 C8.92589844 12.07113281 8.91429687 10.82976563 8.90234375 9.55078125 C8.98521327 6.53764546 9.29160551 3.91724661 10 1 C10.33 1 10.66 1 11 1 C11.11632513 4.41637953 11.18728897 7.83224897 11.25 11.25 C11.30027344 12.70212891 11.30027344 12.70212891 11.3515625 14.18359375 C11.45068259 21.36980024 11.45068259 21.36980024 9.13671875 24.60546875 C6.54889689 26.29441281 5.11945728 27.07608432 2 27 C-0.84604953 25.35561583 -1.65998117 24.87545707 -3 22 C-3.42222126 17.6352877 -3.28796877 13.37072601 -3 9 C-3.99 9 -4.98 9 -6 9 C-5.67 7.35 -5.34 5.7 -5 4 C-4.01 3.67 -3.02 3.34 -2 3 C-1.34 2.01 -0.68 1.02 0 0 Z " fill="#FFFFFF" transform="translate(371,37)"/>
<path d="M0 0 C2 1.25 2 1.25 3 3 C2.6875 5.6875 2.6875 5.6875 2 8 C0.68 8 -0.64 8 -2 8 C-2.33 7.01 -2.66 6.02 -3 5 C-2.67 4.34 -2.34 3.68 -2 3 C-3.98 3.66 -5.96 4.32 -8 5 C-8.84098656 9.01804691 -9.05404945 12.01803543 -8 16 C-3.78121808 16.19622241 -0.82989106 15.80230168 3 14 C3 15.98 3 17.96 3 20 C0.87745145 20.38863565 -1.24816828 20.76053209 -3.375 21.125 C-5.15003906 21.43824219 -5.15003906 21.43824219 -6.9609375 21.7578125 C-7.96382813 21.83773437 -8.96671875 21.91765625 -10 22 C-10.66 21.34 -11.32 20.68 -12 20 C-12.86625 19.29875 -13.7325 18.5975 -14.625 17.875 C-17.86185621 13.95670037 -17.41995441 11.95546202 -17 7 C-16.34 7 -15.68 7 -15 7 C-15 6.01 -15 5.02 -15 4 C-10.43266971 -0.31820318 -6.13215737 -1.92381408 0 0 Z " fill="#FFFFFF" transform="translate(361,88)"/>
<path d="M0 0 C2.97 0 5.94 0 9 0 C9 0.99 9 1.98 9 3 C8.34 3 7.68 3 7 3 C8.32 5.64 9.64 8.28 11 11 C12.19287411 7.12315913 13 4.08378077 13 0 C15.64 0 18.28 0 21 0 C21 0.99 21 1.98 21 3 C20.55914062 3.4228125 20.11828125 3.845625 19.6640625 4.28125 C17.31027745 6.71238949 16.53551666 9.33883806 15.375 12.5 C14.73691406 14.21703125 14.73691406 14.21703125 14.0859375 15.96875 C13.36850111 17.97137819 12.67269864 19.98190407 12 22 C11.01 22 10.02 22 9 22 C7.82887054 19.37690901 6.66294036 16.75171858 5.5 14.125 C5.16613281 13.37863281 4.83226562 12.63226563 4.48828125 11.86328125 C4.17246094 11.14785156 3.85664063 10.43242188 3.53125 9.6953125 C3.23798828 9.03547363 2.94472656 8.37563477 2.64257812 7.69580078 C2 6 2 6 2 4 C1.34 4 0.68 4 0 4 C0 2.68 0 1.36 0 0 Z " fill="#FFFFFF" transform="translate(221,88)"/>
<path d="M0 0 C0.97582031 0.00902344 1.95164062 0.01804688 2.95703125 0.02734375 C3.69308594 0.03894531 4.42914063 0.05054688 5.1875 0.0625 C5.8475 1.3825 6.5075 2.7025 7.1875 4.0625 C6.5275 4.7225 5.8675 5.3825 5.1875 6.0625 C3.51207024 5.77645102 1.84364657 5.44468767 0.1875 5.0625 C-1.55206658 6.80206658 -1.18440386 9.2561622 -1.375 11.625 C-1.45878906 12.63691406 -1.54257812 13.64882813 -1.62890625 14.69140625 C-1.68949219 15.47386719 -1.75007813 16.25632812 -1.8125 17.0625 C-1.1525 17.0625 -0.4925 17.0625 0.1875 17.0625 C0.1875 18.3825 0.1875 19.7025 0.1875 21.0625 C-3.1125 21.0625 -6.4125 21.0625 -9.8125 21.0625 C-9.1525 15.7825 -8.4925 10.5025 -7.8125 5.0625 C-8.8025 4.7325 -9.7925 4.4025 -10.8125 4.0625 C-10.8125 3.0725 -10.8125 2.0825 -10.8125 1.0625 C-7.13862505 0.20951624 -3.7677607 -0.04539471 0 0 Z " fill="#FFFFFF" transform="translate(266.8125,41.9375)"/>
<path d="M0 0 C0.99 0 1.98 0 3 0 C3.061875 0.61875 3.12375 1.2375 3.1875 1.875 C3.828919 4.27761141 3.828919 4.27761141 6.5625 5.25 C7.366875 5.4975 8.17125 5.745 9 6 C9 6.99 9 7.98 9 9 C7.35 9.33 5.7 9.66 4 10 C4 13.63 4 17.26 4 21 C5.65 20.67 7.3 20.34 9 20 C9.33 21.32 9.66 22.64 10 24 C7.875 25.625 7.875 25.625 5 27 C1.75 26.3125 1.75 26.3125 -1 25 C-2.50156874 21.99686252 -2.09281204 19.20932478 -2.0625 15.875 C-2.05347656 14.59367187 -2.04445312 13.31234375 -2.03515625 11.9921875 C-2.02355469 11.00476562 -2.01195312 10.01734375 -2 9 C-2.99 9 -3.98 9 -5 9 C-5 7.68 -5 6.36 -5 5 C-4.01 4.34 -3.02 3.68 -2 3 C-1.67 2.34 -1.34 1.68 -1 1 C-0.67 0.67 -0.34 0.34 0 0 Z " fill="#FFFFFF" transform="translate(246,37)"/>
<path d="M0 0 C2.85867948 0.69301321 5.21359983 0.08272958 8.0625 -0.5 C9.125 1.375 9.125 1.375 10.0625 3.5 C9.7325 4.16 9.4025 4.82 9.0625 5.5 C7.7425 5.5 6.4225 5.5 5.0625 5.5 C5.0625 4.84 5.0625 4.18 5.0625 3.5 C4.0725 4.16 3.0825 4.82 2.0625 5.5 C1.47901248 8.1556728 1.47901248 8.1556728 1.375 11.125 C1.30925781 12.12789062 1.24351562 13.13078125 1.17578125 14.1640625 C1.13839844 14.93492188 1.10101563 15.70578125 1.0625 16.5 C1.7225 16.5 2.3825 16.5 3.0625 16.5 C3.3925 17.49 3.7225 18.48 4.0625 19.5 C3.0625 20.5 3.0625 20.5 0.77734375 20.59765625 C-0.59744141 20.58025391 -0.59744141 20.58025391 -2 20.5625 C-2.91910156 20.55347656 -3.83820313 20.54445313 -4.78515625 20.53515625 C-5.49542969 20.52355469 -6.20570313 20.51195313 -6.9375 20.5 C-6.9375 19.51 -6.9375 18.52 -6.9375 17.5 C-6.2775 17.5 -5.6175 17.5 -4.9375 17.5 C-4.9375 13.21 -4.9375 8.92 -4.9375 4.5 C-5.5975 4.5 -6.2575 4.5 -6.9375 4.5 C-6.9375 3.18 -6.9375 1.86 -6.9375 0.5 C-2.42956349 -0.62698413 -2.42956349 -0.62698413 0 0 Z " fill="#FFFFFF" transform="translate(345.9375,42.5)"/>
<path d="M0 0 C0.33 0 0.66 0 1 0 C1 29.7 1 59.4 1 90 C0.67 90 0.34 90 0 90 C0 60.3 0 30.6 0 0 Z " fill="#FFFFFF" transform="translate(133,18)"/>
<path d="M0 0 C6.27 0 12.54 0 19 0 C19 0.33 19 0.66 19 1 C12.73 1 6.46 1 0 1 C0 0.67 0 0.34 0 0 Z " fill="#FFFFFF" transform="translate(136,111)"/>
<path d="M0 0 C0.33 0 0.66 0 1 0 C1 6.27 1 12.54 1 19 C0.67 19 0.34 19 0 19 C0 12.73 0 6.46 0 0 Z " fill="#FFFFFF" transform="translate(467,85)"/>
<path d="M0 0 C5.94 0 11.88 0 18 0 C18 0.33 18 0.66 18 1 C12.06 1 6.12 1 0 1 C0 0.67 0 0.34 0 0 Z " fill="#FFFFFF" transform="translate(105,111)"/>
<path d="M0 0 C0.99 0 1.98 0 3 0 C3 3.63 3 7.26 3 11 C1.07352586 7.14705171 0.89406922 6.02536946 1 2 C0.67 1.34 0.34 0.68 0 0 Z " fill="#FFFFFF" transform="translate(417,93)"/>
<path d="M0 0 C0.33 0 0.66 0 1 0 C1.33 4.95 1.66 9.9 2 15 C1.34 15 0.68 15 0 15 C0 10.05 0 5.1 0 0 Z " fill="#FFFFFF" transform="translate(242,47)"/>
<path d="M0 0 C5.61 0 11.22 0 17 0 C17 0.33 17 0.66 17 1 C11.39 1 5.78 1 0 1 C0 0.67 0 0.34 0 0 Z " fill="#FFFFFF" transform="translate(137,14)"/>
<path d="M0 0 C0.66 0 1.32 0 2 0 C2 3.63 2 7.26 2 11 C1.01 11.495 1.01 11.495 0 12 C0 8.04 0 4.08 0 0 Z " fill="#FFFFFF" transform="translate(218,48)"/>
<path d="M0 0 C0.33 0 0.66 0 1 0 C1 2.97 1 5.94 1 9 C0.01 9 -0.98 9 -2 9 C-1.34 6.03 -0.68 3.06 0 0 Z " fill="#FFFFFF" transform="translate(339,50)"/>
<path d="M0 0 C0.33 0 0.66 0 1 0 C1 3.96 1 7.92 1 12 C0.67 12 0.34 12 0 12 C0 8.04 0 4.08 0 0 Z " fill="#FFFFFF" transform="translate(320,92)"/>
<path d="M0 0 C0.66 0 1.32 0 2 0 C2 3.63 2 7.26 2 11 C1.67 11 1.34 11 1 11 C0.67 7.37 0.34 3.74 0 0 Z " fill="#FFFFFF" transform="translate(291,93)"/>
<path d="M0 0 C0.33 0 0.66 0 1 0 C1 3.63 1 7.26 1 11 C0.67 11 0.34 11 0 11 C0 7.37 0 3.74 0 0 Z " fill="#FFFFFF" transform="translate(331,93)"/>
<path d="M0 0 C0.33 0 0.66 0 1 0 C1 3.63 1 7.26 1 11 C0.67 11 0.34 11 0 11 C0 7.37 0 3.74 0 0 Z " fill="#FFFFFF" transform="translate(288,93)"/>
<path d="M0 0 C0 0.33 0 0.66 0 1 C-2.97 1 -5.94 1 -9 1 C-4.82091936 -1.08954032 -4.19589427 -1.16552619 0 0 Z " fill="#FFFFFF" transform="translate(199,92)"/>
<path d="M0 0 C0.33 0 0.66 0 1 0 C1 3.63 1 7.26 1 11 C0.67 11 0.34 11 0 11 C0 7.37 0 3.74 0 0 Z " fill="#FFFFFF" transform="translate(257,48)"/>
<path d="M0 0 C0.33 0 0.66 0 1 0 C1 3.63 1 7.26 1 11 C0.67 11 0.34 11 0 11 C0 7.37 0 3.74 0 0 Z " fill="#FFFFFF" transform="translate(231,48)"/>
<path d="M0 0 C0.33 0 0.66 0 1 0 C1 3.63 1 7.26 1 11 C0.67 11 0.34 11 0 11 C0 7.37 0 3.74 0 0 Z " fill="#FFFFFF" transform="translate(366,47)"/>
<path d="M0 0 C0.33 0 0.66 0 1 0 C1 3.63 1 7.26 1 11 C0.67 11 0.34 11 0 11 C0 7.37 0 3.74 0 0 Z " fill="#FFFFFF" transform="translate(313,47)"/>
<path d="M0 0 C0.33 0 0.66 0 1 0 C1 3.3 1 6.6 1 10 C0.67 10 0.34 10 0 10 C0 6.7 0 3.4 0 0 Z " fill="#FFFFFF" transform="translate(335,94)"/>
<path d="M0 0 C0.66 0 1.32 0 2 0 C1.67 1.98 1.34 3.96 1 6 C-0.0625 4.125 -0.0625 4.125 -1 2 C-0.67 1.34 -0.34 0.68 0 0 Z " fill="#FFFFFF" transform="translate(240,92)"/>
<path d="M0 0 C2.97 0 5.94 0 9 0 C9 0.33 9 0.66 9 1 C6.03 1 3.06 1 0 1 C0 0.67 0 0.34 0 0 Z " fill="#FFFFFF" transform="translate(467,109)"/>
<path d="M0 0 C2.97 0 5.94 0 9 0 C9 0.33 9 0.66 9 1 C6.03 1 3.06 1 0 1 C0 0.67 0 0.34 0 0 Z " fill="#FFFFFF" transform="translate(456,109)"/>
<path d="M0 0 C2.97 0 5.94 0 9 0 C9 0.33 9 0.66 9 1 C6.03 1 3.06 1 0 1 C0 0.67 0 0.34 0 0 Z " fill="#FFFFFF" transform="translate(419,109)"/>
<path d="M0 0 C2.97 0 5.94 0 9 0 C9 0.33 9 0.66 9 1 C6.03 1 3.06 1 0 1 C0 0.67 0 0.34 0 0 Z " fill="#FFFFFF" transform="translate(335,109)"/>
<path d="M0 0 C2.97 0 5.94 0 9 0 C9 0.33 9 0.66 9 1 C6.03 1 3.06 1 0 1 C0 0.67 0 0.34 0 0 Z " fill="#FFFFFF" transform="translate(323,109)"/>
<path d="M0 0 C2.97 0 5.94 0 9 0 C9 0.33 9 0.66 9 1 C6.03 1 3.06 1 0 1 C0 0.67 0 0.34 0 0 Z " fill="#FFFFFF" transform="translate(292,109)"/>
<path d="M0 0 C2.97 0 5.94 0 9 0 C9 0.33 9 0.66 9 1 C6.03 1 3.06 1 0 1 C0 0.67 0 0.34 0 0 Z " fill="#FFFFFF" transform="translate(280,109)"/>
<path d="M0 0 C2.97 0 5.94 0 9 0 C9 0.33 9 0.66 9 1 C6.03 1 3.06 1 0 1 C0 0.67 0 0.34 0 0 Z " fill="#FFFFFF" transform="translate(263,109)"/>
<path d="M0 0 C0.33 0 0.66 0 1 0 C1 2.97 1 5.94 1 9 C0.67 9 0.34 9 0 9 C0 6.03 0 3.06 0 0 Z " fill="#FFFFFF" transform="translate(271,95)"/>
<path d="M0 0 C2.97 0 5.94 0 9 0 C9 0.33 9 0.66 9 1 C6.03 1 3.06 1 0 1 C0 0.67 0 0.34 0 0 Z " fill="#FFFFFF" transform="translate(305,64)"/>
<path d="M0 0 C2.97 0 5.94 0 9 0 C9 0.33 9 0.66 9 1 C6.03 1 3.06 1 0 1 C0 0.67 0 0.34 0 0 Z " fill="#FFFFFF" transform="translate(219,64)"/>
<path d="M0 0 C0.33 0 0.66 0 1 0 C1 2.97 1 5.94 1 9 C0.67 9 0.34 9 0 9 C0 6.03 0 3.06 0 0 Z " fill="#FFFFFF" transform="translate(240,49)"/>
<path d="M0 0 C2.64 0 5.28 0 8 0 C8 0.33 8 0.66 8 1 C5.36 1 2.72 1 0 1 C0 0.67 0 0.34 0 0 Z " fill="#FFFFFF" transform="translate(440,109)"/>
<path d="M0 0 C2.64 0 5.28 0 8 0 C8 0.33 8 0.66 8 1 C5.36 1 2.72 1 0 1 C0 0.67 0 0.34 0 0 Z " fill="#FFFFFF" transform="translate(394,64)"/>
<path d="M0 0 C2.64 0 5.28 0 8 0 C8 0.33 8 0.66 8 1 C5.36 1 2.72 1 0 1 C0 0.67 0 0.34 0 0 Z " fill="#FFFFFF" transform="translate(382,64)"/>
<path d="M0 0 C2.64 0 5.28 0 8 0 C8 0.33 8 0.66 8 1 C5.36 1 2.72 1 0 1 C0 0.67 0 0.34 0 0 Z " fill="#FFFFFF" transform="translate(340,64)"/>
<path d="M0 0 C2.64 0 5.28 0 8 0 C8 0.33 8 0.66 8 1 C5.36 1 2.72 1 0 1 C0 0.67 0 0.34 0 0 Z " fill="#FFFFFF" transform="translate(258,64)"/>
<path d="M0 0 C2.64 0 5.28 0 8 0 C8 0.33 8 0.66 8 1 C5.36 1 2.72 1 0 1 C0 0.67 0 0.34 0 0 Z " fill="#FFFFFF" transform="translate(232,64)"/>
<path d="M0 0 C2.31 0.33 4.62 0.66 7 1 C7 1.33 7 1.66 7 2 C4.69 2 2.38 2 0 2 C0 1.34 0 0.68 0 0 Z " fill="#FFFFFF" transform="translate(412,56)"/>
<path d="M0 0 C2.31 0 4.62 0 7 0 C7 0.33 7 0.66 7 1 C4.69 1.33 2.38 1.66 0 2 C0 1.34 0 0.68 0 0 Z " fill="#FFFFFF" transform="translate(390,40)"/>
<path d="M0 0 C2.31 0 4.62 0 7 0 C7 0.33 7 0.66 7 1 C4.69 1 2.38 1 0 1 C0 0.67 0 0.34 0 0 Z " fill="#FFFFFF" transform="translate(30,111)"/>
<path d="M0 0 C2.31 0 4.62 0 7 0 C7 0.33 7 0.66 7 1 C4.69 1 2.38 1 0 1 C0 0.67 0 0.34 0 0 Z " fill="#FFFFFF" transform="translate(182,110)"/>
<path d="M0 0 C2.31 0 4.62 0 7 0 C7 0.33 7 0.66 7 1 C4.69 1 2.38 1 0 1 C0 0.67 0 0.34 0 0 Z " fill="#FFFFFF" transform="translate(314,109)"/>
<path d="M0 0 C0.33 0 0.66 0 1 0 C1 2.31 1 4.62 1 7 C0.67 7 0.34 7 0 7 C0 4.69 0 2.38 0 0 Z " fill="#FFFFFF" transform="translate(364,95)"/>
<path d="M0 0 C0.33 0 0.66 0 1 0 C1 2.31 1 4.62 1 7 C0.67 7 0.34 7 0 7 C0 4.69 0 2.38 0 0 Z " fill="#FFFFFF" transform="translate(213,95)"/>
<path d="M0 0 C0.33 0 0.66 0 1 0 C1 2.31 1 4.62 1 7 C0.67 7 0.34 7 0 7 C0 4.69 0 2.38 0 0 Z " fill="#FFFFFF" transform="translate(207,94)"/>
<path d="M0 0 C2.31 0 4.62 0 7 0 C7 0.33 7 0.66 7 1 C4.69 1 2.38 1 0 1 C0 0.67 0 0.34 0 0 Z " fill="#FFFFFF" transform="translate(234,86)"/>
<path d="M0 0 C2.31 0 4.62 0 7 0 C7 0.33 7 0.66 7 1 C4.69 1 2.38 1 0 1 C0 0.67 0 0.34 0 0 Z " fill="#FFFFFF" transform="translate(222,86)"/>
<path d="M0 0 C2.31 0 4.62 0 7 0 C7 0.33 7 0.66 7 1 C4.69 1 2.38 1 0 1 C0 0.67 0 0.34 0 0 Z " fill="#FFFFFF" transform="translate(411,40)"/>
<path d="M0 0 C2.31 0 4.62 0 7 0 C7 0.33 7 0.66 7 1 C4.69 1 2.38 1 0 1 C0 0.67 0 0.34 0 0 Z " fill="#FFFFFF" transform="translate(324,40)"/>
<path d="M0 0 C2.31 0 4.62 0 7 0 C7 0.33 7 0.66 7 1 C4.69 1 2.38 1 0 1 C0 0.67 0 0.34 0 0 Z " fill="#FFFFFF" transform="translate(182,39)"/>
<path d="M0 0 C1.98 0 3.96 0 6 0 C6 0.33 6 0.66 6 1 C4.02 1 2.04 1 0 1 C0 0.67 0 0.34 0 0 Z " fill="#FFFFFF" transform="translate(404,110)"/>
<path d="M0 0 C1.98 0 3.96 0 6 0 C6 0.33 6 0.66 6 1 C4.02 1 2.04 1 0 1 C0 0.67 0 0.34 0 0 Z " fill="#FFFFFF" transform="translate(373,110)"/>
<path d="M0 0 C1.98 0 3.96 0 6 0 C6 0.33 6 0.66 6 1 C4.02 1 2.04 1 0 1 C0 0.67 0 0.34 0 0 Z " fill="#FFFFFF" transform="translate(353,110)"/>
<path d="M0 0 C1.98 0 3.96 0 6 0 C6 0.33 6 0.66 6 1 C4.02 1 2.04 1 0 1 C0 0.67 0 0.34 0 0 Z " fill="#FFFFFF" transform="translate(249,110)"/>
<path d="M0 0 C1.98 0 3.96 0 6 0 C6 0.33 6 0.66 6 1 C4.02 1 2.04 1 0 1 C0 0.67 0 0.34 0 0 Z " fill="#FFFFFF" transform="translate(208,110)"/>
<path d="M0 0 C0.33 0 0.66 0 1 0 C1 1.98 1 3.96 1 6 C0.67 6 0.34 6 0 6 C0 4.02 0 2.04 0 0 Z " fill="#FFFFFF" transform="translate(170,92)"/>
<path d="M0 0 C1.98 0 3.96 0 6 0 C6 0.33 6 0.66 6 1 C4.02 1 2.04 1 0 1 C0 0.67 0 0.34 0 0 Z " fill="#FFFFFF" transform="translate(282,57)"/>
<path d="M0 0 C0.33 0 0.66 0 1 0 C1 1.98 1 3.96 1 6 C0.67 6 0.34 6 0 6 C0 4.02 0 2.04 0 0 Z " fill="#FFFFFF" transform="translate(315,50)"/>
<path d="M0 0 C0.33 0 0.66 0 1 0 C1 1.98 1 3.96 1 6 C0.67 6 0.34 6 0 6 C0 4.02 0 2.04 0 0 Z " fill="#FFFFFF" transform="translate(170,46)"/>
<path d="M0 0 C0.33 0 0.66 0 1 0 C1 1.65 1 3.3 1 5 C0.34 3.68 -0.32 2.36 -1 1 C-0.67 0.67 -0.34 0.34 0 0 Z " fill="#FFFFFF" transform="translate(239,43)"/>
<path d="M0 0 C1.98 0 3.96 0 6 0 C6 0.33 6 0.66 6 1 C4.02 1 2.04 1 0 1 C0 0.67 0 0.34 0 0 Z " fill="#FFFFFF" transform="translate(281,40)"/>
<path d="M0 0 C1.98 0 3.96 0 6 0 C6 0.33 6 0.66 6 1 C4.02 1 2.04 1 0 1 C0 0.67 0 0.34 0 0 Z " fill="#FFFFFF" transform="translate(205,40)"/>
<path d="M0 0 C1.98 0 3.96 0 6 0 C6 0.33 6 0.66 6 1 C4.02 1 2.04 1 0 1 C0 0.67 0 0.34 0 0 Z " fill="#FFFFFF" transform="translate(183,32)"/>
<path d="M0 0 C1.65 0 3.3 0 5 0 C5 0.33 5 0.66 5 1 C3.35 1 1.7 1 0 1 C0 0.67 0 0.34 0 0 Z " fill="#FFFFFF" transform="translate(306,110)"/>
<path d="M0 0 C1.32 0.33 2.64 0.66 4 1 C2.68 1.33 1.36 1.66 0 2 C0 1.34 0 0.68 0 0 Z " fill="#FFFFFF" transform="translate(208,92)"/>
<path d="M0 0 C0.33 1.32 0.66 2.64 1 4 C0.34 3.34 -0.32 2.68 -1 2 C-0.67 1.34 -0.34 0.68 0 0 Z " fill="#FFFFFF" transform="translate(416,88)"/>
<path d="M0 0 C0.33 1.32 0.66 2.64 1 4 C0.34 3.67 -0.32 3.34 -1 3 C-0.67 2.01 -0.34 1.02 0 0 Z " fill="#FFFFFF" transform="translate(419,83)"/>
<path d="M0 0 C1.65 0 3.3 0 5 0 C5 0.33 5 0.66 5 1 C3.35 1 1.7 1 0 1 C0 0.67 0 0.34 0 0 Z " fill="#FFFFFF" transform="translate(205,47)"/>
<path d="M0 0 C0.33 0 0.66 0 1 0 C1 1.65 1 3.3 1 5 C0.67 5 0.34 5 0 5 C0 3.35 0 1.7 0 0 Z " fill="#FFFFFF" transform="translate(178,46)"/>
<path d="M0 0 C1.65 0 3.3 0 5 0 C5 0.33 5 0.66 5 1 C3.35 1 1.7 1 0 1 C0 0.67 0 0.34 0 0 Z " fill="#FFFFFF" transform="translate(267,40)"/>
<path d="M0 0 C1.65 0 3.3 0 5 0 C5 0.33 5 0.66 5 1 C3.35 1 1.7 1 0 1 C0 0.67 0 0.34 0 0 Z " fill="#FFFFFF" transform="translate(229,40)"/>
<path d="M0 0 C4 1 4 1 4 1 Z " fill="#FFFFFF" transform="translate(404,92)"/>
<path d="M0 0 C4 1 4 1 4 1 Z " fill="#FFFFFF" transform="translate(354,92)"/>
<path d="M0 0 C0.99 0.495 0.99 0.495 2 1 C1.34 1.66 0.68 2.32 0 3 C0 2.01 0 1.02 0 0 Z " fill="#FFFFFF" transform="translate(365,91)"/>
<path d="M0 0 C0.66 0 1.32 0 2 0 C1.67 0.99 1.34 1.98 1 3 C0.67 2.01 0.34 1.02 0 0 Z " fill="#FFFFFF" transform="translate(259,89)"/>
<path d="M0 0 C4 1 4 1 4 1 Z " fill="#FFFFFF" transform="translate(405,85)"/>
<path d="M0 0 C4 1 4 1 4 1 Z " fill="#FFFFFF" transform="translate(355,85)"/>
<path d="M0 0 C4 1 4 1 4 1 Z " fill="#FFFFFF" transform="translate(250,85)"/>
<path d="M0 0 C4 1 4 1 4 1 Z " fill="#FFFFFF" transform="translate(209,85)"/>
<path d="M0 0 C1 4 1 4 1 4 Z " fill="#FFFFFF" transform="translate(434,80)"/>
<path d="M0 0 C4 1 4 1 4 1 Z " fill="#FFFFFF" transform="translate(187,64)"/>
<path d="M0 0 C4 1 4 1 4 1 Z " fill="#FFFFFF" transform="translate(182,57)"/>
<path d="M0 0 C1 4 1 4 1 4 Z " fill="#FFFFFF" transform="translate(205,53)"/>
<path d="M0 0 C4 1 4 1 4 1 Z " fill="#FFFFFF" transform="translate(412,47)"/>
<path d="M0 0 C4 1 4 1 4 1 Z " fill="#FFFFFF" transform="translate(375,47)"/>
<path d="M0 0 C4 1 4 1 4 1 Z " fill="#FFFFFF" transform="translate(281,47)"/>
<path d="M0 0 C0 3 0 3 0 3 Z " fill="#FFFFFF" transform="translate(337,44)"/>
<path d="M0 0 C0.66 0.66 1.32 1.32 2 2 C1.01 2.495 1.01 2.495 0 3 C0 2.01 0 1.02 0 0 Z " fill="#FFFFFF" transform="translate(318,43)"/>
<path d="M0 0 C4 1 4 1 4 1 Z " fill="#FFFFFF" transform="translate(340,41)"/>
<path d="M0 0 C4 1 4 1 4 1 Z " fill="#FFFFFF" transform="translate(257,41)"/>
<path d="M0 0 C4 1 4 1 4 1 Z " fill="#FFFFFF" transform="translate(219,41)"/>
<path d="M0 0 C4 1 4 1 4 1 Z " fill="#FFFFFF" transform="translate(375,40)"/>
<path d="M0 0 C4 1 4 1 4 1 Z " fill="#FFFFFF" transform="translate(350,40)"/>
<path d="M0 0 C0.66 0.66 1.32 1.32 2 2 C1.34 2 0.68 2 0 2 C0 1.34 0 0.68 0 0 Z " fill="#FFFFFF" transform="translate(208,102)"/>
<path d="" fill="#FFFFFF" transform="translate(0,0)"/>
<path d="" fill="#FFFFFF" transform="translate(0,0)"/>
<path d="M0 0 C0.66 0.66 1.32 1.32 2 2 C1.34 2 0.68 2 0 2 C0 1.34 0 0.68 0 0 Z " fill="#FFFFFF" transform="translate(238,97)"/>
<path d="" fill="#FFFFFF" transform="translate(0,0)"/>
<path d="" fill="#FFFFFF" transform="translate(0,0)"/>
<path d="M0 0 C3 1 3 1 3 1 Z " fill="#FFFFFF" transform="translate(34,90)"/>
<path d="M0 0 C3 1 3 1 3 1 Z " fill="#FFFFFF" transform="translate(30,90)"/>
<path d="M0 0 C0.99 0.495 0.99 0.495 2 1 C1.01 1.495 1.01 1.495 0 2 C0 1.34 0 0.68 0 0 Z " fill="#FFFFFF" transform="translate(243,89)"/>
<path d="" fill="#FFFFFF" transform="translate(0,0)"/>
<path d="M0 0 C3 1 3 1 3 1 Z " fill="#FFFFFF" transform="translate(262,87)"/>
<path d="M0 0 C3 1 3 1 3 1 Z " fill="#FFFFFF" transform="translate(331,86)"/>
<path d="M0 0 C3 1 3 1 3 1 Z " fill="#FFFFFF" transform="translate(266,86)"/>
<path d="M0 0 C3 1 3 1 3 1 Z " fill="#FFFFFF" transform="translate(375,85)"/>
<path d="M0 0 C3 1 3 1 3 1 Z " fill="#FFFFFF" transform="translate(311,85)"/>
<path d="M0 0 C3 1 3 1 3 1 Z " fill="#FFFFFF" transform="translate(291,85)"/>
<path d="M0 0 C3 1 3 1 3 1 Z " fill="#FFFFFF" transform="translate(410,64)"/>
<path d="M0 0 C3 1 3 1 3 1 Z " fill="#FFFFFF" transform="translate(375,64)"/>
<path d="M0 0 C3 1 3 1 3 1 Z " fill="#FFFFFF" transform="translate(323,64)"/>
<path d="M0 0 C3 1 3 1 3 1 Z " fill="#FFFFFF" transform="translate(285,64)"/>
<path d="M0 0 C3 1 3 1 3 1 Z " fill="#FFFFFF" transform="translate(279,64)"/>
<path d="M0 0 C3 1 3 1 3 1 Z " fill="#FFFFFF" transform="translate(246,64)"/>
<path d="M0 0 C3 1 3 1 3 1 Z " fill="#FFFFFF" transform="translate(209,64)"/>
<path d="M0 0 C3 1 3 1 3 1 Z " fill="#FFFFFF" transform="translate(180,64)"/>
<path d="M0 0 C0.33 0.66 0.66 1.32 1 2 C0.34 1.67 -0.32 1.34 -1 1 C-0.67 0.67 -0.34 0.34 0 0 Z " fill="#FFFFFF" transform="translate(217,60)"/>
<path d="M0 0 C3 1 3 1 3 1 Z " fill="#FFFFFF" transform="translate(326,58)"/>
<path d="" fill="#FFFFFF" transform="translate(0,0)"/>
<path d="M0 0 C3 1 3 1 3 1 Z " fill="#FFFFFF" transform="translate(315,40)"/>
<path d="M0 0 C3 1 3 1 3 1 Z " fill="#FFFFFF" transform="translate(70,17)"/>
<path d="M0 0 C2 1 2 1 2 1 Z " fill="#FFFFFF" transform="translate(37,110)"/>
<path d="M0 0 C2 1 2 1 2 1 Z " fill="#FFFFFF" transform="translate(28,110)"/>
<path d="M0 0 C2 1 2 1 2 1 Z " fill="#FFFFFF" transform="translate(401,109)"/>
<path d="M0 0 C2 1 2 1 2 1 Z " fill="#FFFFFF" transform="translate(379,109)"/>
<path d="M0 0 C2 1 2 1 2 1 Z " fill="#FFFFFF" transform="translate(359,109)"/>
<path d="M0 0 C2 1 2 1 2 1 Z " fill="#FFFFFF" transform="translate(311,109)"/>
<path d="M0 0 C2 1 2 1 2 1 Z " fill="#FFFFFF" transform="translate(304,109)"/>
<path d="M0 0 C2 1 2 1 2 1 Z " fill="#FFFFFF" transform="translate(255,109)"/>
<path d="M0 0 C2 1 2 1 2 1 Z " fill="#FFFFFF" transform="translate(246,109)"/>
<path d="M0 0 C2 1 2 1 2 1 Z " fill="#FFFFFF" transform="translate(205,109)"/>
<path d="M0 0 C2 1 2 1 2 1 Z " fill="#FFFFFF" transform="translate(179,109)"/>
<path d="M0 0 C2 1 2 1 2 1 Z " fill="#FFFFFF" transform="translate(177,108)"/>
<path d="" fill="#FFFFFF" transform="translate(0,0)"/>
<path d="" fill="#FFFFFF" transform="translate(0,0)"/>
<path d="" fill="#FFFFFF" transform="translate(0,0)"/>
<path d="" fill="#FFFFFF" transform="translate(0,0)"/>
<path d="" fill="#FFFFFF" transform="translate(0,0)"/>
<path d="" fill="#FFFFFF" transform="translate(0,0)"/>
<path d="" fill="#FFFFFF" transform="translate(0,0)"/>
<path d="" fill="#FFFFFF" transform="translate(0,0)"/>
<path d="" fill="#FFFFFF" transform="translate(0,0)"/>
<path d="" fill="#FFFFFF" transform="translate(0,0)"/>
<path d="" fill="#FFFFFF" transform="translate(0,0)"/>
<path d="" fill="#FFFFFF" transform="translate(0,0)"/>
<path d="" fill="#FFFFFF" transform="translate(0,0)"/>
<path d="" fill="#FFFFFF" transform="translate(0,0)"/>
<path d="" fill="#FFFFFF" transform="translate(0,0)"/>
<path d="" fill="#FFFFFF" transform="translate(0,0)"/>
<path d="" fill="#FFFFFF" transform="translate(0,0)"/>
<path d="" fill="#FFFFFF" transform="translate(0,0)"/>
<path d="" fill="#FFFFFF" transform="translate(0,0)"/>
<path d="" fill="#FFFFFF" transform="translate(0,0)"/>
<path d="" fill="#FFFFFF" transform="translate(0,0)"/>
<path d="" fill="#FFFFFF" transform="translate(0,0)"/>
<path d="" fill="#FFFFFF" transform="translate(0,0)"/>
<path d="M0 0 C2 1 2 1 2 1 Z " fill="#FFFFFF" transform="translate(451,95)"/>
<path d="" fill="#FFFFFF" transform="translate(0,0)"/>
<path d="" fill="#FFFFFF" transform="translate(0,0)"/>
<path d="" fill="#FFFFFF" transform="translate(0,0)"/>
<path d="" fill="#FFFFFF" transform="translate(0,0)"/>
<path d="" fill="#FFFFFF" transform="translate(0,0)"/>
<path d="" fill="#FFFFFF" transform="translate(0,0)"/>
<path d="M0 0 C2 1 2 1 2 1 Z " fill="#FFFFFF" transform="translate(272,93)"/>
<path d="" fill="#FFFFFF" transform="translate(0,0)"/>
<path d="" fill="#FFFFFF" transform="translate(0,0)"/>
<path d="" fill="#FFFFFF" transform="translate(0,0)"/>
<path d="" fill="#FFFFFF" transform="translate(0,0)"/>
<path d="M0 0 C2 1 2 1 2 1 Z " fill="#FFFFFF" transform="translate(319,90)"/>
<path d="" fill="#FFFFFF" transform="translate(0,0)"/>
<path d="" fill="#FFFFFF" transform="translate(0,0)"/>
<path d="" fill="#FFFFFF" transform="translate(0,0)"/>
<path d="" fill="#FFFFFF" transform="translate(0,0)"/>
<path d="M0 0 C2 1 2 1 2 1 Z " fill="#FFFFFF" transform="translate(411,87)"/>
<path d="M0 0 C2 1 2 1 2 1 Z " fill="#FFFFFF" transform="translate(361,87)"/>
<path d="M0 0 C2 1 2 1 2 1 Z " fill="#FFFFFF" transform="translate(350,87)"/>
<path d="M0 0 C2 1 2 1 2 1 Z " fill="#FFFFFF" transform="translate(323,87)"/>
<path d="M0 0 C2 1 2 1 2 1 Z " fill="#FFFFFF" transform="translate(305,87)"/>
<path d="M0 0 C2 1 2 1 2 1 Z " fill="#FFFFFF" transform="translate(296,87)"/>
<path d="M0 0 C2 1 2 1 2 1 Z " fill="#FFFFFF" transform="translate(280,87)"/>
<path d="M0 0 C2 1 2 1 2 1 Z " fill="#FFFFFF" transform="translate(270,87)"/>
<path d="M0 0 C2 1 2 1 2 1 Z " fill="#FFFFFF" transform="translate(256,87)"/>
<path d="M0 0 C2 1 2 1 2 1 Z " fill="#FFFFFF" transform="translate(215,87)"/>
<path d="" fill="#FFFFFF" transform="translate(0,0)"/>
<path d="" fill="#FFFFFF" transform="translate(0,0)"/>
<path d="M0 0 C2 1 2 1 2 1 Z " fill="#FFFFFF" transform="translate(409,86)"/>
<path d="M0 0 C2 1 2 1 2 1 Z " fill="#FFFFFF" transform="translate(402,86)"/>
<path d="M0 0 C2 1 2 1 2 1 Z " fill="#FFFFFF" transform="translate(378,86)"/>
<path d="M0 0 C2 1 2 1 2 1 Z " fill="#FFFFFF" transform="translate(372,86)"/>
<path d="M0 0 C2 1 2 1 2 1 Z " fill="#FFFFFF" transform="translate(359,86)"/>
<path d="M0 0 C2 1 2 1 2 1 Z " fill="#FFFFFF" transform="translate(352,86)"/>
<path d="M0 0 C2 1 2 1 2 1 Z " fill="#FFFFFF" transform="translate(337,86)"/>
<path d="M0 0 C2 1 2 1 2 1 Z " fill="#FFFFFF" transform="translate(326,86)"/>
<path d="M0 0 C2 1 2 1 2 1 Z " fill="#FFFFFF" transform="translate(314,86)"/>
<path d="M0 0 C2 1 2 1 2 1 Z " fill="#FFFFFF" transform="translate(307,86)"/>
<path d="M0 0 C2 1 2 1 2 1 Z " fill="#FFFFFF" transform="translate(294,86)"/>
<path d="M0 0 C2 1 2 1 2 1 Z " fill="#FFFFFF" transform="translate(288,86)"/>
<path d="M0 0 C2 1 2 1 2 1 Z " fill="#FFFFFF" transform="translate(283,86)"/>
<path d="M0 0 C2 1 2 1 2 1 Z " fill="#FFFFFF" transform="translate(272,86)"/>
<path d="M0 0 C2 1 2 1 2 1 Z " fill="#FFFFFF" transform="translate(254,86)"/>
<path d="M0 0 C2 1 2 1 2 1 Z " fill="#FFFFFF" transform="translate(247,86)"/>
<path d="M0 0 C2 1 2 1 2 1 Z " fill="#FFFFFF" transform="translate(213,86)"/>
<path d="M0 0 C2 1 2 1 2 1 Z " fill="#FFFFFF" transform="translate(206,86)"/>
<path d="M0 0 C2 1 2 1 2 1 Z " fill="#FFFFFF" transform="translate(335,85)"/>
<path d="" fill="#FFFFFF" transform="translate(0,0)"/>
<path d="" fill="#FFFFFF" transform="translate(0,0)"/>
<path d="" fill="#FFFFFF" transform="translate(0,0)"/>
<path d="" fill="#FFFFFF" transform="translate(0,0)"/>
<path d="" fill="#FFFFFF" transform="translate(0,0)"/>
<path d="" fill="#FFFFFF" transform="translate(0,0)"/>
<path d="" fill="#FFFFFF" transform="translate(0,0)"/>
<path d="" fill="#FFFFFF" transform="translate(0,0)"/>
<path d="M0 0 C2 1 2 1 2 1 Z " fill="#FFFFFF" transform="translate(416,64)"/>
<path d="M0 0 C2 1 2 1 2 1 Z " fill="#FFFFFF" transform="translate(371,64)"/>
<path d="M0 0 C2 1 2 1 2 1 Z " fill="#FFFFFF" transform="translate(329,64)"/>
<path d="M0 0 C2 1 2 1 2 1 Z " fill="#FFFFFF" transform="translate(251,64)"/>
<path d="M0 0 C2 1 2 1 2 1 Z " fill="#FFFFFF" transform="translate(204,64)"/>
<path d="M0 0 C2 1 2 1 2 1 Z " fill="#FFFFFF" transform="translate(408,63)"/>
<path d="M0 0 C2 1 2 1 2 1 Z " fill="#FFFFFF" transform="translate(321,63)"/>
<path d="M0 0 C2 1 2 1 2 1 Z " fill="#FFFFFF" transform="translate(288,63)"/>
<path d="M0 0 C2 1 2 1 2 1 Z " fill="#FFFFFF" transform="translate(253,63)"/>
<path d="M0 0 C2 1 2 1 2 1 Z " fill="#FFFFFF" transform="translate(178,63)"/>
<path d="" fill="#FFFFFF" transform="translate(0,0)"/>
<path d="" fill="#FFFFFF" transform="translate(0,0)"/>
<path d="" fill="#FFFFFF" transform="translate(0,0)"/>
<path d="M0 0 C2 1 2 1 2 1 Z " fill="#FFFFFF" transform="translate(375,57)"/>
<path d="" fill="#FFFFFF" transform="translate(0,0)"/>
<path d="M0 0 C2 1 2 1 2 1 Z " fill="#FFFFFF" transform="translate(251,57)"/>
<path d="M0 0 C2 1 2 1 2 1 Z " fill="#FFFFFF" transform="translate(189,57)"/>
<path d="" fill="#FFFFFF" transform="translate(0,0)"/>
<path d="" fill="#FFFFFF" transform="translate(0,0)"/>
<path d="" fill="#FFFFFF" transform="translate(0,0)"/>
<path d="" fill="#FFFFFF" transform="translate(0,0)"/>
<path d="" fill="#FFFFFF" transform="translate(0,0)"/>
<path d="" fill="#FFFFFF" transform="translate(0,0)"/>
<path d="" fill="#FFFFFF" transform="translate(0,0)"/>
<path d="" fill="#FFFFFF" transform="translate(0,0)"/>
<path d="M0 0 C2 1 2 1 2 1 Z " fill="#FFFFFF" transform="translate(409,41)"/>
<path d="M0 0 C2 1 2 1 2 1 Z " fill="#FFFFFF" transform="translate(348,41)"/>
<path d="M0 0 C2 1 2 1 2 1 Z " fill="#FFFFFF" transform="translate(331,41)"/>
<path d="M0 0 C2 1 2 1 2 1 Z " fill="#FFFFFF" transform="translate(322,41)"/>
<path d="M0 0 C2 1 2 1 2 1 Z " fill="#FFFFFF" transform="translate(287,41)"/>
<path d="M0 0 C2 1 2 1 2 1 Z " fill="#FFFFFF" transform="translate(203,41)"/>
<path d="M0 0 C2 1 2 1 2 1 Z " fill="#FFFFFF" transform="translate(344,40)"/>
<path d="M0 0 C2 1 2 1 2 1 Z " fill="#FFFFFF" transform="translate(262,40)"/>
<path d="M0 0 C2 1 2 1 2 1 Z " fill="#FFFFFF" transform="translate(242,40)"/>
<path d="" fill="#FFFFFF" transform="translate(0,0)"/>
<path d="" fill="#FFFFFF" transform="translate(0,0)"/>
<path d="" fill="#FFFFFF" transform="translate(0,0)"/>
<path d="M0 0 C2 1 2 1 2 1 Z " fill="#FFFFFF" transform="translate(371,35)"/>
<path d="" fill="#FFFFFF" transform="translate(0,0)"/>
<path d="M0 0 C2 1 2 1 2 1 Z " fill="#FFFFFF" transform="translate(190,33)"/>
<path d="" fill="#FFFFFF" transform="translate(0,0)"/>
<path d="" fill="#FFFFFF" transform="translate(0,0)"/>
<path d="" fill="#FFFFFF" transform="translate(0,0)"/>
<path d="" fill="#FFFFFF" transform="translate(0,0)"/>
<path d="" fill="#FFFFFF" transform="translate(0,0)"/>
<path d="" fill="#FFFFFF" transform="translate(0,0)"/>
<path d="" fill="#FFFFFF" transform="translate(0,0)"/>
<path d="" fill="#FFFFFF" transform="translate(0,0)"/>
<path d="" fill="#FFFFFF" transform="translate(0,0)"/>
<path d="" fill="#FFFFFF" transform="translate(0,0)"/>
<path d="" fill="#FFFFFF" transform="translate(0,0)"/>
<path d="" fill="#FFFFFF" transform="translate(0,0)"/>
<path d="" fill="#FFFFFF" transform="translate(0,0)"/>
<path d="" fill="#FFFFFF" transform="translate(0,0)"/>
<path d="" fill="#FFFFFF" transform="translate(0,0)"/>
<path d="" fill="#FFFFFF" transform="translate(0,0)"/>
<path d="" fill="#FFFFFF" transform="translate(0,0)"/>
<path d="" fill="#FFFFFF" transform="translate(0,0)"/>
<path d="" fill="#FFFFFF" transform="translate(0,0)"/>
<path d="" fill="#FFFFFF" transform="translate(0,0)"/>
<path d="" fill="#FFFFFF" transform="translate(0,0)"/>
<path d="" fill="#FFFFFF" transform="translate(0,0)"/>
<path d="" fill="#FFFFFF" transform="translate(0,0)"/>
<path d="" fill="#FFFFFF" transform="translate(0,0)"/>
<path d="" fill="#FFFFFF" transform="translate(0,0)"/>
<path d="" fill="#FFFFFF" transform="translate(0,0)"/>
<path d="" fill="#FFFFFF" transform="translate(0,0)"/>
<path d="" fill="#FFFFFF" transform="translate(0,0)"/>
<path d="" fill="#FFFFFF" transform="translate(0,0)"/>
<path d="" fill="#FFFFFF" transform="translate(0,0)"/>
<path d="" fill="#FFFFFF" transform="translate(0,0)"/>
<path d="" fill="#FFFFFF" transform="translate(0,0)"/>
<path d="" fill="#FFFFFF" transform="translate(0,0)"/>
<path d="" fill="#FFFFFF" transform="translate(0,0)"/>
<path d="" fill="#FFFFFF" transform="translate(0,0)"/>
<path d="" fill="#FFFFFF" transform="translate(0,0)"/>
<path d="" fill="#FFFFFF" transform="translate(0,0)"/>
<path d="" fill="#FFFFFF" transform="translate(0,0)"/>
<path d="" fill="#FFFFFF" transform="translate(0,0)"/>
<path d="" fill="#FFFFFF" transform="translate(0,0)"/>
<path d="" fill="#FFFFFF" transform="translate(0,0)"/>
<path d="" fill="#FFFFFF" transform="translate(0,0)"/>
<path d="" fill="#FFFFFF" transform="translate(0,0)"/>
<path d="" fill="#FFFFFF" transform="translate(0,0)"/>
<path d="" fill="#FFFFFF" transform="translate(0,0)"/>
<path d="" fill="#FFFFFF" transform="translate(0,0)"/>
<path d="" fill="#FFFFFF" transform="translate(0,0)"/>
<path d="" fill="#FFFFFF" transform="translate(0,0)"/>
<path d="" fill="#FFFFFF" transform="translate(0,0)"/>
<path d="" fill="#FFFFFF" transform="translate(0,0)"/>
<path d="" fill="#FFFFFF" transform="translate(0,0)"/>
<path d="" fill="#FFFFFF" transform="translate(0,0)"/>
<path d="" fill="#FFFFFF" transform="translate(0,0)"/>
<path d="" fill="#FFFFFF" transform="translate(0,0)"/>
<path d="" fill="#FFFFFF" transform="translate(0,0)"/>
<path d="" fill="#FFFFFF" transform="translate(0,0)"/>
<path d="" fill="#FFFFFF" transform="translate(0,0)"/>
<path d="" fill="#FFFFFF" transform="translate(0,0)"/>
<path d="" fill="#FFFFFF" transform="translate(0,0)"/>
<path d="" fill="#FFFFFF" transform="translate(0,0)"/>
<path d="" fill="#FFFFFF" transform="translate(0,0)"/>
<path d="" fill="#FFFFFF" transform="translate(0,0)"/>
<path d="" fill="#FFFFFF" transform="translate(0,0)"/>
<path d="" fill="#FFFFFF" transform="translate(0,0)"/>
<path d="" fill="#FFFFFF" transform="translate(0,0)"/>
<path d="" fill="#FFFFFF" transform="translate(0,0)"/>
<path d="" fill="#FFFFFF" transform="translate(0,0)"/>
<path d="" fill="#FFFFFF" transform="translate(0,0)"/>
<path d="" fill="#FFFFFF" transform="translate(0,0)"/>
<path d="" fill="#FFFFFF" transform="translate(0,0)"/>
<path d="" fill="#FFFFFF" transform="translate(0,0)"/>
<path d="" fill="#FFFFFF" transform="translate(0,0)"/>
<path d="" fill="#FFFFFF" transform="translate(0,0)"/>
<path d="" fill="#FFFFFF" transform="translate(0,0)"/>
<path d="" fill="#FFFFFF" transform="translate(0,0)"/>
<path d="" fill="#FFFFFF" transform="translate(0,0)"/>
<path d="" fill="#FFFFFF" transform="translate(0,0)"/>
<path d="" fill="#FFFFFF" transform="translate(0,0)"/>
<path d="" fill="#FFFFFF" transform="translate(0,0)"/>
<path d="" fill="#FFFFFF" transform="translate(0,0)"/>
<path d="" fill="#FFFFFF" transform="translate(0,0)"/>
<path d="" fill="#FFFFFF" transform="translate(0,0)"/>
<path d="" fill="#FFFFFF" transform="translate(0,0)"/>
<path d="" fill="#FFFFFF" transform="translate(0,0)"/>
<path d="" fill="#FFFFFF" transform="translate(0,0)"/>
<path d="" fill="#FFFFFF" transform="translate(0,0)"/>
<path d="" fill="#FFFFFF" transform="translate(0,0)"/>
<path d="" fill="#FFFFFF" transform="translate(0,0)"/>
<path d="" fill="#FFFFFF" transform="translate(0,0)"/>
<path d="" fill="#FFFFFF" transform="translate(0,0)"/>
<path d="" fill="#FFFFFF" transform="translate(0,0)"/>
<path d="" fill="#FFFFFF" transform="translate(0,0)"/>
<path d="" fill="#FFFFFF" transform="translate(0,0)"/>
<path d="" fill="#FFFFFF" transform="translate(0,0)"/>
<path d="" fill="#FFFFFF" transform="translate(0,0)"/>
<path d="" fill="#FFFFFF" transform="translate(0,0)"/>
<path d="" fill="#FFFFFF" transform="translate(0,0)"/>
<path d="" fill="#FFFFFF" transform="translate(0,0)"/>
<path d="" fill="#FFFFFF" transform="translate(0,0)"/>
<path d="" fill="#FFFFFF" transform="translate(0,0)"/>
<path d="" fill="#FFFFFF" transform="translate(0,0)"/>
<path d="" fill="#FFFFFF" transform="translate(0,0)"/>
<path d="" fill="#FFFFFF" transform="translate(0,0)"/>
<path d="" fill="#FFFFFF" transform="translate(0,0)"/>
<path d="" fill="#FFFFFF" transform="translate(0,0)"/>
<path d="" fill="#FFFFFF" transform="translate(0,0)"/>
<path d="" fill="#FFFFFF" transform="translate(0,0)"/>
<path d="" fill="#FFFFFF" transform="translate(0,0)"/>
<path d="" fill="#FFFFFF" transform="translate(0,0)"/>
<path d="" fill="#FFFFFF" transform="translate(0,0)"/>
<path d="" fill="#FFFFFF" transform="translate(0,0)"/>
<path d="" fill="#FFFFFF" transform="translate(0,0)"/>
<path d="" fill="#FFFFFF" transform="translate(0,0)"/>
<path d="" fill="#FFFFFF" transform="translate(0,0)"/>
<path d="" fill="#FFFFFF" transform="translate(0,0)"/>
<path d="" fill="#FFFFFF" transform="translate(0,0)"/>
<path d="" fill="#FFFFFF" transform="translate(0,0)"/>
<path d="" fill="#FFFFFF" transform="translate(0,0)"/>
<path d="" fill="#FFFFFF" transform="translate(0,0)"/>
<path d="" fill="#FFFFFF" transform="translate(0,0)"/>
<path d="" fill="#FFFFFF" transform="translate(0,0)"/>
<path d="" fill="#FFFFFF" transform="translate(0,0)"/>
<path d="" fill="#FFFFFF" transform="translate(0,0)"/>
<path d="" fill="#FFFFFF" transform="translate(0,0)"/>
<path d="" fill="#FFFFFF" transform="translate(0,0)"/>
<path d="" fill="#FFFFFF" transform="translate(0,0)"/>
<path d="" fill="#FFFFFF" transform="translate(0,0)"/>
<path d="" fill="#FFFFFF" transform="translate(0,0)"/>
<path d="" fill="#FFFFFF" transform="translate(0,0)"/>
<path d="" fill="#FFFFFF" transform="translate(0,0)"/>
<path d="" fill="#FFFFFF" transform="translate(0,0)"/>
<path d="" fill="#FFFFFF" transform="translate(0,0)"/>
<path d="" fill="#FFFFFF" transform="translate(0,0)"/>
<path d="" fill="#FFFFFF" transform="translate(0,0)"/>
<path d="" fill="#FFFFFF" transform="translate(0,0)"/>
<path d="" fill="#FFFFFF" transform="translate(0,0)"/>
<path d="" fill="#FFFFFF" transform="translate(0,0)"/>
<path d="" fill="#FFFFFF" transform="translate(0,0)"/>
<path d="" fill="#FFFFFF" transform="translate(0,0)"/>
<path d="" fill="#FFFFFF" transform="translate(0,0)"/>
<path d="" fill="#FFFFFF" transform="translate(0,0)"/>
<path d="" fill="#FFFFFF" transform="translate(0,0)"/>
<path d="" fill="#FFFFFF" transform="translate(0,0)"/>
<path d="" fill="#FFFFFF" transform="translate(0,0)"/>
<path d="" fill="#FFFFFF" transform="translate(0,0)"/>
<path d="" fill="#FFFFFF" transform="translate(0,0)"/>
<path d="" fill="#FFFFFF" transform="translate(0,0)"/>
<path d="" fill="#FFFFFF" transform="translate(0,0)"/>
<path d="" fill="#FFFFFF" transform="translate(0,0)"/>
<path d="" fill="#FFFFFF" transform="translate(0,0)"/>
<path d="" fill="#FFFFFF" transform="translate(0,0)"/>
<path d="" fill="#FFFFFF" transform="translate(0,0)"/>
<path d="" fill="#FFFFFF" transform="translate(0,0)"/>
<path d="" fill="#FFFFFF" transform="translate(0,0)"/>
<path d="" fill="#FFFFFF" transform="translate(0,0)"/>
<path d="" fill="#FFFFFF" transform="translate(0,0)"/>
<path d="" fill="#FFFFFF" transform="translate(0,0)"/>
<path d="" fill="#FFFFFF" transform="translate(0,0)"/>
<path d="" fill="#FFFFFF" transform="translate(0,0)"/>
<path d="" fill="#FFFFFF" transform="translate(0,0)"/>
<path d="" fill="#FFFFFF" transform="translate(0,0)"/>
<path d="" fill="#FFFFFF" transform="translate(0,0)"/>
<path d="" fill="#FFFFFF" transform="translate(0,0)"/>
<path d="" fill="#FFFFFF" transform="translate(0,0)"/>
<path d="" fill="#FFFFFF" transform="translate(0,0)"/>
<path d="" fill="#FFFFFF" transform="translate(0,0)"/>
<path d="" fill="#FFFFFF" transform="translate(0,0)"/>
<path d="" fill="#FFFFFF" transform="translate(0,0)"/>
<path d="" fill="#FFFFFF" transform="translate(0,0)"/>
<path d="" fill="#FFFFFF" transform="translate(0,0)"/>
<path d="" fill="#FFFFFF" transform="translate(0,0)"/>
<path d="" fill="#FFFFFF" transform="translate(0,0)"/>
<path d="" fill="#FFFFFF" transform="translate(0,0)"/>
<path d="" fill="#FFFFFF" transform="translate(0,0)"/>
<path d="" fill="#FFFFFF" transform="translate(0,0)"/>
<path d="" fill="#FFFFFF" transform="translate(0,0)"/>
<path d="" fill="#FFFFFF" transform="translate(0,0)"/>
<path d="" fill="#FFFFFF" transform="translate(0,0)"/>
<path d="" fill="#FFFFFF" transform="translate(0,0)"/>
<path d="" fill="#FFFFFF" transform="translate(0,0)"/>
<path d="" fill="#FFFFFF" transform="translate(0,0)"/>
<path d="" fill="#FFFFFF" transform="translate(0,0)"/>
<path d="" fill="#FFFFFF" transform="translate(0,0)"/>
<path d="" fill="#FFFFFF" transform="translate(0,0)"/>
<path d="" fill="#FFFFFF" transform="translate(0,0)"/>
<path d="" fill="#FFFFFF" transform="translate(0,0)"/>
<path d="" fill="#FFFFFF" transform="translate(0,0)"/>
<path d="" fill="#FFFFFF" transform="translate(0,0)"/>
<path d="" fill="#FFFFFF" transform="translate(0,0)"/>
<path d="" fill="#FFFFFF" transform="translate(0,0)"/>
<path d="" fill="#FFFFFF" transform="translate(0,0)"/>
<path d="" fill="#FFFFFF" transform="translate(0,0)"/>
<path d="" fill="#FFFFFF" transform="translate(0,0)"/>
<path d="" fill="#FFFFFF" transform="translate(0,0)"/>
<path d="" fill="#FFFFFF" transform="translate(0,0)"/>
<path d="" fill="#FFFFFF" transform="translate(0,0)"/>
<path d="" fill="#FFFFFF" transform="translate(0,0)"/>
<path d="" fill="#FFFFFF" transform="translate(0,0)"/>
<path d="" fill="#FFFFFF" transform="translate(0,0)"/>
<path d="" fill="#FFFFFF" transform="translate(0,0)"/>
<path d="" fill="#FFFFFF" transform="translate(0,0)"/>
<path d="" fill="#FFFFFF" transform="translate(0,0)"/>
<path d="" fill="#FFFFFF" transform="translate(0,0)"/>
<path d="" fill="#FFFFFF" transform="translate(0,0)"/>
<path d="" fill="#FFFFFF" transform="translate(0,0)"/>
<path d="" fill="#FFFFFF" transform="translate(0,0)"/>
<path d="" fill="#FFFFFF" transform="translate(0,0)"/>
<path d="" fill="#FFFFFF" transform="translate(0,0)"/>
<path d="" fill="#FFFFFF" transform="translate(0,0)"/>
<path d="" fill="#FFFFFF" transform="translate(0,0)"/>
<path d="" fill="#FFFFFF" transform="translate(0,0)"/>
<path d="" fill="#FFFFFF" transform="translate(0,0)"/>
<path d="" fill="#FFFFFF" transform="translate(0,0)"/>
<path d="" fill="#FFFFFF" transform="translate(0,0)"/>
<path d="" fill="#FFFFFF" transform="translate(0,0)"/>
<path d="" fill="#FFFFFF" transform="translate(0,0)"/>
<path d="" fill="#FFFFFF" transform="translate(0,0)"/>
<path d="" fill="#FFFFFF" transform="translate(0,0)"/>
<path d="" fill="#FFFFFF" transform="translate(0,0)"/>
<path d="" fill="#FFFFFF" transform="translate(0,0)"/>
<path d="" fill="#FFFFFF" transform="translate(0,0)"/>
<path d="" fill="#FFFFFF" transform="translate(0,0)"/>
<path d="" fill="#FFFFFF" transform="translate(0,0)"/>
<path d="" fill="#FFFFFF" transform="translate(0,0)"/>
<path d="" fill="#FFFFFF" transform="translate(0,0)"/>
<path d="" fill="#FFFFFF" transform="translate(0,0)"/>
<path d="" fill="#FFFFFF" transform="translate(0,0)"/>
<path d="" fill="#FFFFFF" transform="translate(0,0)"/>
<path d="" fill="#FFFFFF" transform="translate(0,0)"/>
<path d="" fill="#FFFFFF" transform="translate(0,0)"/>
<path d="" fill="#FFFFFF" transform="translate(0,0)"/>
<path d="" fill="#FFFFFF" transform="translate(0,0)"/>
<path d="" fill="#FFFFFF" transform="translate(0,0)"/>
<path d="" fill="#FFFFFF" transform="translate(0,0)"/>
<path d="" fill="#FFFFFF" transform="translate(0,0)"/>
<path d="" fill="#FFFFFF" transform="translate(0,0)"/>
<path d="" fill="#FFFFFF" transform="translate(0,0)"/>
<path d="" fill="#FFFFFF" transform="translate(0,0)"/>
<path d="" fill="#FFFFFF" transform="translate(0,0)"/>
<path d="" fill="#FFFFFF" transform="translate(0,0)"/>
<path d="" fill="#FFFFFF" transform="translate(0,0)"/>
<path d="" fill="#FFFFFF" transform="translate(0,0)"/>
<path d="" fill="#FFFFFF" transform="translate(0,0)"/>
<path d="" fill="#FFFFFF" transform="translate(0,0)"/>
<path d="" fill="#FFFFFF" transform="translate(0,0)"/>
<path d="" fill="#FFFFFF" transform="translate(0,0)"/>
<path d="" fill="#FFFFFF" transform="translate(0,0)"/>
<path d="" fill="#FFFFFF" transform="translate(0,0)"/>
<path d="" fill="#FFFFFF" transform="translate(0,0)"/>
<path d="" fill="#FFFFFF" transform="translate(0,0)"/>
<path d="" fill="#FFFFFF" transform="translate(0,0)"/>
<path d="" fill="#FFFFFF" transform="translate(0,0)"/>
<path d="" fill="#FFFFFF" transform="translate(0,0)"/>
<path d="" fill="#FFFFFF" transform="translate(0,0)"/>
<path d="" fill="#FFFFFF" transform="translate(0,0)"/>
<path d="" fill="#FFFFFF" transform="translate(0,0)"/>
<path d="" fill="#FFFFFF" transform="translate(0,0)"/>
<path d="" fill="#FFFFFF" transform="translate(0,0)"/>
</svg>
