<?xml version="1.0" encoding="UTF-8"?>
<svg version="1.1" xmlns="http://www.w3.org/2000/svg" width="1000" height="1000">
<path d="M0 0 C0.01417969 0.57105469 0.02835937 1.14210938 0.04296875 1.73046875 C1.35255164 23.99337796 17.40210689 37.84461202 32.20678711 52.5949707 C34.0658858 54.45813929 35.92439212 56.32188233 37.7822113 58.18632507 C42.28703035 62.70441772 46.79984109 67.21444343 51.3156616 71.72153745 C54.98749013 75.38656627 58.65635018 79.0545426 62.32315254 82.72459984 C62.84678875 83.24869575 63.37042496 83.77279166 63.90992894 84.31276926 C64.97394175 85.37774133 66.03794787 86.44272009 67.10194737 87.50770547 C77.05643699 97.47072986 87.0200661 107.42457319 96.98689473 117.37525173 C105.52635099 125.90129868 114.05790048 134.43519116 122.58374023 142.97485352 C132.50408934 152.91127873 142.42931437 162.8427917 152.36230475 172.76658124 C153.42255331 173.82587423 154.48279565 174.88517346 155.54303169 175.94447899 C156.06458633 176.4655708 156.58614097 176.98666262 157.1235003 177.52354509 C160.78701187 181.18447345 164.44704541 184.84885668 168.10572624 188.5146122 C173.03409917 193.45230614 177.97042006 198.38193488 182.91210365 203.30630684 C184.72184175 205.112086 186.52904629 206.92040847 188.33348846 208.73147964 C190.80157241 211.20779183 193.27876236 213.67463085 195.75840759 216.13935852 C196.46601524 216.85365833 197.17362288 217.56795814 197.90267318 218.3039034 C208.85387799 229.12815208 220.2017205 234.33931665 235.6875 234.4375 C242.50415667 234.34731491 248.7190969 233.86233038 255 231 C255.73992188 230.67128906 256.47984375 230.34257813 257.2421875 230.00390625 C264.96070184 226.14464908 271.04596666 220.08416383 277 213.9375 C279 212 279 212 281 212 C281.33 211.01 281.66 210.02 282 209 C282.66 209 283.32 209 284 209 C284.33 208.01 284.66 207.02 285 206 C285.66 206 286.32 206 287 206 C287.33 205.01 287.66 204.02 288 203 C288.66 203 289.32 203 290 203 C290.33 202.01 290.66 201.02 291 200 C291.66 200 292.32 200 293 200 C293.33 199.01 293.66 198.02 294 197 C294.66 197 295.32 197 296 197 C296.22595352 196.449384 296.45190704 195.89876801 296.68470764 195.33146667 C298.4006833 192.28975504 300.57621455 190.16922869 303.04467773 187.6965332 C303.81329636 186.92265762 303.81329636 186.92265762 304.59744263 186.13314819 C306.28783891 184.43396924 307.98542244 182.74218721 309.68359375 181.05078125 C310.86211437 179.8709132 312.04033797 178.6907484 313.21827698 177.51029968 C315.68565372 175.03997654 318.15660647 172.57330184 320.63012695 170.10913086 C323.80240954 166.94825496 326.9656129 163.77846912 330.12620449 160.60590839 C332.55635608 158.16853585 334.9912436 155.7359395 337.42759895 153.30476952 C338.596079 152.13762466 339.76307234 150.96898947 340.92855644 149.79885292 C342.55622751 148.16611149 344.19015693 146.53990431 345.82592773 144.9152832 C346.7547728 143.98802933 347.68361786 143.06077545 348.64060974 142.10542297 C351 140 351 140 354 139 C352.10110396 146.41235734 349.86355552 153.69804871 347.54003906 160.98510742 C345.35371747 167.8506583 343.23318153 174.73509578 341.125 181.625 C337.48001331 193.51732644 333.70331328 205.36473191 329.89648438 217.20605469 C325.63529434 230.48629946 321.49559886 243.80518094 317.33856201 257.11828613 C314.13958796 267.36296266 310.92621044 277.60289936 307.68554688 287.83447266 C306.2022703 292.51989402 304.7236993 297.20680415 303.24462891 301.89355469 C302.02273842 305.76459257 300.79898652 309.63501568 299.5703125 313.50390625 C296.70700822 322.52983551 293.89881172 331.57115012 291.125 340.625 C288.26217565 349.95909175 285.33486361 359.26973549 282.34765625 368.56469727 C279.08368941 378.72332687 275.85058442 388.89162407 272.625 399.0625 C272.34595825 399.94231537 272.0669165 400.82213074 271.77941895 401.72860718 C267.19644237 416.18359077 262.65846047 430.65223701 258.14453125 445.12890625 C256.35725631 450.86024215 254.55972863 456.58821693 252.75 462.3125 C252.40328247 463.4099353 252.40328247 463.4099353 252.04956055 464.52954102 C250.85319042 468.31298129 249.65128127 472.09460841 248.4453125 475.875 C245.78769938 484.22291569 243.23284536 492.57811709 240.859375 501.01171875 C239.69687257 505.05405676 238.3639841 509.02224172 237 513 C236.20667501 515.37444658 235.41518952 517.74950813 234.625 520.125 C234.19671304 521.41018907 233.76832603 522.69534479 233.33984375 523.98046875 C233.12183105 524.63450684 232.90381836 525.28854492 232.67919922 525.96240234 C230.78613281 531.64160156 228.89306641 537.32080078 227 543 C223.11039534 543 221.69630351 541.6869445 218.5 539.5 C217.44039062 538.77683594 216.38078125 538.05367187 215.2890625 537.30859375 C211.20472662 534.46021132 207.18118971 531.5298376 203.1796875 528.56640625 C201.09749327 526.98257884 201.09749327 526.98257884 199 526 C199 525.34 199 524.68 199 524 C198.34515625 523.78859375 197.6903125 523.5771875 197.015625 523.359375 C192.87657261 521.49358455 189.41516334 518.90890574 185.75 516.25 C184.23644716 515.16298945 182.72213074 514.07704126 181.20703125 512.9921875 C180.48338379 512.47366211 179.75973633 511.95513672 179.01416016 511.42089844 C175.86840523 509.20171133 172.63682998 507.12316426 169.37109375 505.0859375 C168.91863281 504.72757813 168.46617187 504.36921875 168 504 C168 503.34 168 502.68 168 502 C167.34902344 501.79375 166.69804688 501.5875 166.02734375 501.375 C161.79496958 499.45268296 158.28792701 496.75854032 154.5625 494 C152.94032438 492.81350095 151.3179264 491.62730586 149.6953125 490.44140625 C148.89641602 489.85504395 148.09751953 489.26868164 147.27441406 488.66455078 C144.17861078 486.39885877 141.06174421 484.1637359 137.9375 481.9375 C137.38102783 481.54022705 136.82455566 481.1429541 136.2512207 480.73364258 C131.76337962 477.53372273 127.25665786 474.36083322 122.75 471.1875 C116.03937395 466.46182493 109.37759303 461.67201182 102.73144531 456.85620117 C96.9898156 452.70113962 91.2076635 448.60675466 85.40991211 444.53051758 C80.09793337 440.78985264 74.82440247 436.99822055 69.5625 433.1875 C59.63037858 425.52707436 59.63037858 425.52707436 49 419 C49 418.34 49 417.68 49 417 C48.32324219 416.77441406 47.64648438 416.54882812 46.94921875 416.31640625 C43.191231 414.6389998 40.11145859 412.37466168 36.8125 409.9375 C32.56475136 406.71628637 32.56475136 406.71628637 28 404 C28 403.34 28 402.68 28 402 C27.27425781 401.731875 26.54851562 401.46375 25.80078125 401.1875 C23.03135976 400.01329619 20.69080566 398.6605676 18.1875 397 C17.39730469 396.484375 16.60710937 395.96875 15.79296875 395.4375 C14.90544922 394.7259375 14.90544922 394.7259375 14 394 C14 393.34 14 392.68 14 392 C13.30261719 391.75894531 12.60523438 391.51789063 11.88671875 391.26953125 C8.53670925 389.79625238 5.74087748 387.84560901 2.8125 385.6875 C2.21373047 385.25308594 1.61496094 384.81867188 0.99804688 384.37109375 C-0.30801101 383.42316999 -1.61247297 382.47304438 -2.91552734 381.52099609 C-5.83618387 379.38985412 -8.76852926 377.2750439 -11.70043945 375.15942383 C-13.24244363 374.04667275 -14.78394206 372.93322051 -16.32495117 371.8190918 C-20.87280103 368.53118124 -25.42981913 365.25678777 -30 362 C-35.3490014 358.18821162 -40.67760936 354.34885005 -46 350.5 C-53.08125829 345.37987756 -60.18053845 340.28606489 -67.296875 335.21484375 C-69.07418771 333.9470817 -70.84979569 332.67696248 -72.625 331.40625 C-83.45552276 323.10072587 -83.45552276 323.10072587 -95 316 C-95 315.34 -95 314.68 -95 314 C-96.32 313.67 -97.64 313.34 -99 313 C-99 312.34 -99 311.68 -99 311 C-99.65484375 310.78859375 -100.3096875 310.5771875 -100.984375 310.359375 C-105.12342739 308.49358455 -108.58483666 305.90890574 -112.25 303.25 C-113.76355284 302.16298945 -115.27786926 301.07704126 -116.79296875 299.9921875 C-117.51661621 299.47366211 -118.24026367 298.95513672 -118.98583984 298.42089844 C-122.13159477 296.20171133 -125.36317002 294.12316426 -128.62890625 292.0859375 C-129.08136719 291.72757813 -129.53382813 291.36921875 -130 291 C-130 290.34 -130 289.68 -130 289 C-130.69867188 288.75765625 -131.39734375 288.5153125 -132.1171875 288.265625 C-135.44026557 286.80671268 -138.21820654 284.88662466 -141.125 282.75 C-141.71974121 282.31961426 -142.31448242 281.88922852 -142.92724609 281.44580078 C-146.54122204 278.82256066 -150.13022385 276.16571032 -153.71875 273.5078125 C-155.35410403 272.29679041 -156.98952128 271.08585369 -158.625 269.875 C-159.44282959 269.26897949 -160.26065918 268.66295898 -161.10327148 268.03857422 C-166.30107953 264.20343052 -171.57428394 260.57943003 -176.984375 257.05078125 C-181.43429709 254.02460366 -185.69618403 250.76086359 -189.984375 247.51147461 C-200.60042874 239.46057107 -200.60042874 239.46057107 -211.86328125 232.37890625 C-212.56839844 231.92386719 -213.27351563 231.46882812 -214 231 C-214 230.34 -214 229.68 -214 229 C-215.32 228.67 -216.64 228.34 -218 228 C-218 227.34 -218 226.68 -218 226 C-218.69222656 225.7628125 -219.38445312 225.525625 -220.09765625 225.28125 C-223.54275297 223.76039977 -226.424141 221.72182175 -229.4375 219.5 C-230.69129697 218.58969322 -231.94520624 217.67954109 -233.19921875 216.76953125 C-233.8339209 216.30627441 -234.46862305 215.84301758 -235.12255859 215.36572266 C-237.98311936 213.28484139 -240.8673337 211.23758199 -243.75 209.1875 C-247.70045114 206.371404 -251.63929393 203.53997428 -255.56640625 200.69140625 C-256.35370117 200.12075439 -257.14099609 199.55010254 -257.95214844 198.9621582 C-259.47604339 197.85675116 -260.99890624 196.74991921 -262.52050781 195.64135742 C-267.59504659 191.96076479 -272.76086256 188.44200487 -278 185 C-277.42561519 182.01057056 -277.26153198 181.2131346 -274.8046875 179.2109375 C-273.35449219 178.30214844 -273.35449219 178.30214844 -271.875 177.375 C-270.78445313 176.67890625 -269.69390625 175.9828125 -268.5703125 175.265625 C-267.98668945 174.89759766 -267.40306641 174.52957031 -266.80175781 174.15039062 C-264.37445004 172.60059737 -261.99138319 170.98874881 -259.60498047 169.37695312 C-253.73045785 165.41215291 -247.78212315 161.59522693 -241.75 157.875 C-236.22219748 154.46412986 -230.95461827 150.84253488 -225.7421875 146.9609375 C-211.812749 137 -211.812749 137 -208 137 C-208 136.34 -208 135.68 -208 135 C-201.25 131 -201.25 131 -199 131 C-199 130.34 -199 129.68 -199 129 C-197.33984375 127.84375 -197.33984375 127.84375 -194.9375 126.5 C-190.45099428 123.89656288 -186.116006 121.14078966 -181.8125 118.25 C-181.17634766 117.82340088 -180.54019531 117.39680176 -179.88476562 116.95727539 C-178.5760184 116.07851243 -177.2677537 115.19903044 -175.95996094 114.31884766 C-168.205578 109.10096317 -160.44218752 103.90235511 -152.5625 98.875 C-142.94127839 92.73602799 -133.48321604 86.34731822 -123.99658203 80.00341797 C-120.84756385 77.89808611 -117.6976978 75.79403644 -114.546875 73.69140625 C-113.59393555 73.05533447 -112.64099609 72.4192627 -111.65917969 71.76391602 C-101.46228374 65 -101.46228374 65 -99 65 C-99 64.34 -99 63.68 -99 63 C-96.67490062 61.41123301 -94.35136879 59.94307973 -91.9375 58.5 C-90.45845549 57.59698185 -88.98061753 56.69198494 -87.50390625 55.78515625 C-86.74996582 55.32254395 -85.99602539 54.85993164 -85.21923828 54.38330078 C-81.88853407 52.30719846 -78.62951193 50.13045809 -75.375 47.9375 C-70.33173695 44.55345175 -65.27890605 41.18632799 -60.1875 37.875 C-59.59437012 37.4843335 -59.00124023 37.09366699 -58.39013672 36.69116211 C-54.23134608 34 -54.23134608 34 -52 34 C-52 33.34 -52 32.68 -52 32 C-49.67491234 30.41124102 -47.35133328 28.94311249 -44.9375 27.5 C-43.46107724 26.59825452 -41.9858436 25.6945596 -40.51171875 24.7890625 C-39.75810059 24.32661133 -39.00448242 23.86416016 -38.22802734 23.38769531 C-34.85474833 21.2866962 -31.54851371 19.09097326 -28.25 16.875 C-27.63511719 16.46233887 -27.02023437 16.04967773 -26.38671875 15.62451172 C-25.17613323 14.8109081 -23.96599881 13.9966328 -22.75634766 13.18164062 C-19.98953873 11.32017896 -17.21319653 9.47318265 -14.4375 7.625 C-13.52871094 7.01914062 -12.61992187 6.41328125 -11.68359375 5.7890625 C-10.79800781 5.19867188 -9.91242188 4.60828125 -9 4 C-7.95972656 3.26523437 -6.91945313 2.53046875 -5.84765625 1.7734375 C-3 0 -3 0 0 0 Z " fill="#F77315" transform="translate(458,303)"/>
<path d="M0 0 C0.680625 0.639375 1.36125 1.27875 2.0625 1.9375 C2.0625 2.5975 2.0625 3.2575 2.0625 3.9375 C3.0525 4.2675 4.0425 4.5975 5.0625 4.9375 C5.0625 5.5975 5.0625 6.2575 5.0625 6.9375 C6.0525 7.2675 7.0425 7.5975 8.0625 7.9375 C8.0625 8.5975 8.0625 9.2575 8.0625 9.9375 C8.62453125 10.1746875 9.1865625 10.411875 9.765625 10.65625 C12.58144042 12.22697697 14.54205416 14.15221464 16.8125 16.4375 C18.01132812 17.62859375 18.01132812 17.62859375 19.234375 18.84375 C21.0625 20.9375 21.0625 20.9375 21.0625 22.9375 C22.0525 23.2675 23.0425 23.5975 24.0625 23.9375 C24.0625 24.5975 24.0625 25.2575 24.0625 25.9375 C25.0525 26.2675 26.0425 26.5975 27.0625 26.9375 C27.0625 27.5975 27.0625 28.2575 27.0625 28.9375 C28.0525 29.2675 29.0425 29.5975 30.0625 29.9375 C30.0625 30.5975 30.0625 31.2575 30.0625 31.9375 C30.62453125 32.1746875 31.1865625 32.411875 31.765625 32.65625 C34.58144042 34.22697697 36.54205416 36.15221464 38.8125 38.4375 C39.61171875 39.2315625 40.4109375 40.025625 41.234375 40.84375 C43.0625 42.9375 43.0625 42.9375 43.0625 44.9375 C44.0525 45.2675 45.0425 45.5975 46.0625 45.9375 C46.0625 46.5975 46.0625 47.2575 46.0625 47.9375 C47.0525 48.2675 48.0425 48.5975 49.0625 48.9375 C49.0625 49.5975 49.0625 50.2575 49.0625 50.9375 C50.0525 51.2675 51.0425 51.5975 52.0625 51.9375 C52.0625 52.5975 52.0625 53.2575 52.0625 53.9375 C53.0525 54.2675 54.0425 54.5975 55.0625 54.9375 C55.0625 55.5975 55.0625 56.2575 55.0625 56.9375 C55.62453125 57.1746875 56.1865625 57.411875 56.765625 57.65625 C59.58144042 59.22697697 61.54205416 61.15221464 63.8125 63.4375 C64.61171875 64.2315625 65.4109375 65.025625 66.234375 65.84375 C68.0625 67.9375 68.0625 67.9375 68.0625 69.9375 C69.0525 70.2675 70.0425 70.5975 71.0625 70.9375 C71.0625 71.5975 71.0625 72.2575 71.0625 72.9375 C72.0525 73.2675 73.0425 73.5975 74.0625 73.9375 C74.0625 74.5975 74.0625 75.2575 74.0625 75.9375 C75.0525 76.2675 76.0425 76.5975 77.0625 76.9375 C77.0625 77.5975 77.0625 78.2575 77.0625 78.9375 C78.0525 79.2675 79.0425 79.5975 80.0625 79.9375 C80.0625 80.5975 80.0625 81.2575 80.0625 81.9375 C80.59875 82.14375 81.135 82.35 81.6875 82.5625 C84.98228009 84.47000426 87.65613628 86.98569384 90.0625 89.9375 C90.0625 90.5975 90.0625 91.2575 90.0625 91.9375 C91.0525 92.2675 92.0425 92.5975 93.0625 92.9375 C93.0625 93.5975 93.0625 94.2575 93.0625 94.9375 C94.0525 95.2675 95.0425 95.5975 96.0625 95.9375 C96.0625 96.5975 96.0625 97.2575 96.0625 97.9375 C97.0525 98.2675 98.0425 98.5975 99.0625 98.9375 C99.0625 99.5975 99.0625 100.2575 99.0625 100.9375 C100.0525 101.2675 101.0425 101.5975 102.0625 101.9375 C102.0625 102.5975 102.0625 103.2575 102.0625 103.9375 C102.59875 104.14375 103.135 104.35 103.6875 104.5625 C106.98228009 106.47000426 109.65613628 108.98569384 112.0625 111.9375 C112.0625 112.5975 112.0625 113.2575 112.0625 113.9375 C113.0525 114.2675 114.0425 114.5975 115.0625 114.9375 C115.0625 115.5975 115.0625 116.2575 115.0625 116.9375 C116.0525 117.2675 117.0425 117.5975 118.0625 117.9375 C118.0625 118.5975 118.0625 119.2575 118.0625 119.9375 C119.0525 120.2675 120.0425 120.5975 121.0625 120.9375 C121.0625 121.5975 121.0625 122.2575 121.0625 122.9375 C122.0525 123.2675 123.0425 123.5975 124.0625 123.9375 C124.0625 124.5975 124.0625 125.2575 124.0625 125.9375 C125.0525 126.2675 126.0425 126.5975 127.0625 126.9375 C127.0625 127.5975 127.0625 128.2575 127.0625 128.9375 C127.660625 129.205625 128.25875 129.47375 128.875 129.75 C131.06097854 130.93667406 132.47582594 132.03349113 134.0625 133.9375 C134.0625 134.5975 134.0625 135.2575 134.0625 135.9375 C135.0525 136.2675 136.0425 136.5975 137.0625 136.9375 C137.0625 137.5975 137.0625 138.2575 137.0625 138.9375 C138.0525 139.2675 139.0425 139.5975 140.0625 139.9375 C140.0625 140.5975 140.0625 141.2575 140.0625 141.9375 C141.0525 142.2675 142.0425 142.5975 143.0625 142.9375 C143.0625 143.5975 143.0625 144.2575 143.0625 144.9375 C144.0525 145.2675 145.0425 145.5975 146.0625 145.9375 C146.0625 146.5975 146.0625 147.2575 146.0625 147.9375 C147.0525 148.2675 148.0425 148.5975 149.0625 148.9375 C149.0625 149.5975 149.0625 150.2575 149.0625 150.9375 C150.0525 151.2675 151.0425 151.5975 152.0625 151.9375 C152.0625 152.5975 152.0625 153.2575 152.0625 153.9375 C152.660625 154.205625 153.25875 154.47375 153.875 154.75 C156.06097854 155.93667406 157.47582594 157.03349113 159.0625 158.9375 C159.0625 159.5975 159.0625 160.2575 159.0625 160.9375 C160.0525 161.2675 161.0425 161.5975 162.0625 161.9375 C162.0625 162.5975 162.0625 163.2575 162.0625 163.9375 C163.0525 164.2675 164.0425 164.5975 165.0625 164.9375 C165.0625 165.5975 165.0625 166.2575 165.0625 166.9375 C166.0525 167.2675 167.0425 167.5975 168.0625 167.9375 C168.0625 168.5975 168.0625 169.2575 168.0625 169.9375 C169.0525 170.2675 170.0425 170.5975 171.0625 170.9375 C171.0625 171.5975 171.0625 172.2575 171.0625 172.9375 C172.0525 173.2675 173.0425 173.5975 174.0625 173.9375 C174.0625 174.5975 174.0625 175.2575 174.0625 175.9375 C174.660625 176.205625 175.25875 176.47375 175.875 176.75 C178.06097854 177.93667406 179.47582594 179.03349113 181.0625 180.9375 C181.0625 181.5975 181.0625 182.2575 181.0625 182.9375 C182.0525 183.2675 183.0425 183.5975 184.0625 183.9375 C187.83862217 188.41209563 189.95522199 193.03720935 190.0625 198.9375 C189.09910818 203.5938938 187.52737125 206.93263164 185.0625 210.9375 C184.27235499 212.28915952 183.48285072 213.64119369 182.69378662 214.9934845 C160.83375334 251.82495338 128.90487693 292.8251465 85.58996904 304.45143914 C53.32610395 312.37554549 19.69289061 313.38516347 -13.375 313.375 C-14.56686668 313.37622486 -15.75873337 313.37744972 -16.98671722 313.3787117 C-73.05779769 313.34239385 -127.11181441 310.60592194 -168.61352539 269.07641602 C-185.29761005 251.88372373 -199.69885674 232.49873096 -211.80657196 211.85643959 C-212.75766024 210.24264907 -213.74763067 208.65186349 -214.74627686 207.06706238 C-217.29263664 202.51490772 -216.46815106 196.96932065 -215.9375 191.9375 C-214.09416185 186.91021414 -211.61703856 184.56034153 -207.62643433 181.07928467 C-200.9308847 175.1085359 -194.62594839 168.76619243 -188.28955078 162.41894531 C-186.94503531 161.07578761 -185.6003078 159.73284213 -184.25538635 158.39009094 C-180.63159535 154.77082745 -177.01093666 151.14844601 -173.39100122 147.52532673 C-169.59207617 143.72385637 -165.79069653 139.92484176 -161.98971558 136.12542725 C-155.61471777 129.7522437 -149.24182026 123.37696568 -142.87011719 117.00048828 C-135.50784585 109.63276407 -128.14196331 102.26866486 -120.77421772 94.90641522 C-114.43585741 88.57259329 -108.09944832 82.23682428 -101.76466548 75.89942431 C-97.9863469 72.11954846 -94.20735997 68.34034745 -90.42660904 64.56290436 C-86.8768071 61.01599205 -83.32946226 57.46664048 -79.78399467 53.91539574 C-78.48359126 52.6136711 -77.18233803 51.31279479 -75.88017082 50.01283455 C-74.10188118 48.23728113 -72.32670618 46.45867012 -70.55227661 44.67926025 C-70.03768926 44.16690362 -69.5231019 43.65454699 -68.99292099 43.1266644 C-66.0905369 40.20848003 -63.4758953 37.17431385 -60.9375 33.9375 C-59.76061258 32.8402709 -58.55204246 31.77591919 -57.3125 30.75 C-51.45427288 25.73649851 -45.68329034 20.40641833 -40.890625 14.3515625 C-39.04545343 12.07093044 -37.19040099 10.30318363 -34.9375 8.4375 C-32.59080733 6.44151232 -30.73440042 4.68063876 -28.8125 2.25 C-20.88602343 -7.52598777 -9.70657364 -6.81525383 0 0 Z " fill="#F77315" transform="translate(706.9375,104.0625)"/>
<path d="M0 0 C1.9740629 13.71375516 3.65016628 27.44829663 5.19277954 41.21582031 C6.33905995 51.42983993 7.58042655 61.62388424 8.9375 71.8125 C10.64868421 84.75126061 12.10334548 97.71136771 13.5 110.6875 C13.60608582 111.67296814 13.71217163 112.65843628 13.82147217 113.67376709 C14.34980616 118.58768557 14.87625146 123.50180447 15.40185547 128.41601562 C16.27675959 136.59115907 17.16137776 144.76520323 18.0625 152.9375 C18.18408981 154.04055481 18.18408981 154.04055481 18.30813599 155.16589355 C19.54340132 166.32593001 20.94675832 177.45767539 22.42114258 188.58886719 C24.0132153 200.77154846 25.39068906 212.97690668 26.75 225.1875 C26.86286346 226.19505341 26.97572693 227.20260681 27.0920105 228.24069214 C27.41297597 231.11199537 27.73059642 233.98364586 28.046875 236.85546875 C28.14353958 237.72069153 28.24020416 238.58591431 28.33979797 239.47735596 C28.42714706 240.27913269 28.51449615 241.08090942 28.60449219 241.90698242 C28.71963165 242.95253548 28.71963165 242.95253548 28.83709717 244.01921082 C29.00056221 246.00683612 29 248.00566423 29 250 C3.46984688 250.07011054 -22.06029178 250.12299825 -47.59052181 250.15543652 C-59.44490212 250.17089913 -71.29922257 250.19197716 -83.15356445 250.22631836 C-93.48694717 250.25623916 -103.82028654 250.27557941 -114.15371138 250.28226548 C-119.62413975 250.28617317 -125.0944441 250.29534435 -130.56483269 250.31719017 C-135.71691668 250.33759757 -140.86882592 250.34382516 -146.0209465 250.33932304 C-147.90870553 250.34014634 -149.79647057 250.34608655 -151.68419456 250.35761642 C-154.26928434 250.37262724 -156.85372142 250.36892256 -159.43882751 250.36076355 C-160.17912876 250.36950207 -160.91943 250.3782406 -161.68216461 250.38724393 C-169.15768861 250.3238306 -175.69756796 247.79212954 -182.3828125 244.58203125 C-183.31464355 244.13641846 -184.24647461 243.69080566 -185.20654297 243.23168945 C-186.16963379 242.76335693 -187.13272461 242.29502441 -188.125 241.8125 C-189.64504639 241.08003052 -189.64504639 241.08003052 -191.19580078 240.33276367 C-197.42427317 237.3116524 -203.56460874 234.16693043 -209.63916016 230.84887695 C-214.87973815 228.00604884 -220.25503251 225.49956277 -225.66552734 222.99926758 C-230.36414141 220.81238705 -234.9490846 218.47846689 -239.5 216 C-244.73533487 213.15182207 -250.03263235 210.51176756 -255.4375 208 C-266.6038771 202.81001155 -277.5826745 197.31326545 -288.4375 191.5 C-294.76938655 188.11208221 -301.18277955 184.97167583 -307.69506836 181.94702148 C-321.02953059 175.74862202 -334.03498781 168.9317887 -347 162 C-347 161.34 -347 160.68 -347 160 C-338.68966559 155.77956839 -330.30962101 151.80629369 -321.79443359 148.01904297 C-309.29607431 142.47397654 -309.29607431 142.47397654 -297 136.5 C-288.15399228 131.99848128 -279.065945 128.03428446 -270 124 C-262.32290142 120.56395843 -254.71945212 116.98225294 -247.12231445 113.3737793 C-241.43751363 110.67517323 -235.73844465 108.01238339 -230.01953125 105.38671875 C-227.99395211 104.45647218 -225.97053054 103.52151419 -223.94921875 102.58203125 C-218.38339004 99.99665876 -212.79918013 97.46140512 -207.18457031 94.98413086 C-200.98108073 92.2469592 -194.82428047 89.48533118 -188.78515625 86.3984375 C-177.81819281 80.89188362 -166.6494676 75.80614328 -155.41333008 70.87744141 C-150.93280563 68.89887484 -146.5472576 66.79893226 -142.1875 64.5625 C-135.47246593 61.13838111 -128.58873799 58.18506789 -121.63354492 55.28344727 C-116.44530603 53.10594335 -111.39731105 50.75393169 -106.38085938 48.20556641 C-102.82599481 46.40553347 -99.22824967 44.70057444 -95.625 43 C-94.83826904 42.6282666 -94.05153809 42.2565332 -93.2409668 41.87353516 C-60.69638932 26.5289233 -60.69638932 26.5289233 -48.25 21.1875 C-43.20012581 19.02025958 -38.27140896 16.67824735 -33.375 14.1875 C-26.71608428 10.80279718 -19.9771084 7.61415969 -13.1875 4.5 C-11.74479736 3.83133911 -11.74479736 3.83133911 -10.27294922 3.14916992 C-8.92160889 2.53392456 -8.92160889 2.53392456 -7.54296875 1.90625 C-6.73883545 1.53822266 -5.93470215 1.17019531 -5.10620117 0.79101562 C-3 0 -3 0 0 0 Z " fill="#F77315" transform="translate(436,725)"/>
<path d="M0 0 C4.60548774 2.14412256 8.67059135 5.06374263 12.87109375 7.8984375 C14.82994542 9.21412065 16.79978623 10.51374768 18.78515625 11.7890625 C20.00525391 12.57410156 20.00525391 12.57410156 21.25 13.375 C21.97703125 13.83648438 22.7040625 14.29796875 23.453125 14.7734375 C23.96359375 15.17820312 24.4740625 15.58296875 25 16 C25 16.66 25 17.32 25 18 C26.98 18.495 26.98 18.495 29 19 C29 19.66 29 20.32 29 21 C29.65613281 21.21011719 30.31226563 21.42023437 30.98828125 21.63671875 C35.12764253 23.51043741 38.54567339 26.11659727 42.1875 28.8125 C43.79940661 29.99098467 45.41138793 31.16936715 47.0234375 32.34765625 C47.84682617 32.9523877 48.67021484 33.55711914 49.51855469 34.18017578 C53.43734686 37.05411093 57.37374382 39.90351458 61.3125 42.75 C62.06466797 43.29422607 62.81683594 43.83845215 63.59179688 44.39916992 C68.94227003 48.26138154 74.35346532 52.0220026 79.79296875 55.7578125 C83.40469877 58.28294408 86.95518634 60.8822359 90.5 63.5 C101.34616773 71.90374362 101.34616773 71.90374362 113 79 C113 79.66 113 80.32 113 81 C114.32 81.33 115.64 81.66 117 82 C117 82.66 117 83.32 117 84 C117.68707031 84.23332031 118.37414062 84.46664062 119.08203125 84.70703125 C122.62231595 86.27575178 125.58895427 88.40191796 128.6875 90.6875 C129.92552381 91.58629222 131.16380694 92.48472733 132.40234375 93.3828125 C133.31282471 94.04651855 133.31282471 94.04651855 134.24169922 94.72363281 C136.72726516 96.52792866 139.23573267 98.29848712 141.75 100.0625 C142.91789062 100.88427734 142.91789062 100.88427734 144.109375 101.72265625 C145.9686719 103.03856821 145.9686719 103.03856821 148 104 C148 104.66 148 105.32 148 106 C149.01513672 106.33837891 149.01513672 106.33837891 150.05078125 106.68359375 C153.808769 108.3610002 156.88854141 110.62533832 160.1875 113.0625 C164.43524864 116.28371363 164.43524864 116.28371363 169 119 C169 119.66 169 120.32 169 121 C169.72574219 121.268125 170.45148438 121.53625 171.19921875 121.8125 C173.96864024 122.98670381 176.30919434 124.3394324 178.8125 126 C179.60269531 126.515625 180.39289063 127.03125 181.20703125 127.5625 C181.79871094 128.036875 182.39039063 128.51125 183 129 C183 129.66 183 130.32 183 131 C184.01513672 131.33837891 184.01513672 131.33837891 185.05078125 131.68359375 C188.808769 133.3610002 191.88854141 135.62533832 195.1875 138.0625 C199.43524864 141.28371363 199.43524864 141.28371363 204 144 C204 144.66 204 145.32 204 146 C204.64582031 146.20238281 205.29164063 146.40476562 205.95703125 146.61328125 C210.28251556 148.58445831 213.87835122 151.36614208 217.6875 154.1875 C219.31602866 155.37942233 220.94493126 156.57083392 222.57421875 157.76171875 C223.34813965 158.32938965 224.12206055 158.89706055 224.91943359 159.48193359 C227.25731245 161.18774569 229.6199696 162.85356916 232 164.5 C237.70828403 168.45961955 243.31716899 172.55812381 248.93359375 176.64648438 C249.68769531 177.19369141 250.44179688 177.74089844 251.21875 178.3046875 C252.2387207 179.0469458 252.2387207 179.0469458 253.27929688 179.80419922 C254.99366833 181.05649519 254.99366833 181.05649519 257 182 C257 182.99 257 183.98 257 185 C255.86304688 185.49628906 254.72609375 185.99257813 253.5546875 186.50390625 C246.33569961 189.67312213 239.15090531 192.8573138 232.125 196.4375 C224.2805045 200.41762428 216.2607177 203.9686814 208.22998047 207.55419922 C202.2841717 210.21565648 196.34686424 212.89578113 190.41299438 215.58374023 C188.99882273 216.22365605 187.58411025 216.86237838 186.16879272 217.49975586 C177.93807507 221.2067569 169.81252607 225.06148128 161.75778198 229.13708496 C155.72608656 232.17346765 149.58109625 234.90160572 143.375 237.5625 C135.58204111 240.94489902 127.93220567 244.44374182 120.375 248.32421875 C115.56086762 250.7145692 110.64807701 252.86197814 105.72949219 255.02685547 C96.57546633 259.05764849 87.5277636 263.29874033 78.515625 267.63671875 C69.28745675 272.07645565 60.07087765 276.47826632 50.65356445 280.50341797 C45.23139595 282.84316413 39.98170048 285.47822905 34.72143555 288.15869141 C29.89963896 290.59843602 25.00103587 292.70518107 19.98828125 294.7265625 C15.52292754 296.62944526 11.2252892 298.83953529 6.91015625 301.05859375 C-4.22768261 306.68046281 -15.74052155 311.56976496 -27.15820312 316.58789062 C-33.06664659 319.1992267 -38.90170827 321.89264827 -44.66088867 324.81860352 C-48.51073744 326.76301623 -52.41156042 328.59831093 -56.3125 330.4375 C-57.53864014 331.01564453 -57.53864014 331.01564453 -58.78955078 331.60546875 C-60.42695096 332.37676618 -62.0646388 333.14745326 -63.70263672 333.91748047 C-65.78509383 334.89873603 -67.86373505 335.88757101 -69.94140625 336.87890625 C-71.64103516 337.68134766 -71.64103516 337.68134766 -73.375 338.5 C-74.35210937 338.9640625 -75.32921875 339.428125 -76.3359375 339.90625 C-78.90265243 340.96003325 -81.26686899 341.56269904 -84 342 C-83.36139691 333.58453972 -81.32740056 325.57742692 -79.28125 317.41796875 C-78.90018196 315.88051876 -78.51961873 314.34294357 -78.13952637 312.80525208 C-77.13541366 308.74900863 -76.1243513 304.69452888 -75.11181641 300.64038086 C-74.11715051 296.65258825 -73.12918856 292.66313696 -72.140625 288.67382812 C-70.36750373 281.52279323 -68.58665072 274.37371192 -66.8019104 267.22556877 C-65.58126906 262.33518706 -64.36510091 257.44371954 -63.15259552 252.55131435 C-62.34777805 249.30512409 -61.54098201 246.05942733 -60.73387146 242.81380653 C-60.35653958 241.29465448 -59.98000902 239.7753031 -59.60438538 238.25572777 C-57.51412169 229.80228179 -55.31471325 221.40574503 -52.86430359 213.048172 C-51.48945008 208.1994244 -50.40232064 203.29411641 -49.3125 198.375 C-46.80458028 187.297663 -44.12586399 176.26910285 -41.375 165.25 C-41.18708893 164.49354187 -40.99917786 163.73708374 -40.80557251 162.95770264 C-38.94394207 155.47027041 -37.03304833 148.01252058 -34.8828125 140.6015625 C-33.20414728 134.81443247 -31.77973377 129.01177534 -30.5 123.125 C-28.68559679 114.85382397 -26.68011972 106.63915303 -24.61010742 98.42877197 C-23.69382746 94.78116009 -22.78845038 91.13085801 -21.88244629 87.48068237 C-20.85398043 83.33802023 -19.8224946 79.196112 -18.79101562 75.05419922 C-18.26283285 72.93136092 -17.73549168 70.80831306 -17.20898438 68.68505859 C-14.58640557 58.11177098 -11.93573348 47.57271445 -8.87597656 37.11669922 C-7.34399415 31.6659502 -6.11336787 26.14851383 -4.875 20.625 C-4.37305177 18.40870551 -3.87046307 16.19255596 -3.3671875 13.9765625 C-3.13483398 12.95208008 -2.90248047 11.92759766 -2.66308594 10.87207031 C-1.82336374 7.23492305 -0.92394542 3.61658638 0 0 Z " fill="#F77315" transform="translate(159,513)"/>
<path d="M0 0 C2.82432048 1.39811992 5.55545956 2.86331618 8.25 4.5 C8.95640625 4.9228125 9.6628125 5.345625 10.390625 5.78125 C10.92171875 6.1834375 11.4528125 6.585625 12 7 C12 7.66 12 8.32 12 9 C13.32 9.33 14.64 9.66 16 10 C16 10.66 16 11.32 16 12 C16.65484375 12.21140625 17.3096875 12.4228125 17.984375 12.640625 C22.12342739 14.50641545 25.58483666 17.09109426 29.25 19.75 C30.76355284 20.83701055 32.27786926 21.92295874 33.79296875 23.0078125 C34.51661621 23.52633789 35.24026367 24.04486328 35.98583984 24.57910156 C39.13159477 26.79828867 42.36317002 28.87683574 45.62890625 30.9140625 C46.08136719 31.27242187 46.53382813 31.63078125 47 32 C47 32.66 47 33.32 47 34 C47.69867187 34.24234375 48.39734375 34.4846875 49.1171875 34.734375 C52.44027084 36.19328964 55.2182189 38.11335907 58.125 40.25 C58.7226416 40.68256104 59.3202832 41.11512207 59.93603516 41.56079102 C63.4994774 44.14765649 67.03911458 46.76657545 70.578125 49.38671875 C72.17700811 50.57041411 73.77596768 51.75400621 75.375 52.9375 C76.18396729 53.53651123 76.99293457 54.13552246 77.82641602 54.75268555 C83.47433748 58.91850031 89.20343314 62.93907108 95.00683594 66.88427734 C102.39143964 71.91722546 109.60565795 77.18249969 116.83691406 82.43212891 C120.216975 84.88210084 123.60628844 87.31898346 127 89.75 C127.58152832 90.16838135 128.16305664 90.5867627 128.76220703 91.01782227 C131.77743943 93.17657646 131.77743943 93.17657646 135 95 C135 95.66 135 96.32 135 97 C135.68707031 97.23332031 136.37414062 97.46664062 137.08203125 97.70703125 C140.62231595 99.27575178 143.58895427 101.40191796 146.6875 103.6875 C147.92552381 104.58629222 149.16380694 105.48472733 150.40234375 106.3828125 C151.31282471 107.04651855 151.31282471 107.04651855 152.24169922 107.72363281 C154.72726516 109.52792866 157.23573267 111.29848712 159.75 113.0625 C160.91789062 113.88427734 160.91789062 113.88427734 162.109375 114.72265625 C163.9686719 116.03856821 163.9686719 116.03856821 166 117 C166 117.66 166 118.32 166 119 C167.32 119.33 168.64 119.66 170 120 C170 120.66 170 121.32 170 122 C170.71800781 122.25652344 171.43601562 122.51304687 172.17578125 122.77734375 C175.17140001 124.07420222 177.54758982 125.64946373 180.1875 127.5625 C183.47878323 129.97200639 183.47878323 129.97200639 187 132 C187 132.66 187 133.32 187 134 C188.32 134.33 189.64 134.66 191 135 C191 135.66 191 136.32 191 137 C191.721875 137.268125 192.44375 137.53625 193.1875 137.8125 C195.99766383 138.99901362 198.48416557 140.27485639 201 142 C201 142.66 201 143.32 201 144 C202.01513672 144.33837891 202.01513672 144.33837891 203.05078125 144.68359375 C206.808769 146.3610002 209.88854141 148.62533832 213.1875 151.0625 C217.43524864 154.28371363 217.43524864 154.28371363 222 157 C222 157.66 222 158.32 222 159 C223.32 159.33 224.64 159.66 226 160 C226 160.66 226 161.32 226 162 C227.03833984 162.35578125 227.03833984 162.35578125 228.09765625 162.71875 C231.54274877 164.23959838 234.42412985 166.27819157 237.4375 168.5 C238.68609705 169.40638897 239.93479787 170.312635 241.18359375 171.21875 C242.13468018 171.91291016 242.13468018 171.91291016 243.10498047 172.62109375 C246.05536273 174.76793207 249.02808198 176.88313219 252 179 C253.16678779 179.83316374 254.33345415 180.66649755 255.5 181.5 C256.36625 182.11875 256.36625 182.11875 257.25 182.75 C259 184 260.75 185.25 262.5 186.5 C263.07717773 186.9122583 263.65435547 187.3245166 264.24902344 187.74926758 C265.41898928 188.58498077 266.58891096 189.42075579 267.75878906 190.2565918 C270.62462459 192.30401543 273.4911478 194.35045918 276.359375 196.39453125 C282.92262095 201.07388253 289.46786425 205.77730299 296 210.5 C304.05518317 216.32265833 304.05518317 216.32265833 312.125 222.125 C312.67172363 222.51751953 313.21844727 222.91003906 313.78173828 223.31445312 C316.9647417 225.58709711 320.17862072 227.80627322 323.421875 229.9921875 C324.1629248 230.49347168 324.90397461 230.99475586 325.66748047 231.51123047 C327.11548689 232.48777805 328.56752534 233.45837908 330.02392578 234.42236328 C331.71755199 235.56475218 333.36415523 236.77630313 335 238 C335 238.66 335 239.32 335 240 C233.69 240 132.38 240 28 240 C25.65964857 220.69210071 23.33410634 201.38715199 21.10632324 182.06671143 C18.46868443 159.21089078 15.69182386 136.37660239 12.79681396 113.55203247 C11.00019989 99.36202861 9.31727153 85.18455813 7.9934082 70.94213867 C7.06755584 61.14107275 5.76033598 51.40614263 4.41601562 41.65478516 C3.08223789 31.89148022 2.04681566 22.12729522 1.20556641 12.31054688 C0.84016533 8.20347345 0.41890242 4.10190967 0 0 Z " fill="#F77315" transform="translate(470,735)"/>
<path d="M0 0 C14.51775785 3.17247053 28.83271051 6.89434735 43.0769043 11.12719727 C52.13308548 13.79540242 61.24454548 16.22684049 70.375 18.625 C71.11416656 18.81925568 71.85333313 19.01351135 72.61489868 19.21365356 C74.082714 19.59937497 75.55053315 19.98508181 77.01835632 20.37077332 C77.7251503 20.55650406 78.43194427 20.7422348 79.16015625 20.93359375 C79.85418045 21.11590042 80.54820465 21.29820709 81.26325989 21.48603821 C90.77126337 23.98706663 100.23879227 26.62233923 109.68359375 29.3515625 C121.36999518 32.72402535 133.09864793 35.90887752 144.85693359 39.02075195 C155.61233149 41.87547761 166.3167875 44.88701093 177 48 C175.43536137 51.47307678 174.40018314 52.35475009 171 54 C170.67 54.99 170.34 55.98 170 57 C169.34 57 168.68 57 168 57 C168 57.66 168 58.32 168 59 C166.70703125 60.26953125 166.70703125 60.26953125 164.8125 61.8125 C160.04409741 65.83610721 155.72201382 70.24599605 151.39379883 74.73168945 C149.96517864 76.19058334 148.48635008 77.5999677 147 79 C146.34 79 145.68 79 145 79 C145 79.66 145 80.32 145 81 C143.70703125 82.26953125 143.70703125 82.26953125 141.8125 83.8125 C137.77337788 87.24466996 133.9969844 90.88118252 130.25 94.625 C129.41819214 95.45028198 129.41819214 95.45028198 128.56958008 96.29223633 C125.4863092 99.38575218 122.72672181 102.58289543 120 106 C118.82311258 107.0972291 117.61454246 108.16158081 116.375 109.1875 C110.4547774 114.25405754 104.60667292 119.63382886 99.828125 125.8046875 C99.22484375 126.52914062 98.6215625 127.25359375 98 128 C97.34 128 96.68 128 96 128 C95.7525 128.5775 95.505 129.155 95.25 129.75 C93.7872851 132.38288682 92.36173231 134.12450669 90 136 C88.1015625 135.9453125 88.1015625 135.9453125 86 135 C84.078125 132.56640625 84.078125 132.56640625 82.25 129.5625 C81.63640625 128.57378906 81.0228125 127.58507812 80.390625 126.56640625 C79 124 79 124 79 122 C78.34 122 77.68 122 77 122 C75.57725477 119.8382858 74.27735474 117.68367368 73 115.4375 C69.84501642 110.02868105 66.57510934 104.74633111 63.0625 99.5625 C59.55672703 94.37679226 56.17112987 89.13400078 52.875 83.8125 C50.06824687 79.28372665 47.22937214 74.79334549 44.25 70.375 C39.78443714 63.74459024 35.51340679 56.99288843 31.23486328 50.24072266 C28.5429869 45.99311832 25.84758755 41.74938203 23.09765625 37.5390625 C22.67411865 36.88921387 22.25058105 36.23936523 21.81420898 35.56982422 C20.70502963 33.87246784 19.59098332 32.17829465 18.4765625 30.484375 C17 28 17 28 17 26 C16.34 26 15.68 26 15 26 C13.47465023 23.67151911 12.06427626 21.3519787 10.6875 18.9375 C8.36659531 14.90853597 6.04422884 10.99041919 3.26953125 7.25390625 C1.31703011 4.45453714 0.63193888 3.17003285 0 0 Z " fill="#F77315" transform="translate(490,24)"/>
<path d="M0 0 C-0.33 1.32 -0.66 2.64 -1 4 C-1.66 4 -2.32 4 -3 4 C-3.10957031 4.5676709 -3.21914063 5.1353418 -3.33203125 5.72021484 C-4.09467293 8.3231198 -5.21930556 10.19768196 -6.6875 12.4765625 C-7.22117187 13.311875 -7.75484375 14.1471875 -8.3046875 15.0078125 C-9.14386719 16.30332031 -9.14386719 16.30332031 -10 17.625 C-11.10484873 19.34591646 -12.20904763 21.06725035 -13.3125 22.7890625 C-13.80363281 23.54912598 -14.29476562 24.30918945 -14.80078125 25.09228516 C-16.03038516 26.97960979 -16.03038516 26.97960979 -17 29 C-17.66 29 -18.32 29 -19 29 C-19.25652344 29.70253906 -19.51304687 30.40507813 -19.77734375 31.12890625 C-21.11944847 34.280494 -22.74861247 37.03161553 -24.5625 39.9375 C-24.91546143 40.5039624 -25.26842285 41.0704248 -25.63208008 41.65405273 C-32.39200309 52.46665886 -39.38279325 63.13256582 -46.33813477 73.81982422 C-49.64589428 78.90561987 -52.92849722 84.0056547 -56.171875 89.1328125 C-59.20384522 93.88808204 -62.28123749 98.61413024 -65.35791016 103.34057617 C-65.81472168 104.0441626 -66.2715332 104.74774902 -66.7421875 105.47265625 C-67.1532373 106.10437744 -67.56428711 106.73609863 -67.98779297 107.38696289 C-69.05614985 109.03179286 -69.05614985 109.03179286 -70 111 C-70.66 111 -71.32 111 -72 111 C-72.26167969 111.70511719 -72.52335938 112.41023438 -72.79296875 113.13671875 C-74.08389839 116.19902109 -75.62178323 118.95215212 -77.3125 121.8125 C-77.92867187 122.85535156 -78.54484375 123.89820313 -79.1796875 124.97265625 C-81.408048 128.6786206 -83.68294806 132.34888785 -86 136 C-88.1875 135.875 -88.1875 135.875 -91 135 C-92.28869728 133.55021556 -93.57285205 132.09158194 -94.74609375 130.546875 C-96.53773693 128.3366236 -98.77882485 126.76554948 -101 125 C-102.33333333 123.33333333 -103.66666667 121.66666667 -105 120 C-105.825 119.34 -106.65 118.68 -107.5 118 C-110 116 -110 116 -111.9375 113.5625 C-113.98692404 110.84395004 -113.98692404 110.84395004 -117 108.5 C-119.79677112 106.1693574 -121.74852266 103.83250375 -124 101 C-124.825 100.34 -125.65 99.68 -126.5 99 C-129.12899543 96.89680365 -130.90319635 94.62100457 -133 92 C-134.2065625 91.0409375 -134.2065625 91.0409375 -135.4375 90.0625 C-138.40696837 87.67244009 -140.56330656 84.92403212 -143 82 C-144.66270287 80.66172696 -146.32916181 79.32810215 -148 78 C-149.34736973 76.34466005 -150.68334336 74.67987227 -152 73 C-152.66 72.67 -153.32 72.34 -154 72 C-154 71.34 -154 70.68 -154 70 C-154.55558594 69.773125 -155.11117187 69.54625 -155.68359375 69.3125 C-158.66531043 67.62302816 -160.6870917 65.46497875 -163.0625 63 C-165.65493955 60.31789712 -167.89183762 58.07210825 -171 56 C-171 55.34 -171 54.68 -171 54 C-171.61875 53.7525 -172.2375 53.505 -172.875 53.25 C-175.37480203 51.77952822 -175.83316022 50.58596924 -177 48 C-176.34870621 47.82318192 -175.69741241 47.64636383 -175.02638245 47.46418762 C-168.16210868 45.60024517 -161.29852125 43.73379095 -154.43530273 41.8659668 C-151.88409158 41.17178698 -149.3326149 40.47860712 -146.78100586 39.78588867 C-134.00333467 36.31655431 -121.23835289 32.83116859 -108.54956055 29.04858398 C-103.26422988 27.48723209 -97.94963373 26.04547835 -92.625 24.625 C-91.53340576 24.33173828 -90.44181152 24.03847656 -89.31713867 23.73632812 C-83.59840501 22.20578467 -77.87313205 20.70509957 -72.13671875 19.2421875 C-60.41384827 16.25139446 -48.79620371 13.10418773 -37.24755859 9.49536133 C-30.04671103 7.26405024 -22.798571 5.34908412 -15.46704102 3.59716797 C-12.123793 2.79670673 -8.89066329 1.96313212 -5.62890625 0.86328125 C-3 0 -3 0 0 0 Z " fill="#F77315" transform="translate(897,24)"/>
<path d="M0 0 C2.92919061 3.54242873 5.47959428 7.17985814 7.9375 11.0625 C8.71951546 12.29070642 9.5021045 13.51854776 10.28515625 14.74609375 C10.71199707 15.41624512 11.13883789 16.08639648 11.57861328 16.77685547 C14.3247838 21.07205106 17.10002383 25.34838147 19.875 29.625 C20.43437256 30.4900415 20.99374512 31.35508301 21.57006836 32.24633789 C22.10124268 33.06481201 22.63241699 33.88328613 23.1796875 34.7265625 C23.65132324 35.45439941 24.12295898 36.18223633 24.60888672 36.93212891 C25.98781244 39.04597829 25.98781244 39.04597829 27.67626953 41.07958984 C29 43 29 43 29 46 C29.66 46 30.32 46 31 46 C32.42272571 48.16168454 33.72311051 50.31608972 35 52.5625 C38.69159535 58.91489075 42.6171081 65.04280664 46.8125 71.07446289 C50.51069932 76.47878261 50.51069932 76.47878261 51 80 C51.66 80 52.32 80 53 80 C54.52915561 82.30725247 55.93641425 84.60350329 57.3125 87 C58.11912854 88.37929427 58.92641527 89.75820384 59.734375 91.13671875 C60.12302734 91.80364746 60.51167969 92.47057617 60.91210938 93.15771484 C62.24264714 95.41091008 63.64326034 97.61430984 65.0625 99.8125 C67 103 67 103 67 105 C67.66 105 68.32 105 69 105 C70.15625 106.66015625 70.15625 106.66015625 71.5 109.0625 C74.57975779 114.38759844 77.93888278 119.47338719 81.39648438 124.55688477 C89 135.81050831 89 135.81050831 89 139 C89.66 139 90.32 139 91 139 C90.41518847 142.4300255 89.30023337 144.07468755 86.85609436 146.51812744 C86.18447769 147.19675842 85.51286102 147.8753894 84.82089233 148.57458496 C84.07957062 149.30826294 83.3382489 150.04194092 82.57446289 150.79785156 C81.40863426 151.96915619 81.40863426 151.96915619 80.21925354 153.16412354 C77.64440665 155.74708657 75.05884391 158.31902069 72.47265625 160.890625 C70.68474599 162.67801686 68.89735324 164.46592652 67.11045837 166.2543335 C63.36325111 170.001451 59.61109248 173.7435068 55.85473633 177.48144531 C51.5079781 181.80701328 47.17014013 186.14136912 42.83708388 190.48065972 C38.67121333 194.65221756 34.49965192 198.81804452 30.32537651 202.98119354 C28.54774673 204.75496235 26.77147766 206.53009587 24.99656868 208.30658722 C22.52091783 210.78260697 20.03890045 213.25205539 17.55493164 215.71972656 C16.81563416 216.46150146 16.07633667 217.20327637 15.31463623 217.9675293 C14.64019974 218.63488098 13.96576324 219.30223267 13.27088928 219.98980713 C12.39068162 220.86693548 12.39068162 220.86693548 11.49269199 221.7617836 C10 223 10 223 8 223 C7.0626384 220.18791521 6.79737211 218.16373585 6.64282227 215.23413086 C6.58922043 214.24916626 6.53561859 213.26420166 6.48039246 212.24938965 C6.39921928 210.62353943 6.39921928 210.62353943 6.31640625 208.96484375 C6.22671318 207.2409845 6.22671318 207.2409845 6.13520813 205.4822998 C5.93826995 201.63431059 5.74962765 197.7859782 5.5625 193.9375 C5.49627051 192.59994135 5.4299655 191.26238644 5.36358643 189.92483521 C4.04991833 163.2884197 3.28475892 136.64232304 2.64672852 109.98217773 C2.57472621 106.98680799 2.50236736 103.99144713 2.4296875 100.99609375 C2.4036463 99.91754025 2.4036463 99.91754025 2.37707901 98.8171978 C2.13699462 88.98965169 1.76715907 79.17906955 1.22753906 69.36352539 C0.82287811 61.91420807 0.63287548 54.45721467 0.4375 47 C0.41632111 46.21903961 0.39514221 45.43807922 0.37332153 44.63345337 C-0.02521535 29.75329714 -0.1191137 14.88554767 0 0 Z " fill="#F77315" transform="translate(463,44)"/>
<path d="M0 0 C0.66 0 1.32 0 2 0 C1.88001837 5.54616058 1.75569901 11.09220258 1.62768555 16.63818359 C1.58488158 18.5173898 1.54317966 20.3966215 1.50268555 22.27587891 C1.44363221 25.00691361 1.38035901 27.7378261 1.31640625 30.46875 C1.29969376 31.28299438 1.28298126 32.09723877 1.26576233 32.93615723 C1.13769623 38.19899168 0.85774279 43.44298688 0.51147461 48.69555664 C-0.0058436 56.59410288 -0.28550991 64.48957869 -0.5 72.40234375 C-0.54070925 73.81849537 -0.58173242 75.234638 -0.62304688 76.65077209 C-0.75166465 81.07959937 -0.87612986 85.50853775 -1 89.9375 C-1.16354832 95.78003996 -1.32907121 101.62251459 -1.5 107.46484375 C-1.520625 108.171481 -1.54125 108.87811825 -1.5625 109.60616875 C-1.77802873 116.90094925 -2.02043896 124.185885 -2.5 131.46875 C-3.03071796 139.55753434 -3.26706927 147.65212071 -3.5 155.75390625 C-3.520625 156.46980864 -3.54125 157.18571102 -3.5625 157.92330742 C-3.73347992 163.89329185 -3.89820396 169.86344672 -4.0625 175.83361816 C-4.18573726 180.30506069 -4.31127121 184.77642794 -4.43969727 189.24772453 C-4.49779924 191.30112847 -4.55270604 193.35459984 -4.60742188 195.40809631 C-4.80288054 202.24633672 -5.05480098 209.08180797 -5.40625 215.91381836 C-5.44969543 216.95554246 -5.44969543 216.95554246 -5.49401855 218.0183115 C-5.58840543 219.68474674 -5.78472944 221.34483419 -6 223 C-6.66 223.33 -7.32 223.66 -8 224 C-8.556875 223.2575 -9.11375 222.515 -9.6875 221.75 C-11.8758014 218.96570319 -11.8758014 218.96570319 -14.5 217 C-17.12177409 214.90258073 -18.92713465 212.62562945 -21 210 C-22.485 209.01 -22.485 209.01 -24 208 C-24 207.34 -24 206.68 -24 206 C-24.99 205.67 -25.98 205.34 -27 205 C-27 204.34 -27 203.68 -27 203 C-27.99 202.67 -28.98 202.34 -30 202 C-31.34423339 200.34211215 -32.67618483 198.67423683 -34 197 C-34.825 196.34 -35.65 195.68 -36.5 195 C-39 193 -39 193 -40.9375 190.5625 C-42.65645033 188.42683444 -44.13803439 186.9941588 -46.25 185.3125 C-47.61125 184.1678125 -47.61125 184.1678125 -49 183 C-49 182.34 -49 181.68 -49 181 C-49.99 180.67 -50.98 180.34 -52 180 C-52 179.34 -52 178.68 -52 178 C-52.99 177.67 -53.98 177.34 -55 177 C-56.34423339 175.34211215 -57.67618483 173.67423683 -59 172 C-59.825 171.34 -60.65 170.68 -61.5 170 C-64.12177409 167.90258073 -65.92713465 165.62562945 -68 163 C-69.485 162.01 -69.485 162.01 -71 161 C-71 160.34 -71 159.68 -71 159 C-71.99 158.67 -72.98 158.34 -74 158 C-74 157.34 -74 156.68 -74 156 C-74.99 155.67 -75.98 155.34 -77 155 C-78.34423339 153.34211215 -79.67618483 151.67423683 -81 150 C-82.2375 149.01 -82.2375 149.01 -83.5 148 C-86.11780044 145.90575965 -87.99454789 143.67393614 -90 141 C-88.68 138.36 -87.36 135.72 -86 133 C-85.34 133 -84.68 133 -84 133 C-83.58234375 131.89785156 -83.58234375 131.89785156 -83.15625 130.7734375 C-79.89048979 122.94002618 -74.67419973 115.96392925 -69.95288086 108.94726562 C-66.89941514 104.39340467 -63.95182721 99.78452053 -61.0625 95.125 C-55.37198635 85.95068081 -49.49063063 76.90406962 -43.60449219 67.85449219 C-38.60940189 60.1710842 -33.64801572 52.47256854 -28.8125 44.6875 C-25.31118088 39.05111363 -21.70515645 33.50153791 -18 27.99609375 C-15.77670592 24.665495 -13.60086297 21.3071958 -11.4375 17.9375 C-10.87458252 17.06303223 -10.87458252 17.06303223 -10.30029297 16.17089844 C-8.48963344 13.35116112 -6.70433243 10.52052388 -4.9453125 7.66796875 C-4.32398438 6.66378906 -3.70265625 5.65960938 -3.0625 4.625 C-2.24458984 3.28308594 -2.24458984 3.28308594 -1.41015625 1.9140625 C-0.94480469 1.28242187 -0.47945312 0.65078125 0 0 Z " fill="#F77315" transform="translate(923,44)"/>
<path d="M0 0 C48.51 0 97.02 0 147 0 C144.94152079 4.11695843 142.48567586 6.8101059 139.28442383 10.00610352 C138.70040802 10.59683655 138.11639221 11.18756958 137.51467896 11.79620361 C135.58409081 13.74577539 133.6460578 15.68772933 131.70703125 17.62890625 C130.35887573 18.9834899 129.01087069 20.33822331 127.66300964 21.69309998 C124.83611289 24.53197076 122.00511295 27.3666774 119.17163086 30.19897461 C115.54782486 33.82257752 111.93796238 37.45973136 108.33153248 41.10061741 C105.5510674 43.90336011 102.76151826 46.69692445 99.96936607 49.48801994 C98.63494764 50.82479344 97.30375939 52.16479976 95.97593117 53.50811958 C94.11420441 55.38952064 92.24013295 57.25773267 90.36254883 59.12329102 C89.8204628 59.67661606 89.27837677 60.2299411 88.71986389 60.80003357 C84.22053612 65.22677468 79.95156428 67.62434636 73.5625 68.4375 C65.91960061 67.49889832 60.6478156 63.2406929 55.40039062 57.88623047 C54.79450104 57.28413757 54.18861145 56.68204468 53.56436157 56.06170654 C51.58511288 54.0898055 49.6205301 52.10399054 47.65625 50.1171875 C46.2783594 48.73691044 44.89972618 47.35737436 43.52038574 45.97854614 C40.64308247 43.09812554 37.77259234 40.2111427 34.90722656 37.31884766 C31.22746497 33.60494795 27.53451355 29.90451116 23.83689117 26.20840263 C20.99511025 23.3660793 18.15856006 20.51858534 15.32377625 17.66928482 C13.96295196 16.30208384 12.60090203 14.93610169 11.23762512 13.57134628 C9.34146631 11.67087283 7.45202654 9.76397621 5.56445312 7.85498047 C4.9972757 7.28870941 4.43009827 6.72243835 3.84573364 6.13900757 C0 2.22896705 0 2.22896705 0 0 Z " fill="#F67315" transform="translate(620,438)"/>
<path d="M0 0 C0.66 0 1.32 0 2 0 C2 1.98 2 3.96 2 6 C2.66 6 3.32 6 4 6 C4.33 5.34 4.66 4.68 5 4 C6.5121867 7.02437339 6.17263369 9.66241534 6 13 C5.67902344 13.63679687 5.35804688 14.27359375 5.02734375 14.9296875 C3.86165453 17.27879505 3.60458725 19.14801112 3.375 21.75 C3.30023438 22.54921875 3.22546875 23.3484375 3.1484375 24.171875 C3.09945313 24.77515625 3.05046875 25.3784375 3 26 C2.67 26 2.34 26 2 26 C0.79268308 17.31163005 -0.38064163 8.79705092 0 0 Z " fill="#D07839" transform="translate(480,816)"/>
<path d="M0 0 C4.25 6.375 4.25 6.375 4 11 C2.68 11 1.36 11 0 11 C0 20.57 0 30.14 0 40 C-0.33 40 -0.66 40 -1 40 C-1.19209289 34.62519527 -1.37084171 29.25017745 -1.53710938 23.87451172 C-1.59559255 22.04496291 -1.65775332 20.21552788 -1.72363281 18.38623047 C-1.81756847 15.76030185 -1.89837127 13.13425114 -1.9765625 10.5078125 C-2.00875885 9.68693146 -2.0409552 8.86605042 -2.0741272 8.02029419 C-2.12733115 6.0140827 -2.07301195 4.00558831 -2 2 C-1.34 1.34 -0.68 0.68 0 0 Z " fill="#DA7C39" transform="translate(465,69)"/>
<path d="M0 0 C2 2 2 2 2.1953125 3.9453125 C2.13020833 5.96354167 2.06510417 7.98177083 2 10 C3.32 10 4.64 10 6 10 C6 10.66 6 11.32 6 12 C0.375 15 0.375 15 -3 15 C-2.5547115 9.72684667 -1.91626837 4.98229776 0 0 Z " fill="#F27919" transform="translate(78,840)"/>
<path d="M0 0 C1.98 0.99 1.98 0.99 4 2 C6.26043397 9.52108031 4.79295891 18.32659758 4 26 C3.67 26 3.34 26 3 26 C2.01 17.42 1.02 8.84 0 0 Z " fill="#E4782E" transform="translate(487,881)"/>
<path d="M0 0 C0.33 0.99 0.66 1.98 1 3 C-0.65 3.33 -2.3 3.66 -4 4 C-4 5.65 -4 7.3 -4 9 C-4.99 9.33 -5.98 9.66 -7 10 C-7.33 9.34 -7.66 8.68 -8 8 C-8.69159401 9.84725052 -8.69159401 9.84725052 -9 12 C-8.01 13.485 -8.01 13.485 -7 15 C-9 14 -11 13 -13 12 C-12.87890625 10.265625 -12.87890625 10.265625 -12 8 C-9.27734375 5.859375 -9.27734375 5.859375 -5.9375 3.75 C-4.83277344 3.04359375 -3.72804687 2.3371875 -2.58984375 1.609375 C-1.73519531 1.07828125 -0.88054687 0.5471875 0 0 Z " fill="#E67828" transform="translate(193,476)"/>
<path d="M0 0 C0.33 0 0.66 0 1 0 C1.66 8.25 2.32 16.5 3 25 C2.01 25 1.02 25 0 25 C-0.99418527 16.51118727 -0.89073566 8.49624785 0 0 Z " fill="#E4792B" transform="translate(453,875)"/>
<path d="M0 0 C0.99 0.33 1.98 0.66 3 1 C4.34351145 8.45038168 4.34351145 8.45038168 2.75 11 C1 12 1 12 -2 12 C-1.85831863 10.56208484 -1.71148957 9.1246763 -1.5625 7.6875 C-1.48128906 6.88699219 -1.40007812 6.08648438 -1.31640625 5.26171875 C-1 3 -1 3 0 0 Z " fill="#E87728" transform="translate(82,822)"/>
<path d="M0 0 C-3.3810038 4.13621084 -6.66590534 7.81316569 -11 11 C-11.375 8.3125 -11.375 8.3125 -11 5 C-7.55436943 1.3139766 -5.15520816 -0.75811885 0 0 Z " fill="#E67923" transform="translate(720,486)"/>
<path d="M0 0 C-3.3810038 4.13621084 -6.66590534 7.81316569 -11 11 C-11.375 8.3125 -11.375 8.3125 -11 5 C-7.55436943 1.3139766 -5.15520816 -0.75811885 0 0 Z " fill="#E67923" transform="translate(816,390)"/>
<path d="M0 0 C-3.3810038 4.13621084 -6.66590534 7.81316569 -11 11 C-11.375 8.3125 -11.375 8.3125 -11 5 C-7.55436943 1.3139766 -5.15520816 -0.75811885 0 0 Z " fill="#E67923" transform="translate(832,374)"/>
<path d="M0 0 C-3.3810038 4.13621084 -6.66590534 7.81316569 -11 11 C-11.375 8.3125 -11.375 8.3125 -11 5 C-7.55436943 1.3139766 -5.15520816 -0.75811885 0 0 Z " fill="#E67923" transform="translate(848,358)"/>
<path d="M0 0 C-3.3810038 4.13621084 -6.66590534 7.81316569 -11 11 C-11.375 8.3125 -11.375 8.3125 -11 5 C-7.55436943 1.3139766 -5.15520816 -0.75811885 0 0 Z " fill="#E67923" transform="translate(864,342)"/>
<path d="M0 0 C-3.3810038 4.13621084 -6.66590534 7.81316569 -11 11 C-11.375 8.3125 -11.375 8.3125 -11 5 C-7.55436943 1.3139766 -5.15520816 -0.75811885 0 0 Z " fill="#E67923" transform="translate(880,326)"/>
<path d="M0 0 C1.98 0.495 1.98 0.495 4 1 C4 3.97 4 6.94 4 10 C1.525 9.01 1.525 9.01 -1 8 C-1.04241723 5.66705225 -1.04092937 3.33297433 -1 1 C-0.67 0.67 -0.34 0.34 0 0 Z " fill="#D87C39" transform="translate(460,960)"/>
<path d="M0 0 C3.17306787 3.44898681 3.76421079 6.36281224 4 11 C3.13869973 14.975232 2.25774294 17.61338558 0 21 C0 18.03 0 15.06 0 12 C0.66 12 1.32 12 2 12 C1.67 10.7625 1.34 9.525 1 8.25 C0.20108841 5.25408155 0 3.19892281 0 0 Z " fill="#E37A30" transform="translate(893,292)"/>
<path d="M0 0 C0.99 0.495 0.99 0.495 2 1 C2 5.29 2 9.58 2 14 C2.66 14 3.32 14 4 14 C4 14.99 4 15.98 4 17 C2.68 17 1.36 17 0 17 C0 11.39 0 5.78 0 0 Z " fill="#EB7624" transform="translate(470,247)"/>
<path d="M0 0 C1.1446875 0.3403125 1.1446875 0.3403125 2.3125 0.6875 C1.35828192 1.83676266 0.39897955 2.98180541 -0.5625 4.125 C-1.09617187 4.76308594 -1.62984375 5.40117187 -2.1796875 6.05859375 C-3.6875 7.6875 -3.6875 7.6875 -5.6875 8.6875 C-6.04825949 3.27610759 -6.04825949 3.27610759 -4.5 0.75 C-2.6875 -0.3125 -2.6875 -0.3125 0 0 Z " fill="#E97823" transform="translate(890.6875,312.3125)"/>
<path d="M0 0 C0.66 0.33 1.32 0.66 2 1 C1.34728444 4.51705958 0.48606976 7.89325077 -0.5625 11.3125 C-0.83191406 12.19550781 -1.10132813 13.07851563 -1.37890625 13.98828125 C-1.58386719 14.65214844 -1.78882813 15.31601562 -2 16 C-2.33 16 -2.66 16 -3 16 C-4.35862069 9.70094044 -4.35862069 9.70094044 -2.625 6.3125 C-2.08875 5.549375 -1.5525 4.78625 -1 4 C-0.30420546 1.80869466 -0.30420546 1.80869466 0 0 Z " fill="#E5742F" transform="translate(696,802)"/>
<path d="M0 0 C2.31 0.33 4.62 0.66 7 1 C5.95125002 3.62187494 5.35068687 4.79371361 2.875 6.25 C2.25625 6.4975 1.6375 6.745 1 7 C0.67 4.69 0.34 2.38 0 0 Z " fill="#EF7523" transform="translate(660,71)"/>
<path d="M0 0 C0.33 1.65 0.66 3.3 1 5 C0.01 5.33 -0.98 5.66 -2 6 C-2 4.68 -2 3.36 -2 2 C-3.98 2.99 -3.98 2.99 -6 4 C-6 4.66 -6 5.32 -6 6 C-7.32 6 -8.64 6 -10 6 C-10.33 4.68 -10.66 3.36 -11 2 C-9.5422647 1.664061 -8.08378894 1.33133376 -6.625 1 C-5.40683594 0.7215625 -5.40683594 0.7215625 -4.1640625 0.4375 C-2 0 -2 0 0 0 Z " fill="#F6711F" transform="translate(810,48)"/>
<path d="M0 0 C-1.32 1.65 -2.64 3.3 -4 5 C-5.65 4.67 -7.3 4.34 -9 4 C-9.33 3.01 -9.66 2.02 -10 1 C-3.375 -1.125 -3.375 -1.125 0 0 Z " fill="#E57921" transform="translate(730,71)"/>
<path d="M0 0 C2.01136276 2.55991624 3.62845496 5.04590299 5 8 C2.36 7.34 -0.28 6.68 -3 6 C-3 4.68 -3 3.36 -3 2 C-2.01 1.34 -1.02 0.68 0 0 Z " fill="#E77630" transform="translate(461,322)"/>
<path d="M0 0 C0.66 0.33 1.32 0.66 2 1 C1.01 3.97 0.02 6.94 -1 10 C-1.99 10 -2.98 10 -4 10 C-4.625 8.125 -4.625 8.125 -5 6 C-4.34 5.34 -3.68 4.68 -3 4 C-2.01 4 -1.02 4 0 4 C0 2.68 0 1.36 0 0 Z " fill="#F47223" transform="translate(686,836)"/>
<path d="M0 0 C2 2 2 2 2.3125 5.375 C1.99258956 9.0859611 1.5224581 10.37243948 -1 13 C-2.07310858 9.72814447 -1.89263102 7.57052408 -1.0625 4.25 C-0.86785156 3.45078125 -0.67320312 2.6515625 -0.47265625 1.828125 C-0.31667969 1.22484375 -0.16070312 0.6215625 0 0 Z " fill="#E77829" transform="translate(484,820)"/>
<path d="M0 0 C0.33 0.66 0.66 1.32 1 2 C0.36729133 3.34977849 -0.30062468 4.68352881 -1 6 C-1 6.66 -1 7.32 -1 8 C-3.64 7.67 -6.28 7.34 -9 7 C-6.03716687 4.61327331 -3.05729491 2.2646629 0 0 Z " fill="#EC721E" transform="translate(241,444)"/>
<path d="M0 0 C4.455 0.99 4.455 0.99 9 2 C8.01 2.33 7.02 2.66 6 3 C5.34 2.67 4.68 2.34 4 2 C4.99 4.97 5.98 7.94 7 11 C3.75714963 7.75714963 2.15285933 5.00877254 0 1 C0 0.67 0 0.34 0 0 Z " fill="#EA7B28" transform="translate(490,24)"/>
<path d="M0 0 C1.32 0.33 2.64 0.66 4 1 C3.67 2.65 3.34 4.3 3 6 C1.02 6 -0.96 6 -3 6 C-2.01 4.02 -1.02 2.04 0 0 Z " fill="#E07B2D" transform="translate(866,133)"/>
<path d="M0 0 C2.61724095 2.36797991 4.32861729 4.89600354 6 8 C6 8.66 6 9.32 6 10 C5.34 10 4.68 10 4 10 C3.67 9.01 3.34 8.02 3 7 C1.35 6.67 -0.3 6.34 -2 6 C-1.49396008 3.83125748 -1.00016187 2.00032373 0 0 Z " fill="#E77A1C" transform="translate(508,114)"/>
<path d="M0 0 C4.25 6.375 4.25 6.375 4 11 C2.68 10.67 1.36 10.34 0 10 C-0.54372951 6.94152152 -1 4.11227195 -1 1 C-0.67 0.67 -0.34 0.34 0 0 Z " fill="#E1792F" transform="translate(465,69)"/>
<path d="M0 0 C1.65 0 3.3 0 5 0 C4.25 5.75 4.25 5.75 2 8 C0 6 0 6 -0.125 2.875 C-0.08375 1.92625 -0.0425 0.9775 0 0 Z " fill="#DD7F29" transform="translate(747,632)"/>
<path d="M0 0 C3.63 2.31 7.26 4.62 11 7 C9.68 7.33 8.36 7.66 7 8 C6.01 8.495 6.01 8.495 5 9 C4.16094435 7.87926138 3.32892169 6.75325453 2.5 5.625 C2.0359375 4.99851562 1.571875 4.37203125 1.09375 3.7265625 C0 2 0 2 0 0 Z " fill="#E67925" transform="translate(703,901)"/>
<path d="M0 0 C0 3 0 3 -1.875 5.1875 C-4 7 -4 7 -6 7 C-6 6.34 -6 5.68 -6 5 C-6.99 4.67 -7.98 4.34 -9 4 C-6.03 2.68 -3.06 1.36 0 0 Z " fill="#E77929" transform="translate(244,813)"/>
<path d="M0 0 C-3.625 3 -3.625 3 -7 3 C-7.33 3.99 -7.66 4.98 -8 6 C-9.65 5.67 -11.3 5.34 -13 5 C-4.82022472 -1.60674157 -4.82022472 -1.60674157 0 0 Z " fill="#EF7D24" transform="translate(108,878)"/>
<path d="M0 0 C2.29013653 3.4352048 2.17842973 4.985331 2 9 C0.68 9.33 -0.64 9.66 -2 10 C-1.34 6.7 -0.68 3.4 0 0 Z " fill="#D67C3F" transform="translate(98,758)"/>
<path d="M0 0 C0.66 0.33 1.32 0.66 2 1 C1.34 2.65 0.68 4.3 0 6 C-0.7425 5.979375 -1.485 5.95875 -2.25 5.9375 C-4.70462279 5.99328688 -6.66109261 6.3069904 -9 7 C-6.03716687 4.61327331 -3.05729491 2.2646629 0 0 Z " fill="#E9792B" transform="translate(335,382)"/>
<path d="M0 0 C-0.66 1.65 -1.32 3.3 -2 5 C-6.455 4.01 -6.455 4.01 -11 3 C-6.93675441 0.9683772 -4.47525541 0 0 0 Z " fill="#DF7D23" transform="translate(752,64)"/>
<path d="M0 0 C0.33 0.66 0.66 1.32 1 2 C2.32 2 3.64 2 5 2 C5 2.66 5 3.32 5 4 C-0.625 7 -0.625 7 -4 7 C-4 6.34 -4 5.68 -4 5 C-3.01 4.67 -2.02 4.34 -1 4 C-0.26676204 1.98491642 -0.26676204 1.98491642 0 0 Z " fill="#EA7523" transform="translate(79,848)"/>
<path d="M0 0 C2.97 0.33 5.94 0.66 9 1 C9.33 2.98 9.66 4.96 10 7 C5.56541027 5.6062718 3.12621626 3.39417765 0 0 Z " fill="#EB7827" transform="translate(343,603)"/>
<path d="M0 0 C1.125 1.5625 1.125 1.5625 2 4 C1.125 7.75 1.125 7.75 0 11 C-0.66 11 -1.32 11 -2 11 C-1.85892253 9.54119891 -1.71197585 8.08296449 -1.5625 6.625 C-1.48128906 5.81289063 -1.40007812 5.00078125 -1.31640625 4.1640625 C-1 2 -1 2 0 0 Z " fill="#E27832" transform="translate(154,535)"/>
<path d="M0 0 C0.99 0.99 1.98 1.98 3 3 C1.66666667 5.66666667 0.33333333 8.33333333 -1 11 C-2.60080151 6.99799622 -1.29279692 3.95443764 0 0 Z " fill="#E87727" transform="translate(89,794)"/>
<path d="M0 0 C0.66 0.33 1.32 0.66 2 1 C1.01 2.485 1.01 2.485 0 4 C-0.99 4 -1.98 4 -3 4 C-3.66 5.32 -4.32 6.64 -5 8 C-5.33 6.35 -5.66 4.7 -6 3 C-4.03533587 1.93224776 -2.03144641 0.93446535 0 0 Z " fill="#EB7827" transform="translate(360,759)"/>
<path d="M0 0 C1.32 0.66 2.64 1.32 4 2 C1.25 8.875 1.25 8.875 -1 10 C-0.67 6.7 -0.34 3.4 0 0 Z " fill="#EF6D24" transform="translate(106,725)"/>
<path d="M0 0 C0 0.66 0 1.32 0 2 C-1.32 2 -2.64 2 -4 2 C-4.33 2.99 -4.66 3.98 -5 5 C-6.65 5.33 -8.3 5.66 -10 6 C-10.33 5.34 -10.66 4.68 -11 4 C-9.73308493 3.32591692 -8.46129251 2.66099503 -7.1875 2 C-6.47980469 1.62875 -5.77210938 1.2575 -5.04296875 0.875 C-3 0 -3 0 0 0 Z " fill="#F17328" transform="translate(272,801)"/>
<path d="M0 0 C0.66 0 1.32 0 2 0 C1.34 2.97 0.68 5.94 0 9 C-0.33 7.68 -0.66 6.36 -1 5 C-1.99 4.67 -2.98 4.34 -4 4 C-4 3.34 -4 2.68 -4 2 C-3.01 2 -2.02 2 -1 2 C-0.67 1.34 -0.34 0.68 0 0 Z " fill="#EE7524" transform="translate(724,714)"/>
<path d="M0 0 C0.33 0 0.66 0 1 0 C1.33 2.97 1.66 5.94 2 9 C0.68 9.33 -0.64 9.66 -2 10 C-1.34 6.7 -0.68 3.4 0 0 Z " fill="#D47D41" transform="translate(114,694)"/>
<path d="M0 0 C0.99 0.99 1.98 1.98 3 3 C1.66666667 5.66666667 0.33333333 8.33333333 -1 11 C-2.60080151 6.99799622 -1.29279692 3.95443764 0 0 Z " fill="#E97726" transform="translate(121,666)"/>
<path d="M0 0 C-0.33 1.32 -0.66 2.64 -1 4 C-1.66 4 -2.32 4 -3 4 C-3.12375 4.639375 -3.2475 5.27875 -3.375 5.9375 C-3.58125 6.618125 -3.7875 7.29875 -4 8 C-4.99 8.495 -4.99 8.495 -6 9 C-5.34 6.69 -4.68 4.38 -4 2 C-4.99 1.67 -5.98 1.34 -7 1 C-4.50935112 0.31292445 -2.62113708 0 0 0 Z " fill="#DE7D3C" transform="translate(897,24)"/>
<path d="M0 0 C-0.8125 2.4375 -0.8125 2.4375 -2 5 C-2.99 5.33 -3.98 5.66 -5 6 C-5 5.01 -5 4.02 -5 3 C-5.66 2.67 -6.32 2.34 -7 2 C-4.35261084 0.5393715 -3.10551666 0 0 0 Z " fill="#EC742E" transform="translate(171,848)"/>
<path d="M0 0 C0.66 0 1.32 0 2 0 C2 0.66 2 1.32 2 2 C2.99 2.33 3.98 2.66 5 3 C3.03533587 4.06775224 1.03144641 5.06553465 -1 6 C-1.66 5.67 -2.32 5.34 -3 5 C-1.625 2.5 -1.625 2.5 0 0 Z " fill="#E47528" transform="translate(266,762)"/>
<path d="M0 0 C4 2 4 2 6 4 C4.68 4 3.36 4 2 4 C2 5.98 2 7.96 2 10 C1.67 10 1.34 10 1 10 C0.67 6.7 0.34 3.4 0 0 Z " fill="#E77229" transform="translate(470,735)"/>
<path d="M0 0 C0 0.99 0 1.98 0 3 C-0.99 3 -1.98 3 -3 3 C-3 3.66 -3 4.32 -3 5 C-5.31 5.66 -7.62 6.32 -10 7 C-3.18421053 0 -3.18421053 0 0 0 Z " fill="#EA7522" transform="translate(325,390)"/>
<path d="M0 0 C0.99 0.33 1.98 0.66 3 1 C2.35455571 4.48539917 0.89865603 7.02819057 -1 10 C-2.27351308 7.45297384 -1.80191925 6.5717055 -1.0625 3.875 C-0.86785156 3.15054688 -0.67320312 2.42609375 -0.47265625 1.6796875 C-0.31667969 1.12539063 -0.16070312 0.57109375 0 0 Z " fill="#E67726" transform="translate(159,513)"/>
<path d="M0 0 C0 0.66 0 1.32 0 2 C-2.40545638 3.20272819 -3.94996953 3.10071472 -6.625 3.0625 C-7.85089844 3.04896484 -7.85089844 3.04896484 -9.1015625 3.03515625 C-10.04128906 3.01775391 -10.04128906 3.01775391 -11 3 C-6.9903514 0.32690093 -4.82843714 0 0 0 Z " fill="#E07A2F" transform="translate(840,40)"/>
<path d="M0 0 C0.33 0 0.66 0 1 0 C1.08096803 1.45742463 1.13917774 2.91612807 1.1875 4.375 C1.22230469 5.18710937 1.25710937 5.99921875 1.29296875 6.8359375 C1.19628906 7.55007813 1.09960938 8.26421875 1 9 C0.01 9.66 -0.98 10.32 -2 11 C-1.125 3.375 -1.125 3.375 0 0 Z " fill="#D1793A" transform="translate(82,822)"/>
<path d="M0 0 C0.33 0 0.66 0 1 0 C1 3.63 1 7.26 1 11 C0.01 11 -0.98 11 -2 11 C-1.34 7.37 -0.68 3.74 0 0 Z " fill="#E87D30" transform="translate(103,737)"/>
<path d="M0 0 C2.31 0.33 4.62 0.66 7 1 C3.375 4 3.375 4 0 4 C0 2.68 0 1.36 0 0 Z " fill="#EA7723" transform="translate(400,700)"/>
<path d="M0 0 C2.475 0.99 2.475 0.99 5 2 C4.67 2.99 4.34 3.98 4 5 C2.35 4.67 0.7 4.34 -1 4 C-0.67 2.68 -0.34 1.36 0 0 Z " fill="#D57B2F" transform="translate(807,155)"/>
<path d="M0 0 C1.98 0 3.96 0 6 0 C4.515 1.98 4.515 1.98 3 4 C1.68 3.67 0.36 3.34 -1 3 C-0.67 2.01 -0.34 1.02 0 0 Z " fill="#E37E18" transform="translate(634,99)"/>
<path d="M0 0 C-0.60183749 2.02045442 -1.27306096 4.02111039 -2 6 C-2.99 6.495 -2.99 6.495 -4 7 C-4.66 5.35 -5.32 3.7 -6 2 C-2.25 0 -2.25 0 0 0 Z " fill="#EE771C" transform="translate(148,858)"/>
<path d="M0 0 C0.99 0.33 1.98 0.66 3 1 C3 1.66 3 2.32 3 3 C5.475 3.99 5.475 3.99 8 5 C7.01 5.495 7.01 5.495 6 6 C3.64018187 5.06421005 1.30368736 4.06652192 -1 3 C-0.67 2.01 -0.34 1.02 0 0 Z " fill="#ED8022" transform="translate(304,616)"/>
<path d="M0 0 C2 2 2 2 2.125 5.125 C2.08375 6.07375 2.0425 7.0225 2 8 C1.01 8.33 0.02 8.66 -1 9 C-0.67 6.03 -0.34 3.06 0 0 Z " fill="#E8772B" transform="translate(138,597)"/>
<path d="M0 0 C0.66 0 1.32 0 2 0 C1.25 6.75 1.25 6.75 -1 9 C-1.33 7.35 -1.66 5.7 -2 4 C-1.34 4 -0.68 4 0 4 C-0.33 3.01 -0.66 2.02 -1 1 C-0.67 0.67 -0.34 0.34 0 0 Z " fill="#DB7B37" transform="translate(766,580)"/>
<path d="M0 0 C1.65 0 3.3 0 5 0 C3.35 1.98 1.7 3.96 0 6 C-1 3 -1 3 0 0 Z " fill="#E57A21" transform="translate(748,453)"/>
<path d="M0 0 C0.66 0.33 1.32 0.66 2 1 C1.34 2.32 0.68 3.64 0 5 C-1.98 5 -3.96 5 -6 5 C-4.06745228 2.9754262 -2.36841312 1.57894208 0 0 Z " fill="#E97B29" transform="translate(311,398)"/>
<path d="M0 0 C1.32 0 2.64 0 4 0 C2.63016497 3.16115776 2.0109362 3.9927092 -1 6 C-1.042721 4.33388095 -1.04063832 2.66617115 -1 1 C-0.67 0.67 -0.34 0.34 0 0 Z " fill="#F1751E" transform="translate(619,114)"/>
<path d="M0 0 C2.64 0.33 5.28 0.66 8 1 C6.515 2.485 6.515 2.485 5 4 C2.525 3.01 2.525 3.01 0 2 C0 1.34 0 0.68 0 0 Z " fill="#E7772B" transform="translate(547,40)"/>
<path d="M0 0 C0.598125 0.20625 1.19625 0.4125 1.8125 0.625 C1.4825 1.945 1.1525 3.265 0.8125 4.625 C-1.1675 3.635 -3.1475 2.645 -5.1875 1.625 C-2.1875 -0.375 -2.1875 -0.375 0 0 Z " fill="#E57E26" transform="translate(171.1875,924.375)"/>
<path d="M0 0 C0 1.65 0 3.3 0 5 C-1.98 4.34 -3.96 3.68 -6 3 C-3.375 0 -3.375 0 0 0 Z " fill="#E78127" transform="translate(140,907)"/>
<path d="M0 0 C1.98 0 3.96 0 6 0 C4.02579865 2.52259061 3.03254358 2.9929808 -0.1875 3.6875 C-1.5796875 3.8421875 -1.5796875 3.8421875 -3 4 C-2.67 3.34 -2.34 2.68 -2 2 C-1.34 2 -0.68 2 0 2 C0 1.34 0 0.68 0 0 Z " fill="#EE6F22" transform="translate(153,816)"/>
<path d="M0 0 C0.99 0 1.98 0 3 0 C3 1.32 3 2.64 3 4 C3.99 4 4.98 4 6 4 C6 4.66 6 5.32 6 6 C4.35 5.67 2.7 5.34 1 5 C0.67 3.35 0.34 1.7 0 0 Z " fill="#F67607" transform="translate(431,728)"/>
<path d="M0 0 C0.99 0.33 1.98 0.66 3 1 C3 3.31 3 5.62 3 8 C2.01 7.67 1.02 7.34 0 7 C0 4.69 0 2.38 0 0 Z " fill="#E97728" transform="translate(115,696)"/>
<path d="M0 0 C1.25541557 3.76624671 0.37061958 5.37188934 -1 9 C-1.66 8.34 -2.32 7.68 -3 7 C-3 3 -3 3 -1.5 1.25 C-1.005 0.8375 -0.51 0.425 0 0 Z " fill="#E4782D" transform="translate(792,501)"/>
<path d="M0 0 C2.475 0.99 2.475 0.99 5 2 C5 2.66 5 3.32 5 4 C3.02 4 1.04 4 -1 4 C-0.67 2.68 -0.34 1.36 0 0 Z " fill="#FB7120" transform="translate(195,476)"/>
<path d="M0 0 C1 3 1 3 0 6 C-1.65 6 -3.3 6 -5 6 C-3.35 4.02 -1.7 2.04 0 0 Z " fill="#E2782A" transform="translate(676,109)"/>
<path d="M0 0 C0.99 0 1.98 0 3 0 C2.67 1.65 2.34 3.3 2 5 C1.34 5 0.68 5 0 5 C0 5.66 0 6.32 0 7 C-0.66 7 -1.32 7 -2 7 C-1.67 6.401875 -1.34 5.80375 -1 5.1875 C0.20787988 2.94613529 0.20787988 2.94613529 0 0 Z " fill="#EC6C10" transform="translate(658,76)"/>
<path d="M0 0 C1.16945792 0.80847729 2.33550461 1.62189112 3.5 2.4375 C4.47453125 3.11619141 4.47453125 3.11619141 5.46875 3.80859375 C5.9740625 4.20175781 6.479375 4.59492187 7 5 C7 5.33 7 5.66 7 6 C5.35 6 3.7 6 2 6 C1.34 4.02 0.68 2.04 0 0 Z " fill="#E77A1E" transform="translate(744,930)"/>
<path d="M0 0 C0 0.66 0 1.32 0 2 C-0.99 2 -1.98 2 -3 2 C-3.33 3.32 -3.66 4.64 -4 6 C-5.32 5.01 -6.64 4.02 -8 3 C-2.25 0 -2.25 0 0 0 Z " fill="#E77724" transform="translate(226,822)"/>
<path d="M0 0 C0.33 0 0.66 0 1 0 C1.75 2.6875 1.75 2.6875 2 6 C0.0625 8.875 0.0625 8.875 -2 11 C-1.125 3.375 -1.125 3.375 0 0 Z " fill="#EA762A" transform="translate(92,782)"/>
<path d="M0 0 C0.99 0 1.98 0 3 0 C2.34 2.97 1.68 5.94 1 9 C0.67 9 0.34 9 0 9 C0 6.03 0 3.06 0 0 Z " fill="#E77727" transform="translate(701,784)"/>
<path d="M0 0 C1.5625 1.8125 1.5625 1.8125 3 4 C2.67 4.99 2.34 5.98 2 7 C0.35 6.01 -1.3 5.02 -3 4 C-2.34 3.67 -1.68 3.34 -1 3 C-0.67 2.01 -0.34 1.02 0 0 Z " fill="#DC6922" transform="translate(281,554)"/>
<path d="M0 0 C0.99 0 1.98 0 3 0 C2.34 2.97 1.68 5.94 1 9 C0.67 9 0.34 9 0 9 C0 6.03 0 3.06 0 0 Z " fill="#E57928" transform="translate(805,454)"/>
<path d="M0 0 C1.32 0.33 2.64 0.66 4 1 C2.35 2.65 0.7 4.3 -1 6 C-1.33 5.01 -1.66 4.02 -2 3 C-1.34 2.01 -0.68 1.02 0 0 Z " fill="#EB7023" transform="translate(612,122)"/>
<path d="M0 0 C1 2 1 2 0.0625 5.125 C-0.288125 6.07375 -0.63875 7.0225 -1 8 C-2.32 7.67 -3.64 7.34 -5 7 C-3.35 4.69 -1.7 2.38 0 0 Z " fill="#E27623" transform="translate(898,83)"/>
<path d="M0 0 C0.33 1.65 0.66 3.3 1 5 C0.01 5.33 -0.98 5.66 -2 6 C-2 4.68 -2 3.36 -2 2 C-3.32 1.67 -4.64 1.34 -6 1 C-3.92446352 0.4465236 -2.15634036 0 0 0 Z " fill="#E27B1E" transform="translate(810,48)"/>
<path d="M0 0 C0.66 0 1.32 0 2 0 C2 1.98 2 3.96 2 6 C1.01 6.495 1.01 6.495 0 7 C-0.66 5.35 -1.32 3.7 -2 2 C-1.34 1.34 -0.68 0.68 0 0 Z " fill="#EC7523" transform="translate(510,50)"/>
</svg>
