<?xml version="1.0" encoding="UTF-8"?>
<svg version="1.1" xmlns="http://www.w3.org/2000/svg" width="165" height="156">
<path d="M0 0 C21.78 0 43.56 0 66 0 C66 0.99 66 1.98 66 3 C65.21463867 3.3623877 64.42927734 3.72477539 63.62011719 4.09814453 C60.64481164 5.47213591 57.67030628 6.84783287 54.69628906 8.22460938 C53.42055326 8.81478921 52.14452186 9.4043306 50.86816406 9.99316406 C49.01024182 10.85044157 47.15332536 11.70985259 45.296875 12.5703125 C44.68453003 12.85352356 44.07218506 13.13673462 43.44128418 13.42852783 C38.38274792 15.78411519 33.42761263 18.31766154 28.49707031 20.92919922 C26 22 26 22 22 22 C21.34 20.35 20.68 18.7 20 17 C26 14 32 11 38 8 C25.46 7.67 12.92 7.34 0 7 C0 4.69 0 2.38 0 0 Z " fill="#6D7CA0" transform="translate(0,79)"/>
<path d="M0 0 C1.65 0.66 3.3 1.32 5 2 C4.50372318 6.79132712 2.19771508 10.02090287 -0.5625 13.8125 C-0.98724609 14.40998047 -1.41199219 15.00746094 -1.84960938 15.62304688 C-2.89223259 17.08740533 -3.94510452 18.54445735 -5 20 C-1.01199934 19.3543816 2.03346123 17.28180552 5.375 15.1484375 C6.61953669 14.371987 7.8643364 13.59595793 9.109375 12.8203125 C11.06123217 11.5962164 13.01044828 10.36836153 14.95507812 9.1328125 C16.83833002 7.9393895 18.73073112 6.76176979 20.625 5.5859375 C21.20427246 5.21205902 21.78354492 4.83818054 22.38037109 4.45297241 C26.46255992 1.93818126 26.46255992 1.93818126 29.3984375 2.27587891 C29.92695313 2.51483887 30.45546875 2.75379883 31 3 C31.495 5.475 31.495 5.475 32 8 C30.99066406 8.54785156 29.98132813 9.09570312 28.94140625 9.66015625 C13.89084582 17.89406333 -0.8529268 26.66769199 -15.4140625 35.73828125 C-16.02660889 36.11968262 -16.63915527 36.50108398 -17.27026367 36.89404297 C-18.79697234 37.84954931 -20.31867164 38.81304757 -21.83984375 39.77734375 C-24 41 -24 41 -26 41 C-25.36204284 37.05271402 -23.42106499 34.33878223 -21.2109375 31.0546875 C-20.63866928 30.19981247 -20.63866928 30.19981247 -20.05484009 29.32766724 C-18.8335926 27.50643891 -17.60433932 25.69077327 -16.375 23.875 C-15.57110742 22.67742362 -14.76771713 21.47950991 -13.96484375 20.28125 C-9.38889467 13.46539455 -4.73927855 6.70354678 0 0 Z " fill="#6E7BA0" transform="translate(111,33)"/>
<path d="M0 0 C5.8976032 2.59494541 10.95784242 5.99303987 16.13208008 9.7890625 C19.65027858 12.35759474 23.21163774 14.81555705 26.87109375 17.1796875 C27.69109863 17.71142578 28.51110352 18.24316406 29.35595703 18.79101562 C30.97196907 19.83302378 32.59393242 20.8658694 34.22216797 21.88867188 C35.32842529 22.60506836 35.32842529 22.60506836 36.45703125 23.3359375 C37.11678955 23.75407715 37.77654785 24.1722168 38.45629883 24.60302734 C40.36799295 26.33301528 40.7995555 27.44361566 41 30 C40.34 30.66 39.68 31.32 39 32 C35.95590171 31.62713325 33.83358398 30.42114771 31.328125 28.71484375 C30.33232422 28.04291992 30.33232422 28.04291992 29.31640625 27.35742188 C28.63449219 26.88884766 27.95257813 26.42027344 27.25 25.9375 C26.55261719 25.46505859 25.85523437 24.99261719 25.13671875 24.50585938 C23.42095007 23.34242719 21.70999602 22.17190026 20 21 C21.10334544 22.93796778 22.20775836 24.87532779 23.3125 26.8125 C23.65990234 27.42327393 24.00730469 28.03404785 24.36523438 28.66333008 C26.54068854 32.47841459 28.74595204 36.27385942 30.98046875 40.0546875 C31.4808667 40.90571045 31.98126465 41.7567334 32.49682617 42.63354492 C33.49042532 44.32171134 34.48920504 46.00684047 35.4934082 47.6887207 C35.9493335 48.46562256 36.40525879 49.24252441 36.875 50.04296875 C37.28492188 50.73414795 37.69484375 51.42532715 38.1171875 52.13745117 C39 54 39 54 39 57 C37.35 57.66 35.7 58.32 34 59 C25.63484707 45.28783881 17.28670361 31.56440734 9.05737305 17.77017212 C8.35488521 16.59412136 7.65063158 15.41912348 6.94458008 14.24520874 C5.95809389 12.60394323 4.97888119 10.9583126 4 9.3125 C3.443125 8.38050781 2.88625 7.44851562 2.3125 6.48828125 C1.14646384 4.27767103 0.45743199 2.44154322 0 0 Z " fill="#6E7B9F" transform="translate(92,91)"/>
<path d="M0 0 C3.25714772 1.4374974 4.16492247 3.78790225 5.9050293 6.84619141 C6.25254745 7.44826416 6.60006561 8.05033691 6.95811462 8.6706543 C8.08368371 10.62633628 9.19141736 12.59153018 10.29956055 14.55712891 C11.06820181 15.89825181 11.8382232 17.23858466 12.60961914 18.578125 C14.11581035 21.1957889 15.61658868 23.81641795 17.11254883 26.43994141 C19.43695714 30.50946199 21.81654956 34.54406052 24.23706055 38.55712891 C24.89834961 39.65669922 25.55963867 40.75626953 26.2409668 41.88916016 C28.72255461 45.92497834 31.28976078 49.90238165 33.8972168 53.85791016 C35.11206055 55.93212891 35.11206055 55.93212891 35.11206055 57.93212891 C31.47581745 57.28835413 29.01129617 55.73308211 25.96362305 53.68603516 C24.96395508 53.01765625 23.96428711 52.34927734 22.93432617 51.66064453 C21.87922852 50.94585937 20.82413086 50.23107422 19.73706055 49.49462891 C18.66391602 48.77339844 17.59077148 48.05216797 16.48510742 47.30908203 C8.59433782 41.98673653 0.79072362 36.55593848 -6.88793945 30.93212891 C-5.89793945 29.28212891 -4.90793945 27.63212891 -3.88793945 25.93212891 C0.84049668 27.50526062 4.45544485 30.13854125 8.42456055 33.05712891 C9.06973633 33.52505859 9.71491211 33.99298828 10.37963867 34.47509766 C11.96054949 35.62272181 13.53678356 36.77678367 15.11206055 37.93212891 C10.36835198 28.97583082 5.13861027 20.38792122 -0.29223633 11.83447266 C-0.9000293 10.85607422 -1.50782227 9.87767578 -2.1340332 8.86962891 C-2.68760498 7.99177734 -3.24117676 7.11392578 -3.81152344 6.20947266 C-4.88793945 3.93212891 -4.88793945 3.93212891 -3.88793945 0.93212891 C-1.88793945 -0.06787109 -1.88793945 -0.06787109 0 0 Z " fill="#6E7BA0" transform="translate(35.887939453125,10.06787109375)"/>
<path d="M0 0 C1.67542976 0.28604898 3.34385343 0.61781233 5 1 C4.56257219 7.01706255 1.82972134 11.25515778 -1.1875 16.3125 C-2.2773734 18.17630523 -3.36585374 20.04092558 -4.453125 21.90625 C-5.02869141 22.88980469 -5.60425781 23.87335937 -6.19726562 24.88671875 C-9.94885144 31.3656221 -13.55846821 37.92532206 -17.19018555 44.47192383 C-23.62117524 56.01221106 -23.62117524 56.01221106 -27 61 C-27.66 61 -28.32 61 -29 61 C-28.59620825 54.66421252 -28.1866917 48.32881369 -27.77319336 41.99365234 C-27.63320184 39.83846422 -27.49452101 37.68319054 -27.35717773 35.52783203 C-27.15953591 32.42977852 -26.95718242 29.33206328 -26.75390625 26.234375 C-26.6934462 25.27070007 -26.63298615 24.30702515 -26.57069397 23.31414795 C-26.48071388 21.96320038 -26.48071388 21.96320038 -26.38891602 20.58496094 C-26.33784195 19.79442322 -26.28676788 19.0038855 -26.23414612 18.18939209 C-26.00509228 16.04761554 -25.57552269 14.07302628 -25 12 C-23.02 12 -21.04 12 -19 12 C-19 18.93 -19 25.86 -19 33 C-18.20335938 31.52789062 -17.40671875 30.05578125 -16.5859375 28.5390625 C-15.51573994 26.56764594 -14.44542093 24.59629529 -13.375 22.625 C-12.85292969 21.65949219 -12.33085938 20.69398437 -11.79296875 19.69921875 C-2.37522978 2.37522978 -2.37522978 2.37522978 0 0 Z M-21 34 C-20 36 -20 36 -20 36 Z " fill="#6D7BA0" transform="translate(113,2)"/>
<path d="M0 0 C0.66 0 1.32 0 2 0 C1.59756438 6.81802618 1.18793152 13.63559204 0.77319336 20.45288086 C0.63284546 22.77406919 0.49417078 25.0953593 0.35717773 27.41674805 C0.16044619 30.74555939 -0.04221955 34.07396321 -0.24609375 37.40234375 C-0.33678383 38.96951393 -0.33678383 38.96951393 -0.42930603 40.56834412 C-0.51928612 42.00972496 -0.51928612 42.00972496 -0.61108398 43.48022461 C-0.66215805 44.33071884 -0.71323212 45.18121307 -0.76585388 46.05747986 C-1 48 -1 48 -2 49 C-3.98 49 -5.96 49 -8 49 C-7.67 41.74 -7.34 34.48 -7 27 C-8.90241033 30.3955064 -10.80471945 33.79106923 -12.70678711 37.18676758 C-13.66574368 38.89866143 -14.62486215 40.61046458 -15.58398438 42.32226562 C-19.06762746 48.54175406 -22.54418055 54.7650039 -26 61 C-27.98 60.67 -29.96 60.34 -32 60 C-31.40746589 56.21589053 -30.31643365 53.35310381 -28.48046875 50 C-27.958479 49.0404541 -27.43648926 48.0809082 -26.89868164 47.09228516 C-26.05164673 45.561604 -26.05164673 45.561604 -25.1875 44 C-24.31822876 42.41324463 -24.31822876 42.41324463 -23.43139648 40.79443359 C-17.74776509 30.45789315 -11.93930667 20.19170966 -6 10 C-5.46874512 9.06897461 -4.93749023 8.13794922 -4.39013672 7.17871094 C-3.85791504 6.2612207 -3.32569336 5.34373047 -2.77734375 4.3984375 C-2.05212524 3.13652588 -2.05212524 3.13652588 -1.31225586 1.84912109 C-0.87921143 1.23891113 -0.44616699 0.62870117 0 0 Z " fill="#6E7BA0" transform="translate(74,93)"/>
<path d="M0 0 C0.495 1.485 0.495 1.485 1 3 C0.01879883 4.89086914 0.01879883 4.89086914 -1.54296875 7.03515625 C-2.11708496 7.83663086 -2.69120117 8.63810547 -3.28271484 9.46386719 C-3.91129395 10.32141602 -4.53987305 11.17896484 -5.1875 12.0625 C-6.47705851 13.85938802 -7.76478021 15.6575955 -9.05078125 17.45703125 C-10.03618896 18.83109131 -10.03618896 18.83109131 -11.04150391 20.23291016 C-14.07222395 24.51490728 -16.98006184 28.87549564 -19.875 33.25 C-20.39215576 34.02996338 -20.90931152 34.80992676 -21.44213867 35.61352539 C-22.6301517 37.40765506 -23.81541902 39.20360246 -25 41 C-26.65 40.67 -28.3 40.34 -30 40 C-30 35.99354956 -29.91644529 35.37884567 -27.8125 32.328125 C-27.13574219 31.33232422 -27.13574219 31.33232422 -26.4453125 30.31640625 C-25.96835937 29.63449219 -25.49140625 28.95257813 -25 28.25 C-24.52304687 27.55261719 -24.04609375 26.85523437 -23.5546875 26.13671875 C-22.37803398 24.4188046 -21.19009199 22.70863208 -20 21 C-23.97712353 21.64931392 -27.03178372 23.70007246 -30.375 25.81640625 C-31.61967691 26.58807575 -32.86447219 27.35955436 -34.109375 28.13085938 C-36.05994881 29.34799972 -38.00867238 30.56795273 -39.95507812 31.79174805 C-41.84037614 32.97433975 -43.73218621 34.1458942 -45.625 35.31640625 C-46.20427246 35.68512344 -46.78354492 36.05384064 -47.38037109 36.43373108 C-50.64794251 38.44623452 -52.02863581 39 -56 39 C-56.33 37.35 -56.66 35.7 -57 34 C-42.26514484 24.55577 -27.11978779 15.80704108 -12 7 C-9.70292008 5.66050723 -7.40615248 4.32048013 -5.109375 2.98046875 C-3.40625 1.98697917 -1.703125 0.99348958 0 0 Z " fill="#6D7CA0" transform="translate(76,80)"/>
<path d="M0 0 C1.98 0 3.96 0 6 0 C6 22.44 6 44.88 6 68 C5.34 68 4.68 68 4 68 C1.63175728 63.14466294 -0.73429748 58.28826802 -3.09838867 53.4309082 C-3.90183399 51.78088065 -4.70586172 50.13113654 -5.51049805 48.48168945 C-6.67131757 46.10182975 -7.82999337 43.72093645 -8.98828125 41.33984375 C-9.34465164 40.61039047 -9.70102203 39.88093719 -10.06819153 39.12937927 C-16 26.91791722 -16 26.91791722 -16 23 C-14.35 22.34 -12.7 21.68 -11 21 C-7.7 27.27 -4.4 33.54 -1 40 C-1.01740234 35.79443359 -1.01740234 35.79443359 -1.03515625 31.50390625 C-1.04294633 28.80004998 -1.04902337 26.09619494 -1.05493164 23.39233398 C-1.05997244 21.5075627 -1.06680498 19.62279535 -1.07543945 17.73803711 C-1.08751617 15.03498364 -1.09323068 12.33198169 -1.09765625 9.62890625 C-1.10281754 8.78099014 -1.10797882 7.93307404 -1.11329651 7.0594635 C-1.11349195 5.03928932 -1.06206211 3.01922066 -1 1 C-0.67 0.67 -0.34 0.34 0 0 Z " fill="#6D7B9F" transform="translate(74,5)"/>
<path d="M0 0 C3 1 3 1 4.53051758 3.60107422 C5.06314209 4.7407666 5.5957666 5.88045898 6.14453125 7.0546875 C6.43680099 7.67086945 6.72907074 8.28705139 7.03019714 8.92190552 C7.9673709 10.90185094 8.89052124 12.88793943 9.8125 14.875 C11.02258963 17.45798312 12.23888166 20.03799736 13.45703125 22.6171875 C13.75247833 23.24663269 14.04792542 23.87607788 14.35232544 24.52459717 C16.66901009 29.41867406 19.22605291 34.14556312 21.94018555 38.83251953 C23 41 23 41 23 44 C20.03 44.495 20.03 44.495 17 45 C13.7 38.73 10.4 32.46 7 26 C6.67 39.53 6.34 53.06 6 67 C4.02 67 2.04 67 0 67 C0 44.89 0 22.78 0 0 Z " fill="#6E7BA0" transform="translate(81,84)"/>
<path d="M0 0 C16.17 0 32.34 0 49 0 C49 1.65 49 3.3 49 5 C36.625 5.495 36.625 5.495 24 6 C28.6715625 8.660625 28.6715625 8.660625 33.4375 11.375 C43.00735133 16.83467465 52.52085094 22.384567 62 28 C61.34 29.65 60.68 31.3 60 33 C55.78352125 32.39757671 52.71247721 30.9395587 49.01171875 28.859375 C48.43950592 28.54060898 47.86729309 28.22184296 47.27774048 27.89341736 C45.41076904 26.85183208 43.54914115 25.80107767 41.6875 24.75 C39.08215902 23.29040685 36.47459067 21.83481144 33.8671875 20.37890625 C33.21049576 20.01130692 32.55380402 19.64370758 31.87721252 19.26496887 C27.54901023 16.84688744 23.19626287 14.48297321 18.8203125 12.15234375 C17.16962769 11.2720752 17.16962769 11.2720752 15.4855957 10.37402344 C13.40633343 9.26888042 11.32422758 8.16906716 9.23901367 7.07519531 C7.84646362 6.33221191 7.84646362 6.33221191 6.42578125 5.57421875 C5.61536377 5.14713623 4.80494629 4.72005371 3.9699707 4.2800293 C2 3 2 3 0 0 Z " fill="#6E7CA0" transform="translate(86,81)"/>
<path d="M0 0 C0.66 1.98 1.32 3.96 2 6 C-3.94 8.97 -9.88 11.94 -16 15 C-3.46 15.33 9.08 15.66 22 16 C22 17.98 22 19.96 22 22 C0.55 22 -20.9 22 -43 22 C-43 21.34 -43 20.68 -43 20 C-41.68515625 19.34257813 -41.68515625 19.34257813 -40.34375 18.671875 C-39.74457764 18.37216797 -39.14540527 18.07246094 -38.52807617 17.76367188 C-37.15362761 17.07669578 -35.77877748 16.39052261 -34.40356445 15.70507812 C-29.82564345 13.4213125 -25.25885936 11.11694564 -20.69921875 8.796875 C-19.62285156 8.25192383 -18.54648438 7.70697266 -17.4375 7.14550781 C-15.2853508 6.05585294 -13.13556782 4.96151091 -10.98828125 3.86230469 C-9.99570313 3.36118164 -9.003125 2.86005859 -7.98046875 2.34375 C-7.09254639 1.89193359 -6.20462402 1.44011719 -5.28979492 0.97460938 C-3 0 -3 0 0 0 Z " fill="#6E7B9F" transform="translate(136,54)"/>
<path d="M0 0 C3.75636093 0.59077541 6.6017136 1.65975166 9.9296875 3.484375 C10.87924316 4.0014502 11.82879883 4.51852539 12.80712891 5.05126953 C13.81952637 5.61185059 14.83192383 6.17243164 15.875 6.75 C16.92478027 7.32476074 17.97456055 7.89952148 19.05615234 8.49169922 C27.58363744 13.17602583 36.06152077 17.94936493 44.51123047 22.77246094 C48.95541608 25.30583055 53.39070178 27.77957395 58 30 C58 30.66 58 31.32 58 32 C42.16 32 26.32 32 10 32 C10 30.35 10 28.7 10 27 C17.92 26.67 25.84 26.34 34 26 C32.40671875 25.07058594 30.8134375 24.14117187 29.171875 23.18359375 C18.78125 17.12239583 8.390625 11.06119792 -2 5 C-1.34 3.35 -0.68 1.7 0 0 Z " fill="#6D7CA0" transform="translate(16,43)"/>
</svg>
