<?xml version="1.0" encoding="UTF-8"?>
<svg version="1.1" xmlns="http://www.w3.org/2000/svg" width="927" height="228">
<path d="M0 0 C3.50303094 -0.37706236 5.83848535 -0.26970122 8.8125 1.72265625 C23.98771119 17.1732241 29.89119698 40.13736829 29.828125 61.171875 C29.82586914 62.1510791 29.82361328 63.1302832 29.82128906 64.13916016 C29.81693848 65.24976807 29.81693848 65.24976807 29.8125 66.3828125 C30.78517272 66.38142981 30.78517272 66.38142981 31.77749538 66.38001919 C47.5335841 66.35796401 63.28966747 66.34140098 79.04576778 66.33100033 C86.66520173 66.32583736 94.28462539 66.31879466 101.90405273 66.30737305 C108.54278827 66.29742622 115.18151637 66.29095908 121.82025915 66.28872401 C125.33754336 66.28741689 128.85480626 66.28433103 132.37208366 66.27708244 C136.29224938 66.26906861 140.21239399 66.26882136 144.13256836 66.26928711 C145.30716614 66.26569183 146.48176392 66.26209656 147.69195557 66.25839233 C149.28429268 66.26045433 149.28429268 66.26045433 150.90879822 66.26255798 C151.83704375 66.26163619 152.76528929 66.2607144 153.72166348 66.25976467 C155.8125 66.3828125 155.8125 66.3828125 156.8125 67.3828125 C156.91073937 69.04710301 156.94223631 70.71563181 156.9375 72.3828125 C156.94007813 73.2903125 156.94265625 74.1978125 156.9453125 75.1328125 C156.8125 77.3828125 156.8125 77.3828125 155.8125 78.3828125 C154.0632128 78.47646256 152.31013746 78.50025688 150.55834961 78.49633789 C149.43726303 78.49626236 148.31617645 78.49618683 147.16111755 78.49610901 C145.33146202 78.48836708 145.33146202 78.48836708 143.46484375 78.48046875 C142.22328018 78.4790538 140.98171661 78.47763885 139.70252991 78.47618103 C136.39644509 78.47151841 133.09042854 78.46252747 129.78436279 78.45147705 C126.4128885 78.44126077 123.04140717 78.43668295 119.66992188 78.43164062 C113.05075982 78.42058645 106.43163929 78.4033091 99.8125 78.3828125 C100.1425 82.3428125 100.4725 86.3028125 100.8125 90.3828125 C101.64910156 90.16625 102.48570312 89.9496875 103.34765625 89.7265625 C116.47399551 86.58670726 130.63721786 84.79785816 142.6875 92.1328125 C151.21766045 101.1647471 151.13128179 113.23705056 151.0078125 125.0546875 C151.00356766 126.62733368 151.00356766 126.62733368 150.99923706 128.23175049 C150.98817322 131.53222795 150.96309568 134.83241911 150.9375 138.1328125 C150.92745233 140.39062104 150.91832964 142.6484339 150.91015625 144.90625 C150.88827936 150.39853276 150.85494283 155.89065217 150.8125 161.3828125 C147.47778962 160.75408961 144.66807078 160.02640488 141.625 158.5078125 C140.61373047 158.01667969 140.61373047 158.01667969 139.58203125 157.515625 C137.8125 156.3828125 137.8125 156.3828125 135.8125 153.3828125 C131.37321356 154.74874679 127.24877785 156.50114827 123.05859375 158.48046875 C114.20993825 162.03531992 101.66060775 161.78604961 92.6875 158.6953125 C85.58072603 155.62182148 80.68920085 152.24159093 76.8125 145.3828125 C75.26897751 140.75224502 74.96619361 136.6884042 76.6484375 132.10546875 C82.20559926 121.19627537 91.81238199 116.02115808 102.83203125 111.56640625 C114.33562399 107.98249827 126.29775137 110.12543818 136.8125 115.3828125 C136.6636937 113.96156045 136.46643685 112.54534773 136.25 111.1328125 C136.14558594 110.34390625 136.04117187 109.555 135.93359375 108.7421875 C134.21788998 105.1314381 131.43509345 103.69679463 127.8125 102.3828125 C124.72625801 101.86861326 121.7472532 101.85857451 118.625 101.9453125 C117.78783447 101.95852539 116.95066895 101.97173828 116.08813477 101.98535156 C106.28300612 102.26881871 97.78028449 104.6732747 88.87109375 108.7109375 C86.8125 109.3828125 86.8125 109.3828125 83.8125 108.3828125 C83.625 106.0703125 83.625 106.0703125 83.8125 103.3828125 C84.8025 102.3928125 85.7925 101.4028125 86.8125 100.3828125 C87.1425 93.1228125 87.4725 85.8628125 87.8125 78.3828125 C68.6725 78.3828125 49.5325 78.3828125 29.8125 78.3828125 C29.8125 105.4428125 29.8125 132.5028125 29.8125 160.3828125 C29.1525 160.7128125 28.4925 161.0428125 27.8125 161.3828125 C25.36917274 160.30763132 23.04495477 159.18472684 20.6875 157.9453125 C20.02878906 157.60693359 19.37007812 157.26855469 18.69140625 156.91992188 C17.06143453 156.08131324 15.43648091 155.23296439 13.8125 154.3828125 C13.8125 150.7528125 13.8125 147.1228125 13.8125 143.3828125 C13.1525 143.3828125 12.4925 143.3828125 11.8125 143.3828125 C11.56628906 143.95 11.32007813 144.5171875 11.06640625 145.1015625 C7.48352253 151.6199553 1.14994155 157.20358108 -5.82421875 159.78125 C-14.93786067 162.10108613 -21.89848466 159.93773901 -29.88671875 155.43359375 C-41.61336718 148.14780626 -49.67476264 137.81019908 -53.1875 124.3828125 C-54.42312947 115.57895254 -49.75472539 107.43558016 -44.81640625 100.41796875 C-39.6112821 93.91468414 -33.02926001 89.9967325 -25.1875 87.3828125 C-16.49190168 86.65232605 -10.08653456 87.20677773 -3.23828125 92.78515625 C2.23100187 97.59985067 7.17187592 102.76521493 11.8125 108.3828125 C12.4725 108.7128125 13.1325 109.0428125 13.8125 109.3828125 C13.8125 99.1528125 13.8125 88.9228125 13.8125 78.3828125 C-50.8675 78.3828125 -115.5475 78.3828125 -182.1875 78.3828125 C-183.31006131 76.13768988 -183.32163762 74.86824601 -183.3125 72.3828125 C-183.31636719 71.3309375 -183.31636719 71.3309375 -183.3203125 70.2578125 C-183.1875 68.3828125 -183.1875 68.3828125 -182.1875 66.3828125 C-117.5075 66.3828125 -52.8275 66.3828125 13.8125 66.3828125 C11.39260219 42.18383445 5.89564978 25.93832334 -7.71875 6.7734375 C-9.1875 4.3828125 -9.1875 4.3828125 -9.1875 1.3828125 C-6.12998799 0.86238492 -3.05378634 0.53441261 0 0 Z M-34.98046875 113.6640625 C-40.14650587 121.22291966 -40.93306475 127.25234565 -40.1875 136.3828125 C-38.93352733 141.40669025 -36.59677363 144.43166977 -32.375 147.3828125 C-27.66951827 149.9391976 -24.17672845 150.08186418 -18.94921875 148.859375 C-6.7076152 144.9155091 1.86414011 134.29776415 7.8125 123.3828125 C9.55451212 119.89878826 9.25004013 116.19198537 8.8125 112.3828125 C6.57109223 107.31528189 3.19723272 104.74747629 -1.6328125 102.30078125 C-13.55821669 98.01565895 -27.42624884 104.05259316 -34.98046875 113.6640625 Z M85.1875 136.6015625 C83.32077207 139.01982369 82.46344378 141.41740194 81.8125 144.3828125 C88.68216303 150.29835566 94.97820824 149.90475096 103.8125 149.3828125 C115.92856979 147.70081693 127.0977433 143.0975692 135.8125 134.3828125 C136.1425 133.3928125 136.4725 132.4028125 136.8125 131.3828125 C132.13388805 125.99625268 124.20818774 124.34780899 117.375 123.4453125 C105.06714523 122.72545224 93.58412815 127.738455 85.1875 136.6015625 Z " fill="#FE8F12" transform="translate(763.1875,10.6171875)"/>
<path d="M0 0 C6.27 0 12.54 0 19 0 C19.74121094 2.12566406 20.48242188 4.25132813 21.24609375 6.44140625 C22.30857513 9.48223356 23.37287532 12.52242247 24.4375 15.5625 C24.85810196 16.7639415 24.85810196 16.7639415 25.28720093 17.98965454 C29.01648618 28.63143499 32.80098706 39.2519046 36.6484375 49.8515625 C37.23048698 51.4555616 37.23048698 51.4555616 37.82429504 53.09196472 C39.74868162 58.39142465 41.67815047 63.68898428 43.61303711 68.98461914 C44.32150885 70.93113159 45.02992626 72.87766381 45.73828125 74.82421875 C46.06891571 75.72463898 46.39955017 76.6250592 46.74020386 77.55276489 C47.03903473 78.3754184 47.3378656 79.1980719 47.64575195 80.0456543 C47.90854446 80.76456345 48.17133698 81.4834726 48.4420929 82.22416687 C49 84 49 84 49 86 C43.06 86 37.12 86 31 86 C29.02 80.72 27.04 75.44 25 70 C14.44 70 3.88 70 -7 70 C-8.98 75.28 -10.96 80.56 -13 86 C-18.94 86 -24.88 86 -31 86 C-26.10692647 71.05940155 -20.94295903 56.22675539 -15.62890625 41.4309082 C-14.36575729 37.91174964 -13.10848645 34.39052668 -11.8515625 30.86914062 C-11.03420518 28.58841584 -10.21650899 26.30781247 -9.3984375 24.02734375 C-9.0306015 22.99584702 -8.6627655 21.96435028 -8.28378296 20.90159607 C-5.73883348 13.83534748 -2.9317291 6.91500772 0 0 Z M9 24 C6.04679957 30.36529172 3.54043341 36.80703934 1.25 43.4375 C0.93417969 44.33404297 0.61835937 45.23058594 0.29296875 46.15429688 C-1.36820212 50.47990273 -1.36820212 50.47990273 -2 55 C5.26 55 12.52 55 20 55 C17.35692322 44.42769289 13.67044771 34.2492395 10 24 C9.67 24 9.34 24 9 24 Z " fill="#2DBA22" transform="translate(40,74)"/>
<path d="M0 0 C-0.020625 -0.804375 -0.04125 -1.60875 -0.0625 -2.4375 C0 -5 0 -5 1 -6 C6.28 -6 11.56 -6 17 -6 C17 16.77 17 39.54 17 63 C11.39 63 5.78 63 0 63 C-0.33 61.35 -0.66 59.7 -1 58 C-1.68707031 58.34933594 -2.37414062 58.69867188 -3.08203125 59.05859375 C-3.98308594 59.51363281 -4.88414062 59.96867187 -5.8125 60.4375 C-6.70582031 60.88996094 -7.59914063 61.34242188 -8.51953125 61.80859375 C-15.40199321 65.1143432 -23.48165145 65.02325492 -30.86328125 63.3515625 C-41.01554729 59.65695869 -47.37193872 52.59104805 -52 43 C-55.63418361 34.22903763 -55.11912007 23.17966494 -52.03515625 14.34375 C-48.09457862 5.42168743 -42.24525292 -0.72004335 -33.375 -4.8125 C-21.12215834 -9.12368503 -10.94999848 -6.34866933 0 0 Z M-32.875 14.75 C-36.90452741 20.91280663 -37.48889921 26.46178407 -36.53515625 33.609375 C-35.09755569 40.03135708 -31.43957017 44.33875085 -26 48 C-21.21993126 50.08260256 -16.94424339 50.42924943 -11.953125 48.88671875 C-7.04784233 46.65972042 -3.87473432 43.41086181 -1.0625 38.875 C1.41657058 31.8119876 0.9653179 24.24885553 -2.125 17.5 C-5.10792495 12.22056181 -8.22706741 9.92431086 -14 8 C-21.96951553 7.32461733 -27.07516321 9.20233003 -32.875 14.75 Z " fill="#2CBA21" transform="translate(293,97)"/>
<path d="M0 0 C6.39648755 5.49589905 11.17041015 13.49670408 12 22 C12.32116788 31.03649635 12.32116788 31.03649635 11 35 C-5.5 35 -22 35 -39 35 C-35.60196302 43.69856834 -35.60196302 43.69856834 -29 48 C-23.97141801 49.676194 -19.65969589 49.60642735 -14.75 47.8125 C-11.86373851 46.18847684 -11.86373851 46.18847684 -10.40625 43.40625 C-7.72169822 40.72169822 -7.26749197 40.63991755 -3.671875 40.51171875 C-2.03053757 40.54481023 -0.38955835 40.60424118 1.25 40.6875 C2.09046875 40.71005859 2.9309375 40.73261719 3.796875 40.75585938 C5.86534964 40.81462286 7.93290488 40.90430115 10 41 C7.90476765 49.16452041 4.1414068 55.33568864 -3.04296875 59.96875 C-11.97648189 64.67622998 -22.24847572 65.52620664 -32.05859375 63.30859375 C-41.00622585 60.34259642 -47.76229875 55.62110229 -52.74609375 47.5546875 C-57.93291079 36.98715372 -58.15449861 26.15712283 -55.09765625 14.99609375 C-51.87818575 6.20842872 -46.21954281 0.29829303 -38 -4 C-25.24911517 -9.35537163 -11.34809822 -7.6541425 0 0 Z M-36.3125 14.5 C-38.26253699 17.08187594 -38.26253699 17.08187594 -39 21 C-28.11 21 -17.22 21 -6 21 C-7.17733458 15.11332711 -8.69904895 12.62750196 -13.5625 9.1875 C-22.70402553 6.02951845 -29.7182102 7.37103805 -36.3125 14.5 Z " fill="#2CBA21" transform="translate(422,97)"/>
<path d="M0 0 C3.70715849 3.40541304 5.88692234 7.46562674 7.1875 12.3125 C7.1875 14.2925 7.1875 16.2725 7.1875 18.3125 C1.2475 18.3125 -4.6925 18.3125 -10.8125 18.3125 C-12.1325 15.6725 -13.4525 13.0325 -14.8125 10.3125 C-20.50121487 7.46814257 -25.7916417 7.38774746 -31.875 9.25 C-34.48569613 12.02912813 -34.702287 14.35173451 -35.16015625 18.05859375 C-34.66557679 21.26502462 -33.31261741 22.31410683 -30.8125 24.3125 C-28.53831658 25.46304423 -28.53831658 25.46304423 -26 26.25 C-25.03835937 26.58128906 -24.07671875 26.91257813 -23.0859375 27.25390625 C-20.74352015 28.0114183 -18.39357752 28.74581484 -16.0390625 29.46484375 C-6.05678373 32.55013921 1.91884298 35.82891737 7.1875 45.3125 C9.43086196 52.04258587 9.1033963 59.25221095 6.125 65.6875 C1.87523077 73.07428551 -3.584525 76.97835433 -11.65625 79.6171875 C-23.45296423 82.2159686 -34.59272699 80.48519334 -44.75 74 C-48.22575531 71.31608343 -49.89282968 68.22567411 -51.8125 64.3125 C-52.1425 63.6525 -52.4725 62.9925 -52.8125 62.3125 C-52.8125 59.6725 -52.8125 57.0325 -52.8125 54.3125 C-46.8725 54.3125 -40.9325 54.3125 -34.8125 54.3125 C-33.8225 57.7775 -33.8225 57.7775 -32.8125 61.3125 C-28.99486689 65.00698366 -25.1172237 65.60842595 -19.87890625 65.53125 C-16.68037932 65.19265358 -14.46635925 64.0817395 -11.8125 62.3125 C-10.02970318 59.96244965 -9.81136062 58.30484991 -9.375 55.375 C-9.59472945 52.21046966 -9.59472945 52.21046966 -11.625 49.6875 C-17.01805413 45.66914594 -23.20101317 44.10812397 -29.58203125 42.1640625 C-38.27632805 39.47377229 -46.32481482 36.90855033 -51.3125 28.75 C-53.95981069 22.59263898 -53.88151607 15.36139837 -52.1875 8.9453125 C-49.27226877 2.25589797 -43.46980212 -2.86153099 -36.75 -5.5625 C-23.97641691 -9.55732714 -10.72003571 -8.15901238 0 0 Z " fill="#2DBA22" transform="translate(219.8125,80.6875)"/>
<path d="M0 0 C1.58206057 0.00667536 3.16410534 0.0186375 4.74609375 0.03515625 C5.55240234 0.03966797 6.35871094 0.04417969 7.18945312 0.04882812 C9.18753131 0.06065107 11.18557158 0.07858711 13.18359375 0.09765625 C15.94927111 5.44986539 18.33408885 10.78066678 20.41796875 16.4296875 C20.70085754 17.18811447 20.98374634 17.94654144 21.27520752 18.72795105 C21.86555226 20.31446932 22.4536454 21.90182713 23.03955078 23.48999023 C23.93861029 25.92373597 24.84776189 28.35354894 25.7578125 30.78320312 C26.33263688 32.33180658 26.90687685 33.88062712 27.48046875 35.4296875 C27.88818512 36.51719048 27.88818512 36.51719048 28.30413818 37.62666321 C29.39040475 40.58948379 30.18359375 42.91516173 30.18359375 46.09765625 C30.84359375 46.09765625 31.50359375 46.09765625 32.18359375 46.09765625 C32.324021 45.57880859 32.46444824 45.05996094 32.60913086 44.52539062 C34.89719887 36.48646002 37.86377792 28.72396038 40.85424805 20.92675781 C41.75387266 18.57734121 42.64376524 16.22438291 43.53320312 13.87109375 C44.10488728 12.37347582 44.67713226 10.87607183 45.25 9.37890625 C45.5146254 8.67689087 45.77925079 7.97487549 46.05189514 7.25158691 C47.16212185 4.37765453 47.97988252 2.30136748 50.18359375 0.09765625 C52.92844968 -0.0474207 55.56839918 -0.08886798 58.30859375 -0.02734375 C59.06269531 -0.01832031 59.81679688 -0.00929688 60.59375 0 C62.45716629 0.02358755 64.32041968 0.05945906 66.18359375 0.09765625 C65.57190054 5.74763382 63.54479743 10.49457664 61.34375 15.671875 C60.94964432 16.61326324 60.55553864 17.55465149 60.14949036 18.52456665 C58.85444163 21.61402458 57.55039436 24.69959422 56.24609375 27.78515625 C55.34659139 29.92513208 54.44767214 32.06535311 53.54931641 34.20581055 C51.69377384 38.62506844 49.834926 43.0429165 47.97412109 47.45996094 C45.27332383 53.8765414 42.59489089 60.30227514 39.921875 66.73046875 C38.69422593 69.67909998 37.4662882 72.62761083 36.23825073 75.57608032 C35.4536817 77.46097419 34.66992521 79.34620649 33.88699341 81.23178101 C32.79876693 83.85110025 31.70653484 86.4687133 30.61328125 89.0859375 C30.29333694 89.85870026 29.97339264 90.63146301 29.64375305 91.42764282 C28.34427668 94.52951042 27.05520134 97.29024486 25.18359375 100.09765625 C22.23295227 100.31851265 19.49991144 100.37826614 16.55859375 100.28515625 C15.35589844 100.26485352 15.35589844 100.26485352 14.12890625 100.24414062 C12.14684997 100.20874676 10.16513824 100.15493859 8.18359375 100.09765625 C10.40174238 91.88364378 13.59089042 84.36970904 17.21875 76.68945312 C17.61449219 75.80966797 18.01023437 74.92988281 18.41796875 74.0234375 C18.78116211 73.24395752 19.14435547 72.46447754 19.51855469 71.66137695 C21.28602115 64.84780672 17.91517642 58.34008697 15.359375 52.1328125 C14.78354927 50.70635658 14.78354927 50.70635658 14.1960907 49.25108337 C12.97009159 46.21774125 11.7335904 43.18882367 10.49609375 40.16015625 C8.88488351 36.19397669 7.27791895 32.22608647 5.671875 28.2578125 C5.28419952 27.30194244 4.89652405 26.34607239 4.49710083 25.36123657 C1.24862071 17.32555899 -1.83521814 9.23589343 -4.81640625 1.09765625 C-3.81640625 0.09765625 -3.81640625 0.09765625 0 0 Z " fill="#30BB25" transform="translate(489.81640625,90.90234375)"/>
<path d="M0 0 C9.86324526 6.9983431 16.05901166 15.96497369 18.58984375 27.80078125 C20.59819901 43.46595224 14.83698038 55.97796256 6.18359375 68.515625 C3.90494342 71.10815024 3.29969073 71.63853335 0 72 C-2.56711342 70.60899624 -4.86148118 69.21067508 -7.25 67.5625 C-7.8996875 67.12873047 -8.549375 66.69496094 -9.21875 66.24804688 C-10.82006205 65.17658072 -12.41106548 64.08973717 -14 63 C-13.54627677 58.64425701 -10.94117625 56.83734202 -7.8125 54 C-0.36083712 46.93938648 4.45853642 38.54925185 5.203125 28.16796875 C5.30498708 21.69123805 5.00091634 16.79487294 2 11 C-2.29905803 6.58475121 -6.71037339 5.22896266 -12.75 4.625 C-20.16368668 4.85180495 -27.06150249 8.21597293 -32.41015625 13.25 C-41.48466112 23.23864418 -44.93233061 35.08914394 -45.31640625 48.3671875 C-45.33718735 49.04677521 -45.35796844 49.72636292 -45.37937927 50.42654419 C-45.4442363 52.57593666 -45.50345941 54.7254407 -45.5625 56.875 C-45.60574612 58.3411569 -45.64936225 59.80730294 -45.69335938 61.2734375 C-45.79985104 64.84884275 -45.90129409 68.42437037 -46 72 C-49.55077507 70.8345178 -52.96353967 69.66472591 -56.3125 68 C-56.98925781 67.67 -57.66601562 67.34 -58.36328125 67 C-60 66 -60 66 -61 64 C-61.09645473 62.03965794 -61.12796319 60.07599429 -61.12939453 58.11328125 C-61.13254669 56.87860107 -61.13569885 55.6439209 -61.13894653 54.37182617 C-61.13715669 53.01871709 -61.13510573 51.66560833 -61.1328125 50.3125 C-61.13348587 48.93009423 -61.13445618 47.54768857 -61.13571167 46.1652832 C-61.13718707 43.26675287 -61.13503914 40.36825332 -61.13037109 37.46972656 C-61.12467389 33.75046843 -61.12795373 30.03128246 -61.13394356 26.31202698 C-61.13755342 23.45706639 -61.13640862 20.60212297 -61.13381577 17.74716187 C-61.13314767 16.37560009 -61.13397082 15.00403677 -61.13629532 13.63247681 C-61.13882874 11.71722442 -61.13428419 9.80196658 -61.12939453 7.88671875 C-61.12859894 6.79576904 -61.12780334 5.70481934 -61.12698364 4.58081055 C-61 2 -61 2 -60 0 C-57.68756208 -0.02685412 -55.3750373 -0.04632841 -53.0625 -0.0625 C-51.77472656 -0.07410156 -50.48695313 -0.08570312 -49.16015625 -0.09765625 C-46 0 -46 0 -45 1 C-44.85884839 3.67058851 -44.95752893 6.32432238 -45 9 C-44.29875 8.46890625 -43.5975 7.9378125 -42.875 7.390625 C-29.365139 -2.66834759 -16.12993327 -8.64769544 0 0 Z " fill="#FE8F12" transform="translate(682,102)"/>
<path d="M0 0 C5.94 0 11.88 0 18 0 C18 5.28 18 10.56 18 16 C22.89153471 15.9604321 22.89153471 15.9604321 27.78295898 15.90991211 C29.52221717 15.90275087 31.26145304 15.94975298 33 16 C34 17 34 17 34.09765625 19.94140625 C34.06510417 23.29427083 34.03255208 26.64713542 34 30 C28.72 30 23.44 30 18 30 C18.11793339 35.53604375 18.24215781 41.07189613 18.37231445 46.60766602 C18.41572933 48.49239218 18.45739943 50.37715936 18.49731445 52.26196289 C18.55485893 54.96513249 18.61859804 57.66809436 18.68359375 60.37109375 C18.70030624 61.21900986 18.71701874 62.06692596 18.73423767 62.9405365 C18.46409195 66.78292076 18.46409195 66.78292076 20 70 C22.34987262 70.23527773 24.70556039 70.41386417 27.0625 70.5625 C29.351875 70.706875 31.64125 70.85125 34 71 C34 75.62 34 80.24 34 85 C30.99943916 85.08166849 28.0011461 85.14081551 25 85.1875 C24.16082031 85.21263672 23.32164062 85.23777344 22.45703125 85.26367188 C15.30097173 85.34688187 9.64567746 84.35810383 4.125 79.4375 C-2.13381615 70.75469651 -0.23038275 57.51361559 -0.125 47.375 C-0.11494957 45.68620323 -0.10582737 43.99740066 -0.09765625 42.30859375 C-0.07580739 38.20558406 -0.04139154 34.10285718 0 30 C-2.31 30 -4.62 30 -7 30 C-7 25.38 -7 20.76 -7 16 C-4.69 16 -2.38 16 0 16 C0 10.72 0 5.44 0 0 Z " fill="#32BC28" transform="translate(448,75)"/>
<path d="M0 0 C0 4.62 0 9.24 0 14 C-2.165625 14.4640625 -2.165625 14.4640625 -4.375 14.9375 C-6.88279588 15.63868842 -6.88279588 15.63868842 -9 17 C-10.46548981 20.0956414 -10.64784096 22.52871802 -11 26 C-7.04 26 -3.08 26 1 26 C1 30.62 1 35.24 1 40 C-2.96 40 -6.92 40 -11 40 C-11 58.15 -11 76.3 -11 95 C-16.61 95 -22.22 95 -28 95 C-28 76.85 -28 58.7 -28 40 C-30.64 40 -33.28 40 -36 40 C-36 35.38 -36 30.76 -36 26 C-33.36 26 -30.72 26 -28 26 C-28.03480469 25.443125 -28.06960938 24.88625 -28.10546875 24.3125 C-28.33379555 17.8758587 -27.77373077 12.405525 -23.59375 7.2734375 C-17.02531247 0.98384873 -8.81400367 -0.48966687 0 0 Z " fill="#2DBA21" transform="translate(357,65)"/>
<path d="M0 0 C5.61 0 11.22 0 17 0 C17 28.38 17 56.76 17 86 C11.39 86 5.78 86 0 86 C0 57.62 0 29.24 0 0 Z " fill="#2FBB25" transform="translate(101,74)"/>
<path d="M0 0 C4.95 0 9.9 0 15 0 C15 24.42 15 48.84 15 74 C11.50646375 72.6025855 8.4892516 71.25822028 5.25 69.4375 C4.08210937 68.78587891 4.08210937 68.78587891 2.890625 68.12109375 C1 67 1 67 0 66 C-0.09413687 63.94443339 -0.11742998 61.88559819 -0.11352539 59.82788086 C-0.11367142 59.18399918 -0.11381744 58.54011749 -0.1139679 57.87672424 C-0.11326885 55.73939697 -0.10547691 53.60215587 -0.09765625 51.46484375 C-0.09579204 49.98653715 -0.09436815 48.50822993 -0.09336853 47.02992249 C-0.08954359 43.13201198 -0.07971352 39.23413851 -0.06866455 35.33624268 C-0.05844992 31.36153667 -0.0538708 27.38682471 -0.04882812 23.41210938 C-0.03809122 15.60805404 -0.02049462 7.80403692 0 0 Z " fill="#FE8C0B" transform="translate(591,99)"/>
<path d="M0 0 C4.95 0 9.9 0 15 0 C15 24.42 15 48.84 15 74 C11.50646375 72.6025855 8.4892516 71.25822028 5.25 69.4375 C4.08210937 68.78587891 4.08210937 68.78587891 2.890625 68.12109375 C1 67 1 67 0 66 C-0.09413687 63.94443339 -0.11742998 61.88559819 -0.11352539 59.82788086 C-0.11367142 59.18399918 -0.11381744 58.54011749 -0.1139679 57.87672424 C-0.11326885 55.73939697 -0.10547691 53.60215587 -0.09765625 51.46484375 C-0.09579204 49.98653715 -0.09436815 48.50822993 -0.09336853 47.02992249 C-0.08954359 43.13201198 -0.07971352 39.23413851 -0.06866455 35.33624268 C-0.05844992 31.36153667 -0.0538708 27.38682471 -0.04882812 23.41210938 C-0.03809122 15.60805404 -0.02049462 7.80403692 0 0 Z " fill="#FE8C0D" transform="translate(812,99)"/>
<path d="M0 0 C7.65825049 -0.66593483 13.84352817 1.81108989 20.109375 6.15625 C23.56916003 9.15708959 24.79987528 12.53700703 26.1875 16.8125 C26.42146484 17.48603516 26.65542969 18.15957031 26.89648438 18.85351562 C27.36820103 20.21148782 27.83163044 21.57236782 28.28662109 22.93603516 C29.02446565 25.07078459 29.84532024 27.16148432 30.67578125 29.26171875 C32 33 32 33 32 37 C30.35 37 28.7 37 27 37 C26.48953125 35.90300781 25.9790625 34.80601563 25.453125 33.67578125 C20.76765216 23.67815277 20.76765216 23.67815277 11.6875 18.0625 C10.67300781 17.75570312 9.65851562 17.44890625 8.61328125 17.1328125 C5.40042095 15.74009279 4.73759084 14.61177529 3.375 11.4375 C2.89988974 9.96363647 2.44082874 8.48447751 2 7 C1.64164063 6.31035156 1.28328125 5.62070312 0.9140625 4.91015625 C0 3 0 3 0 0 Z " fill="#FE9118" transform="translate(800,32)"/>
<path d="M0 0 C8.57639054 0.62373749 15.5410936 3.18942487 22 9 C23.40966797 11.59375 23.40966797 11.59375 24.4921875 14.5 C24.88664063 15.551875 25.28109375 16.60375 25.6875 17.6875 C26.079375 18.780625 26.47125 19.87375 26.875 21 C27.29007813 22.093125 27.70515625 23.18625 28.1328125 24.3125 C31.3952613 33.18636073 31.3952613 33.18636073 30 37 C27.72265625 36.953125 27.72265625 36.953125 25 36 C23.62427402 33.5739886 22.52348254 31.29769831 21.4375 28.75 C19.45145614 24.51317204 18.07178386 21.63013737 13.95703125 19.2109375 C11.86344773 18.50202615 9.76193654 17.81599655 7.65234375 17.15625 C4.48063129 15.7735889 3.72792147 14.73581642 2.3125 11.625 C1.03700181 7.79850543 0.3415285 4.01295993 0 0 Z " fill="#FE8F13" transform="translate(580,32)"/>
<path d="M0 0 C0.66 0.33 1.32 0.66 2 1 C-2.66666667 5.66666667 -7.33333333 10.33333333 -12 15 C-10.23188872 8.71338212 -5.3319351 3.5546234 0 0 Z " fill="#FE9F35" transform="translate(727,103)"/>
<path d="M0 0 C0.66 0.33 1.32 0.66 2 1 C-1.63 4.63 -5.26 8.26 -9 12 C-9 8.47601214 -8.44884893 7.98495633 -6.1875 5.4375 C-5.40439453 4.53837891 -5.40439453 4.53837891 -4.60546875 3.62109375 C-3 2 -3 2 0 0 Z " fill="#71C631" transform="translate(254,95)"/>
<path d="M0 0 C0 3.92379055 -1.60406942 5.00508678 -4 8 C-4 8.99 -4 9.98 -4 11 C-4.99 10.67 -5.98 10.34 -7 10 C-6.42424336 6.64749299 -5.40693737 5.06181371 -2.9375 2.75 C-2.38964844 2.22921875 -1.84179688 1.7084375 -1.27734375 1.171875 C-0.64505859 0.59179688 -0.64505859 0.59179688 0 0 Z " fill="#FEA644" transform="translate(675,155)"/>
<path d="M0 0 C0.66 0.33 1.32 0.66 2 1 C-0.31 3.31 -2.62 5.62 -5 8 C-5.66 7.67 -6.32 7.34 -7 7 C-4.78071806 4.09197539 -3.07030857 2.04687238 0 0 Z " fill="#73C735" transform="translate(379,96)"/>
<path d="M0 0 C-1.28519565 2.86697492 -2.57129254 4.97607712 -5 7 C-5.66 7 -6.32 7 -7 7 C-3.86206897 0 -3.86206897 0 0 0 Z " fill="#FEA23C" transform="translate(851,131)"/>
</svg>
