<?xml version="1.0" encoding="UTF-8"?>
<svg version="1.1" xmlns="http://www.w3.org/2000/svg" width="512" height="512">
<path d="M0 0 C9.17097192 4.32324263 18.42721336 8.44084328 27.70251465 12.5345459 C38.41775388 17.26882052 49.09386169 22.06495659 59.70251465 27.0345459 C70.08388516 31.89674488 80.52942983 36.59020411 91.01501465 41.2220459 C104.33825756 47.10988732 117.60226761 53.11720553 130.82751465 59.2220459 C131.65635162 59.60404144 132.4851886 59.98603699 133.33914185 60.37960815 C168.36514157 76.53278434 168.36514157 76.53278434 176.73376465 97.74938965 C177.88497688 101.05912482 178.50432007 104.03310837 178.70251465 107.5345459 C178.75278809 108.18294434 178.80306152 108.83134277 178.8548584 109.49938965 C179.4368605 122.37327612 174.78077787 134.18456484 167.01501465 144.2845459 C159.23027109 152.55031729 147.98776824 157.00128811 137.82751465 161.6595459 C136.40543058 162.31819298 134.98355967 162.97730048 133.56188965 163.63684082 C121.64855513 169.15058929 109.6740886 174.5283913 97.68209839 179.86859131 C89.18063519 183.65547017 80.69086767 187.46838843 72.20251465 191.2845459 C71.35523804 191.66533295 70.50796143 192.04612 69.63500977 192.43844604 C58.14479212 197.60473931 46.68169605 202.82663643 35.24191284 208.10360718 C22.76013659 213.86057461 10.26166966 219.57796006 -2.28857422 225.18438721 C-3.80125906 225.86054946 -5.31325792 226.53824912 -6.82446289 227.2177124 C-14.42103915 230.63037001 -22.04716428 233.91378763 -29.8326416 236.87438965 C-30.46342117 237.11678879 -31.09420074 237.35918793 -31.74409485 237.6089325 C-49.07813324 244.05861738 -68.71567552 244.36460686 -86.73498535 240.9095459 C-87.47788818 240.76960205 -88.22079102 240.6296582 -88.98620605 240.48547363 C-101.78176323 237.69257714 -113.89187349 231.46648761 -125.72402954 225.98947144 C-129.56904882 224.21003117 -133.42001079 222.44351692 -137.2701416 220.6751709 C-138.04323166 220.31972702 -138.81632172 219.96428314 -139.61283875 219.59806824 C-146.50955711 216.42978754 -153.42978441 213.31647279 -160.35998535 210.2220459 C-178.50848285 202.11120744 -196.61482558 193.90732763 -214.7208252 185.70214844 C-217.24756832 184.55716559 -219.77446795 183.41252872 -222.3013916 182.26794434 C-226.16856648 180.51606624 -230.03511234 178.76280745 -233.90112305 177.00836182 C-235.31526304 176.36675903 -236.72956578 175.72551482 -238.14404297 175.08465576 C-240.08632819 174.20449382 -242.02793429 173.32285099 -243.96936035 172.4407959 C-245.05313965 171.94901855 -246.13691895 171.45724121 -247.25354004 170.95056152 C-250.29535117 169.5355387 -253.29683148 168.03487283 -256.29748535 166.5345459 C-256.29748535 209.7645459 -256.29748535 252.9945459 -256.29748535 297.5345459 C-254.97748535 298.1945459 -253.65748535 298.8545459 -252.29748535 299.5345459 C-249.34272968 304.8172655 -248.84111055 309.27422915 -248.8638916 315.24938965 C-248.85864975 316.06396133 -248.8534079 316.87853302 -248.8480072 317.7177887 C-248.84161709 319.43135443 -248.84288476 321.14496421 -248.85144043 322.85852051 C-248.85995126 325.46161991 -248.83114798 328.062522 -248.79943848 330.66540527 C-248.79782603 332.33923275 -248.79840482 334.01306406 -248.8013916 335.68688965 C-248.79015762 336.4548436 -248.77892365 337.22279755 -248.76734924 338.01402283 C-248.85412014 344.83650668 -250.91139135 350.1522214 -255.7701416 355.0032959 C-261.06477553 357.30174164 -266.02612226 357.11406576 -271.73498535 357.0345459 C-272.84164551 357.05001465 -273.94830566 357.0654834 -275.08850098 357.0814209 C-281.695364 357.04982801 -285.96416205 356.53637745 -291.29748535 352.5345459 C-295.33341167 347.1533108 -295.46326591 342.06015973 -295.50061035 335.51501465 C-295.50631042 334.73821854 -295.5120105 333.96142242 -295.5178833 333.16108704 C-295.52731284 331.51955519 -295.53385914 329.87800459 -295.53771973 328.2364502 C-295.54741145 325.74107352 -295.57844754 323.24652588 -295.60998535 320.75134277 C-295.61651766 319.15173826 -295.62176724 317.55212789 -295.62561035 315.95251465 C-295.63795715 315.21373581 -295.65030396 314.47495697 -295.6630249 313.71379089 C-295.63582058 307.30219748 -293.88455655 302.91515269 -290.29748535 297.5345459 C-289.63748535 297.5345459 -288.97748535 297.5345459 -288.29748535 297.5345459 C-288.11050567 278.61958649 -287.96948262 259.7048149 -287.88298798 240.78912258 C-287.84175719 232.00595116 -287.78555803 223.22335433 -287.69396973 214.44055176 C-287.61416798 206.78435617 -287.56260475 199.12857675 -287.54477739 191.47197682 C-287.53435783 187.41854741 -287.50991843 183.3663084 -287.4516449 179.31326103 C-287.39719891 175.49536915 -287.38062006 171.67915365 -287.3926239 167.86091042 C-287.39042923 166.46244558 -287.37459609 165.06392272 -287.34384155 163.66579437 C-287.01792782 155.99327188 -287.01792782 155.99327188 -290.02748108 149.21940804 C-292.0336906 147.4569531 -294.07736872 146.01092438 -296.29748535 144.5345459 C-305.57344615 135.63445625 -308.60466241 124.12555042 -309.60998535 111.6595459 C-309.16669997 98.90857224 -304.43079088 87.68666123 -295.85998535 78.3470459 C-292.02708691 74.78341147 -288.11164284 72.08709332 -283.4810791 69.69470215 C-282.83002197 69.35341278 -282.17896484 69.01212341 -281.50817871 68.66049194 C-274.80276056 65.19511281 -267.93082557 62.13093926 -261.01113892 59.12258911 C-257.08859203 57.41609709 -253.17548753 55.68821624 -249.2623291 53.96032715 C-248.44816025 53.60107651 -247.63399139 53.24182587 -246.79515076 52.87168884 C-237.60107751 48.80301902 -228.47988728 44.57870552 -219.35998535 40.3470459 C-206.96730272 34.60086743 -194.55101019 28.9221514 -182.07385254 23.3614502 C-174.21028042 19.85269052 -166.37372456 16.2896196 -158.54846191 12.69641113 C-152.63480686 9.98097888 -146.71400917 7.2812676 -140.79211426 4.5838623 C-137.77147432 3.20783779 -134.75320633 1.82677793 -131.7364502 0.44226074 C-83.42352099 -21.70007428 -48.20544845 -22.74598584 0 0 Z " fill="#000000" transform="translate(321.2974853515625,86.4654541015625)"/>
<path d="M0 0 C4.39217831 0.64922407 8.13930684 2.2727158 12.125 4.140625 C12.81526779 4.45871124 13.50553558 4.77679749 14.21672058 5.10452271 C15.70311088 5.79009656 17.18840351 6.47805433 18.67269897 7.16815186 C21.84161891 8.64122737 25.01600721 10.10233192 28.19023132 11.56393433 C29.80988008 12.30974159 31.42927387 13.05610282 33.04841614 13.80300903 C41.21526476 17.56818474 49.41792356 21.25045653 57.6328125 24.90966797 C63.88763177 27.69881725 70.129898 30.51170563 76.35432434 33.3681488 C102.56382083 45.79892145 102.56382083 45.79892145 130 55 C130.6820752 55.17515137 131.36415039 55.35030273 132.06689453 55.53076172 C164.69700991 63.50980171 196.10615474 56.75693844 226 43 C227.25367979 42.42723844 228.5075985 41.85499962 229.76171875 41.28320312 C235.53286384 38.65188015 241.30250956 36.01737396 247.06591797 33.36914062 C258.65761525 28.04591151 270.29767916 22.83827911 281.96411133 17.68112183 C289.49575014 14.35169588 297.02114511 11.01450473 304.4921875 7.55078125 C305.61407471 7.03104736 306.73596191 6.51131348 307.8918457 5.97583008 C309.94236075 5.02138614 311.9905496 4.06192158 314.03588867 3.09643555 C314.92252197 2.68304932 315.80915527 2.26966309 316.72265625 1.84375 C317.48328369 1.48474609 318.24391113 1.12574219 319.02758789 0.75585938 C321 0 321 0 324 0 C324.07518117 6.09738591 324.1290799 12.19449129 324.16479492 18.29223633 C324.17971227 20.3586905 324.20005341 22.42511399 324.22631836 24.49145508 C324.44027264 41.77980009 323.97947315 58.23727026 316 74 C315.50757813 74.98355469 315.01515625 75.96710938 314.5078125 76.98046875 C297.46062695 108.5055272 257.01935441 126.4319696 224.28369141 136.48901367 C184.515669 148.14567399 141.85507257 148.30298429 102 137 C101.16082031 136.7632959 100.32164062 136.5265918 99.45703125 136.28271484 C79.60958761 130.52680422 60.07563723 121.6893624 43 110 C42.42749512 109.61102539 41.85499023 109.22205078 41.26513672 108.82128906 C21.91579141 95.6053406 6.7028227 79.39681744 1.47265625 55.84375 C0.27062317 48.61168321 -0.13772978 41.69692196 -0.09765625 34.375 C-0.0962413 33.38749756 -0.09482635 32.39999512 -0.09336853 31.38256836 C-0.08780927 28.25501364 -0.07526446 25.12753277 -0.0625 22 C-0.05747973 19.86849062 -0.05291775 17.73698012 -0.04882812 15.60546875 C-0.03785322 10.403621 -0.02115612 5.20181578 0 0 Z " fill="#000000" transform="translate(94,299)"/>
</svg>
