<?xml version="1.0" encoding="UTF-8"?>
<svg version="1.1" xmlns="http://www.w3.org/2000/svg" width="512" height="512">
<path d="M0 0 C28.99100946 11.95228647 60.0648305 17.08582122 90.91015625 21.69921875 C91.62624809 21.80654076 92.34233994 21.91386276 93.08013153 22.02443695 C100.34442537 23.11219447 107.61001197 24.18877891 114.88193893 25.22438145 C165.72974051 32.48407645 165.72974051 32.48407645 181 43.5625 C183.55251558 47.34726449 184.07739368 50.72197367 183.8125 55.25 C181.24102501 62.16083904 174.37784015 66.17893428 168.0625 69.3125 C135.33387939 83.61722892 97.49993556 82.56673229 62.53894043 82.3873291 C58.0461621 82.36653587 53.55335988 82.35766528 49.06054688 82.34765625 C40.31112681 82.32647509 31.56184764 82.29142533 22.8125 82.25 C22.8125 91.82 22.8125 101.39 22.8125 111.25 C38.40863023 111.20952863 54.00442697 111.15249043 69.60035515 111.06609726 C76.84376208 111.02648911 84.08706324 110.99400504 91.33056641 110.97900391 C97.65279538 110.96589185 103.97478981 110.93868827 110.29688656 110.89538693 C113.63655052 110.87298319 116.975678 110.85918099 120.31545639 110.85811615 C153.9366432 110.83663439 182.54826699 103.30395633 207.375 79.1875 C213.71931166 72.83001219 218.6221926 65.70799712 223.51708984 58.21240234 C252.17797344 14.79435063 252.17797344 14.79435063 273.51953125 9.58984375 C279.52258994 8.70012296 283.63234737 9.27044582 289.015625 11.88671875 C292.3367417 14.40643555 293.63078749 17.17240257 294.31640625 21.23828125 C294.47575217 30.27850627 292.42998746 37.43843986 288.91259766 45.64160156 C287.62754266 48.6885451 286.41373643 51.76020525 285.19921875 54.8359375 C271.19152455 89.9690567 253.27971756 123.09568393 223.71484375 147.66015625 C221.44751975 149.55502456 219.29606617 151.55817171 217.125 153.5625 C185.32999172 182.12493536 148.00120154 201.2888898 104.75 201.5 C103.25243164 201.5309375 103.25243164 201.5309375 101.72460938 201.5625 C77.84754394 201.67918694 53.89287526 196.16939673 30.45843506 192.07598877 C23.60596322 190.87975671 16.75210189 189.69156269 9.89770317 188.50642776 C7.53266568 188.09634282 5.16829049 187.68259984 2.80397034 187.2684021 C-52.22361903 177.68085248 -98.91834194 192.01929467 -144.1875 223.25 C-146.89851811 220.63240161 -149.26573045 217.96838309 -151.5078125 214.94140625 C-152.12003662 214.11906494 -152.73226074 213.29672363 -153.36303711 212.44946289 C-154.00635986 211.57926514 -154.64968262 210.70906738 -155.3125 209.8125 C-156.66997605 207.98913882 -158.02804844 206.16622146 -159.38671875 204.34375 C-160.37164307 203.02117187 -160.37164307 203.02117187 -161.37646484 201.671875 C-164.37060649 197.66784627 -167.42819301 193.71465739 -170.484375 189.7578125 C-180.07432718 177.33212177 -189.53568017 164.80860392 -198.93945312 152.24169922 C-207.40269824 140.68067367 -207.40269824 140.68067367 -216.51953125 129.65234375 C-218.1875 127.25 -218.1875 127.25 -217.95800781 125.27294922 C-216.66149962 121.86899901 -213.79780424 119.79275803 -211.125 117.4375 C-210.53227295 116.90342529 -209.9395459 116.36935059 -209.32885742 115.8190918 C-207.62323309 114.28656588 -205.90784287 112.76596656 -204.1875 111.25 C-203.43210938 110.58226562 -202.67671875 109.91453125 -201.8984375 109.2265625 C-200.64856256 108.13099311 -199.39601994 107.03845848 -198.140625 105.94921875 C-191.73158267 100.37335192 -185.50019436 94.68720643 -179.5859375 88.5859375 C-177.68427015 86.733825 -175.76559888 85.02832214 -173.74609375 83.3125 C-169.95733395 80.02485696 -166.41362859 76.53900909 -162.88671875 72.9765625 C-162.32039734 72.40473236 -161.75407593 71.83290222 -161.17059326 71.2437439 C-158.8141994 68.85980842 -156.46133534 66.47246881 -154.11352539 64.08007812 C-147.54173695 57.39199916 -140.98058993 50.98299538 -133.60083008 45.17919922 C-131.03586377 43.12878306 -128.61004812 40.96608954 -126.1875 38.75 C-122.01973727 34.96053185 -117.73768881 31.36173662 -113.3515625 27.828125 C-110.96005317 25.89574836 -108.61262613 23.91723108 -106.2734375 21.921875 C-74.50739149 -5.01797026 -40.15085371 -16.73958223 0 0 Z " fill="#000000" transform="translate(218.1875,253.75)"/>
<path d="M0 0 C2.38959883 2.41837163 4.71833984 4.88667858 7.03930664 7.37109375 C8.03401295 8.37635957 9.03085401 9.37961844 10.03930664 10.37109375 C10.61036133 9.68144531 11.18141602 8.99179687 11.76977539 8.28125 C23.84730844 -5.71639959 38.33093377 -14.4676748 57.01196289 -16.47265625 C75.1804799 -17.51780774 92.35082484 -12.04608609 106.10961914 -0.00390625 C118.67898374 11.56368058 127.94461701 28.04551099 129.26245117 45.29125977 C130.3952345 76.61443506 120.38586868 98.17435315 99.36279297 120.84179688 C91.29079315 129.40442271 83.04501998 137.78649475 74.03930664 145.37109375 C72.99155178 146.26980858 71.94476653 147.16965441 70.89868164 148.0703125 C63.51554188 154.42416181 56.0907954 160.72819795 48.64819336 167.01220703 C46.48627501 168.83819148 44.32607084 170.666197 42.16601562 172.49438477 C41.0836441 173.41041254 40.00112511 174.32626611 38.91845703 175.24194336 C36.18293932 177.55566163 33.44929453 179.8715327 30.71899414 182.19140625 C23.8854569 187.99342823 17.00003815 193.72160225 10.03930664 199.37109375 C5.5789637 197.95189372 2.71083106 195.50492648 -0.58569336 192.30859375 C-5.33054838 187.82840372 -10.22687534 183.64531399 -15.31225586 179.55078125 C-17.93344455 177.39351976 -20.45223617 175.15798375 -22.96069336 172.87109375 C-26.37808708 169.75650707 -29.86591686 166.77922755 -33.46069336 163.87109375 C-37.98166865 160.21095297 -42.32758727 156.40327535 -46.62866211 152.48828125 C-48.71893225 150.59058206 -50.83055451 148.7237596 -52.96069336 146.87109375 C-54.29419091 145.70461478 -55.62751855 144.53794157 -56.96069336 143.37109375 C-57.68385742 142.74203125 -58.40702148 142.11296875 -59.15209961 141.46484375 C-82.31082498 121.01496434 -106.30278026 96.30558359 -109.18212891 63.87719727 C-110.19210211 42.01310781 -105.86999313 22.09939305 -90.96069336 5.37109375 C-90.37932617 4.69691406 -89.79795898 4.02273437 -89.19897461 3.328125 C-78.1551534 -8.64180281 -61.91318376 -15.83108161 -45.65991211 -16.6328125 C-28.30297579 -16.60769392 -12.65835987 -12.39022989 0 0 Z " fill="#000000" transform="translate(351.960693359375,51.62890625)"/>
</svg>
