<?xml version="1.0" encoding="UTF-8"?>
<svg version="1.1" xmlns="http://www.w3.org/2000/svg" width="1920" height="605">
<path d="M0 0 C3.02875868 3.02875868 2.88361841 6.76425821 3.42041016 10.85595703 C3.54749863 11.77308472 3.6745871 12.6902124 3.80552673 13.63513184 C4.22472877 16.67498524 4.6319177 19.71632271 5.0390625 22.7578125 C5.32693101 24.8625581 5.61554508 26.96720186 5.90487671 29.07174683 C6.66526228 34.61755346 7.41548187 40.16468998 8.16363525 45.7121582 C8.92850865 51.37013686 9.7029296 57.02680737 10.4765625 62.68359375 C11.99375387 73.78779888 13.5002152 84.89343145 15 96 C15.5418544 95.08692078 16.0837088 94.17384155 16.64198303 93.23309326 C18.6824591 89.79481516 20.723217 86.3567044 22.76405334 82.91864014 C23.6416715 81.44008766 24.51921662 79.96149183 25.39668274 78.48284912 C31.75478022 67.76879392 38.13694188 57.06976506 44.56005859 46.39453125 C47.29374715 41.84858052 50.02134148 37.29897104 52.75 32.75 C53.76560215 31.05727795 54.78122488 29.36456826 55.796875 27.671875 C56.22323242 26.9612793 56.64958984 26.25068359 57.08886719 25.51855469 C57.38954102 25.01743164 57.69021484 24.51630859 58 24 C58.66 24.33 59.32 24.66 60 25 C54.06 50.74 48.12 76.48 42 103 C48.16722652 97.6626146 48.16722652 97.6626146 54 92.0625 C54.66 91.39476562 55.32 90.72703125 56 90.0390625 C56.66 89.36617188 57.32 88.69328125 58 88 C62.54100433 83.37030418 67.15238996 78.94557547 72.06738281 74.71435547 C75.76811922 71.43156478 79.16253902 67.83917827 82.59375 64.27929688 C84.02698953 62.81718878 85.50962542 61.40382308 87 60 C87.66 60 88.32 60 89 60 C86.86392057 66.78032575 84.30052671 73.318539 81.55078125 79.87109375 C81.13330124 80.87463394 80.71582123 81.87817413 80.28569031 82.91212463 C78.51292375 87.17350167 76.73287223 91.43182227 74.95288086 95.69018555 C73.64931023 98.81180079 72.34990325 101.9351251 71.05078125 105.05859375 C70.64459061 106.02623154 70.23839996 106.99386932 69.81990051 107.99082947 C69.4491893 108.88258377 69.07847809 109.77433807 68.6965332 110.69311523 C68.36804886 111.47871323 68.03956451 112.26431122 67.7011261 113.07371521 C66.88599102 114.97157757 66.88599102 114.97157757 67 117 C76.55742936 110.3178309 85.86227885 103.34735149 95.06518555 96.18359375 C96.37096558 95.17619141 96.37096558 95.17619141 97.703125 94.1484375 C98.48333008 93.54177246 99.26353516 92.93510742 100.06738281 92.31005859 C102 91 102 91 104 91 C93.84046596 127.97025294 72.98124824 159.13392034 39.625 178.5 C30.0375377 183.88978028 19.78064181 188.08987784 9.52441406 192.02612305 C7.49682585 192.80833285 5.49838255 193.66589083 3.51171875 194.546875 C-2.12138773 195.27372745 -6.4982801 193.01191037 -11.625 190.8125 C-12.72223389 190.35560791 -13.81946777 189.89871582 -14.94995117 189.42797852 C-30.25127974 182.93212106 -45.24788235 175.80522946 -58 165 C-58.85464844 164.29488281 -59.70929688 163.58976563 -60.58984375 162.86328125 C-82.10383759 144.39903692 -94.54455967 117.57933776 -103 91 C-97.94616997 92.58974848 -94.28700225 95.64603939 -90.1875 98.875 C-88.68285906 100.04369961 -87.17763519 101.21164905 -85.671875 102.37890625 C-84.90423828 102.97590332 -84.13660156 103.57290039 -83.34570312 104.18798828 C-79.57271801 107.1025486 -75.75643694 109.95857023 -71.9375 112.8125 C-71.24100342 113.33376465 -70.54450684 113.8550293 -69.8269043 114.39208984 C-68.21850244 115.59548375 -66.6093436 116.79786582 -65 118 C-68.18807433 109.25712182 -71.53131966 100.59813851 -75.12109375 92.01171875 C-75.47329987 91.16715118 -75.82550598 90.32258362 -76.18838501 89.4524231 C-77.64270967 85.96910192 -79.09961817 82.48697143 -80.5690918 79.01000977 C-81.6574798 76.43073109 -82.7339587 73.84675169 -83.80859375 71.26171875 C-84.14491318 70.47431808 -84.4812326 69.68691742 -84.82774353 68.87565613 C-87.11358128 63.34074385 -87.11358128 63.34074385 -86 60 C-85.29875 60.71285156 -84.5975 61.42570312 -83.875 62.16015625 C-82.91680707 63.12774323 -81.95846561 64.09518313 -81 65.0625 C-80.54238281 65.52849609 -80.08476562 65.99449219 -79.61328125 66.47460938 C-76.8777552 69.22887191 -74.06671035 71.8373946 -71.125 74.37109375 C-66.15626097 78.67328021 -61.59940168 83.34982875 -57 88.0390625 C-49.68321471 95.90441875 -49.68321471 95.90441875 -41 102 C-41.21519791 101.08180481 -41.43039581 100.16360962 -41.65211487 99.21759033 C-43.67807943 90.56794877 -45.69443624 81.91611682 -47.70138645 73.262043 C-48.73351092 68.81287306 -49.76901484 64.36454638 -50.81225586 59.91796875 C-51.81874807 55.62746559 -52.81634434 51.33498316 -53.80778313 47.04097748 C-54.18776702 45.4023741 -54.57096094 43.76451172 -54.95739937 42.12741852 C-55.49775365 39.83584283 -56.02667635 37.54190774 -56.55297852 35.24707031 C-56.71553635 34.56949677 -56.87809418 33.89192322 -57.045578 33.19381714 C-57.80432738 29.82952661 -58.2496415 27.27429002 -57 24 C-51.6224875 32.6642789 -46.37035247 41.39419437 -41.18765259 50.17602539 C-32.30055987 65.22770088 -23.22383412 80.15234734 -14 95 C-11.96075947 85.63396217 -10.71491766 76.19130339 -9.43359375 66.69921875 C-9.19254041 64.93182648 -8.95116631 63.16447793 -8.70948792 61.39717102 C-8.07762474 56.77174749 -7.44919158 52.14586529 -6.82177734 47.51983643 C-5.81499191 40.09927127 -4.80397637 32.67928414 -3.79100227 25.25956154 C-3.4388995 22.67565502 -3.08890105 20.09146969 -2.73912048 17.50724792 C-2.52333564 15.92238412 -2.30748335 14.3375295 -2.09155273 12.75268555 C-1.9473716 11.68112717 -1.9473716 11.68112717 -1.80027771 10.58792114 C-1.31357158 7.02982477 -0.75237941 3.51196361 0 0 Z " fill="#0B1C3B" transform="translate(255,257)"/>
<path d="M0 0 C84.81 0 169.62 0 257 0 C257.0928125 50.0259375 257.0928125 50.0259375 257.1875 101.0625 C257.21481201 111.55554932 257.24212402 122.04859863 257.27026367 132.85961914 C257.28381348 145.76843262 257.28381348 145.76843262 257.28633118 151.83006287 C257.28910273 156.0232682 257.30025058 160.21635718 257.31672668 164.40953064 C257.33757069 169.78702336 257.34342506 175.16435113 257.33921683 180.54188049 C257.34009451 182.49739952 257.34588348 184.45292538 257.35764539 186.40840924 C257.45913896 204.13059619 256.31299438 222.29348767 251.25 239.375 C250.99250977 240.27307373 250.73501953 241.17114746 250.46972656 242.09643555 C244.84035439 261.1352696 236.21486279 279.02660361 223 294 C222.26910156 294.83917969 221.53820312 295.67835938 220.78515625 296.54296875 C218.55646901 299.06119484 216.28848116 301.53610941 214 304 C213.41089844 304.65484375 212.82179688 305.3096875 212.21484375 305.984375 C193.90923329 325.45671667 168.66959858 337.01420708 144 346 C143.26120605 346.27376465 142.52241211 346.5475293 141.76123047 346.82958984 C130.72250371 350.86249302 123.27852412 349.43867761 112.4375 345.625 C111.44169922 345.2748584 110.44589844 344.9247168 109.41992188 344.56396484 C68.03821888 329.58160627 33.91684305 302.98028627 14.77734375 262.85546875 C2.2585477 235.94237676 -0.17331103 207.52684998 -0.11352539 178.23486328 C-0.11321844 176.25072163 -0.11335359 174.26657988 -0.11389065 172.28243828 C-0.11411478 167.00828493 -0.10835348 161.73415465 -0.10128021 156.46000671 C-0.0955506 151.49604221 -0.09531521 146.53208309 -0.09460449 141.56811523 C-0.08937423 127.08707381 -0.07541297 112.60603661 -0.0625 98.125 C-0.041875 65.74375 -0.02125 33.3625 0 0 Z M11 11 C10.938125 42.22625 10.87625 73.4525 10.8125 105.625 C10.78518799 115.44846191 10.75787598 125.27192383 10.72973633 135.39306641 C10.71969687 144.2755569 10.71969687 144.2755569 10.71366882 153.15805054 C10.71089806 157.08380322 10.6997535 161.00943153 10.68327332 164.93515015 C10.48837271 213.54881169 15.06436174 258.0747274 50 295 C50.75925781 295.82371094 51.51851562 296.64742188 52.30078125 297.49609375 C58.87245405 304.39043461 66.06107699 309.81142637 74 315 C74.62729004 315.4125 75.25458008 315.825 75.90087891 316.25 C88.19503903 324.20778759 101.37258791 329.73743257 115 335 C116.06951904 335.43094971 116.06951904 335.43094971 117.16064453 335.87060547 C125.57911141 339.24106225 130.63094028 339.28643501 139 336 C140.56133583 335.44851584 142.12395824 334.90066735 143.6875 334.35546875 C181.66740568 320.82350348 214.58890783 296.62689235 232.375 259.625 C241.04664016 240.76351968 246.20243168 219.24763447 246.12025452 198.47679138 C246.12111053 197.67065399 246.12196655 196.8645166 246.12284851 196.03395081 C246.1244905 193.35130532 246.11900173 190.66872367 246.11352539 187.98608398 C246.11321877 186.02257572 246.11335304 184.05906734 246.11389065 182.09555912 C246.1141157 176.85425702 246.10833472 171.61297791 246.10128021 166.37168121 C246.09557034 161.44704621 246.09531628 156.52241669 246.09460449 151.59777832 C246.08936455 137.21101585 246.07540333 122.82425763 246.0625 108.4375 C246.041875 76.283125 246.02125 44.12875 246 11 C168.45 11 90.9 11 11 11 Z " fill="#0B1C3B" transform="translate(127,127)"/>
<path d="M0 0 C0.91579834 0.00136963 1.83159668 0.00273926 2.77514648 0.00415039 C10.0238036 0.1658234 15.80347513 1.73919637 22.5234375 4.30859375 C32.7390315 7.9400112 42.20543589 6.43868178 52.1484375 2.62890625 C65.06176585 -2.10598081 78.89109986 -0.39009619 91.45703125 4.296875 C101.08246206 7.68502664 108.46702998 6.55426256 117.9375 3.5625 C132.99437879 -1.16436039 146.57979493 -1.15229488 161.41796875 4.25390625 C165.53720407 5.73869277 169.58627345 6.65757157 173.875 7.5 C173.875 13.11 173.875 18.72 173.875 24.5 C164.87896668 24.5 164.87896668 24.5 161.76953125 23.44140625 C161.09599609 23.22033203 160.42246094 22.99925781 159.72851562 22.77148438 C159.05498047 22.53751953 158.38144531 22.30355469 157.6875 22.0625 C143.72256074 17.37248747 132.83024075 17.63519597 118.875 22.5 C106.65856058 26.41534808 96.09534351 24.85817234 84.3359375 20.69140625 C71.05864446 16.12078054 58.72043986 18.88487755 45.875 23.6015625 C36.02815045 26.5504888 26.7560459 24.44532004 17.25 21.5 C3.56960552 17.33318541 -6.04809173 17.98792773 -19.6171875 22.36425781 C-20.47183594 22.63592773 -21.32648438 22.90759766 -22.20703125 23.1875 C-22.96218018 23.43886719 -23.7173291 23.69023437 -24.49536133 23.94921875 C-27.125 24.5 -27.125 24.5 -35.125 24.5 C-35.125 18.89 -35.125 13.28 -35.125 7.5 C-27.6875 5.6875 -27.6875 5.6875 -25.40454102 5.13745117 C-21.75296607 4.23546291 -18.25259628 3.19646901 -14.72265625 1.89453125 C-9.79587297 0.22323805 -5.17472883 -0.03508454 0 0 Z " fill="#0B1C3B" transform="translate(186.125,231.5)"/>
<path d="M0 0 C1.58206057 0.00667536 3.16410534 0.0186375 4.74609375 0.03515625 C5.55240234 0.03966797 6.35871094 0.04417969 7.18945312 0.04882812 C9.18753131 0.06065107 11.18557158 0.07858711 13.18359375 0.09765625 C17.39917685 9.66516684 20.7447281 19.42198043 23.99609375 29.34765625 C24.50282934 30.88295313 25.0099882 32.41811037 25.51757812 33.953125 C26.74445532 37.66638153 27.96563663 41.38146486 29.18359375 45.09765625 C31.28638765 42.99486235 31.75326136 41.89614987 32.67993164 39.13867188 C33.0952993 37.9173053 33.0952993 37.9173053 33.51905823 36.67126465 C33.81183151 35.79103638 34.1046048 34.91080811 34.40625 34.00390625 C34.71179306 33.10144165 35.01733612 32.19897705 35.33213806 31.26916504 C36.30902553 28.38050638 37.27784013 25.48921911 38.24609375 22.59765625 C39.21944537 19.70663161 40.19444259 16.81617146 41.17076111 13.92614746 C41.77827084 12.12614541 42.3837639 10.32546125 42.98707581 8.52404785 C43.26083542 7.70980347 43.53459503 6.89555908 43.81665039 6.05664062 C44.05710587 5.33875366 44.29756134 4.6208667 44.54530334 3.88122559 C45.18359375 2.09765625 45.18359375 2.09765625 46.18359375 0.09765625 C52.12359375 0.09765625 58.06359375 0.09765625 64.18359375 0.09765625 C65.83359375 21.54765625 67.48359375 42.99765625 69.18359375 65.09765625 C64.56359375 65.09765625 59.94359375 65.09765625 55.18359375 65.09765625 C55.09795166 64.03853027 55.01230957 62.9794043 54.92407227 61.88818359 C54.60419886 57.94070721 54.28098538 53.99351007 53.95678711 50.04638672 C53.8172103 48.34138243 53.67852683 46.63630476 53.54077148 44.93115234 C53.34205912 42.47343197 53.14008454 40.01599762 52.9375 37.55859375 C52.84680992 36.42386124 52.84680992 36.42386124 52.75428772 35.26620483 C52.41280698 31.16585612 51.92622525 27.14990209 51.18359375 23.09765625 C50.99789322 23.62161484 50.81219269 24.14557343 50.62086487 24.68540955 C48.69393888 30.12051126 46.76305742 35.55419568 44.82983398 40.98706055 C44.10810645 43.01697005 43.38740096 45.04724323 42.66772461 47.07788086 C41.63531323 49.99037517 40.59927767 52.90155759 39.5625 55.8125 C39.2395546 56.72603745 38.91660919 57.63957489 38.58387756 58.58079529 C38.28364182 59.42159134 37.98340607 60.26238739 37.67407227 61.12866211 C37.40981949 61.87256699 37.14556671 62.61647186 36.87330627 63.38291931 C36.18359375 65.09765625 36.18359375 65.09765625 35.18359375 66.09765625 C33.16395176 66.17009678 31.14192251 66.18142813 29.12109375 66.16015625 C28.01636719 66.15113281 26.91164063 66.14210938 25.7734375 66.1328125 C24.91878906 66.12121094 24.06414062 66.10960937 23.18359375 66.09765625 C19.10660984 57.4785956 16.06659795 48.52717634 12.93359375 39.53515625 C12.37404066 37.93803092 11.81414762 36.34102465 11.25390625 34.74414062 C9.89321094 30.86334115 8.5371308 26.98095786 7.18359375 23.09765625 C5.76248012 37.09029202 4.4353333 51.08882643 3.18359375 65.09765625 C-0.77640625 65.09765625 -4.73640625 65.09765625 -8.81640625 65.09765625 C-8.89452253 56.57680462 -8.66178427 48.19800591 -7.9765625 39.70703125 C-7.89014999 38.59579895 -7.80373749 37.48456665 -7.71470642 36.33966064 C-7.53306175 34.0203535 -7.34892366 31.70124035 -7.16235352 29.38232422 C-6.87631273 25.81531436 -6.60075777 22.24759554 -6.32617188 18.6796875 C-6.14775385 16.41791988 -5.96873961 14.15619919 -5.7890625 11.89453125 C-5.70672867 10.8249115 -5.62439484 9.75529175 -5.53956604 8.65325928 C-5.45955856 7.67423645 -5.37955109 6.69521362 -5.29711914 5.68652344 C-5.22828018 4.82194519 -5.15944122 3.95736694 -5.08851624 3.06658936 C-4.59133263 -0.53093117 -3.8707173 0.09904599 0 0 Z " fill="#0B1C3B" transform="translate(1513.81640625,285.90234375)"/>
<path d="M0 0 C40.37254902 0 40.37254902 0 48.6875 7.1875 C51.90234738 11.73296397 53.24831174 16.62659411 52.83984375 22.17578125 C51.87715173 27.13878572 49.80017703 29.59984161 46 33 C46 33.66 46 34.32 46 35 C47.11375 35.61875 47.11375 35.61875 48.25 36.25 C52.05191556 38.66940081 54.1267389 41.7440755 55.75 45.9375 C56.51883517 52.28039013 55.95595149 57.35031852 53 63 C48.55527935 68.58764882 42.80285872 71.29928532 36 73 C24.12 73 12.24 73 0 73 C0 48.91 0 24.82 0 0 Z M17 13 C17 18.28 17 23.56 17 29 C25.10890307 29.6827843 25.10890307 29.6827843 32.75 27.5 C35.10568771 24.88256921 35.41600699 24.27524131 35.625 20.9375 C35.38461393 17.04852057 35.38461393 17.04852057 33.1875 15.0625 C29.38379253 13.21498494 26.49338623 12.8883131 22.3125 12.9375 C20.559375 12.958125 18.80625 12.97875 17 13 Z M17 41 C17 47.27 17 53.54 17 60 C20.3103125 60.0928125 20.3103125 60.0928125 23.6875 60.1875 C24.92886719 60.22230469 26.17023438 60.25710937 27.44921875 60.29296875 C32.20179198 59.90084225 34.68203836 58.31796164 38 55 C38.56438777 49.54604653 38.56438777 49.54604653 36.625 44.625 C30.6064206 40.89921275 23.9130994 41 17 41 Z " fill="#0B1C3B" transform="translate(232,150)"/>
<path d="M0 0 C5.94 0 11.88 0 18 0 C18.01981934 1.28575928 18.03963867 2.57151855 18.06005859 3.89624023 C18.13654196 8.69916266 18.22519138 13.5017989 18.31738281 18.30444336 C18.35549688 20.37697673 18.39037933 22.44957229 18.421875 24.5222168 C18.46790941 27.51373415 18.52583813 30.50482977 18.5859375 33.49609375 C18.59748871 34.41208847 18.60903992 35.32808319 18.62094116 36.27183533 C18.82272298 46.84639757 18.82272298 46.84639757 23.4375 56 C28.21667219 59.73008561 33.17372573 59.49913565 39 59 C42.41752594 57.81940013 44.2782172 56.83585674 46.62817383 54.11450195 C48.75062059 49.29584145 48.48116508 44.56618105 48.51171875 39.35546875 C48.52966995 38.2305452 48.54762115 37.10562164 48.56611633 35.9466095 C48.62021716 32.36027757 48.65411525 28.77407875 48.6875 25.1875 C48.72067317 22.75323669 48.75516282 20.31899094 48.79101562 17.88476562 C48.87594396 11.9232731 48.94275691 5.96182005 49 0 C55.27 0 61.54 0 68 0 C68.04978339 6.3496794 68.08589985 12.69924282 68.10986328 19.04907227 C68.11986317 21.2050169 68.13346747 23.36094818 68.15087891 25.5168457 C68.17539347 28.63235796 68.18654353 31.74768946 68.1953125 34.86328125 C68.20563507 35.81270096 68.21595764 36.76212067 68.22659302 37.74031067 C68.22831853 48.25045169 67.36242931 57.96541685 60 66 C51.0090573 73.49513291 40.55876181 75.94143761 29 75 C19.04500813 73.55866375 12.584008 70.83179221 5.6875 63.5625 C-0.04216548 54.86189686 -0.14993968 46.0834193 -0.09765625 36.03515625 C-0.0962413 35.00184677 -0.09482635 33.96853729 -0.09336853 32.90391541 C-0.08779839 29.6234134 -0.07525141 26.34298117 -0.0625 23.0625 C-0.05748114 20.83007911 -0.05291891 18.59765715 -0.04882812 16.36523438 C-0.03783874 10.91012961 -0.02059476 5.45507661 0 0 Z " fill="#0C1C3B" transform="translate(151,150)"/>
<path d="M0 0 C-0.30822621 2.2922454 -0.62170874 4.58378455 -0.9375 6.875 C-1.11152344 8.15117187 -1.28554688 9.42734375 -1.46484375 10.7421875 C-2 14 -2 14 -3 16 C-5.77795122 14.90565558 -8.45117224 13.77441388 -11.125 12.4375 C-18.25330749 9.41571748 -25.86675119 9.14853038 -33.0625 11.98828125 C-38.21802449 14.68037972 -40.8159681 18.75832344 -43 24 C-45.45678866 32.48708811 -43.95009134 40.24566685 -40 48 C-36.48040089 52.30066084 -31.74940228 54.66124843 -26.2734375 55.3359375 C-19.68683912 55.42470567 -14.55335122 54.53150074 -8.47265625 51.97265625 C-6 51 -6 51 -1 50 C-0.34 54.62 0.32 59.24 1 64 C-11.65357606 71.59214563 -24.75917919 72.49757273 -38.91015625 68.98046875 C-48.11750357 66.0587947 -55.23614656 59.31628022 -60 51 C-64.54213871 41.22806812 -64.83181265 27.49803443 -61.16015625 17.37109375 C-56.74991574 8.35757191 -51.16867391 2.14069144 -42 -2 C-41.25363281 -2.33773437 -40.50726563 -2.67546875 -39.73828125 -3.0234375 C-27.13784488 -7.68709646 -11.85800228 -5.92900114 0 0 Z " fill="#0B1C3B" transform="translate(359,154)"/>
<path d="M0 0 C32.76470588 0 32.76470588 0 40 6 C43.52874003 10.01546279 44.29157332 13.52509788 44.22265625 18.87109375 C43.77663573 23.13567591 42.14230385 26.68846595 39.3125 29.9375 C38.879375 30.288125 38.44625 30.63875 38 31 C38.7425 31.33 39.485 31.66 40.25 32 C43.98655206 34.71749241 45.51003106 37.67428373 47 42 C47.6827774 47.46221921 46.74036497 52.24295799 44 57 C40.03420265 61.53663181 36.84732695 63.05089102 31 65 C20.77 65 10.54 65 0 65 C0 43.55 0 22.1 0 0 Z M13 12 C13 16.62 13 21.24 13 26 C21.94699013 26.47517867 21.94699013 26.47517867 30 23 C31.32420249 21.8956608 31.32420249 21.8956608 31.1875 19.125 C31.25343513 15.83429242 31.25343513 15.83429242 29 13 C23.83608171 11.2786939 18.40708764 11.94646448 13 12 Z M13 37 C13 42.61 13 48.22 13 54 C15.041875 54.04125 17.08375 54.0825 19.1875 54.125 C20.33605469 54.14820313 21.48460937 54.17140625 22.66796875 54.1953125 C26.8655164 53.94926633 29.73689175 53.13679742 32.875 50.3125 C34.53583755 46.89855615 33.91952707 44.61242777 33 41 C31.10466125 38.41544715 30.11173483 38.03724494 27 37 C22.33032246 36.86409553 17.67262015 36.95713193 13 37 Z " fill="#0B1C3B" transform="translate(702,286)"/>
<path d="M0 0 C4.29 0 8.58 0 13 0 C16.41927375 3.74142547 18.51247899 6.70467309 21 11 C22.60764425 13.42629235 24.27678317 15.80905678 25.9375 18.19921875 C26.69873511 19.3184663 27.4577862 20.43920184 28.21484375 21.5612793 C32.13997792 27.37638208 36.0706076 33.18777375 40 39 C40.33 26.13 40.66 13.26 41 0 C44.96 0 48.92 0 53 0 C53 21.12 53 42.24 53 64 C49.04 64 45.08 64 41 64 C38.14140119 60.87340755 36.19649802 58.43877029 34.125 54.87939453 C32.38287019 51.96903966 30.46297253 49.18305377 28.5625 46.37451172 C27.06983951 44.16584065 25.59423099 41.94696417 24.125 39.72265625 C20.43046146 34.13928489 16.71374374 28.57061561 13 23 C12.67 36.53 12.34 50.06 12 64 C8.04 64 4.08 64 0 64 C0 42.88 0 21.76 0 0 Z " fill="#0B1C3B" transform="translate(868,159)"/>
<path d="M0 0 C33.14285714 0 33.14285714 0 40 6 C44.07191311 11.60866877 43.91978637 17.30691166 43 24 C41.63160057 26.92210296 40.22533474 28.60776516 38 31 C38.94875 31.7425 39.8975 32.485 40.875 33.25 C43.43188764 35.2510425 44.85109206 36.93987553 46 40 C46.6853694 46.39084711 46.9195006 52.64334918 43 58 C38.56122182 62.43877818 36.37338252 63.17903357 30 65 C20.1 65 10.2 65 0 65 C0 43.55 0 22.1 0 0 Z M13 12 C13 16.62 13 21.24 13 26 C15.5678125 26.061875 15.5678125 26.061875 18.1875 26.125 C19.63189453 26.15980469 19.63189453 26.15980469 21.10546875 26.1953125 C24.16213736 25.98905956 26.26672689 25.35943109 29 24 C30.79785631 21.6300985 31.02006653 20.41136394 30.875 17.4375 C29.76889261 14.35620085 28.82846576 13.62426747 26 12 C22.72283998 11.63791904 22.72283998 11.63791904 19.25 11.8125 C17.1875 11.874375 15.125 11.93625 13 12 Z M13 37 C13 42.61 13 48.22 13 54 C23.08928287 54.8074233 23.08928287 54.8074233 32 51 C33.75 48.25 33.75 48.25 34 45 C32.8591599 41.51037145 32.10109793 39.5838562 28.8046875 37.8359375 C25.47584553 36.84377569 22.65548986 36.8049396 19.1875 36.875 C17.145625 36.91625 15.10375 36.9575 13 37 Z " fill="#0B1C3B" transform="translate(1615,286)"/>
<path d="M0 0 C7.66938931 5.36126833 12.20390011 11.76172948 14.3359375 20.8828125 C16.14196072 32.00730845 14.64751632 41.92678747 8.5703125 51.44921875 C4.16992344 57.16098203 -1.4961268 60.29203289 -8.19921875 62.74609375 C-18.36413099 63.89625202 -28.16178051 63.50031341 -36.44140625 56.98046875 C-45.40611609 48.63967645 -47.59495642 39.85651789 -48.19921875 27.74609375 C-47.61784895 18.03237329 -44.10700667 9.65388167 -37.19921875 2.74609375 C-25.65878155 -5.09966488 -12.44485929 -7.0955592 0 0 Z M-30.57421875 14.55859375 C-34.32719191 21.92019496 -35.57191058 29.38011661 -33.51171875 37.43359375 C-31.06105249 44.29545928 -28.1267045 47.41083195 -21.88671875 51.12109375 C-16.5748007 52.35642353 -11.89105968 51.49440801 -6.94921875 49.30859375 C-1.02546448 43.78873182 1.11066894 37.78145754 1.42578125 29.74609375 C1.11913008 22.32997733 -0.50605195 16.21877298 -6.03125 11.0234375 C-9.88304998 8.29602883 -13.44792032 6.9832039 -18.18359375 7.328125 C-23.42482991 8.41497048 -27.12281938 10.47141028 -30.57421875 14.55859375 Z " fill="#0B1C3B" transform="translate(553.19921875,289.25390625)"/>
<path d="M0 0 C7.53510192 5.47325811 11.41377336 11.47668156 13.54296875 20.5234375 C14.81633023 32.53262617 14.08986742 43.183484 6.29296875 52.8359375 C0.16402188 59.34711976 -5.9713109 62.52849742 -14.88916016 62.91772461 C-24.49037847 63.118364 -31.85393997 61.28719931 -39.38671875 54.8828125 C-46.96145893 46.81816375 -48.8596065 36.70790058 -48.7265625 26.00390625 C-48.03293873 17.04711241 -45.00768817 9.88647388 -38.7421875 3.43359375 C-27.7129322 -5.78573248 -12.4395818 -7.47561513 0 0 Z M-30.76953125 13.8984375 C-35.27496647 20.90689228 -35.18678768 28.44992963 -34.45703125 36.5234375 C-32.8137065 42.76216741 -28.73953852 46.98133866 -23.45703125 50.5234375 C-18.79450267 52.07761369 -14.96949798 52.06792552 -10.33203125 50.3984375 C-3.84759103 46.16945475 -1.08781267 40.93148331 0.54296875 33.5234375 C1.48822478 26.76420947 -0.0477633 20.16503216 -3.81640625 14.46875 C-6.59985613 11.01095917 -8.99121086 8.48039901 -13.45703125 7.5234375 C-21.00240341 6.79324019 -25.34919933 8.33161013 -30.76953125 13.8984375 Z " fill="#0B1C3B" transform="translate(1321.45703125,289.4765625)"/>
<path d="M0 0 C30 0 30 0 40 5 C45.33182716 10.86500988 45.73156036 15.89827649 45.4140625 23.71875 C44.76252252 28.88189705 43.47615899 32.06779646 39.23071289 35.38061523 C38.6093042 35.81059814 37.98789551 36.24058105 37.34765625 36.68359375 C36.71996338 37.1211499 36.09227051 37.55870605 35.44555664 38.00952148 C34.96852295 38.33637939 34.49148926 38.6632373 34 39 C34.41362793 39.52956299 34.82725586 40.05912598 35.25341797 40.60473633 C37.12836947 43.00647496 39.00170131 45.40947203 40.875 47.8125 C41.52597656 48.64587891 42.17695312 49.47925781 42.84765625 50.33789062 C43.47285156 51.14033203 44.09804687 51.94277344 44.7421875 52.76953125 C45.3182373 53.50792236 45.89428711 54.24631348 46.48779297 55.00708008 C50 59.63577656 50 59.63577656 50 63 C48.60582227 63.34019152 47.20955342 63.67181779 45.8125 64 C45.03519531 64.185625 44.25789063 64.37125 43.45703125 64.5625 C40.80227662 65.03520671 38.6893464 65.29218097 36 65 C34.19482422 63.31933594 34.19482422 63.31933594 32.5546875 60.984375 C31.95269531 60.14519531 31.35070313 59.30601562 30.73046875 58.44140625 C30.11816406 57.55324219 29.50585938 56.66507813 28.875 55.75 C28.25496094 54.87730469 27.63492187 54.00460938 26.99609375 53.10546875 C25.83863259 51.47506648 24.68796984 49.83980117 23.54638672 48.19824219 C22.50439707 46.71701788 21.4210619 45.26413789 20.30126953 43.84082031 C19 42 19 42 19 40 C17.35 40 15.7 40 14 40 C14 47.92 14 55.84 14 64 C9.38 64 4.76 64 0 64 C0 42.88 0 21.76 0 0 Z M14 11 C14 16.94 14 22.88 14 29 C21.96121119 29.65543244 21.96121119 29.65543244 29.1875 27.125 C31.33493795 24.60731413 31.93627092 23.47796811 32.375 20.1875 C32.25902016 16.83246151 32.25902016 16.83246151 29.8125 14.1875 C24.53950294 10.08628006 20.90610014 11 14 11 Z " fill="#0B1C3B" transform="translate(1150,159)"/>
<path d="M0 0 C33.06905371 0 33.06905371 0 41 7 C45.20250822 12.10220012 45.62194991 17.72780083 45.38671875 24.16015625 C44.65094032 29.56329683 42.49295098 32.68478128 38.375 36.3125 C37.59125 36.869375 36.8075 37.42625 36 38 C35.34 38.66 34.68 39.32 34 40 C34.97839844 41.2684375 34.97839844 41.2684375 35.9765625 42.5625 C37.77930913 44.90017298 39.57634155 47.24212337 41.37109375 49.5859375 C42.90627776 51.58835142 44.45683736 53.56995064 46.03515625 55.5390625 C46.58042969 56.22742188 47.12570312 56.91578125 47.6875 57.625 C48.16574219 58.21539062 48.64398437 58.80578125 49.13671875 59.4140625 C49.42160156 59.93742187 49.70648437 60.46078125 50 61 C49.67 61.99 49.34 62.98 49 64 C47.109375 64.765625 47.109375 64.765625 44.75 65.25 C43.98171875 65.42015625 43.2134375 65.5903125 42.421875 65.765625 C39.62256212 66.03652625 37.69983574 65.80250718 35 65 C33.28662109 63.29760742 33.28662109 63.29760742 31.7734375 61.10546875 C31.2165625 60.31462891 30.6596875 59.52378906 30.0859375 58.70898438 C29.52132812 57.87689453 28.95671875 57.04480469 28.375 56.1875 C27.80265625 55.36701172 27.2303125 54.54652344 26.640625 53.70117188 C25.57192296 52.1689514 24.5092163 50.63251867 23.45458984 49.09057617 C22.45110579 47.64834153 21.40085886 46.23792234 20.31494141 44.85668945 C19 43 19 43 19 41 C17.02 41 15.04 41 13 41 C13 48.92 13 56.84 13 65 C8.71 65 4.42 65 0 65 C0 43.55 0 22.1 0 0 Z M13 12 C13 17.94 13 23.88 13 30 C21.0986575 30.70108767 21.0986575 30.70108767 28.6875 28.4375 C31.71188354 25.24963627 32.07655548 23.36366256 32 19 C30.70058342 15.56036789 29.71023818 14.36378053 26.4375 12.6875 C21.86834349 11.7736687 17.65834734 11.87409872 13 12 Z " fill="#0B1C3B" transform="translate(778,286)"/>
<path d="M0 0 C4.29 0 8.58 0 13 0 C13 8.25 13 16.5 13 25 C21.91 25 30.82 25 40 25 C40 16.75 40 8.5 40 0 C44.29 0 48.58 0 53 0 C53 21.45 53 42.9 53 65 C48.71 65 44.42 65 40 65 C40 56.09 40 47.18 40 38 C31.09 38 22.18 38 13 38 C13 46.91 13 55.82 13 65 C8.71 65 4.42 65 0 65 C0 43.55 0 22.1 0 0 Z " fill="#0B1D3B" transform="translate(1082,286)"/>
<path d="M0 0 C4.29 0 8.58 0 13 0 C13 8.25 13 16.5 13 25 C21.91 25 30.82 25 40 25 C40 16.75 40 8.5 40 0 C44.29 0 48.58 0 53 0 C53 21.12 53 42.24 53 64 C48.71 64 44.42 64 40 64 C40 55.09 40 46.18 40 37 C31.09 37 22.18 37 13 37 C13 45.91 13 54.82 13 64 C8.71 64 4.42 64 0 64 C0 42.88 0 21.76 0 0 Z " fill="#0B1D3B" transform="translate(582,159)"/>
<path d="M0 0 C4.62 0 9.24 0 14 0 C14.01401855 1.99764404 14.01401855 1.99764404 14.02832031 4.03564453 C14.06827472 8.98959463 14.13404934 13.9429273 14.20751953 18.89648438 C14.23569744 21.03800509 14.25692775 23.17962918 14.27099609 25.32128906 C14.29246925 28.40483407 14.33914317 31.48714018 14.390625 34.5703125 C14.39185364 35.52366486 14.39308228 36.47701721 14.39434814 37.45925903 C14.52137838 43.26028496 15.17701601 46.55882758 19 51 C22.81858724 53.50935733 26.47393792 53.15864869 30.84375 52.546875 C33.97171612 51.75355026 35.80925189 50.32766986 38 48 C38.92923977 45.21228069 39.14867338 43.41765752 39.20532227 40.52856445 C39.22526749 39.62785721 39.24521271 38.72714996 39.26576233 37.79914856 C39.28247482 36.83031235 39.29918732 35.86147614 39.31640625 34.86328125 C39.33718735 33.86870407 39.35796844 32.87412689 39.37937927 31.84941101 C39.44479412 28.67051133 39.5037224 25.49152866 39.5625 22.3125 C39.60569288 20.15819452 39.64930742 18.00389746 39.69335938 15.84960938 C39.80046731 10.56649142 39.90175766 5.28328995 40 0 C44.62 0 49.24 0 54 0 C54.07453656 6.24387037 54.12878447 12.4874778 54.16479492 18.73168945 C54.17981784 20.85282914 54.20024211 22.9739381 54.22631836 25.0949707 C54.26298838 28.15583919 54.27979175 31.21629454 54.29296875 34.27734375 C54.30845261 35.21521225 54.32393646 36.15308075 54.33988953 37.11936951 C54.34203293 45.6351319 52.74587593 53.11462587 46.80859375 59.49609375 C40.09071281 65.08223664 31.51042966 66.61464214 23 66 C16.02644434 64.94864333 9.90447951 62.42771938 5.1875 57.0625 C-0.14119846 49.60232215 -0.14790906 41.86417117 -0.09765625 33.0078125 C-0.0962413 32.06187225 -0.09482635 31.11593201 -0.09336853 30.1413269 C-0.08779484 27.13585171 -0.0752472 24.13045247 -0.0625 21.125 C-0.0574816 19.08073025 -0.05291929 17.03645932 -0.04882812 14.9921875 C-0.03783403 9.99476264 -0.02058757 4.99739417 0 0 Z " fill="#0B1C3B" transform="translate(781,159)"/>
<path d="M0 0 C4.95 0 9.9 0 15 0 C18.34420566 7.9911458 21.63607991 16.00001338 24.86328125 24.0390625 C25.51855049 25.67118179 25.51855049 25.67118179 26.1870575 27.33627319 C27.09924422 29.60988673 28.01092675 31.88370262 28.92211914 34.15771484 C29.85646481 36.48775473 30.79236167 38.81717312 31.72973633 41.14599609 C33.09007772 44.52569396 34.44595447 47.90715085 35.80078125 51.2890625 C36.22257156 52.33478424 36.64436188 53.38050598 37.07893372 54.45791626 C37.4632103 55.4200705 37.84748688 56.38222473 38.2434082 57.37353516 C38.58362503 58.2211441 38.92384186 59.06875305 39.27436829 59.94204712 C40 62 40 62 40 64 C35.10945915 65.34911472 31.10629224 66.11704968 26 66 C25.1605118 63.89828133 24.32860344 61.79353375 23.5 59.6875 C23.0359375 58.51574219 22.571875 57.34398437 22.09375 56.13671875 C21 53 21 53 21 50 C12.09 50 3.18 50 -6 50 C-6.99 53.3 -7.98 56.6 -9 60 C-9.99 62.475 -9.99 62.475 -11 65 C-15.62 65 -20.24 65 -25 65 C-17.0705984 43.17082383 -8.59047185 21.57602881 0 0 Z M7 15 C5.66128359 18.45627381 4.32994608 21.91534297 3 25.375 C2.42765625 26.85226562 2.42765625 26.85226562 1.84375 28.359375 C1.4828125 29.30039062 1.121875 30.24140625 0.75 31.2109375 C0.24726562 32.51490479 0.24726562 32.51490479 -0.265625 33.84521484 C-1.10753032 35.93609786 -1.10753032 35.93609786 -1 38 C4.61 38 10.22 38 16 38 C14.88016119 34.72731599 13.75438447 31.45688878 12.625 28.1875 C12.14933594 26.7943457 12.14933594 26.7943457 11.6640625 25.37304688 C11.2 24.0340332 11.2 24.0340332 10.7265625 22.66796875 C10.44377441 21.84578857 10.16098633 21.0236084 9.86962891 20.17651367 C8.99372356 17.76699724 8.99372356 17.76699724 7 15 Z " fill="#0B1C3B" transform="translate(1753,286)"/>
<path d="M0 0 C4.29 0 8.58 0 13 0 C13.01458252 1.29623291 13.02916504 2.59246582 13.04418945 3.92797852 C13.10235099 8.75702908 13.17958291 13.58562207 13.26245117 18.41430664 C13.29561661 20.50049387 13.32367443 22.58676902 13.34643555 24.6730957 C13.38013569 27.67957879 13.43245968 30.68526225 13.48828125 33.69140625 C13.49467117 34.61772354 13.5010611 35.54404083 13.50764465 36.49842834 C13.63257092 42.05477124 14.26783282 46.11538599 17 51 C22.39803889 54.3870048 26.01674935 54.17703292 32 53 C32.7031987 52.9003746 33.4063974 52.80074921 34.13090515 52.69810486 C36.13907151 52.1685851 36.13907151 52.1685851 37.02888489 50.29518127 C38.87556384 44.3599912 39.46741034 38.91477399 39.51171875 32.71484375 C39.52966995 31.77314835 39.54762115 30.83145294 39.56611633 29.86122131 C39.61981099 26.88669158 39.65398296 23.91231847 39.6875 20.9375 C39.72070919 18.90687943 39.75520213 16.87627943 39.79101562 14.84570312 C39.87551356 9.89724922 39.94251814 4.94883846 40 0 C44.29 0 48.58 0 53 0 C53.09944171 6.5103722 53.17173898 13.02029483 53.21972656 19.53125 C53.23974747 21.74259145 53.26697259 23.95388058 53.30175781 26.16503906 C53.35069627 29.35755378 53.37306467 32.54936396 53.390625 35.7421875 C53.41127014 36.71864227 53.43191528 37.69509705 53.45318604 38.70114136 C53.455656 46.3877389 51.92472427 53.30561144 47.0703125 59.4375 C46.10738281 60.2109375 46.10738281 60.2109375 45.125 61 C44.48820312 61.53625 43.85140625 62.0725 43.1953125 62.625 C37.72403946 66.05184717 32.3911896 66.36453892 26.125 66.375 C25.36058594 66.39949219 24.59617187 66.42398438 23.80859375 66.44921875 C16.9843445 66.48397724 11.9356378 64.52648967 6.7578125 60.0703125 C6.21898437 59.42835938 5.68015625 58.78640625 5.125 58.125 C4.29355469 57.16980469 4.29355469 57.16980469 3.4453125 56.1953125 C-0.55455794 50.11983361 -0.26626882 43.91838613 -0.1953125 36.9140625 C-0.1924826 35.85714203 -0.18965271 34.80022156 -0.18673706 33.71127319 C-0.1755785 30.34906499 -0.15048159 26.98712714 -0.125 23.625 C-0.11496462 21.33984761 -0.10583975 19.05469102 -0.09765625 16.76953125 C-0.07565327 11.17958398 -0.04115296 5.58983777 0 0 Z " fill="#0B1C3B" transform="translate(1422,286)"/>
<path d="M0 0 C13.53 0 27.06 0 41 0 C41 3.96 41 7.92 41 12 C31.76 12 22.52 12 13 12 C13 16.29 13 20.58 13 25 C20.59 25 28.18 25 36 25 C36.495 30.94 36.495 30.94 37 37 C29.08 37 21.16 37 13 37 C13 41.95 13 46.9 13 52 C22.57 52 32.14 52 42 52 C42 55.96 42 59.92 42 64 C28.14 64 14.28 64 0 64 C0 42.88 0 21.76 0 0 Z " fill="#0C1D3C" transform="translate(670,159)"/>
<path d="M0 0 C13.53 0 27.06 0 41 0 C41 3.96 41 7.92 41 12 C31.76 12 22.52 12 13 12 C13 16.29 13 20.58 13 25 C20.26 25 27.52 25 35 25 C37 33 37 33 37 37 C29.08 37 21.16 37 13 37 C13 41.95 13 46.9 13 52 C22.57 52 32.14 52 42 52 C42 55.96 42 59.92 42 64 C28.14 64 14.28 64 0 64 C0 42.88 0 21.76 0 0 Z " fill="#0C1D3C" transform="translate(1078,159)"/>
<path d="M0 0 C3.32858528 0.95596048 6.82141505 1.21888782 10.2578125 1.6484375 C10.2578125 7.5884375 10.2578125 13.5284375 10.2578125 19.6484375 C2.41358173 19.6484375 2.41358173 19.6484375 -1.23828125 18.3359375 C-2.03556641 18.06426758 -2.83285156 17.79259766 -3.65429688 17.51269531 C-4.48767578 17.22749023 -5.32105469 16.94228516 -6.1796875 16.6484375 C-20.52268608 12.13149464 -31.34644787 12.87592955 -45.51586914 17.49072266 C-59.51065778 21.96201362 -70.40160067 18.98467223 -83.7421875 13.6484375 C-84.4021875 7.7084375 -85.0621875 1.7684375 -85.7421875 -4.3515625 C-81.19893387 -3.41406572 -76.97429632 -2.47591088 -72.6796875 -0.7265625 C-61.39816545 3.0731168 -50.19835684 0.75364895 -39.36328125 -3.16015625 C-26.18119157 -7.4973055 -12.68150514 -4.93464426 0 0 Z " fill="#0B1C3B" transform="translate(349.7421875,265.3515625)"/>
<path d="M0 0 C12.86423997 4.59628574 23.88733619 3.01693247 36.4296875 -1.46875 C39.5625 -2.5625 39.5625 -2.5625 41.5625 -2.5625 C41.42055236 -0.49972893 41.27377784 1.56271031 41.125 3.625 C41.00318359 5.34783203 41.00318359 5.34783203 40.87890625 7.10546875 C40.77449219 8.20503906 40.67007813 9.30460937 40.5625 10.4375 C40.53736328 11.78328125 40.53736328 11.78328125 40.51171875 13.15625 C39.5625 15.4375 39.5625 15.4375 36.203125 17.23828125 C34.74974409 17.77078443 33.28507395 18.27313347 31.8125 18.75 C31.04260742 19.0063623 30.27271484 19.26272461 29.47949219 19.52685547 C17.56468204 23.24560065 8.15443608 21.47845482 -3.4375 17.4375 C-8.48044582 15.78951655 -13.14849283 15.01905616 -18.4375 15 C-19.53529785 14.99528687 -19.53529785 14.99528687 -20.65527344 14.99047852 C-27.38238107 15.13467223 -33.0203992 16.85299958 -39.265625 19.24609375 C-44.75611988 21.30841018 -48.37270484 21.4375 -54.4375 21.4375 C-54.4375 15.4975 -54.4375 9.5575 -54.4375 3.4375 C-51.83875 3.06625 -51.83875 3.06625 -49.1875 2.6875 C-44.66927088 1.94689405 -40.50661502 0.8899957 -36.1875 -0.625 C-24.11114519 -4.80108141 -11.97012072 -4.46665181 0 0 Z " fill="#0B1C3B" transform="translate(205.4375,263.5625)"/>
<path d="M0 0 C-0.66 4.29 -1.32 8.58 -2 13 C-4.47395833 12.25130208 -6.94791667 11.50260417 -9.421875 10.75390625 C-15.14119176 9.08143938 -20.17284421 7.85710723 -25.9375 10.1875 C-28.22035628 11.83546292 -28.22035628 11.83546292 -28.5625 14.5 C-28.23047663 17.05370772 -28.23047663 17.05370772 -26.44921875 18.48046875 C-23.23169585 20.47666717 -19.81134601 21.59755415 -16.25 22.8125 C-2.80913818 27.67392721 -2.80913818 27.67392721 1.171875 33.8046875 C3.59707633 39.10183777 3.36950146 44.41881253 2 50 C-0.91903004 55.72994785 -5.08887602 59.72638326 -11 62.3125 C-20.87072924 64.57862768 -31.53618958 63.32223941 -41 60 C-41.99 59.34 -42.98 58.68 -44 58 C-43.67 54.37 -43.34 50.74 -43 47 C-39.310998 45.77033267 -38.49938992 46.39996646 -35 47.875 C-28.11281652 50.49304193 -21.44942831 52.30840384 -14.375 49.625 C-12.14461531 48.20604482 -12.14461531 48.20604482 -11 47 C-10.89763363 43.54881076 -10.89763363 43.54881076 -12 40 C-14.82301809 38.01884842 -14.82301809 38.01884842 -18.4375 36.875 C-19.71693167 36.38485889 -20.9955748 35.89265467 -22.2734375 35.3984375 C-23.50320313 34.93695313 -24.73296875 34.47546875 -26 34 C-32.43477238 31.24706588 -37.03912423 28.87742856 -41 23 C-42.83329441 17.50011677 -42.80919559 12.0913828 -40.4375 6.75 C-32.7279682 -7.04455512 -12.6295061 -4.88884107 0 0 Z " fill="#0B1C3B" transform="translate(1053,289)"/>
<path d="M0 0 C0.07654536 4.51617599 0.10228696 8.59085217 -1 13 C-4.38612031 12.38761654 -7.50577123 11.50941986 -10.75 10.375 C-15.6506123 8.87106958 -20.03206659 8.57600184 -25 10 C-27.18891761 11.82473909 -27.18891761 11.82473909 -27.5 14.375 C-27.25093066 17.25953065 -27.25093066 17.25953065 -24.4296875 18.98828125 C-20.9309771 21.0404861 -17.42426155 22.45841785 -13.625 23.8125 C-6.12335576 26.67048782 0.04859124 29.78495707 3.5625 37.375 C4.34688153 43.87416124 3.94948613 49.79339181 0.37109375 55.4296875 C-4.08746112 60.53606658 -9.79702447 62.77542355 -16.3984375 63.23828125 C-26.0535938 63.41848554 -33.80336313 62.2188229 -43 59 C-42.88652381 57.02013918 -42.7589065 55.04108402 -42.625 53.0625 C-42.55539062 51.96035156 -42.48578125 50.85820312 -42.4140625 49.72265625 C-42.27742188 48.82417969 -42.14078125 47.92570312 -42 47 C-40 46 -40 46 -36.83984375 46.99609375 C-35.53818677 47.47418494 -34.23745328 47.9547956 -32.9375 48.4375 C-26.07121104 50.84683906 -19.98702892 52.91045136 -13 49.5625 C-11.11336617 48.1539966 -11.11336617 48.1539966 -10 47 C-9.95907063 44.66702567 -9.95758277 42.33294775 -10 40 C-12.84430302 38.85354389 -15.69582908 37.7326672 -18.55859375 36.6328125 C-19.85161259 36.13033722 -21.14458035 35.62773047 -22.4375 35.125 C-23.08009766 34.88136719 -23.72269531 34.63773438 -24.38476562 34.38671875 C-31.47798084 31.60704253 -37.47808164 28.04383672 -41 21 C-41.66690951 15.11807679 -41.35165896 9.96606461 -38.41015625 4.7578125 C-29.56424074 -6.26895199 -11.80244023 -4.76637009 0 0 Z " fill="#0B1C3B" transform="translate(1266,161)"/>
<path d="M0 0 C2.49555194 1.95073937 3.5563196 3.8907627 4.59399414 6.84130859 C5.00440697 7.98797501 5.00440697 7.98797501 5.42311096 9.1578064 C5.70758591 9.97971466 5.99206085 10.80162292 6.28515625 11.6484375 C6.58691269 12.49798004 6.88866913 13.34752258 7.1995697 14.22280884 C8.16194253 16.93743489 9.11249361 19.65602447 10.0625 22.375 C11.01866707 25.08586479 11.977202 27.79588285 12.93614197 30.50576782 C13.53155746 32.19117532 14.12488157 33.87732353 14.71583557 35.56430054 C16.06584448 39.41156577 17.4420572 43.23043211 19 47 C24.88919347 32.08200992 30.45922776 17.05038738 36 2 C40.62 2 45.24 2 50 2 C47.85692413 9.51176785 45.27358139 16.73046968 42.40234375 23.9921875 C41.96741104 25.10054962 41.53247833 26.20891174 41.08436584 27.3508606 C40.17101183 29.67605802 39.25573545 32.00050116 38.33862305 34.32421875 C36.9340889 37.88364453 35.53590569 41.44551551 34.13867188 45.0078125 C33.2477653 47.27358281 32.35650182 49.53921282 31.46484375 51.8046875 C31.0471019 52.86823456 30.62936005 53.93178162 30.19895935 55.02755737 C29.80837845 56.01603668 29.41779755 57.00451599 29.01538086 58.02294922 C28.67357285 58.88991425 28.33176483 59.75687927 27.979599 60.65011597 C27.07996616 62.80817539 26.04561558 64.90876884 25 67 C20.71 67 16.42 67 12 67 C11.55720703 65.86272461 11.11441406 64.72544922 10.65820312 63.55371094 C8.97422767 59.22929605 7.28903232 54.90535733 5.60351562 50.58154297 C4.88184196 48.72977943 4.16047512 46.87789628 3.43945312 45.02587891 C2.38757912 42.3242081 1.33459413 39.62297293 0.28125 36.921875 C-0.06768311 36.02585571 -0.41661621 35.12983643 -0.77612305 34.20666504 C-2.5931876 29.55306973 -4.43458635 24.91102462 -6.31640625 20.28320312 C-6.6880188 19.3667804 -7.05963135 18.45035767 -7.44250488 17.50616455 C-8.15301519 15.75848764 -8.8679066 14.01258361 -9.58776855 12.26873779 C-9.90491821 11.48815002 -10.22206787 10.70756226 -10.54882812 9.90332031 C-10.82988403 9.21957336 -11.11093994 8.53582642 -11.4005127 7.83135986 C-12 6 -12 6 -12 3 C-10.06882446 2.41615623 -8.12970605 1.85852946 -6.1875 1.3125 C-5.10855469 0.99925781 -4.02960937 0.68601563 -2.91796875 0.36328125 C-1.95503906 0.24339844 -0.99210938 0.12351563 0 0 Z " fill="#0B1C3B" transform="translate(1005,157)"/>
<path d="M0 0 C-0.11389875 1.79240663 -0.24147687 3.58394835 -0.375 5.375 C-0.44460938 6.37273437 -0.51421875 7.37046875 -0.5859375 8.3984375 C-1 11 -1 11 -3 13 C-3.89138672 12.45859375 -3.89138672 12.45859375 -4.80078125 11.90625 C-11.28137792 8.27792216 -16.58939192 6.80657385 -24 8 C-28.30172566 9.28255154 -31.11410339 11.6379702 -33.375 15.5 C-36.74589261 23.35082348 -36.84608686 31.80219988 -34.015625 39.8046875 C-32.07759189 43.99382061 -29.75523812 46.92735448 -25.75 49.375 C-18.44192356 51.03592646 -13.02747042 50.01273991 -6.26171875 46.875 C-4 46 -4 46 0 46 C0.495 51.445 0.495 51.445 1 57 C-9.41363997 62.29217769 -20.16609361 64.35101156 -31.64453125 60.90625 C-39.79168646 57.05300427 -44.73508635 52.39613285 -48.375 44.1875 C-51.72081622 33.99541276 -51.6570138 21.18901742 -47.31640625 11.328125 C-42.92381764 3.55963001 -37.35198294 -0.87136331 -29 -4 C-19.20739485 -6.42116379 -8.51502125 -5.67668084 0 0 Z " fill="#0B1C3B" transform="translate(1250,290)"/>
<path d="M0 0 C13.2 0 26.4 0 40 0 C40 3.96 40 7.92 40 12 C31.09 12 22.18 12 13 12 C13 16.95 13 21.9 13 27 C19.93 27 26.86 27 34 27 C36 35 36 35 36 39 C28.41 39 20.82 39 13 39 C13 47.58 13 56.16 13 65 C8.71 65 4.42 65 0 65 C0 43.55 0 22.1 0 0 Z " fill="#0C1D3B" transform="translate(596,286)"/>
<path d="M0 0 C17.16 0 34.32 0 52 0 C54 7 54 7 54 13 C47.4 13 40.8 13 34 13 C34 30.16 34 47.32 34 65 C29.38 65 24.76 65 20 65 C20 47.84 20 30.68 20 13 C13.4 13 6.8 13 0 13 C0 8.71 0 4.42 0 0 Z " fill="#0B1D3B" transform="translate(891,286)"/>
<path d="M0 0 C4.95 8.91 9.9 17.82 15 27 C17.64883187 23.68896017 19.7235207 20.97991412 21.76171875 17.390625 C22.24060547 16.55402344 22.71949219 15.71742188 23.21289062 14.85546875 C23.69951172 13.99566406 24.18613281 13.13585937 24.6875 12.25 C25.66924216 10.5252835 26.65224683 8.80128481 27.63671875 7.078125 C28.06686279 6.31918945 28.49700684 5.56025391 28.94018555 4.77832031 C30 3 30 3 31 2 C33.53049402 1.92686433 36.03304837 1.90752473 38.5625 1.9375 C39.62887695 1.94426758 39.62887695 1.94426758 40.71679688 1.95117188 C42.47790013 1.96299136 44.23896036 1.98092737 46 2 C41.31853502 10.95227514 36.11708516 19.5822086 30.90234375 28.23046875 C30.41902588 29.04306152 29.93570801 29.8556543 29.43774414 30.69287109 C28 33 28 33 26.54467773 34.93603516 C22.15589276 40.93166021 22.22490565 46.74330302 22.1875 54 C22.16236328 55.15628906 22.13722656 56.31257813 22.11132812 57.50390625 C22.05282255 60.33557629 22.0234593 63.16782279 22 66 C17.71 66 13.42 66 9 66 C9.07863281 64.43894531 9.15726563 62.87789062 9.23828125 61.26953125 C9.59654334 45.06328975 6.17090464 35.34893047 -3.31396484 22.35986328 C-5.85706631 18.80040502 -8.0874386 15.07579599 -10.3125 11.3125 C-10.69083984 10.6942334 -11.06917969 10.0759668 -11.45898438 9.43896484 C-14 5.24050307 -14 5.24050307 -14 3 C-12.0424015 2.49713066 -10.08389623 1.9977901 -8.125 1.5 C-7.03445313 1.2215625 -5.94390625 0.943125 -4.8203125 0.65625 C-2 0 -2 0 0 0 Z " fill="#0B1C3B" transform="translate(1414,157)"/>
<path d="M0 0 C17.49 0 34.98 0 53 0 C53.495 5.94 53.495 5.94 54 12 C47.4 12 40.8 12 34 12 C34 29.16 34 46.32 34 64 C29.38 64 24.76 64 20 64 C20 46.84 20 29.68 20 12 C13.4 12 6.8 12 0 12 C0 8.04 0 4.08 0 0 Z " fill="#0B1C3C" transform="translate(505,159)"/>
<path d="M0 0 C7.38728591 -0.02464071 14.77454812 -0.0428316 22.16186523 -0.05493164 C24.67716895 -0.05997363 27.19246972 -0.06680703 29.70776367 -0.07543945 C33.31429775 -0.08751094 36.92079323 -0.09322949 40.52734375 -0.09765625 C42.22575661 -0.10539818 42.22575661 -0.10539818 43.95848083 -0.11329651 C45.51998619 -0.11340981 45.51998619 -0.11340981 47.11303711 -0.11352539 C48.03459091 -0.115746 48.95614471 -0.11796661 49.90562439 -0.12025452 C52 0 52 0 53 1 C53.46212633 4.6570738 53.70429173 8.32476863 54 12 C47.07 12 40.14 12 33 12 C33 29.16 33 46.32 33 64 C28.71 64 24.42 64 20 64 C20 46.84 20 29.68 20 12 C13.4 12 6.8 12 0 12 C0 8.04 0 4.08 0 0 Z " fill="#0B1D3C" transform="translate(1336,159)"/>
<path d="M0 0 C4.29 0 8.58 0 13 0 C13 17.49 13 34.98 13 53 C20.92 53 28.84 53 37 53 C37.66 56.96 38.32 60.92 39 65 C26.13 65 13.26 65 0 65 C0 43.55 0 22.1 0 0 Z " fill="#0C1C3C" transform="translate(1362,286)"/>
<path d="M0 0 C4.29 0 8.58 0 13 0 C14 1 14 1 14.12025452 3.54994202 C14.1169236 5.25204079 14.1169236 5.25204079 14.11352539 6.98852539 C14.11344986 8.26977798 14.11337433 9.55103058 14.11329651 10.87110901 C14.10818909 12.27995848 14.10297309 13.68880756 14.09765625 15.09765625 C14.09579202 16.53112234 14.09436814 17.96458907 14.09336853 19.39805603 C14.08954372 23.17759957 14.07971377 26.9571049 14.06866455 30.7366333 C14.05844963 34.59069298 14.05387074 38.44475882 14.04882812 42.29882812 C14.03809145 49.86590488 14.02049497 57.43294223 14 65 C9.38 65 4.76 65 0 65 C0 43.55 0 22.1 0 0 Z " fill="#0B1A3C" transform="translate(967,286)"/>
<path d="M0 0 C4.29 0 8.58 0 13 0 C13 21.45 13 42.9 13 65 C8.71 65 4.42 65 0 65 C0 43.55 0 22.1 0 0 Z " fill="#0C1D3C" transform="translate(1692,286)"/>
<path d="M0 0 C4.29 0 8.58 0 13 0 C13 21.45 13 42.9 13 65 C8.71 65 4.42 65 0 65 C0 43.55 0 22.1 0 0 Z " fill="#0B1C3C" transform="translate(855,286)"/>
<path d="M0 0 C4.29 0 8.58 0 13 0 C13 21.12 13 42.24 13 64 C8.71 64 4.42 64 0 64 C0 42.88 0 21.76 0 0 Z " fill="#0C1D3B" transform="translate(1300,159)"/>
<path d="M0 0 C4.29 0 8.58 0 13 0 C13 21.12 13 42.24 13 64 C8.71 64 4.42 64 0 64 C0 42.88 0 21.76 0 0 Z " fill="#0B1D3C" transform="translate(956,159)"/>
<path d="M0 0 C0.67126129 2.4363189 1.33716354 4.87388883 2 7.3125 C2.19078125 8.00279297 2.3815625 8.69308594 2.578125 9.40429688 C3.37716184 12.35787949 4 14.92559219 4 18 C2.31197266 18.02126953 2.31197266 18.02126953 0.58984375 18.04296875 C-8.89197318 18.29229888 -16.68863407 19.53733138 -25.5625 22.85546875 C-30.42012467 24.47283696 -34.90171658 24.7904815 -40 25 C-40 19.06 -40 13.12 -40 7 C-37.3703125 6.62875 -37.3703125 6.62875 -34.6875 6.25 C-29.28536012 5.36346229 -24.47998703 3.83990956 -19.3828125 1.88671875 C-13.05620553 -0.46760876 -6.65538734 -0.10658094 0 0 Z " fill="#0B1C3B" transform="translate(191,289)"/>
<path d="M0 0 C10.94130946 -0.43189379 20.21351961 1.9960116 30.55078125 5.3515625 C33.641601 6.16986566 36.83482527 6.54783218 40 7 C40 12.94 40 18.88 40 25 C33.41042635 24.7291956 28.12454451 23.81347462 21.9375 21.5 C13.32037761 18.3021956 5.16122363 18.21305171 -4 18 C-2.68 12.06 -1.36 6.12 0 0 Z " fill="#0B1C3C" transform="translate(320,289)"/>
<path d="M0 0 C0.63276855 0.13422363 1.26553711 0.26844727 1.91748047 0.40673828 C3.01020264 0.63852783 3.01020264 0.63852783 4.125 0.875 C6.80600028 1.44369703 9.2906062 2.10423918 11.875 3.03125 C15.27402179 4.08494676 18.32812498 4.40784439 21.875 4.625 C23.02742188 4.69976562 24.17984375 4.77453125 25.3671875 4.8515625 C26.67042969 4.92503906 26.67042969 4.92503906 28 5 C25.69596272 11.05793218 22.94641939 16.83187848 19 22 C13.32485768 23.68152365 8.04671364 20.69663454 3 18 C0.85531351 15.85531351 1.2604212 11.41555106 0.9375 8.4375 C0.84662109 7.63119141 0.75574219 6.82488281 0.66210938 5.99414062 C0.43752551 3.99652623 0.21826764 1.9983144 0 0 Z " fill="#0B1C3B" transform="translate(268,291)"/>
<path d="M0 0 C-0.25023457 4.01033821 -0.59028741 8.00280401 -1 12 C-1.06445312 12.7425 -1.12890625 13.485 -1.1953125 14.25 C-1.5 16.0625 -1.5 16.0625 -3 19 C-5.88660306 20.63104807 -8.73883287 21.46159977 -12 22 C-12.97710937 22.185625 -13.95421875 22.37125 -14.9609375 22.5625 C-18.53085429 21.90174419 -18.79629898 21.41031621 -20.7734375 18.53515625 C-21.66295943 17.05748774 -22.52948386 15.56578172 -23.375 14.0625 C-23.82488281 13.30775391 -24.27476562 12.55300781 -24.73828125 11.77539062 C-28 6.24831402 -28 6.24831402 -28 5 C-27.20078125 4.97421875 -26.4015625 4.9484375 -25.578125 4.921875 C-18.35718057 4.54896238 -12.23074095 3.38986355 -5.4609375 0.83984375 C-3 0 -3 0 0 0 Z " fill="#0B1C3B" transform="translate(243,291)"/>
</svg>
