<?xml version="1.0" encoding="UTF-8"?>
<svg version="1.1" xmlns="http://www.w3.org/2000/svg" width="389" height="433">
<path d="M0 0 C0 23.76 0 47.52 0 72 C-16.8125 80.375 -16.8125 80.375 -21.98364258 82.94677734 C-29.58247293 86.73483319 -37.14083323 90.58225214 -44.63671875 94.5703125 C-53.23090448 99.13220556 -61.91918065 103.50020328 -70.625 107.84375 C-71.32453482 108.19280018 -72.02406963 108.54185036 -72.74480247 108.90147781 C-78.56403974 111.80406556 -84.38587453 114.70143004 -90.20776367 117.59869385 C-95.26468141 120.11553116 -100.32064628 122.63426719 -105.375 125.15625 C-106.4273735 125.68129623 -106.4273735 125.68129623 -107.50100708 126.21694946 C-115.9551947 130.43809247 -124.36528123 134.72703229 -132.70385742 139.17297363 C-140.13578435 143.11473985 -147.66024301 146.86978689 -155.1875 150.625 C-155.86631226 150.96368607 -156.54512451 151.30237213 -157.24450684 151.65132141 C-162.87288172 154.45848709 -168.50385629 157.26042412 -174.1348877 160.06225586 C-179.02860062 162.49748264 -183.92135608 164.9346171 -188.8125 167.375 C-189.83215347 167.88368622 -189.83215347 167.88368622 -190.87240601 168.40264893 C-198.45734941 172.18961335 -206.01810555 176.01214517 -213.5 180 C-221.65919777 184.34885796 -229.91472695 188.49786686 -238.1875 192.625 C-238.86622162 192.96364075 -239.54494324 193.30228149 -240.24423218 193.65118408 C-245.87269862 196.45839553 -251.50376465 199.26037852 -257.1348877 202.06225586 C-262.02860059 204.49748263 -266.92137536 206.93457849 -271.8125 209.375 C-272.82271304 209.87901274 -272.82271304 209.87901274 -273.85333443 210.39320755 C-283.99999208 215.45964832 -294.06704809 220.66086321 -304.08026123 225.98620605 C-309.037741 228.60419922 -314.04891104 231.11655087 -319.0625 233.625 C-320.10470703 234.15222656 -321.14691406 234.67945313 -322.22070312 235.22265625 C-323.21134766 235.71894531 -324.20199219 236.21523438 -325.22265625 236.7265625 C-326.09672119 237.16564941 -326.97078613 237.60473633 -327.87133789 238.05712891 C-330 239 -330 239 -332 239 C-332 215.24 -332 191.48 -332 167 C-291.87822889 146.41464685 -291.87822889 146.41464685 -272.65625 136.8125 C-272.05980808 136.51453333 -271.46336617 136.21656666 -270.84885025 135.90957069 C-264.43334037 132.70536835 -258.01453028 129.5078321 -251.59326172 126.31518555 C-242.31945512 121.69914144 -233.05862841 117.07500082 -223.9140625 112.20703125 C-215.61490215 107.79300841 -207.22325942 103.57094141 -198.8125 99.375 C-198.13437885 99.03665949 -197.45625771 98.69831898 -196.75758743 98.34972572 C-191.12851443 95.54221106 -185.49684248 92.73992357 -179.8651123 89.93774414 C-174.97139938 87.50251736 -170.07864392 85.0653829 -165.1875 82.625 C-164.16784653 82.11631378 -164.16784653 82.11631378 -163.12759399 81.59735107 C-155.54265059 77.81038665 -147.98189445 73.98785483 -140.5 70 C-132.34080223 65.65114204 -124.08527305 61.50213314 -115.8125 57.375 C-115.13377838 57.03635925 -114.45505676 56.69771851 -113.75576782 56.34881592 C-108.12730138 53.54160447 -102.49623535 50.73962148 -96.8651123 47.93774414 C-91.97139941 45.50251737 -87.07862162 43.06542757 -82.1875 40.625 C-81.51036894 40.28716366 -80.83323788 39.94932732 -80.13558769 39.60125351 C-71.64235835 35.36036726 -63.19255731 31.05000278 -54.81117249 26.59133911 C-45.62613533 21.71477719 -36.32433576 17.06914462 -27.02319336 12.41894531 C-23.87980546 10.84613219 -20.73970042 9.26688309 -17.59960938 7.6875 C-15.59654888 6.68450689 -13.59330102 5.68188783 -11.58984375 4.6796875 C-10.18544289 3.97209793 -10.18544289 3.97209793 -8.75267029 3.25021362 C-7.46345421 2.60791306 -7.46345421 2.60791306 -6.14819336 1.95263672 C-5.39275742 1.57420624 -4.63732147 1.19577576 -3.85899353 0.80587769 C-2 0 -2 0 0 0 Z " fill="#00A5A6" transform="translate(363,56)"/>
<path d="M0 0 C0.23197133 9.28358741 0.40951047 18.56617406 0.51812172 27.8520298 C0.57025895 32.16427768 0.64092827 36.47453979 0.75439453 40.78564453 C0.86327 44.94850427 0.9228823 49.10945828 0.94877243 53.27363205 C0.96721364 54.85989778 1.00323132 56.44606199 1.05730057 58.03151321 C1.46260221 70.4114299 1.46260221 70.4114299 -2.0358429 74.21118164 C-4.63401165 75.80586573 -7.14985889 76.92931503 -10 78 C-11.2653322 78.64786691 -12.52359994 79.30989545 -13.77124023 79.99121094 C-14.93856689 80.56645508 -16.10589355 81.14169922 -17.30859375 81.734375 C-18.27567009 82.21374008 -18.27567009 82.21374008 -19.26228333 82.70278931 C-20.62204981 83.37654425 -21.98267108 84.04857667 -23.34411621 84.71893311 C-26.9150466 86.4777449 -30.47907385 88.25042307 -34.04296875 90.0234375 C-34.74060333 90.37028595 -35.43823792 90.7171344 -36.15701294 91.07449341 C-41.5611958 93.76721919 -46.92101246 96.53612305 -52.25 99.375 C-59.28313107 103.12165749 -66.38405093 106.70989596 -73.52246094 110.25146484 C-79.22471302 113.08927305 -84.87389287 116.01433784 -90.5 119 C-97.78464637 122.86581565 -105.13212422 126.58492985 -112.51953125 130.25 C-118.2227558 133.08830771 -123.87292699 136.01382527 -129.5 139 C-136.67310899 142.806625 -143.89758413 146.49211016 -151.18554688 150.07421875 C-156.7458367 152.82301771 -162.23548992 155.69543535 -167.71875 158.59375 C-177.6042627 163.81601693 -187.55340152 168.90894247 -197.51660156 173.9810791 C-202.68958948 176.6147734 -207.86035793 179.25281881 -213.03125 181.890625 C-214.06048584 182.41557556 -215.08972168 182.94052612 -216.15014648 183.48138428 C-224.41420649 187.69773132 -232.66923863 191.93137549 -240.91775513 196.17803955 C-242.98714745 197.24338338 -245.05688522 198.30805328 -247.12670898 199.37255859 C-254.08332281 202.95102504 -261.03704778 206.53499975 -267.98721313 210.12597656 C-271.62459972 212.00431065 -275.26368359 213.87934034 -278.90307617 215.75378418 C-280.66556304 216.66253361 -282.42729225 217.57275413 -284.18823242 218.48449707 C-286.6249075 219.74595954 -289.06409027 221.00243839 -291.50390625 222.2578125 C-292.23541397 222.63807587 -292.96692169 223.01833923 -293.72059631 223.41012573 C-298.77212459 226 -298.77212459 226 -301 226 C-301 202.24 -301 178.48 -301 154 C-279.20650531 142.52973964 -279.20650531 142.52973964 -271.0234375 138.37109375 C-270.09706482 137.89888397 -269.17069214 137.42667419 -268.21624756 136.94015503 C-266.2676534 135.94695182 -264.31880002 134.95425702 -262.36968994 133.96206665 C-257.18769078 131.32396279 -252.00791354 128.68150352 -246.828125 126.0390625 C-245.80296783 125.51615128 -244.77781067 124.99324005 -243.72158813 124.45448303 C-235.17841525 120.09502032 -226.6479448 115.7113527 -218.125 111.3125 C-206.05254235 105.08284589 -193.96752405 98.87811671 -181.875 92.6875 C-181.01209351 92.24573425 -180.14918701 91.80396851 -179.26013184 91.34881592 C-175.76769769 89.56088841 -172.2752545 87.77297856 -168.78277588 85.98513794 C-159.64465762 81.30686762 -150.50958399 76.62266651 -141.375 71.9375 C-140.57471375 71.52704437 -139.77442749 71.11658875 -138.94989014 70.69369507 C-134.91415348 68.62381956 -130.87845173 66.55387602 -126.84277344 64.48388672 C-119.54154517 60.73897288 -112.23996467 56.99474593 -104.93841553 53.25045776 C-102.5033597 52.00172291 -100.06832672 50.75294352 -97.63330078 49.50415039 C-90.28422759 45.73523775 -82.93504129 41.96654642 -75.58531189 38.19891357 C-71.47346958 36.09108219 -67.36172205 33.98306597 -63.25 31.875 C-62.04922318 31.25939209 -62.04922318 31.25939209 -60.82418823 30.63134766 C-51.8967846 26.0541997 -42.97151514 21.47294778 -34.05078125 16.8828125 C-33.24653717 16.46901337 -32.44229309 16.05521423 -31.61367798 15.62887573 C-27.79641965 13.66464411 -23.97949725 11.69976355 -20.16308594 9.73388672 C-1.26071263 0 -1.26071263 0 0 0 Z " fill="#00A5A6" transform="translate(332,183)"/>
<path d="M0 0 C0 24.09 0 48.18 0 73 C-8.25 77.29 -16.5 81.58 -25 86 C-31.66040529 89.64923463 -31.66040529 89.64923463 -38.31591797 93.30737305 C-47.71671038 98.45803864 -57.27274961 103.3048573 -66.81604004 108.18414307 C-76.50175255 113.13877135 -86.11790322 118.18298763 -95.63671875 123.453125 C-104.54223266 128.3558589 -113.59470403 132.96644517 -122.64361572 137.59692383 C-132.77068615 142.7815281 -142.81748385 148.07840847 -152.76757812 153.59765625 C-153.58677734 154.05140625 -154.40597656 154.50515625 -155.25 154.97265625 C-155.95640625 155.36718994 -156.6628125 155.76172363 -157.390625 156.16821289 C-159 157 -159 157 -160 157 C-160 132.91 -160 108.82 -160 84 C-135.17398185 70.45853556 -135.17398185 70.45853556 -124.5 65 C-116.39961476 60.83032928 -108.35038023 56.59145429 -100.375 52.1875 C-90.46103195 46.71772452 -80.40364096 41.54680709 -70.32635498 36.38705444 C-61.82303557 32.03086244 -53.36141458 27.62487971 -45 23 C-35.48602535 17.74048444 -25.84963877 12.73018602 -16.1875 7.75 C-15.06396118 7.16968018 -15.06396118 7.16968018 -13.91772461 6.57763672 C-11.79408177 5.4815479 -9.66887243 4.38857122 -7.54296875 3.296875 C-6.89619675 2.9631488 -6.24942474 2.62942261 -5.58305359 2.2855835 C-1.1156971 0 -1.1156971 0 0 0 Z " fill="#00A5A6" transform="translate(191,27)"/>
</svg>
