<svg width="162" height="29" viewBox="0 0 162 29" fill="none" xmlns="http://www.w3.org/2000/svg">
<path d="M60.9296 12.8863V12.879H52.1973V4.25353H66.5178V4.24988H67.6813L69.1768 0.568359H48.0938V28.4954H52.1973V16.5277H60.6816V16.5314H62.7388L64.2198 12.8863H60.9296Z" fill="#071024"/>
<path d="M31.6246 0.5C31.497 0.5 31.373 0.547428 31.2781 0.631347L0 28.5H9.37431L31.4459 1.27352L25.1903 28.5H31.9894V0.864868C31.9894 0.664191 31.8253 0.5 31.6246 0.5Z" fill="#071024"/>
<path d="M75.0022 0.568359L63.6436 28.4954H68.0499L70.8621 21.3148H80.769L79.3027 17.6989L72.3066 17.7062L77.1688 5.24232L80.9733 14.9916V14.9953L84.6172 24.3468L84.6099 24.3578L86.2076 28.4954H90.6503L79.372 0.568359H75.0022Z" fill="#071024"/>
<path d="M97.8938 13.0323V4.25353H106.061C109.329 4.25353 111.149 6.03773 111.149 8.66114C111.149 11.2845 109.325 13.0323 106.061 13.0323H97.8975H97.8938ZM115.249 8.66114C115.249 3.91055 111.908 0.568359 106.17 0.568359H93.7866V28.4954H97.8902V16.6773H103.475L111.601 28.4954H116.427L107.994 16.5642C112.703 15.9549 115.249 12.9155 115.249 8.66114Z" fill="#071024"/>
<path d="M121.71 24.1953C120.524 24.1953 119.562 25.1586 119.562 26.3444C119.562 27.5302 120.524 28.4935 121.71 28.4935C122.895 28.4935 123.858 27.5302 123.858 26.3444C123.858 25.1586 122.895 24.1953 121.71 24.1953Z" fill="#071024"/>
<path d="M161.362 0.568359H157.299V28.4954H161.362V0.568359Z" fill="#071024"/>
<path d="M138.532 0.568359L127.173 28.4954H131.58L134.388 21.3148H144.299L142.829 17.6989L135.833 17.7062L140.695 5.24232L144.499 14.9916L144.503 14.9953L148.147 24.3468L148.136 24.3578L149.737 28.4954H154.18L142.898 0.568359H138.532Z" fill="#071024"/>
</svg>
