<?xml version="1.0" encoding="UTF-8"?>
<svg version="1.1" xmlns="http://www.w3.org/2000/svg" width="160" height="160">
<path d="M0 0 C0 24.42 0 48.84 0 74 C-5.61 74 -11.22 74 -17 74 C-16.34637113 66.15803623 -14.66702747 58.71144854 -12.83984375 51.06640625 C-12.52686483 49.73896943 -12.21441986 48.41140661 -11.90248108 47.08372498 C-11.08663881 43.61636738 -10.26490252 40.15043676 -9.44146729 36.68487549 C-8.11881696 31.11475075 -6.80427678 25.54271267 -5.49160957 19.9702282 C-5.03291993 18.02752324 -4.57091585 16.08560182 -4.10887146 14.14369202 C-3.83180862 12.97164719 -3.55474579 11.79960236 -3.26928711 10.59204102 C-3.02359482 9.55773453 -2.77790253 8.52342804 -2.52476501 7.45777893 C-1.93039817 5.092877 -1.93039817 5.092877 -2 3 C-2.99966797 4.28970703 -2.99966797 4.28970703 -4.01953125 5.60546875 C-8.73823609 11.66644447 -13.50258892 17.66577533 -18.5 23.5 C-22.69009309 28.39561337 -26.70768739 33.3986661 -30.66186523 38.48608398 C-33.21724868 41.76218196 -35.8086528 45.00225237 -38.453125 48.20703125 C-39.04480469 48.92415283 -39.63648438 49.64127441 -40.24609375 50.38012695 C-41.45545214 51.83314506 -42.67422937 53.27837597 -43.90234375 54.71557617 C-46.68855988 58.00834271 -49.1983836 61.15651845 -51.234375 64.96875 C-55.19075163 72.03257547 -55.19075163 72.03257547 -59 74 C-67.22266057 75.55234417 -75.72252769 74.79936733 -84 74 C-81.64331662 70.94773166 -79.32365965 68.2344026 -76.375 65.75 C-73.2086764 63.04273447 -70.08951914 60.29482655 -67 57.5 C-63.38323655 54.23609152 -59.73610392 51.01209051 -56.0625 47.8125 C-53.69035571 45.72788836 -51.34443935 43.61571356 -49 41.5 C-43.67665307 36.70092208 -38.31136661 31.9592205 -32.84765625 27.3203125 C-26.81699041 22.19318704 -20.85994072 17.01570662 -15.0625 11.625 C-2.55390286 0 -2.55390286 0 0 0 Z " fill="#0A1123" transform="translate(112,35)"/>
<path d="M0 0 C0 24.42 0 48.84 0 74 C-5.61 74 -11.22 74 -17 74 C-16.67 73.01 -16.34 72.02 -16 71 C-16 71.66 -16 72.32 -16 73 C-11.05 73 -6.1 73 -1 73 C-1.33 49.9 -1.66 26.8 -2 3 C-5.63 7.62 -9.26 12.24 -13 17 C-15.00595434 19.45631751 -17.00998306 21.89759041 -19.0625 24.3125 C-19.74989258 25.13524414 -19.74989258 25.13524414 -20.45117188 25.97460938 C-23.75389366 29.87694683 -23.75389366 29.87694683 -26 31 C-26.66 30.34 -27.32 29.68 -28 29 C-27.690625 28.4225 -27.38125 27.845 -27.0625 27.25 C-25.93878373 25.11028519 -25.93878373 25.11028519 -25.625 23.06640625 C-24.86358487 20.54897749 -23.83174045 19.49544248 -21.9375 17.6875 C-21.30585937 17.08292969 -20.67421875 16.47835937 -20.0234375 15.85546875 C-17.403953 13.4534318 -14.75372604 11.09421186 -12.05859375 8.77734375 C-10.62020035 7.5354671 -9.19678943 6.27611887 -7.78515625 5.00390625 C-7.07230469 4.36324219 -6.35945313 3.72257812 -5.625 3.0625 C-4.97789063 2.47597656 -4.33078125 1.88945313 -3.6640625 1.28515625 C-2 0 -2 0 0 0 Z " fill="#06070A" transform="translate(112,35)"/>
<path d="M0 0 C0.34025361 3.66835926 0.36623402 5.46536373 -1.75 8.5546875 C-2.4925 9.32039063 -3.235 10.08609375 -4 10.875 C-4.7425 11.65617187 -5.485 12.43734375 -6.25 13.2421875 C-6.8275 13.82226562 -7.405 14.40234375 -8 15 C-8.99 14.34 -9.98 13.68 -11 13 C-10.690625 12.4225 -10.38125 11.845 -10.0625 11.25 C-8.92636564 9.11364706 -8.92636564 9.11364706 -8.6875 7.0625 C-7.28450886 2.85352659 -4.42856054 0 0 0 Z " fill="#090E1E" transform="translate(95,51)"/>
<path d="M0 0 C0.66 0.33 1.32 0.66 2 1 C2 2.65 2 4.3 2 6 C1.01 6.495 1.01 6.495 0 7 C0.99 8.485 0.99 8.485 2 10 C1.01 10.495 1.01 10.495 0 11 C0 10.34 0 9.68 0 9 C-1.32 8.34 -2.64 7.68 -4 7 C-1.125 1.125 -1.125 1.125 0 0 Z " fill="#121929" transform="translate(85,57)"/>
<path d="M0 0 C0.66 0.99 1.32 1.98 2 3 C0.35830472 5.02054804 -1.30911778 7.02043058 -3 9 C-3.33 9 -3.66 9 -4 9 C-4 7.35 -4 5.7 -4 4 C-4.66 3.67 -5.32 3.34 -6 3 C-4.02 2.01 -2.04 1.02 0 0 Z " fill="#161B27" transform="translate(99,47)"/>
<path d="M0 0 C0.66 0 1.32 0 2 0 C2 3.63 2 7.26 2 11 C-1.34042553 4.31914894 -1.34042553 4.31914894 0 0 Z " fill="#121725" transform="translate(109,44)"/>
</svg>
