<?xml version="1.0" encoding="UTF-8"?>
<svg version="1.1" xmlns="http://www.w3.org/2000/svg" width="512" height="512">
<path d="M0 0 C1.12544724 0.34386749 2.25089447 0.68773499 3.41044617 1.04202271 C4.61417374 1.42518646 5.81790131 1.80835022 7.05810547 2.203125 C8.37161075 2.60961341 9.68553345 3.01475501 10.99983215 3.41867065 C13.82815719 4.29059543 16.65366989 5.17092131 19.4772644 6.05804443 C23.99153126 7.47603857 28.51153158 8.87504939 33.03295898 10.27001953 C33.80613999 10.50861506 34.579321 10.74721058 35.37593174 10.99303627 C36.96427256 11.48317502 38.55262778 11.97326712 40.14099693 12.46331406 C42.58813324 13.21900398 45.03469543 13.97652914 47.4811554 14.73440552 C59.7624017 18.53583827 72.06585862 22.25969575 84.38232422 25.9453125 C85.27645775 26.21292641 86.17059128 26.48054031 87.09181976 26.75626373 C94.16840776 28.87367541 101.24612199 30.98731108 108.32407379 33.10015869 C117.80201102 35.92961464 127.27811254 38.76460471 136.74520111 41.63018417 C141.11888441 42.95231898 145.5003742 44.2447396 149.88671875 45.52441406 C151.90112543 46.12743229 153.91530738 46.73120209 155.92919922 47.3359375 C156.8117186 47.58536102 157.69423798 47.83478455 158.60350037 48.09176636 C162.38781333 49.25021524 164.32112871 49.87081395 166.88598633 52.98779297 C167.80029297 55.453125 167.80029297 55.453125 167.30029297 58.015625 C164.3284855 62.84481213 159.92612644 64.98750933 154.86279297 67.203125 C147.61848537 70.81194572 144.48435392 74.12646525 141.55810547 81.64453125 C137.81319753 94.02855439 138.40163295 106.63467217 138.80029297 119.453125 C139.42863037 119.56487061 140.05696777 119.67661621 140.7043457 119.79174805 C146.31108151 120.84211986 151.5478332 122.2028748 156.86279297 124.265625 C157.54672119 124.52625732 158.23064941 124.78688965 158.93530273 125.05541992 C171.18101191 129.83384394 171.18101191 129.83384394 174.80029297 133.453125 C174.84093129 135.11929615 174.84301397 136.78700595 174.80029297 138.453125 C155.95563277 144.453125 155.95563277 144.453125 148.80029297 144.453125 C149.18701172 145.03578125 149.57373047 145.6184375 149.97216797 146.21875 C161.54060299 164.43044474 161.83044279 185.77570857 157.80029297 206.453125 C155.03360232 218.14505329 150.22457498 231.50360366 139.80029297 238.453125 C140.49896484 238.70707031 141.19763672 238.96101562 141.91748047 239.22265625 C142.82755859 239.56683594 143.73763672 239.91101563 144.67529297 240.265625 C145.58021484 240.60207031 146.48513672 240.93851563 147.41748047 241.28515625 C149.80029297 242.453125 149.80029297 242.453125 151.80029297 245.453125 C152.23779297 247.828125 152.23779297 247.828125 151.80029297 250.453125 C148.2656767 254.607618 144.83226079 256.56641571 139.86279297 258.703125 C132.26186769 262.26079535 128.88858488 266.19898256 125.82373047 273.91015625 C122.01989709 285.76602943 122.61353698 298.24048912 123.80029297 310.453125 C124.48019287 310.66928467 125.16009277 310.88544434 125.8605957 311.1081543 C128.98957243 312.10913971 132.11361508 313.12476564 135.23779297 314.140625 C136.84170898 314.65012695 136.84170898 314.65012695 138.47802734 315.16992188 C155.54650953 320.75502155 155.54650953 320.75502155 159.80029297 326.453125 C159.61965942 328.4614563 159.61965942 328.4614563 158.80029297 330.453125 C157.15989685 331.3400116 157.15989685 331.3400116 154.8840332 331.91870117 C153.97104462 332.15873871 153.05805603 332.39877625 152.11740112 332.64608765 C150.47543259 333.04557114 150.47543259 333.04557114 148.80029297 333.453125 C147.49536021 333.78354894 146.19069944 334.11504824 144.88626099 334.44741821 C140.08449747 335.66112038 135.27262159 336.832292 130.46044922 338.00390625 C128.61801305 338.45445953 126.77562749 338.90521983 124.93328857 339.35617065 C119.95216641 340.5745982 114.97020573 341.78956314 109.98804092 343.00371933 C106.84351555 343.77032465 103.69922891 344.53790138 100.55502319 345.30581665 C66.18674925 353.69963106 31.80778861 362.04958587 -2.58520508 370.34155273 C-3.50799979 370.56403655 -4.43079451 370.78652037 -5.3815527 371.01574612 C-9.09954458 371.91209899 -12.81754112 372.80843239 -16.53560448 373.70448875 C-29.07419522 376.72667159 -41.60831388 379.76671479 -54.13887024 382.82203674 C-60.9516216 384.48309151 -67.76565644 386.13885083 -74.58003139 387.79323101 C-79.1917161 388.91322115 -83.80265928 390.03608519 -88.41195679 391.16586304 C-92.6711371 392.20982067 -96.93203946 393.24642202 -101.19437981 394.27739906 C-102.74930926 394.65494497 -104.30357025 395.03525657 -105.85708809 395.41856956 C-107.9796615 395.9419096 -110.10441664 396.45527201 -112.22998047 396.96630859 C-113.41444763 397.25524994 -114.59891479 397.54419128 -115.8192749 397.84188843 C-122.18297712 398.99254828 -127.06930692 398.45472666 -133.17749023 396.41210938 C-133.84055963 396.19362241 -134.50362902 395.97513544 -135.18679142 395.75002766 C-137.37805613 395.02536629 -139.5641097 394.28613411 -141.75048828 393.546875 C-143.3066934 393.02935527 -144.86322992 392.51283114 -146.42007446 391.99723816 C-149.73073272 390.89883526 -153.03924166 389.79427044 -156.34616089 388.68466187 C-161.5530371 386.93779509 -166.76456126 385.20512873 -171.97729492 383.47583008 C-172.84273013 383.18869927 -173.70816534 382.90156847 -174.59982586 382.60573673 C-176.34385144 382.02714177 -178.08789253 381.44859354 -179.83194923 380.87009239 C-182.44205178 380.00385406 -185.05172041 379.13631927 -187.66130066 378.26850891 C-200.16527338 374.11253536 -212.69359769 370.0418824 -225.25308228 366.05633545 C-231.05368338 364.21464291 -236.8497332 362.35866672 -242.64671326 360.50561523 C-243.64211624 360.1874585 -244.63751923 359.86930176 -245.66308594 359.54150391 C-246.70144592 359.20959045 -247.73980591 358.877677 -248.80963135 358.53570557 C-251.21523056 357.76750592 -253.62108298 357.00013904 -256.02728271 356.23382568 C-263.71639812 353.78459265 -271.40190191 351.32469069 -279.08032894 348.8421278 C-282.51594229 347.7317268 -285.95303683 346.62662712 -289.39474487 345.5352478 C-293.21294249 344.32431596 -297.02280749 343.08893303 -300.83251953 341.8515625 C-302.53362129 341.31809456 -302.53362129 341.31809456 -304.26908875 340.77384949 C-316.38927046 336.78860682 -324.16002291 329.97405767 -330.38720703 318.828125 C-336.11520605 306.58205814 -337.39396727 293.13599303 -337.44970703 279.828125 C-337.47033203 278.62027344 -337.49095703 277.41242188 -337.51220703 276.16796875 C-337.57163945 262.36479065 -334.67495247 248.98117549 -325.19970703 238.453125 C-329.15970703 237.133125 -333.11970703 235.813125 -337.19970703 234.453125 C-337.19970703 229.453125 -337.19970703 229.453125 -335.64624023 227.80615234 C-329.49220969 223.92662972 -323.28385865 221.35486163 -316.38720703 219.078125 C-315.36433594 218.72363281 -314.34146484 218.36914062 -313.28759766 218.00390625 C-309.00951722 216.55266482 -305.75878485 215.453125 -301.19970703 215.453125 C-299.64241651 190.18376385 -299.64241651 190.18376385 -309.71142578 167.8515625 C-311.76821217 165.91893907 -313.64188341 164.67390445 -316.19970703 163.453125 C-317.91064915 162.62516105 -319.61873293 161.79127749 -321.32470703 160.953125 C-322.59701172 160.34984375 -322.59701172 160.34984375 -323.89501953 159.734375 C-326.79716112 158.12098103 -328.66455577 156.59987771 -330.07470703 153.578125 C-330.27350335 150.19858761 -329.38488706 149.06984866 -327.19970703 146.453125 C-323.75356142 144.80444036 -320.1667468 143.73336857 -316.51220703 142.640625 C-315.03010742 142.17366211 -315.03010742 142.17366211 -313.51806641 141.69726562 C-311.08322293 140.93270125 -308.64439254 140.18548307 -306.19970703 139.453125 C-306.79392456 138.69346436 -306.79392456 138.69346436 -307.40014648 137.91845703 C-315.24353088 127.71188665 -319.12176841 117.1223478 -321.19970703 104.453125 C-321.39693359 103.32197266 -321.39693359 103.32197266 -321.59814453 102.16796875 C-324.14830728 84.28236787 -322.8723111 64.53128075 -312.19970703 49.453125 C-304.70647695 40.90701405 -295.82367761 37.24436468 -284.74203491 35.80137634 C-283.83944765 35.67275196 -282.93686039 35.54412757 -282.00692201 35.41160548 C-279.02380598 34.98958999 -276.03845263 34.58650621 -273.05273438 34.18334961 C-270.91260508 33.88429582 -268.77265166 33.58398115 -266.632864 33.28249264 C-262.11564072 32.64819172 -257.5974425 32.02161528 -253.07830048 31.40113449 C-246.4113383 30.48481823 -239.74771829 29.54592246 -233.08477783 28.6008606 C-219.24266833 26.63990212 -205.39723196 24.70307205 -191.55126953 22.76953125 C-189.04521934 22.41941719 -186.53917052 22.06929334 -184.03312302 21.71916008 C-172.9648877 20.17298653 -161.89649591 18.62794042 -150.82781746 17.08494228 C-148.83898687 16.80769198 -146.85015705 16.53043609 -144.86132812 16.25317383 C-144.20325391 16.16143267 -143.54517969 16.0696915 -142.86716382 15.97517031 C-132.09662682 14.47350427 -121.32690572 12.96606422 -110.55748673 11.45640338 C-99.39436786 9.89165165 -88.23052226 8.33216819 -77.06599557 6.77748722 C-70.83849973 5.91016415 -64.61133531 5.04061012 -58.38493729 4.1654377 C-52.56579009 3.34762622 -46.745776 2.53629407 -40.92503357 1.72991753 C-38.79705829 1.43398204 -36.66940454 1.13572344 -34.54211044 0.83493042 C-31.63256332 0.42389395 -28.72195695 0.02136578 -25.8109436 -0.37913513 C-24.97789566 -0.49887064 -24.14484771 -0.61860615 -23.28655589 -0.74197 C-15.42899799 -1.80572481 -7.65538567 -2.39201259 0 0 Z M-299.19970703 63.453125 C-307.77121931 76.72997793 -306.2613188 93.63214074 -303.19970703 108.453125 C-301.3897781 115.30997114 -298.97461743 121.97908915 -293.19970703 126.453125 C-288.51176969 128.6118345 -283.90797234 130.22018329 -278.92285156 131.60009766 C-278.22419794 131.79496262 -277.52554432 131.98982758 -276.80571938 132.19059753 C-274.4825614 132.83736229 -272.15755728 133.47721635 -269.83251953 134.1171875 C-268.15630521 134.58257794 -266.48022217 135.0484414 -264.80426025 135.51473999 C-260.25991121 136.77792007 -255.71399607 138.03537488 -251.16777802 139.29180908 C-243.44423135 141.42793151 -235.72366883 143.57484008 -228.00256729 145.71977997 C-225.9888184 146.27909546 -223.97501116 146.83820092 -221.96114731 147.39710236 C-207.29094554 151.4685172 -192.63115306 155.57553296 -177.97990799 159.71464157 C-174.86763838 160.59384854 -171.7551817 161.47239018 -168.64266968 162.35073853 C-152.19781077 166.99211151 -152.19781077 166.99211151 -144.63580322 169.13702393 C-139.97059755 170.46025749 -135.30408145 171.77876414 -130.63655853 173.09379959 C-128.91945423 173.57859583 -127.20287346 174.06525069 -125.48685455 174.55387497 C-123.14554594 175.22036868 -120.80252901 175.88048191 -118.45898438 176.5390625 C-117.7760689 176.73517939 -117.09315342 176.93129627 -116.38954353 177.13335609 C-113.14413323 178.03820164 -110.61143369 178.453125 -107.19970703 178.453125 C-106.91200612 171.51557833 -106.62752679 164.57790475 -106.34521484 157.64013672 C-106.24893977 155.28333595 -106.15194572 152.92656442 -106.05419922 150.56982422 C-105.91327799 147.16902103 -105.77500109 143.76811866 -105.63720703 140.3671875 C-105.59345947 139.32511139 -105.54971191 138.28303528 -105.50463867 137.2093811 C-105.25420224 130.95319433 -105.1452582 124.71420098 -105.19970703 118.453125 C-147.87641018 104.1289372 -190.65988781 90.10753313 -233.48657227 76.23828125 C-235.14227807 75.70190151 -236.79795874 75.16544418 -238.45361328 74.62890625 C-239.25425705 74.36945221 -240.05490082 74.10999817 -240.87980652 73.84268188 C-245.95851714 72.19275552 -251.02689906 70.51398815 -256.08998108 68.81672668 C-259.51899367 67.6683786 -262.95117977 66.52969763 -266.38369751 65.39187622 C-267.9829689 64.85873244 -269.58067893 64.32087659 -271.17660522 63.77780151 C-285.95966275 57.89405694 -285.95966275 57.89405694 -299.19970703 63.453125 Z M125.94416809 73.39498901 C124.91458481 73.60453563 123.88500153 73.81408224 122.82421875 74.02997875 C121.68686279 74.26355744 120.54950684 74.49713614 119.37768555 74.73779297 C118.17931564 74.98231107 116.98094574 75.22682917 115.7462616 75.4787569 C112.4276055 76.15634395 109.10932158 76.83570455 105.79118943 77.51584983 C102.25801886 78.23965733 98.72439938 78.96126707 95.19084167 79.68318176 C87.57321253 81.2399458 79.95619412 82.79968345 72.33929443 84.36001205 C67.63377399 85.32391517 62.92810728 86.28710288 58.22241211 87.25015259 C38.86286272 91.21238371 19.50435517 95.17967861 0.14669931 99.15115005 C-4.55467438 100.11569376 -9.25610959 101.07993693 -13.95758057 102.04400635 C-26.85033589 104.68799401 -39.74222428 107.33611992 -52.63223267 109.99346924 C-56.34022656 110.75784743 -60.04855278 111.52058131 -63.75717163 112.28192139 C-68.02657202 113.15854796 -72.2952067 114.03880219 -76.56320763 114.92221642 C-78.09254181 115.23816966 -79.62213916 115.55285217 -81.15201759 115.86615944 C-83.19339998 116.28445506 -85.23377094 116.70735626 -87.27392578 117.1315918 C-88.40403076 117.36468552 -89.53413574 117.59777924 -90.69848633 117.8379364 C-93.12503123 118.20586275 -93.12503123 118.20586275 -94.19970703 119.453125 C-94.98857059 124.02342362 -95.36480637 128.51320964 -95.51611328 133.14453125 C-95.55800781 134.42134766 -95.59990234 135.69816406 -95.64306641 137.01367188 C-95.66264404 137.67488037 -95.68222168 138.33608887 -95.70239258 139.01733398 C-95.76051185 140.95899203 -95.8266686 142.90040429 -95.89306641 144.84179688 C-96.14539325 152.89622979 -96.22387496 160.93800357 -96.21118164 168.99584961 C-96.21035332 170.00596855 -96.20952499 171.01608749 -96.20867157 172.0568161 C-96.20652957 174.52225456 -96.20352426 176.98768866 -96.19970703 179.453125 C-62.76622283 171.25221907 -29.34241579 163.01395913 4.05419922 154.6640625 C4.77945785 154.48273175 5.50471648 154.301401 6.25195265 154.11457539 C15.0673684 151.91031705 23.8822794 149.70404426 32.69698751 147.49695802 C40.21938973 145.61349911 47.74215135 143.73147753 55.26493561 141.84954524 C67.05110766 138.90104905 78.83706898 135.95171251 90.62280273 133.00146484 C103.34798088 129.816076 116.07390955 126.63369489 128.80029297 123.453125 C128.73046204 122.78762634 128.6606311 122.12212769 128.58868408 121.4364624 C128.49770447 120.55218567 128.40672485 119.66790894 128.31298828 118.75683594 C128.22253235 117.88508728 128.13207642 117.01333862 128.03887939 116.11517334 C126.91759549 103.60435279 127.42787537 91.57737754 130.80029297 79.453125 C131.01298828 78.65777344 131.22568359 77.86242187 131.44482422 77.04296875 C131.86973828 75.5053301 132.32859775 73.97706338 132.80029297 72.453125 C130.40341327 72.453125 128.29596222 72.91408774 125.94416809 73.39498901 Z M109.43310547 159.5546875 C108.1295444 159.9882775 106.82557346 160.42063695 105.52122498 160.85185242 C102.75484226 161.76914817 99.9913836 162.69459328 97.23001099 163.62686157 C92.88010849 165.09539421 88.52425333 166.54565436 84.16723633 167.99291992 C79.06884833 169.68762022 73.97177385 171.38614416 68.87663937 173.09060192 C58.89334688 176.42985729 48.89077586 179.70745606 38.87606812 182.95129395 C34.67776688 184.3115935 30.48134406 185.67766554 26.28466797 187.04296875 C25.45384201 187.31311798 24.62301605 187.58326721 23.76701355 187.86160278 C13.60981027 191.16441312 3.45506305 194.47475021 -6.69876099 197.78793335 C-8.77066594 198.46386708 -10.84266201 199.13952163 -12.9147644 199.81484985 C-27.69709277 204.6328132 -42.45548736 209.51977161 -57.19970703 214.453125 C-57.07928048 219.94434335 -56.95495924 225.43545655 -56.82739258 230.92651367 C-56.7847171 232.78521474 -56.74301278 234.64393842 -56.70239258 236.50268555 C-56.42472752 249.16901127 -55.94123617 261.80527651 -55.19970703 274.453125 C-50.52436114 273.859903 -46.10238697 272.98616697 -41.56542969 271.71679688 C-40.93501707 271.54171695 -40.30460445 271.36663702 -39.65508842 271.18625164 C-37.55678275 270.60233413 -35.4603032 270.01212042 -33.36376953 269.421875 C-31.84527772 268.99786399 -30.32667929 268.57423466 -28.8079834 268.1509552 C-24.6758822 266.99803074 -20.54536314 265.83953043 -16.41513824 264.67990494 C-12.06142779 263.45841355 -7.70640068 262.24163328 -3.3515625 261.02416992 C5.06571734 258.67005597 13.48153425 256.31075071 21.89691353 253.94985294 C28.96424313 251.96739612 36.0324378 249.98804574 43.10107422 248.01025391 C54.30547622 244.87524273 65.50887722 241.73667268 76.71173859 238.59616089 C79.67006099 237.76709126 82.62855957 236.9386529 85.58709717 236.11035156 C90.26298157 234.80105153 94.93821165 233.48943946 99.61296082 232.17609215 C101.3322596 231.69342685 103.05176648 231.21150207 104.77149963 230.73038673 C122.72098562 227.02416875 122.72098562 227.02416875 136.20654297 216.1875 C138.88738293 211.10637309 140.83400526 206.11602043 141.80029297 200.453125 C141.91115234 199.8034375 142.02201172 199.15375 142.13623047 198.484375 C143.81282291 186.34040811 144.57368151 171.71292747 137.86279297 160.890625 C134.53017646 156.95207822 133.31448603 155.58297953 127.99121094 155.12646484 C121.44804495 155.22364624 115.5709351 157.46208107 109.43310547 159.5546875 Z M-295.19970703 168.453125 C-294.92255859 169.38253906 -294.64541016 170.31195313 -294.35986328 171.26953125 C-293.99763672 172.50574219 -293.63541016 173.74195313 -293.26220703 175.015625 C-292.90255859 176.23378906 -292.54291016 177.45195312 -292.17236328 178.70703125 C-290.6070922 184.73552509 -290.07536182 190.48069067 -290.10205078 196.69921875 C-290.10346573 197.35519547 -290.10488068 198.01117218 -290.1063385 198.68702698 C-290.11187672 200.75494202 -290.12441701 202.82274342 -290.13720703 204.890625 C-290.14223004 206.30403488 -290.14679154 207.71744648 -290.15087891 209.13085938 C-290.16182577 212.57165068 -290.17904665 216.01237672 -290.19970703 219.453125 C-235.43273748 233.39849368 -180.62043653 247.16076671 -125.77919006 260.81104279 C-123.3076292 261.42626113 -120.83612196 262.04169445 -118.36462402 262.65716553 C-110.35311675 264.65183833 -102.34034051 266.64119173 -94.32476807 268.61947632 C-92.10153845 269.1686197 -89.87866868 269.71922229 -87.65618896 270.27139282 C-84.70825744 271.00321157 -81.75895292 271.72916995 -78.80908203 272.453125 C-77.97553192 272.66120285 -77.14198181 272.8692807 -76.28317261 273.08366394 C-72.79059842 273.9340118 -69.81731196 274.453125 -66.19970703 274.453125 C-66.07165786 261.81894003 -66.2585669 249.20594454 -66.63720703 236.578125 C-66.65685516 235.87985596 -66.6765033 235.18158691 -66.69674683 234.4621582 C-66.75450285 232.44078658 -66.81880859 230.41960542 -66.88330078 228.3984375 C-66.9199585 227.22812988 -66.95661621 226.05782227 -66.99438477 224.85205078 C-67.20638298 221.34261063 -67.68456837 217.92945175 -68.19970703 214.453125 C-69.29514832 214.230802 -70.3905896 214.008479 -71.51922607 213.77941895 C-84.79226412 211.08525486 -98.06459872 208.38763619 -111.33653641 205.68805695 C-113.73676169 205.19984246 -116.13699711 204.71167784 -118.53724289 204.22356415 C-148.05299277 198.22086257 -177.56176166 192.18650201 -207.05441809 186.07137585 C-209.08439099 185.65047925 -211.11438456 185.2296825 -213.14438248 184.80890656 C-226.22645026 182.09710338 -239.30776346 179.38170282 -252.38732624 176.65783882 C-257.22934117 175.64999196 -262.07182245 174.64439916 -266.91440392 173.63927841 C-269.17250062 173.16996774 -271.43036956 172.69955966 -273.68799782 172.22800064 C-276.76630614 171.58505045 -279.84533515 170.94567012 -282.92456055 170.30712891 C-283.82902294 170.11722633 -284.73348534 169.92732376 -285.66535568 169.73166656 C-286.48920887 169.56156822 -287.31306206 169.39146988 -288.16188049 169.21621704 C-288.8742666 169.0678068 -289.5866527 168.91939655 -290.32062626 168.76648903 C-292.37539106 168.37087854 -292.37539106 168.37087854 -295.19970703 168.453125 Z M-314.19970703 254.453125 C-322.53299469 266.59591559 -321.98378867 284.02340321 -319.51220703 298.07421875 C-317.79201709 305.19150462 -315.52015303 311.28290336 -310.19970703 316.453125 C-309.27665771 317.38415039 -309.27665771 317.38415039 -308.33496094 318.33398438 C-303.69925465 321.46729154 -298.74897247 322.55288569 -293.37548828 323.97265625 C-291.51058801 324.48216206 -289.64568906 324.9916727 -287.7808342 325.50134468 C-285.76409602 326.05005828 -283.74582741 326.59277045 -281.72702026 327.13381958 C-277.44764082 328.28107483 -273.17298194 329.44523463 -268.89916992 330.61303711 C-267.40550249 331.02107302 -265.91183489 331.42910829 -264.41816711 331.83714294 C-263.66404352 332.0431909 -262.90991993 332.24923885 -262.13294411 332.46153069 C-259.78537161 333.10235491 -257.43737121 333.7415907 -255.08927917 334.38050842 C-236.62662894 339.40788697 -218.20773026 344.5908413 -199.78738022 349.77062607 C-195.48479389 350.98014031 -191.18171327 352.18789273 -186.87866211 353.39575195 C-185.21276067 353.86348999 -183.546862 354.33123791 -181.88096619 354.79899597 C-178.64853372 355.70659413 -175.41598292 356.61376927 -172.18336487 357.52070618 C-165.15015468 359.49475891 -158.11835454 361.47334778 -151.09243298 363.47321033 C-148.08881125 364.32801116 -145.08444773 365.18018813 -142.08004951 366.03225517 C-140.67642155 366.43125231 -139.27319691 366.83167138 -137.8704052 367.23359871 C-135.95584851 367.78214854 -134.03984992 368.32565843 -132.1237793 368.86889648 C-131.04669205 369.17633286 -129.9696048 369.48376923 -128.85987854 369.80052185 C-126.17061477 370.5722544 -126.17061477 370.5722544 -123.19970703 370.453125 C-122.32128036 366.61475323 -122.01204561 362.96014468 -121.88330078 359.02734375 C-121.84132568 357.76607666 -121.79935059 356.50480957 -121.75610352 355.20532227 C-121.71612144 353.85043346 -121.67649639 352.49553407 -121.63720703 351.140625 C-121.60543869 350.11640945 -121.60543869 350.11640945 -121.57302856 349.07150269 C-121.17532705 336.19768063 -121.08756637 323.33279428 -121.19970703 310.453125 C-126.65026797 308.37892954 -132.12304948 306.42947892 -137.65673828 304.58984375 C-138.45976379 304.32171371 -139.26278931 304.05358368 -140.09014893 303.77732849 C-142.7302372 302.89662164 -145.37115587 302.01843983 -148.01220703 301.140625 C-148.93363495 300.83388855 -149.85506287 300.5271521 -150.80441284 300.21112061 C-169.08526868 294.12683872 -187.40161678 288.15389534 -205.72727966 282.20622253 C-214.75108184 279.27647472 -223.76949473 276.33030637 -232.78735352 273.38232422 C-236.94881265 272.02206977 -241.11109952 270.66439698 -245.27416992 269.30908203 C-254.03932834 266.45435986 -262.80226612 263.59535228 -271.54275513 260.665802 C-274.96267966 259.52055282 -278.3857067 258.38476269 -281.80914307 257.25006104 C-283.37893459 256.72674376 -284.94715699 256.19869115 -286.51361084 255.66546631 C-300.7407315 250.1316369 -300.7407315 250.1316369 -314.19970703 254.453125 Z M108.57392883 265.45123291 C106.94904541 265.78333519 106.94904541 265.78333519 105.29133606 266.12214661 C104.10231186 266.36833237 102.91328766 266.61451813 101.68823242 266.86816406 C99.80954971 267.25354591 99.80954971 267.25354591 97.89291382 267.64671326 C94.45146369 268.35283644 91.01080269 269.06273624 87.57030511 269.77348423 C84.68893958 270.36835374 81.80718956 270.96134839 78.92543572 271.55433345 C72.11095523 272.95657971 65.29709981 274.36183377 58.48364258 275.76904297 C51.49043982 277.21333122 44.49631333 278.65307623 37.50168258 280.09043145 C31.47627976 281.32876087 25.451432 282.56976466 19.42701501 283.81288123 C15.83861675 284.55332183 12.25003967 285.2928616 8.66094398 286.02991486 C-18.53929894 291.386968 -18.53929894 291.386968 -44.99658203 299.515625 C-49.63669914 301.10005523 -53.48532448 301.52656077 -58.39111328 301.34765625 C-67.70767085 301.15539387 -76.51212284 303.24834191 -85.57250977 305.2434082 C-88.54883512 305.8986892 -91.52891086 306.53399331 -94.51025391 307.16601562 C-96.40307293 307.57179457 -98.29566061 307.97865455 -100.18798828 308.38671875 C-101.07948074 308.57842148 -101.97097321 308.77012421 -102.88948059 308.96763611 C-106.86735037 309.53778377 -106.86735037 309.53778377 -110.19970703 311.453125 C-110.35185642 313.04088912 -110.43786273 314.63505671 -110.49682617 316.22900391 C-110.53679214 317.24741364 -110.57675812 318.26582336 -110.61793518 319.31509399 C-110.65652145 320.42540985 -110.69510773 321.53572571 -110.73486328 322.6796875 C-110.77784042 323.81586517 -110.82081757 324.95204285 -110.86509705 326.12265015 C-110.95550542 328.53529759 -111.04361571 330.94803206 -111.12963867 333.36083984 C-111.26090202 337.04153185 -111.3985886 340.72193694 -111.53759766 344.40234375 C-111.6245649 346.74477764 -111.71116511 349.08722519 -111.79736328 351.4296875 C-111.83797379 352.52785797 -111.87858429 353.62602844 -111.92042542 354.75747681 C-112.10623601 359.99316241 -112.24763877 365.21413979 -112.19970703 370.453125 C-106.91446469 369.86710861 -101.89353379 369.00394494 -96.72216797 367.72021484 C-96.01055165 367.54489448 -95.29893534 367.36957411 -94.56575489 367.188941 C-92.18740827 366.60175018 -89.81077013 366.00792772 -87.43408203 365.4140625 C-85.69873655 364.98401662 -83.96329553 364.55435613 -82.22776794 364.12504578 C-77.46697833 362.94604158 -72.70769254 361.7610666 -67.94866562 360.57497025 C-63.92946525 359.57404923 -59.90940718 358.57659813 -55.88934231 357.57915592 C0.36146073 343.62155686 56.57966785 329.53169552 112.80029297 315.453125 C112.78981934 314.47880524 112.7793457 313.50448547 112.76855469 312.50064087 C112.73197043 308.83726775 112.70925478 305.1739103 112.69042969 301.51040649 C112.68045868 299.93392204 112.66687698 298.35745565 112.64941406 296.78103638 C112.52798124 285.52573207 113.07751453 275.18935212 116.80029297 264.453125 C113.86068817 264.453125 111.4474303 264.86002778 108.57392883 265.45123291 Z " fill="#000000" transform="translate(337.19970703125,57.546875)"/>
</svg>
