<?xml version="1.0" encoding="UTF-8"?>
<svg version="1.1" xmlns="http://www.w3.org/2000/svg" width="181" height="198">
<path d="M0 0 C14.40350095 13.45491683 22.92260621 32.43397618 23.84375 52.01171875 C24.50095838 73.36977851 17.70306024 92.79502809 3.0859375 108.5078125 C-0.90089102 112.51999446 -5.09292772 116.28284717 -9.37109375 119.98046875 C-10.03109375 119.65046875 -10.69109375 119.32046875 -11.37109375 118.98046875 C-10.9121875 118.31402344 -10.45328125 117.64757812 -9.98046875 116.9609375 C-0.67812478 102.9878788 3.15396813 87.93513404 -0.08984375 71.29296875 C-2.01558657 64.70817072 -4.59478006 58.70858501 -8.37109375 52.98046875 C-8.850625 52.243125 -9.33015625 51.50578125 -9.82421875 50.74609375 C-17.59946257 39.80036215 -30.06538943 31.44448807 -43.37109375 28.98046875 C-51.53716626 28.49125703 -58.95289658 28.20393201 -66.37109375 31.98046875 C-67.40234375 32.49609375 -68.43359375 33.01171875 -69.49609375 33.54296875 C-75.42379481 38.56862834 -79.673821 46.16211261 -80.37109375 53.98046875 C-80.45187714 61.07786617 -78.61984974 66.72472465 -75.37109375 72.98046875 C-85.87520219 69.47277911 -93.50760229 59.53564354 -98.37109375 49.98046875 C-103.89690056 38.48481708 -104.14424267 25.11132664 -100.74609375 12.91796875 C-98.74669698 7.30835378 -96.00966654 2.66954811 -92.37109375 -2.01953125 C-91.62859375 -3.05078125 -90.88609375 -4.08203125 -90.12109375 -5.14453125 C-64.78664827 -31.63054243 -24.94750195 -21.24853131 0 0 Z " fill="#020202" transform="translate(145.37109375,42.01953125)"/>
<path d="M0 0 C0.66 0.33 1.32 0.66 2 1 C1.62488281 1.44988281 1.24976563 1.89976563 0.86328125 2.36328125 C-9.07569359 14.85584661 -12.08590268 28.25441111 -11 44 C-8.90554827 59.13717384 -0.75806953 72.01087868 11.25 81.1875 C22.19584959 88.81960609 34.17155108 93.62507183 47.62890625 91.60546875 C55.05340204 90.00491681 60.13278535 86.84875274 65 81 C68.82043361 74.54441967 70.92891101 67.5277983 70 60 C68.85680597 55.92643526 67.47939952 51.96267729 66 48 C77.89094837 52.24082774 84.82396338 63.57969088 90.1953125 74.41015625 C94.92023909 86.68120345 93.50793821 100.49737969 88.58984375 112.41796875 C81.50294179 126.70905 71.2900891 134.4092297 56.66796875 139.87109375 C39.27071611 144.69442383 19.95448438 139.5352803 4.59765625 131.140625 C-0.3817213 128.26394135 -4.76099124 124.87873134 -9 121 C-10.02287109 120.11441406 -10.02287109 120.11441406 -11.06640625 119.2109375 C-25.72733409 105.72632676 -32.7775772 86.55827248 -34.21484375 67.08984375 C-34.93091618 45.80817126 -26.57768005 25.56455999 -12.14282227 10.10449219 C-8.42186344 6.25775992 -4.47769826 2.92525846 0 0 Z " fill="#020202" transform="translate(49,34)"/>
<path d="M0 0 C1.94268841 2.91403262 3.46395304 5.85808576 5 9 C0.56541027 7.6062718 -1.87378374 5.39417765 -5 2 C-3.35 1.34 -1.7 0.68 0 0 Z " fill="#161616" transform="translate(65,106)"/>
<path d="M0 0 C0.99 0.33 1.98 0.66 3 1 C1.60667426 4.36720387 0.0210714 5.9859524 -3 8 C-3.66 7.67 -4.32 7.34 -5 7 C-3.35 4.69 -1.7 2.38 0 0 Z " fill="#151515" transform="translate(139,154)"/>
<path d="M0 0 C0.66 0.33 1.32 0.66 2 1 C-0.85276137 3.93200474 -3.65079784 6.64315404 -7 9 C-5.44499019 5.18315774 -2.96404505 2.80804268 0 0 Z " fill="#1A1A1A" transform="translate(41,40)"/>
<path d="" fill="#565656" transform="translate(0,0)"/>
<path d="" fill="#151515" transform="translate(0,0)"/>
<path d="" fill="#444444" transform="translate(0,0)"/>
<path d="" fill="#4F4F4F" transform="translate(0,0)"/>
</svg>
