<?xml version="1.0" encoding="UTF-8"?>
<svg version="1.1" xmlns="http://www.w3.org/2000/svg" width="512" height="512">
<path d="M0 0 C10.8566436 8.8857975 10.8566436 8.8857975 14.87109375 14.16796875 C18.07644435 16.45750489 18.91104159 16.12900838 22.72265625 15.6796875 C41.90499429 13.76059183 61.87796862 13.63530053 80.49609375 19.04296875 C81.22393066 19.25195801 81.95176758 19.46094727 82.70166016 19.67626953 C102.96722913 25.7111869 120.17853524 36.5749975 135.49609375 51.04296875 C136.60404297 52.05423828 136.60404297 52.05423828 137.734375 53.0859375 C157.03368156 71.35686183 169.20062762 97.0058356 173.49609375 123.04296875 C173.67785156 124.04457031 173.85960937 125.04617187 174.046875 126.078125 C176.20978793 145.1681826 174.61010645 163.80451812 169.625 182.26953125 C169.22667762 185.13675577 169.22667762 185.13675577 171.05078125 187.5078125 C171.81648438 188.32378906 172.5821875 189.13976562 173.37109375 189.98046875 C187.0540963 205.70317355 194.7702819 224.94362229 199.49609375 245.04296875 C199.74359375 246.07035156 199.99109375 247.09773438 200.24609375 248.15625 C206.67360289 281.14186983 198.238651 315.92766926 180.12109375 343.75 C161.57855229 371.21169121 133.86263783 390.53640327 101.49609375 398.04296875 C100.50609375 398.04296875 99.51609375 398.04296875 98.49609375 398.04296875 C98.39296875 398.71585937 98.28984375 399.38875 98.18359375 400.08203125 C93.94851815 418.32173186 81.93990731 434.56291837 69.49609375 448.04296875 C68.80773437 448.80222656 68.119375 449.56148438 67.41015625 450.34375 C47.56478453 471.23581854 16.81159636 485.76512015 -12.01049805 487.2199707 C-51.14691552 487.86944117 -83.73943207 480.08521264 -113.484375 453.03125 C-115.50390625 451.04296875 -115.50390625 451.04296875 -117.87890625 447.91796875 C-121.08425685 445.62843261 -121.91885409 445.95692912 -125.73046875 446.40625 C-144.91280679 448.32534567 -164.88578112 448.45063697 -183.50390625 443.04296875 C-184.23174316 442.83397949 -184.95958008 442.62499023 -185.70947266 442.40966797 C-205.97504163 436.3747506 -223.18634774 425.51094 -238.50390625 411.04296875 C-239.24253906 410.36878906 -239.98117188 409.69460938 -240.7421875 409 C-258.00009963 392.66169242 -268.10411404 371.61811016 -274.50390625 349.04296875 C-275.04724609 347.14417969 -275.04724609 347.14417969 -275.6015625 345.20703125 C-280.59316113 323.80119896 -278.30824684 300.8168745 -272.6328125 279.8203125 C-272.23417482 276.94973032 -272.23417482 276.94973032 -274.05859375 274.578125 C-274.82429688 273.76214844 -275.59 272.94617188 -276.37890625 272.10546875 C-290.0619088 256.38276395 -297.7780944 237.14231521 -302.50390625 217.04296875 C-302.75140625 216.01558594 -302.99890625 214.98820313 -303.25390625 213.9296875 C-309.68141539 180.94406767 -301.2464635 146.15826824 -283.12890625 118.3359375 C-264.41086126 90.62355633 -236.88712718 71.92094963 -204.50390625 64.04296875 C-203.51390625 64.04296875 -202.52390625 64.04296875 -201.50390625 64.04296875 C-201.38015625 63.32753906 -201.25640625 62.61210938 -201.12890625 61.875 C-195.17275372 34.88618384 -172.23344742 9.29321886 -149.60791016 -5.16894531 C-103.82474035 -33.2571995 -43.30384043 -33.02165001 0 0 Z M-140.50390625 32.04296875 C-141.23996094 32.62304688 -141.97601563 33.203125 -142.734375 33.80078125 C-159.41486854 47.44040606 -170.35968362 69.65905471 -173.28132248 90.81804466 C-173.77604204 95.76320963 -173.79027874 100.73863983 -173.88720703 105.7043457 C-173.91466003 106.96702271 -173.94211304 108.22969971 -173.97039795 109.53063965 C-174.21473445 121.13271315 -174.35524847 132.73657368 -174.46684456 144.34060383 C-174.54349703 152.13002159 -174.65237818 159.91628155 -174.84130859 167.70385742 C-175.00657583 174.51713363 -175.11142428 181.32820834 -175.144081 188.14345902 C-175.16330401 191.7445541 -175.21143977 195.33970872 -175.33188248 198.93895912 C-176.47116724 213.28524722 -176.47116724 213.28524722 -171.86285973 226.19165802 C-167.89868129 229.61983659 -163.54170906 231.56294659 -158.62269783 233.25277901 C-155.36309058 234.46842864 -152.60817977 236.23610143 -149.6640625 238.08203125 C-147.63164429 239.27757137 -145.59909568 240.47288983 -143.56640625 241.66796875 C-142.51517578 242.29058594 -141.46394531 242.91320312 -140.38085938 243.5546875 C-138.88135742 244.43447266 -138.88135742 244.43447266 -137.3515625 245.33203125 C-136.46476807 245.85490723 -135.57797363 246.3777832 -134.66430664 246.91650391 C-132.61441245 248.19708207 -132.61441245 248.19708207 -130.50390625 248.04296875 C-130.50243969 247.28574713 -130.50097313 246.52852551 -130.49946213 245.74835777 C-130.46240376 227.31993547 -130.40340196 208.89170288 -130.32000351 190.4634304 C-130.28020118 181.55162633 -130.24781477 172.63991071 -130.23291016 163.72802734 C-130.21989981 155.96004256 -130.192951 148.19225231 -130.14929318 140.42437708 C-130.12666437 136.31164252 -130.11099641 132.19914802 -130.1120224 128.08634567 C-130.11276819 124.21368383 -130.09485078 120.34155294 -130.06273842 116.46902847 C-130.05423324 115.04929781 -130.05249374 113.62950763 -130.05810356 112.20976257 C-130.10362212 98.91729352 -130.10362212 98.91729352 -125.50390625 94.04296875 C-123.56420898 92.38842773 -123.56420898 92.38842773 -121.5 91.1015625 C-120.70964355 90.6051123 -119.91928711 90.10866211 -119.10498047 89.59716797 C-114.2857212 86.71755425 -109.44263527 83.88766604 -104.56640625 81.10546875 C-102.83656065 80.11304737 -101.10671782 79.1206211 -99.37704468 78.12789917 C-97.59450753 77.10532784 -95.81122428 76.08406741 -94.02783203 75.06298828 C-88.51200894 71.90326996 -83.00861412 68.72199718 -77.50390625 65.54296875 C-70.93697881 61.75189607 -64.36838631 57.96383197 -57.79296875 54.1875 C-44.61117169 46.61099268 -31.50293099 38.92934105 -18.50390625 31.04296875 C-31.02557258 17.56169809 -52.64875938 9.95554608 -70.69262695 8.91699219 C-96.73371766 8.0593596 -120.49910194 14.76150755 -140.50390625 32.04296875 Z M-14.50390625 68.04296875 C-16.33449387 69.10831618 -18.16522905 70.17341007 -19.99609375 71.23828125 C-22.97133748 72.97133568 -25.94512272 74.70676181 -28.91601562 76.44726562 C-36.74767626 81.03417044 -44.61793779 85.55045407 -52.50390625 90.04296875 C-68.2310493 99.00708069 -83.90424511 108.06510946 -99.44140625 117.35546875 C-100.05669189 117.722771 -100.67197754 118.09007324 -101.3059082 118.46850586 C-104.06043794 120.04700619 -104.06043794 120.04700619 -106.50390625 122.04296875 C-106.59710074 123.57779845 -106.62136425 125.11688957 -106.61743164 126.65454102 C-106.61735611 127.63548233 -106.61728058 128.61642365 -106.61720276 129.62709045 C-106.61204147 130.69374435 -106.60688019 131.76039825 -106.6015625 132.859375 C-106.60014755 133.94556625 -106.5987326 135.03175751 -106.59727478 136.15086365 C-106.59165673 139.6357595 -106.57910117 143.12059217 -106.56640625 146.60546875 C-106.56139358 148.96158762 -106.55683027 151.31770749 -106.55273438 153.67382812 C-106.54168144 159.46356339 -106.52492576 165.25326156 -106.50390625 171.04296875 C-99.24052848 167.10256229 -92.00963642 163.11000571 -84.81640625 159.04296875 C-83.82874268 158.48464355 -82.8410791 157.92631836 -81.82348633 157.35107422 C-73.74228029 152.7698743 -65.71133563 148.10583571 -57.6940918 143.41381836 C-47.10052782 137.21439405 -36.46605328 131.08673295 -25.83007812 124.96044922 C-21.29678695 122.34708538 -16.76715748 119.727406 -12.23754883 117.10766602 C-8.96321847 115.21666109 -5.68503932 113.33247887 -2.40625 111.44921875 C1.20331923 109.37439515 4.79534909 107.27577736 8.3671875 105.13671875 C9.0876123 104.71245605 9.80803711 104.28819336 10.55029297 103.85107422 C11.82120164 103.10237213 13.08555042 102.34232137 14.34033203 101.56689453 C19.38954255 98.62601737 24.68748287 97.27465158 30.4699707 98.44116211 C36.45771288 100.47978583 41.84824492 103.99678405 47.24609375 107.23046875 C49.38598254 108.49603731 51.5266393 109.76030805 53.66796875 111.0234375 C54.78365234 111.68263184 55.89933594 112.34182617 57.04882812 113.02099609 C62.24902297 116.07113871 67.48625606 119.05524102 72.72631836 122.03610229 C82.09416283 127.36568729 91.43933421 132.73218943 100.74609375 138.16796875 C101.70539795 138.72758301 102.66470215 139.28719727 103.65307617 139.86376953 C108.85225678 142.90059846 114.03994563 145.9558898 119.21875 149.02734375 C120.87245605 150.00356689 120.87245605 150.00356689 122.55957031 150.99951172 C124.68325044 152.25348515 126.80383977 153.51271178 128.92089844 154.77783203 C129.8699707 155.33712402 130.81904297 155.89641602 131.796875 156.47265625 C132.63387939 156.97007324 133.47088379 157.46749023 134.33325195 157.97998047 C136.54316931 159.26351089 136.54316931 159.26351089 139.49609375 159.04296875 C142.58303999 132.63855362 136.53540242 106.56581239 119.93359375 85.48046875 C118.15530418 83.30090101 116.33703807 81.17121196 114.49609375 79.04296875 C113.9134375 78.35847656 113.33078125 77.67398438 112.73046875 76.96875 C97.50263311 60.47192805 73.70305313 50.31712426 51.51757812 48.91821289 C26.48433109 47.97505886 6.82901926 55.54714363 -14.50390625 68.04296875 Z M-237.50390625 119.04296875 C-238.4784375 119.92597656 -239.45296875 120.80898437 -240.45703125 121.71875 C-256.59203207 136.79842768 -268.27179293 158.5653815 -269.6809082 180.84106445 C-270.30804158 210.29134766 -264.54903443 234.5844276 -243.83984375 256.671875 C-236.06893397 264.55973827 -228.08912916 270.5258562 -218.50390625 276.04296875 C-216.60408011 277.14568423 -214.70434891 278.24856327 -212.8046875 279.3515625 C-207.78010523 282.26220029 -202.7479896 285.15951197 -197.71231079 288.05090332 C-191.63757512 291.53914079 -185.57067183 295.04089497 -179.50390625 298.54296875 C-177.34377704 299.78910938 -175.18362072 301.035203 -173.0234375 302.28125 C-167.51279052 305.46037381 -162.00333471 308.64155407 -156.49487305 311.82446289 C-154.31418389 313.08265816 -152.13208087 314.33840652 -149.94848633 315.59155273 C-144.72897198 318.58843553 -139.53336717 321.61501513 -134.37890625 324.72265625 C-133.41766846 325.29411377 -132.45643066 325.86557129 -131.46606445 326.4543457 C-129.6640684 327.52666416 -127.87032382 328.6130176 -126.08666992 329.71557617 C-125.2897876 330.18584229 -124.49290527 330.6561084 -123.671875 331.140625 C-122.98375732 331.55836182 -122.29563965 331.97609863 -121.58666992 332.40649414 C-117.84615894 333.54956203 -115.14244909 331.37597354 -111.84765625 329.65771484 C-110.90921875 329.13258301 -109.97078125 328.60745117 -109.00390625 328.06640625 C-107.95710693 327.48133301 -106.91030762 326.89625977 -105.83178711 326.29345703 C-104.73358643 325.6745459 -103.63538574 325.05563477 -102.50390625 324.41796875 C-101.3857251 323.79003418 -100.26754395 323.16209961 -99.11547852 322.51513672 C-91.46384861 318.19888973 -83.90322577 313.77971007 -76.50390625 309.04296875 C-78.76604099 306.56806569 -81.05644628 305.01801019 -83.984375 303.3984375 C-84.88841064 302.89393066 -85.79244629 302.38942383 -86.72387695 301.86962891 C-87.70316162 301.32870605 -88.68244629 300.7877832 -89.69140625 300.23046875 C-91.79376537 299.05611249 -93.89530331 297.88028515 -95.99609375 296.703125 C-97.07729492 296.09742676 -98.15849609 295.49172852 -99.27246094 294.86767578 C-104.31720897 292.01904729 -109.31810136 289.09710746 -114.31640625 286.16796875 C-122.65511212 281.28667561 -131.00755366 276.43058417 -139.37890625 271.60546875 C-140.45744873 270.98373779 -141.53599121 270.36200684 -142.6472168 269.72143555 C-145.93251401 267.82815123 -149.21814614 265.93544958 -152.50390625 264.04296875 C-154.69665736 262.78002219 -156.88936575 261.51700144 -159.08203125 260.25390625 C-160.16548828 259.62983887 -161.24894531 259.00577148 -162.36523438 258.36279297 C-164.52647398 257.11629706 -166.68664656 255.86794912 -168.84570312 254.61767578 C-174.32347958 251.44567269 -179.81374675 248.30029924 -185.33203125 245.19921875 C-187.51433587 243.95965821 -189.696628 242.7200757 -191.87890625 241.48046875 C-192.88969238 240.92093506 -193.90047852 240.36140137 -194.94189453 239.78491211 C-200.75314927 236.46297994 -205.01083987 233.84152545 -207.08141994 227.18690109 C-207.56878278 224.71374885 -207.64411408 222.41387188 -207.66212463 219.89239502 C-207.67191345 218.85195541 -207.68170227 217.81151581 -207.69178772 216.73954773 C-207.70042091 215.03590813 -207.70042091 215.03590813 -207.70922852 213.29785156 C-207.71912811 212.09757828 -207.72902771 210.89730499 -207.73922729 209.66065979 C-207.76539125 206.37382388 -207.78726314 203.08699298 -207.80722928 199.80011463 C-207.8291194 196.36344115 -207.85649326 192.92681147 -207.88328552 189.49017334 C-207.93317153 182.98441734 -207.97812551 176.47863697 -208.02130789 169.9728334 C-208.07071526 162.56535573 -208.12562039 155.157922 -208.18098748 147.75048685 C-208.2947447 132.51468811 -208.40159733 117.27884893 -208.50390625 102.04296875 C-217.83101121 102.04296875 -231.01749284 113.05469494 -237.50390625 119.04296875 Z M9.140625 132.0078125 C8.04927246 132.63937256 6.95791992 133.27093262 5.83349609 133.92163086 C4.65842927 134.60773998 3.48346355 135.2940223 2.30859375 135.98046875 C1.12335762 136.66895599 -0.06202668 137.35718821 -1.24755859 138.04516602 C-9.71357397 142.96562812 -18.14028167 147.95026665 -26.50390625 153.04296875 C-23.22293343 155.76831973 -19.94533693 158.07516586 -16.2421875 160.1875 C-15.21931641 160.77402344 -14.19644531 161.36054688 -13.14257812 161.96484375 C-12.04494141 162.58875 -10.94730469 163.21265625 -9.81640625 163.85546875 C-8.65403908 164.52038287 -7.49193444 165.18575612 -6.33007812 165.8515625 C-3.91849165 167.23306005 -1.50579281 168.6125844 0.90771484 169.99072266 C6.4478033 173.1563543 11.97103356 176.35120762 17.49609375 179.54296875 C19.66268171 180.79310516 21.82934863 182.04310475 23.99609375 183.29296875 C28.32942708 185.79296875 32.66276042 188.29296875 36.99609375 190.79296875 C38.06931885 191.41212158 39.14254395 192.03127441 40.24829102 192.66918945 C42.4076877 193.91502645 44.56703044 195.16095693 46.72631836 196.40698242 C53.38515658 200.24929642 60.04605034 204.08801705 66.70849609 207.92407227 C69.9773008 209.80860178 73.24272516 211.69888299 76.5078125 213.58984375 C80.24558853 215.75291134 83.99564668 217.88970234 87.765625 219.99609375 C88.55316162 220.44235107 89.34069824 220.8886084 90.15209961 221.34838867 C91.56975612 222.1515038 92.99327376 222.94441591 94.42407227 223.72387695 C99.18188711 226.44413144 102.40006577 229.58742972 104.08727932 234.90684891 C104.55961281 237.37486587 104.63635777 239.67993176 104.65431213 242.19354248 C104.66899536 243.75420189 104.66899536 243.75420189 104.68397522 245.34638977 C104.68973068 246.48214951 104.69548615 247.61790924 104.70141602 248.78808594 C104.71131561 249.98835922 104.72121521 251.18863251 104.73141479 252.42527771 C104.75757875 255.71211362 104.77945064 258.99894452 104.79941678 262.28582287 C104.8213069 265.72249635 104.84868076 269.15912603 104.87547302 272.59576416 C104.92535903 279.10152016 104.97031301 285.60730053 105.01349539 292.1131041 C105.06290276 299.52058177 105.11780789 306.9280155 105.17317498 314.33545065 C105.2869322 329.57124939 105.39378483 344.80708857 105.49609375 360.04296875 C116.45850722 356.49114678 125.94807565 350.73354676 134.49609375 343.04296875 C134.97433594 342.61387207 135.45257813 342.18477539 135.9453125 341.74267578 C153.79096786 325.49693618 165.70147384 302.72334273 166.9453125 278.41796875 C167.68324862 251.10666547 160.72391103 226.57757463 141.67358398 206.31591797 C140.29240873 204.88062033 138.89457993 203.4614048 137.49609375 202.04296875 C136.78839844 201.32238281 136.08070313 200.60179687 135.3515625 199.859375 C124.8067136 189.83874421 111.12374962 183.19068845 98.53930664 176.13525391 C91.58674543 172.23720307 84.68477639 168.26159018 77.80859375 164.23046875 C66.67573587 157.7097034 55.48414022 151.29565589 44.2734375 144.91015625 C39.88233918 142.40863661 35.49950935 139.89369507 31.125 137.36328125 C30.14877686 136.80012207 29.17255371 136.23696289 28.16674805 135.65673828 C26.34723055 134.60643607 24.52957981 133.55289107 22.71411133 132.49560547 C21.9177124 132.03686035 21.12131348 131.57811523 20.30078125 131.10546875 C19.60968262 130.70457031 18.91858398 130.30367187 18.20654297 129.890625 C14.53932984 128.07324504 12.43272098 130.09567253 9.140625 132.0078125 Z M-57.765625 170.65625 C-58.79405518 171.24011475 -59.82248535 171.82397949 -60.88208008 172.42553711 C-61.97415771 173.06241455 -63.06623535 173.69929199 -64.19140625 174.35546875 C-65.31248779 174.99685791 -66.43356934 175.63824707 -67.58862305 176.29907227 C-70.90194326 178.19989299 -74.20460005 180.11794614 -77.50390625 182.04296875 C-78.37563477 182.54989258 -79.24736328 183.05681641 -80.14550781 183.57910156 C-86.22477801 187.09954077 -86.22477801 187.09954077 -92.22567749 190.75050354 C-94.50390625 192.04296875 -94.50390625 192.04296875 -97.47947693 193.29031372 C-100.96984815 194.9075801 -103.65541017 196.44503922 -106.50390625 199.04296875 C-108.16338376 203.91134281 -107.91086039 208.65318759 -107.67578125 213.7265625 C-107.6533706 215.15138063 -107.63630273 216.5762919 -107.62432861 218.00123596 C-107.57872211 221.73399763 -107.46108891 225.46106384 -107.32788086 229.19158936 C-107.20462834 233.00519736 -107.1502161 236.81973583 -107.08984375 240.63476562 C-106.9615304 248.10675079 -106.75703937 255.57405899 -106.50390625 263.04296875 C-105.7915683 263.45350494 -105.07923035 263.86404114 -104.3453064 264.28701782 C-101.03078745 266.19751223 -97.7164805 268.10837396 -94.40234375 270.01953125 C-93.80605541 270.3633849 -93.20976707 270.70723854 -92.59540939 271.06151199 C-85.86153185 274.94518653 -79.13033712 278.83312921 -72.41796875 282.75390625 C-71.34675781 283.3778125 -70.27554688 284.00171875 -69.171875 284.64453125 C-67.05528629 285.87807589 -64.94085804 287.11533196 -62.828125 288.35546875 C-61.78527344 288.96132813 -60.74242187 289.5671875 -59.66796875 290.19140625 C-58.7651416 290.71911621 -57.86231445 291.24682617 -56.93212891 291.79052734 C-53.85282066 293.39704044 -53.85282066 293.39704044 -50.50390625 294.04296875 C-48.03182604 293.11612899 -48.03182604 293.11612899 -45.48828125 291.5703125 C-44.49538086 291.00675049 -43.50248047 290.44318848 -42.47949219 289.86254883 C-41.41504883 289.2414624 -40.35060547 288.62037598 -39.25390625 287.98046875 C-38.15594727 287.35229248 -37.05798828 286.72411621 -35.92675781 286.0769043 C-33.02934824 284.41471705 -30.13888352 282.74175049 -27.25244141 281.06066895 C-24.40162011 279.40140497 -21.54587509 277.75063517 -18.69140625 276.09765625 C-12.95107941 272.76510138 -7.2176072 269.42100935 -1.50390625 266.04296875 C-0.64164932 265.64721649 0.2206076 265.25146423 1.10899353 264.84371948 C3.77092128 263.24363437 3.77092128 263.24363437 4.09736633 260.2525177 C4.08626328 259.12222641 4.07516022 257.99193512 4.0637207 256.82739258 C4.06334305 255.54629105 4.06296539 254.26518951 4.06257629 252.94526672 C4.03704292 251.54683464 4.01096294 250.14841244 3.984375 248.75 C3.97504827 247.31940444 3.96793149 245.8887929 3.9629364 244.45817566 C3.94385489 240.69466985 3.8947463 236.93213054 3.8394165 233.16900635 C3.7882476 229.3282987 3.76542754 225.48743471 3.74023438 221.64648438 C3.68662684 214.11153877 3.60130243 206.57738923 3.49609375 199.04296875 C2.7837558 198.63243256 2.07141785 198.22189636 1.3374939 197.79891968 C-1.97702505 195.88842527 -5.291332 193.97756354 -8.60546875 192.06640625 C-9.20175709 191.7225526 -9.79804543 191.37869896 -10.41240311 191.02442551 C-17.14628065 187.14075097 -23.87747538 183.25280829 -30.58984375 179.33203125 C-31.66105469 178.708125 -32.73226562 178.08421875 -33.8359375 177.44140625 C-35.95252621 176.20786161 -38.06695446 174.97060554 -40.1796875 173.73046875 C-41.22253906 173.12460938 -42.26539063 172.51875 -43.33984375 171.89453125 C-44.2426709 171.36682129 -45.14549805 170.83911133 -46.07568359 170.29541016 C-51.05611428 167.72657752 -52.82818814 167.81647649 -57.765625 170.65625 Z M27.49609375 214.04296875 C27.49462719 214.80019037 27.49316063 215.55741199 27.49164963 216.33757973 C27.45459126 234.76600203 27.39558946 253.19423462 27.31219101 271.6225071 C27.27238868 280.53431117 27.24000227 289.44602679 27.22509766 298.35791016 C27.21208731 306.12589494 27.1851385 313.89368519 27.14148068 321.66156042 C27.11885187 325.77429498 27.10318391 329.88678948 27.1042099 333.99959183 C27.10495569 337.87225367 27.08703828 341.74438456 27.05492592 345.61690903 C27.04642074 347.03663969 27.04468124 348.45642987 27.05029106 349.87617493 C27.09580962 363.16864398 27.09580962 363.16864398 22.49609375 368.04296875 C20.55639648 369.69750977 20.55639648 369.69750977 18.4921875 370.984375 C17.70183105 371.4808252 16.91147461 371.97727539 16.09716797 372.48876953 C11.2779087 375.36838325 6.43482277 378.19827146 1.55859375 380.98046875 C-0.17125185 381.97289013 -1.90109468 382.9653164 -3.63076782 383.95803833 C-5.41330497 384.98060966 -7.19658822 386.00187009 -8.97998047 387.02294922 C-14.49580356 390.18266754 -19.99919838 393.36394032 -25.50390625 396.54296875 C-32.07083369 400.33404143 -38.63942619 404.12210553 -45.21484375 407.8984375 C-58.39664081 415.47494482 -71.50488151 423.15659645 -84.50390625 431.04296875 C-70.21922449 445.91225492 -48.02081388 452.86990062 -27.74316406 453.33569336 C-0.9189664 453.54879262 22.06672526 444.69374688 41.49609375 426.04296875 C42.38296875 425.19734375 43.26984375 424.35171875 44.18359375 423.48046875 C45.32828125 422.27390625 45.32828125 422.27390625 46.49609375 421.04296875 C47.00269531 420.5428125 47.50929688 420.04265625 48.03125 419.52734375 C64.07545354 402.71564984 70.71917556 378.28493696 71.18579102 355.63452148 C71.2394558 353.74620102 71.2394558 353.74620102 71.29420471 351.81973267 C71.61008795 340.32511855 71.76420156 328.82401848 71.88235569 317.32585049 C71.97085726 308.85369255 72.13244492 300.38969833 72.39081532 291.92097706 C72.56738414 285.92743423 72.65844286 279.93609866 72.68805164 273.94005162 C72.70801053 270.37255252 72.76415627 266.81482276 72.91385078 263.25021172 C73.99188376 248.55617995 73.99188376 248.55617995 68.40034103 235.63295364 C63.21908654 231.45814847 57.52488633 228.78413713 51.39111137 226.29765511 C46.58746707 224.21577936 42.2034084 221.45886525 37.74609375 218.73046875 C36.19070602 217.8144677 34.63374279 216.90112846 33.07421875 215.9921875 C32.4287207 215.61408936 31.78322266 215.23599121 31.11816406 214.84643555 C29.49908892 213.89501354 29.49908892 213.89501354 27.49609375 214.04296875 Z M-2.375 293.796875 C-3.41076172 294.39628906 -4.44652344 294.99570312 -5.51367188 295.61328125 C-6.64482422 296.27070313 -7.77597656 296.928125 -8.94140625 297.60546875 C-10.12161297 298.28929007 -11.30195351 298.97288046 -12.48242188 299.65625 C-14.93916166 301.07869078 -17.3953174 302.50213245 -19.85107422 303.92626953 C-25.39663833 307.14115562 -30.95066066 310.34137648 -36.50390625 313.54296875 C-38.67061364 314.79289816 -40.83728015 316.04289843 -43.00390625 317.29296875 C-47.33723958 319.79296875 -51.67057292 322.29296875 -56.00390625 324.79296875 C-57.07680908 325.41196045 -58.14971191 326.03095215 -59.25512695 326.66870117 C-61.41769208 327.91631615 -63.58028964 329.16387491 -65.74291992 330.41137695 C-72.33380619 334.21341039 -78.9236702 338.01720427 -85.51196289 341.82373047 C-87.69610228 343.08402811 -89.88146694 344.34220494 -92.06811523 345.59814453 C-97.23262594 348.56538495 -102.37877791 351.55605057 -107.48828125 354.6171875 C-108.43147217 355.17510986 -109.37466309 355.73303223 -110.34643555 356.30786133 C-112.09515301 357.34302798 -113.83689454 358.39012109 -115.56958008 359.4519043 C-121.33216302 362.83744398 -126.71047048 365.02590076 -133.46362305 363.64111328 C-139.50281669 361.61552618 -144.94261982 358.04532907 -150.37890625 354.79296875 C-152.52433911 353.52536362 -154.67018671 352.25846023 -156.81640625 350.9921875 C-157.91984375 350.33911621 -159.02328125 349.68604492 -160.16015625 349.01318359 C-165.5450866 345.84025808 -170.96170009 342.72286342 -176.37890625 339.60546875 C-178.56121561 338.34768695 -180.74350718 337.08987428 -182.92578125 335.83203125 C-185.11844675 334.56893606 -187.31115514 333.30591531 -189.50390625 332.04296875 C-192.79134627 330.14952036 -196.07865751 328.25585088 -199.36547852 326.36132812 C-201.52437287 325.11706074 -203.68370861 323.87355885 -205.84350586 322.63085938 C-211.36965409 319.44682762 -216.87915182 316.23762227 -222.3671875 312.98828125 C-223.4711084 312.33674072 -224.5750293 311.6852002 -225.71240234 311.01391602 C-227.82149895 309.76737071 -229.92744818 308.5154805 -232.02978516 307.25756836 C-232.96870605 306.70335205 -233.90762695 306.14913574 -234.875 305.578125 C-235.6992749 305.08707275 -236.5235498 304.59602051 -237.37280273 304.09008789 C-239.55691829 302.82247249 -239.55691829 302.82247249 -242.50390625 303.04296875 C-245.94017419 329.24451176 -239.6980029 354.60347872 -223.62890625 375.73046875 C-207.38503633 396.41977644 -185.84244229 408.25634546 -160.0703125 412.625 C-124.43628894 416.80116706 -96.42719166 399.19966929 -66.96484375 381.6796875 C-61.36144546 378.35420934 -55.71224552 375.10817977 -50.06640625 371.85546875 C-48.96844727 371.2224585 -47.87048828 370.58944824 -46.73925781 369.93725586 C-41.57997039 366.96382194 -36.41892196 363.99348493 -31.25485229 361.02836609 C-12.93198506 351.8918558 -12.93198506 351.8918558 3.49609375 340.04296875 C3.58928824 338.50813905 3.61355175 336.96904793 3.60961914 335.43139648 C3.60954361 334.45045517 3.60946808 333.46951385 3.60939026 332.45884705 C3.60422897 331.39219315 3.59906769 330.32553925 3.59375 329.2265625 C3.59233505 328.14037125 3.5909201 327.05417999 3.58946228 325.93507385 C3.58384423 322.450178 3.57128867 318.96534533 3.55859375 315.48046875 C3.55358108 313.12434988 3.54901777 310.76823001 3.54492188 308.41210938 C3.53386894 302.62237411 3.51711326 296.83267594 3.49609375 291.04296875 C1.42869834 291.04296875 -0.66224283 292.80311229 -2.375 293.796875 Z " fill="#000000" transform="translate(307.50390625,24.95703125)"/>
</svg>
