<?xml version="1.0" encoding="UTF-8"?>
<svg version="1.1" xmlns="http://www.w3.org/2000/svg" width="256" height="256">
<path d="M0 0 C0.66 0 1.32 0 2 0 C11 31.5 11 31.5 20 63 C22.46951395 63 23.49892088 62.27005108 25.625 61.03125 C26.33140625 60.62519531 27.0378125 60.21914062 27.765625 59.80078125 C28.50296875 59.37152344 29.2403125 58.94226563 30 58.5 C31.45605816 57.65232978 32.91429559 56.80838849 34.375 55.96875 C35.02210938 55.59169922 35.66921875 55.21464844 36.3359375 54.82617188 C38 54 38 54 40 54 C40.33 53.34 40.66 52.68 41 52 C43.60674486 50.57416305 46.20566724 49.23502784 48.875 47.9375 C49.60847656 47.57333984 50.34195313 47.20917969 51.09765625 46.83398438 C54.05332037 45.37768721 56.86795677 44.04401441 60 43 C58.66481157 47.40587471 56.92657685 51.20585023 54.6640625 55.2109375 C54.34343842 55.78276764 54.02281433 56.35459778 53.69247437 56.9437561 C52.67483005 58.75694976 51.65033851 60.5661481 50.625 62.375 C44.58438582 73.06602706 44.58438582 73.06602706 39 84 C39.64709427 84.10404144 40.29418854 84.20808289 40.96089172 84.3152771 C48.35110734 85.57265343 55.46912381 87.40163864 62.66796875 89.4765625 C63.82879471 89.80667328 64.98962067 90.13678406 66.18562317 90.47689819 C69.85432702 91.52138896 73.52092372 92.57306792 77.1875 93.625 C79.69061887 94.3390198 82.19387285 95.05256611 84.69726562 95.765625 C90.79974954 97.5049468 96.90052485 99.25015805 103 101 C103 101.66 103 102.32 103 103 C102.35155624 103.18347992 101.70311249 103.36695984 101.03501892 103.55599976 C94.27014196 105.47016931 87.50530016 107.38446307 80.74047852 109.29882812 C78.21770103 110.01272702 75.69491466 110.72659453 73.17211914 111.44042969 C69.54050381 112.46801582 65.90892072 113.49571581 62.27734375 114.5234375 C61.15416245 114.84122162 60.03098114 115.15900574 58.87376404 115.48641968 C57.28290733 115.93666 57.28290733 115.93666 55.65991211 116.39599609 C54.6723996 116.67417175 53.68488708 116.95234741 52.66744995 117.23895264 C51.04948102 117.70057367 49.434111 118.17163255 47.82400513 118.65997314 C44.65820723 119.61815471 42.37300298 120 39 120 C44.61996745 131.57489984 50.65791206 142.93138375 57.18994141 154.02001953 C60 158.80144231 60 158.80144231 60 161 C55.19101696 159.58168242 51.00754264 157.49577314 46.6875 155 C46.006875 154.61207275 45.32625 154.22414551 44.625 153.82446289 C36.70509604 149.29378012 28.84858019 144.6528093 21 140 C19.58560663 142.67219896 18.55234661 145.2185885 17.75073242 148.1315918 C17.52677292 148.93731125 17.30281342 149.7430307 17.07206726 150.57316589 C16.717351 151.87306206 16.717351 151.87306206 16.35546875 153.19921875 C16.10380447 154.10767044 15.8521402 155.01612213 15.59284973 155.95210266 C14.78717771 158.86284394 13.98706028 161.77507453 13.1875 164.6875 C12.14130442 168.48362179 11.0927328 172.27908233 10.04296875 176.07421875 C9.66058548 177.45829422 9.66058548 177.45829422 9.27047729 178.87033081 C6.94065793 187.27490953 4.49540822 195.64326791 2 204 C1.34 204 0.68 204 0 204 C-0.18347992 203.35155624 -0.36695984 202.70311249 -0.55599976 202.03501892 C-2.47016931 195.27014196 -4.38446307 188.50530016 -6.29882812 181.74047852 C-7.01272702 179.21770103 -7.72659453 176.69491466 -8.44042969 174.17211914 C-9.46801582 170.54050381 -10.49571581 166.90892072 -11.5234375 163.27734375 C-11.84122162 162.15416245 -12.15900574 161.03098114 -12.48641968 159.87376404 C-12.93666 158.28290733 -12.93666 158.28290733 -13.39599609 156.65991211 C-13.67417175 155.6723996 -13.95234741 154.68488708 -14.23895264 153.66744995 C-14.70057367 152.04948102 -15.17163255 150.434111 -15.65997314 148.82400513 C-16.61815471 145.65820723 -17 143.37300298 -17 140 C-29.6192029 146.06234566 -41.77529767 152.85374123 -53.91552734 159.82006836 C-55.25855337 160.58029848 -56.61966127 161.30983064 -58 162 C-57.42438164 158.32947227 -56.44061872 155.64030709 -54.55859375 152.4453125 C-53.80545898 151.14980469 -53.80545898 151.14980469 -53.03710938 149.828125 C-52.50923828 148.93609375 -51.98136719 148.0440625 -51.4375 147.125 C-46.39442166 138.53164643 -41.64586745 129.81233439 -37 121 C-37.75755081 120.78924332 -38.51510162 120.57848663 -39.29560852 120.36134338 C-46.43221794 118.375736 -53.56862344 116.38939814 -60.70480061 114.40223789 C-64.37364475 113.3806289 -68.04256728 112.35930329 -71.71166992 111.33862305 C-75.25205431 110.35373878 -78.79223152 109.36811308 -82.33226585 108.38197136 C-83.68338851 108.00573205 -85.0345858 107.62976068 -86.38585854 107.25406075 C-88.27737413 106.72810572 -90.16860097 106.20111258 -92.05981445 105.67407227 C-93.13681107 105.3742897 -94.21380768 105.07450714 -95.32344055 104.76564026 C-97.22862987 104.22065343 -99.12008477 103.62663841 -101 103 C-101 102.34 -101 101.68 -101 101 C-93.63894061 98.90771248 -86.27630356 96.82106113 -78.91161728 94.74157715 C-75.49188219 93.77579414 -72.07271723 92.80808394 -68.65478516 91.8359375 C-64.72459952 90.71818499 -60.79207433 89.60887619 -56.859375 88.5 C-55.63321472 88.15001953 -54.40705444 87.80003906 -53.14373779 87.43945312 C-52.00285706 87.11912109 -50.86197632 86.79878906 -49.68652344 86.46875 C-48.18094879 86.04239258 -48.18094879 86.04239258 -46.6449585 85.60742188 C-44 85 -44 85 -40 85 C-39.67 84.34 -39.34 83.68 -39 83 C-38.34 83 -37.68 83 -37 83 C-38.9971365 79.29011778 -40.99775584 75.58212804 -43 71.875 C-43.58998779 70.7823584 -44.17997559 69.6897168 -44.7878418 68.56396484 C-48.6449406 61.44227497 -52.59150253 54.38924725 -56.70703125 47.4140625 C-58 45 -58 45 -58 43 C-53.96211423 44.24356113 -50.42934678 45.7227307 -46.76953125 47.828125 C-45.80080078 48.38113281 -44.83207031 48.93414062 -43.83398438 49.50390625 C-42.83689453 50.08011719 -41.83980469 50.65632813 -40.8125 51.25 C-38.8403229 52.38104422 -36.86766779 53.51125537 -34.89453125 54.640625 C-33.92854004 55.19427734 -32.96254883 55.74792969 -31.96728516 56.31835938 C-27.34394273 58.93853237 -22.67579019 61.47490129 -18 64 C-11.97909951 42.67250165 -5.96030098 21.34453116 0 0 Z M1 36 C2 38 2 38 2 38 Z M2 38 C1.67 58.79 1.34 79.58 1 101 C3.31 99.02 5.62 97.04 8 95 C8.8146875 94.32195312 9.629375 93.64390625 10.46875 92.9453125 C11.1390625 92.34460938 11.809375 91.74390625 12.5 91.125 C13.1909375 90.52945313 13.881875 89.93390625 14.59375 89.3203125 C16.96593616 85.40620533 15.4802422 80.96788736 14.43930054 76.7024231 C13.75164681 74.2074295 13.02276746 71.72833729 12.27734375 69.25 C12.01240616 68.35128174 11.74746857 67.45256348 11.47450256 66.52661133 C10.63466803 63.68264203 9.78623537 60.84132414 8.9375 58 C8.36336022 56.06136725 7.78978677 54.12256668 7.21679688 52.18359375 C5.81773951 47.45376332 4.41097009 42.72628972 3 38 C2.67 38 2.34 38 2 38 Z M-40 61 C-38.56547573 65.81379021 -36.58315518 69.96732236 -34.125 74.3125 C-33.78597656 74.94478516 -33.44695312 75.57707031 -33.09765625 76.22851562 C-31.15713248 79.75155492 -31.15713248 79.75155492 -27.9140625 81.9453125 C-25.48988401 82.01457474 -23.34619885 81.58654971 -21 81 C-20.34 78.03 -19.68 75.06 -19 72 C-22.12092434 70.15966024 -25.24738217 68.32893744 -28.375 66.5 C-29.70917969 65.71302734 -29.70917969 65.71302734 -31.0703125 64.91015625 C-31.92109375 64.41386719 -32.771875 63.91757813 -33.6484375 63.40625 C-34.43395996 62.94541016 -35.21948242 62.48457031 -36.02880859 62.00976562 C-37.92754419 60.84802576 -37.92754419 60.84802576 -40 61 Z M30.9375 65.75 C30.09638672 66.1934375 29.25527344 66.636875 28.38867188 67.09375 C27.18887695 67.75117187 27.18887695 67.75117187 25.96484375 68.421875 C25.2287085 68.81987305 24.49257324 69.21787109 23.73413086 69.62792969 C21.86357617 70.87820769 21.86357617 70.87820769 21.19360352 72.95800781 C20.91061212 75.94279979 21.93397196 78.24086861 23 81 C25.64 81.33 28.28 81.66 31 82 C32.65412761 79.2549092 34.29680834 76.5031388 35.9375 73.75 C36.64036133 72.58404297 36.64036133 72.58404297 37.35742188 71.39453125 C38.0293457 70.26337891 38.0293457 70.26337891 38.71484375 69.109375 C39.33540649 68.07248535 39.33540649 68.07248535 39.96850586 67.01464844 C40.99415071 65.01142447 41.5497013 63.19763 42 61 C38.01439674 61 34.36321318 63.87231887 30.9375 65.75 Z M-22.76855469 88.28515625 C-23.70922791 88.56544678 -24.64990112 88.8457373 -25.61907959 89.13452148 C-26.62650208 89.44075439 -27.63392456 89.7469873 -28.671875 90.0625 C-29.70942932 90.37324463 -30.74698364 90.68398926 -31.815979 91.00415039 C-35.12888429 91.99764159 -38.4394413 92.99872039 -41.75 94 C-43.99594323 94.6749802 -46.24203528 95.34946546 -48.48828125 96.0234375 C-53.99392702 97.67655275 -59.49766414 99.33590315 -65 101 C-65 101.33 -65 101.66 -65 102 C-43.55 102 -22.1 102 0 102 C-4.95870476 96.17488489 -4.95870476 96.17488489 -10.125 90.5625 C-10.76695313 89.88316406 -11.40890625 89.20382813 -12.0703125 88.50390625 C-15.50751737 85.82511298 -18.93345761 87.13050337 -22.76855469 88.28515625 Z M43.71289062 102.1015625 C37.55826561 102.22049991 31.40416899 102.35970453 25.25 102.5 C23.08854438 102.54829887 20.92708607 102.59647699 18.765625 102.64453125 C13.51038468 102.76162763 8.25517976 102.88021834 3 103 C6.33116615 106.95374187 9.68428556 110.81041857 13.375 114.4375 C14.06335938 115.11683594 14.75171875 115.79617187 15.4609375 116.49609375 C15.96882813 116.99238281 16.47671875 117.48867187 17 118 C41.01241016 111.04247864 41.01241016 111.04247864 65 104 C61.91487949 102.20521389 59.78675824 101.76591161 56.234375 101.84375 C54.64399414 101.87082031 54.64399414 101.87082031 53.02148438 101.8984375 C52.40072021 101.91422852 51.77995605 101.93001953 51.14038086 101.94628906 C48.66469867 102.00841409 46.18891772 102.05519577 43.71289062 102.1015625 Z M-7.6875 110 C-8.30689453 110.55300781 -8.92628906 111.10601562 -9.56445312 111.67578125 C-10.14517578 112.23652344 -10.72589844 112.79726562 -11.32421875 113.375 C-11.86135498 113.87773437 -12.39849121 114.38046875 -12.9519043 114.8984375 C-15.84898585 120.70744705 -11.86377686 129.37309593 -10.05859375 135.1875 C-9.77146011 136.13061035 -9.48432648 137.0737207 -9.18849182 138.04541016 C-8.27762539 141.03218854 -7.35771908 144.0160915 -6.4375 147 C-5.81515404 149.0349725 -5.19340309 151.07012706 -4.57226562 153.10546875 C-3.05505186 158.0724451 -1.52972918 163.03686457 0 168 C1.02211881 164.62535939 1.12091469 161.55539419 1.11352539 158.03808594 C1.11341209 156.23667145 1.11341209 156.23667145 1.11329651 154.39886475 C1.10813522 153.10708313 1.10297394 151.81530151 1.09765625 150.484375 C1.09579017 149.14487765 1.09436716 147.80537962 1.09336853 146.46588135 C1.08955835 142.94777528 1.07974091 139.42971079 1.06866455 135.91162109 C1.05841817 132.31869061 1.053864 128.72575339 1.04882812 125.1328125 C1.03811725 118.08852471 1.02105887 111.04426507 1 104 C-2.70539165 104 -5.13353888 107.54624732 -7.6875 110 Z M-29 122 C-32.96 128.93 -36.92 135.86 -41 143 C-40.34 143.33 -39.68 143.66 -39 144 C-35.66140138 142.55100901 -32.57369752 140.59105987 -29.4375 138.75 C-28.54869141 138.24597656 -27.65988281 137.74195313 -26.74414062 137.22265625 C-25.89916016 136.73152344 -25.05417969 136.24039063 -24.18359375 135.734375 C-23.40556396 135.28288086 -22.62753418 134.83138672 -21.82592773 134.36621094 C-19.69819573 133.04482492 -19.69819573 133.04482492 -19 130 C-19.35337818 126.85556194 -19.35337818 126.85556194 -21 124 C-24.88055092 122.47539314 -24.88055092 122.47539314 -29 122 Z M23 123 C22.34 125.97 21.68 128.94 21 132 C24.12092434 133.84033976 27.24738217 135.67106256 30.375 137.5 C31.26445312 138.02464844 32.15390625 138.54929688 33.0703125 139.08984375 C34.34648437 139.83427734 34.34648437 139.83427734 35.6484375 140.59375 C36.43395996 141.05458984 37.21948242 141.51542969 38.02880859 141.99023438 C39.92754419 143.15197424 39.92754419 143.15197424 42 143 C40.56547573 138.18620979 38.58315518 134.03267764 36.125 129.6875 C35.78597656 129.05521484 35.44695312 128.42292969 35.09765625 127.77148438 C33.15713248 124.24844508 33.15713248 124.24844508 29.9140625 122.0546875 C27.48988401 121.98542526 25.34619885 122.41345029 23 123 Z " fill="#171717" transform="translate(127,26)"/>
<path d="M0 0 C1.65 0 3.3 0 5 0 C5 0.33 5 0.66 5 1 C6.0461422 0.99666908 6.0461422 0.99666908 7.11341858 0.99327087 C16.09643492 0.96604534 25.07945045 0.94810543 34.0625 0.9375 C34.78241119 0.93664398 35.50232239 0.93578796 36.24404907 0.93490601 C62.84025739 0.90699188 89.41311022 1.26016352 116 2 C116 2.33 116 2.66 116 3 C87.10601971 3.88212152 58.27452457 4.05120874 29.375 3.5625 C28.61662716 3.54968616 27.85825432 3.53687233 27.07690048 3.5236702 C17.71763585 3.36415473 8.35870892 3.18950858 -1 3 C-0.67 2.01 -0.34 1.02 0 0 Z " fill="#8A8A8A" transform="translate(60,126)"/>
<path d="M0 0 C1.65 0 3.3 0 5 0 C5 0.33 5 0.66 5 1 C11.27 1.33 17.54 1.66 24 2 C24 2.33 24 2.66 24 3 C15.75 3 7.5 3 -1 3 C-0.67 2.01 -0.34 1.02 0 0 Z " fill="#3F3F3F" transform="translate(60,126)"/>
<path d="M0 0 C-1.485 1.485 -1.485 1.485 -3 3 C-2.34 3.66 -1.68 4.32 -1 5 C-4.46941546 4.54177532 -7.67395049 4.10868317 -11 3 C-11 2.34 -11 1.68 -11 1 C-3.57142857 -1.42857143 -3.57142857 -1.42857143 0 0 Z " fill="#4E4E4E" transform="translate(37,126)"/>
</svg>
