<svg width="107" height="24" viewBox="0 0 107 24" fill="none" xmlns="http://www.w3.org/2000/svg">
<g clip-path="url(#clip0_2431_9146)">
<path d="M88.9679 9.33634C89.8721 8.96605 90.6255 8.71458 91.231 8.58332C91.8365 8.45206 92.5599 8.38574 93.4024 8.38574C94.5202 8.38574 95.486 8.68004 96.2984 9.26726C97.1107 9.85448 97.5162 10.7429 97.5162 11.9325V16.4755C97.5162 17.0172 97.7532 17.2866 98.2286 17.2866C98.3669 17.2866 98.5121 17.2631 98.6656 17.2175L98.6889 18.794C98.0916 19.1187 97.471 19.2804 96.8271 19.2804C95.4627 19.2804 94.7051 18.5937 94.5517 17.2175V17.194C94.2599 17.7191 93.8435 18.1985 93.2996 18.631C92.7558 19.0634 92.0626 19.2804 91.2201 19.2804C90.4694 19.2804 89.7488 19.0565 89.0597 18.6089C88.3706 18.1612 88.0254 17.3888 88.0254 16.2904C88.0254 15.0082 88.535 14.1584 89.5542 13.7412C90.5735 13.3239 91.6721 13.1153 92.8516 13.1153C93.5106 13.1153 94.0777 13.147 94.5517 13.2078V12.8596C94.5517 12.3194 94.4791 11.793 94.3339 11.2831C94.1887 10.7733 93.6941 10.5177 92.8516 10.5177C92.5448 10.5177 92.2653 10.537 92.0133 10.5757C91.7598 10.6144 91.5105 10.6959 91.2666 10.8189L90.8762 12.3028L88.509 12.0486L88.9693 9.33634H88.9679ZM94.5517 14.783V14.6434C94.3065 14.613 94.0572 14.5812 93.8051 14.5508C93.553 14.5204 93.3037 14.5039 93.0585 14.5039C92.5379 14.5039 92.0776 14.6006 91.679 14.794C91.2803 14.9874 91.0817 15.3702 91.0817 15.9408C91.0817 16.2807 91.1735 16.5667 91.3571 16.7988C91.5406 17.031 91.8543 17.147 92.2996 17.147C92.8201 17.147 93.3065 16.9577 93.7585 16.5792C94.2106 16.2006 94.475 15.6023 94.5517 14.783Z" fill="#071024"/>
<path d="M100.866 19.3248V17.0768H102.245V11.1424H100.752V8.87091H105.21V17.0768H106.589V19.3248H100.866ZM102.13 7.01668V3.91064H105.095V7.01668H102.13Z" fill="#071024"/>
<path d="M31.0475 10.6738C29.5201 10.6738 28.5762 11.8109 28.5762 13.7923C28.5762 15.6092 29.4078 17.0075 31.0229 17.0075C32.638 17.0075 33.586 15.7488 33.586 13.7467C33.586 11.6272 32.4545 10.6752 31.0475 10.6752V10.6738Z" fill="#071024"/>
<path d="M71.8643 15.9574C71.8643 16.633 72.189 17.1705 73.0876 17.1705C74.1479 17.1705 75.2809 16.4023 75.3507 14.6531C74.8644 14.5854 74.3315 14.5149 73.8493 14.5149C72.7876 14.5149 71.8643 14.8175 71.8643 15.9588V15.9574Z" fill="#071024"/>
<path d="M0 0.0100098V24.01H83.2157V0.0100098H0ZM24.2119 19.0787H19.8474V13.1665C19.8474 11.3496 19.2487 10.6532 18.0706 10.6532C16.639 10.6532 16.0609 11.677 16.0609 13.1458V16.7962H17.4459V19.0787H13.0855V13.1665C13.0855 11.3496 12.4868 10.6532 11.3087 10.6532C9.87712 10.6532 9.29901 11.677 9.29901 13.1458V16.7962H11.284V19.0787H4.93856V16.7962H6.32355V10.8577H4.93856V8.57512H9.29901V10.1572C9.92369 9.04075 11.0087 8.3651 12.4608 8.3651C13.9129 8.3651 15.3445 9.08635 15.8554 10.6228C16.4335 9.2259 17.6117 8.3651 19.2501 8.3651C21.1187 8.3651 22.8283 9.50638 22.8283 11.9948V16.7962H24.2092V19.0787H24.2119ZM30.9314 19.3095C27.723 19.3095 25.5051 17.3323 25.5051 13.9803C25.5051 10.9088 27.3532 8.36925 31.0931 8.36925C34.8329 8.36925 36.6563 10.9033 36.6563 13.838C36.6563 17.1913 34.2562 19.3109 30.9314 19.3109V19.3095ZM47.7198 19.0787H38.6249L38.3249 17.4967L44.0497 10.8618H40.7962L40.3345 12.4894L38.1879 12.2546L38.5577 8.57374H47.6992L47.9321 10.1558L42.1565 16.7948H45.5265L46.0087 15.1672L48.3636 15.3979L47.7184 19.0787H47.7198ZM53.6611 19.0787H50.5445V15.3067H53.6611V19.0787ZM53.6611 12.3471H50.5445V8.57927H53.6611V12.3471ZM55.6119 19.0787L60.1134 3.06079H63.0423L58.5407 19.0787H55.6119ZM61.6532 19.0787L66.1548 3.06079H69.0878L64.5862 19.0787H61.6532ZM77.6265 19.3095C76.2415 19.3095 75.4798 18.4957 75.3428 17.2148C74.7441 18.2843 73.6825 19.3095 71.9975 19.3095C70.496 19.3095 68.7891 18.4915 68.7891 16.3043C68.7891 13.7192 71.2604 13.1154 73.6359 13.1154C74.214 13.1154 74.814 13.1361 75.3455 13.2079V12.8597C75.3455 11.7903 75.3209 10.5095 73.6359 10.5095C73.0112 10.5095 72.529 10.5551 72.0427 10.8121L71.7057 11.9962L69.3302 11.7406L69.7385 9.324C71.5646 8.58065 72.4852 8.37201 74.1948 8.37201C76.4333 8.37201 78.3265 9.53816 78.3265 11.9354V16.4964C78.3265 17.1002 78.5553 17.3102 79.0416 17.3102C79.1786 17.3102 79.3156 17.2853 79.4786 17.2383L79.495 18.8204C78.9416 19.1271 78.2717 19.3109 77.6265 19.3109V19.3095Z" fill="#071024"/>
</g>
<defs>
<clipPath id="clip0_2431_9146">
<rect width="107" height="24" fill="white" transform="translate(0 0.0100098)"/>
</clipPath>
</defs>
</svg>
