<?xml version="1.0" encoding="UTF-8"?>
<svg version="1.1" xmlns="http://www.w3.org/2000/svg" width="512" height="512">
<path d="M0 0 C4.75223948 3.55638053 7.91197264 7.70825041 9.78515625 13.3359375 C10.03355324 16.57944995 10.03355324 16.57944995 10.03125191 20.33868122 C10.0335596 21.03499528 10.03586728 21.73130934 10.0382449 22.44872382 C10.04354846 24.78738918 10.03455794 27.12578044 10.02566528 29.46443176 C10.02653728 31.15579104 10.02828815 32.84715006 10.03084362 34.53850764 C10.03532235 39.19048908 10.02730622 43.84237867 10.01728749 48.49434841 C10.00866288 53.50930396 10.01157245 58.5242542 10.01309204 63.53921509 C10.01414152 72.22939598 10.00785835 80.91954688 9.99661636 89.60972023 C9.98037284 102.17429972 9.97515453 114.73886468 9.97264038 127.30345353 C9.96826147 147.68790628 9.95494706 168.07234304 9.93603516 188.45678711 C9.91768142 208.26017171 9.90352244 228.06355197 9.89501953 247.86694336 C9.89449408 249.08731093 9.89396864 250.30767851 9.89342727 251.56502692 C9.89081722 257.68715886 9.8882898 263.80929083 9.88580346 269.93142283 C9.86506487 320.73294192 9.82819182 371.53443144 9.78515625 422.3359375 C-25.52484375 422.3359375 -60.83484375 422.3359375 -97.21484375 422.3359375 C-97.58984375 390.8984375 -97.58984375 390.8984375 -97.69287109 381.02172852 C-97.72809822 378.41942343 -97.7640218 375.81712764 -97.80078125 373.21484375 C-97.80907455 372.21758522 -97.80907455 372.21758522 -97.8175354 371.20018005 C-97.67626665 356.27765573 -97.67626665 356.27765573 -104.21484375 343.3359375 C-111.64019245 337.48133564 -118.72833783 337.1795371 -127.890625 337.16796875 C-128.81522018 337.16464035 -129.73981537 337.16131195 -130.69242859 337.15788269 C-132.64317327 337.1528351 -134.59392653 337.15047369 -136.54467773 337.15063477 C-139.50714575 337.14845238 -142.46923858 337.13028474 -145.43164062 337.11132812 C-147.33463416 337.10839281 -149.23762944 337.10640894 -151.140625 337.10546875 C-152.01592361 337.09828323 -152.89122223 337.09109772 -153.79304504 337.08369446 C-161.05081686 337.11025041 -168.97014304 337.36289677 -174.58984375 342.4609375 C-175.21632812 342.99976563 -175.8428125 343.53859375 -176.48828125 344.09375 C-182.38849505 351.7560186 -181.68789543 360.80635174 -181.7265625 369.9921875 C-181.74343066 371.50534503 -181.76158375 373.01848872 -181.78096008 374.53161621 C-181.82823468 378.4901904 -181.85818907 382.44870849 -181.88439941 386.4074707 C-181.9143195 390.45665561 -181.96081015 394.50564766 -182.00585938 398.5546875 C-182.0916356 406.48167556 -182.15909417 414.40868164 -182.21484375 422.3359375 C-197.88761557 422.4294352 -213.56031194 422.49994321 -229.23329353 422.54318619 C-236.51076717 422.56379958 -243.78806738 422.59189651 -251.06542969 422.63769531 C-257.40939606 422.67760087 -263.75323681 422.70337922 -270.09732521 422.71229148 C-273.45562727 422.71750004 -276.81357 422.72971575 -280.17175674 422.75885773 C-283.92347844 422.78786169 -287.6744539 422.79189457 -291.42626953 422.79003906 C-292.53613724 422.80442017 -293.64600494 422.81880127 -294.789505 422.83361816 C-300.90814029 422.80083799 -304.57770938 422.47077839 -309.21484375 418.3359375 C-311.22027341 415.46698006 -311.4812464 413.34892532 -311.15234375 409.8984375 C-311.09949219 409.15722656 -311.04664063 408.41601562 -310.9921875 407.65234375 C-309.81886724 404.1559673 -308.08687793 402.63162954 -305.21484375 400.3359375 C-302.41191114 399.74359135 -299.7510429 399.85796347 -296.90234375 400.0234375 C-296.16177734 400.04599609 -295.42121094 400.06855469 -294.65820312 400.09179688 C-292.84287018 400.150356 -291.02858694 400.24002864 -289.21484375 400.3359375 C-289.21674235 399.64282125 -289.21864095 398.94970499 -289.22059709 398.23558521 C-289.3324785 357.15925589 -289.41827198 316.08294425 -289.4701704 275.00649321 C-289.47642396 270.07480381 -289.48289557 265.14311472 -289.48950195 260.21142578 C-289.49081351 259.229612 -289.49212506 258.24779823 -289.49347635 257.23623252 C-289.51523509 241.33716723 -289.55465922 225.43819231 -289.60060773 209.53918064 C-289.6473593 193.22628863 -289.6751364 176.91344396 -289.68528622 160.60048771 C-289.69214807 150.53383686 -289.71382337 140.46744142 -289.75442608 130.40086919 C-289.78084839 123.49858013 -289.7888459 116.59642318 -289.78235064 109.69408721 C-289.77914693 105.71124685 -289.78407042 101.7288529 -289.81087112 97.74609184 C-289.83524277 94.09763586 -289.83640677 90.44992553 -289.81933822 86.80143487 C-289.81623263 84.86075873 -289.83776293 82.92009107 -289.86025029 80.97954273 C-289.78215542 71.86438982 -287.75607036 67.04187233 -281.52734375 60.5234375 C-273.09450269 54.95458019 -261.76929586 53.74812698 -252.00585938 51.50146484 C-250.38056637 51.12494607 -248.75533934 50.74814244 -247.13017273 50.37107849 C-242.71958681 49.34861935 -238.30807999 48.3301867 -233.89639091 47.31249952 C-229.19394739 46.22702995 -224.49235139 45.13790102 -219.79064941 44.04922485 C-211.82853717 42.20613297 -203.86587957 40.36541374 -195.90283203 38.52636719 C-187.89168865 36.67621055 -179.88090613 34.82450502 -171.87060547 32.97070312 C-170.41647593 32.63418358 -170.41647593 32.63418358 -168.93297005 32.29086566 C-165.0288463 31.38733393 -161.12473106 30.48376541 -157.22061539 29.58019876 C-146.55034839 27.11085555 -135.87950814 24.6440413 -125.20703125 22.18426514 C-121.37499134 21.30094089 -117.54296305 20.41756625 -113.7109375 19.53417969 C-112.77163769 19.31768438 -111.83233788 19.10118907 -110.86457443 18.8781333 C-98.79421053 16.09538576 -86.72906018 13.29137248 -74.66924286 10.46327019 C-68.60009983 9.04019364 -62.52913815 7.62495492 -56.45764589 6.21193802 C-51.65559344 5.09367307 -46.85607578 3.96529767 -42.0582962 2.82884884 C-39.13093724 2.13813574 -36.20129212 1.45755377 -33.27091026 0.77979231 C-31.3061298 0.32220821 -29.34418922 -0.14751832 -27.38240051 -0.61776352 C-18.2591769 -2.71205073 -8.53748014 -4.94367433 0 0 Z M-222.21484375 126.3359375 C-225.91504584 131.88624063 -225.3976343 137.80735888 -225.40234375 144.2734375 C-225.41458984 145.15451172 -225.42683594 146.03558594 -225.43945312 146.94335938 C-225.45278918 152.87790557 -225.24590792 157.91176414 -221.27734375 162.6484375 C-216.36891841 166.66442187 -209.85439397 165.55884493 -203.83984375 165.5859375 C-202.70289063 165.6065625 -201.5659375 165.6271875 -200.39453125 165.6484375 C-199.29625 165.65359375 -198.19796875 165.65875 -197.06640625 165.6640625 C-195.56327881 165.67808105 -195.56327881 165.67808105 -194.02978516 165.69238281 C-189.85427433 165.16365378 -187.36614859 163.49386266 -184.43164062 160.54248047 C-181.80087554 155.77184346 -182.70410388 149.77180077 -182.71484375 144.4609375 C-182.67230469 142.56021484 -182.67230469 142.56021484 -182.62890625 140.62109375 C-182.41265599 133.08709509 -182.41265599 133.08709509 -185.55859375 126.515625 C-190.88901228 122.14154626 -196.94295215 123.11571429 -203.52734375 123.0859375 C-204.65591797 123.0653125 -205.78449219 123.0446875 -206.94726562 123.0234375 C-215.02847345 122.92381507 -215.02847345 122.92381507 -222.21484375 126.3359375 Z M-158.21484375 126.3359375 C-161.91504584 131.88624063 -161.3976343 137.80735888 -161.40234375 144.2734375 C-161.41458984 145.15451172 -161.42683594 146.03558594 -161.43945312 146.94335938 C-161.45278918 152.87790557 -161.24590792 157.91176414 -157.27734375 162.6484375 C-152.36891841 166.66442187 -145.85439397 165.55884493 -139.83984375 165.5859375 C-138.70289063 165.6065625 -137.5659375 165.6271875 -136.39453125 165.6484375 C-135.29625 165.65359375 -134.19796875 165.65875 -133.06640625 165.6640625 C-131.56327881 165.67808105 -131.56327881 165.67808105 -130.02978516 165.69238281 C-125.85427433 165.16365378 -123.36614859 163.49386266 -120.43164062 160.54248047 C-117.80087554 155.77184346 -118.70410388 149.77180077 -118.71484375 144.4609375 C-118.67230469 142.56021484 -118.67230469 142.56021484 -118.62890625 140.62109375 C-118.41265599 133.08709509 -118.41265599 133.08709509 -121.55859375 126.515625 C-126.88901228 122.14154626 -132.94295215 123.11571429 -139.52734375 123.0859375 C-140.65591797 123.0653125 -141.78449219 123.0446875 -142.94726562 123.0234375 C-151.02847345 122.92381507 -151.02847345 122.92381507 -158.21484375 126.3359375 Z M-94.21484375 126.3359375 C-97.91504584 131.88624063 -97.3976343 137.80735888 -97.40234375 144.2734375 C-97.41458984 145.15451172 -97.42683594 146.03558594 -97.43945312 146.94335938 C-97.45278918 152.87790557 -97.24590792 157.91176414 -93.27734375 162.6484375 C-88.36891841 166.66442187 -81.85439397 165.55884493 -75.83984375 165.5859375 C-74.70289063 165.6065625 -73.5659375 165.6271875 -72.39453125 165.6484375 C-71.29625 165.65359375 -70.19796875 165.65875 -69.06640625 165.6640625 C-67.56327881 165.67808105 -67.56327881 165.67808105 -66.02978516 165.69238281 C-61.85427433 165.16365378 -59.36614859 163.49386266 -56.43164062 160.54248047 C-53.80087554 155.77184346 -54.70410388 149.77180077 -54.71484375 144.4609375 C-54.67230469 142.56021484 -54.67230469 142.56021484 -54.62890625 140.62109375 C-54.41265599 133.08709509 -54.41265599 133.08709509 -57.55859375 126.515625 C-62.88901228 122.14154626 -68.94295215 123.11571429 -75.52734375 123.0859375 C-76.65591797 123.0653125 -77.78449219 123.0446875 -78.94726562 123.0234375 C-87.02847345 122.92381507 -87.02847345 122.92381507 -94.21484375 126.3359375 Z M-222.21484375 190.3359375 C-225.91504584 195.88624063 -225.3976343 201.80735888 -225.40234375 208.2734375 C-225.41458984 209.15451172 -225.42683594 210.03558594 -225.43945312 210.94335938 C-225.45278918 216.87790557 -225.24590792 221.91176414 -221.27734375 226.6484375 C-216.36891841 230.66442187 -209.85439397 229.55884493 -203.83984375 229.5859375 C-202.70289063 229.6065625 -201.5659375 229.6271875 -200.39453125 229.6484375 C-199.29625 229.65359375 -198.19796875 229.65875 -197.06640625 229.6640625 C-195.56327881 229.67808105 -195.56327881 229.67808105 -194.02978516 229.69238281 C-189.85427433 229.16365378 -187.36614859 227.49386266 -184.43164062 224.54248047 C-181.80087554 219.77184346 -182.70410388 213.77180077 -182.71484375 208.4609375 C-182.67230469 206.56021484 -182.67230469 206.56021484 -182.62890625 204.62109375 C-182.41265599 197.08709509 -182.41265599 197.08709509 -185.55859375 190.515625 C-190.88901228 186.14154626 -196.94295215 187.11571429 -203.52734375 187.0859375 C-204.65591797 187.0653125 -205.78449219 187.0446875 -206.94726562 187.0234375 C-215.02847345 186.92381507 -215.02847345 186.92381507 -222.21484375 190.3359375 Z M-158.21484375 190.3359375 C-161.91504584 195.88624063 -161.3976343 201.80735888 -161.40234375 208.2734375 C-161.41458984 209.15451172 -161.42683594 210.03558594 -161.43945312 210.94335938 C-161.45278918 216.87790557 -161.24590792 221.91176414 -157.27734375 226.6484375 C-152.36891841 230.66442187 -145.85439397 229.55884493 -139.83984375 229.5859375 C-138.70289063 229.6065625 -137.5659375 229.6271875 -136.39453125 229.6484375 C-135.29625 229.65359375 -134.19796875 229.65875 -133.06640625 229.6640625 C-131.56327881 229.67808105 -131.56327881 229.67808105 -130.02978516 229.69238281 C-125.85427433 229.16365378 -123.36614859 227.49386266 -120.43164062 224.54248047 C-117.80087554 219.77184346 -118.70410388 213.77180077 -118.71484375 208.4609375 C-118.67230469 206.56021484 -118.67230469 206.56021484 -118.62890625 204.62109375 C-118.41265599 197.08709509 -118.41265599 197.08709509 -121.55859375 190.515625 C-126.88901228 186.14154626 -132.94295215 187.11571429 -139.52734375 187.0859375 C-140.65591797 187.0653125 -141.78449219 187.0446875 -142.94726562 187.0234375 C-151.02847345 186.92381507 -151.02847345 186.92381507 -158.21484375 190.3359375 Z M-94.21484375 190.3359375 C-97.91504584 195.88624063 -97.3976343 201.80735888 -97.40234375 208.2734375 C-97.41458984 209.15451172 -97.42683594 210.03558594 -97.43945312 210.94335938 C-97.45278918 216.87790557 -97.24590792 221.91176414 -93.27734375 226.6484375 C-88.36891841 230.66442187 -81.85439397 229.55884493 -75.83984375 229.5859375 C-74.70289063 229.6065625 -73.5659375 229.6271875 -72.39453125 229.6484375 C-71.29625 229.65359375 -70.19796875 229.65875 -69.06640625 229.6640625 C-67.56327881 229.67808105 -67.56327881 229.67808105 -66.02978516 229.69238281 C-61.85427433 229.16365378 -59.36614859 227.49386266 -56.43164062 224.54248047 C-53.80087554 219.77184346 -54.70410388 213.77180077 -54.71484375 208.4609375 C-54.67230469 206.56021484 -54.67230469 206.56021484 -54.62890625 204.62109375 C-54.41265599 197.08709509 -54.41265599 197.08709509 -57.55859375 190.515625 C-62.88901228 186.14154626 -68.94295215 187.11571429 -75.52734375 187.0859375 C-76.65591797 187.0653125 -77.78449219 187.0446875 -78.94726562 187.0234375 C-87.02847345 186.92381507 -87.02847345 186.92381507 -94.21484375 190.3359375 Z M-222.21484375 254.3359375 C-225.91504584 259.88624063 -225.3976343 265.80735888 -225.40234375 272.2734375 C-225.41458984 273.15451172 -225.42683594 274.03558594 -225.43945312 274.94335938 C-225.45278918 280.87790557 -225.24590792 285.91176414 -221.27734375 290.6484375 C-216.36891841 294.66442187 -209.85439397 293.55884493 -203.83984375 293.5859375 C-202.70289063 293.6065625 -201.5659375 293.6271875 -200.39453125 293.6484375 C-199.29625 293.65359375 -198.19796875 293.65875 -197.06640625 293.6640625 C-195.56327881 293.67808105 -195.56327881 293.67808105 -194.02978516 293.69238281 C-189.85427433 293.16365378 -187.36614859 291.49386266 -184.43164062 288.54248047 C-181.80087554 283.77184346 -182.70410388 277.77180077 -182.71484375 272.4609375 C-182.67230469 270.56021484 -182.67230469 270.56021484 -182.62890625 268.62109375 C-182.41265599 261.08709509 -182.41265599 261.08709509 -185.55859375 254.515625 C-190.88901228 250.14154626 -196.94295215 251.11571429 -203.52734375 251.0859375 C-204.65591797 251.0653125 -205.78449219 251.0446875 -206.94726562 251.0234375 C-215.02847345 250.92381507 -215.02847345 250.92381507 -222.21484375 254.3359375 Z M-158.21484375 254.3359375 C-161.91504584 259.88624063 -161.3976343 265.80735888 -161.40234375 272.2734375 C-161.41458984 273.15451172 -161.42683594 274.03558594 -161.43945312 274.94335938 C-161.45278918 280.87790557 -161.24590792 285.91176414 -157.27734375 290.6484375 C-152.36891841 294.66442187 -145.85439397 293.55884493 -139.83984375 293.5859375 C-138.70289063 293.6065625 -137.5659375 293.6271875 -136.39453125 293.6484375 C-135.29625 293.65359375 -134.19796875 293.65875 -133.06640625 293.6640625 C-131.56327881 293.67808105 -131.56327881 293.67808105 -130.02978516 293.69238281 C-125.85427433 293.16365378 -123.36614859 291.49386266 -120.43164062 288.54248047 C-117.80087554 283.77184346 -118.70410388 277.77180077 -118.71484375 272.4609375 C-118.67230469 270.56021484 -118.67230469 270.56021484 -118.62890625 268.62109375 C-118.41265599 261.08709509 -118.41265599 261.08709509 -121.55859375 254.515625 C-126.88901228 250.14154626 -132.94295215 251.11571429 -139.52734375 251.0859375 C-140.65591797 251.0653125 -141.78449219 251.0446875 -142.94726562 251.0234375 C-151.02847345 250.92381507 -151.02847345 250.92381507 -158.21484375 254.3359375 Z M-94.21484375 254.3359375 C-97.91504584 259.88624063 -97.3976343 265.80735888 -97.40234375 272.2734375 C-97.41458984 273.15451172 -97.42683594 274.03558594 -97.43945312 274.94335938 C-97.45278918 280.87790557 -97.24590792 285.91176414 -93.27734375 290.6484375 C-88.36891841 294.66442187 -81.85439397 293.55884493 -75.83984375 293.5859375 C-74.70289063 293.6065625 -73.5659375 293.6271875 -72.39453125 293.6484375 C-71.29625 293.65359375 -70.19796875 293.65875 -69.06640625 293.6640625 C-67.56327881 293.67808105 -67.56327881 293.67808105 -66.02978516 293.69238281 C-61.85427433 293.16365378 -59.36614859 291.49386266 -56.43164062 288.54248047 C-53.80087554 283.77184346 -54.70410388 277.77180077 -54.71484375 272.4609375 C-54.67230469 270.56021484 -54.67230469 270.56021484 -54.62890625 268.62109375 C-54.41265599 261.08709509 -54.41265599 261.08709509 -57.55859375 254.515625 C-62.88901228 250.14154626 -68.94295215 251.11571429 -75.52734375 251.0859375 C-76.65591797 251.0653125 -77.78449219 251.0446875 -78.94726562 251.0234375 C-87.02847345 250.92381507 -87.02847345 250.92381507 -94.21484375 254.3359375 Z " fill="#000000" transform="translate(353.21484375,47.6640625)"/>
<path d="M0 0 C3.90162627 1.30054209 7.17054675 2.45763951 10.77685547 4.24316406 C11.67153534 4.68412415 12.56621521 5.12508423 13.48800659 5.57940674 C14.43813629 6.05335876 15.38826599 6.52731079 16.3671875 7.015625 C17.36074249 7.5090741 18.35429749 8.00252319 19.37796021 8.51092529 C21.47519275 9.5544898 23.57135255 10.6002126 25.66650391 11.64794922 C28.85281585 13.23892312 32.04529667 14.81700085 35.23828125 16.39453125 C37.2816421 17.41327642 39.32462346 18.43278319 41.3671875 19.453125 C42.78630936 20.15190765 42.78630936 20.15190765 44.23410034 20.86480713 C53.11251449 25.33433171 60.52865864 29.140969 64 39 C64.55399827 42.97149123 64.52354176 46.89087667 64.48101807 50.89562988 C64.48443577 52.07852836 64.48785347 53.26142684 64.49137473 54.48017073 C64.49680558 57.74598841 64.48437672 61.01116414 64.46426249 64.27690601 C64.44693378 67.80508657 64.452838 71.33323904 64.45587158 74.8614502 C64.45796553 80.96846038 64.44545181 87.07529916 64.42292023 93.18226624 C64.39036501 102.01180583 64.37998962 110.84126283 64.37496826 119.67085594 C64.36622112 133.99741444 64.33962134 148.32388166 64.30175781 162.65039062 C64.26502267 176.56444849 64.23671827 190.47848153 64.21972656 204.39257812 C64.21815022 205.67980753 64.21815022 205.67980753 64.21654204 206.99304157 C64.21132176 211.29828886 64.20626696 215.60353633 64.20129442 219.90878391 C64.15985049 255.605921 64.08941791 291.30295207 64 327 C65.09699219 326.94199219 66.19398438 326.88398438 67.32421875 326.82421875 C68.77860314 326.77730312 70.23303374 326.73180489 71.6875 326.6875 C72.40873047 326.64560547 73.12996094 326.60371094 73.87304688 326.56054688 C78.08867874 326.46429957 79.54274049 326.63328171 82.96655273 329.37915039 C85.9077931 333.17002748 86.43311212 336.26908294 86 341 C83.79326205 345.49520693 82.52802342 346.73598829 78 349 C52.26 349 26.52 349 0 349 C0 233.83 0 118.66 0 0 Z " fill="#000000" transform="translate(384,121)"/>
<path d="M0 0 C14.19 0 28.38 0 43 0 C43 21.45 43 42.9 43 65 C28.81 65 14.62 65 0 65 C0 43.55 0 22.1 0 0 Z " fill="#000000" transform="translate(192,405)"/>
</svg>
