<?xml version="1.0" encoding="UTF-8"?>
<svg version="1.1" xmlns="http://www.w3.org/2000/svg" width="512" height="512">
<path d="M0 0 C1.1034375 0.350625 2.206875 0.70125 3.34375 1.0625 C30.57138657 10.5789555 51.64848269 30.562971 64.25 56.3125 C66.49523464 61.41758658 68.26475479 66.60542911 69.875 71.9375 C70.0905957 72.64753174 70.30619141 73.35756348 70.52832031 74.08911133 C71.74762582 78.36123025 72 81.43195456 72 86 C47.58 86 23.16 86 -2 86 C-2 95.9 -2 105.8 -2 116 C22.75 116 47.5 116 73 116 C73 130.85 73 145.7 73 161 C48.25 161 23.5 161 -2 161 C-2 170.9 -2 180.8 -2 191 C22.75 191 47.5 191 73 191 C73 205.85 73 220.7 73 236 C48.25 236 23.5 236 -2 236 C-2 245.9 -2 255.8 -2 266 C22.42 266 46.84 266 72 266 C71.31293664 272.87063365 70.62526197 278.34541638 68.4375 284.6875 C68.04377197 285.84088867 68.04377197 285.84088867 67.64208984 287.01757812 C63.38986359 298.99192623 57.41894451 309.43813951 49 319 C48.33613281 319.80695313 47.67226563 320.61390625 46.98828125 321.4453125 C30.82664372 340.50469281 7.66842369 352.48828246 -17 356 C-32.83763124 356.88563692 -48.86397965 357.18489208 -64 352 C-64.95036133 351.67854004 -64.95036133 351.67854004 -65.91992188 351.35058594 C-92.55808081 342.13587537 -114.57023936 323.54762601 -126.9765625 298.04296875 C-131.68896862 287.89213147 -136 277.29478992 -136 266 C-111.58 266 -87.16 266 -62 266 C-62 256.1 -62 246.2 -62 236 C-86.75 236 -111.5 236 -137 236 C-137 221.15 -137 206.3 -137 191 C-112.25 191 -87.5 191 -62 191 C-62 181.1 -62 171.2 -62 161 C-86.75 161 -111.5 161 -137 161 C-137 146.15 -137 131.3 -137 116 C-112.25 116 -87.5 116 -62 116 C-62 106.1 -62 96.2 -62 86 C-86.42 86 -110.84 86 -136 86 C-135.31301012 79.13010117 -134.62618878 73.65392087 -132.4375 67.3125 C-132.17283936 66.54067383 -131.90817871 65.76884766 -131.63549805 64.97363281 C-126.76271522 51.29554731 -119.46380559 39.95061062 -110 29 C-109.34386719 28.24074219 -108.68773437 27.48148438 -108.01171875 26.69921875 C-81.59813144 -1.52429318 -36.39111895 -12.23772142 0 0 Z " fill="#000000" transform="translate(288,4)"/>
<path d="M0 0 C10.23 0 20.46 0 31 0 C31.226875 3.403125 31.45375 6.80625 31.6875 10.3125 C34.56807184 46.47424039 51.74162445 79.20321762 79 103 C98.41725601 119.1834315 123.76241074 130.41404727 149 133 C150.23105469 133.13277344 151.46210938 133.26554688 152.73046875 133.40234375 C188.06172154 136.63279952 223.73909591 125.19282752 251.04589844 102.66845703 C277.06998296 80.44849281 295.36422179 48.46413045 298.16650391 13.94921875 C298.51149812 9.30044712 298.75910968 4.65721291 299 0 C309.23 0 319.46 0 330 0 C330.88834851 37.31063758 318.65557296 73.92335824 295 103 C294.32130859 103.83893799 294.32130859 103.83893799 293.62890625 104.69482422 C278.65222944 123.08589924 261.05554216 137.11210292 240 148 C239.08033447 148.47928955 239.08033447 148.47928955 238.14208984 148.96826172 C219.85048626 158.36708999 200.41354641 163.14422305 180 165 C180 185.46 180 205.92 180 227 C214.65 227 249.3 227 285 227 C285 236.9 285 246.8 285 257 C205.8 257 126.6 257 45 257 C45 247.1 45 237.2 45 227 C79.65 227 114.3 227 150 227 C150 206.54 150 186.08 150 165 C144.39 164.34 138.78 163.68 133 163 C129.72866601 162.32870767 126.6282905 161.65443568 123.4375 160.75 C122.64778809 160.53166504 121.85807617 160.31333008 121.04443359 160.08837891 C96.58457102 153.1468674 73.86618479 141.4990624 55.21875 124.0625 C53.24262907 122.22554251 51.21045379 120.52188835 49.125 118.8125 C21.14414311 94.2728372 3.44050331 54.61419839 0 18 C-0.10193055 14.83110006 -0.0957913 11.67003854 -0.0625 8.5 C-0.041875 5.695 -0.02125 2.89 0 0 Z " fill="#000000" transform="translate(91,255)"/>
</svg>
