<?xml version="1.0" encoding="UTF-8"?>
<svg version="1.1" xmlns="http://www.w3.org/2000/svg" width="79" height="73">
<path d="M0 0 C9.34877166 6.72715844 15.22147052 14.23924392 17.6875 25.6875 C19.37621836 37.23248804 17.08515697 48.50754926 10.0625 57.9375 C9.15948433 59.05285846 8.24797917 60.1617259 7.3125 61.25 C5.375 60.4375 5.375 60.4375 3.3125 59.25 C2.9825 58.26 2.6525 57.27 2.3125 56.25 C3.421875 54.41015625 3.421875 54.41015625 5.0625 52.3125 C10.19271328 44.9460399 12.23241045 36.52572662 10.87890625 27.62109375 C8.63001907 18.20678674 3.39805739 10.73403222 -4.6875 5.375 C-12.52977174 0.92154932 -20.70098451 0.0059403 -29.48828125 1.83203125 C-37.92630365 4.44578925 -44.71693756 9.44246906 -49.38671875 17 C-53.96420374 26.44352204 -54.45080016 34.13749727 -51.6875 44.25 C-50.28534628 47.86232822 -48.85307782 51.11780388 -46.05078125 53.83984375 C-45.60089844 54.30519531 -45.15101562 54.77054688 -44.6875 55.25 C-44.8125 57.3125 -44.8125 57.3125 -45.6875 59.25 C-47.1725 60.24 -47.1725 60.24 -48.6875 61.25 C-56.94338715 52.44372038 -60.0245889 44.43430593 -60.6875 32.25 C-60.26063288 20.65344317 -55.34641487 10.85501999 -46.89453125 2.96875 C-33.27035998 -7.64122408 -14.69743485 -9.26954575 0 0 Z " fill="#1B4936" transform="translate(60.6875,5.75)"/>
<path d="M0 0 C6.78376359 5.55035203 12.85522968 11.76442027 19 18 C18.01 19.32 17.02 20.64 16 22 C12.37679679 21.43337571 10.82534347 20.10912999 8.375 17.4375 C7.28681232 16.25665005 6.16806798 15.10189664 5 14 C4.34 14 3.68 14 3 14 C4.3584202 17.04332765 5.88463024 19.12309151 8.2578125 21.453125 C8.88300781 22.071875 9.50820313 22.690625 10.15234375 23.328125 C10.80332031 23.96234375 11.45429687 24.5965625 12.125 25.25 C12.78371094 25.8996875 13.44242188 26.549375 14.12109375 27.21875 C15.74296643 28.81711727 17.3693281 30.41061897 19 32 C17.35 33.65 15.7 35.3 14 37 C13.37351562 36.3503125 12.74703125 35.700625 12.1015625 35.03125 C11.28429687 34.1959375 10.46703125 33.360625 9.625 32.5 C8.81289063 31.6646875 8.00078125 30.829375 7.1640625 29.96875 C5.2410341 27.77568714 5.2410341 27.77568714 3 28 C4.3584202 31.04332765 5.88463024 33.12309151 8.2578125 35.453125 C8.88300781 36.071875 9.50820313 36.690625 10.15234375 37.328125 C10.80332031 37.96234375 11.45429687 38.5965625 12.125 39.25 C12.78371094 39.8996875 13.44242188 40.549375 14.12109375 41.21875 C15.74296643 42.81711727 17.3693281 44.41061897 19 46 C18.34 47.32 17.68 48.64 17 50 C13 50 13 50 10.859375 48.25 C9.81523438 47.13625 9.81523438 47.13625 8.75 46 C8.04359375 45.2575 7.3371875 44.515 6.609375 43.75 C6.07828125 43.1725 5.5471875 42.595 5 42 C1.78475695 43.40844718 -0.32183868 45.10344786 -2.75 47.625 C-3.36359375 48.25664063 -3.9771875 48.88828125 -4.609375 49.5390625 C-5.06828125 50.02117187 -5.5271875 50.50328125 -6 51 C-7.17825358 50.09827532 -8.34231577 49.17798498 -9.5 48.25 C-10.47453125 47.48429687 -10.47453125 47.48429687 -11.46875 46.703125 C-13 45 -13 45 -13 41 C-11 38.75 -11 38.75 -9 37 C-10.29299694 34.11562221 -11.65941363 32.12780579 -14 30 C-12.70700306 27.11562221 -11.34058637 25.12780579 -9 23 C-10.29299694 20.11562221 -11.65941363 18.12780579 -14 16 C-12.34136495 11.67495164 -9.128959 8.90581175 -5.875 5.75 C-5.31167969 5.19570313 -4.74835937 4.64140625 -4.16796875 4.0703125 C-2.78313972 2.70895515 -1.39216796 1.35385141 0 0 Z " fill="#1C4936" transform="translate(37,15)"/>
<path d="M0 0 C0 3.96 0 7.92 0 12 C-1.65 12 -3.3 12 -5 12 C-5.49108911 4.63366337 -5.49108911 4.63366337 -3.0625 1.5 C-1 0 -1 0 0 0 Z " fill="#1C4A37" transform="translate(42,61)"/>
</svg>
