<?xml version="1.0" encoding="UTF-8"?>
<svg version="1.1" xmlns="http://www.w3.org/2000/svg" width="512" height="512">
<path d="M0 0 C2.55912061 2.24395798 5.03579935 4.55462375 7.50390625 6.8984375 C8.05804199 7.41470703 8.61217773 7.93097656 9.18310547 8.46289062 C39.64681069 36.9862846 61.21691758 78.78686439 63.61863708 120.91070557 C63.68327726 122.99027873 63.72009805 125.06797792 63.7421875 127.1484375 C63.75198135 127.91576202 63.76177521 128.68308655 63.77186584 129.47366333 C63.94885399 146.95066474 63.6854493 163.81979806 59.50390625 180.8984375 C59.19042236 182.19056152 59.19042236 182.19056152 58.87060547 183.50878906 C52.07574634 210.4540956 38.56667748 236.32463028 19.578125 256.671875 C17.69066457 258.69796246 15.90769914 260.77740655 14.12890625 262.8984375 C-15.21636618 296.3306086 -60.5483682 314.57591898 -104.17285156 317.7578125 C-150.22931125 320.54559316 -194.73594616 305.87963949 -230.49609375 276.8984375 C-235.32908181 280.92591803 -239.87719379 285.14223163 -244.3046875 289.609375 C-244.91627213 290.22237457 -245.52785675 290.83537415 -246.15797424 291.46694946 C-248.08556934 293.40008314 -250.00963303 295.33668737 -251.93359375 297.2734375 C-253.25041779 298.59528449 -254.56747301 299.91690122 -255.88476562 301.23828125 C-259.09121748 304.45568049 -262.29451004 307.67619431 -265.49609375 310.8984375 C-265.29113281 311.56230469 -265.08617187 312.22617187 -264.875 312.91015625 C-264.60558594 313.79316406 -264.33617187 314.67617188 -264.05859375 315.5859375 C-263.79175781 316.45605469 -263.52492188 317.32617188 -263.25 318.22265625 C-259.81113312 330.42796096 -260.27091575 344.26031554 -265.88437939 355.73670387 C-270.09175624 363.15355324 -274.88949351 369.00557128 -280.94458008 374.97802734 C-281.86588211 375.90648468 -282.78718414 376.83494202 -283.73640442 377.79153442 C-286.23343692 380.30687598 -288.74565388 382.80649223 -291.26172853 385.30276823 C-293.9101084 387.9345962 -296.54569704 390.57918555 -299.18327332 393.22183228 C-303.61025234 397.65331277 -308.04724178 402.07457034 -312.49047852 406.48974609 C-317.60787143 411.57506636 -322.70900959 416.67625905 -327.80176336 421.7862457 C-332.72871898 426.72912921 -337.66698658 431.66056223 -342.61041832 436.58696365 C-344.70194825 438.67166889 -346.78954005 440.76019968 -348.87394142 442.85203171 C-351.79090811 445.77816526 -354.7242557 448.68733925 -357.65942383 451.59521484 C-358.93550507 452.8810849 -358.93550507 452.8810849 -360.23736572 454.19293213 C-372.44481962 466.20894498 -384.70045371 471.24378512 -401.62890625 471.27905273 C-414.93874564 471.04017665 -425.81920008 466.16471333 -435.49609375 456.8984375 C-446.34831191 444.7271652 -449.41385055 431.84738026 -448.87890625 415.84375 C-448.00503691 401.20781253 -439.24685537 390.03921486 -429.19287109 380.06176758 C-428.27492767 379.13520859 -427.35698425 378.2086496 -426.41122437 377.25401306 C-423.91604852 374.73652783 -421.40852127 372.23171249 -418.89771605 369.72982621 C-416.79179511 367.62905322 -414.69215779 365.52205448 -412.59244311 363.4150812 C-407.63295858 358.4386555 -402.66335605 353.47250159 -397.68701172 348.51293945 C-392.57809399 343.4209304 -387.48575378 338.31277218 -382.40147054 333.1961754 C-378.01289126 328.78077905 -373.61453066 324.37529635 -369.20829737 319.97751731 C-366.58682833 317.36094313 -363.96893156 314.74105398 -361.36027145 312.11170387 C-358.44624679 309.17567333 -355.51202478 306.26063563 -352.57568359 303.34692383 C-351.73058228 302.49013031 -350.88548096 301.63333679 -350.01477051 300.75057983 C-338.98684146 289.89375152 -327.03682468 283.95038066 -311.49609375 283.5234375 C-304.25145084 283.67604084 -297.34194196 285.05683627 -290.56182861 287.63352966 C-288.43466275 288.13478662 -288.43466275 288.13478662 -286.7243042 286.72792053 C-286.1291803 286.12169357 -285.5340564 285.51546661 -284.92089844 284.89086914 C-284.240495 284.21008804 -283.56009155 283.52930695 -282.85906982 282.82789612 C-281.77447479 281.70459145 -281.77447479 281.70459145 -280.66796875 280.55859375 C-279.91896301 279.80251328 -279.16995728 279.0464328 -278.39825439 278.2674408 C-276.00225172 275.84338902 -273.62418247 273.40255379 -271.24609375 270.9609375 C-269.62745167 269.31722653 -268.00767387 267.67463312 -266.38671875 266.03320312 C-262.40989446 262.0011697 -258.44766974 257.9552101 -254.49609375 253.8984375 C-256.47009952 250.91020208 -258.43896758 247.97302766 -260.6171875 245.12890625 C-279.72400279 220.02905952 -290.52743562 190.00378116 -294.49609375 158.8984375 C-294.72039062 157.18527344 -294.72039062 157.18527344 -294.94921875 155.4375 C-295.24651273 152.58191304 -295.40970227 149.76813726 -295.49609375 146.8984375 C-295.51655762 146.26228516 -295.53702148 145.62613281 -295.55810547 144.97070312 C-296.87424233 97.7638109 -281.128895 51.4395897 -248.49609375 16.8984375 C-247.36647142 15.56901802 -246.24130063 14.23580032 -245.12109375 12.8984375 C-223.138892 -12.14521244 -190.5544224 -29.32384977 -158.49609375 -37.1015625 C-157.20783691 -37.41697998 -157.20783691 -37.41697998 -155.89355469 -37.73876953 C-101.41363083 -50.3919773 -42.56919149 -35.84072774 0 0 Z M-53.49609375 64.8984375 C-56.79492599 71.87203892 -56.92919787 78.06661079 -56.90014648 85.70507812 C-56.90700974 86.97111374 -56.91387299 88.23714935 -56.92094421 89.54154968 C-56.93879802 92.99405666 -56.93772231 96.44630841 -56.93200183 99.89884758 C-56.92889926 102.78895008 -56.93501411 105.6790043 -56.94104058 108.5690999 C-56.95505805 115.39002068 -56.95354719 122.21081612 -56.94213867 129.03173828 C-56.9306544 136.05283026 -56.94474436 143.07354039 -56.97153515 150.09458208 C-56.99373006 156.13900699 -57.00032119 162.18331236 -56.99445873 168.2277751 C-56.99109767 171.83076094 -56.99344741 175.43350194 -57.01070976 179.03645325 C-57.02912626 183.05514524 -57.01495309 187.07309926 -56.99780273 191.09179688 C-57.0074707 192.27541306 -57.01713867 193.45902924 -57.02709961 194.67851257 C-56.96576547 201.54960031 -56.2303473 206.07207578 -52.49609375 211.8984375 C-48.69431205 215.1216872 -45.50773006 216.79820477 -40.49609375 216.8984375 C-35.00683961 215.86987903 -31.83619771 213.9281142 -28.57904053 209.2242012 C-26.29955914 204.32872971 -26.82455981 198.90454293 -26.88085938 193.60693359 C-26.87735415 192.26427002 -26.87169105 190.92161061 -26.86404419 189.57896423 C-26.84984638 185.9487152 -26.86680583 182.31922816 -26.89032936 178.6890521 C-26.91049475 174.88373881 -26.904556 171.07845541 -26.90222168 167.27310181 C-26.90227518 160.88604217 -26.9219905 154.4992791 -26.95410156 148.11230469 C-26.99102285 140.73278393 -26.99977204 133.353651 -26.99280405 125.97404993 C-26.98649566 118.8657098 -26.99725749 111.75750234 -27.01676941 104.649189 C-27.02493436 101.6277642 -27.02765465 98.60640729 -27.02607727 95.58497238 C-27.02519731 92.02746669 -27.03944401 88.47032867 -27.0653038 84.91292 C-27.07586212 82.98763489 -27.07179762 81.06228694 -27.06729126 79.13697815 C-27.07864105 77.98748184 -27.08999084 76.83798553 -27.10168457 75.65365601 C-27.10727764 74.15877938 -27.10727764 74.15877938 -27.1129837 72.63370323 C-27.81866877 67.59536976 -30.74847091 64.17760748 -34.49609375 60.8984375 C-41.44545334 58.5819843 -48.63382974 58.85209884 -53.49609375 64.8984375 Z M-153.49609375 94.8984375 C-156.28811795 101.10695438 -156.93384336 106.19110406 -156.90014648 112.95117188 C-156.90700974 113.92460037 -156.91387299 114.89802887 -156.92094421 115.9009552 C-156.9391501 119.09818368 -156.93538395 122.29491863 -156.9296875 125.4921875 C-156.93425182 127.72603514 -156.93955814 129.95988138 -156.9455719 132.19372559 C-156.95449048 136.86732705 -156.95209352 141.54075751 -156.94213867 146.21435547 C-156.93064267 152.19298935 -156.95087706 158.17103315 -156.98005581 164.14958954 C-156.99843044 168.75994594 -156.99812292 173.3701612 -156.99241829 177.98054504 C-156.99226527 180.1844821 -156.99829319 182.38842885 -157.01070976 184.59233093 C-157.02564381 187.67716174 -157.01492481 190.76090554 -156.99780273 193.84570312 C-157.0074707 194.74879715 -157.01713867 195.65189117 -157.02709961 196.58235168 C-156.95912721 202.45237597 -155.88948216 207.02471091 -152.49609375 211.8984375 C-148.69431205 215.1216872 -145.50773006 216.79820477 -140.49609375 216.8984375 C-134.87213173 215.84463791 -131.9110887 213.85793994 -128.57904053 209.05620193 C-126.54024446 204.99391398 -126.8197086 200.82157303 -126.88085938 196.36083984 C-126.87531036 195.32421707 -126.86976135 194.2875943 -126.86404419 193.21955872 C-126.85227334 189.80735448 -126.87649541 186.39648551 -126.90234375 182.984375 C-126.90405534 180.60739197 -126.90398868 178.23040706 -126.90222168 175.85342407 C-126.90387339 170.87866084 -126.9225475 165.90434906 -126.95410156 160.9296875 C-126.99382132 154.55283247 -126.99814074 148.17656734 -126.99063873 141.79961205 C-126.98756995 136.89426264 -126.99968569 131.9890459 -127.01676941 127.08372879 C-127.02379994 124.73219256 -127.02692388 122.38064129 -127.02607727 120.0290947 C-127.0278744 116.74486833 -127.04924866 113.46135006 -127.07617188 110.17724609 C-127.07177597 108.7199131 -127.07177597 108.7199131 -127.06729126 107.23313904 C-127.14793769 100.85895801 -128.19779592 97.48402256 -132.49609375 92.6484375 C-136.00813814 89.57539866 -139.67047877 89.4896327 -144.14453125 89.5625 C-148.09280095 90.12653853 -151.00141878 91.79625101 -153.49609375 94.8984375 Z M-103.49609375 114.8984375 C-105.94537536 120.52393656 -106.93848119 125.01731434 -106.90014648 131.11523438 C-106.90700974 131.89359146 -106.91387299 132.67194855 -106.92094421 133.47389221 C-106.93910003 136.021848 -106.9353915 138.56918153 -106.9296875 141.1171875 C-106.93425419 142.90263059 -106.93956121 144.68807193 -106.9455719 146.47351074 C-106.95448058 150.20555793 -106.95210493 153.93739086 -106.94213867 157.66943359 C-106.93064263 162.43744079 -106.95088149 167.20470805 -106.98005581 171.9726181 C-106.9984532 175.65652107 -106.99811847 179.34024778 -106.99241829 183.02418518 C-106.99226556 184.78155049 -106.99826994 186.53892811 -107.01070976 188.29624939 C-107.02568831 190.75851126 -107.0148943 193.21941937 -106.99780273 195.68164062 C-107.0074707 196.39771988 -107.01713867 197.11379913 -107.02709961 197.85157776 C-106.94972003 203.20986588 -105.48792933 207.43176646 -102.49609375 211.8984375 C-98.69431205 215.1216872 -95.50773006 216.79820477 -90.49609375 216.8984375 C-84.78209673 215.82776745 -81.96071359 213.8104639 -78.57904053 208.94420242 C-76.71910596 205.43065127 -76.8145009 202.10172405 -76.88085938 198.19677734 C-76.87531036 197.35522598 -76.86976135 196.51367462 -76.86404419 195.6466217 C-76.85229777 192.88361461 -76.87646736 190.12226567 -76.90234375 187.359375 C-76.90405597 185.43079706 -76.90398804 183.5022168 -76.90222168 181.57363892 C-76.90387196 177.54040125 -76.92251951 173.5077214 -76.95410156 169.47460938 C-76.99383145 164.30839931 -76.99813878 159.14291739 -76.99063873 153.97658348 C-76.987568 149.99768417 -76.99969238 146.01894817 -77.01676941 142.04008865 C-77.02379249 140.13512827 -77.02692478 138.23014938 -77.02607727 136.32517624 C-77.02787724 133.66354706 -77.0492742 131.00278721 -77.07617188 128.34130859 C-77.07177597 127.16449776 -77.07177597 127.16449776 -77.06729126 125.96391296 C-77.15925631 120.0586879 -78.64902508 116.97638975 -82.49609375 112.6484375 C-86.00813814 109.57539866 -89.67047877 109.4896327 -94.14453125 109.5625 C-98.09280095 110.12653853 -101.00141878 111.79625101 -103.49609375 114.8984375 Z M-203.49609375 144.8984375 C-206.57407278 151.55404569 -206.95004273 157.27987538 -206.9296875 164.5546875 C-206.93492935 165.65639282 -206.9401712 166.75809814 -206.9455719 167.89318848 C-206.95196963 170.2128007 -206.95068442 172.53244547 -206.94213867 174.85205078 C-206.93361978 178.38763464 -206.96243829 181.92160626 -206.99414062 185.45703125 C-206.99575271 187.71874952 -206.99517498 189.98047063 -206.9921875 192.2421875 C-207.00903847 193.81595154 -207.00903847 193.81595154 -207.02622986 195.42150879 C-206.96693073 201.70880742 -206.24183193 206.70508632 -202.49609375 211.8984375 C-198.69431205 215.1216872 -195.50773006 216.79820477 -190.49609375 216.8984375 C-184.99236318 215.86716649 -181.84739923 213.91999351 -178.57789612 209.20928955 C-176.3304996 204.40859674 -176.8310032 199.12162797 -176.90234375 193.921875 C-176.90230347 192.67846344 -176.90226318 191.43505188 -176.90222168 190.15396118 C-176.90893477 186.86421094 -176.93886744 183.57568224 -176.97790527 180.28619385 C-176.99610683 178.27199058 -176.99866011 176.25841632 -176.99511719 174.24414062 C-176.98846609 170.36560208 -177.00355897 166.4878358 -177.02734375 162.609375 C-177.02764587 160.81081558 -177.02764587 160.81081558 -177.0279541 158.97592163 C-177.04386597 157.85771027 -177.05977783 156.7394989 -177.07617188 155.58740234 C-177.08459106 154.60701996 -177.09301025 153.62663757 -177.10168457 152.61654663 C-177.83056842 147.59337283 -180.75563081 144.17134257 -184.49609375 140.8984375 C-191.44545334 138.5819843 -198.63382974 138.85209884 -203.49609375 144.8984375 Z " fill="#000000" transform="translate(448.49609375,41.1015625)"/>
</svg>
