<?xml version="1.0" encoding="UTF-8"?>
<svg version="1.1" xmlns="http://www.w3.org/2000/svg" width="512" height="512">
<path d="M0 0 C36.55331043 -0.06867208 73.10660955 -0.12153181 109.65997121 -0.15319599 C113.9757882 -0.15694809 118.29160507 -0.16083106 122.60742188 -0.16479492 C123.89621973 -0.16597532 123.89621973 -0.16597532 125.21105391 -0.16717956 C139.12163408 -0.18023217 153.03217704 -0.20388523 166.94273514 -0.23145839 C181.21708809 -0.2595166 195.49142156 -0.27617714 209.76580095 -0.28226548 C218.57329823 -0.28638106 227.38069033 -0.29937813 236.18815523 -0.3237494 C242.22841145 -0.33961171 248.26861332 -0.34439923 254.30888885 -0.34050413 C257.79341057 -0.33858335 261.27774854 -0.34152028 264.76223755 -0.35761642 C268.54309522 -0.3725319 272.32350212 -0.36895648 276.10437012 -0.36076355 C277.75030568 -0.37387134 277.75030568 -0.37387134 279.42949247 -0.38724393 C288.23922016 -0.33561073 294.90333718 1.30591089 301.52734375 7.38671875 C306.46481535 12.79567305 307.12557056 18.74914864 307.12025452 25.74505615 C307.12153615 26.76086191 307.12153615 26.76086191 307.12284368 27.797189 C307.12449002 30.06501494 307.11899097 32.33276682 307.11352539 34.60058594 C307.11324331 36.22677102 307.11340166 37.85295623 307.1139679 39.47914124 C307.11425506 43.89406396 307.10837141 48.30895958 307.10139394 52.723876 C307.09514691 57.3376648 307.09455553 61.95145421 307.09336853 66.56524658 C307.0902592 75.30223851 307.08205116 84.03921793 307.07201904 92.77620435 C307.06084556 102.7229018 307.05534433 112.66959985 307.05032361 122.61630201 C307.03986823 143.07754165 307.02227648 163.53877004 307 184 C303.38257756 183.32988486 300.53952923 182.40524082 297.25 180.75 C292.42726204 178.50156136 287.59161474 176.81483225 282.5 175.3125 C281.82485352 175.11043945 281.14970703 174.90837891 280.45410156 174.70019531 C269.80795211 171.6490099 259.56972229 170.60947939 248.5 170.625 C247.84214508 170.62554382 247.18429016 170.62608765 246.50650024 170.62664795 C235.24369476 170.66929135 224.78992848 171.73544416 214 175 C213.27570801 175.21430664 212.55141602 175.42861328 211.80517578 175.64941406 C183.62136829 184.21489769 157.50015373 203.21502047 143.05859375 229.234375 C142.70925781 229.81703125 142.35992187 230.3996875 142 231 C141.67 231 141.34 231 141 231 C141 207.24 141 183.48 141 159 C146.28 158.34 151.56 157.68 157 157 C160.3460566 153.4156676 160.3460566 153.4156676 159.875 149.875 C159.24178043 146.70294174 159.24178043 146.70294174 156 145 C153.91737321 144.69731305 153.91737321 144.69731305 151.59729004 144.73930359 C150.24713554 144.72867638 150.24713554 144.72867638 148.8697052 144.71783447 C147.88467514 144.72031189 146.89964508 144.72278931 145.88476562 144.7253418 C144.84551437 144.72023087 143.80626312 144.71511993 142.73551941 144.70985413 C139.29237141 144.69592768 135.84942285 144.69691705 132.40625 144.69921875 C130.01875738 144.69533384 127.63126544 144.6909996 125.24377441 144.68623352 C120.236875 144.67876498 115.2300461 144.67906745 110.22314453 144.68432617 C103.79670471 144.6901252 97.37055268 144.67318217 90.94416046 144.6499815 C86.01318668 144.63527418 81.08228272 144.6343683 76.15129089 144.63749123 C73.78134083 144.63697662 71.41138701 144.63171294 69.04145813 144.62167931 C65.73252461 144.6093889 62.42415832 144.61606201 59.11523438 144.62768555 C58.13020432 144.62004181 57.14517426 144.61239807 56.1302948 144.60452271 C55.2301918 144.61153702 54.33008881 144.61855133 53.40270996 144.6257782 C52.620317 144.62561046 51.83792404 144.62544271 51.0318222 144.62526989 C48.43318058 145.10453882 47.5502004 145.88308768 46 148 C45.58326793 151.54199641 45.58326793 151.54199641 46 155 C49.56383366 158.56383366 53.87971476 158.22158003 58.75 158.5625 C59.92046875 158.64628906 61.0909375 158.73007813 62.296875 158.81640625 C63.18890625 158.87699219 64.0809375 158.93757812 65 159 C65.37620173 169.17205551 65.65767874 179.34237381 65.82899475 189.52005196 C65.9113642 194.2501352 66.02234905 198.97535471 66.20703125 203.70263672 C67.16558059 228.90553086 65.10999534 246.88713516 50.90287781 268.12094116 C48.28825501 272.07687194 46.04763631 276.19768152 43.8125 280.375 C43.04055252 281.75937311 42.26616053 283.14238875 41.48828125 284.5234375 C38.43737726 289.98584194 35.47250144 295.49466799 32.5 301 C28.3198334 308.73988232 24.09845093 316.4532649 19.80859375 324.1328125 C16.31930501 330.39333699 12.90596515 336.69382787 9.5 343 C5.70687262 350.02300615 1.89132218 357.03090864 -2 364 C-3.66869333 366.99887635 -5.33439061 369.99941002 -7 373 C-7.5372168 373.96534668 -8.07443359 374.93069336 -8.62792969 375.92529297 C-10.38541582 379.09143236 -12.1311432 382.26383668 -13.875 385.4375 C-14.69677734 386.91186523 -14.69677734 386.91186523 -15.53515625 388.41601562 C-22.18069216 400.56668066 -26.18628016 411.26264772 -23.33984375 425.2421875 C-21.26305729 432.30865571 -18.01624377 437.64222474 -13 443 C-12.47664063 443.56460937 -11.95328125 444.12921875 -11.4140625 444.7109375 C-3.05578269 452.74304054 8.2336291 455.11927046 19.44976807 455.13371277 C20.17879483 455.13597833 20.90782159 455.13824388 21.65894008 455.14057809 C24.09067689 455.14688509 26.5223575 455.14609085 28.95410156 455.14526367 C30.7022865 455.14825726 32.45047077 455.15166025 34.19865417 455.15544128 C38.94055816 455.16426601 43.6824441 455.16661878 48.42435551 455.16725707 C51.38972473 455.16796853 54.35508938 455.1701047 57.32045746 455.17275429 C67.67376496 455.18200323 78.0270596 455.18608981 88.38037109 455.18530273 C98.01764039 455.18470233 107.65485365 455.19524809 117.29210877 455.2110464 C125.57682121 455.22414151 133.86151538 455.22948579 142.14623809 455.22884732 C147.08951905 455.22859288 152.0327502 455.2314143 156.97602081 455.24202538 C161.62832009 455.25173933 166.2805223 455.25176299 170.93282509 455.24450874 C172.63471685 455.24346694 174.33661476 455.24580165 176.03849602 455.2518692 C191.38083458 455.30299935 205.39109317 454.25503422 217.375 443.4375 C224.47275373 435.70390583 227.21832952 426.08773259 229 416 C229.6077124 416.0407666 230.2154248 416.0815332 230.84155273 416.12353516 C253.30403523 417.55798586 272.66944292 415.34832588 294 408 C295.25154366 409.70720276 296.50115872 411.41581942 297.75 413.125 C298.44609375 414.07632812 299.1421875 415.02765625 299.859375 416.0078125 C300.91898437 417.48894531 300.91898437 417.48894531 302 419 C302.69319336 419.79277344 303.38638672 420.58554687 304.10058594 421.40234375 C307.27234104 426.22071254 306.56973495 431.99902177 306.53125 437.5546875 C306.5350769 438.77020294 306.53890381 439.98571838 306.54284668 441.23806763 C306.54556438 443.8050418 306.53821328 446.37204374 306.52148438 448.93896484 C306.50011204 452.85447461 306.52127416 456.76814161 306.546875 460.68359375 C306.54423098 463.1822957 306.53910446 465.6809965 306.53125 468.1796875 C306.53934692 469.34450653 306.54744385 470.50932556 306.55578613 471.70944214 C306.4649002 479.64707943 305.35382303 485.03073316 300.10546875 491.2421875 C299.47253906 491.78101563 298.83960938 492.31984375 298.1875 492.875 C297.56230469 493.42929687 296.93710937 493.98359375 296.29296875 494.5546875 C291.41316727 497.63054192 286.15768673 498.24999361 280.49190617 498.25447559 C279.21842982 498.26030779 277.94495348 498.26613998 276.63288695 498.27214891 C275.23231334 498.26851627 273.83174022 498.26469192 272.4311676 498.26069641 C270.93352329 498.26371856 269.43588052 498.26760837 267.93824047 498.27228898 C263.83070286 498.28256941 259.72325253 498.28038705 255.61570776 498.27610838 C251.18277061 498.27364127 246.74985449 498.28265512 242.31692505 498.29014587 C233.63563305 498.30289499 224.95437198 498.30468632 216.27307219 498.30234561 C209.21714429 498.30056264 202.16122578 498.30231164 195.105299 498.30657005 C193.59900212 498.30746284 193.59900212 498.30746284 192.062275 498.30837366 C190.02226059 498.3095854 187.98224618 498.31079954 185.94223177 498.31201603 C166.81139003 498.32289226 147.68056593 498.3207286 128.5497232 498.31463119 C111.04743015 498.30946117 93.54519274 498.32071958 76.0429107 498.33972941 C58.07092797 498.35909976 40.09897158 498.36736527 22.12697834 498.36360615 C12.03730147 498.36169299 1.94767197 498.36419295 -8.14199638 498.37832069 C-16.73076128 498.39022517 -25.31944964 498.39164981 -33.90821557 498.37953053 C-38.28995663 498.37363548 -42.67155763 498.37255972 -47.05328941 498.38453293 C-51.06585224 498.39536996 -55.0781577 498.39231445 -59.09070838 498.37827124 C-60.54083364 498.37561831 -61.99097893 498.37800957 -63.44108456 498.38600711 C-79.99505255 498.47095445 -79.99505255 498.47095445 -86.8125 492.5625 C-87.534375 491.716875 -88.25625 490.87125 -89 490 C-89.556875 489.38125 -90.11375 488.7625 -90.6875 488.125 C-93.74371219 483.17684693 -94.24980494 477.82529079 -94.24609566 472.12597752 C-94.24840335 471.46787674 -94.25071103 470.80977596 -94.25308865 470.13173273 C-94.25836608 467.93509475 -94.24942361 465.73875227 -94.24050903 463.54212952 C-94.24138156 461.94803929 -94.24313342 460.35394935 -94.24568737 458.75986093 C-94.25015556 454.38603362 -94.24216444 450.01230442 -94.23213124 445.6384896 C-94.22349146 440.91941387 -94.22641728 436.20034363 -94.22793579 431.48126221 C-94.22898431 423.30731458 -94.22271118 415.1333989 -94.21146011 406.9594593 C-94.19520358 395.14132987 -94.18999695 383.32321587 -94.18748413 371.50507646 C-94.18310727 352.33076813 -94.16979841 333.15647682 -94.15087891 313.98217773 C-94.13251988 295.35652756 -94.11836348 276.73088201 -94.10986328 258.10522461 C-94.10933783 256.95707038 -94.10881239 255.80891614 -94.10827102 254.62596936 C-94.10566094 248.86599639 -94.10313352 243.1060234 -94.10064721 237.34605038 C-94.079915 189.56402182 -94.0446897 141.78201174 -94 94 C-92.87913498 93.99413376 -91.75826996 93.98826752 -90.60343933 93.98222351 C-80.0527559 93.92507036 -69.50228005 93.85234778 -58.95180798 93.76428509 C-53.52737595 93.71951146 -48.10302025 93.68027083 -42.6784668 93.65356445 C-37.44582423 93.62760117 -32.21347429 93.5872485 -26.98101234 93.53681374 C-24.98231959 93.52009771 -22.98357618 93.50861302 -20.98482323 93.50238609 C-18.19033325 93.49279638 -15.39659998 93.46479921 -12.60229492 93.43237305 C-11.35612396 93.43452568 -11.35612396 93.43452568 -10.08477783 93.4367218 C-5.92112047 93.47105916 -5.92112047 93.47105916 -2.28882599 91.71117401 C-0.03149508 88.71411621 -0.56138927 85.00873082 -0.56762695 81.39770508 C-0.5574353 80.51944565 -0.54724365 79.64118622 -0.53674316 78.73631287 C-0.5065264 75.83065484 -0.49733399 72.92532599 -0.48828125 70.01953125 C-0.471441 68.00598548 -0.45329165 65.99245027 -0.43388367 63.97892761 C-0.38630656 58.67712705 -0.35654707 53.37536928 -0.33044434 48.07342529 C-0.3006777 42.66409859 -0.25413403 37.25491943 -0.20898438 31.84570312 C-0.12286353 21.2305458 -0.05555732 10.61535819 0 0 Z M79 53 C78.33333333 56 78.33333333 56 79 59 C81.19891398 61.93747487 82.38399598 62.89807778 86.04226685 63.50336456 C87.84303177 63.50562672 87.84303177 63.50562672 89.68017578 63.50793457 C90.3504738 63.51417453 91.02077183 63.5204145 91.71138191 63.52684355 C93.95638377 63.54279259 96.20030269 63.53016303 98.4453125 63.51757812 C100.05516188 63.52299844 101.6650063 63.53012059 103.27484131 63.53881836 C107.64675795 63.55706558 112.01829734 63.54997852 116.39022064 63.53730202 C120.96344527 63.52718155 125.5366374 63.53656504 130.10986328 63.54284668 C137.79009811 63.55012587 145.47017914 63.54052827 153.15039062 63.52148438 C162.03235004 63.49971508 170.9139422 63.50676626 179.79589272 63.52879 C187.41893472 63.54693627 195.0418661 63.54950611 202.66492271 63.53903532 C207.21907955 63.53279612 211.7730637 63.53197641 216.32720947 63.54518127 C220.60861673 63.55672797 224.88955006 63.54873596 229.17090607 63.52560425 C230.74307722 63.52031079 232.31528818 63.52184184 233.88744354 63.53065491 C236.03211058 63.54156976 238.17525453 63.52789888 240.31982422 63.50793457 C241.52033417 63.50642647 242.72084412 63.50491837 243.95773315 63.50336456 C247.62607406 62.89641162 248.81835233 61.96912483 251 59 C251.60532836 54.42828781 251.60532836 54.42828781 249.88502407 50.30938625 C247.07472243 48.35727838 244.80103117 48.61915232 241.40211487 48.61231995 C240.72858772 48.60693441 240.05506057 48.60154887 239.3611235 48.59600013 C237.09936964 48.58166787 234.83819672 48.58883689 232.57641602 48.59594727 C230.95686369 48.59024641 229.33731538 48.58328326 227.71777344 48.57514954 C223.31487267 48.55717109 218.91217069 48.55839531 214.5092442 48.56409192 C210.83614088 48.56717712 207.1630761 48.56109877 203.48997825 48.55505317 C194.82588728 48.54099408 186.16189488 48.54258064 177.49780273 48.55395508 C168.5539604 48.56543719 159.61041789 48.55136228 150.66661507 48.5245586 C142.99264872 48.50241999 135.3187766 48.49576008 127.64478058 48.50163502 C123.05929796 48.50501028 118.47400754 48.50255193 113.88855171 48.48538399 C109.57680981 48.46994619 105.26551287 48.47383488 100.95378876 48.49268913 C99.37032343 48.49638388 97.78682536 48.4932408 96.20339012 48.48280334 C94.04336628 48.46965111 91.88482808 48.48108711 89.72486877 48.49879456 C88.51568566 48.49900384 87.30650255 48.49921312 86.06067753 48.49942875 C82.38811354 49.10007352 81.20402438 50.05001756 79 53 Z M40 96 C38.10787807 98.52282924 37.99757301 99.8810774 38.0625 103.0625 C38.73455388 106.09396874 38.73455388 106.09396874 41.04340267 107.66020489 C44.81839319 109.37085848 48.17962472 109.41320415 52.24305725 109.3742218 C53.48254841 109.38018341 53.48254841 109.38018341 54.74707979 109.38626546 C57.51393498 109.39588433 60.28027835 109.38407289 63.04711914 109.37231445 C65.031491 109.37474253 67.01586163 109.37846201 69.00022888 109.38337708 C74.38852455 109.39278684 79.7766386 109.38336016 85.16492009 109.37004495 C90.8004937 109.35873496 96.43605832 109.36283757 102.07164001 109.36479187 C111.53485077 109.36567492 120.99798991 109.35459162 130.46118164 109.33618164 C141.4078814 109.31500778 152.35447626 109.31150539 163.30119234 109.3177436 C173.82561509 109.32343447 184.35000084 109.31779525 194.87441826 109.30657005 C199.35639568 109.30192103 203.83835049 109.30105152 208.32032967 109.3031559 C213.59557846 109.30503693 218.87072021 109.29694914 224.1459446 109.2810955 C226.08417061 109.27684634 228.02240746 109.27600633 229.96063614 109.27878571 C232.6018511 109.28199906 235.2427445 109.2729471 237.88392639 109.26069641 C239.04029078 109.2663654 239.04029078 109.2663654 240.22001606 109.27214891 C243.93359842 109.24158078 246.91095177 109.20212692 250 107 C251.56430248 103.87139505 251.35627284 101.44397075 251 98 C248.15361615 94.88798913 246.44920608 94.05948877 242.24122524 93.50222206 C240.74658901 93.4828909 239.25157015 93.48552128 237.75694275 93.50552368 C236.93061531 93.50069485 236.10428787 93.49586602 235.25292021 93.49089086 C232.48591814 93.47962524 229.71984133 93.49693475 226.95288086 93.51416016 C224.9685084 93.51201417 222.98413717 93.5081363 220.99977112 93.50265503 C215.611417 93.49295798 210.22339399 93.5082692 204.83507991 93.52856112 C199.1995104 93.5461211 193.56395128 93.54260725 187.92835999 93.5418396 C178.46512303 93.54371287 169.00201432 93.56108112 159.53881836 93.58837891 C148.5921153 93.61983902 137.64555266 93.63037479 126.69880766 93.6289078 C116.17437916 93.62768779 105.64999648 93.63789303 95.12558174 93.65449142 C90.64360764 93.66155905 86.16164974 93.6652182 81.67967033 93.66627884 C76.40441294 93.66828555 71.12927379 93.68047752 65.8540554 93.70061111 C63.91583225 93.70646047 61.97759549 93.70891198 60.03936386 93.70775604 C57.39814077 93.7067768 54.75725041 93.71806435 52.11607361 93.73257446 C51.34516402 93.72947726 50.57425443 93.72638005 49.77998394 93.723189 C46.05165228 93.75712366 43.12077615 93.83464526 40 96 Z " fill="#000000" transform="translate(101,7)"/>
<path d="M0 0 C0.98870087 0.00081573 0.98870087 0.00081573 1.99737549 0.00164795 C12.98518911 0.04321429 22.98607267 1.00315509 33.4375 4.375 C34.11377441 4.58398926 34.79004883 4.79297852 35.48681641 5.00830078 C63.17883514 13.75418321 84.77215246 33.54036435 98.37890625 58.93359375 C110.95617895 83.57784407 113.98453205 114.99709073 105.4375 141.375 C101.45749256 152.84164961 96.2245081 163.32084172 89.4375 173.375 C94.74409879 177.76106634 100.07173907 182.10800633 105.50756836 186.33251953 C118.02800718 196.06888431 129.92234187 206.47116012 141.4375 217.375 C142.23414063 218.12910156 143.03078125 218.88320313 143.8515625 219.66015625 C151.75427825 227.34088561 157.28134586 234.9436391 157.8125 246.375 C157.27066397 257.59552111 151.5110537 267.2209362 143.46875 274.8046875 C135.35720385 281.07553664 126.11028839 282.97287961 116.03125 282.1875 C103.17392014 280.01443016 95.46248344 270.65694409 88.18722534 260.65637207 C85.24137186 256.47757444 82.42874418 252.21235676 79.625 247.9375 C78.75357981 246.61971218 77.88191329 245.30208722 77.01000977 243.98461914 C68.8578607 231.629857 61.03032968 219.0808463 53.4375 206.375 C50.0081529 207.47436008 46.64005971 208.67083799 43.29296875 209.99609375 C14.34208073 221.36310371 -15.77121533 221.64827404 -44.5625 209.375 C-71.98180963 197.18563045 -91.39928442 174.89576881 -102.5625 147.375 C-112.37755561 121.13645646 -111.3782053 90.72735268 -100.30859375 65.0546875 C-87.4230914 37.4439565 -66.79517589 17.92063103 -38.5625 6.375 C-25.77166465 1.73958968 -13.57687808 -0.01897899 0 0 Z M-64.5625 43.375 C-65.17609375 43.91382813 -65.7896875 44.45265625 -66.421875 45.0078125 C-72.41149005 50.47539688 -76.45781381 57.459275 -80.5625 64.375 C-81.06007813 65.2103125 -81.55765625 66.045625 -82.0703125 66.90625 C-92.95549559 86.89664914 -94.76794986 112.41218147 -88.8828125 134.1640625 C-85.15815622 146.55097624 -79.46690816 157.16283631 -71.5625 167.375 C-70.94890625 168.17292969 -70.3353125 168.97085938 -69.703125 169.79296875 C-54.8829857 187.68480359 -31.47352415 199.61760667 -8.4609375 201.78515625 C18.56830777 203.97196944 42.7993395 195.89376242 63.4375 178.375 C80.32227787 163.84760822 90.66400345 142.30376709 93.4375 120.375 C95.0395043 91.46382867 89.1157495 67.05788101 69.62109375 45.15234375 C54.90007611 29.30769766 32.76629109 17.49187819 11.00805664 16.23461914 C-18.94042469 15.17755189 -42.46757565 22.2843904 -64.5625 43.375 Z " fill="#000000" transform="translate(347.5625,191.625)"/>
<path d="M0 0 C33.99 0 67.98 0 103 0 C105.31 5.28 107.62 10.56 110 16 C111.96199872 19.70996121 113.90288447 23.37421784 116 27 C113.47170388 25.78226774 111.28226535 24.51662769 108.9375 22.9375 C103.44625108 19.82813896 97.45405694 19.28103327 91.31640625 20.55859375 C84.92874825 22.74614786 80.69135086 26.36859258 77 32 C74.10984326 38.05278616 73.80673463 44.37923341 75.91015625 50.76171875 C78.92085218 57.23810324 82.20131814 61.14482979 88.6875 64.3125 C96.18446464 65.86847379 102.64783547 65.93062268 109.34375 61.97265625 C111 61 111 61 114 60 C115.08431094 58.25132517 115.08431094 58.25132517 116 56 C116.515625 55.13375 117.03125 54.2675 117.5625 53.375 C120.67881952 46.05842375 120.35078531 39.46720041 118 32 C118.66 32 119.32 32 120 32 C121.45402342 33.6376272 122.83848678 35.33734196 124.1875 37.0625 C140.50382577 57.29680605 162.47946268 69.25667242 187 77 C187.49672714 86.27223996 185.22327076 92.01476854 179.3046875 99.140625 C170.49665177 106.24676908 160.59718202 105.57080857 149.84741211 105.51757812 C148.00686592 105.52300417 146.16632408 105.53012954 144.32579041 105.53881836 C139.34649706 105.5569959 134.3675366 105.55000755 129.38823771 105.53730202 C124.16828589 105.52714698 118.94836181 105.5365745 113.72840881 105.54284668 C104.96496483 105.55011515 96.20165588 105.5405557 87.43823242 105.52148438 C77.31623836 105.49971042 67.19456655 105.50677408 57.07258028 105.52879 C48.36998236 105.54695868 39.66748128 105.54949533 30.96487051 105.53903532 C25.77238882 105.53280936 20.58005847 105.53194024 15.38758659 105.54518127 C10.50613551 105.55676074 5.62509885 105.5486757 0.7436924 105.52560425 C-1.04449908 105.52032866 -2.83272562 105.5218112 -4.62090302 105.53065491 C-7.06817446 105.54163975 -9.51413059 105.52781286 -11.96131897 105.50793457 C-12.66337544 105.51685746 -13.36543191 105.52578034 -14.08876282 105.53497362 C-21.30835878 105.42177288 -27.92772666 102.07227334 -33 97 C-37.96089031 89.39704914 -39.83669929 83.07327714 -39 74 C-36.58876621 65.80447438 -32.12008233 58.27763751 -28.0625 50.8125 C-27.39758803 49.58010378 -26.73287757 48.34759882 -26.06835938 47.11499023 C-21.31216749 38.31597081 -16.44321693 29.58192092 -11.47680664 20.8996582 C-7.52635835 13.98947579 -3.77833532 7.01690845 0 0 Z M1.79296875 48.21484375 C-3.08308129 53.06964738 -6.10388559 58.70778536 -6.3125 65.625 C-6.20872025 72.10651698 -4.51921934 77.07133643 -0.26953125 82.01171875 C4.80033014 86.83871252 10.20700485 89.81187903 17.2890625 90.08984375 C24.46238436 89.60915723 30.40779394 87.04128387 35.3125 81.75 C39.46164969 76.44768064 41.59912336 70.77195985 41.28125 64.00390625 C40.31377067 57.11061605 37.19686526 51.61163269 32 47 C22.02236268 40.30768229 11.08919682 40.66281815 1.79296875 48.21484375 Z " fill="#000000" transform="translate(130,342)"/>
<path d="M0 0 C15.84 0 31.68 0 48 0 C48.03738281 6.21070313 48.07476562 12.42140625 48.11328125 18.8203125 C48.14356171 22.75784012 48.17471008 26.69532257 48.20898438 30.6328125 C48.26328829 36.88083615 48.31439923 43.12877045 48.34643555 49.37695312 C48.37246883 54.4150982 48.41287172 59.4529429 48.46318626 64.49090195 C48.47985475 66.41175471 48.49136914 68.33265943 48.49761391 70.25357437 C48.50725511 72.94687544 48.53531466 75.6394081 48.56762695 78.33251953 C48.56619186 79.12446213 48.56475677 79.91640472 48.5632782 80.73234558 C48.64602285 85.61776905 49.63411111 88.63359979 52 93 C51.76055123 97.98766694 50.65456896 102.60316523 49.48876953 107.44287109 C47.35498301 116.61494017 46.62042065 125.46181889 46.625 134.875 C46.62363037 135.96659424 46.62226074 137.05818848 46.62084961 138.18286133 C46.73007578 146.38963476 47.8192818 153.73497258 49 162 C19.3 162 -10.4 162 -41 162 C-39.42147533 158.05368832 -37.75038714 154.49416587 -35.76171875 150.7578125 C-35.44463959 150.16130386 -35.12756042 149.56479523 -34.8008728 148.95021057 C-33.76616577 147.00681067 -32.72712945 145.06577055 -31.6875 143.125 C-31.33162811 142.45860504 -30.97575623 141.79221008 -30.60910034 141.10562134 C-25.41078656 131.37525017 -20.10646765 121.71254998 -14.60229492 112.15087891 C-13.64748781 110.48631082 -12.70621597 108.81389902 -11.7792511 107.13366699 C-10.48748139 104.8585659 -9.15973261 102.66442814 -7.76123047 100.45822144 C-0.79019633 89.01781146 0.28322956 79.50862526 0.09765625 66.30859375 C0.1033253 64.38231394 0.11295728 62.45604217 0.12632751 60.52980042 C0.15068694 55.52017282 0.12211846 50.51227373 0.08154297 45.50280762 C0.04400387 39.46021623 0.07393327 33.41760793 0.09221649 27.37497711 C0.11244422 18.24895768 0.04835278 9.12707064 0 0 Z " fill="#000000" transform="translate(180,166)"/>
<path d="M0 0 C0 24.75 0 49.5 0 75 C-24.75 75 -49.5 75 -75 75 C-73.37905346 71.75810692 -72.4949581 70.24450217 -70.07751465 67.82354736 C-69.4802507 67.22064377 -68.88298676 66.61774017 -68.2676239 65.99656677 C-67.61405411 65.34704544 -66.96048431 64.69752411 -66.28710938 64.02832031 C-65.25273491 62.98868889 -65.25273491 62.98868889 -64.19746399 61.92805481 C-61.91789749 59.63968891 -59.63109686 57.3587121 -57.34375 55.078125 C-55.75926906 53.49229721 -54.17508514 51.90617259 -52.59118652 50.31976318 C-49.27220606 46.99783414 -45.94963437 43.67955013 -42.62451172 40.36376953 C-38.35355214 36.10422282 -34.0916574 31.83573686 -29.83238983 27.56450272 C-26.5641692 24.28907223 -23.29122123 21.0183991 -20.01679993 17.7491684 C-18.44278442 16.17649084 -16.87026366 14.60231585 -15.29924011 13.02664948 C-13.10857992 10.83093645 -10.91165684 8.64169308 -8.71289062 6.45410156 C-8.05932083 5.79648331 -7.40575104 5.13886505 -6.7323761 4.46131897 C-2.22852968 0 -2.22852968 0 0 0 Z " fill="#000000" transform="translate(87,12)"/>
<path d="M0 0 C2.09765625 0.52734375 2.09765625 0.52734375 4.16015625 2.08984375 C5.52081515 5.6275569 5.86412401 8.84099883 5.09765625 12.52734375 C3.03515625 15.52734375 3.03515625 15.52734375 0.09765625 17.52734375 C-4.03083306 18.19085096 -6.10167993 17.96248713 -9.77734375 15.96484375 C-12.56839683 12.76334169 -12.90234375 10.74628646 -12.90234375 6.52734375 C-10.0212358 0.04485087 -6.57952718 -0.95215922 0 0 Z " fill="#000000" transform="translate(150.90234375,399.47265625)"/>
<path d="M0 0 C3.59006454 0.80332137 4.97678728 2.4476028 6.97265625 5.44140625 C7.64904683 8.46421371 7.42824466 10.25228738 6.97265625 13.44140625 C4.83010473 16.78378663 3.36983127 17.33308579 -0.46484375 18.37890625 C-4.47137526 18.44919628 -5.97088893 17.97389739 -9.02734375 15.44140625 C-11.1283597 12.76738595 -11.02581351 11.3985594 -10.90234375 7.94140625 C-9.33678125 1.67915626 -6.62037403 -0.38361046 0 0 Z " fill="#000000" transform="translate(229.02734375,375.55859375)"/>
</svg>
