<?xml version="1.0" encoding="UTF-8"?>
<svg version="1.1" xmlns="http://www.w3.org/2000/svg" width="1000" height="1000">
<path d="M0 0 C174.57 0 349.14 0 529 0 C529 109.23 529 218.46 529 331 C525.36763981 330.09190995 522.91761398 329.02143667 519.66015625 327.26171875 C518.0824646 326.41202515 518.0824646 326.41202515 516.47290039 325.54516602 C515.34746826 324.93213623 514.22203613 324.31910645 513.0625 323.6875 C511.88212547 323.04801191 510.70170499 322.40860862 509.52124023 321.76928711 C501.63209619 317.48543286 493.81215072 313.08749908 486.03393555 308.60546875 C475.5852103 302.58908742 465.02804147 296.76846753 454.48046875 290.92773438 C434.92754981 280.097919 415.41139943 269.20347954 395.91601562 258.27050781 C392.81924626 256.534084 389.72222338 254.79811386 386.625 253.0625 C385.60019531 252.48822266 384.57539062 251.91394531 383.51953125 251.32226562 C375.81515846 247.00839397 368.09677997 242.72011713 360.375 238.4375 C351.12406394 233.30621402 341.90094184 228.1288365 332.69824219 222.91162109 C324.2352552 218.11962622 315.7355537 213.39500115 307.22924805 208.68041992 C301.48195038 205.49390167 295.74057649 202.29764836 290.01171875 199.078125 C288.88620605 198.44575928 287.76069336 197.81339355 286.60107422 197.16186523 C284.47289484 195.96506057 282.34555884 194.76675444 280.21923828 193.56665039 C278.32938039 192.50409937 276.43187974 191.45498294 274.52563477 190.42211914 C272 189 272 189 269.90991211 187.52905273 C267.85508205 186.18079033 266.43017876 185.39627782 264 185 C259.92414823 186.14966057 256.53533279 188.24216252 252.9375 190.4375 C251.88602783 191.04352051 250.83455566 191.64954102 249.7512207 192.27392578 C247.55905726 193.53964993 245.37442827 194.81850701 243.19726562 196.10986328 C239.32139159 198.40117489 235.40248014 200.60868298 231.4753418 202.81054688 C228.63543271 204.4042186 225.80357377 206.01151151 222.97265625 207.62109375 C216.54548565 211.26640259 210.08709628 214.85456466 203.625 218.4375 C194.90580518 223.27248151 186.19573573 228.12294632 177.5 233 C168.80426348 237.87705413 160.09410681 242.72735895 151.375 247.5625 C143.0629773 252.17292717 134.76868727 256.81229702 126.5 261.5 C117.09145397 266.8339143 107.6458244 272.0986792 98.1875 277.34375 C90.61464679 281.54418225 83.05294703 285.76388597 75.5 290 C66.80426376 294.87705397 58.09414017 299.72741936 49.375 304.5625 C39.81317599 309.86537866 30.27683888 315.2108935 20.77099609 320.61352539 C18.18408079 322.08185948 15.59350051 323.5433301 13 325 C12.00097656 325.56187012 11.00195312 326.12374023 9.97265625 326.70263672 C8.48572266 327.52852295 8.48572266 327.52852295 6.96875 328.37109375 C6.06576172 328.87439209 5.16277344 329.37769043 4.23242188 329.89624023 C2 331 2 331 0 331 C0 221.77 0 112.54 0 0 Z " fill="#FF6718" transform="translate(236,483)"/>
<path d="M0 0 C174.57 0 349.14 0 529 0 C529 23.76 529 47.52 529 72 C354.43 72 179.86 72 0 72 C0 48.24 0 24.48 0 0 Z " fill="#FF6618" transform="translate(236,348)"/>
<path d="M0 0 C174.57 0 349.14 0 529 0 C529 23.43 529 46.86 529 71 C354.43 71 179.86 71 0 71 C0 47.57 0 24.14 0 0 Z " fill="#FF6718" transform="translate(236,213)"/>
</svg>
