<?xml version="1.0" encoding="UTF-8"?>
<svg version="1.1" xmlns="http://www.w3.org/2000/svg" width="1002" height="1002">
<path d="M0 0 C330.66 0 661.32 0 1002 0 C1002 330.66 1002 661.32 1002 1002 C671.34 1002 340.68 1002 0 1002 C0 671.34 0 340.68 0 0 Z " fill="#FEFEFE" transform="translate(0,0)"/>
<path d="M0 0 C2.95908553 1.2967838 4.66757459 2.48352175 6.55859375 5.09765625 C7.02015869 5.72567139 7.48172363 6.35368652 7.95727539 7.00073242 C8.44574951 7.68111572 8.93422363 8.36149902 9.4375 9.0625 C10.50705544 10.51878548 11.57739456 11.97449567 12.6484375 13.4296875 C13.47553223 14.56035645 13.47553223 14.56035645 14.31933594 15.71386719 C21.70230441 25.75659188 29.32303651 35.57133118 37.453125 45.01953125 C39.85394261 47.82907701 42.18351664 50.68332476 44.5 53.5625 C48.14474775 58.04684143 51.98117885 62.29736126 55.91845703 66.52197266 C58.88485992 69.72395195 61.66471543 73.017379 64.375 76.4375 C68.34674289 81.38074835 72.67401846 85.82639378 77.22021484 90.23413086 C80.05034694 92.98983215 82.73236315 95.80091934 85.30859375 98.796875 C89.46503764 103.60721248 93.93326388 108.07972966 98.4375 112.5625 C99.24509766 113.37396484 100.05269531 114.18542969 100.88476562 115.02148438 C105.23158257 119.36129598 109.66105182 123.52736065 114.31811523 127.53198242 C116.25384366 129.22156509 118.04435246 131.01161266 119.8125 132.875 C123.63718529 136.75921347 127.77402593 140.11688443 132.0234375 143.5234375 C135.23681816 146.19703768 138.27312489 149.00807171 141.3125 151.875 C146.25968063 156.52159244 151.39657589 160.7886126 156.77319336 164.92749023 C160.74290219 167.98833168 164.58052759 171.16274609 168.375 174.4375 C175.06833669 180.18926323 182.12220354 185.42042663 189.21289062 190.66796875 C192.85625175 193.38356688 196.43261012 196.18572576 200 199 C196.16063731 203.23653814 191.80235191 206.38157959 187.16015625 209.69921875 C172.89844446 220.08259111 159.40240098 231.54371131 146 243 C145.39607422 243.5161084 144.79214844 244.0322168 144.16992188 244.56396484 C136.42972632 251.19236484 128.80863665 257.92529348 121.35791016 264.87768555 C118.77880875 267.2816117 116.17957968 269.6623993 113.57424927 272.03790283 C106.19512858 278.78727123 99.07229907 285.77345831 92.01367188 292.85595703 C90.10921495 294.76582994 88.19939181 296.67022149 86.2890625 298.57421875 C79.7692872 305.09023839 73.32784783 311.60025072 67.5559082 318.80175781 C66.40523556 320.22978259 65.2076519 321.6198264 64 323 C63.34 323 62.68 323 62 323 C61.76410156 323.55558594 61.52820313 324.11117188 61.28515625 324.68359375 C59.6872248 327.56375591 57.694995 329.66369076 55.4375 332.0625 C50.85977681 336.99780632 46.56757401 342.10842203 42.34130859 347.34960938 C40.79812963 349.248388 39.23809203 351.13255739 37.67578125 353.015625 C27.47648057 365.31219956 17.75615203 377.87440588 8.34765625 390.78515625 C7.18556641 392.37650391 7.18556641 392.37650391 6 394 C5.16275391 395.20462891 5.16275391 395.20462891 4.30859375 396.43359375 C3.87675781 396.95050781 3.44492187 397.46742188 3 398 C2.34 398 1.68 398 1 398 C-0.5831911 395.96925295 -2.05003993 393.93578442 -3.5 391.8125 C-4.40831073 390.51303097 -5.31851168 389.21488141 -6.23046875 387.91796875 C-6.69372559 387.25845215 -7.15698242 386.59893555 -7.63427734 385.91943359 C-14.31248904 376.53364519 -21.6738409 367.64400468 -28.9609375 358.73046875 C-31.42136465 355.71898474 -33.84293276 352.67938612 -36.25 349.625 C-39.57375209 345.45114779 -43.11294165 341.51223139 -46.7109375 337.57421875 C-49.08408036 334.90544547 -51.32701251 332.15975675 -53.5625 329.375 C-56.86897385 325.28647321 -60.33487036 321.54966723 -64.10546875 317.890625 C-65.98239843 316.01756528 -67.71321569 314.07614696 -69.4375 312.0625 C-72.74690646 308.20783664 -76.31452415 304.66770669 -79.9296875 301.1015625 C-81.63499113 299.37051844 -83.21627888 297.63097874 -84.75 295.75 C-87.64293135 292.21419501 -90.61488375 289.01076051 -94.3125 286.3125 C-94.869375 285.879375 -95.42625 285.44625 -96 285 C-96 284.34 -96 283.68 -96 283 C-96.53109375 282.79761719 -97.0621875 282.59523438 -97.609375 282.38671875 C-101.04226533 280.39541799 -103.50870155 277.65516607 -106.25 274.8125 C-110.32699895 270.65922682 -114.41479798 266.63083982 -118.85546875 262.86328125 C-121.1618466 260.85937918 -123.39228985 258.7873321 -125.62451172 256.70166016 C-130.94943837 251.72792913 -136.36664727 246.97444461 -142.0546875 242.4140625 C-144.94134085 240.04807872 -147.74934522 237.61232805 -150.55249023 235.14892578 C-156.34166924 230.06153142 -162.17100332 225.25576966 -168.4765625 220.80859375 C-170.9540542 219.0329302 -173.32190676 217.17155331 -175.6875 215.25 C-182.63048596 209.62359322 -189.83283912 204.33535549 -197 199 C-193.56176197 195.4292794 -190.03224563 192.36857867 -186.0625 189.375 C-184.90966561 188.49934349 -183.75733961 187.62301735 -182.60546875 186.74609375 C-182.0129834 186.2960498 -181.42049805 185.84600586 -180.81005859 185.38232422 C-168.26504303 175.80181732 -156.06936592 165.79913879 -144.04296875 155.578125 C-143.03878906 154.72734375 -142.03460937 153.8765625 -141 153 C-140.45553223 152.52498047 -139.91106445 152.04996094 -139.35009766 151.56054688 C-135.21740946 148 -135.21740946 148 -133 148 C-132.67 147.01 -132.34 146.02 -132 145 C-130.42638552 143.60639308 -128.79004275 142.28297912 -127.125 141 C-121.96233551 136.88861739 -117.38991454 132.5267233 -112.80078125 127.7734375 C-110.77352096 125.76596915 -108.77608569 123.93557218 -106.609375 122.09765625 C-100.42912603 116.74643844 -94.73185288 110.88043133 -88.96362305 105.09399414 C-86.94235732 103.0673702 -84.91580426 101.04614453 -82.88867188 99.02539062 C-74.42035928 90.57513844 -74.42035928 90.57513844 -66.4309082 81.67602539 C-63.93333304 78.75061104 -61.26379075 75.98498161 -58.625 73.1875 C-53.98133786 68.2250707 -49.56377319 63.15393289 -45.3125 57.84765625 C-42.58400871 54.48774045 -39.76643644 51.21281001 -36.9375 47.9375 C-32.16077091 42.39040298 -27.50490463 36.77163029 -23 31 C-22.25621094 30.05253906 -21.51242187 29.10507813 -20.74609375 28.12890625 C-13.5892092 18.92719754 -6.78275573 9.47953332 0 0 Z " fill="#000000" transform="translate(711,98)"/>
<path d="M0 0 C330.66 0 661.32 0 1002 0 C1002 330.66 1002 661.32 1002 1002 C671.34 1002 340.68 1002 0 1002 C0 671.34 0 340.68 0 0 Z M15 14 C15 335.09 15 656.18 15 987 C335.76 987 656.52 987 987 987 C987 665.91 987 344.82 987 14 C666.24 14 345.48 14 15 14 Z " fill="#040404" transform="translate(0,0)"/>
<path d="M0 0 C8.81286982 4.19451681 14.34646778 10.72825697 18.5625 19.4375 C21.56616357 29.68334491 20.78438892 42.5308068 16.02734375 51.9921875 C10.88139064 60.58249857 4.14979295 65.10510995 -5.546875 68.0859375 C-13.84335585 69.62867154 -21.91883889 68.1842663 -29.1171875 63.80859375 C-35.32779471 59.24739112 -38.64796669 54.56243298 -41.4375 47.4375 C-41.80359375 46.69628906 -42.1696875 45.95507812 -42.546875 45.19140625 C-43.80749455 41.29343791 -43.72759969 37.6326183 -43.6875 33.5625 C-43.69523437 32.78519531 -43.70296875 32.00789062 -43.7109375 31.20703125 C-43.67845017 21.54205111 -40.62977433 14.78097993 -34.4375 7.4375 C-24.64246163 -1.58374921 -12.8639606 -4.62703699 0 0 Z " fill="#0A0A0A" transform="translate(164.4375,652.5625)"/>
<path d="M0 0 C2.44157886 1.45719627 4.57884888 3.10257271 6.81640625 4.8515625 C9.7100705 6.37345389 11.03026086 5.98394113 14.125 5.0625 C16.95729421 3.97115728 19.55194693 2.71341217 22.25 1.3125 C28.66203174 -0.93171111 36.17445676 -1.65714776 42.54296875 1.1015625 C46.92749277 4.17813282 50.09134762 7.94979651 52 13 C52.54132133 17.24434976 52.46621818 21.44207737 52.390625 25.71484375 C52.38496521 26.92572159 52.37930542 28.13659943 52.37347412 29.38417053 C52.35115882 33.23568958 52.30096835 37.08626409 52.25 40.9375 C52.22992887 43.55532507 52.21167918 46.17316478 52.1953125 48.79101562 C52.1513094 55.19437203 52.08231264 61.59702609 52 68 C47.71 68 43.42 68 39 68 C38.98541748 66.47600586 38.97083496 64.95201172 38.95581055 63.38183594 C38.89786658 57.73104308 38.82063288 52.08065034 38.73754883 46.43017578 C38.70428123 43.98395274 38.67625509 41.5376526 38.65356445 39.09130859 C38.62005292 35.57616295 38.56773724 32.06172505 38.51171875 28.546875 C38.50532883 27.4519574 38.4989389 26.35703979 38.49235535 25.22894287 C38.47256119 24.20818665 38.45276703 23.18743042 38.43237305 22.13574219 C38.42126999 21.23861511 38.41016693 20.34148804 38.39872742 19.41717529 C37.92031883 16.51695483 37.0072614 15.1219118 35 13 C32.61214114 12.36426078 32.61214114 12.36426078 29.9375 12.5 C29.05964844 12.4896875 28.18179688 12.479375 27.27734375 12.46875 C22.74184935 13.08171491 22.74184935 13.08171491 14 17 C13.67 33.5 13.34 50 13 67 C8.71 67 4.42 67 0 67 C-0.029729 64.85818237 -0.029729 64.85818237 -0.06005859 62.6730957 C-0.13618343 57.37083428 -0.22489066 52.0688448 -0.31738281 46.7668457 C-0.35564405 44.47295504 -0.39050189 42.17900497 -0.421875 39.88500977 C-0.46758706 36.5858844 -0.52557222 33.28716704 -0.5859375 29.98828125 C-0.59748871 28.96414627 -0.60903992 27.94001129 -0.62094116 26.88484192 C-0.64081085 25.92422348 -0.66068054 24.96360504 -0.68115234 23.97387695 C-0.69447601 23.13226517 -0.70779968 22.29065338 -0.7215271 21.42353821 C-1.04075943 18.64527239 -1.76963353 16.50692561 -3 14 C-6.75726237 12.12136882 -10.9096942 12.46598785 -15 13 C-17.80495901 14.11419205 -20.34803997 15.41344049 -22.96875 16.90625 C-25 18 -25 18 -27 18 C-27 34.17 -27 50.34 -27 67 C-30.96 67 -34.92 67 -39 67 C-39 45.22 -39 23.44 -39 1 C-35.04 1 -31.08 1 -27 1 C-27 2.98 -27 4.96 -27 7 C-25.71029297 6.24203125 -25.71029297 6.24203125 -24.39453125 5.46875 C-16.44865743 1.01257978 -9.3219404 -2.0660765 0 0 Z " fill="#080808" transform="translate(493,651)"/>
<path d="M0 0 C4.29 0 8.58 0 13 0 C13 11.55 13 23.1 13 35 C28.51 35 44.02 35 60 35 C60 23.45 60 11.9 60 0 C64.62 0 69.24 0 74 0 C74 28.71 74 57.42 74 87 C69.38 87 64.76 87 60 87 C60 73.8 60 60.6 60 47 C44.49 47 28.98 47 13 47 C13 59.87 13 72.74 13 86 C8.71 86 4.42 86 0 86 C0 57.62 0 29.24 0 0 Z " fill="#090909" transform="translate(282,632)"/>
<path d="M0 0 C13.30374643 -0.4751338 27.31167779 0.82397826 38.9375 7.75 C45.18949451 14.57035765 45.5605761 21.09407373 45.390625 29.9375 C45.38496521 31.05817871 45.37930542 32.17885742 45.37347412 33.33349609 C45.35120292 36.88944417 45.30102177 40.44435989 45.25 44 C45.22992313 46.4205583 45.21167445 48.84113249 45.1953125 51.26171875 C45.15136847 57.17482743 45.08454874 63.08733993 45 69 C42.61356173 69.32769453 40.22682176 69.65284313 37.83984375 69.9765625 C37.16997437 70.06881104 36.50010498 70.16105957 35.80993652 70.25610352 C23.91425748 71.86254719 10.98874709 71.67746931 0.3046875 65.421875 C-4.63722098 61.37352192 -7.41668262 57.04345003 -8.34375 50.6171875 C-8.73784218 44.17378031 -7.27656915 39.83813883 -3 35 C3.64438108 28.8071788 12.07596057 26.72360919 20.8125 25.3125 C21.93688477 25.11817383 21.93688477 25.11817383 23.08398438 24.91992188 C26.09093403 24.41204566 28.94527666 24 32 24 C31.4121875 22.3603125 31.4121875 22.3603125 30.8125 20.6875 C30.59207031 20.07261719 30.37164063 19.45773437 30.14453125 18.82421875 C28.52782124 16.24741474 26.69405621 15.38384247 24 14 C21.21095794 13.41626677 21.21095794 13.41626677 18.26171875 13.26953125 C17.19501953 13.18896484 16.12832031 13.10839844 15.02929688 13.02539062 C13.92650391 12.95513672 12.82371094 12.88488281 11.6875 12.8125 C10.56537109 12.73064453 9.44324219 12.64878906 8.28710938 12.56445312 C5.52555567 12.36468116 2.76286147 12.1807877 0 12 C0 8.04 0 4.08 0 0 Z " fill="#0B0B0B" transform="translate(567,650)"/>
<path d="M0 0 C1.12100098 0.00749268 1.12100098 0.00749268 2.26464844 0.01513672 C10.16765738 0.26457866 14.87616317 2.75116317 20.4375 8.3125 C21.159375 9.364375 21.88125 10.41625 22.625 11.5 C23.00527344 12.03882813 23.38554687 12.57765625 23.77734375 13.1328125 C28.09194897 20.22657625 27.01435785 25.34036776 27.625 34.5 C12.445 34.5 -2.735 34.5 -18.375 34.5 C-16.44875833 42.20496668 -14.67401758 47.4748272 -8.3046875 52.40234375 C0.51095118 57.41690745 11.74903109 57.13654429 21.625 57.5 C21.625 60.8 21.625 64.1 21.625 67.5 C17.99953463 67.58170915 14.37595107 67.64084254 10.75 67.6875 C9.73679687 67.71263672 8.72359375 67.73777344 7.6796875 67.76367188 C-4.15828734 67.87749856 -13.24371522 64.83715507 -22.12890625 56.94140625 C-29.33829805 49.40677873 -31.06517183 39.93612603 -30.98168945 29.8503418 C-30.5395278 20.44521689 -26.75211432 13.37871079 -19.9375 6.9375 C-13.90332534 1.77011286 -7.77368759 -0.06819024 0 0 Z " fill="#0A0A0A" transform="translate(470.375,484.5)"/>
<path d="M0 0 C4.5386263 4.41918877 7.03734078 9.46835196 9.375 15.3125 C9.375 19.6025 9.375 23.8925 9.375 28.3125 C-5.475 28.3125 -20.325 28.3125 -35.625 28.3125 C-33.66633846 39.37283495 -33.66633846 39.37283495 -26.9765625 46.41796875 C-17.52500411 51.76099257 -6.19576068 51.72609284 4.375 52.3125 C4.375 55.6125 4.375 58.9125 4.375 62.3125 C0.56206166 62.39401175 -3.24910523 62.45325085 -7.0625 62.5 C-8.13177734 62.52513672 -9.20105469 62.55027344 -10.30273438 62.57617188 C-21.4127273 62.67809842 -30.49911541 59.96802417 -38.76171875 52.33984375 C-45.19388607 45.59855193 -48.729494 38.89326739 -49.125 29.5 C-48.74511451 19.66096575 -46.01971394 9.2058774 -38.625 2.3125 C-26.8348266 -6.19433397 -12.51392186 -8.04466405 0 0 Z " fill="#090909" transform="translate(591.625,811.6875)"/>
<path d="M0 0 C17.82 0 35.64 0 54 0 C54 3.63 54 7.26 54 11 C40.47 11 26.94 11 13 11 C13 19.91 13 28.82 13 38 C26.53 38 40.06 38 54 38 C54 41.96 54 45.92 54 50 C40.47 50 26.94 50 13 50 C13 61.88 13 73.76 13 86 C8.71 86 4.42 86 0 86 C0 57.62 0 29.24 0 0 Z " fill="#060606" transform="translate(130,466)"/>
<path d="M0 0 C4.29 0 8.58 0 13 0 C13.00410889 1.51875732 13.00821777 3.03751465 13.01245117 4.60229492 C13.03423191 10.24017214 13.08851199 15.87735042 13.15258789 21.51489258 C13.17577689 23.95427753 13.19016568 26.39376274 13.19555664 28.83325195 C13.20483906 32.34129375 13.24581782 35.84775672 13.29296875 39.35546875 C13.2890361 40.44522507 13.28510345 41.53498138 13.28105164 42.65776062 C13.38134444 48.85772706 13.38134444 48.85772706 16.33447266 54.1965332 C19.88570565 56.59925881 21.77440397 56.57971736 26 56 C28.55930496 55.08615679 30.87920224 54.16045565 33.3125 53 C39.80574324 50 39.80574324 50 42 50 C42 33.5 42 17 42 0 C46.29 0 50.58 0 55 0 C55 22.11 55 44.22 55 67 C50.71 67 46.42 67 42 67 C42 65.02 42 63.04 42 61 C41.175 61.5053125 40.35 62.010625 39.5 62.53125 C30.32682963 67.8183954 22.53490267 69.61810596 12 68 C6.6116206 66.18003115 3.64642343 63.27401761 0.8616333 58.29441833 C-0.96462206 53.43133589 -0.47959721 48.18966471 -0.390625 43.06640625 C-0.38496521 41.83333237 -0.37930542 40.60025848 -0.37347412 39.32981873 C-0.35115549 35.40697761 -0.30096423 31.48506321 -0.25 27.5625 C-0.22766801 24.89649774 -0.21167969 22.23050418 -0.1953125 19.56445312 C-0.15130496 13.04261386 -0.08230574 6.52146384 0 0 Z " fill="#111111" transform="translate(379,652)"/>
<path d="M0 0 C4.29 0 8.58 0 13 0 C13.0093457 1.51875732 13.01869141 3.03751465 13.02832031 4.60229492 C13.06820896 10.24012523 13.13396571 15.87740922 13.20751953 21.51489258 C13.23573547 23.95427428 13.25694685 26.39374752 13.27099609 28.83325195 C13.2924161 32.34113448 13.33906435 35.84791571 13.390625 39.35546875 C13.39185364 40.44522507 13.39308228 41.53498138 13.39434814 42.65776062 C13.47919959 47.04986287 13.63316733 50.23017543 15.53808594 54.2277832 C18.57654735 56.77896837 18.57654735 56.77896837 26 56 C30.95 53.69 35.9 51.38 41 49 C41.33 32.83 41.66 16.66 42 0 C46.29 0 50.58 0 55 0 C55 21.78 55 43.56 55 66 C50.71 66 46.42 66 42 66 C42 64.35 42 62.7 42 61 C41.09121094 61.5053125 40.18242187 62.010625 39.24609375 62.53125 C30.23325058 67.2875242 22.37083681 69.97713029 12 68 C6.48089271 64.86324118 2.05395119 61.16185356 0 55 C-0.08813433 53.20529613 -0.1176372 51.40745761 -0.11352539 49.6105957 C-0.11344986 48.50968094 -0.11337433 47.40876617 -0.11329651 46.27449036 C-0.10813522 45.08691635 -0.10297394 43.89934235 -0.09765625 42.67578125 C-0.0962413 41.45924362 -0.09482635 40.24270599 -0.09336853 38.98930359 C-0.08776312 35.0970109 -0.07520967 31.20477536 -0.0625 27.3125 C-0.0574857 24.67643312 -0.05292267 22.04036534 -0.04882812 19.40429688 C-0.03779193 12.93617584 -0.02052362 6.46809761 0 0 Z " fill="#040404" transform="translate(324,486)"/>
<path d="M0 0 C4.29 0 8.58 0 13 0 C13.01458252 1.45293457 13.02916504 2.90586914 13.04418945 4.40283203 C13.10225118 9.80395871 13.17948439 15.20467195 13.26245117 20.60546875 C13.29566333 22.94101237 13.32370676 25.27663553 13.34643555 27.61230469 C13.38004901 30.97365145 13.43237003 34.33427169 13.48828125 37.6953125 C13.49467117 38.73615997 13.5010611 39.77700745 13.50764465 40.84939575 C13.61952495 46.39172527 13.98595047 50.2912055 17 55 C18.74647188 55.16721539 20.49807932 55.28066581 22.25 55.375 C23.22453125 55.44460938 24.1990625 55.51421875 25.203125 55.5859375 C30.63720362 54.94531713 30.63720362 54.94531713 41 49 C41.33 32.83 41.66 16.66 42 0 C46.29 0 50.58 0 55 0 C55 21.78 55 43.56 55 66 C51.04 66 47.08 66 43 66 C43 64.02 43 62.04 43 60 C42.07960937 60.5775 41.15921875 61.155 40.2109375 61.75 C30.7115805 67.42912837 22.97156629 69.94358022 11.74609375 67.51171875 C7.12814404 65.88596108 4.71306691 62.87580986 2 59 C0.25837582 55.35389608 -0.24591111 52.50202252 -0.22705078 48.4753418 C-0.22689972 47.39459885 -0.22674866 46.3138559 -0.22659302 45.20036316 C-0.21627045 44.0449855 -0.20594788 42.88960785 -0.1953125 41.69921875 C-0.1924826 40.50770706 -0.18965271 39.31619537 -0.18673706 38.08857727 C-0.17555433 34.28811544 -0.1504528 30.48789044 -0.125 26.6875 C-0.11496775 24.10872737 -0.10584233 21.52995103 -0.09765625 18.95117188 C-0.07562116 12.63402352 -0.041104 6.3170519 0 0 Z " fill="#0E0E0E" transform="translate(199,486)"/>
<path d="M0 0 C3.96 0 7.92 0 12 0 C12.01458252 1.4226416 12.02916504 2.8452832 12.04418945 4.31103516 C12.10225816 9.6003505 12.17949126 14.88924397 12.26245117 20.17822266 C12.29566006 22.46526226 12.32370451 24.75238303 12.34643555 27.03955078 C12.3800551 30.33140578 12.43237624 33.62251972 12.48828125 36.9140625 C12.49467117 37.93303619 12.5010611 38.95200989 12.50764465 40.00186157 C12.62045204 45.47601853 13.10089933 49.19693316 16 54 C16 54.66 16 55.32 16 56 C26.04628456 55.96379717 31.27212515 53.48978839 41 49 C41.33 32.83 41.66 16.66 42 0 C46.29 0 50.58 0 55 0 C55 22.11 55 44.22 55 67 C50.71 67 46.42 67 42 67 C42 65.02 42 63.04 42 61 C41.071875 61.598125 40.14375 62.19625 39.1875 62.8125 C30.7728472 67.57008036 20.41005036 69.77346289 10.89453125 67.49609375 C5.96177269 65.6555122 3.54387888 62.5613736 0.90872192 58.18951416 C-0.2229183 55.46289095 -0.24034122 53.35575036 -0.22705078 50.40527344 C-0.22689972 49.28441345 -0.22674866 48.16355347 -0.22659302 47.00872803 C-0.21627045 45.80444153 -0.20594788 44.60015503 -0.1953125 43.359375 C-0.1924826 42.12205627 -0.18965271 40.88473755 -0.18673706 39.60992432 C-0.177442 36.32848459 -0.15948705 33.04724246 -0.1373291 29.76586914 C-0.11683048 26.41424378 -0.10789724 23.06260993 -0.09765625 19.7109375 C-0.07560027 13.14053779 -0.04107232 6.57030725 0 0 Z " fill="#070707" transform="translate(426,808)"/>
<path d="M0 0 C1.30639648 2.07763672 1.30639648 2.07763672 2.43359375 4.8046875 C2.85495605 5.80209961 3.27631836 6.79951172 3.71044922 7.82714844 C4.34877686 9.39770996 4.34877686 9.39770996 5 11 C5.41910645 11.99290039 5.83821289 12.98580078 6.27001953 14.00878906 C7.54934486 17.04144679 8.80840404 20.08183051 10.0625 23.125 C10.9064917 25.16970885 11.75152815 27.2139868 12.59765625 29.2578125 C13.199729 30.71247925 13.199729 30.71247925 13.81396484 32.1965332 C15.23145719 35.54710229 16.7335271 38.85408559 18.27416992 42.1496582 C19.1958058 44.4991632 19.32194379 46.50493566 19 49 C19.66 49 20.32 49 21 49 C21.14115234 48.03320312 21.14115234 48.03320312 21.28515625 47.046875 C22.25146986 42.92816123 23.8340869 39.1579325 25.4375 35.25 C26.15516991 33.47925662 26.87260594 31.70841844 27.58984375 29.9375 C27.9751123 28.99003906 28.36038086 28.04257812 28.75732422 27.06640625 C31.02559944 21.46924775 33.26017512 15.85858889 35.5 10.25 C36.3644485 8.08848774 37.22902041 5.92702483 38.09375 3.765625 C38.46177734 2.84555664 38.82980469 1.92548828 39.20898438 0.97753906 C39.47001953 0.32495117 39.73105469 -0.32763672 40 -1 C44.18893544 -0.34877894 48.0028574 0.57244907 52 2 C51.01606823 7.31323155 49.91610394 11.4015284 47 16 C46.3932789 17.44875926 45.81335476 18.90883313 45.25 20.375 C43.03555317 26.08145913 40.42040129 31.57552458 37.78125 37.09375 C36.46498678 39.9071398 35.29136908 42.75196298 34.16015625 45.64453125 C31.67400232 51.94318726 28.8021587 58.05396695 25.9375 64.1875 C21.33701329 74.03517137 21.33701329 74.03517137 17 84 C16.54238281 85.09183594 16.08476563 86.18367187 15.61328125 87.30859375 C15.18402344 88.34113281 14.75476563 89.37367188 14.3125 90.4375 C13.87550781 91.48808594 13.43851563 92.53867187 12.98828125 93.62109375 C12.66214844 94.40613281 12.33601562 95.19117188 12 96 C7.6027062 95.21775257 4.05440555 93.82845741 0 92 C0.60729631 88.14597075 1.76942081 85.12516744 3.5390625 81.65625 C4.28542969 80.15771484 4.28542969 80.15771484 5.046875 78.62890625 C6.10054738 76.53981819 7.16047139 74.45387175 8.2265625 72.37109375 C8.7215625 71.37207031 9.2165625 70.37304688 9.7265625 69.34375 C10.18627441 68.43818359 10.64598633 67.53261719 11.11962891 66.59960938 C12.81868545 61.58253948 10.54413814 57.64602277 8.453125 53.02734375 C7.9375 51.87943359 7.421875 50.73152344 6.890625 49.54882812 C6.34921875 48.35708984 5.8078125 47.16535156 5.25 45.9375 C0.20877291 34.77390031 -4.63799106 23.56257603 -9.10546875 12.15625 C-9.96878379 9.97847641 -9.96878379 9.97847641 -11.11328125 7.90625 C-12 6 -12 6 -12 3 C-10.75823305 2.29773859 -9.50614401 1.61370891 -8.25 0.9375 C-7.20585938 0.36322266 -7.20585938 0.36322266 -6.140625 -0.22265625 C-3.51617813 -1.17569444 -2.5607144 -1.07700544 0 0 Z " fill="#0A0A0A" transform="translate(796,652)"/>
<path d="M0 0 C5.8713084 3.40822293 8.31299908 7.55705306 10.33984375 13.95703125 C10.84950171 18.05404154 10.8084961 22.08761053 10.73046875 26.2109375 C10.72480896 27.35239731 10.71914917 28.49385712 10.71331787 29.66990662 C10.69107124 33.28688933 10.64089482 36.90285201 10.58984375 40.51953125 C10.5697637 42.98370957 10.55151558 45.44790354 10.53515625 47.91210938 C10.49124454 53.92747154 10.42229683 59.94207893 10.33984375 65.95703125 C6.04984375 65.95703125 1.75984375 65.95703125 -2.66015625 65.95703125 C-2.67473877 64.49885986 -2.68932129 63.04068848 -2.7043457 61.53833008 C-2.76235272 56.12418188 -2.8395862 50.71044852 -2.92260742 45.29663086 C-2.95584531 42.95425147 -2.98388075 40.61179221 -3.0065918 38.26928711 C-3.04015793 34.90053292 -3.09247644 31.53250994 -3.1484375 28.1640625 C-3.15482742 27.11805374 -3.16121735 26.07204498 -3.1678009 24.99433899 C-3.21215423 17.94050828 -3.21215423 17.94050828 -6.66015625 11.95703125 C-9.21767327 11.27735096 -9.21767327 11.27735096 -12.03515625 11.51953125 C-13.43894531 11.55240234 -13.43894531 11.55240234 -14.87109375 11.5859375 C-17.79484319 11.97495178 -19.9318335 12.85233573 -22.66015625 13.95703125 C-25.63015625 14.61703125 -28.60015625 15.27703125 -31.66015625 15.95703125 C-31.99015625 32.45703125 -32.32015625 48.95703125 -32.66015625 65.95703125 C-36.62015625 65.95703125 -40.58015625 65.95703125 -44.66015625 65.95703125 C-44.66015625 44.17703125 -44.66015625 22.39703125 -44.66015625 -0.04296875 C-40.70015625 -0.04296875 -36.74015625 -0.04296875 -32.66015625 -0.04296875 C-32.66015625 1.60703125 -32.66015625 3.25703125 -32.66015625 4.95703125 C-31.58378906 4.52390625 -30.50742187 4.09078125 -29.3984375 3.64453125 C-9.94458971 -3.89898011 -9.94458971 -3.89898011 0 0 Z " fill="#0A0A0A" transform="translate(676.66015625,652.04296875)"/>
<path d="M0 0 C4.65217833 2.71377069 7.55574698 7.19655585 9.11228943 12.30401611 C9.62457379 14.8027762 9.68234021 17.08455559 9.67602539 19.63574219 C9.67594986 20.65649841 9.67587433 21.67725464 9.67579651 22.72894287 C9.67063522 23.82386047 9.66547394 24.91877808 9.66015625 26.046875 C9.6587413 27.1732135 9.65732635 28.299552 9.65586853 29.46002197 C9.65027199 33.05670835 9.6377201 36.65333244 9.625 40.25 C9.61998455 42.68880118 9.61542172 45.12760334 9.61132812 47.56640625 C9.60030369 53.54429483 9.5830414 59.52213685 9.5625 65.5 C5.2725 65.5 0.9825 65.5 -3.4375 65.5 C-3.45208252 64.0773584 -3.46666504 62.6547168 -3.48168945 61.18896484 C-3.53975816 55.8996495 -3.61699126 50.61075603 -3.69995117 45.32177734 C-3.73316006 43.03473774 -3.76120451 40.74761697 -3.78393555 38.46044922 C-3.8175551 35.16859422 -3.86987624 31.87748028 -3.92578125 28.5859375 C-3.93217117 27.56696381 -3.9385611 26.54799011 -3.94514465 25.49813843 C-4.06013725 19.91794044 -4.21793644 14.71956356 -8.4375 10.5 C-15.27933315 9.939194 -20.33399528 11.21397469 -26.73828125 13.625 C-29.4375 14.5 -29.4375 14.5 -33.4375 14.5 C-33.4375 31.33 -33.4375 48.16 -33.4375 65.5 C-37.3975 65.5 -41.3575 65.5 -45.4375 65.5 C-45.4375 43.72 -45.4375 21.94 -45.4375 -0.5 C-41.4775 -0.5 -37.5175 -0.5 -33.4375 -0.5 C-33.4375 1.15 -33.4375 2.8 -33.4375 4.5 C-32.34953125 4.066875 -31.2615625 3.63375 -30.140625 3.1875 C-20.20513513 -0.63427843 -10.45144332 -4.31267735 0 0 Z " fill="#060606" transform="translate(212.4375,808.5)"/>
<path d="M0 0 C1.28317892 3.84953676 1.06643637 6.94738135 1 11 C-0.37671875 10.98646484 -0.37671875 10.98646484 -1.78125 10.97265625 C-9.13838501 11.15040216 -14.06474061 11.6757614 -19.64453125 16.625 C-21.69776096 19.85780162 -21.69776096 19.85780162 -22 28 C-15.07 28 -8.14 28 -1 28 C-1 31.3 -1 34.6 -1 38 C-7.93 38 -14.86 38 -22 38 C-22 56.81 -22 75.62 -22 95 C-26.29 95 -30.58 95 -35 95 C-35 76.52 -35 58.04 -35 39 C-38.96 39 -42.92 39 -47 39 C-47 35.37 -47 31.74 -47 28 C-42.71 28 -38.42 28 -34 28 C-34.12375 25.7725 -34.12375 25.7725 -34.25 23.5 C-34.21359987 17.04807702 -32.56825197 12.82962275 -28.234375 8.0546875 C-19.49039677 -0.17291406 -11.73427051 -0.44497936 0 0 Z " fill="#0E0E0E" transform="translate(238,624)"/>
<path d="M0 0 C3.96 0 7.92 0 12 0 C12 4.62 12 9.24 12 14 C19.26 14 26.52 14 34 14 C34 17.96 34 21.92 34 26 C26.74 26 19.48 26 12 26 C12.07418176 30.8755324 12.15716848 35.74929047 12.26245117 40.62402344 C12.29560018 42.28050384 12.32366309 43.93709446 12.34643555 45.59375 C12.38016732 47.98224634 12.43248959 50.36974171 12.48828125 52.7578125 C12.49467117 53.49242706 12.5010611 54.22704163 12.50764465 54.98391724 C12.64096174 59.70037801 13.51541218 62.98704392 16 67 C19.77432739 70.05727037 23.03482308 70.44620319 27.8125 70.6875 C28.97394531 70.75324219 30.13539063 70.81898438 31.33203125 70.88671875 C32.21246094 70.92410156 33.09289062 70.96148438 34 71 C33.67 74.3 33.34 77.6 33 81 C30.16560863 81.10901505 27.33549797 81.18777904 24.5 81.25 C23.70851563 81.28351563 22.91703125 81.31703125 22.1015625 81.3515625 C15.25204445 81.46384968 10.23015947 79.73129314 4.9765625 75.2890625 C4.53054688 74.73992187 4.08453125 74.19078125 3.625 73.625 C3.16351563 73.08101562 2.70203125 72.53703125 2.2265625 71.9765625 C-1.17961488 66.48762698 -1.27365441 61.12211509 -1.1953125 54.8828125 C-1.1924826 54.02565643 -1.18965271 53.16850037 -1.18673706 52.28536987 C-1.17559999 49.56510068 -1.1505076 46.84516859 -1.125 44.125 C-1.11496182 42.27344228 -1.10583744 40.42187936 -1.09765625 38.5703125 C-1.07568188 34.0467464 -1.041197 29.52343023 -1 25 C-4.3 25 -7.6 25 -11 25 C-11 21.7 -11 18.4 -11 15 C-7.37 15 -3.74 15 0 15 C0 10.05 0 5.1 0 0 Z " fill="#101010" transform="translate(503,793)"/>
<path d="M0 0 C3.96 0 7.92 0 12 0 C12 4.95 12 9.9 12 15 C19.26 15 26.52 15 34 15 C34 18.63 34 22.26 34 26 C26.74 26 19.48 26 12 26 C12.0281347 31.1614377 12.07129764 36.31826817 12.15258789 41.47851562 C12.17571968 43.23200228 12.19015229 44.98562692 12.19555664 46.73925781 C12.20488199 49.26714584 12.24594635 51.79287817 12.29296875 54.3203125 C12.2890361 55.09867462 12.28510345 55.87703674 12.28105164 56.6789856 C12.38681912 60.66518073 12.81125944 63.2807397 15.29492188 66.47851562 C18.2450878 69.28541812 18.2450878 69.28541812 21.98828125 70.0234375 C22.69404297 70.09433594 23.39980469 70.16523437 24.12695312 70.23828125 C24.84818359 70.28339844 25.56941406 70.32851563 26.3125 70.375 C27.05306641 70.44332031 27.79363281 70.51164063 28.55664062 70.58203125 C30.36905687 70.74573336 32.18441769 70.87625878 34 71 C33.67 74.63 33.34 78.26 33 82 C24.0912937 82.34936103 13.13345131 82.35959165 5.78979492 76.67651367 C1.06576434 72.25148052 -1.01019737 66.94102918 -1.39892578 60.53027344 C-1.55244945 55.30892104 -1.43722968 50.0957607 -1.3125 44.875 C-1.2873796 43.04169716 -1.26457306 41.20836108 -1.24414062 39.375 C-1.18945553 34.91583573 -1.10339262 30.45828997 -1 26 C-4.3 26 -7.6 26 -11 26 C-11 22.37 -11 18.74 -11 15 C-7.37 15 -3.74 15 0 15 C0 10.05 0 5.1 0 0 Z " fill="#0D0D0D" transform="translate(743,637)"/>
<path d="M0 0 C0.495 5.94 0.495 5.94 1 12 C-1.07861328 12.05607422 -1.07861328 12.05607422 -3.19921875 12.11328125 C-5.02867231 12.17895394 -6.8580982 12.24540083 -8.6875 12.3125 C-9.59951172 12.33505859 -10.51152344 12.35761719 -11.45117188 12.38085938 C-18.23046196 12.62678682 -18.23046196 12.62678682 -24 16 C-25.08415064 18.91095463 -25.08415064 18.91095463 -24 22 C-21.62562785 24.15913161 -18.82927708 25.51614367 -16 27 C-0.91316025 35.1736795 -0.91316025 35.1736795 3 43 C3.39617431 48.84357111 2.99084005 52.79014959 0 58 C-2.1288316 60.34847295 -4.35595553 62.25446268 -7 64 C-7.78443481 64.52170776 -7.78443481 64.52170776 -8.5847168 65.05395508 C-14.71387691 68.65488649 -20.47751494 68.5006077 -27.4375 68.3125 C-28.53771484 68.30283203 -29.63792969 68.29316406 -30.77148438 68.28320312 C-38.83129699 68.16870301 -38.83129699 68.16870301 -40 67 C-40.07205511 65.31391034 -40.08386068 63.62499341 -40.0625 61.9375 C-40.05347656 61.01839844 -40.04445312 60.09929688 -40.03515625 59.15234375 C-40.02355469 58.44207031 -40.01195312 57.73179687 -40 57 C-39.29915283 56.99589111 -38.59830566 56.99178223 -37.8762207 56.98754883 C-34.68746795 56.95456628 -31.50061395 56.88391668 -28.3125 56.8125 C-26.65831055 56.80379883 -26.65831055 56.80379883 -24.97070312 56.79492188 C-18.44933125 56.64593737 -18.44933125 56.64593737 -12.73046875 53.76171875 C-10.88099366 51.14998769 -10.88099366 51.14998769 -10.41015625 48.375 C-10.7916177 45.86657639 -10.7916177 45.86657639 -12.87109375 44.375 C-13.71800781 43.92125 -14.56492187 43.4675 -15.4375 43 C-16.80648438 42.23816406 -16.80648438 42.23816406 -18.203125 41.4609375 C-19.9353631 40.55610922 -21.67387888 39.66306056 -23.421875 38.7890625 C-29.86318554 35.47956157 -35.6347748 31.0956756 -38 24 C-38.52166057 19.03139685 -38.5724051 15.14481021 -36.3125 10.625 C-29.16915059 2.5163331 -21.38188763 0.78909332 -10.88671875 0.1171875 C-7.24913815 -0.03048154 -3.63986475 -0.0699974 0 0 Z " fill="#0B0B0B" transform="translate(276,807)"/>
<path d="M0 0 C3.3 0 6.6 0 10 0 C10 4.62 10 9.24 10 14 C17.59 14 25.18 14 33 14 C33 17.3 33 20.6 33 24 C25.74 24 18.48 24 11 24 C11.05114789 29.16082209 11.11421151 34.31867806 11.20751953 39.47851562 C11.23566584 41.23199812 11.25691185 42.98560599 11.27099609 44.73925781 C11.29251427 47.26692599 11.33920702 49.79309684 11.390625 52.3203125 C11.39185364 53.09867462 11.39308228 53.87703674 11.39434814 54.6789856 C11.53252107 59.86653925 12.58667946 62.87343033 16 67 C17.82355371 67.9667062 17.82355371 67.9667062 20 68 C21.06734375 68.10441406 22.1346875 68.20882812 23.234375 68.31640625 C24.97460938 68.43822266 24.97460938 68.43822266 26.75 68.5625 C28.50570312 68.68818359 28.50570312 68.68818359 30.296875 68.81640625 C31.18890625 68.87699219 32.0809375 68.93757812 33 69 C33.125 76.625 33.125 76.625 32 80 C21.0938422 80.48712367 12.19477982 80.61313391 3.0625 73.8125 C-1.59589342 67.46014533 -2.44471919 60.49960194 -2.29296875 52.80859375 C-2.28872391 51.97787857 -2.28447906 51.14716339 -2.28010559 50.29127502 C-2.26349314 47.67300118 -2.2258763 45.05553585 -2.1875 42.4375 C-2.17243053 40.64779768 -2.15874612 38.85808313 -2.14648438 37.06835938 C-2.1136472 32.71193446 -2.06198936 28.35610365 -2 24 C-5.3 24 -8.6 24 -12 24 C-12 20.7 -12 17.4 -12 14 C-8.04 14 -4.08 14 0 14 C0 9.38 0 4.76 0 0 Z " fill="#0A0A0A" transform="translate(379,794)"/>
<path d="M0 0 C7.82823273 4.10131323 9.72420854 11.30987716 12.22265625 19.1953125 C13.63152726 26.10137347 10.24977066 34.32973966 6.6953125 40.2578125 C3.48489448 44.38993118 -0.06428483 46.80177685 -5.2421875 47.66796875 C-10.45657201 48.00842685 -14.07068281 46.93712435 -18.34765625 43.94921875 C-23.15743171 39.56907465 -25.96559827 34.05657886 -26.37890625 27.5859375 C-26.77588033 11.74435742 -26.77588033 11.74435742 -22.140625 6.31640625 C-15.69337411 -0.17392204 -9.23629012 -2.9495452 0 0 Z " fill="#FBFBFB" transform="translate(160.140625,662.68359375)"/>
<path d="M0 0 C3.63 0 7.26 0 11 0 C11 4.62 11 9.24 11 14 C18.26 14 25.52 14 33 14 C33 17.3 33 20.6 33 24 C25.74 24 18.48 24 11 24 C11.07426934 28.71482248 11.15733283 33.42784001 11.26245117 38.1418457 C11.29555592 39.74298519 11.32363221 41.34423732 11.34643555 42.94555664 C11.38024982 45.25715817 11.43257451 47.56774078 11.48828125 49.87890625 C11.49467117 50.58648575 11.5010611 51.29406525 11.50764465 52.02308655 C11.6728607 57.70032361 12.83018661 62.58633143 16.703125 66.89453125 C19.97293034 68.46826409 23.18648783 68.56961444 26.75 68.6875 C27.44738281 68.72166016 28.14476562 68.75582031 28.86328125 68.79101562 C30.57497108 68.87308295 32.2874576 68.93822919 34 69 C33.67 72.63 33.34 76.26 33 80 C30.3118751 80.08164159 27.626277 80.14079668 24.9375 80.1875 C24.18533203 80.21263672 23.43316406 80.23777344 22.65820312 80.26367188 C17.30784062 80.3331571 13.7823778 79.40622782 9 77 C8.13375 76.608125 7.2675 76.21625 6.375 75.8125 C2.36775432 72.75433882 -0.49894809 68.67712163 -1.43765259 63.66162109 C-1.57473734 61.10364985 -1.56359008 58.59172077 -1.48828125 56.03125 C-1.48120651 55.11033569 -1.47413177 54.18942139 -1.46684265 53.24060059 C-1.4390625 50.32620769 -1.37635691 47.41380289 -1.3125 44.5 C-1.28739587 42.51304876 -1.26458643 40.52606713 -1.24414062 38.5390625 C-1.1892898 33.69195325 -1.10313329 28.84631257 -1 24 C-4.3 24 -7.6 24 -11 24 C-11 20.7 -11 17.4 -11 14 C-7.37 14 -3.74 14 0 14 C0 9.38 0 4.76 0 0 Z " fill="#090909" transform="translate(294,794)"/>
<path d="M0 0 C3.63 0 7.26 0 11 0 C11 4.62 11 9.24 11 14 C18.26 14 25.52 14 33 14 C33 17.3 33 20.6 33 24 C25.74 24 18.48 24 11 24 C11.05109477 29.32151982 11.11408347 34.64013596 11.20751953 39.96069336 C11.23569889 41.76951689 11.25692855 43.57846286 11.27099609 45.38745117 C11.29246814 47.99200994 11.33913811 50.59510134 11.390625 53.19921875 C11.39185364 54.00461594 11.39308228 54.81001312 11.39434814 55.63981628 C11.49602246 59.56069058 11.73838208 61.57764928 13.85058594 64.98754883 C17.60924256 68.50669996 21.79360488 68.28376274 26.6875 68.5625 C27.7403418 68.62727539 27.7403418 68.62727539 28.81445312 68.69335938 C30.54275206 68.7991736 32.2713511 68.90006581 34 69 C33.34 72.63 32.68 76.26 32 80 C29.3118751 80.08164159 26.626277 80.14079668 23.9375 80.1875 C23.18533203 80.21263672 22.43316406 80.23777344 21.65820312 80.26367188 C14.77675262 80.35304136 9.50566487 78.7332459 4.1875 74.125 C3.62417969 73.65320313 3.06085938 73.18140625 2.48046875 72.6953125 C-1.72750665 67.87668104 -1.26505928 62.35724714 -1.1953125 56.32421875 C-1.1924826 55.3990596 -1.18965271 54.47390045 -1.18673706 53.52070618 C-1.17557392 50.57617058 -1.15047637 47.63194312 -1.125 44.6875 C-1.11496521 42.68685336 -1.10584023 40.68620194 -1.09765625 38.68554688 C-1.07564722 33.7902465 -1.04114391 28.89517543 -1 24 C-4.63 24 -8.26 24 -12 24 C-12 20.7 -12 17.4 -12 14 C-8.04 14 -4.08 14 0 14 C0 9.38 0 4.76 0 0 Z " fill="#040404" transform="translate(277,472)"/>
<path d="M0 0 C4.29 0 8.58 0 13 0 C13 28.38 13 56.76 13 86 C8.71 86 4.42 86 0 86 C0 57.62 0 29.24 0 0 Z " fill="#060606" transform="translate(130,788)"/>
<path d="M0 0 C1.29243536 4.1196377 2.26252625 7.66831683 2 12 C0.85144531 12.42925781 -0.29710937 12.85851562 -1.48046875 13.30078125 C-4.38420576 14.38896293 -7.28228033 15.49037223 -10.17578125 16.60546875 C-11.5546875 17.1328125 -12.93359375 17.66015625 -14.3125 18.1875 C-15.3653418 18.59645508 -15.3653418 18.59645508 -16.43945312 19.01367188 C-19.43328845 20.15241381 -21.76841798 21 -25 21 C-25 36.51 -25 52.02 -25 68 C-28.96 68 -32.92 68 -37 68 C-37 46.22 -37 24.44 -37 2 C-33.04 2 -29.08 2 -25 2 C-25 4.31 -25 6.62 -25 9 C-23.97060303 8.59104492 -23.97060303 8.59104492 -22.92041016 8.17382812 C-19.82332204 6.94569964 -16.72420004 5.72278864 -13.625 4.5 C-12.54476563 4.07074219 -11.46453125 3.64148438 -10.3515625 3.19921875 C-9.3203125 2.79316406 -8.2890625 2.38710938 -7.2265625 1.96875 C-6.27346191 1.59169922 -5.32036133 1.21464844 -4.33837891 0.82617188 C-2 0 -2 0 0 0 Z " fill="#0A0A0A" transform="translate(436,484)"/>
<path d="M0 0 C4.29 0 8.58 0 13 0 C13 22.44 13 44.88 13 68 C8.71 68 4.42 68 0 68 C0 45.56 0 23.12 0 0 Z " fill="#181818" transform="translate(342,807)"/>
<path d="M0 0 C3.63 0 7.26 0 11 0 C11 21.78 11 43.56 11 66 C7.37 66 3.74 66 0 66 C0 44.22 0 22.44 0 0 Z " fill="#040404" transform="translate(708,652)"/>
<path d="M0 0 C2.31 0 4.62 0 7 0 C7 8.91 7 17.82 7 27 C-14.50744167 24.84925583 -14.50744167 24.84925583 -18.75 21.9375 C-21.44414435 18.42014487 -21.76678632 16.42250849 -21.45703125 12.0859375 C-20.77946254 8.9934444 -19.59875752 7.75591724 -17 6 C-13.26853592 4.29622387 -9.73405992 3.49754768 -5.6875 2.875 C-4.61886719 2.70742188 -3.55023437 2.53984375 -2.44921875 2.3671875 C-1.23685547 2.18542969 -1.23685547 2.18542969 0 2 C0 1.34 0 0.68 0 0 Z " fill="#F2F2F2" transform="translate(593,684)"/>
<path d="M0 0 C4.52232768 2.10522151 6.94998748 4.44441662 9 9 C9 10.32 9 11.64 9 13 C-1.23 13 -11.46 13 -22 13 C-20.88946364 7.44731821 -19.31093295 5.15513972 -15.26171875 1.37890625 C-10.71781605 -1.3913833 -5.12567719 -0.57376983 0 0 Z " fill="#EFEFEF" transform="translate(579,818)"/>
<path d="M0 0 C4.49342843 2.1284661 6.95569733 4.45710517 9 9 C9 10.32 9 11.64 9 13 C-0.9 13 -10.8 13 -21 13 C-19.95763751 6.74582506 -19.51143164 5.86694141 -15 2 C-10.32198701 -1.11867533 -5.47651278 -0.58676923 0 0 Z " fill="#F1F1F1" transform="translate(475,496)"/>
<path d="M0 0 C4.29 0 8.58 0 13 0 C13 14.85 13 29.7 13 45 C12.01 44.67 11.02 44.34 10 44 C10 30.14 10 16.28 10 2 C7.36 2 4.72 2 2 2 C2 19.16 2 36.32 2 54 C1.01 54.495 1.01 54.495 0 55 C0 36.85 0 18.7 0 0 Z " fill="#323232" transform="translate(324,486)"/>
<path d="M0 0 C4.29 0 8.58 0 13 0 C13 22.11 13 44.22 13 67 C8.71 67 4.42 67 0 67 C0 65.02 0 63.04 0 61 C-0.66 60.67 -1.32 60.34 -2 60 C-0.68 60 0.64 60 2 60 C2 61.65 2 63.3 2 65 C4.97 65 7.94 65 11 65 C11 43.88 11 22.76 11 1 C7.7 1 4.4 1 1 1 C1 17.17 1 33.34 1 50 C0.34 49.67 -0.32 49.34 -1 49 C-0.67 32.83 -0.34 16.66 0 0 Z " fill="#4A4A4A" transform="translate(468,808)"/>
<path d="M0 0 C4.95 0 9.9 0 15 0 C15 4.29 15 8.58 15 13 C10.05 13 5.1 13 0 13 C0 8.71 0 4.42 0 0 Z " fill="#232323" transform="translate(341,786)"/>
<path d="M0 0 C4.95 0 9.9 0 15 0 C15 3.96 15 7.92 15 12 C10.05 12 5.1 12 0 12 C0 8.04 0 4.08 0 0 Z " fill="#151515" transform="translate(706,631)"/>
<path d="M0 0 C4.29 0 8.58 0 13 0 C13 21.78 13 43.56 13 66 C8.71 66 4.42 66 0 66 C-0.33 64.02 -0.66 62.04 -1 60 C-0.01 60 0.98 60 2 60 C2 61.32 2 62.64 2 64 C5.3 64 8.6 64 12 64 C12 43.21 12 22.42 12 1 C8.37 1 4.74 1 1 1 C1 17.17 1 33.34 1 50 C0.34 49.67 -0.32 49.34 -1 49 C-0.67 32.83 -0.34 16.66 0 0 Z " fill="#444444" transform="translate(366,486)"/>
<path d="M0 0 C0.33 0 0.66 0 1 0 C1 16.83 1 33.66 1 51 C-2.96 51 -6.92 51 -11 51 C-11 36.15 -11 21.3 -11 6 C-10.67 6 -10.34 6 -10 6 C-10 20.52 -10 35.04 -10 50 C-7.36 50 -4.72 50 -2 50 C-2 47.03 -2 44.06 -2 41 C-1.34 41 -0.68 41 0 41 C0 27.47 0 13.94 0 0 Z " fill="#383838" transform="translate(221,823)"/>
<path d="M0 0 C0.33 0 0.66 0 1 0 C1 14.19 1 28.38 1 43 C4.63 43 8.26 43 12 43 C11.96447021 42.11739502 11.92894043 41.23479004 11.89233398 40.32543945 C11.76275462 37.03620039 11.63850929 33.74684812 11.51782227 30.45727539 C11.4646063 29.03629587 11.40929429 27.61539319 11.35180664 26.19458008 C11.26932226 24.14681561 11.19449595 22.09888898 11.12109375 20.05078125 C11.0739624 18.82012939 11.02683105 17.58947754 10.97827148 16.3215332 C10.99757357 13.37091647 11.29651314 10.85421437 12 8 C12.33 8 12.66 8 13 8 C13 20.54 13 33.08 13 46 C8.71 46 4.42 46 0 46 C0 30.82 0 15.64 0 0 Z " fill="#494949" transform="translate(532,673)"/>
<path d="M0 0 C0.66 0 1.32 0 2 0 C0.49637741 3.78716158 -1.05487001 7.55245187 -2.625 11.3125 C-3.07101562 12.38113281 -3.51703125 13.44976563 -3.9765625 14.55078125 C-4.48316406 15.76314453 -4.48316406 15.76314453 -5 17 C-9.3972938 16.21775257 -12.94559445 14.82845741 -17 13 C-16.67 12.01 -16.34 11.02 -16 10 C-14.27473958 10.74869792 -12.54947917 11.49739583 -10.82421875 12.24609375 C-9.24288979 12.89961942 -7.62324594 13.45891802 -6 14 C-5.81824219 13.40832031 -5.63648438 12.81664062 -5.44921875 12.20703125 C-2.74149491 3.69505836 -2.74149491 3.69505836 0 0 Z " fill="#323232" transform="translate(813,731)"/>
<path d="M0 0 C3.96 0 7.92 0 12 0 C11.34 3.63 10.68 7.26 10 11 C4.39 11 -1.22 11 -7 11 C-3.36804504 8.57869669 -1.61650652 8.78977215 2.6875 8.875 C3.86699219 8.89304687 5.04648437 8.91109375 6.26171875 8.9296875 C7.61716797 8.96449219 7.61716797 8.96449219 9 9 C9 6.36 9 3.72 9 1 C6.03 1 3.06 1 0 1 C0 0.67 0 0.34 0 0 Z " fill="#333333" transform="translate(299,541)"/>
<path d="M0 0 C0.76376953 -0.020625 1.52753906 -0.04125 2.31445312 -0.0625 C7.97387679 -0.10190417 7.97387679 -0.10190417 11.09765625 1.765625 C11.58105469 2.25546875 12.06445312 2.7453125 12.5625 3.25 C11.5725 3.745 11.5725 3.745 10.5625 4.25 C9.9025 3.92 9.2425 3.59 8.5625 3.25 C5.76053709 3.15138019 2.98895953 3.11103924 0.1875 3.125 C-0.58078125 3.12113281 -1.3490625 3.11726563 -2.140625 3.11328125 C-3.25824219 3.11521484 -3.25824219 3.11521484 -4.3984375 3.1171875 C-5.07696777 3.11831543 -5.75549805 3.11944336 -6.45458984 3.12060547 C-8.54985417 3.25733166 -10.41979148 3.68229045 -12.4375 4.25 C-12.1075 3.26 -11.7775 2.27 -11.4375 1.25 C-7.61347038 -0.02467654 -3.98531344 0.02676953 0 0 Z " fill="#2E2E2E" transform="translate(470.4375,484.75)"/>
<path d="M0 0 C0.33 0 0.66 0 1 0 C1.01981934 0.95777344 1.03963867 1.91554688 1.06005859 2.90234375 C1.13668251 6.48836593 1.22530745 10.07401203 1.31738281 13.65966797 C1.35543978 15.20549035 1.39033132 16.75139428 1.421875 18.29736328 C1.46803654 20.53187018 1.5259398 22.76582671 1.5859375 25 C1.59748871 25.68054443 1.60903992 26.36108887 1.62094116 27.06225586 C1.76923207 31.98855058 2.68695263 36.28224384 4 41 C2.02441406 39.53027344 2.02441406 39.53027344 0 37 C-0.34898973 34.04071721 -0.46784199 31.46546479 -0.390625 28.515625 C-0.38496521 27.70003113 -0.37930542 26.88443726 -0.37347412 26.04412842 C-0.35112727 23.44548228 -0.30093622 20.84822758 -0.25 18.25 C-0.22993271 16.48569703 -0.21168234 14.7213724 -0.1953125 12.95703125 C-0.1512683 8.63748672 -0.08225422 4.31897907 0 0 Z " fill="#101010" transform="translate(513,818)"/>
<path d="M0 0 C3.63 0 7.26 0 11 0 C11 0.66 11 1.32 11 2 C8.03 2 5.06 2 2 2 C2 4.64 2 7.28 2 10 C4.64 10 7.28 10 10 10 C10 10.33 10 10.66 10 11 C6.7 11 3.4 11 0 11 C0 7.37 0 3.74 0 0 Z " fill="#2D2D2D" transform="translate(732,652)"/>
<path d="M0 0 C-1.47205855 3.42966521 -3.43278906 5.56733429 -6.0625 8.1875 C-10.29682802 12.79702164 -11 15.81604267 -11 22 C-11.33 22 -11.66 22 -12 22 C-12.5967328 15.52876427 -12.26461741 11.06632386 -8.4375 5.6953125 C-3.60829493 0 -3.60829493 0 0 0 Z " fill="#2D2D2D" transform="translate(571,681)"/>
<path d="M0 0 C3.63 0 7.26 0 11 0 C11 4.62 11 9.24 11 14 C10.34 14 9.68 14 9 14 C9 10.04 9 6.08 9 2 C4.545 2.495 4.545 2.495 0 3 C0 2.01 0 1.02 0 0 Z " fill="#141414" transform="translate(277,472)"/>
<path d="M0 0 C0.66 0 1.32 0 2 0 C2 1.32 2 2.64 2 4 C-5.59 4 -13.18 4 -21 4 C-16.5 1.75 -16.5 1.75 -12.890625 1.8046875 C-12.13652344 1.81113281 -11.38242187 1.81757812 -10.60546875 1.82421875 C-9.43951172 1.84935547 -9.43951172 1.84935547 -8.25 1.875 C-7.06083984 1.88853516 -7.06083984 1.88853516 -5.84765625 1.90234375 C-3.89830719 1.92582988 -1.94911425 1.96169863 0 2 C0 1.34 0 0.68 0 0 Z " fill="#1D1D1D" transform="translate(490,548)"/>
<path d="M0 0 C0.99 0.33 1.98 0.66 3 1 C5.73865287 1.07051114 8.45027588 1.09357765 11.1875 1.0625 C12.31188477 1.05573242 12.31188477 1.05573242 13.45898438 1.04882812 C15.30602383 1.03706354 17.15302213 1.01912865 19 1 C19.33 1.66 19.66 2.32 20 3 C17.07313088 4.46343456 14.44546387 4.1704426 11.1875 4.1875 C9.96417969 4.20167969 8.74085938 4.21585938 7.48046875 4.23046875 C4.17328877 4.01147479 1.9608102 3.42682853 -1 2 C-0.67 1.34 -0.34 0.68 0 0 Z " fill="#242424" transform="translate(209,550)"/>
<path d="M0 0 C3.63 0 7.26 0 11 0 C11 0.66 11 1.32 11 2 C8.03 2 5.06 2 2 2 C2 4.31 2 6.62 2 9 C1.34 9 0.68 9 0 9 C0 6.03 0 3.06 0 0 Z " fill="#0B0B0B" transform="translate(265,486)"/>
<path d="M0 0 C6.8218683 -0.38614349 12.49577707 0.99134292 19 3 C19 3.33 19 3.66 19 4 C12.03672362 4.33693273 6.56654456 3.3030887 0 1 C0 0.67 0 0.34 0 0 Z " fill="#333333" transform="translate(138,717)"/>
<path d="M0 0 C0.99 0 1.98 0 3 0 C3 1.32 3 2.64 3 4 C6.3 4 9.6 4 13 4 C13 4.66 13 5.32 13 6 C9.04 6 5.08 6 1 6 C0.67 4.02 0.34 2.04 0 0 Z " fill="#262626" transform="translate(365,546)"/>
<path d="M0 0 C2.34211663 2.89399469 3.86862171 5.67155428 5.25 9.125 C5.60578125 9.99382813 5.9615625 10.86265625 6.328125 11.7578125 C7 14 7 14 6 16 C4 15 4 15 2.9296875 12.3828125 C2.58164062 11.30773437 2.23359375 10.23265625 1.875 9.125 C1.52179687 8.05507813 1.16859375 6.98515625 0.8046875 5.8828125 C0 3 0 3 0 0 Z " fill="#333333" transform="translate(796,654)"/>
<path d="M0 0 C0.33 0 0.66 0 1 0 C1 1.65 1 3.3 1 5 C-4.94 5 -10.88 5 -17 5 C-17 4.67 -17 4.34 -17 4 C-15.85660156 3.87882813 -14.71320313 3.75765625 -13.53515625 3.6328125 C-12.04421583 3.46402679 -10.55333327 3.29472953 -9.0625 3.125 C-8.30775391 3.04636719 -7.55300781 2.96773437 -6.77539062 2.88671875 C-4.84080701 2.66116192 -2.91823981 2.33741026 -1 2 C-0.67 1.34 -0.34 0.68 0 0 Z " fill="#494949" transform="translate(276,814)"/>
<path d="M0 0 C4 4 8 8 12 12 C11.34 12.66 10.68 13.32 10 14 C9.52949219 13.45730469 9.05898438 12.91460937 8.57421875 12.35546875 C7.95160156 11.64003906 7.32898438 10.92460937 6.6875 10.1875 C6.07261719 9.47980469 5.45773437 8.77210938 4.82421875 8.04296875 C3.07797698 6.0163477 3.07797698 6.0163477 1.26953125 4.42578125 C0 3 0 3 0 0 Z " fill="#2A2A2A" transform="translate(776,176)"/>
<path d="M0 0 C0.33 0 0.66 0 1 0 C0.88655624 2.1464753 0.75893655 4.29220592 0.625 6.4375 C0.52058594 8.22994141 0.52058594 8.22994141 0.4140625 10.05859375 C0.27742187 11.02925781 0.14078125 11.99992188 0 13 C-0.99 13.495 -0.99 13.495 -2 14 C-2.05437607 12.41705218 -2.09296271 10.83355744 -2.125 9.25 C-2.14820313 8.36828125 -2.17140625 7.4865625 -2.1953125 6.578125 C-1.99139502 3.8864142 -1.36551721 2.30095026 0 0 Z " fill="#383838" transform="translate(240,817)"/>
<path d="M0 0 C2.64 0 5.28 0 8 0 C7 2 7 2 5.296875 2.62109375 C2.57835155 3.06955765 0.00442923 3.09529082 -2.75 3.0625 C-3.73484375 3.05347656 -4.7196875 3.04445313 -5.734375 3.03515625 C-6.48203125 3.02355469 -7.2296875 3.01195312 -8 3 C-8 2.67 -8 2.34 -8 2 C-5.36 2 -2.72 2 0 2 C0 1.34 0 0.68 0 0 Z " fill="#383838" transform="translate(594,718)"/>
<path d="M0 0 C0.66 0.33 1.32 0.66 2 1 C-1.03829533 3.70983097 -2.7020353 4.9804148 -6.84765625 5.04296875 C-9.58496244 4.77806815 -12.28632865 4.4442309 -15 4 C-15 3.67 -15 3.34 -15 3 C-14.25234375 2.95101562 -13.5046875 2.90203125 -12.734375 2.8515625 C-11.74953125 2.77679687 -10.7646875 2.70203125 -9.75 2.625 C-8.28820312 2.52058594 -8.28820312 2.52058594 -6.796875 2.4140625 C-4.08763686 2.01297417 -2.40413024 1.22334061 0 0 Z " fill="#494949" transform="translate(232,539)"/>
<path d="M0 0 C0.66 0.33 1.32 0.66 2 1 C-1.3 4.3 -4.6 7.6 -8 11 C-8.99 10.67 -9.98 10.34 -11 10 C-10.01 9.67 -9.02 9.34 -8 9 C-7.67 8.01 -7.34 7.02 -7 6 C-5.37109375 4.39453125 -5.37109375 4.39453125 -3.4375 2.8125 C-2.79683594 2.28269531 -2.15617188 1.75289062 -1.49609375 1.20703125 C-1.00238281 0.80871094 -0.50867188 0.41039062 0 0 Z " fill="#2C2C2C" transform="translate(586,237)"/>
<path d="M0 0 C0.99 0.33 1.98 0.66 3 1 C3 2.65 3 4.3 3 6 C5.97 6 8.94 6 12 6 C12 6.33 12 6.66 12 7 C8.37 7 4.74 7 1 7 C1 5.35 1 3.7 1 2 C0.34 1.67 -0.32 1.34 -1 1 C-0.67 0.67 -0.34 0.34 0 0 Z " fill="#1C1C1C" transform="translate(467,867)"/>
<path d="M0 0 C0.88336837 2.4667645 1.1312406 3.63859372 0.22265625 6.140625 C-0.16019531 6.83671875 -0.54304687 7.5328125 -0.9375 8.25 C-1.31777344 8.95640625 -1.69804688 9.6628125 -2.08984375 10.390625 C-2.39019531 10.92171875 -2.69054687 11.4528125 -3 12 C-3.66 12 -4.32 12 -5 12 C-3.68938409 7.76570244 -2.05643741 3.92592596 0 0 Z " fill="#363636" transform="translate(809,714)"/>
<path d="M0 0 C0.66 0.33 1.32 0.66 2 1 C1.46884894 5.51478398 -0.36620292 8.34666857 -3 12 C-4 10 -4 10 -3.22265625 7.6171875 C-2.83980469 6.71226562 -2.45695313 5.80734375 -2.0625 4.875 C-1.68222656 3.96492187 -1.30195312 3.05484375 -0.91015625 2.1171875 C-0.60980469 1.41851563 -0.30945313 0.71984375 0 0 Z " fill="#3B3B3B" transform="translate(827,673)"/>
<path d="M0 0 C0.66 0 1.32 0 2 0 C0.44499019 3.81684226 -2.03595495 6.19195732 -5 9 C-5.66 8.67 -6.32 8.34 -7 8 C-5.88200014 6.66079162 -4.75538103 5.32877444 -3.625 4 C-2.68527344 2.88625 -2.68527344 2.88625 -1.7265625 1.75 C-1.15679687 1.1725 -0.58703125 0.595 0 0 Z " fill="#242424" transform="translate(452,490)"/>
<path d="M0 0 C4 1.33333333 8 2.66666667 12 4 C12 4.66 12 5.32 12 6 C7.01208429 5.52496041 3.9767259 4.0298864 0 1 C0 0.67 0 0.34 0 0 Z " fill="#313131" transform="translate(747,711)"/>
<path d="M0 0 C0.66 0.33 1.32 0.66 2 1 C-2.02167317 3.96837781 -5.00088076 5.52389341 -10 6 C-7.31100548 2.67830089 -3.94687492 1.43522725 0 0 Z " fill="#2F2F2F" transform="translate(359,538)"/>
<path d="M0 0 C0.33 0 0.66 0 1 0 C1.99 4.62 2.98 9.24 4 14 C0 10 0 10 -0.390625 7.421875 C-0.34421875 6.54015625 -0.2978125 5.6584375 -0.25 4.75 C-0.21390625 3.85796875 -0.1778125 2.9659375 -0.140625 2.046875 C-0.09421875 1.37140625 -0.0478125 0.6959375 0 0 Z " fill="#232323" transform="translate(513,845)"/>
<path d="M0 0 C0.66 0.33 1.32 0.66 2 1 C-0.13552597 4.20328895 -1.73232126 5.12108473 -5 7 C-5.66 7.66 -6.32 8.32 -7 9 C-7.99 8.67 -8.98 8.34 -10 8 C-6.7 5.36 -3.4 2.72 0 0 Z " fill="#2B2B2B" transform="translate(542,274)"/>
<path d="M0 0 C0 0.99 0 1.98 0 3 C-0.639375 3.268125 -1.27875 3.53625 -1.9375 3.8125 C-4.33131686 4.88667752 -4.33131686 4.88667752 -5 8 C-6.65 8.33 -8.3 8.66 -10 9 C-6.83047153 5.73991357 -3.60062011 2.77762123 0 0 Z " fill="#2A2A2A" transform="translate(568,253)"/>
<path d="M0 0 C0.66 0 1.32 0 2 0 C1.21681311 3.91593446 -0.39179858 7.36406635 -2 11 C-2.66 10.34 -3.32 9.68 -4 9 C-2.68 6.03 -1.36 3.06 0 0 Z " fill="#2B2B2B" transform="translate(829,694)"/>
<path d="M0 0 C0.66 0 1.32 0 2 0 C2.433125 0.928125 2.86625 1.85625 3.3125 2.8125 C4.72038627 5.47184073 5.76123556 7.08105905 8 9 C7.01 9 6.02 9 5 9 C0 3.76744186 0 3.76744186 0 0 Z " fill="#1B1B1B" transform="translate(325,541)"/>
<path d="M0 0 C1.00000429 4.00001715 0.80688405 6.05523353 0 10 C-0.99 10.33 -1.98 10.66 -3 11 C-2.01 7.37 -1.02 3.74 0 0 Z " fill="#3D3D3D" transform="translate(171,690)"/>
<path d="M0 0 C-0.33 0.66 -0.66 1.32 -1 2 C-3.875 2.75 -3.875 2.75 -7 3 C-7.99 2.34 -8.98 1.68 -10 1 C-6.61981469 -0.04005702 -3.5219721 -0.08004482 0 0 Z " fill="#272727" transform="translate(411,717)"/>
<path d="M0 0 C4.75 0.875 4.75 0.875 7 2 C7 2.66 7 3.32 7 4 C7.99 4.33 8.98 4.66 10 5 C5.2482602 4.56802365 3.07999946 3.67230705 0 0 Z " fill="#3E3E3E" transform="translate(282,546)"/>
<path d="M0 0 C1.90401138 1.90401138 2.93520439 3.33425686 3.19921875 6.046875 C3.1886578 8.03233273 3.09915043 10.0169914 3 12 C2.67 12 2.34 12 2 12 C0.70756464 7.8803623 -0.26252625 4.33168317 0 0 Z " fill="#5F5F5F" transform="translate(276,846)"/>
<path d="M0 0 C4.29425875 1.07356469 4.74740471 1.5084773 7 5 C6.67 5.66 6.34 6.32 6 7 C4.02 4.69 2.04 2.38 0 0 Z " fill="#313131" transform="translate(605,372)"/>
<path d="M0 0 C2.5 1.3125 2.5 1.3125 5 3 C5 3.99 5 4.98 5 6 C4.01 6.33 3.02 6.66 2 7 C1.855625 6.401875 1.71125 5.80375 1.5625 5.1875 C1.1127561 3.43849596 0.57107659 1.71322977 0 0 Z " fill="#2D2D2D" transform="translate(905,293)"/>
</svg>
