<?xml version="1.0" encoding="UTF-8"?>
<svg version="1.1" xmlns="http://www.w3.org/2000/svg" width="512" height="512">
<path d="M0 0 C0.845625 0.62390625 1.69125 1.2478125 2.5625 1.890625 C9.26634778 7.04420798 15.13517203 12.9344745 21 19 C19.50469676 22.48972003 17.50808338 24.73465395 14.82568359 27.40136719 C13.96494232 28.2619574 13.10420105 29.12254761 12.21737671 30.00921631 C11.28712677 30.92914368 10.35687683 31.84907104 9.3984375 32.796875 C8.43678914 33.75479097 7.47558306 34.71315114 6.51480103 35.67193604 C3.99076718 38.18835125 1.46078409 40.69870107 -1.07049561 43.20782471 C-3.6547919 45.77162441 -6.23340199 48.34112918 -8.8125 50.91015625 C-13.86945697 55.94569457 -18.93272256 60.9748456 -24 66 C-17.51810515 73.72618716 -10.46302806 80.83253177 -3.36279297 87.98730469 C-1.79646503 89.57014073 -0.23551178 91.15831481 1.31982422 92.75195312 C20.12683136 112.01786241 41.09706557 126.52285735 68.91455078 127.42163086 C84.3337948 127.52928401 98.98179532 123.97926861 112.5625 116.5625 C116 115 116 115 117.91792202 115.62129498 C120.50832637 117.33660225 122.55116577 119.29920716 124.75074768 121.4967804 C125.2134901 121.95640283 125.67623252 122.41602527 126.15299743 122.88957566 C127.69996713 124.42857789 129.23970126 125.97461837 130.77954102 127.52075195 C131.8881356 128.62663608 132.99715512 129.73209437 134.10656738 130.8371582 C137.11733245 133.8388024 140.12173268 136.84674283 143.1247685 139.85611749 C146.26873934 143.00515113 149.41758622 146.14930286 152.56565857 149.29423523 C157.85263478 154.57757208 163.1353786 159.86511337 168.41577148 165.1550293 C174.51843082 171.26856748 180.62825413 177.37487491 186.74185997 183.47746497 C191.9914933 188.71801787 197.23721329 193.96246402 202.47969192 199.21017426 C205.61037376 202.34397235 208.74238686 205.47640779 211.87793159 208.60534096 C214.82665593 211.54828171 217.77043266 214.49608413 220.71048737 217.44768524 C221.78951428 218.52935354 222.870241 219.60932928 223.95279503 220.68746758 C225.43195606 222.16115107 226.90479966 223.64087784 228.37623596 225.12226868 C229.20157617 225.94836293 230.02691637 226.77445719 230.87726688 227.6255846 C236.38018964 233.7809625 237.38046798 239.14560458 237.2734375 247.18359375 C236.68674655 253.22651058 234.03371916 257.31819634 229.625 261.375 C224.54793923 265.33338636 219.83916255 266.20990803 213.5390625 266.36328125 C204.83582102 265.11804824 200.14873086 260.85433255 194.19726562 254.76489258 C193.35729034 253.92564743 192.51731506 253.08640228 191.65188599 252.22172546 C189.36637563 249.93334193 187.09229927 247.63430327 184.82294655 245.32991624 C182.44303398 242.91860891 180.04882013 240.52158528 177.65612793 238.12297058 C173.13428598 233.58562858 168.62533413 229.03570053 164.1209445 224.4810397 C158.98933026 219.29341213 153.8434002 214.12008535 148.69625568 208.94787371 C138.11490184 198.31434876 127.55153802 187.66311779 117 177 C115.8835778 177.95052271 114.76806745 178.9021165 113.65293884 179.85415649 C113.03164062 180.38395929 112.41034239 180.91376209 111.77021694 181.45961952 C109.54703648 183.39415291 107.45489861 185.43229192 105.37890625 187.5234375 C104.58935547 188.31621094 103.79980469 189.10898438 102.98632812 189.92578125 C102.18646484 190.73402344 101.38660156 191.54226562 100.5625 192.375 C99.73556641 193.20644531 98.90863281 194.03789062 98.05664062 194.89453125 C96.03544469 196.9274104 94.01663665 198.96259963 92 201 C93.3794577 204.10384107 94.96111413 206.20268665 97.37132263 208.58491516 C98.06811127 209.27867249 98.7648999 209.97242981 99.48280334 210.68721008 C100.24701096 211.43794296 101.01121857 212.18867584 101.79858398 212.9621582 C102.60360352 213.76104462 103.40862305 214.55993103 104.23803711 215.38302612 C105.9868994 217.11757998 107.73798896 218.8498904 109.49102592 220.58022499 C112.26562817 223.32007097 115.03310211 226.06692953 117.79859924 228.81596375 C125.66240603 236.6315287 133.53786144 244.43529265 141.42211914 252.23022461 C146.24439444 256.99803573 151.05599452 261.7764372 155.86213875 266.56050682 C157.69518176 268.3811385 159.53201049 270.1979669 161.37267876 272.01088905 C163.94832717 274.54806084 166.51137737 277.09735672 169.07202148 279.6496582 C170.21529655 280.76664848 170.21529655 280.76664848 171.38166809 281.90620422 C177.08322792 287.62902108 180.42625537 292.56025233 180.4375 300.9375 C180.22773154 308.23379439 178.31986047 312.62741543 173.25 317.8125 C167.42364216 321.73408701 162.12447584 323.7633367 155 323 C140.71828884 319.48810381 129.20397634 303.33396841 119.1796875 293.27734375 C117.46784042 291.5636285 115.75577013 289.85013619 114.04348755 288.13685608 C109.56646063 283.65603536 105.09244661 279.17221828 100.61907959 274.68774414 C96.04215997 270.10054251 91.46236103 265.51621747 86.8828125 260.93164062 C77.91907443 251.95722064 68.95842226 242.97972617 60 234 C58.8835778 234.95052271 57.76806745 235.9021165 56.65293884 236.85415649 C56.03164062 237.38395929 55.41034239 237.91376209 54.77021694 238.45961952 C52.54703648 240.39415291 50.45489861 242.43229192 48.37890625 244.5234375 C47.19458008 245.71259766 47.19458008 245.71259766 45.98632812 246.92578125 C45.18646484 247.73402344 44.38660156 248.54226563 43.5625 249.375 C42.73556641 250.20644531 41.90863281 251.03789062 41.05664062 251.89453125 C39.03544469 253.9274104 37.01663665 255.96259963 35 258 C39.33334854 263.18447733 43.88645429 268.0149603 48.68603516 272.76782227 C49.43151108 273.51023163 50.176987 274.25264099 50.9450531 275.01754761 C52.55301577 276.6183937 54.16210268 278.21811119 55.77220535 279.81680489 C58.32211529 282.34923242 60.86838595 284.8852674 63.41366577 287.42234802 C70.64717061 294.63147526 77.88631722 301.83491754 85.12988281 309.03393555 C89.56954547 313.44679701 94.00430981 317.86453237 98.43610764 322.28529167 C100.12229138 323.96527596 101.81036919 325.64336144 103.50038528 327.31949043 C105.8624326 329.66229149 108.2182274 332.01121629 110.57275391 334.36157227 C111.2689534 335.04901016 111.96515289 335.73644806 112.68244934 336.44471741 C118.7575213 342.53207835 123.70024714 348.31662145 124.10546875 357.3515625 C123.82060993 364.16707353 121.57055678 368.96245155 117 374 C111.96676923 378.43051196 106.69436608 380.3347183 100 380 C92.35804862 379.05021461 88.12454382 376.68875941 82.99609375 371.0546875 C74.03528809 361.83084449 59.95176429 357.82573295 47.39428711 357.61279297 C41.48995712 357.64140199 35.81403031 357.86691422 30 359 C29.72027344 358.26136719 29.44054687 357.52273438 29.15234375 356.76171875 C22.20839921 339.18974335 12.55254788 327.31666291 -5.05078125 319.67578125 C-12.20704699 317.12606538 -19.47722097 315.92214711 -27 315 C-27.13535156 314.07960938 -27.27070313 313.15921875 -27.41015625 312.2109375 C-30.22915847 295.63452926 -37.38653035 282.185842 -50.80078125 271.83984375 C-59.2912755 266.18351731 -68.03309836 262.92907774 -78 261 C-78.03867187 259.60201172 -78.03867187 259.60201172 -78.078125 258.17578125 C-78.77235178 242.57145659 -82.90520769 227.67632166 -93.83984375 215.97265625 C-108.27982035 202.78605917 -124.356916 198.06802218 -143.61767578 198.80322266 C-149.71880154 199.30716889 -155.77587448 201.16278881 -161.09765625 204.1953125 C-163 205 -163 205 -164.8984375 204.94921875 C-168.0439276 203.52848623 -170.24251466 201.24374854 -172.625 198.8125 C-173.15134033 198.27786133 -173.67768066 197.74322266 -174.2199707 197.19238281 C-197.19547384 173.24384028 -209.15190763 141.17182318 -209.24023438 108.25170898 C-209.24983701 106.09903754 -209.28087185 103.94736592 -209.3125 101.79492188 C-209.41247326 88.81439323 -207.5938009 76.30780417 -203.3125 64 C-203.05831299 63.25854736 -202.80412598 62.51709473 -202.54223633 61.75317383 C-195.50103241 41.93200565 -184.04672337 25.65075696 -169 11 C-168.55011719 10.505 -168.10023438 10.01 -167.63671875 9.5 C-125.6107707 -35.55014779 -47.41014483 -35.27540538 0 0 Z " fill="#000000" transform="translate(209,42)"/>
<path d="M0 0 C3.84652083 3.43921524 7.49052464 7.0734506 11.1328125 10.7265625 C12.46857411 12.05792292 13.81733017 13.37738863 15.20703125 14.65234375 C30.42968216 28.79864561 40.20215405 50.31844222 45.50390625 70.08984375 C45.84292969 71.33765625 46.18195313 72.58546875 46.53125 73.87109375 C51.09726629 94.57597869 50.29337344 118.75297255 44.50390625 139.08984375 C44.3219873 139.75677246 44.14006836 140.42370117 43.95263672 141.11083984 C37.28814577 165.01128862 23.20788367 185.05115149 5.50390625 202.08984375 C1.49434155 200.48125411 -1.19586774 197.66389988 -4.17816162 194.64828491 C-4.74102599 194.08712939 -5.30389037 193.52597387 -5.88381124 192.94781363 C-7.76944938 191.06547084 -9.64784833 189.17606677 -11.52636719 187.28662109 C-12.87626415 185.93616003 -14.22660158 184.58613912 -15.5773468 183.23652649 C-19.24470825 179.56973959 -22.90586435 175.89681258 -26.56595516 172.22277021 C-30.3914116 168.38482347 -34.22252081 164.55252805 -38.05303955 160.71963501 C-45.30656868 153.45988612 -52.55498388 146.19505336 -59.80158544 138.92839015 C-68.05150899 130.65612305 -76.30710252 122.38952451 -84.56318235 114.12340236 C-101.54714574 97.11852573 -118.52395957 80.10652625 -135.49609375 63.08984375 C-138.40374021 64.4837629 -140.39167234 65.77281048 -142.59765625 68.13671875 C-143.16516602 68.73186279 -143.73267578 69.32700684 -144.31738281 69.94018555 C-144.91260742 70.56707275 -145.50783203 71.19395996 -146.12109375 71.83984375 C-151.43948078 77.28035773 -156.47049083 81.93717824 -163.49609375 85.08984375 C-164.21152344 85.42371094 -164.92695313 85.75757813 -165.6640625 86.1015625 C-176.56033273 90.24627114 -191.22908362 89.61068668 -201.93359375 85.34375 C-210.24493017 81.27676983 -216.82091608 75.4306861 -223.49609375 69.08984375 C-224.27339844 68.42210938 -225.05070313 67.754375 -225.8515625 67.06640625 C-227.49609375 65.08984375 -227.49609375 65.08984375 -227.42010498 63.3117981 C-226.08364224 60.0980285 -223.79252268 57.96902361 -221.35644531 55.56201172 C-220.82122757 55.02153702 -220.28600983 54.48106232 -219.73457336 53.92420959 C-217.95943723 52.13585421 -216.17352682 50.35871946 -214.38671875 48.58203125 C-213.14089847 47.33418815 -211.89552366 46.08590016 -210.65057373 44.83718872 C-208.03248446 42.21467128 -205.40903663 39.59766556 -202.78173828 36.984375 C-199.44671641 33.66628575 -196.12513294 30.33512547 -192.807621 26.99954033 C-190.23225646 24.41321426 -187.6496386 21.83422511 -185.06493378 19.25723648 C-183.83978991 18.03406903 -182.61680108 16.80873851 -181.39618683 15.58105087 C-134.11547644 -31.91304321 -54.12418697 -46.43407424 0 0 Z " fill="#000000" transform="translate(463.49609375,44.91015625)"/>
<path d="M0 0 C5.19825793 4.20690312 8.58548413 8.54515461 9.59765625 15.29296875 C9.99421132 25.73029809 5.7922172 31.98974648 -1.13671875 39.49609375 C-2.46736992 40.85283612 -3.80598703 42.20181031 -5.15234375 43.54296875 C-5.80460937 44.22359375 -6.456875 44.90421875 -7.12890625 45.60546875 C-12.66121361 51.1593026 -18.71595257 55.34270555 -26.50390625 56.921875 C-33.59549192 56.73525432 -38.84489418 55.56518851 -44.15625 50.6796875 C-49.38890055 44.99312028 -50.92038011 39.4618826 -50.703125 31.80078125 C-49.6654355 23.14887655 -43.18861704 17.29885307 -37.40234375 11.29296875 C-36.70367187 10.55433594 -36.005 9.81570313 -35.28515625 9.0546875 C-25.71300424 -0.8340532 -13.35136494 -8.74309241 0 0 Z " fill="#000000" transform="translate(85.40234375,279.70703125)"/>
<path d="M0 0 C5.97680944 2.68899933 9.31844278 6.90970254 12.44140625 12.6171875 C14.30548322 18.40563703 14.30281266 23.04511895 12.56640625 28.8671875 C10.06840351 33.29912785 7.15013681 36.64737073 3.62890625 40.3046875 C3.06993652 40.88943848 2.5109668 41.47418945 1.93505859 42.07666016 C-0.00958029 44.10175992 -1.96900184 46.1114473 -3.93359375 48.1171875 C-4.57071289 48.77589844 -5.20783203 49.43460937 -5.86425781 50.11328125 C-11.25938176 55.54472659 -16.25585074 58.76076774 -24.01171875 59.359375 C-31.15953695 59.19369709 -36.60368652 56.10310034 -41.70703125 51.25390625 C-45.77970416 46.48333399 -47.03640736 40.90358911 -46.68652344 34.7043457 C-45.45287072 25.3192276 -39.12462717 19.32033409 -32.62109375 12.9921875 C-31.31785156 11.67250977 -31.31785156 11.67250977 -29.98828125 10.32617188 C-21.25498733 1.69122586 -12.64444925 -3.70792746 0 0 Z " fill="#000000" transform="translate(132.37109375,339.6953125)"/>
<path d="M0 0 C4.38437533 3.06729484 7.6157584 6.76537083 9.625 11.75 C9.92578125 14.9921875 9.92578125 14.9921875 9.9375 18.625 C9.95425781 19.81867188 9.97101563 21.01234375 9.98828125 22.2421875 C9.11121102 30.71110218 3.11582566 35.75469775 -2.61621094 41.43725586 C-4.11939239 42.93192415 -5.60295331 44.44430619 -7.0859375 45.95898438 C-8.05095132 46.92561062 -9.01706238 47.89114294 -9.984375 48.85546875 C-11.2832666 50.15713989 -11.2832666 50.15713989 -12.60839844 51.48510742 C-18.13645151 56.01067646 -23.58392555 57.32652163 -30.6640625 57.09375 C-37.53226263 56.22285431 -41.81757566 52.84287679 -46.1484375 47.62890625 C-48.84244421 43.50209979 -49.68579278 39.83651096 -49.75 34.9375 C-49.77835938 33.96167969 -49.80671875 32.98585938 -49.8359375 31.98046875 C-48.53424674 22.85760217 -42.47216085 17.22980194 -36.125 11 C-35.30386719 10.16339844 -34.48273438 9.32679688 -33.63671875 8.46484375 C-24.35338809 -0.75963854 -12.61745512 -7.51376541 0 0 Z " fill="#000000" transform="translate(266.375,438.25)"/>
<path d="M0 0 C5.14338337 2.9958329 8.76038445 7.90615335 10.625 13.5 C10.82280461 15.72388902 10.93726869 17.95571287 11 20.1875 C11.04898438 21.36699219 11.09796875 22.54648437 11.1484375 23.76171875 C9.89845671 32.68882037 2.9631743 38.65519475 -3.1875 44.75 C-4.34088867 45.93335938 -4.34088867 45.93335938 -5.51757812 47.140625 C-11.01443229 52.63284047 -15.9440443 56.85614259 -23.7890625 57.99609375 C-31.39299501 57.85733586 -36.03432578 57.28389519 -42 52.3125 C-47.09126971 46.28336482 -48.8110739 41.30586617 -48.90625 33.40625 C-47.17547945 23.937917 -40.66773202 18.18362977 -34.0625 11.6875 C-33.13759766 10.74712891 -32.21269531 9.80675781 -31.25976562 8.83789062 C-22.41682018 0.0452249 -12.61526769 -5.44805227 0 0 Z " fill="#000000" transform="translate(193.375,395.5)"/>
</svg>
