<?xml version="1.0" encoding="UTF-8"?>
<svg version="1.1" xmlns="http://www.w3.org/2000/svg" width="512" height="512">
<path d="M0 0 C1.35236535 -0.00406871 2.70472737 -0.00941227 4.05708313 -0.01593018 C7.71818719 -0.02957283 11.37903681 -0.02431823 15.04014516 -0.01479292 C18.8761711 -0.007182 22.71217569 -0.01424576 26.54820251 -0.01895142 C32.98822937 -0.02440415 39.4281529 -0.01722937 45.86816406 -0.00292969 C53.30956167 0.01340289 60.75071275 0.00810207 68.1921044 -0.0084089 C74.58717648 -0.02202929 80.98217443 -0.02394095 87.37725633 -0.0160929 C91.19418818 -0.01142029 95.01100418 -0.01078026 98.82792854 -0.02070236 C102.41575204 -0.0293781 106.00325803 -0.02333936 109.59104729 -0.00601959 C111.53306519 -0.00017099 113.47511 -0.00906465 115.41711426 -0.0184021 C117.15614769 -0.00571289 117.15614769 -0.00571289 118.93031311 0.00723267 C120.43819948 0.00892928 120.43819948 0.00892928 121.97654819 0.01066017 C126.34293943 0.60928351 128.93570616 2.54156649 131.90597534 5.706604 C133.83950366 8.54881979 134.87314759 11.0242191 135.91821289 14.29345703 C136.49221832 16.06197021 136.49221832 16.06197021 137.07781982 17.86621094 C137.48561894 19.15992205 137.89318399 20.45370698 138.30053711 21.74755859 C138.73844767 23.1109703 139.17729287 24.47408211 139.61700439 25.83691406 C140.79769242 29.5057762 141.96484963 33.17881361 143.1293869 36.85282898 C144.34239211 40.67206712 145.56765022 44.48737177 146.79125977 48.30322266 C149.54411339 56.89752324 152.27719289 65.49803896 155.00473022 74.10040283 C155.71727114 76.347336 156.43032165 78.59410676 157.14355469 80.84082031 C162.70088665 98.34767263 168.23117523 115.86292544 173.73022461 133.38818359 C176.70022461 133.71818359 179.67022461 134.04818359 182.73022461 134.38818359 C182.40022461 133.39818359 182.07022461 132.40818359 181.73022461 131.38818359 C180.99873748 123.46842866 182.16356715 117.2824225 186.54272461 110.63818359 C191.71309196 105.32009146 197.4960432 102.39187122 204.91941833 102.11643982 C206.54693376 102.0960968 208.17460395 102.08635508 209.80224609 102.08520508 C210.69586349 102.07676575 211.5894809 102.06832642 212.51017761 102.05963135 C215.45723023 102.0339 218.40418229 102.02171453 221.35131836 102.00927734 C223.41431959 101.99308379 225.47731328 101.97590188 227.54029846 101.95777893 C232.9744005 101.91211651 238.40851319 101.87732439 243.8427124 101.84558105 C252.5070871 101.7937319 261.17134768 101.72782888 269.83558846 101.6573658 C272.84134597 101.63482093 275.84709006 101.6183562 278.85289001 101.60264587 C287.03996084 101.55115596 295.2282111 101.47255044 303.40625 101.06030273 C304.56677383 101.00451553 305.72729767 100.94872833 306.92298889 100.89125061 C309.72394747 100.59938881 309.72394747 100.59938881 311.59812927 99.03367615 C313.39894058 96.41620966 313.17883017 94.46433598 312.73022461 91.38818359 C309.76126614 88.48575157 307.58563019 88.00994768 303.50372314 87.98945618 C302.44645523 87.97691803 301.38918732 87.96437988 300.29988098 87.95146179 C298.56818916 87.95361443 298.56818916 87.95361443 296.80151367 87.95581055 C295.58173325 87.9456189 294.36195282 87.93542725 293.10520935 87.92492676 C289.76451566 87.89991408 286.42426164 87.88807165 283.08351231 87.88207269 C279.59074217 87.87269047 276.09809925 87.84648724 272.60540771 87.82206726 C265.99340506 87.77839426 259.38142708 87.74985229 252.76932406 87.72674388 C245.24088544 87.69969644 237.71257475 87.65578469 230.18422747 87.61045516 C214.6996256 87.51759746 199.21499965 87.44592195 183.73022461 87.38818359 C185.06574235 83.98567081 186.51061556 80.8244625 188.31225586 77.64208984 C188.82578613 76.73273682 189.33931641 75.82338379 189.8684082 74.88647461 C190.69719482 73.43325806 190.69719482 73.43325806 191.54272461 71.95068359 C192.11587402 70.94384521 192.68902344 69.93700684 193.27954102 68.8996582 C195.09121237 65.72614554 196.91016235 62.55689012 198.73022461 59.38818359 C199.31433105 58.36595703 199.8984375 57.34373047 200.50024414 56.29052734 C202.19143867 53.33772361 203.89598575 50.39307195 205.60522461 47.45068359 C206.37056519 46.11275757 206.37056519 46.11275757 207.15136719 44.74780273 C211.39345378 37.50831364 215.99926929 29.98818112 223.91772461 26.45068359 C224.7362793 26.07041016 225.55483398 25.69013672 226.39819336 25.29833984 C230.88942097 23.54548217 234.74963559 23.24986953 239.58740234 23.21118164 C240.61034142 23.20132484 240.61034142 23.20132484 241.65394592 23.19126892 C243.90723805 23.17159062 246.16046338 23.15988005 248.41381836 23.14990234 C249.1882686 23.14582682 249.96271885 23.14175129 250.76063728 23.13755226 C254.86695206 23.11670586 258.97323365 23.102403 263.07958984 23.09301758 C267.28892248 23.08200975 271.49771822 23.04767192 275.70686245 23.00784588 C278.9697405 22.98148767 282.23249494 22.97330847 285.49547005 22.9697361 C287.04497936 22.96491248 288.59448478 22.95342165 290.14388847 22.9346981 C302.69818181 22.79252591 314.78278286 23.8255247 324.69116211 32.36474609 C331.59290152 39.21359861 336.79553426 47.32353432 342.10522461 55.41162109 C344.69834428 59.35742035 347.36038028 63.25265774 350.04272461 67.13818359 C350.49421875 67.79310791 350.94571289 68.44803223 351.41088867 69.12280273 C352.35376744 70.49050406 353.29680496 71.85809596 354.23999023 73.22558594 C358.03162932 78.72793505 361.80986288 84.23930699 365.57006836 89.76318359 C367.58133308 92.71720948 369.61449462 95.65344873 371.67163086 98.57568359 C377.850859 107.43700171 383.26070956 116.16462726 381.73022461 127.38818359 C379.78843104 137.48551014 375.01484168 144.0759067 366.85522461 150.16162109 C362.31921274 152.77983383 357.99882984 153.63818349 352.8081131 153.6454525 C351.63989627 153.65190139 350.47167945 153.65835028 349.26806211 153.6649946 C347.9939461 153.66189739 346.71983008 153.65880019 345.40710449 153.65560913 C344.03264126 153.65934728 342.65818015 153.66394946 341.2837224 153.66933978 C337.51211364 153.68156435 333.74059363 153.68130997 329.96896958 153.67895103 C325.89937872 153.67854273 321.82981626 153.68958302 317.76023865 153.69906616 C309.79002459 153.71567298 301.81984012 153.72117552 293.84961021 153.72229092 C287.37239719 153.72324132 280.89519394 153.72735122 274.41798401 153.73369217 C256.05642497 153.75130189 237.6948893 153.76053119 219.33332175 153.75903122 C218.34362098 153.75895131 217.35392022 153.7588714 216.33422852 153.75878906 C215.34332067 153.7587073 214.35241282 153.75862554 213.33147746 153.7585413 C197.26332055 153.75772795 181.19525728 153.77687855 165.12712747 153.8050658 C148.63098083 153.83377581 132.1348799 153.8476072 115.63870764 153.84587824 C106.37625008 153.8452138 97.11389076 153.85073001 87.85145569 153.87223434 C79.96746456 153.89042115 72.08361621 153.89481394 64.19961321 153.8812155 C60.17654885 153.87467381 56.15375863 153.87461176 52.13072014 153.891922 C48.44813567 153.90760463 44.76604381 153.90483898 41.08347172 153.88735373 C39.11976226 153.88281347 37.15603781 153.89797864 35.1923871 153.91383302 C24.50854617 153.82971713 24.50854617 153.82971713 19.73022461 149.38818359 C18.39672852 147.4214325 18.39672852 147.4214325 17.58178711 145.33618164 C17.26886719 144.54488861 16.95594727 143.75359558 16.63354492 142.93832397 C15.02375542 138.39376856 13.52650296 133.82722868 12.10522461 129.22021484 C11.76526962 128.13489471 11.42531464 127.04957458 11.07505798 125.93136597 C10.33979453 123.58281858 9.60683409 121.2335492 8.87594604 118.88363647 C7.1084571 113.20199494 5.32706965 107.52472001 3.54435539 101.84784126 C3.12732418 100.51978601 2.71047218 99.19167448 2.29379463 97.86350822 C-3.46693436 79.50561931 -9.401142 61.20365108 -15.33348942 42.90065765 C-15.96803424 40.9423723 -16.60207504 38.9839245 -17.23594666 37.02542114 C-18.01167635 34.62932258 -18.78859682 32.23360908 -19.56690979 29.83834839 C-19.90979538 28.77931305 -20.25268097 27.72027771 -20.60595703 26.62915039 C-21.05413536 25.24822456 -21.05413536 25.24822456 -21.5113678 23.83940125 C-23.44087337 17.60312649 -24.60863652 12.11740052 -21.64477539 6.07568359 C-15.59176459 -0.773776 -8.52556216 -0.04105801 0 0 Z " fill="#464646" transform="translate(36.269775390625,345.61181640625)"/>
<path d="M0 0 C18.09784916 2.9749889 31.70687909 12.56399273 46.32763672 23.09716797 C50.89541306 26.34961168 55.54426301 29.48171797 60.1875 32.625 C67.00157908 37.25948544 73.8068541 41.9056172 80.5625 46.625 C81.24658936 47.09760254 81.93067871 47.57020508 82.63549805 48.05712891 C91.42018631 54.23051332 98.07031546 61.1972534 100.49829102 71.86303711 C102.28637738 83.04314501 98.61980835 93.43234074 94.9375 103.8125 C94.45886908 105.1980789 93.98164702 106.58414531 93.50585938 107.97070312 C92.35336844 111.31955885 91.18215793 114.66148364 90 118 C86.40979087 114.95628942 82.88628479 111.89508874 79.5 108.625 C72.61641456 102.55283917 63.53434092 98.21465614 55 95 C55.061875 93.96875 55.12375 92.9375 55.1875 91.875 C54.98431852 87.67591604 54.24046074 85.52072403 52 82 C48.78602157 79.14199726 45.34286892 77.82425755 41.3359375 76.3359375 C40.70265533 76.09839752 40.06937317 75.86085754 39.41690063 75.61611938 C37.40517703 74.86289776 35.39026669 74.1186835 33.375 73.375 C31.35334127 72.62228541 29.33237252 71.86775087 27.31167603 71.11245728 C25.48416628 70.43043144 23.65496436 69.75294498 21.82568359 69.07568359 C19 68 19 68 17 67 C17.13277344 67.6290625 17.26554688 68.258125 17.40234375 68.90625 C19.22591957 77.7446029 20.16662825 85.96504601 20 95 C19.18917969 95.27972656 18.37835938 95.55945313 17.54296875 95.84765625 C9.64864252 98.70578833 2.80868289 102.08321173 -4 107 C-4.70769531 107.51046875 -5.41539062 108.0209375 -6.14453125 108.546875 C-19.31524012 119.04187773 -26.71837434 135.67487998 -29 152 C-30.49634354 170.42757313 -25.16473377 187.35051852 -13.6875 201.75 C-12.46300781 203.17070899 -11.23430195 204.58780531 -10 206 C-8.9883462 207.32451288 -7.98442389 208.65512551 -7 210 C-7.90878906 210.38478516 -7.90878906 210.38478516 -8.8359375 210.77734375 C-20.43205762 216.07587864 -27.51918216 223.69635722 -33.70507812 234.70361328 C-35.2881577 237.51101269 -36.90158082 240.3001325 -38.515625 243.08984375 C-41.13176245 247.61333407 -43.74014173 252.14116333 -46.34375 256.671875 C-50.47113213 263.83711292 -54.69958688 270.93753292 -59 278 C-61.39465253 275.60534747 -61.85103838 273.86190247 -62.87597656 270.64257812 C-63.23685364 269.51960327 -63.59773071 268.39662842 -63.96954346 267.23962402 C-64.35600037 266.0158606 -64.74245728 264.79209717 -65.140625 263.53125 C-65.54880967 262.2542536 -65.95757197 260.9774417 -66.36688232 259.70080566 C-67.44837362 256.3227976 -68.52266133 252.94254213 -69.59527588 249.56170654 C-70.66527929 246.19229803 -71.74083329 242.8246652 -72.81640625 239.45703125 C-73.02548929 238.80210158 -73.23457233 238.14717192 -73.44999123 237.4723959 C-75.27098966 231.769387 -77.09745048 226.06813499 -78.92498779 220.36721802 C-79.89604628 217.32561012 -80.85501665 214.28048955 -81.81103516 211.23413086 C-82.32919107 209.61293891 -82.84785762 207.99191002 -83.3671875 206.37109375 C-83.69157806 205.31474731 -83.69157806 205.31474731 -84.02252197 204.23706055 C-85.3352413 200.19361512 -86.94054109 197.60870275 -89.875 194.5625 C-93.51386046 190.48361384 -93.3757431 186.65777337 -93.20898438 181.4519043 C-93.19524529 180.61484546 -93.1815062 179.77778662 -93.16735077 178.91536236 C-93.13770474 177.15354931 -93.10163175 175.39183391 -93.05947876 173.63027573 C-92.98487493 170.33113744 -92.9563501 167.03251894 -92.92919159 163.73270893 C-92.89293442 159.55732706 -92.8351733 155.38221546 -92.78125 151.20703125 C-92.75872713 149.39572779 -92.736309 147.58442303 -92.71398926 145.77311707 C-92.65584164 141.07649413 -92.59630127 136.37988992 -92.53643799 131.68328857 C-92.47524849 126.86243756 -92.41542151 122.04156965 -92.35546875 117.22070312 C-92.23828817 107.81378537 -92.11963143 98.40688689 -92 89 C-92.32554871 89.54498138 -92.65109741 90.08996277 -92.98651123 90.65145874 C-98.99057571 100.69659312 -105.00560879 110.72697564 -111.25 120.625 C-116.58377959 129.12028401 -121.8739203 137.64084546 -127.125 146.1875 C-128.11777954 147.80253418 -128.11777954 147.80253418 -129.13061523 149.45019531 C-130.44345323 151.58604257 -131.75619866 153.72194673 -133.06884766 155.85791016 C-136.14667655 160.86570508 -139.22651358 165.8722273 -142.3125 170.875 C-142.84568848 171.74278076 -143.37887695 172.61056152 -143.92822266 173.50463867 C-144.42241699 174.30490479 -144.91661133 175.1051709 -145.42578125 175.9296875 C-145.85286377 176.62304199 -146.27994629 177.31639648 -146.7199707 178.03076172 C-147.14238037 178.68061035 -147.56479004 179.33045898 -148 180 C-148.41024414 180.69124969 -148.82048828 181.38249939 -149.24316406 182.09469604 C-151 184 -151 184 -153.44877625 184.48101807 C-154.4191835 184.47213562 -155.38959076 184.46325317 -156.3894043 184.45410156 C-157.49031906 184.45379944 -158.59123383 184.45349731 -159.72550964 184.45318604 C-160.91308365 184.43254089 -162.10065765 184.41189575 -163.32421875 184.390625 C-165.14902519 184.38213531 -165.14902519 184.38213531 -167.01069641 184.37347412 C-170.90336144 184.35105034 -174.7951123 184.30084013 -178.6875 184.25 C-181.32355443 184.22994289 -183.95962327 184.21169075 -186.59570312 184.1953125 C-193.06411498 184.15116572 -199.53199219 184.08419287 -206 184 C-199.77491637 171.37416054 -199.77491637 171.37416054 -196.44140625 165.8359375 C-195.50325073 164.26718872 -195.50325073 164.26718872 -194.54614258 162.66674805 C-193.89154053 161.58047119 -193.23693848 160.49419434 -192.5625 159.375 C-191.1380014 156.99505265 -189.7171716 154.61292563 -188.296875 152.23046875 C-187.93817825 151.62940811 -187.57948151 151.02834747 -187.20991516 150.40907288 C-183.51384273 144.20517263 -179.90838253 137.94991824 -176.3125 131.6875 C-171.27973605 122.93160113 -166.19508827 114.20992058 -161.04516602 105.52246094 C-156.95298607 98.61826011 -152.88426679 91.70057409 -148.82727051 84.77566528 C-147.75246863 82.94171227 -146.67663557 81.10836762 -145.60058594 79.27514648 C-142.23098216 73.53189661 -138.87023072 67.78393583 -135.53857422 62.01856995 C-134.0196844 59.39145444 -132.49593666 56.7671721 -130.97180176 54.14309692 C-130.25249423 52.90156093 -129.53553142 51.65866288 -128.82116699 50.41427612 C-124.66747738 43.18018478 -120.33899696 36.41545463 -115 30 C-114.43796875 29.31462158 -113.8759375 28.62924316 -113.296875 27.9230957 C-110.76821858 24.86001108 -108.3556661 22.19408937 -105 20 C-101.7913857 21.50775163 -98.94131691 23.33849118 -96 25.3125 C-80.26158249 35.39853525 -62.34517501 38.84322484 -43.91015625 35.34765625 C-26.05980586 30.66921796 -11.43284904 19.84379735 -2 4 C-1.31618015 2.67538208 -0.64328427 1.34477045 0 0 Z " fill="#464646" transform="translate(267,148)"/>
<path d="M0 0 C13.38555295 11.37646432 23.25380929 26.925679 24.99487305 44.69335938 C26.04814028 65.37243114 20.46198807 81.74316029 6.7734375 97.43359375 C6.26554688 98.036875 5.75765625 98.64015625 5.234375 99.26171875 C-8.71184809 114.5668046 -31.02946672 123.27402648 -51.2265625 125.43359375 C-79.05323542 126.70036564 -107.1951353 123.12297446 -128.67895508 103.73876953 C-135.24130384 97.62055891 -135.24130384 97.62055891 -137.71484375 94.640625 C-142.42703602 90.87817691 -151.60930501 92.15816224 -157.4140625 92.09179688 C-161.23697887 91.96215539 -163.59083559 91.83397043 -166.875 89.765625 C-168.2265625 87.43359375 -168.2265625 87.43359375 -168.41796875 84.5390625 C-166.97302539 80.77273473 -165.3021227 79.66361479 -162.15966797 77.30053711 C-157.53560855 73.69870369 -153.77878656 70.29317962 -152.63232422 64.35644531 C-152.2377828 57.36367795 -152.76968749 50.4005147 -153.15966797 43.41650391 C-153.29173339 37.52754281 -151.75087525 32.74516849 -149.2265625 27.43359375 C-148.7521875 26.36753906 -148.2778125 25.30148438 -147.7890625 24.203125 C-138.34312252 4.83440672 -119.90855926 -9.34970968 -99.7890625 -16.37890625 C-97.27762152 -17.13979318 -94.75661883 -17.86991525 -92.2265625 -18.56640625 C-90.54240234 -19.0459375 -90.54240234 -19.0459375 -88.82421875 -19.53515625 C-58.10682927 -26.99854897 -24.47308407 -19.87034808 0 0 Z M-106.2265625 48.43359375 C-107.38130862 50.8716953 -107.38130862 50.8716953 -107.2265625 53.43359375 C-105.60500621 56.91993976 -104.46202958 58.27661569 -101.2265625 60.43359375 C-98.311637 61.01741335 -98.311637 61.01741335 -95.2265625 60.43359375 C-92.58399934 58.31954323 -90.78122103 56.50824465 -89.2265625 53.49609375 C-89.2265625 50.25804057 -90.56864538 48.15731474 -92.2265625 45.43359375 C-98.18185662 41.46339767 -101.99300501 42.99044841 -106.2265625 48.43359375 Z M-72.2265625 47.43359375 C-73.46330501 51.06652489 -73.57114453 52.67551328 -71.9765625 56.18359375 C-69.69820938 59.11290491 -68.04120125 60.30962698 -64.3515625 60.87109375 C-61.06986651 60.65838959 -61.06986651 60.65838959 -58.3515625 58.37109375 C-55.98547343 55.54833313 -55.98547343 55.54833313 -55.6015625 51.93359375 C-56.39259182 47.50382955 -57.59131035 46.04149203 -61.2265625 43.43359375 C-66.21435444 42.49838276 -68.82482104 43.74027445 -72.2265625 47.43359375 Z M-38.2265625 47.43359375 C-39.46330501 51.06652489 -39.57114453 52.67551328 -37.9765625 56.18359375 C-35.69820938 59.11290491 -34.04120125 60.30962698 -30.3515625 60.87109375 C-27.06986651 60.65838959 -27.06986651 60.65838959 -24.3515625 58.37109375 C-21.98547343 55.54833313 -21.98547343 55.54833313 -21.6015625 51.93359375 C-22.39259182 47.50382955 -23.59131035 46.04149203 -27.2265625 43.43359375 C-32.21435444 42.49838276 -34.82482104 43.74027445 -38.2265625 47.43359375 Z " fill="#464646" transform="translate(474.2265625,33.56640625)"/>
<path d="M0 0 C8.20670371 7.63079468 15.27199642 20.12760032 16.12988281 31.47509766 C16.49767094 51.46823132 16.49767094 51.46823132 12.96875 59.34375 C12.49308594 60.54451172 12.49308594 60.54451172 12.0078125 61.76953125 C6.57245235 74.16292337 -3.71691845 83.52697504 -16.1484375 88.62109375 C-29.22600432 93.20313399 -43.52828756 93.95435191 -56.5 88.58203125 C-70.34858108 81.80733958 -80.71068611 72.61513447 -86.03125 57.90625 C-90.76818343 43.44873442 -90.17892362 29.15320144 -83.90625 15.21875 C-80.84068408 9.47543072 -76.60588753 4.92632961 -72.03125 0.34375 C-71.165 -0.53990234 -71.165 -0.53990234 -70.28125 -1.44140625 C-50.618833 -19.92218761 -19.5473272 -15.93858987 0 0 Z " fill="#464646" transform="translate(340.03125,267.65625)"/>
<path d="M0 0 C12.19278677 9.85654651 19.16053854 22.83232185 20.8125 38.3125 C21.707813 54.16700108 17.13273741 66.93118597 7 79 C-1.46129097 88.27857475 -13.94514284 94.71621115 -26.6015625 95.3359375 C-43.75792089 95.64688269 -57.31995824 92.24983222 -70.25 80.3125 C-80.82117753 69.1118273 -85.4350956 55.19227078 -85.20703125 40.015625 C-84.23546567 25.86376415 -78.25681074 12.2312006 -67.515625 2.82421875 C-47.60413297 -13.26827018 -21.32740509 -14.3628014 0 0 Z " fill="#474747" transform="translate(240,76)"/>
</svg>
