<?xml version="1.0" encoding="UTF-8"?>
<svg version="1.1" xmlns="http://www.w3.org/2000/svg" width="512" height="512">
<path d="M0 0 C1.37010654 0.5133923 2.7406482 1.02562462 4.11158752 1.53678894 C7.81586254 2.92167895 11.5138699 4.32263547 15.21092224 5.72667313 C19.08339949 7.19421881 22.96141904 8.64696955 26.83886719 10.10131836 C33.33957941 12.54182103 39.83676051 14.99151654 46.33154297 17.44775391 C55.48029434 20.90752004 64.63560167 24.34965562 73.79267311 27.78733063 C86.03131524 32.38248093 98.26829028 36.98211428 110.49882317 41.5988102 C111.82342886 42.09867688 113.14817032 42.59818396 114.47305489 43.09731102 C116.27637603 43.77680096 118.07912254 44.45781534 119.88183594 45.13891602 C121.39713898 45.71078392 121.39713898 45.71078392 122.9430542 46.29420471 C125.33203125 47.2265625 125.33203125 47.2265625 127.33203125 48.2265625 C127.33203125 123.4665625 127.33203125 198.7065625 127.33203125 276.2265625 C122.85714905 275.4807488 119.59148316 274.72503193 115.45947266 273.15478516 C113.73270546 272.50334534 113.73270546 272.50334534 111.97105408 271.83874512 C110.70854173 271.35610529 109.44605585 270.87339625 108.18359375 270.390625 C106.84142696 269.88217627 105.49906001 269.37425566 104.1565094 268.86682129 C100.5142462 267.48872978 96.8745029 266.10409393 93.23516464 264.71829987 C89.41253757 263.26394529 85.5877417 261.81532167 81.76293945 260.36669922 C80.98718472 260.07288424 80.21143 259.77906925 79.41216755 259.47635078 C77.82402825 258.87487079 76.23587846 258.2734185 74.64771843 257.67199326 C72.21193246 256.74931121 69.77643044 255.8258826 67.34095764 254.90237427 C56.41843556 250.76246859 45.48389513 246.65565224 34.5402298 242.57197952 C32.04185297 241.63968442 29.54369309 240.70681023 27.04559326 239.77377319 C17.41112692 236.17552327 17.41112692 236.17552327 7.77349854 232.58575439 C4.02453615 231.1912711 0.27713544 229.7926681 -3.46919441 228.39112854 C-4.84175587 227.87853985 -6.21489998 227.36750805 -7.58868217 226.85820007 C-28.78152807 218.99944387 -28.78152807 218.99944387 -32.66796875 211.2265625 C-32.7548032 208.45495624 -32.78352665 205.70881485 -32.765625 202.9375 C-32.76421005 202.11907623 -32.7627951 201.30065247 -32.76133728 200.45742798 C-32.75573165 197.83876925 -32.74317823 195.22019546 -32.73046875 192.6015625 C-32.72545447 190.82812623 -32.72089144 189.05468863 -32.71679688 187.28125 C-32.70576039 182.92965468 -32.688492 178.578123 -32.66796875 174.2265625 C-31.444729 174.0411792 -30.22148926 173.8557959 -28.96118164 173.66479492 C-27.33342985 173.40846068 -25.70574792 173.15168254 -24.078125 172.89453125 C-22.87283142 172.71367981 -22.87283142 172.71367981 -21.64318848 172.5291748 C-9.60112008 170.60035866 0.81366563 164.7175018 8.11328125 154.80859375 C15.10328614 143.75821837 16.48187211 132.88661223 16.5 120.0546875 C16.5033284 119.21041199 16.5066568 118.36613647 16.51008606 117.49627686 C16.51511378 115.72148171 16.51749568 113.94667726 16.51733398 112.171875 C16.5195144 109.49723239 16.53769822 106.82300712 16.55664062 104.1484375 C16.6174837 86.3354903 15.42718893 70.75447115 2.53125 57.1953125 C-5.78891919 49.74706157 -15.10037421 46.64261862 -25.96484375 45.1484375 C-27.22135742 44.9740918 -28.47787109 44.79974609 -29.77246094 44.62011719 C-30.72797852 44.49024414 -31.68349609 44.36037109 -32.66796875 44.2265625 C-32.76713601 38.78228013 -32.83957784 33.33852802 -32.88769531 27.89355469 C-32.90776214 26.04287554 -32.9350222 24.19225941 -32.96972656 22.34179688 C-33.01846308 19.67562273 -33.04098662 17.01028963 -33.05859375 14.34375 C-33.07923889 13.52164032 -33.09988403 12.69953064 -33.12115479 11.85250854 C-33.12323325 6.48403797 -32.20641229 3.50307118 -28.66796875 -0.7734375 C-19.76439139 -8.59779336 -9.66181215 -3.69830612 0 0 Z " fill="#000000" transform="translate(113.66796875,235.7734375)"/>
<path d="M0 0 C3.5677811 2.35149209 5.84221079 4.99692157 7.75 8.8125 C7.83698228 11.72949274 7.86551923 14.62232548 7.84765625 17.5390625 C7.84553383 18.83328629 7.84553383 18.83328629 7.84336853 20.15365601 C7.83776188 22.9149723 7.82520827 25.67620812 7.8125 28.4375 C7.80748586 30.3072905 7.8029228 32.17708226 7.79882812 34.046875 C7.78779029 38.63544777 7.7705212 43.22396023 7.75 47.8125 C6.52676025 47.9978833 5.30352051 48.1832666 4.04321289 48.37426758 C2.4154611 48.63060182 0.78777917 48.88737996 -0.83984375 49.14453125 C-2.04513733 49.32538269 -2.04513733 49.32538269 -3.27478027 49.5098877 C-15.31684867 51.43870384 -25.73163438 57.3215607 -33.03125 67.23046875 C-40.02125489 78.28084413 -41.39984086 89.15245027 -41.41796875 101.984375 C-41.42129715 102.82865051 -41.42462555 103.67292603 -41.42805481 104.54278564 C-41.43308253 106.31758079 -41.43546443 108.09238524 -41.43530273 109.8671875 C-41.43748315 112.54183011 -41.45566697 115.21605538 -41.47460938 117.890625 C-41.53545245 135.7035722 -40.34515768 151.28459135 -27.44921875 164.84375 C-19.12904956 172.29200093 -9.81759454 175.39644388 1.046875 176.890625 C2.30338867 177.0649707 3.55990234 177.23931641 4.85449219 177.41894531 C5.81000977 177.54881836 6.76552734 177.67869141 7.75 177.8125 C7.84920549 182.97194873 7.92162646 188.13083689 7.96972656 193.29101562 C7.9897871 195.04469479 8.01704251 196.79830753 8.05175781 198.55175781 C8.10052302 201.07894318 8.12302392 203.60524091 8.140625 206.1328125 C8.16127014 206.91117462 8.18191528 207.68953674 8.20318604 208.4914856 C8.20532341 213.72884881 7.30120841 216.72204495 3.75 220.8125 C-0.10870083 223.62170202 -3.78884474 225.6013969 -8.26196289 227.24072266 C-9.44271896 227.67797165 -10.62347504 228.11522064 -11.8400116 228.5657196 C-13.13419486 229.03608759 -14.42841083 229.50636558 -15.72265625 229.9765625 C-17.09604348 230.48227285 -18.46914942 230.98874765 -19.84199524 231.4959259 C-22.78809406 232.58281539 -25.7358422 233.66505374 -28.68499756 234.74362183 C-35.75704707 237.33040929 -42.82029807 239.94107215 -49.88460541 242.54891014 C-52.34342116 243.45630516 -54.80258272 244.36275825 -57.26177979 245.26911926 C-74.32368337 251.5610106 -91.34183628 257.96801157 -108.35416794 264.39250946 C-110.61875141 265.24764047 -112.88346453 266.10242719 -115.14822388 266.95709229 C-123.38025745 270.06365291 -123.38025745 270.06365291 -131.61140442 273.17256165 C-133.85668484 274.02095843 -136.10244447 274.86808876 -138.34881592 275.71359253 C-140.15258251 276.39682135 -141.95337473 277.08802522 -143.74932861 277.79153442 C-146.73956923 278.95565933 -149.009121 279.8125 -152.25 279.8125 C-152.25 204.5725 -152.25 129.3325 -152.25 51.8125 C-129.48 43.2325 -106.71 34.6525 -83.25 25.8125 C-75.92167969 23.02554688 -68.59335937 20.23859375 -61.04296875 17.3671875 C-51.98242187 13.9296875 -51.98242187 13.9296875 -47.72241211 12.31542969 C-44.75431305 11.18948117 -41.78890462 10.05673711 -38.82495117 8.91992188 C-35.04739402 7.47142237 -31.26517837 6.03578568 -27.4793644 4.6090126 C-26.09143723 4.08340078 -24.7052066 3.55328111 -23.32094383 3.01809311 C-7.96952466 -2.9119417 -7.96952466 -2.9119417 0 0 Z " fill="#000000" transform="translate(423.25,232.1875)"/>
<path d="M0 0 C17.95604989 13.84769375 30.03392604 33.65350975 33.38989258 56.17358398 C34.91225332 80.37597013 31.7319608 104.24089896 15.23754883 123.11889648 C14.62782227 123.79694336 14.0180957 124.47499023 13.38989258 125.17358398 C12.93485352 125.76913086 12.47981445 126.36467773 12.01098633 126.97827148 C1.01265693 141.22685345 -18.62440622 151.11746556 -36.15258789 153.89233398 C-59.84544816 156.60385545 -84.08035206 153.19825414 -103.23510742 138.04858398 C-104.7021284 136.76679292 -106.16153984 135.47619323 -107.61010742 134.17358398 C-108.2056543 133.71854492 -108.80120117 133.26350586 -109.41479492 132.79467773 C-123.66337689 121.79634833 -133.55398899 102.15928519 -136.32885742 84.63110352 C-139.17378209 59.77258641 -134.91658356 35.88933798 -119.42260742 15.79858398 C-90.49928337 -19.7441082 -37.36138161 -27.16962732 0 0 Z " fill="#000000" transform="translate(307.610107421875,15.826416015625)"/>
<path d="M0 0 C12.37061333 6.55474785 25.8725815 11.8289117 39.8737793 13.37158203 C41.03522461 13.50435547 42.19666992 13.63712891 43.39331055 13.77392578 C66.54053426 15.82786687 93.04862665 11.73998337 112.5612793 -1.62841797 C115.8737793 -3.62841797 115.8737793 -3.62841797 118.58862305 -3.46826172 C122.56155946 -2.45258832 126.05919125 -0.95909387 129.7487793 0.80908203 C130.85817871 1.33816162 130.85817871 1.33816162 131.98999023 1.87792969 C145.95231814 8.69887993 161.43257627 17.68737864 171.8737793 29.37158203 C171.8737793 30.03158203 171.8737793 30.69158203 171.8737793 31.37158203 C171.09674149 31.65956161 170.31970367 31.9475412 169.51911926 32.24424744 C161.98172709 35.03798687 154.44489942 37.83324338 146.90856647 40.62983894 C142.89864552 42.11772844 138.88845481 43.60488319 134.87768555 45.09048462 C119.0293741 50.96092973 103.18343195 56.83138597 87.41674805 62.91845703 C86.36115189 63.32443619 85.30555573 63.73041534 84.2179718 64.1486969 C79.4229596 65.99314149 74.63371258 67.8501579 69.85351562 69.73266602 C68.18343143 70.37726165 66.51311825 71.02126444 64.8425293 71.66455078 C64.11136398 71.95904114 63.38019867 72.25353149 62.62687683 72.5569458 C55.80582163 75.15054457 51.06941756 73.59922003 44.43334961 71.12524414 C43.81643438 70.89691706 43.19951916 70.66858997 42.56390953 70.43334389 C40.52460746 69.67704775 38.48827836 68.91306704 36.4519043 68.14892578 C35.00401708 67.60999326 33.55596453 67.07150473 32.10775757 66.53343201 C28.24137089 65.0952393 24.37758892 63.65017039 20.51435089 62.20354462 C17.33106967 61.0124797 14.14630033 59.8254231 10.96152687 58.63835526 C-13.11145846 49.66463861 -37.14892179 40.59821387 -61.1262207 31.37158203 C-61.1262207 28.37158203 -61.1262207 28.37158203 -59.68481445 26.68017578 C-46.48218235 15.03365501 -17.34110659 -9.20417809 0 0 Z " fill="#000000" transform="translate(201.126220703125,184.62841796875)"/>
<path d="M0 0 C1.67255859 -0.03673828 1.67255859 -0.03673828 3.37890625 -0.07421875 C9.52726227 -0.09620334 13.82129242 -0.07584845 18.5 4.375 C22.64944392 9.26958395 21.9499289 14.9464929 21.93359375 21.02734375 C21.9388356 22.16023331 21.94407745 23.29312286 21.94947815 24.46034241 C21.95589428 26.85335471 21.95456668 29.24639857 21.94604492 31.6394043 C21.93753842 35.29598296 21.96629896 38.95099761 21.99804688 42.60742188 C21.99965911 44.93489537 21.99908094 47.26237162 21.99609375 49.58984375 C22.01294472 51.22601906 22.01294472 51.22601906 22.03013611 52.89524841 C21.97560137 58.85095128 21.74844404 62.81104819 17.5 67.375 C12.15014503 71.49852874 6.73387093 70.85391846 0.25 70.8125 C-0.84441406 70.83248047 -1.93882813 70.85246094 -3.06640625 70.87304688 C-13.52032863 70.86678704 -21.88596519 67.64856984 -29.5 60.375 C-37.95824228 50.1518489 -39.35044359 41.30663132 -38.6953125 28.43603516 C-38.28920066 24.15053998 -36.86089691 20.91634537 -34.5 17.375 C-34.0875 16.694375 -33.675 16.01375 -33.25 15.3125 C-25.08811967 3.06967951 -13.94082515 0.01611656 0 0 Z " fill="#000000" transform="translate(79.5,309.625)"/>
<path d="M0 0 C1.09441406 -0.01998047 2.18882812 -0.03996094 3.31640625 -0.06054688 C13.77032863 -0.05428704 22.13596519 3.16393016 29.75 10.4375 C38.20824228 20.6606511 39.60044359 29.50586868 38.9453125 42.37646484 C38.53920066 46.66196002 37.11089691 49.89615463 34.75 53.4375 C34.13125 54.4584375 34.13125 54.4584375 33.5 55.5 C28.90874421 62.38688368 21.98588569 67.97996735 13.88500977 70.07568359 C9.18500004 70.8721861 4.44195617 70.80671247 -0.3125 70.8125 C-1.37533203 70.83699219 -2.43816406 70.86148438 -3.53320312 70.88671875 C-9.5701502 70.90934316 -13.63505289 70.76447441 -18.25 66.4375 C-22.40160088 61.54699149 -21.69992222 55.86352093 -21.68359375 49.78515625 C-21.6888356 48.65226669 -21.69407745 47.51937714 -21.69947815 46.35215759 C-21.70589428 43.95914529 -21.70456668 41.56610143 -21.69604492 39.1730957 C-21.68753842 35.51651704 -21.71629896 31.86150239 -21.74804688 28.20507812 C-21.74965911 25.87760463 -21.74908094 23.55012838 -21.74609375 21.22265625 C-21.75732773 20.13187271 -21.76856171 19.04108917 -21.78013611 17.91725159 C-21.72560137 11.96154872 -21.49844404 8.00145181 -17.25 3.4375 C-11.90014503 -0.68602874 -6.48387093 -0.04141846 0 0 Z " fill="#000000" transform="translate(432.25,309.5625)"/>
</svg>
