<?xml version="1.0" encoding="UTF-8"?>
<svg version="1.1" xmlns="http://www.w3.org/2000/svg" width="100" height="100">
<path d="M0 0 C4.97263846 0.25299389 7.06606516 2.67471961 10.375 6.1875 C14.40159953 10.3885469 18.5037208 14.30305933 23 18 C27.68937601 16.01811591 30.85149578 12.48657671 34.46484375 8.99609375 C37.1193354 6.90603946 38.65212541 6.19358459 42 6 C43.8125 7.4375 43.8125 7.4375 45 9 C43.1840836 14.497637 39.66741408 18.09273572 35.8984375 22.37890625 C33.60893885 25.00052412 33.60893885 25.00052412 34 29 C34.515625 29.639375 35.03125 30.27875 35.5625 30.9375 C37 33 37 33 36.875 35.5 C35.95250465 38.13570099 34.72315234 39.82732966 33 42 C33 42.66 33 43.32 33 44 C33.66 44 34.32 44 35 44 C36.4453125 45.6171875 36.4453125 45.6171875 38.125 47.875 C41.42291871 52.27685361 44.90740821 56.47311922 48.49609375 60.640625 C50.23277747 63.36518856 50.39920511 64.82823339 50 68 C49 69 49 69 46.4453125 69.5546875 C41.04697183 68.68556689 38.47744741 65.03489191 34.875 61.125 C33.48110607 59.64414755 32.08282308 58.16741127 30.6796875 56.6953125 C30.06851074 56.03547363 29.45733398 55.37563477 28.82763672 54.69580078 C26.98015628 52.9815877 25.30031362 51.99944661 23 51 C20.3162425 53.07032721 17.83677153 55.16322847 15.4375 57.5625 C13.38305069 59.61694931 11.36883834 61.33303969 9 63 C7.68 62.34 6.36 61.68 5 61 C5.43146203 55.712629 7.12105945 53.09962148 10.5625 49.125 C11.38878906 48.15820312 12.21507812 47.19140625 13.06640625 46.1953125 C13.70449219 45.47085938 14.34257813 44.74640625 15 44 C13.79618552 41.50638429 12.54571278 39.31856917 11 37 C11.25828887 32.26470401 12.03610071 29.63497083 15 26 C14.4946875 25.37351562 13.989375 24.74703125 13.46875 24.1015625 C12.8190625 23.28429687 12.169375 22.46703125 11.5 21.625 C10.8503125 20.81289063 10.200625 20.00078125 9.53125 19.1640625 C8 17 8 17 8 15 C7.34 15 6.68 15 6 15 C4.2734375 13.20703125 4.2734375 13.20703125 2.375 10.8125 C1.74335938 10.03519531 1.11171875 9.25789063 0.4609375 8.45703125 C-1.18966335 5.68102073 -1.3836919 4.17368013 -1 1 C-0.67 0.67 -0.34 0.34 0 0 Z M40 8 C39.49210937 8.44730469 38.98421875 8.89460938 38.4609375 9.35546875 C34.35357725 12.96286942 30.21678879 16.52114925 26 20 C26.66 21.32 27.32 22.64 28 24 C29.32 24 30.64 24 32 24 C32.66 22.68 33.32 21.36 34 20 C34.66 20 35.32 20 36 20 C37.81240747 17.98391833 37.81240747 17.98391833 39.625 15.5 C40.25664063 14.6646875 40.88828125 13.829375 41.5390625 12.96875 C42.02117187 12.3190625 42.50328125 11.669375 43 11 C42.01 10.01 41.02 9.02 40 8 Z M17 28 C13.839892 31.20080084 13.839892 31.20080084 12.875 35.4375 C14.45457334 39.03541705 16.89578763 41.60391034 20 44 C20.66 44 21.32 44 22 44 C22 44.66 22 45.32 22 46 C22.66 46 23.32 46 24 46 C24 46.66 24 47.32 24 48 C25.38292019 49.39822971 25.38292019 49.39822971 27.25 50.875 C31.73367118 54.66085473 35.8112604 58.77286612 39.87402344 62.99951172 C42.23595868 65.41642972 43.74443867 66.91481289 47 68 C47.66 67.01 48.32 66.02 49 65 C48.26136719 64.14019531 47.52273437 63.28039062 46.76171875 62.39453125 C26.73280314 39.06516975 26.73280314 39.06516975 19.4609375 29.73046875 C18.97882812 29.15941406 18.49671875 28.58835937 18 28 C17.67 28 17.34 28 17 28 Z " fill="#1B1B1B" transform="translate(25,17)"/>
<path d="M0 0 C0.66 0 1.32 0 2 0 C2.33 0.99 2.66 1.98 3 3 C2.01 4.175625 2.01 4.175625 1 5.375 C-1.20474811 7.77570307 -1.20474811 7.77570307 -1.1875 10.4375 C0.36832476 13.79480606 2.59441224 15.44926004 5.50390625 17.66796875 C5.99761719 18.10753906 6.49132812 18.54710938 7 19 C7 19.66 7 20.32 7 21 C7.66 21 8.32 21 9 21 C9 21.66 9 22.32 9 23 C9.99 23.33 10.98 23.66 12 24 C12 24.66 12 25.32 12 26 C12.89319946 26.40206665 12.89319946 26.40206665 13.80444336 26.81225586 C16.01877718 28.01015801 17.39832288 29.19374312 19.12890625 31.00390625 C19.68900391 31.57947266 20.24910156 32.15503906 20.82617188 32.74804688 C21.39916016 33.34681641 21.97214844 33.94558594 22.5625 34.5625 C23.70484825 35.75590292 24.85180657 36.94491454 26.00390625 38.12890625 C26.50736572 38.65556885 27.0108252 39.18223145 27.52954102 39.72485352 C29.09043903 41.24271322 29.09043903 41.24271322 32 42 C32 37.99047607 30.56255087 36.91370053 28 33.875 C26.77990234 32.42287109 26.77990234 32.42287109 25.53515625 30.94140625 C22.06872011 26.91948574 18.56535116 22.93451559 15 19 C15.33 18.01 15.66 17.02 16 16 C16.66 16.33 17.32 16.66 18 17 C18 17.66 18 18.32 18 19 C18.66 19 19.32 19 20 19 C21.4453125 20.6171875 21.4453125 20.6171875 23.125 22.875 C26.42291871 27.27685361 29.90740821 31.47311922 33.49609375 35.640625 C35.23277747 38.36518856 35.39920511 39.82823339 35 43 C34 44 34 44 31.4453125 44.5546875 C26.04697183 43.68556689 23.47744741 40.03489191 19.875 36.125 C18.48110607 34.64414755 17.08282308 33.16741127 15.6796875 31.6953125 C15.06851074 31.03547363 14.45733398 30.37563477 13.82763672 29.69580078 C11.98015628 27.9815877 10.30031362 26.99944661 8 26 C5.3162425 28.07032721 2.83677153 30.16322847 0.4375 32.5625 C-1.61694931 34.61694931 -3.63116166 36.33303969 -6 38 C-7.32 37.34 -8.64 36.68 -10 36 C-9.56853797 30.712629 -7.87894055 28.09962148 -4.4375 24.125 C-3.61121094 23.15820312 -2.78492188 22.19140625 -1.93359375 21.1953125 C-1.29550781 20.47085938 -0.65742187 19.74640625 0 19 C-1.20381448 16.50638429 -2.45428722 14.31856917 -4 12 C-3.74689016 7.35965296 -3.08896827 4.49187717 0 1 C0 0.67 0 0.34 0 0 Z " fill="#252525" transform="translate(40,42)"/>
<path d="M0 0 C0.66 0.33 1.32 0.66 2 1 C2 1.66 2 2.32 2 3 C2.66 3 3.32 3 4 3 C5.4453125 4.6171875 5.4453125 4.6171875 7.125 6.875 C10.42291871 11.27685361 13.90740821 15.47311922 17.49609375 19.640625 C19.23277747 22.36518856 19.39920511 23.82823339 19 27 C18 28 18 28 15.4453125 28.546875 C10.06477696 27.69282174 7.48933949 24.12585941 3.875 20.25 C3.17246094 19.52039063 2.46992187 18.79078125 1.74609375 18.0390625 C0.43289587 16.67373389 -0.87402313 15.30231658 -2.17236328 13.92285156 C-4.08182642 11.91391064 -6.03292771 9.95242099 -8 8 C-6.68 8 -5.36 8 -4 8 C-4 8.66 -4 9.32 -4 10 C-3.40453369 10.26804443 -2.80906738 10.53608887 -2.19555664 10.81225586 C0.01877718 12.01015801 1.39832288 13.19374312 3.12890625 15.00390625 C3.68900391 15.57947266 4.24910156 16.15503906 4.82617188 16.74804688 C5.39916016 17.34681641 5.97214844 17.94558594 6.5625 18.5625 C7.70484825 19.75590292 8.85180657 20.94491454 10.00390625 22.12890625 C10.50736572 22.65556885 11.0108252 23.18223145 11.52954102 23.72485352 C13.09043903 25.24271322 13.09043903 25.24271322 16 26 C16 21.99047607 14.56255087 20.91370053 12 17.875 C11.18660156 16.90691406 10.37320313 15.93882813 9.53515625 14.94140625 C6.06872011 10.91948574 2.56535116 6.93451559 -1 3 C-0.67 2.01 -0.34 1.02 0 0 Z " fill="#636363" transform="translate(56,58)"/>
<path d="M0 0 C0.65625 1.76953125 0.65625 1.76953125 1 4 C0.03125 5.82421875 0.03125 5.82421875 -1.5 7.6875 C-2.04914063 8.37199219 -2.59828125 9.05648437 -3.1640625 9.76171875 C-3.76992187 10.50035156 -4.37578125 11.23898438 -5 12 C-6.29508898 13.66400874 -7.58682634 15.3306321 -8.875 17 C-9.91596693 18.33387971 -10.95737583 19.66741527 -12 21 C-13.32 20.34 -14.64 19.68 -16 19 C-14.73577236 16.47154472 -13.47154472 16.23577236 -11 15 C-10.67 14.34 -10.34 13.68 -10 13 C-9.34 13 -8.68 13 -8 13 C-7.62875 12.195625 -7.62875 12.195625 -7.25 11.375 C-5.70303025 8.43575748 -3.86985631 5.74245592 -2 3 C-2.66 2.67 -3.32 2.34 -4 2 C-4.51949219 2.45890625 -5.03898437 2.9178125 -5.57421875 3.390625 C-9.31844309 6.68498874 -13.09370823 9.89794477 -17 13 C-17.66 13.66 -18.32 14.32 -19 15 C-19 14.34 -19 13.68 -19 13 C-19.99 13 -20.98 13 -22 13 C-21 11 -21 11 -19.2578125 10.16015625 C-16.34444101 8.66314702 -14.27052774 6.66498326 -11.875 4.4375 C-5.64723638 -1.33750335 -5.64723638 -1.33750335 0 0 Z " fill="#737373" transform="translate(69,24)"/>
<path d="M0 0 C0.66 0.33 1.32 0.66 2 1 C2 1.66 2 2.32 2 3 C2.66 3 3.32 3 4 3 C5.65625 4.86328125 5.65625 4.86328125 7.5 7.3125 C8.1084375 8.11300781 8.716875 8.91351563 9.34375 9.73828125 C10.60560879 11.46143275 11.81528469 13.22292703 13 15 C12.01 15.33 11.02 15.66 10 16 C8.5369343 14.25395451 7.0797192 12.50300547 5.625 10.75 C4.81289063 9.77546875 4.00078125 8.8009375 3.1640625 7.796875 C1.42148243 5.5447318 0.123584 3.59288614 -1 1 C-0.67 0.67 -0.34 0.34 0 0 Z " fill="#797979" transform="translate(56,58)"/>
<path d="M0 0 C0.66 0 1.32 0 2 0 C2.33 0.99 2.66 1.98 3 3 C2.01 4.175625 2.01 4.175625 1 5.375 C-1.27231896 7.7899644 -1.27231896 7.7899644 -0.9375 10.5625 C0.04507299 13.11718977 1.23082046 14.92313706 3 17 C2.34 17.66 1.68 18.32 1 19 C-4 13.02439024 -4 13.02439024 -4 8.3125 C-3.0557611 5.18470864 -2.13710857 3.41586186 0 1 C0 0.67 0 0.34 0 0 Z " fill="#676767" transform="translate(40,42)"/>
<path d="M0 0 C0.66 0.33 1.32 0.66 2 1 C0.5645497 2.77249524 -0.87343803 4.54293576 -2.3125 6.3125 C-3.11300781 7.29863281 -3.91351563 8.28476562 -4.73828125 9.30078125 C-6.42688356 11.31602166 -8.09630699 13.19488009 -10 15 C-10.99 14.34 -11.98 13.68 -13 13 C-11.73577236 10.47154472 -10.47154472 10.23577236 -8 9 C-7.67 8.34 -7.34 7.68 -7 7 C-6.34 7 -5.68 7 -5 7 C-4.731875 6.401875 -4.46375 5.80375 -4.1875 5.1875 C-3.01506533 3.02775192 -1.80630718 1.64209744 0 0 Z " fill="#696969" transform="translate(66,30)"/>
<path d="M0 0 C0.99 0.33 1.98 0.66 3 1 C0.33333333 3.66666667 -2.33333333 6.33333333 -5 9 C-5 8.34 -5 7.68 -5 7 C-5.99 7 -6.98 7 -8 7 C-6.72530598 4.45061196 -5.50840774 4.25420387 -3 3 C-1.29078411 1.4587688 -1.29078411 1.4587688 0 0 Z " fill="#808080" transform="translate(55,30)"/>
<path d="M0 0 C0.99 0.33 1.98 0.66 3 1 C3 1.66 3 2.32 3 3 C4.32 3.66 5.64 4.32 7 5 C7 5.99 7 6.98 7 8 C4.36 6.02 1.72 4.04 -1 2 C-0.67 1.34 -0.34 0.68 0 0 Z " fill="#767676" transform="translate(49,65)"/>
<path d="M0 0 C3.36720387 1.39332574 4.9859524 2.9789286 7 6 C6.01 6.33 5.02 6.66 4 7 C0 2.25 0 2.25 0 0 Z " fill="#727272" transform="translate(62,67)"/>
<path d="M0 0 C0.66 0 1.32 0 2 0 C2.33 0.99 2.66 1.98 3 3 C1.35 4.65 -0.3 6.3 -2 8 C-2 4.23312136 -1.76462683 3.08809695 0 0 Z " fill="#727272" transform="translate(40,42)"/>
</svg>
