<?xml version="1.0" encoding="UTF-8"?>
<svg version="1.1" xmlns="http://www.w3.org/2000/svg" width="512" height="512">
<path d="M0 0 C139.26 0 278.52 0 422 0 C422 10.23 422 20.46 422 31 C282.74 31 143.48 31 0 31 C0 20.77 0 10.54 0 0 Z " fill="#000000" transform="translate(45,301)"/>
<path d="M0 0 C139.26 0 278.52 0 422 0 C422 10.23 422 20.46 422 31 C282.74 31 143.48 31 0 31 C0 20.77 0 10.54 0 0 Z " fill="#000000" transform="translate(45,180)"/>
<path d="M0 0 C139.26 0 278.52 0 422 0 C422 9.9 422 19.8 422 30 C282.74 30 143.48 30 0 30 C0 20.1 0 10.2 0 0 Z " fill="#000000" transform="translate(45,241)"/>
<path d="M0 0 C0 10.23 0 20.46 0 31 C-4.29 31.66 -8.58 32.32 -13 33 C-27.7121733 38.33070142 -35.25252404 47.21994345 -42 61 C-41.34 60.67 -40.68 60.34 -40 60 C-26.06096058 58.55202615 -13.61014606 59.90545165 -2.0625 68.375 C6.44472256 75.62476813 14.12651905 85.56308873 15.19287109 97.08374023 C15.71956945 111.62859527 14.643255 123.52849842 4.80078125 135.078125 C-2.81764959 143.20885813 -12.86863588 149.85917369 -24.30859375 150.2734375 C-39.15892278 150.6905081 -50.80024704 148.49407746 -62 138 C-68.72171651 131.63949723 -74.57120472 121.98938537 -75.14717102 112.60110474 C-75.15701523 111.71067474 -75.16685944 110.82024475 -75.17700195 109.90283203 C-75.18983719 108.88722198 -75.20267242 107.87161194 -75.21589661 106.82522583 C-75.22328354 105.73047943 -75.23067047 104.63573303 -75.23828125 103.5078125 C-75.246353 102.37028534 -75.25442474 101.23275818 -75.26274109 100.0607605 C-75.2765742 97.64826984 -75.28729981 95.23575968 -75.29516602 92.82324219 C-75.30663837 90.37559201 -75.32701388 87.92796591 -75.35668945 85.48046875 C-75.67323168 59.36485091 -75.67323168 59.36485091 -71 48 C-70.70246826 47.22253418 -70.40493652 46.44506836 -70.09838867 45.64404297 C-69.29166702 43.66640793 -68.4081185 41.77682882 -67.4375 39.875 C-66.93367798 38.88016602 -66.93367798 38.88016602 -66.41967773 37.86523438 C-62.67833444 30.85959223 -57.67733551 25.4804337 -52 20 C-51.29359375 19.26265625 -50.5871875 18.5253125 -49.859375 17.765625 C-36.55940897 4.66871188 -18.05975725 0 0 0 Z " fill="#000000" transform="translate(195,0)"/>
<path d="M0 0 C0 10.23 0 20.46 0 31 C-4.29 31.66 -8.58 32.32 -13 33 C-27.7121733 38.33070142 -35.25252404 47.21994345 -42 61 C-41.34 60.67 -40.68 60.34 -40 60 C-26.06096058 58.55202615 -13.61014606 59.90545165 -2.0625 68.375 C6.44472256 75.62476813 14.12651905 85.56308873 15.19287109 97.08374023 C15.71956945 111.62859527 14.643255 123.52849842 4.80078125 135.078125 C-2.81764959 143.20885813 -12.86863588 149.85917369 -24.30859375 150.2734375 C-39.15892278 150.6905081 -50.80024704 148.49407746 -62 138 C-68.72171651 131.63949723 -74.57120472 121.98938537 -75.14717102 112.60110474 C-75.15701523 111.71067474 -75.16685944 110.82024475 -75.17700195 109.90283203 C-75.18983719 108.88722198 -75.20267242 107.87161194 -75.21589661 106.82522583 C-75.22328354 105.73047943 -75.23067047 104.63573303 -75.23828125 103.5078125 C-75.246353 102.37028534 -75.25442474 101.23275818 -75.26274109 100.0607605 C-75.2765742 97.64826984 -75.28729981 95.23575968 -75.29516602 92.82324219 C-75.30663837 90.37559201 -75.32701388 87.92796591 -75.35668945 85.48046875 C-75.67323168 59.36485091 -75.67323168 59.36485091 -71 48 C-70.70246826 47.22253418 -70.40493652 46.44506836 -70.09838867 45.64404297 C-69.29166702 43.66640793 -68.4081185 41.77682882 -67.4375 39.875 C-66.93367798 38.88016602 -66.93367798 38.88016602 -66.41967773 37.86523438 C-62.67833444 30.85959223 -57.67733551 25.4804337 -52 20 C-51.29359375 19.26265625 -50.5871875 18.5253125 -49.859375 17.765625 C-36.55940897 4.66871188 -18.05975725 0 0 0 Z " fill="#000000" transform="translate(75,0)"/>
<path d="M0 0 C9.15418909 6.85115734 16.40955166 16.3179385 18.75 27.75 C18.85383424 29.41097112 18.90816468 31.07539506 18.92700195 32.73950195 C18.94625481 34.22804436 18.94625481 34.22804436 18.96589661 35.74665833 C18.97328354 36.81639389 18.98067047 37.88612946 18.98828125 38.98828125 C18.996353 40.10124069 19.00442474 41.21420013 19.01274109 42.36088562 C19.02657458 44.72210132 19.03730002 47.08333696 19.04516602 49.44458008 C19.05662794 51.83689313 19.07698648 54.22918179 19.10668945 56.62133789 C19.42596263 82.34690784 19.42596263 82.34690784 14.75 94.75 C14.45246826 95.55526123 14.15493652 96.36052246 13.84838867 97.19018555 C13.04722179 99.16682558 12.16753161 101.04409856 11.1875 102.9375 C10.85161865 103.59621094 10.5157373 104.25492187 10.16967773 104.93359375 C6.42081214 111.90602771 1.40924953 117.28702502 -4.25 122.75 C-4.95640625 123.48734375 -5.6628125 124.2246875 -6.390625 124.984375 C-19.69059103 138.08128812 -38.19024275 142.75 -56.25 142.75 C-56.25 132.52 -56.25 122.29 -56.25 111.75 C-49.815 110.76 -49.815 110.76 -43.25 109.75 C-28.5378267 104.41929858 -20.99747596 95.53005655 -14.25 81.75 C-15.24 82.08 -16.23 82.41 -17.25 82.75 C-30.86907523 84.14837138 -42.90919706 82.66071841 -54.1875 74.375 C-62.69472256 67.12523187 -70.37651905 57.18691127 -71.44287109 45.66625977 C-71.96956945 31.12140473 -70.893255 19.22150158 -61.05078125 7.671875 C-44.93179412 -9.53103534 -19.82636474 -12.93152447 0 0 Z " fill="#000000" transform="translate(493.25,369.25)"/>
<path d="M0 0 C9.15418909 6.85115734 16.40955166 16.3179385 18.75 27.75 C18.85383424 29.41097112 18.90816468 31.07539506 18.92700195 32.73950195 C18.94625481 34.22804436 18.94625481 34.22804436 18.96589661 35.74665833 C18.97328354 36.81639389 18.98067047 37.88612946 18.98828125 38.98828125 C18.996353 40.10124069 19.00442474 41.21420013 19.01274109 42.36088562 C19.02657458 44.72210132 19.03730002 47.08333696 19.04516602 49.44458008 C19.05662794 51.83689313 19.07698648 54.22918179 19.10668945 56.62133789 C19.42596263 82.34690784 19.42596263 82.34690784 14.75 94.75 C14.45246826 95.55526123 14.15493652 96.36052246 13.84838867 97.19018555 C13.04722179 99.16682558 12.16753161 101.04409856 11.1875 102.9375 C10.85161865 103.59621094 10.5157373 104.25492187 10.16967773 104.93359375 C6.42081214 111.90602771 1.40924953 117.28702502 -4.25 122.75 C-4.95640625 123.48734375 -5.6628125 124.2246875 -6.390625 124.984375 C-19.69059103 138.08128812 -38.19024275 142.75 -56.25 142.75 C-56.25 132.52 -56.25 122.29 -56.25 111.75 C-49.815 110.76 -49.815 110.76 -43.25 109.75 C-28.5378267 104.41929858 -20.99747596 95.53005655 -14.25 81.75 C-15.24 82.08 -16.23 82.41 -17.25 82.75 C-30.86907523 84.14837138 -42.90919706 82.66071841 -54.1875 74.375 C-62.69472256 67.12523187 -70.37651905 57.18691127 -71.44287109 45.66625977 C-71.96956945 31.12140473 -70.893255 19.22150158 -61.05078125 7.671875 C-44.93179412 -9.53103534 -19.82636474 -12.93152447 0 0 Z " fill="#000000" transform="translate(373.25,369.25)"/>
<path d="M0 0 C74.91 0 149.82 0 227 0 C227 10.23 227 20.46 227 31 C152.09 31 77.18 31 0 31 C0 20.77 0 10.54 0 0 Z " fill="#000000" transform="translate(45,361)"/>
<path d="M0 0 C74.91 0 149.82 0 227 0 C227 10.23 227 20.46 227 31 C152.09 31 77.18 31 0 31 C0 20.77 0 10.54 0 0 Z " fill="#000000" transform="translate(240,120)"/>
</svg>
