<?xml version="1.0" encoding="UTF-8"?>
<svg version="1.1" xmlns="http://www.w3.org/2000/svg" width="512" height="512">
<path d="M0 0 C4.48928191 2.83179844 5.89052839 5.36138651 7.4140625 10.37890625 C7.61399811 11.02412735 7.81393372 11.66934845 8.01992798 12.3341217 C8.69927417 14.55071863 9.35021588 16.77456728 10 19 C10.51106241 20.70826958 11.02246978 22.41643599 11.53417969 24.12451172 C12.91176682 28.76097075 14.24443945 33.40905683 15.55908203 38.0637207 C16.10712471 39.99400508 16.66191734 41.92238465 17.22314453 43.84887695 C18.04633052 46.67521239 18.8495038 49.50657037 19.6484375 52.33984375 C20.02637955 53.61818336 20.02637955 53.61818336 20.41195679 54.92234802 C21.91727802 60.37375312 22.25610318 64.44962714 21 70 C17.90068236 73.5420773 16.11343956 74.84372778 11.4375 75.5 C7.56580293 74.93684406 5.88783685 74.65368791 3 72 C-0.66488062 64.79719768 -2.62047745 56.78103517 -4.71972656 49.02026367 C-5.25625825 47.03939461 -5.80328476 45.06163096 -6.3515625 43.08398438 C-9 33.40125705 -9 33.40125705 -9 30 C-16.07646814 35.09505706 -22.60617218 40.74927431 -29.19628906 46.44628906 C-31.97030212 48.8358152 -34.76499941 51.20055371 -37.5625 53.5625 C-38.09302979 54.01052979 -38.62355957 54.45855957 -39.17016602 54.92016602 C-40.24082926 55.82428526 -41.31154858 56.72833809 -42.38232422 57.63232422 C-44.02908979 59.02459417 -45.67310067 60.42005473 -47.31640625 61.81640625 C-52.30026248 66.04853633 -57.29559272 70.25737398 -62.375 74.375 C-66.82816875 77.9972568 -71.17338831 81.72879139 -75.5 85.5 C-79.89306961 89.32743359 -84.30417109 93.12038905 -88.8125 96.8125 C-89.66972656 97.51890625 -90.52695313 98.2253125 -91.41015625 98.953125 C-93.20811112 100.37413307 -95.05416043 101.73552605 -96.93359375 103.046875 C-97.86300781 103.71203125 -98.79242188 104.3771875 -99.75 105.0625 C-100.59046875 105.63097656 -101.4309375 106.19945313 -102.296875 106.78515625 C-104.34950085 108.962877 -104.34950085 108.962877 -103.85864258 112.23706055 C-102.97512905 118.08477508 -101.22306939 123.72630144 -99.56074333 129.39092255 C-98.95431341 131.45776463 -98.35547598 133.52667916 -97.75843811 135.59625244 C-96.49150564 139.9827966 -95.21497126 144.36651547 -93.9375 148.75 C-92.45294445 153.84659862 -90.97237906 158.94430461 -89.5003376 164.04453278 C-88.9108823 166.07989183 -88.31497519 168.1132875 -87.71873474 170.14666748 C-87.3615889 171.3818512 -87.00444305 172.61703491 -86.63647461 173.88964844 C-86.16134682 175.51891266 -86.16134682 175.51891266 -85.67662048 177.18109131 C-85 180 -85 180 -85 184 C-83.90840576 184.1544458 -82.81681152 184.3088916 -81.69213867 184.46801758 C-52.92835819 188.54181248 -24.17998894 192.71652438 4.5625 196.9375 C5.4173914 197.06304386 6.27228279 197.18858772 7.15307999 197.31793594 C17.7689499 198.87706141 28.38458561 200.43777614 39 202 C38.82238632 201.40388916 38.64477264 200.80777832 38.46177673 200.19360352 C36.61049981 193.96923062 34.78092209 187.73877034 32.96362305 181.50439453 C32.28326044 179.18083401 31.59744466 176.85886282 30.90600586 174.53857422 C29.9111046 171.19645092 28.93617813 167.84903771 27.96484375 164.5 C27.65344955 163.4694751 27.34205536 162.4389502 27.02122498 161.37719727 C25.329431 155.46115972 24.52394651 151.02810234 26 145 C29.06504052 141.49709655 30.89376872 140.17778717 35.5 139.4375 C39.70537378 140.11336364 41.69850654 141.3240353 45 144 C46.40283203 146.94140625 46.40283203 146.94140625 47.3828125 150.5625 C47.67177902 151.58657959 47.67177902 151.58657959 47.96658325 152.63134766 C48.40751856 154.19509269 48.83947559 155.76138648 49.26428223 157.32958984 C50.07698075 160.27941443 50.93996062 163.21156723 51.81152344 166.14453125 C53.51821233 171.89172855 55.18711487 177.64897193 56.84082031 183.41162109 C57.53491082 185.81996442 58.23519162 188.22653163 58.94140625 190.63134766 C59.97292476 194.14602813 60.98457386 197.66590245 61.9921875 201.1875 C62.3097702 202.25532715 62.62735291 203.3231543 62.95455933 204.42333984 C64.63933697 210.40294252 65.48973717 214.9135319 64 221 C61.84479376 223.58624748 60.9173717 224.68603736 58 226 C50.46941535 226.46340426 43.26667049 225.3173328 35.83618164 224.1640625 C33.85259528 223.86462582 31.86900883 223.56518978 29.88541877 223.26577759 C27.76916652 222.94503871 25.65343775 222.62103282 23.53782845 222.29608154 C19.11222583 221.61654554 14.68508901 220.94740363 10.25767517 220.27978516 C-0.73661678 218.6202542 -11.72866278 216.94600938 -22.72064209 215.27124023 C-31.27115369 213.96870259 -39.82218453 212.66976915 -48.37473208 211.3806591 C-52.76766806 210.71810934 -57.15946414 210.04858337 -61.55050075 209.37356567 C-63.62846712 209.05528963 -65.70691737 208.74043006 -67.78562927 208.42706299 C-70.30859017 208.04671959 -72.83077781 207.66119174 -75.35195923 207.26922607 C-84.58521765 205.89203193 -93.04913776 205.04273279 -102.1015625 207.75 C-103.33261719 208.1109375 -104.56367188 208.471875 -105.83203125 208.84375 C-107.08371094 209.2253125 -108.33539063 209.606875 -109.625 210 C-110.92801825 210.38665615 -112.23140226 210.77208195 -113.53515625 211.15625 C-116.69390084 212.09217432 -119.84841561 213.04029501 -123 214 C-123 217.37509287 -122.3949251 218.35072691 -120.6640625 221.16796875 C-120.17679688 221.97943359 -119.68953125 222.79089844 -119.1875 223.62695312 C-118.15663604 225.31628145 -117.12284185 227.00382563 -116.0859375 228.68945312 C-110.78116295 237.54703063 -108.16227462 246.51335738 -110.6875 256.80078125 C-113.69829024 265.87078684 -118.46482893 273.35405121 -127 278 C-135.69478779 282.23636026 -145.59312205 282.38557078 -154.75 279.5 C-166.34823599 274.45072457 -171.9204225 264.97414143 -177.8125 254.375 C-178.92002735 252.41994189 -180.03221103 250.46759855 -181.14543152 248.51577759 C-182.14725916 246.75357582 -183.13807384 244.98512619 -184.12817383 243.21630859 C-185.9739222 240.04480879 -187.93334734 237.0297168 -190 234 C-190.969375 234.165 -191.93875 234.33 -192.9375 234.5 C-204.19317069 236.00379406 -204.19317069 236.00379406 -209.375 233.125 C-213.03243312 229.61995993 -213.93776212 224.79870623 -215 220 C-220.00220439 220.60757148 -224.59443874 221.64728093 -229.4375 223.1015625 C-230.84098795 223.51355906 -232.24463888 223.92500073 -233.6484375 224.3359375 C-235.82905469 224.97960774 -238.00813973 225.62745975 -240.18457031 226.28515625 C-242.30703708 226.92409622 -244.43409935 227.54522255 -246.5625 228.1640625 C-247.82191406 228.53998535 -249.08132812 228.9159082 -250.37890625 229.30322266 C-254.40978905 230.07885234 -257.04269498 230.09610884 -261 229 C-266.67287913 225.06881665 -267.8047224 219.44649228 -269.55078125 213.109375 C-269.85445114 212.0501886 -270.15812103 210.9910022 -270.47099304 209.89971924 C-271.10817246 207.66277534 -271.7372195 205.42350103 -272.35864258 203.18212891 C-273.30696238 199.76992523 -274.28512758 196.36735727 -275.26757812 192.96484375 C-275.88461558 190.7843636 -276.49990752 188.60338859 -277.11328125 186.421875 C-277.40382889 185.41219666 -277.69437653 184.40251831 -277.99372864 183.36224365 C-279.63195563 177.38244499 -280.46129492 172.20512377 -280 166 C-276.33633815 160.30097045 -270.44652131 159.20724096 -264.25 157.5 C-263.23607178 157.20665771 -262.22214355 156.91331543 -261.17749023 156.61108398 C-259.11420322 156.01519643 -257.04900654 155.42588057 -254.98193359 154.84326172 C-251.41681359 153.83508058 -247.86499716 152.78534717 -244.31347656 151.73046875 C-241.21193694 150.81009864 -238.10613092 149.90473881 -235 149 C-235.32226562 147.94039062 -235.64453125 146.88078125 -235.9765625 145.7890625 C-236.78042066 142.8129464 -237.31964562 140.41949112 -237.375 137.375 C-237.40335938 136.66085938 -237.43171875 135.94671875 -237.4609375 135.2109375 C-236.7628 131.86224405 -235.42556092 130.43136648 -233 128 C-230.02288062 126.58020905 -226.91390245 125.75804907 -223.73828125 124.890625 C-222.75096512 124.6056012 -221.76364899 124.32057739 -220.74641418 124.0269165 C-217.83633254 123.19158249 -214.9218721 122.37369371 -212.00531769 121.56130981 C-208.32182592 120.53026117 -204.64469817 119.47680863 -200.96630859 118.42773438 C-191.59908029 115.76132486 -182.22314582 113.12628886 -172.84576416 110.49584961 C-165.80416178 108.5201331 -158.7637362 106.54022839 -151.72338295 104.56006622 C-149.29429662 103.8773153 -146.86485356 103.19584662 -144.43534851 102.5145874 C-140.2880071 101.35082162 -136.14364482 100.1768595 -132 99 C-130.9494191 98.70578156 -129.8988382 98.41156311 -128.81642151 98.10842896 C-127.92341843 97.85205658 -127.03041534 97.5956842 -126.11035156 97.33154297 C-125.37246399 97.12206024 -124.63457642 96.91257751 -123.87432861 96.69674683 C-120.81424046 95.55921593 -118.83617001 93.66685937 -116.5625 91.375 C-113.03758697 87.95869773 -109.51495237 84.70043094 -105.6875 81.625 C-101.43872288 78.19213314 -97.264662 74.68765611 -93.125 71.125 C-84.69491382 63.87401939 -76.26220885 56.62917675 -67.625 49.625 C-62.50266476 45.45843577 -57.52582622 41.13798719 -52.54956055 36.79956055 C-48.03705404 32.87441983 -43.44641719 29.06305873 -38.796875 25.30078125 C-36.15050064 23.12380569 -33.55147984 20.90286074 -30.96166992 18.65942383 C-28.59356068 16.61132054 -26.21114704 14.58040884 -23.82470703 12.55371094 C-22.59243498 11.50444959 -21.36433048 10.45027687 -20.14013672 9.39160156 C-18.31793143 7.82397961 -16.4749481 6.28471594 -14.625 4.75 C-14.0786792 4.27191895 -13.5323584 3.79383789 -12.96948242 3.30126953 C-8.44937775 -0.37783785 -5.58975024 -0.7841333 0 0 Z M-135.77124023 121.77246094 C-136.43223221 121.96110718 -137.09322418 122.14975342 -137.77424622 122.34411621 C-139.95421036 122.96795604 -142.13134927 123.60111497 -144.30859375 124.234375 C-145.83715946 124.67377738 -147.36589477 125.11259011 -148.89479065 125.55084229 C-152.92376542 126.70742784 -156.95041624 127.8719086 -160.97662354 129.03808594 C-165.0266937 130.20974244 -169.07884439 131.37415337 -173.13085938 132.5390625 C-179.10980702 134.25868197 -185.08756675 135.98234696 -191.06420898 137.70996094 C-198.37175422 139.82207141 -205.68464496 141.91510201 -213 144 C-212.35755112 151.30484015 -210.46580188 158.10260512 -208.47265625 165.14453125 C-208.12367783 166.39127121 -207.7746994 167.63801117 -207.41514587 168.92253113 C-206.67997908 171.54666628 -205.94073569 174.16960773 -205.19848633 176.79174805 C-204.24823736 180.14985985 -203.30807585 183.51069875 -202.37087345 186.87247181 C-201.47257194 190.08964692 -200.56603285 193.30448074 -199.66015625 196.51953125 C-199.32363541 197.72575638 -198.98711456 198.93198151 -198.64039612 200.17475891 C-198.32344284 201.28989365 -198.00648956 202.40502838 -197.67993164 203.55395508 C-197.40315079 204.53576248 -197.12636993 205.51756989 -196.84120178 206.52912903 C-196.04763978 209.20690088 -196.04763978 209.20690088 -194 212 C-150.44 199.625 -150.44 199.625 -106 187 C-107.63932092 178.73431834 -107.63932092 178.73431834 -109.69580078 170.63232422 C-110.17607224 168.92168289 -110.17607224 168.92168289 -110.66604614 167.17648315 C-111.00570404 165.98129059 -111.34536194 164.78609802 -111.6953125 163.5546875 C-112.04761932 162.30366241 -112.39992615 161.05263733 -112.76290894 159.76370239 C-113.69005044 156.47162759 -114.62168113 153.18084043 -115.55432129 149.89031982 C-116.50903376 146.51880634 -117.45940015 143.14606836 -118.41015625 139.7734375 C-120.26923694 133.18110141 -122.1330732 126.59011827 -124 120 C-128.24280501 119.77368382 -131.70081945 120.59863458 -135.77124023 121.77246094 Z M-243.0625 173.375 C-244.17689453 173.69210938 -245.29128906 174.00921875 -246.43945312 174.3359375 C-247.50228516 174.6453125 -248.56511719 174.9546875 -249.66015625 175.2734375 C-251.12400757 175.69761963 -251.12400757 175.69761963 -252.61743164 176.13037109 C-255.1439217 176.86272362 -255.1439217 176.86272362 -257 179 C-254.36 187.91 -251.72 196.82 -249 206 C-239.97064617 203.76195503 -230.95949608 201.50562178 -222 199 C-220.6670235 195.30630281 -221.35346997 192.85473484 -222.43359375 189.140625 C-222.75263672 188.02558594 -223.07167969 186.91054687 -223.40039062 185.76171875 C-223.74263672 184.60285156 -224.08488281 183.44398438 -224.4375 182.25 C-224.77587891 181.07566406 -225.11425781 179.90132812 -225.46289062 178.69140625 C-226.29982579 175.7916027 -227.14582331 172.89476268 -228 170 C-233.20391589 170 -238.09549037 171.92208482 -243.0625 173.375 Z M-152.7890625 221.3125 C-153.73007813 221.58320313 -154.67109375 221.85390625 -155.640625 222.1328125 C-156.62546875 222.41898438 -157.6103125 222.70515625 -158.625 223 C-159.61757812 223.28617188 -160.61015625 223.57234375 -161.6328125 223.8671875 C-164.08923251 224.5757702 -166.54491581 225.28680531 -169 226 C-166.11594814 232.07429004 -162.9512826 237.92004563 -159.5 243.6875 C-159.13269775 244.30439697 -158.76539551 244.92129395 -158.38696289 245.55688477 C-153.65095782 254.49625048 -153.65095782 254.49625048 -146 260 C-142.55478912 260.52003183 -140.14553951 260.61700346 -137.02734375 258.9375 C-133.45237787 256.23608841 -132.22127537 254.82187993 -131.015625 250.34375 C-130.54344901 245.03878568 -132.92897811 241.40074882 -135.625 237 C-136.06457031 236.24460937 -136.50414062 235.48921875 -136.95703125 234.7109375 C-138.27786006 232.45661971 -139.63577786 230.22826219 -141 228 C-141.45600586 227.2265625 -141.91201172 226.453125 -142.38183594 225.65625 C-142.82043945 224.9240625 -143.25904297 224.191875 -143.7109375 223.4375 C-144.1032959 222.77621094 -144.4956543 222.11492187 -144.89990234 221.43359375 C-145.26293457 220.96050781 -145.6259668 220.48742187 -146 220 C-148.46356827 220 -150.41913032 220.62721841 -152.7890625 221.3125 Z " fill="#000000" transform="translate(313,21)"/>
<path d="M0 0 C6.16811762 7.00164702 7.73037294 18.16530998 10.29467773 26.98242188 C10.54161377 27.82611328 10.7885498 28.66980469 11.04296875 29.5390625 C11.37397583 30.6830249 11.37397583 30.6830249 11.71166992 31.85009766 C12.16724172 33.62742324 12.16724172 33.62742324 13.3125 34.625 C13.53389648 33.80821777 13.75529297 32.99143555 13.98339844 32.14990234 C14.81714917 29.0946961 15.66068185 26.04240422 16.51074219 22.99169922 C16.8753081 21.67571306 17.23605883 20.35866336 17.59277344 19.04052734 C18.10886386 17.13618251 18.64025011 15.23600422 19.171875 13.3359375 C19.48608398 12.19431152 19.80029297 11.05268555 20.12402344 9.87646484 C21.85519445 5.14028253 23.91664916 1.60844037 28.0625 -1.3125 C32.19140045 -2.66233284 35.18248219 -2.71469586 39.3125 -1.375 C45.42508994 2.56422463 45.82076311 8.97971809 47.3125 15.625 C48.18653593 19.70485002 49.00031716 23.79424712 49.79296875 27.890625 C50.11954216 29.56798737 50.11954216 29.56798737 50.45271301 31.27923584 C50.90733063 33.62168831 51.36016688 35.96448716 51.8112793 38.30761719 C52.50118087 41.88111656 53.20255074 45.45224774 53.90429688 49.0234375 C54.34705764 51.31236404 54.78913863 53.60142219 55.23046875 55.890625 C55.43979538 56.94912659 55.64912201 58.00762817 55.86479187 59.09820557 C58.472344 72.80823599 58.472344 72.80823599 56.46484375 77.68359375 C54.0271031 80.45054697 52.36949189 81.6087166 48.8125 82.625 C44.10834686 82.625 41.71748648 81.96711743 38.3046875 78.70703125 C35.48522549 74.34515768 34.94008096 70.01026125 34.125 64.9375 C33.80046315 63.03736855 33.4737478 61.13760749 33.14453125 59.23828125 C33.00764893 58.40079346 32.8707666 57.56330566 32.72973633 56.70043945 C32.39683735 54.57521038 32.39683735 54.57521038 31.3125 52.625 C31.1266333 53.32584717 30.9407666 54.02669434 30.74926758 54.7487793 C29.89193229 57.94165972 29.00878609 61.12684455 28.125 64.3125 C27.83302734 65.41529297 27.54105469 66.51808594 27.24023438 67.65429688 C25.56083601 73.6315104 24.35903039 77.83390761 19.3125 81.625 C16.10914185 83.22667908 12.79564196 82.97398532 9.3125 82.625 C4.64168942 80.92652343 3.37650549 78.19346886 1.32910156 73.96484375 C-0.41443566 69.95186087 -1.67743239 65.81022456 -2.9375 61.625 C-3.205625 60.75488281 -3.47375 59.88476562 -3.75 58.98828125 C-4.40208289 56.86901185 -5.04777211 54.74802481 -5.6875 52.625 C-5.78772461 53.26002441 -5.88794922 53.89504883 -5.99121094 54.54931641 C-6.45817311 57.45221163 -6.94761244 60.3508893 -7.4375 63.25 C-7.67339844 64.74853516 -7.67339844 64.74853516 -7.9140625 66.27734375 C-8.9015897 72.01259788 -9.90757454 76.13772007 -13.6875 80.625 C-16.81115615 82.5667322 -18.5495689 82.62983969 -22.25 82.5 C-25.99869446 81.54578686 -27.32759442 80.62026478 -29.6875 77.625 C-33.3072854 70.3854292 -29.83582451 59.27472288 -28.4921875 51.76953125 C-28.25984419 50.45539489 -28.0275971 49.14124153 -27.79544067 47.82707214 C-27.3093029 45.09028202 -26.81551265 42.35499246 -26.31738281 39.62036133 C-25.68394175 36.13414225 -25.0800271 32.64348817 -24.48295403 29.15088367 C-23.90215397 25.79088802 -23.28875721 22.43701605 -22.6796875 19.08203125 C-22.47004364 17.83710403 -22.26039978 16.59217682 -22.04440308 15.30952454 C-20.78478449 8.61273229 -19.4646607 2.80370735 -13.6875 -1.375 C-8.87688281 -3.03438032 -4.4964361 -2.30050219 0 0 Z " fill="#000000" transform="translate(223.6875,329.375)"/>
<path d="M0 0 C2.54426686 2.92976184 2.94137452 4.59694984 3.5 8.4375 C2.84372778 13.11343956 1.5420773 14.90068236 -2 18 C-8.08238766 19.8247163 -11.16354315 18.72834188 -16.71875 16.0078125 C-22.46596356 13.46880377 -27.35733897 13.4760615 -33.25 15.5625 C-39.21236209 18.27098387 -42.1657349 21.7775756 -44.875 27.75 C-46.74390551 33.37819821 -46.2275168 38.728525 -44.16015625 44.23828125 C-41.02063678 50.17096751 -36.28372066 52.96785785 -30 55 C-25.2641549 55.87016341 -21.42896256 55.51410768 -17.125 53.3125 C-14.06864238 51.05079536 -12.6067544 49.40253874 -11 46 C-11.99580078 45.96132813 -11.99580078 45.96132813 -13.01171875 45.921875 C-18.51766256 45.56820854 -22.04186392 45.2134997 -26 41 C-27.73765543 37.52468913 -27.59585352 33.7911999 -27 30 C-24.47031526 26.71824682 -22.92268669 25.30756223 -19 24 C-15.06729928 23.71570366 -11.12932928 23.72238344 -7.1875 23.6875 C-6.10662109 23.65849609 -5.02574219 23.62949219 -3.91210938 23.59960938 C2.37975946 23.54939802 6.24313803 23.72282159 11 28 C13.76700082 31.52163741 13.234778 35.72171758 13 40 C11.25811919 52.44763175 6.99168278 62.35644861 -2.84765625 70.49609375 C-12.1806784 77.01735242 -21.92446953 77.76533774 -33 77 C-44.49584762 74.74164414 -53.71608225 68.73643034 -60.53515625 59.25390625 C-67.04238912 49.24144394 -69.40637532 38.9228014 -67.53515625 27.05078125 C-65.17216734 16.13069639 -59.86572617 6.93192684 -51 0 C-35.19210966 -9.82534621 -15.60680823 -11.49975343 0 0 Z " fill="#000000" transform="translate(480,335)"/>
<path d="M0 0 C8.04039206 5.34989336 14.16388777 14.3769572 17.078125 23.51171875 C19.67008123 36.72908559 18.16603734 48.94975831 10.98046875 60.4921875 C6.28869452 66.92165588 0.72614671 71.05660281 -6.29296875 74.71875 C-6.97617187 75.0796875 -7.659375 75.440625 -8.36328125 75.8125 C-17.34786917 79.61773724 -30.23996177 79.16653726 -39.35546875 76.09375 C-51.04163004 70.9754619 -59.35190623 63.50464387 -64.28515625 51.62890625 C-68.4332198 39.65097079 -68.0274135 27.88536965 -62.60546875 16.34375 C-56.61154228 5.52018493 -48.78451472 -1.30821458 -36.95703125 -5.44921875 C-23.87934688 -8.41888482 -11.67413488 -6.52319632 0 0 Z M-41.76953125 22.34765625 C-45.96848756 28.37421584 -45.91349168 34.64119137 -45.29296875 41.71875 C-43.54627948 48.42737184 -39.11564977 52.26340131 -33.29296875 55.71875 C-27.80991744 57.54643377 -21.3624324 57.88233753 -15.90234375 55.8125 C-10.67716089 52.70132242 -7.04267745 48.71825062 -3.98046875 43.46875 C-2.31334438 36.80025254 -2.51300883 30.57220816 -5.95703125 24.5390625 C-9.98035338 19.056992 -15.05242868 15.39619419 -21.8359375 14.3125 C-29.88494883 14.02715839 -36.2514623 16.26026273 -41.76953125 22.34765625 Z " fill="#000000" transform="translate(326.29296875,434.28125)"/>
<path d="M0 0 C3.91471692 1.98994489 6.04045827 4.00375556 8.453125 7.6484375 C9.06857178 8.56608887 9.68401855 9.48374023 10.31811523 10.42919922 C10.95563721 11.40131348 11.59315918 12.37342773 12.25 13.375 C13.57908687 15.36481062 14.90851307 17.35439463 16.23828125 19.34375 C16.87975098 20.31054688 17.5212207 21.27734375 18.18212891 22.2734375 C20.55820732 25.83723601 22.98808801 29.36138682 25.4375 32.875 C26.6250616 34.58329051 27.81257322 36.29161577 29 38 C29.01458252 37.08710205 29.02916504 36.1742041 29.04418945 35.23364258 C29.10540795 31.83201389 29.17958873 28.43117319 29.26245117 25.0300293 C29.29561259 23.56073578 29.32367178 22.09131756 29.34643555 20.62182617 C29.38014519 18.50385632 29.43246433 16.38702005 29.48828125 14.26953125 C29.51446533 12.99698486 29.54064941 11.72443848 29.56762695 10.41333008 C30.02766765 6.78158025 30.79552818 4.89042309 33 2 C37.00254616 -0.66836411 40.29313299 -0.8340238 45 0 C47.75569447 2.18159145 49.43588747 3.87177494 51 7 C51.13586415 9.0554275 51.20877036 11.11512101 51.25292969 13.17456055 C51.28255798 14.47318527 51.31218628 15.77181 51.3427124 17.10978699 C51.36966912 18.53542026 51.39604204 19.96106467 51.421875 21.38671875 C51.43573494 22.10429667 51.44959488 22.82187458 51.46387482 23.56119728 C51.53716802 27.36225156 51.604703 31.16335761 51.66748047 34.96459961 C51.73322167 38.88101243 51.81786224 42.79677143 51.9070549 46.71271038 C51.97240183 49.73156434 52.02375592 52.75054329 52.07138824 55.76972389 C52.09653659 57.21261323 52.12685353 58.65542254 52.16255951 60.09808922 C52.36667127 68.57297403 52.39629171 74.63743414 47.8125 81.875 C44.79622012 83.74717372 41.48520424 84.28076952 38 84 C33.55393946 82.22843346 31.11979747 80.4332065 28.4375 76.5 C27.77234375 75.53964844 27.1071875 74.57929688 26.421875 73.58984375 C26.04869141 73.0366748 25.67550781 72.48350586 25.29101562 71.91357422 C23.77368205 69.66454613 22.23873277 67.42799538 20.703125 65.19140625 C17.92568705 61.14363129 15.16176584 57.08690593 12.40698242 53.02368164 C10.98465386 50.97792745 9.50689944 48.98405178 8 47 C7.9906543 47.87736816 7.98130859 48.75473633 7.97167969 49.65869141 C7.92748397 52.93567422 7.86579348 56.21138143 7.79248047 59.48779297 C7.76437608 60.90173448 7.74310933 62.31583002 7.72900391 63.72998047 C7.70742544 65.77130384 7.66070914 67.81079599 7.609375 69.8515625 C7.5779541 71.68968506 7.5779541 71.68968506 7.54589844 73.56494141 C6.9031649 77.6093336 5.53641422 79.82087717 3 83 C-0.45739557 84.72869779 -4.21975568 84.48966895 -8 84 C-10.87029869 82.20606332 -12.49131638 81.01736724 -14 78 C-14.11263664 75.74968452 -14.15939278 73.49598376 -14.17700195 71.24291992 C-14.18357315 70.54840225 -14.19014435 69.85388458 -14.19691467 69.13832092 C-14.21665458 66.83570247 -14.22831196 64.53314926 -14.23828125 62.23046875 C-14.24235678 61.44419916 -14.2464323 60.65792957 -14.25063133 59.84783363 C-14.27149541 55.68591194 -14.28579542 51.52402324 -14.29516602 47.36206055 C-14.30622899 43.06445181 -14.34062611 38.76736107 -14.38033772 34.46993542 C-14.40649152 31.16448508 -14.41485674 27.85915837 -14.41844749 24.55361366 C-14.42331699 22.96958227 -14.43494143 21.38555653 -14.45348549 19.80162621 C-14.47785119 17.58242214 -14.47691743 15.36456073 -14.4699707 13.14526367 C-14.47583694 11.88332687 -14.48170319 10.62139008 -14.48774719 9.32121277 C-13.91371419 5.41245478 -12.75181555 3.77846431 -10 1 C-6.85575698 -0.57212151 -3.42208708 -0.5179375 0 0 Z " fill="#000000" transform="translate(370,428)"/>
<path d="M0 0 C9.20739325 8.91181081 14.59951478 19.2998295 14.9375 32.25 C14.78528312 44.64045416 10.19622794 54.90222739 1.67578125 63.78125 C-8.03528547 72.78640421 -18.51953118 75.26981859 -31.5546875 75.0625 C-42.79566124 74.14299295 -52.44889618 69.18784408 -60.125 61 C-68.47691482 50.84593186 -71.40904956 39.70023974 -70.375 26.75 C-68.49640207 15.17846822 -62.64028537 4.99433386 -53.375 -2.25 C-36.30109772 -12.86223208 -15.80629097 -13.49432602 0 0 Z M-45.375 19.75 C-48.55658816 24.90248348 -50.15150637 29.64887854 -49.375 35.75 C-47.78063847 41.72598818 -45.53902465 46.68253263 -40.2109375 50.1640625 C-33.61637088 53.81863657 -28.35139282 55.08089575 -21.0234375 53.12109375 C-13.89714553 50.46363036 -10.56274044 45.7277099 -7 39.25 C-5.58160934 33.57643735 -5.89266163 28.15492046 -8.13671875 22.7734375 C-11.26842551 17.65601131 -16.334188 13.05327918 -22.125 11.25 C-31.39080637 9.82449133 -39.17051819 12.50881996 -45.375 19.75 Z " fill="#000000" transform="translate(170.375,337.25)"/>
<path d="M0 0 C9.50121563 6.81571998 15.16457068 15.44540717 17.921875 26.828125 C19.71205502 38.21366993 17.70259888 49.27217953 11.625 59.125 C5.15578602 67.96139503 -3.83947371 74.96738623 -14.6875 77.3125 C-27.46397513 78.42999843 -38.8080271 77.83019174 -49.4375 70.0625 C-59.35931163 61.68211268 -65.73919814 51.88373382 -66.92578125 38.65625 C-67.26239873 25.75848542 -63.4858796 14.62872492 -54.6875 5.16015625 C-39.47014526 -9.43219999 -17.67528115 -10.7732189 0 0 Z M-40.5 21.125 C-44.45558161 26.88884749 -46.83992043 32.24082921 -45.6875 39.3125 C-43.52377093 46.88555174 -39.45640351 51.35741022 -32.859375 55.4453125 C-27.54165498 57.56857481 -20.56452549 57.37993143 -15.234375 55.40234375 C-9.89306539 52.23221534 -5.96763881 48.11661359 -3.375 42.4375 C-1.74712072 35.03804873 -2.47966293 30.28146075 -6.0546875 23.65234375 C-9.24330103 19.08301479 -13.42845965 16.06551345 -18.6875 14.3125 C-27.73574114 13.42083165 -34.00321746 14.62821746 -40.5 21.125 Z " fill="#000000" transform="translate(232.6875,434.6875)"/>
<path d="M0 0 C2.07578323 2.10931277 3.48093715 3.82093166 5.0625 6.25 C5.50440674 6.88881104 5.94631348 7.52762207 6.40161133 8.18579102 C7.39086086 9.62293905 8.36933297 11.06754494 9.33886719 12.51806641 C11.21644736 15.32339856 13.1261713 18.10535161 15.0390625 20.88671875 C18.71591277 26.24223421 22.36579472 31.6154729 26 37 C26.00410889 36.0620459 26.00821777 35.1240918 26.01245117 34.15771484 C26.03952002 30.65695466 26.08869341 27.15792275 26.15258789 23.65771484 C26.17569667 22.14675596 26.19014688 20.63563762 26.19555664 19.12451172 C26.2048997 16.94398465 26.24599631 14.76594036 26.29296875 12.5859375 C26.31653442 10.62213135 26.31653442 10.62213135 26.34057617 8.61865234 C27.19957694 3.90480217 28.58760403 2.31226076 32 -1 C36.08851312 -2.26372224 38.20815353 -2.2741007 42.25 -0.875 C45.35280626 1.24054972 46.38283455 2.63639796 48 6 C48.38768005 9.22509766 48.38768005 9.22509766 48.40405273 12.9140625 C48.41091599 13.58951111 48.41777924 14.26495972 48.42485046 14.96087646 C48.44307729 17.18246781 48.43928767 19.40335029 48.43359375 21.625 C48.43815714 23.17529529 48.44346318 24.72558856 48.44947815 26.27587891 C48.4584008 29.52059157 48.45599542 32.76505798 48.44604492 36.00976562 C48.43454838 40.1627654 48.45478065 44.31491575 48.48396206 48.46780396 C48.50232789 51.66777928 48.50203104 54.8675511 48.49632454 58.06756592 C48.49617141 59.59854322 48.50220879 61.12953439 48.51461601 62.66046143 C48.5295349 64.80282577 48.5188456 66.94362146 48.50170898 69.0859375 C48.50154282 70.3032959 48.50137665 71.5206543 48.50120544 72.77490234 C47.90513079 76.6104532 46.6938673 78.25887532 44 81 C40.26490798 82.86754601 36.06829346 82.53683364 32 82 C29.375 80.1875 29.375 80.1875 27 77 C26.46632813 76.30261719 25.93265625 75.60523438 25.3828125 74.88671875 C20.11634869 67.86112491 15.23649259 60.54870408 10.3046875 53.28662109 C9.76199219 52.48820801 9.21929687 51.68979492 8.66015625 50.8671875 C7.92744507 49.78606689 7.92744507 49.78606689 7.17993164 48.68310547 C6.10694145 47.049243 6.10694145 47.049243 5 46 C4.98541748 46.85231201 4.97083496 47.70462402 4.95581055 48.58276367 C4.89456715 51.76071175 4.82037971 54.93802546 4.73754883 58.11547852 C4.70440194 59.48775958 4.67633829 60.86017362 4.65356445 62.23266602 C4.61983234 64.21137766 4.5659851 66.18971376 4.51171875 68.16796875 C4.48553467 69.35672607 4.45935059 70.5454834 4.43237305 71.77026367 C3.85639158 76.07272492 2.23416714 78.67441307 -0.6875 81.8125 C-4.08364801 83.5564679 -7.3104216 83.68081506 -11 83 C-13.8100346 81.20636089 -15.50940468 79.98119065 -17 77 C-17.11777296 74.75509738 -17.1698645 72.50666115 -17.19287109 70.25878906 C-17.20104858 69.56587769 -17.20922607 68.87296631 -17.21765137 68.15905762 C-17.24250397 65.86125553 -17.25902252 63.56351531 -17.2734375 61.265625 C-17.27876118 60.48060356 -17.28408485 59.69558212 -17.28956985 58.88677216 C-17.31630319 54.73018876 -17.33567587 50.5736354 -17.35009766 46.41699219 C-17.36672981 42.12832977 -17.41149405 37.84043817 -17.4624691 33.5520668 C-17.49616763 30.25086612 -17.50767795 26.94984764 -17.51332474 23.64849091 C-17.52003204 22.06805289 -17.53524076 20.48762665 -17.55921555 18.90735626 C-17.5909237 16.69053392 -17.5908967 14.47577969 -17.58349609 12.25878906 C-17.59158295 10.99907288 -17.5996698 9.73935669 -17.60800171 8.44146729 C-16.80189498 3.87866771 -15.24360439 2.25668074 -12 -1 C-7.9761357 -2.77021508 -3.91495643 -1.72606427 0 0 Z " fill="#000000" transform="translate(356,329)"/>
<path d="M0 0 C2.91033073 2.58696065 4.10669249 3.70628463 4.8125 7.5 C4.86067037 11.51419732 4.43525242 14.52850623 2.25 17.9375 C-1.26030862 20.18769783 -4.09009692 21.02514185 -8.1875 20.5 C-11.53864564 19.10792056 -14.73748967 17.50573074 -17.9765625 15.87109375 C-22.37195129 13.99423066 -25.48330983 14.02160778 -30.1875 14.5 C-30.8475 15.82 -31.5075 17.14 -32.1875 18.5 C-30.455 19.0259375 -30.455 19.0259375 -28.6875 19.5625 C-3.52546838 28.05618104 -3.52546838 28.05618104 3.3125 39.0625 C6.10066356 45.44789244 5.86352739 53.22628599 4.22265625 59.8984375 C1.26750176 66.78925856 -5.09551405 72.35937224 -11.9375 75.19921875 C-16.28676921 76.71211844 -20.35645346 77.0391712 -24.9375 77 C-25.7224585 76.99427979 -26.50741699 76.98855957 -27.31616211 76.98266602 C-38.13032305 76.65362127 -47.53030352 72.17436509 -55.1875 64.5 C-57.46641556 60.77218924 -57.56984407 57.85872242 -57.1875 53.5 C-55.93294028 50.67724064 -54.90365278 49.03711459 -52.4375 47.1875 C-48.95744835 46.12415088 -46.85180417 45.96808488 -43.1875 46.5 C-40.44857137 48.13170217 -37.94893093 49.92871381 -35.421875 51.87109375 C-32.02737362 54.34575647 -29.2776807 54.65706711 -25.1875 54.6875 C-24.32125 54.70167969 -23.455 54.71585937 -22.5625 54.73046875 C-19.92028463 54.66255938 -19.92028463 54.66255938 -17.1875 52.5 C-17.1875 51.18 -17.1875 49.86 -17.1875 48.5 C-21.36023995 46.33458271 -25.48971184 44.32773011 -29.87890625 42.640625 C-40.38223709 38.59181347 -48.35636832 35.28038555 -53.1875 24.5 C-54.69180951 17.10381156 -54.05726827 11.0317845 -50.5 4.3125 C-37.22443931 -11.83345219 -16.70707345 -10.82865871 0 0 Z " fill="#000000" transform="translate(148.1875,435.5)"/>
<path d="M0 0 C2.54426686 2.92976184 2.94137452 4.59694984 3.5 8.4375 C2.84372778 13.11343956 1.5420773 14.90068236 -2 18 C-8.08238766 19.8247163 -11.16354315 18.72834188 -16.71875 16.0078125 C-22.46596356 13.46880377 -27.35733897 13.4760615 -33.25 15.5625 C-39.23744693 18.28237899 -42.18562908 21.8002619 -44.875 27.8125 C-46.83606203 33.63997409 -45.95678422 38.84723551 -43.5 44.375 C-43.005 45.24125 -42.51 46.1075 -42 47 C-41.67 47.99 -41.34 48.98 -41 50 C-39.30230766 51.10168984 -39.30230766 51.10168984 -37 52 C-35.948125 52.53625 -34.89625 53.0725 -33.8125 53.625 C-28.36878524 55.9146311 -23.17107501 55.81927359 -17.6875 53.75 C-14.95678073 52.15266206 -14.95678073 52.15266206 -13.1875 49.875 C-9.84482027 47.00984594 -6.32063462 46.79168369 -2 47 C1.670261 48.56181319 2.7727373 49.65910596 5 53 C5.89946095 57.03563452 5.82156412 60.5596954 3.75 64.19140625 C-2.03479459 71.24832002 -9.23575225 74.87193984 -18 77 C-31.80695043 78.30914855 -42.62783669 75.6578679 -53.58984375 67.140625 C-57.02197148 64.09231707 -59.62612496 60.91804618 -62 57 C-62.58201172 56.04480469 -62.58201172 56.04480469 -63.17578125 55.0703125 C-69.08159057 44.37542872 -69.18936701 32.53415971 -66.03515625 20.98828125 C-62.30189679 10.21113603 -55.15548492 1.94887276 -45.125 -3.375 C-30.43776125 -10.1821837 -13.38763561 -9.8645736 0 0 Z " fill="#000000" transform="translate(87,335)"/>
<path d="M0 0 C3.42973652 2.75870112 5.2691619 4.68694969 6 9 C6.10171689 11.10149696 6.14836027 13.20589605 6.16113281 15.30981445 C6.17074036 16.58826736 6.1803479 17.86672028 6.19024658 19.18391418 C6.19509516 20.57703472 6.19937384 21.97015733 6.203125 23.36328125 C6.20888169 24.79811097 6.21463936 26.23294068 6.22039795 27.66777039 C6.23089125 30.67459469 6.23674472 33.68139239 6.24023438 36.68823242 C6.24571329 40.52813932 6.26973513 44.3676906 6.29820633 48.20748615 C6.31689433 51.17159531 6.32204159 54.13561987 6.32357025 57.09978294 C6.32658382 58.51468028 6.33456829 59.92957658 6.34775543 61.34441566 C6.48325726 77.00070462 6.48325726 77.00070462 1.3125 82.9375 C-2.12153584 84.51530025 -5.3362817 84.64825234 -9 84 C-12.34830161 82.1074817 -13.66533435 80.82189562 -15.11564636 77.26011658 C-16.04130989 73.84771358 -16.2601383 70.99363026 -16.2746582 67.46313477 C-16.28419022 66.18483292 -16.29372223 64.90653107 -16.30354309 63.5894928 C-16.30328164 62.206797 -16.30234446 60.82410119 -16.30078125 59.44140625 C-16.30467312 58.00943376 -16.30900879 56.57746242 -16.31376648 55.14549255 C-16.32120874 52.15058645 -16.32095186 49.15579828 -16.31567383 46.16088867 C-16.30988022 42.33670077 -16.32681679 38.51299736 -16.3500185 34.6888895 C-16.36480126 31.73334465 -16.36562143 28.77791529 -16.36250877 25.82234001 C-16.36301966 24.41303485 -16.36821335 23.00372282 -16.37832069 21.59445381 C-16.46582895 7.68847455 -16.46582895 7.68847455 -13 2 C-8.52732607 -1.25285376 -5.2750801 -1.53456876 0 0 Z " fill="#000000" transform="translate(316,328)"/>
<path d="M0 0 C3.50290345 3.06504052 4.82221283 4.89376872 5.5625 9.5 C4.8812924 13.73862507 3.73324535 15.69294834 1 19 C-1.63314764 20.18300836 -3.8140683 20.98192186 -6.5625 21.6875 C-7.27269287 21.88754639 -7.98288574 22.08759277 -8.71459961 22.29370117 C-10.14176135 22.69319034 -11.57154612 23.08343759 -13.00390625 23.46386719 C-14.76155428 23.93595563 -16.50704115 24.45283688 -18.25 24.9765625 C-23.20841836 26.45031462 -27.80526686 27.8148601 -33 27 C-36.20613573 25.10006771 -38.39902918 23.66525993 -39.69921875 20.0625 C-40.31497271 16.56660655 -40.20710911 14.49052159 -38.8125 11.1875 C-33.98495002 5.36114658 -27.79130032 4.21445003 -20.75 2.25 C-19.64269531 1.92128906 -18.53539062 1.59257813 -17.39453125 1.25390625 C-11.17238805 -0.49953957 -6.32601607 -1.6179442 0 0 Z " fill="#000000" transform="translate(461,91)"/>
<path d="M0 0 C3.36337088 2.01802253 4.56537386 3.42587329 5.609375 7.20703125 C6.04653373 11.28932234 5.66626278 13.98110545 3.3984375 17.44921875 C1.045262 20.10616782 -1.43344193 22.54830886 -4 25 C-5.07020348 26.08350206 -6.13646658 27.17090711 -7.19921875 28.26171875 C-16.67149845 37.93571767 -16.67149845 37.93571767 -21.875 38.1875 C-27.45147548 38.07657553 -27.45147548 38.07657553 -30 36 C-32.77029232 31.9878525 -33.39294014 28.93989158 -32.68432617 24.10888672 C-31.38032795 20.09035776 -28.31822647 17.63888822 -25.25 14.875 C-24.0029418 13.70814679 -22.75811554 12.53890326 -21.515625 11.3671875 C-20.61553711 10.52752441 -20.61553711 10.52752441 -19.69726562 9.67089844 C-18.0862959 8.08495528 -16.65515377 6.45158251 -15.234375 4.6953125 C-10.79815797 -0.65606818 -6.58394078 -0.97501034 0 0 Z " fill="#000000" transform="translate(403,0)"/>
<path d="M0 0 C1.01449219 0.25265625 2.02898437 0.5053125 3.07421875 0.765625 C8.26704786 2.13036327 12.40683493 3.27765292 16.25 7.25 C17.99440713 10.73881426 17.81541186 14.44333176 17.25 18.25 C14.78641702 21.94537447 13.19255657 23.02010815 8.88671875 24.0703125 C2.72659862 24.70421464 -3.05563804 22.75939974 -8.9375 21.125 C-10.09958984 20.82851562 -11.26167969 20.53203125 -12.45898438 20.2265625 C-23.09033779 17.34099677 -23.09033779 17.34099677 -26.75 12.25 C-27.78027506 8.95311982 -27.92298003 6.97651613 -27.125 3.625 C-21.12868535 -6.73227077 -9.55338286 -2.56400469 0 0 Z " fill="#000000" transform="translate(446.75,194.75)"/>
<path d="M0 0 C2.80703896 1.34040619 3.86054551 2.54745461 6 5 C7.26372224 9.08851312 7.2741007 11.20815353 5.875 15.25 C3.78453688 18.31601258 2.41210581 19.57167664 -1 21 C-5.07439213 21.60682436 -6.69008894 21.17542136 -10.3125 19.125 C-13.00443751 16.99649127 -13.8407112 16.32914752 -14.23828125 13.01171875 C-14.3713075 8.84589668 -14.38831668 6.62130669 -12.125 3 C-8.46623217 -0.44354619 -4.87578937 -0.78700125 0 0 Z " fill="#000000" transform="translate(340,118)"/>
</svg>
