<?xml version="1.0" encoding="UTF-8"?>
<svg version="1.1" xmlns="http://www.w3.org/2000/svg" width="512" height="512">
<path d="M0 0 C0.99037411 -0.00453111 1.98074823 -0.00906223 3.00113368 -0.01373065 C6.31735198 -0.0263836 9.63340624 -0.02475367 12.949646 -0.02310181 C15.3283662 -0.02908652 17.70708447 -0.03589193 20.08580017 -0.04345703 C25.87560721 -0.05929511 31.66536455 -0.06556572 37.45519218 -0.06668179 C42.16368411 -0.06763327 46.87216264 -0.07174856 51.58065033 -0.07808304 C64.94157101 -0.09569099 78.30245961 -0.10492273 91.66339198 -0.10342209 C92.38321225 -0.10334218 93.10303252 -0.10326227 93.84466553 -0.10317993 C94.92572044 -0.10305729 94.92572044 -0.10305729 96.02861485 -0.10293217 C107.70331328 -0.10211962 119.37788258 -0.1212506 131.05254367 -0.14945666 C143.05126277 -0.17821595 155.04991896 -0.19199526 167.04867339 -0.19026911 C173.78051314 -0.18960621 180.51221756 -0.19505437 187.24402618 -0.21662521 C193.57733495 -0.23600683 199.91035823 -0.23613223 206.24367714 -0.22159195 C208.5647937 -0.21950263 210.88592813 -0.224212 213.20701408 -0.23631287 C216.38272796 -0.25179352 219.5574609 -0.24243777 222.7331543 -0.22705078 C224.10157325 -0.24248147 224.10157325 -0.24248147 225.49763703 -0.25822389 C235.94594927 -0.14682706 244.66622949 4.02731505 252.12054443 11.26742554 C260.62777144 21.42780364 261.56689853 31.55332631 261.50872803 44.45077515 C261.51279947 45.97280757 261.51814455 47.49483703 261.5246582 49.01686096 C261.53827075 53.12851306 261.53305807 57.23993794 261.52352095 61.35159373 C261.5158914 65.66839732 261.5229792 69.98518229 261.52767944 74.30198669 C261.53312802 81.55051136 261.52596962 88.79894414 261.51165771 96.04745483 C261.49533908 104.40845864 261.50061758 112.76924286 261.51713693 121.13024133 C261.53078482 128.32799077 261.53265517 135.52567439 261.52482092 142.7234326 C261.52016172 147.01387442 261.51947088 151.3042133 261.52943039 155.59464836 C261.5381458 159.63065723 261.53199538 163.6663852 261.51474762 167.70236397 C261.51080679 169.17688152 261.51187523 170.65142302 261.51853561 172.12593079 C261.57547547 186.02087369 259.6904877 195.21052686 250.11663818 205.40023804 C239.46570539 215.72726053 227.76088646 215.8397461 213.74554443 215.82992554 C211.30274609 215.83354557 208.86065086 215.84313633 206.41799927 215.87068176 C204.90997189 215.88734817 203.40171163 215.89044236 201.89364624 215.87767029 C197.45374576 215.92229454 194.54490235 216.37050888 191.12054443 219.26742554 C188.54738475 223.59278943 187.73765255 226.81608465 187.68817139 231.82357788 C187.65848015 233.74489029 187.65848015 233.74489029 187.62818909 235.70501709 C187.62142086 237.08779757 187.61497382 238.47057966 187.60882568 239.85336304 C187.59196543 241.27969904 187.57381338 242.7060203 187.5544281 244.13232422 C187.50706755 247.87062983 187.4771685 251.60887566 187.45098877 255.34738159 C187.42111242 259.16850585 187.37460655 262.98942447 187.32952881 266.81039429 C187.24365462 274.29596902 187.17623929 281.78155895 187.12054443 289.26742554 C183.54031539 288.62946684 181.50985771 288.15523393 178.87835693 285.59945679 C178.29513672 285.04330688 177.7119165 284.48715698 177.11102295 283.91415405 C176.18761108 283.00621094 176.18761108 283.00621094 175.24554443 282.07992554 C173.90334703 280.79320584 172.56089202 279.5067548 171.21820068 278.22055054 C170.53644775 277.56119507 169.85469482 276.9018396 169.15228271 276.22250366 C166.03170002 273.21966465 162.85651575 270.27663018 159.68304443 267.32992554 C150.44016991 258.70952785 141.22379925 250.06074844 132.01116943 241.40805054 C129.33194761 238.89172847 126.64939699 236.37903309 123.96429443 233.86898804 C121.43160271 231.50097234 118.9122273 229.11995095 116.40179443 226.72836304 C115.24568251 225.63707091 114.08943942 224.54591772 112.93304443 223.45492554 C112.4165332 222.95710571 111.90002197 222.45928589 111.36785889 221.94638062 C105.08598739 216.05472615 99.78419533 215.97813799 91.5380249 216.01205444 C90.47231766 216.00843399 89.40661041 216.00481354 88.30860901 216.00108337 C85.99620291 215.994195 83.68378056 215.99168289 81.37136459 215.99303055 C77.70489294 215.99399669 74.03871374 215.98104124 70.37228394 215.96405029 C59.94822476 215.9178148 49.5241948 215.89318734 39.10003662 215.88656616 C32.72045679 215.88153715 26.34118095 215.85721307 19.96170425 215.82123947 C17.53698684 215.81147071 15.11222745 215.80909346 12.68749619 215.81441116 C9.28448026 215.82152196 5.88236237 215.8041147 2.47943115 215.78158569 C0.99363808 215.79384438 0.99363808 215.79384438 -0.52217102 215.80635071 C-10.77484555 215.68636555 -20.4732176 212.57971545 -27.87945557 205.26742554 C-37.00536556 194.48893626 -38.33031615 184.84496193 -38.2835083 171.00814819 C-38.28921939 169.47788497 -38.29618649 167.947626 -38.30430603 166.41737366 C-38.32217222 162.28294035 -38.32108131 158.14872005 -38.31536365 154.01425982 C-38.31226193 150.55276745 -38.31837522 147.09131542 -38.32440239 143.62982881 C-38.33842488 135.458212 -38.33690566 127.28669977 -38.32550049 119.11508179 C-38.31402466 110.70747338 -38.32809106 102.30018417 -38.35489696 93.89261782 C-38.37710728 86.6532358 -38.38367927 79.41395357 -38.37782055 72.17453992 C-38.37446211 67.85999171 -38.37679139 63.54564799 -38.39407158 59.23112869 C-38.40962374 55.17125521 -38.40549446 51.1118517 -38.38676643 47.05199623 C-38.38310312 45.56983208 -38.38612247 44.08763245 -38.39665222 42.60550117 C-38.4788328 30.07236183 -36.44091165 20.21477792 -28.16070557 10.49789429 C-20.03715485 2.55517604 -11.05459861 -0.03716703 0 0 Z M37.68304443 69.01742554 C35.72111855 73.09823137 35.78982997 74.96217285 37.12054443 79.26742554 C39.31046041 81.85040335 41.08886131 83.75158398 44.12054443 85.26742554 C45.89569275 85.36710781 47.67459307 85.40251009 49.45252991 85.40786743 C50.58396423 85.41357758 51.71539856 85.41928772 52.88111877 85.4251709 C54.75207466 85.42684769 54.75207466 85.42684769 56.66082764 85.42855835 C57.96982025 85.43352325 59.27881287 85.43848816 60.62747192 85.44360352 C64.22468141 85.45673657 67.82187223 85.46317436 71.41910195 85.46761417 C73.66612961 85.47054376 75.91315215 85.47464838 78.16017723 85.47911835 C85.18944758 85.49279637 92.21870626 85.50246123 99.247989 85.50632024 C107.36423502 85.51080031 115.48031258 85.52834444 123.59650737 85.55732083 C129.86833966 85.57893563 136.14012454 85.58902443 142.41199368 85.59036136 C146.15858665 85.59140964 149.90502131 85.59732213 153.65157509 85.61518097 C157.83184659 85.634719 162.01176555 85.63037351 166.19207764 85.62387085 C167.43330887 85.63308563 168.6745401 85.64230042 169.9533844 85.65179443 C171.0932782 85.64622528 172.233172 85.64065613 173.40760803 85.63491821 C174.39593785 85.63638477 175.38426767 85.63785133 176.40254688 85.63936234 C179.64017182 85.19631858 181.49493913 84.1875082 184.12054443 82.26742554 C186.27543859 79.0350843 187.13759118 77.10271633 187.05804443 73.20492554 C185.95549419 69.7502681 184.68263365 67.82951475 182.12054443 65.26742554 C178.50279735 63.49487291 175.59355338 63.01535526 171.58638 63.00672913 C169.93569519 62.99610191 169.93569519 62.99610191 168.25166321 62.98526001 C166.45534706 62.98897614 166.45534706 62.98897614 164.6227417 62.99276733 C163.35393158 62.9876564 162.08512146 62.98254547 160.77786255 62.97727966 C157.30469663 62.96391058 153.83163967 62.96330863 150.35845304 62.96584296 C147.45589543 62.96691406 144.55335975 62.96202578 141.65080684 62.95723754 C134.80175407 62.94614967 127.95275614 62.94570094 121.10369873 62.95175171 C114.04463735 62.95779223 106.98577525 62.94547697 99.92674786 62.92418164 C93.85949929 62.90655318 87.79231408 62.90056622 81.72504085 62.90381938 C78.10422688 62.90563035 74.48355508 62.90301478 70.86276436 62.88910484 C66.82429228 62.87417021 62.7862247 62.88350744 58.7477417 62.89511108 C57.55222183 62.88746735 56.35670197 62.87982361 55.12495422 62.87194824 C47.80016201 62.91851716 42.78386679 63.26265159 37.68304443 69.01742554 Z M38.12054443 132.26742554 C36.34389182 135.20276464 36.1027509 136.84038064 36.24554443 140.26742554 C37.2552361 143.72922554 38.66001859 145.65777691 41.12054443 148.26742554 C43.7194158 149.56686122 45.61700995 149.40217872 48.52845764 149.41459656 C49.67672028 149.42175186 50.82498291 149.42890717 52.00804138 149.4362793 C53.27404678 149.4389682 54.54005219 149.4416571 55.84442139 149.44442749 C57.18634213 149.45069149 58.52826113 149.45733824 59.87017822 149.46434021 C63.52109948 149.48175558 67.17200763 149.4923034 70.82296014 149.50054574 C73.10348949 149.50569474 75.38401477 149.51177051 77.66454124 149.51805687 C84.79845989 149.53711041 91.93236817 149.55134123 99.06630737 149.55966884 C107.30372233 149.56944307 115.5408687 149.5957665 123.778189 149.63616973 C130.14343759 149.66632022 136.50860915 149.68113668 142.87392777 149.68444985 C146.6764674 149.68680157 150.47872015 149.69577724 154.28118324 149.72091103 C157.85912717 149.74417847 161.43659508 149.74843072 165.01459503 149.73814964 C166.95192536 149.73741761 168.88923145 149.75651828 170.82646179 149.7762146 C172.56154495 149.76579887 172.56154495 149.76579887 174.3316803 149.75517273 C175.33475881 149.75756108 176.33783731 149.75994944 177.37131214 149.76241016 C180.88796567 149.12925543 182.55827624 147.70737098 185.12054443 145.26742554 C186.80654667 142.35523986 187.12821851 140.63578135 187.05804443 137.26742554 C185.87980553 133.49706105 184.09609024 131.80752562 181.12054443 129.26742554 C178.54157396 127.9779403 176.6842146 128.13277686 173.79528809 128.12025452 C172.66529892 128.11309921 171.53530975 128.10594391 170.37107849 128.09857178 C169.12534561 128.09588287 167.87961273 128.09319397 166.59613037 128.09042358 C165.28874405 128.08385239 163.98135773 128.07728119 162.63435364 128.07051086 C159.04121473 128.053095 155.44808914 128.04254721 151.85491848 128.03430533 C149.60989336 128.0291557 147.36487237 128.0230799 145.11985016 128.0167942 C138.09538638 127.99773923 131.07093313 127.98350957 124.04644847 127.97518224 C115.93865264 127.96541205 107.83112998 127.93909978 99.7234304 127.89868134 C93.45667914 127.86851303 87.19000614 127.85371264 80.92318368 127.85040122 C77.18041385 127.84805125 73.43793575 127.83909845 69.69524384 127.81394005 C65.51750017 127.78631161 61.34036584 127.79049261 57.16253662 127.79745483 C55.30608269 127.77823975 55.30608269 127.77823975 53.41212463 127.75863647 C47.06232316 127.79727056 42.8729969 127.84017476 38.12054443 132.26742554 Z " fill="#000000" transform="translate(229.87945556640625,22.732574462890625)"/>
<path d="M0 0 C1.75761406 -0.00065712 1.75761406 -0.00065712 3.55073547 -0.00132751 C7.39784803 0.00075129 11.24451693 0.0240402 15.09155273 0.04760742 C17.76912676 0.05320661 20.44667668 0.05762287 23.12425232 0.06047058 C29.4351535 0.06976273 35.74589717 0.09433772 42.05672926 0.12451905 C49.24662167 0.15815171 56.43652194 0.17457125 63.62647355 0.18960536 C78.4052781 0.22089015 93.18395953 0.27359501 107.96264648 0.34057617 C108.15238037 1.49235352 108.34211426 2.64413086 108.53759766 3.83081055 C108.79746342 5.36536773 109.05765318 6.89987008 109.31811523 8.43432617 C109.44182495 9.19068359 109.56553467 9.94704102 109.69299316 10.72631836 C111.50733433 21.30949898 115.75938502 32.35370754 123.64233398 39.96166992 C124.96264648 41.34057617 124.96264648 41.34057617 124.96264648 43.34057617 C125.54916992 43.61256836 126.13569336 43.88456055 126.73999023 44.16479492 C128.91952981 45.31776753 130.62174358 46.59499906 132.52514648 48.15307617 C147.76538741 59.68167171 165.21658011 59.79826747 183.45092773 59.85229492 C185.60712183 59.86916845 187.76330626 59.88732223 189.91947937 59.9066925 C195.5532224 59.95390828 201.18692619 59.98390076 206.82080078 60.01013184 C212.58626045 60.04008175 218.35158524 60.08656202 224.11694336 60.1315918 C235.39877343 60.21730105 246.68063151 60.28478933 257.96264648 60.34057617 C258.05631154 76.57891921 258.12673381 92.8171739 258.16989517 109.05572224 C258.19047324 116.59648511 258.21850211 124.13707961 258.2644043 131.67773438 C258.30441857 138.25430759 258.33011382 144.8307588 258.33900046 151.40745038 C258.34419073 154.88607378 258.35628857 158.36434829 258.38556671 161.84285927 C258.4180746 165.7371002 258.41859659 169.6310076 258.41674805 173.52539062 C258.43112915 174.66403564 258.44551025 175.80268066 258.46032715 176.97583008 C258.40725115 187.35524887 255.8068509 196.21308292 249.08374023 204.26635742 C239.97357025 213.17519769 230.59503385 215.64766994 218.30493164 215.59594727 C216.73037453 215.60137794 216.73037453 215.60137794 215.12400818 215.60691833 C212.85310355 215.61379185 210.58218248 215.61632162 208.31126785 215.61497116 C204.71239367 215.6140031 201.11381583 215.6269816 197.51498413 215.64395142 C187.28564739 215.69013947 177.05634179 215.7148277 166.8269043 215.72143555 C160.5617345 215.72645776 154.29687527 215.75074223 148.03181076 215.78676224 C145.65009808 215.79654169 143.26834259 215.79890236 140.88661575 215.79359055 C137.55045755 215.78649842 134.21522153 215.80384708 130.87915039 215.82641602 C129.90327469 215.81824356 128.92739899 215.81007111 127.92195129 215.801651 C120.52788006 215.89029708 114.43990636 217.53446795 108.61499023 222.23510742 C108.0490918 222.86803711 107.48319336 223.5009668 106.90014648 224.15307617 C104.37478266 226.85811015 101.84581467 229.38106566 99.02514648 231.77807617 C96.03462933 234.34722888 93.23147964 237.03374873 90.46264648 239.84057617 C87.0802325 243.26940408 83.58194206 246.46106135 79.92749023 249.59448242 C77.85444325 251.43673292 75.90828847 253.36459279 73.96264648 255.34057617 C71.40274514 257.940398 68.79485108 260.40326015 66.02514648 262.77807617 C62.21580452 266.05068111 58.71443539 269.57158054 55.18920898 273.14526367 C52.52217088 275.77486967 49.72694525 278.21064462 46.87280273 280.63354492 C44.29494899 282.93727107 41.99199934 285.46872617 39.70092773 288.05541992 C37.38725261 289.76597973 35.77577211 289.43506503 32.96264648 289.34057617 C32.95678024 288.55210297 32.950914 287.76362976 32.94487 286.95126343 C32.88687309 279.50655191 32.81475677 272.06217241 32.72693157 264.6177578 C32.68227771 260.79084775 32.64301093 256.96404292 32.61621094 253.13696289 C32.59012773 249.44091858 32.54969073 245.7452803 32.49946022 242.04948807 C32.48282523 240.64220876 32.47129 239.23485928 32.46503258 237.82749557 C32.45535567 235.85045916 32.42556863 233.87355258 32.39501953 231.89672852 C32.38391647 230.77309906 32.37281342 229.6494696 32.3613739 228.49179077 C31.9026787 224.86663995 30.85189246 222.45493963 28.96264648 219.34057617 C24.48865392 216.26812406 20.38737079 215.92303668 15.10717773 215.96948242 C13.58178501 215.95208786 12.05639443 215.93450362 10.53100586 215.91674805 C8.15946207 215.90673329 5.78806784 215.90306681 3.41650391 215.90478516 C-9.20585719 215.88501948 -19.85131823 214.9033121 -29.96313477 206.46166992 C-37.3587444 198.89892787 -41.27356316 190.20222122 -41.30477905 179.61248779 C-41.31330902 178.29773972 -41.32183899 176.98299164 -41.33062744 175.62840271 C-41.32992854 174.18838489 -41.32900555 172.74836716 -41.32788086 171.30834961 C-41.3338711 169.77838312 -41.34067778 168.24841963 -41.34823608 166.71846008 C-41.36585444 162.57568988 -41.37058974 158.43300238 -41.37186766 154.29019833 C-41.37329235 151.69751827 -41.37756801 149.10485902 -41.38286209 146.51218414 C-41.40134969 137.4544797 -41.40953443 128.39683401 -41.40795898 119.33911133 C-41.40675843 110.91678894 -41.42784707 102.49472315 -41.45944631 94.07246566 C-41.48566311 86.82464201 -41.496324 79.57690189 -41.49504817 72.32903123 C-41.49454005 68.00773222 -41.50013922 63.68666133 -41.52140427 59.36540985 C-41.54087768 55.29737537 -41.54084957 51.22978446 -41.526371 47.16173363 C-41.52429292 45.67633854 -41.52892357 44.19091501 -41.54109192 42.70556831 C-41.64121963 29.6268358 -39.62629601 20.06967114 -30.33032227 10.50073242 C-21.18262382 1.88288363 -12.44135986 -0.1231408 0 0 Z M41.96264648 100.34057617 C39.61299293 103.5446492 39.41703116 106.44332382 39.96264648 110.34057617 C41.78812584 113.26541484 43.83123059 115.77486823 46.96264648 117.34057617 C51.52170693 117.87020753 51.52170693 117.87020753 55.72045898 116.29370117 C57.89891473 114.50463124 59.69222461 112.88141992 60.96264648 110.34057617 C61.08536665 105.79993007 60.82622661 102.35655279 57.83764648 98.84057617 C51.45132376 95.5085817 47.48121626 95.59203939 41.96264648 100.34057617 Z M106.96264648 99.34057617 C104.55405031 103.38080201 103.80856485 105.41608634 104.58764648 110.09057617 C105.86606589 113.11229477 106.49239295 114.35176417 108.96264648 116.34057617 C111.95561102 117.29262394 114.83191853 117.53257993 117.96264648 117.34057617 C122.25527267 115.14585467 122.25527267 115.14585467 124.96264648 111.34057617 C125.61061735 106.62890231 125.64422291 103.36294081 122.96264648 99.34057617 C117.70272161 95.83395959 111.99952661 94.73542863 106.96264648 99.34057617 Z M170.15014648 101.09057617 C168.39165919 104.42244684 168.45002162 106.6240459 168.96264648 110.34057617 C170.75288433 113.3110449 172.81269476 115.76560031 175.96264648 117.34057617 C180.38145479 117.85043867 182.47036549 117.63229824 186.33764648 115.34057617 C189.14728107 112.12956522 189.9730797 110.49293227 190.20092773 106.33666992 C189.79026462 102.8965248 188.20574028 100.88679075 185.96264648 98.34057617 C180.14936304 94.21502018 174.88480217 96.51918447 170.15014648 101.09057617 Z " fill="#000000" transform="translate(62.037353515625,199.659423828125)"/>
<path d="M0 0 C1.26679092 -0.01913956 1.26679092 -0.01913956 2.55917358 -0.03866577 C3.46857697 -0.04089142 4.37798035 -0.04311707 5.31494141 -0.04541016 C6.25326813 -0.05206696 7.19159485 -0.05872375 8.15835571 -0.06558228 C10.14379923 -0.07570883 12.12927678 -0.08039929 14.11474609 -0.08007812 C17.14819663 -0.08444629 20.18018634 -0.12075186 23.21337891 -0.15869141 C25.14306143 -0.1645606 27.07275087 -0.16852931 29.00244141 -0.17041016 C29.90779633 -0.18478119 30.81315125 -0.19915222 31.74594116 -0.21395874 C35.95554411 -0.18351467 38.19719746 -0.08052163 41.84082031 2.19433594 C45.25894858 5.86743347 45.18217585 8.87466536 45.14697266 13.73974609 C44.56934881 17.88467325 42.8568692 19.51031231 39.79150391 22.29052734 C35.90445558 23.58621012 32.19599037 23.47269571 28.14306641 23.49365234 C27.29352386 23.49935242 26.44398132 23.50505249 25.56869507 23.51092529 C23.77155806 23.52036839 21.97440378 23.52690654 20.17724609 23.53076172 C17.43377354 23.54046626 14.69105064 23.5714952 11.94775391 23.60302734 C10.20036251 23.60955785 8.45296577 23.61480814 6.70556641 23.61865234 C5.8877066 23.63099915 5.0698468 23.64334595 4.22720337 23.65606689 C-1.45472681 23.63394291 -4.7090436 22.53141578 -9.02099609 18.66552734 C-10.88125986 14.9449998 -10.75441524 11.36672361 -10.20849609 7.29052734 C-8.01203254 2.37463273 -5.4539691 0.05602506 0 0 Z " fill="#000000" transform="translate(401.20849609375,391.70947265625)"/>
<path d="M0 0 C0.82780975 -0.00637985 1.65561951 -0.0127597 2.5085144 -0.01933289 C3.40434235 -0.02044571 4.30017029 -0.02155853 5.22314453 -0.02270508 C6.14306183 -0.02603348 7.06297913 -0.02936188 8.01077271 -0.03279114 C9.95932515 -0.03785953 11.90788629 -0.04019949 13.85644531 -0.04003906 C16.83689718 -0.04222237 19.8169771 -0.0603702 22.79736328 -0.0793457 C24.6892891 -0.08228027 26.58121667 -0.08426464 28.47314453 -0.08520508 C29.81081375 -0.09598335 29.81081375 -0.09598335 31.17550659 -0.10697937 C32.4266777 -0.10236443 32.4266777 -0.10236443 33.703125 -0.09765625 C34.43433563 -0.09908127 35.16554626 -0.10050629 35.91891479 -0.10197449 C39.425597 0.31847551 41.46307111 1.53489812 43.73095703 4.20776367 C45.46144711 8.27441537 45.81459337 11.79352901 44.98095703 16.14526367 C43.04409003 19.71473887 40.898823 21.83930835 36.98095703 23.14526367 C34.09011759 23.2665268 31.22416596 23.33343671 28.33251953 23.34838867 C27.48297699 23.35408875 26.63343445 23.35978882 25.75814819 23.36566162 C23.96101118 23.37510472 22.16385691 23.38164286 20.36669922 23.38549805 C17.62322666 23.39520258 14.88050376 23.42623153 12.13720703 23.45776367 C10.38981564 23.46429418 8.6424189 23.46954446 6.89501953 23.47338867 C6.07715973 23.48573547 5.25929993 23.49808228 4.41665649 23.51080322 C-0.24543155 23.49265024 -3.20193941 23.11230757 -7.01904297 20.14526367 C-9.78773397 17.23117095 -10.45038719 15.20286287 -10.45654297 11.20776367 C-10.35465516 7.57197774 -10.09926168 6.27628757 -8.14404297 3.08276367 C-5.27544493 0.46727723 -3.77608122 0.01972763 0 0 Z " fill="#000000" transform="translate(79.01904296875,101.854736328125)"/>
</svg>
