<?xml version="1.0" encoding="UTF-8"?>
<svg version="1.1" xmlns="http://www.w3.org/2000/svg" width="600" height="600">
<path d="M0 0 C0.66 0.66 1.32 1.32 2 2 C1.8125 5 1.8125 5 1 8 C-0.485 8.99 -0.485 8.99 -2 10 C-1.36771484 10.81791016 -1.36771484 10.81791016 -0.72265625 11.65234375 C5.11913089 19.69339193 5.50090585 25.08670877 4.078125 34.78515625 C3.03543839 42.20719225 2.4453937 49.63898545 1.91152954 57.11276245 C-1.32615115 101.20406454 -9.23422767 144.66821721 -22 187 C-22.31259766 188.07491699 -22.62519531 189.14983398 -22.94726562 190.25732422 C-26.13246052 200.63793182 -31.33976443 205.59191504 -40 211.75 C-41.71818149 212.99377892 -43.43562813 214.23857361 -45.15234375 215.484375 C-45.98620605 216.08701172 -46.82006836 216.68964844 -47.67919922 217.31054688 C-52.87388103 221.09207414 -57.93020083 225.05354235 -63 229 C-64.43478296 230.11342672 -65.86968679 231.22669769 -67.3046875 232.33984375 C-71.15838053 235.33096549 -75.00759284 238.32778387 -78.85449219 241.32763672 C-80.20079451 242.37704169 -81.54770686 243.42566502 -82.89550781 244.47314453 C-90.59338474 250.45589538 -98.16264166 256.5754369 -105.66845703 262.79760742 C-110.2009579 266.54652863 -114.78930223 270.2084023 -119.4375 273.8125 C-124.34815392 277.62661352 -129.00844482 281.62310378 -133.58984375 285.83203125 C-136.96866866 288.8713308 -140.50119033 291.70566969 -144.03125 294.56640625 C-149.14201692 298.75589018 -154.13898534 303.07737436 -159.14111328 307.39550781 C-161.03910286 309.03375151 -162.93947386 310.669206 -164.83984375 312.3046875 C-171.50454404 318.0505552 -178.0966154 323.85702163 -184.5859375 329.80078125 C-187.34956436 332.31845426 -190.15966468 334.77734586 -192.98046875 337.23046875 C-196.1614573 340.01767922 -199.2977231 342.8540428 -202.4375 345.6875 C-204.91265331 347.92117493 -207.39368312 350.14817716 -209.875 352.375 C-215.1050532 357.08204788 -220.29078785 361.83674415 -225.47216797 366.59716797 C-227.46379876 368.42585294 -229.45812224 370.25158725 -231.45239258 372.07739258 C-233.96996985 374.3830679 -236.48520893 376.69128656 -239 379 C-239.50080078 379.45955078 -240.00160156 379.91910156 -240.51757812 380.39257812 C-258.51954434 396.8027721 -258.51954434 396.8027721 -275.84765625 413.91015625 C-277.7419481 415.74944144 -279.68247603 417.46319593 -281.68359375 419.18359375 C-286.34936759 423.23640135 -290.66904228 427.59513515 -295 432 C-296.51827606 433.54418521 -298.03908735 435.08588206 -299.5625 436.625 C-300.22378906 437.29789062 -300.88507813 437.97078125 -301.56640625 438.6640625 C-303.53096009 440.54978192 -305.52375192 442.3200723 -307.58984375 444.08984375 C-312.44410435 448.30966719 -316.96451931 452.85095389 -321.49072266 457.41555786 C-323.0369274 458.97473727 -324.58641896 460.53058621 -326.13671875 462.08569336 C-329.42732983 465.38763136 -332.71396962 468.69350416 -336 472 C-339.81336505 475.83711476 -343.62842149 479.67251675 -347.44775391 483.50369263 C-348.96076052 485.02309466 -350.4706797 486.54551703 -351.98046875 488.06811523 C-356.56865863 492.68045006 -361.21500954 497.14967734 -366.15634155 501.38342285 C-369.32376174 504.16071552 -372.27337002 507.15044135 -375.23828125 510.140625 C-375.885728 510.78948669 -376.53317474 511.43834839 -377.20024109 512.10687256 C-379.24005278 514.15221462 -381.27633771 516.20102558 -383.3125 518.25 C-384.69572918 519.63825439 -386.07919085 521.02627716 -387.46289062 522.4140625 C-390.49545728 525.45638697 -393.52581257 528.50089366 -396.55415344 531.54742432 C-397.26984749 532.26644928 -397.26984749 532.26644928 -398 533 C-398.76083138 533.7999942 -398.76083138 533.7999942 -399.53703308 534.6161499 C-402.55738843 537.47316532 -406.92916684 538.66928239 -411 539 C-413.40234375 537.55078125 -413.40234375 537.55078125 -415.9375 535.3125 C-416.89527344 534.48363281 -417.85304688 533.65476562 -418.83984375 532.80078125 C-419.35015137 532.34783691 -419.86045898 531.89489258 -420.38623047 531.42822266 C-422.6383342 529.43505974 -424.92552642 527.48399263 -427.21142578 525.52978516 C-428.41067708 524.5040537 -429.60825239 523.47635972 -430.80419922 522.44677734 C-435.22047883 518.64638578 -439.70866424 514.9439112 -444.23046875 511.26953125 C-450.10799411 506.45311061 -455.87611914 501.505057 -461.66601562 496.58398438 C-467.22068034 491.8648039 -472.78059925 487.15924951 -478.4375 482.5625 C-483.29399138 478.61085709 -488.04572737 474.54809548 -492.78637695 470.45922852 C-497.35338179 466.52906959 -501.99566904 462.70864247 -506.6953125 458.9375 C-508.94557407 457.04575468 -511.06411651 455.21501088 -513 453 C-512.75 450.25 -512.75 450.25 -512 448 C-510.35 447.67 -508.7 447.34 -507 447 C-508.52791204 444.35832772 -508.52791204 444.35832772 -511 442 C-514.58461856 441.41630557 -514.58461856 441.41630557 -518 442 C-518.66 442.66 -519.32 443.32 -520 444 C-522.5625 444.1875 -522.5625 444.1875 -525 444 C-526 443 -526 443 -526.375 440.8125 C-526 438 -526 438 -523.4375 435 C-522.633125 434.01 -521.82875 433.02 -521 432 C-521.26472862 430.79022743 -521.26472862 430.79022743 -521.5348053 429.55601501 C-522 427 -522 427 -520.81565857 424.99586487 C-520.21834427 424.37147018 -519.62102997 423.7470755 -519.00561523 423.10375977 C-518.35358124 422.41452423 -517.70154724 421.7252887 -517.02975464 421.01516724 C-514.04770639 418.05455032 -511.01695007 415.16917469 -507.91015625 412.33984375 C-498.44574301 403.58709118 -489.33718476 394.48839804 -480.2331543 385.36352539 C-478.3550495 383.48181232 -476.47566575 381.6015196 -474.59350586 379.72387695 C-471.82916788 376.96573972 -469.06833957 374.20413757 -466.30859375 371.44140625 C-465.47621689 370.61105362 -464.64384003 369.78070099 -463.78623962 368.92518616 C-459.52236431 364.6442696 -455.40674455 360.29661693 -451.48170471 355.70188904 C-448.46826251 352.24064321 -445.12545571 349.1107391 -441.84375 345.90625 C-439.03608429 343.10256116 -436.46157638 340.1175334 -433.86523438 337.11914062 C-430.02054066 332.75108546 -425.97005294 328.57195223 -421.9609375 324.35546875 C-418.08737351 320.265045 -414.3120361 316.11330438 -410.62109375 311.85742188 C-408.29522991 309.19248632 -405.90039714 306.59807691 -403.5 304 C-399.85418209 300.04157708 -396.25737528 296.04869527 -392.734375 291.98046875 C-390.72735462 289.68866845 -388.67597149 287.44003248 -386.625 285.1875 C-383.53363199 281.76770672 -380.57540968 278.28041476 -377.6875 274.6875 C-373.79873611 269.87574852 -369.67385286 265.35564456 -365.44873047 260.84326172 C-361.48296144 256.58401314 -357.78936919 252.15126866 -354.14453125 247.61328125 C-352.00125044 245.00152377 -349.7761967 242.49634698 -347.5 240 C-344.38541332 236.58260628 -341.4081338 233.0947765 -338.5 229.5 C-335.5918662 225.9052235 -332.61458668 222.41739372 -329.5 219 C-326.47717579 215.68010514 -323.57487839 212.30235888 -320.75 208.8125 C-316.58915231 203.67305572 -312.28265511 198.67673848 -307.94067383 193.69091797 C-304.40839916 189.63216642 -300.90572963 185.55109891 -297.4375 181.4375 C-292.16426014 175.1844384 -286.84488375 168.97187844 -281.51611328 162.76611328 C-279.50849059 160.42744299 -277.50266729 158.08723372 -275.49707031 155.74682617 C-274.50053986 154.58404479 -273.50379568 153.42144654 -272.50683594 152.2590332 C-269.96556232 149.29573553 -267.4273925 146.32986765 -264.89453125 143.359375 C-263.86740542 142.15606395 -262.84006347 140.95293735 -261.8125 139.75 C-261.31049072 139.1621875 -260.80848145 138.574375 -260.29125977 137.96875 C-257.3962693 134.59118189 -254.44672688 131.2769517 -251.4375 128 C-247.52807391 123.69050697 -243.93424936 119.18911334 -240.36914062 114.59594727 C-236.79100661 109.9878006 -233.1314874 105.45315483 -229.4375 100.9375 C-224.75200313 95.19703134 -220.17217421 89.39632901 -215.68359375 83.5 C-213.61820135 80.79181097 -211.51921711 78.11181348 -209.41015625 75.4375 C-208.47127563 74.24326416 -208.47127563 74.24326416 -207.51342773 73.02490234 C-206.2860596 71.46510548 -205.05528508 69.90798089 -203.82055664 68.35400391 C-199.3105289 62.60837846 -195.51597953 56.9189437 -193 50 C-188.05 49.505 -188.05 49.505 -183 49 C-183 47.02 -183 45.04 -183 43 C-172.83713809 37.10523025 -162.29444303 34.27930615 -151 31.375 C-149.01918233 30.85702306 -147.03838865 30.3389544 -145.05761719 29.82080078 C-105.35246756 19.51280137 -65.25157521 10.87595247 -25 3 C-24.20140564 2.8432077 -23.40281128 2.68641541 -22.58001709 2.52487183 C-20.36930414 2.09272178 -18.15761112 1.66613652 -15.9453125 1.2421875 C-14.11250732 0.89003174 -14.11250732 0.89003174 -12.24267578 0.53076172 C-8.02245302 -0.16000505 -4.26071852 -0.36730332 0 0 Z M-195 84 C-194 86 -194 86 -194 86 Z M-197 87 C-197 90 -197 90 -197 90 Z M-200 91 C-200 94 -200 94 -200 94 Z M-203 95 C-202 97 -202 97 -202 97 Z M-125.9375 98.1875 C-127.11508258 99.92635604 -127.11508258 99.92635604 -127.24609375 101.88671875 C-128.35820984 105.00410114 -130.37143746 105.86181962 -133.125 107.625 C-141.90481484 113.78227274 -147.01145379 121.43024988 -149 132 C-149.89524394 140.50481743 -146.94325652 147.61186446 -141.6640625 154.15234375 C-135.09915348 161.44155024 -127.70445365 166.47946905 -117.70703125 167.09375 C-107.80589218 166.75085341 -99.19670237 163.30133396 -92.25390625 156.21875 C-86.25420167 148.91736388 -83.2048025 140.13181759 -83.62109375 130.69140625 C-84.84228037 122.01720439 -89.23615114 115.40427652 -95 109 C-95.50015625 108.4328125 -96.0003125 107.865625 -96.515625 107.28125 C-102.12370821 101.7298141 -118.35456961 93.53989751 -125.9375 98.1875 Z M-205 98 C-205 101 -205 101 -205 101 Z M-208 102 C-208 105 -208 105 -208 105 Z M-210 105 C-216.09799495 112.52518526 -222.11498703 120.08700468 -227.875 127.875 C-232.6712341 134.34544357 -237.70110434 140.58545617 -242.85229492 146.77587891 C-246.54022688 151.21119229 -250.14877457 155.69492045 -253.6875 160.25 C-258.10961296 165.93303349 -262.70790677 171.4420563 -267.3828125 176.91796875 C-269.79496524 179.74683013 -272.15419998 182.61575122 -274.5 185.5 C-282.48160998 195.29625665 -290.72675487 204.87304789 -298.9609375 214.45703125 C-300.99369224 216.82378525 -303.01917916 219.19647184 -305.0390625 221.57421875 C-310.74654021 228.28321808 -316.56290892 234.86107542 -322.54296875 241.328125 C-325.16777759 244.18244812 -327.72438678 247.08715048 -330.265625 250.015625 C-333.79501966 254.05376124 -337.40698252 258.0185482 -341 262 C-341.721875 262.804375 -342.44375 263.60875 -343.1875 264.4375 C-348.60705084 270.47642808 -354.07417272 276.47052678 -359.56738281 282.44238281 C-360.51249722 283.46996119 -361.45716852 284.49794731 -362.40136719 285.52636719 C-386.37177684 311.63192815 -386.37177684 311.63192815 -395.91015625 320.84765625 C-397.74425429 322.73660582 -399.45409559 324.67079257 -401.1700592 326.6658783 C-404.75302783 330.77027164 -408.5114656 334.65296854 -412.36889648 338.49829102 C-413.41917023 339.55119324 -413.41917023 339.55119324 -414.49066162 340.62536621 C-416.78164844 342.92071643 -419.07622899 345.21243364 -421.37109375 347.50390625 C-422.97874801 349.11223513 -424.58625389 350.72071236 -426.19361877 352.32933044 C-429.55331945 355.69050063 -432.91480972 359.04986786 -436.27758789 362.40795898 C-440.57236776 366.69704205 -444.86264209 370.99059939 -449.15157986 375.28552341 C-452.46730863 378.60487798 -455.78543065 381.92183197 -459.10426521 385.23808098 C-460.6865266 386.81967868 -462.26805489 388.40201016 -463.84881401 389.98510933 C-466.06402453 392.20287961 -468.28245032 394.41738504 -470.50170898 396.63110352 C-471.46597557 397.59840645 -471.46597557 397.59840645 -472.44972229 398.58525085 C-476.26722577 402.38525403 -480.20107235 405.99662818 -484.28303719 409.51142406 C-487.83131395 412.58771632 -491.11699111 415.93258571 -494.4375 419.25 C-495.51547852 420.30960937 -495.51547852 420.30960937 -496.61523438 421.390625 C-497.29779297 422.07125 -497.98035156 422.751875 -498.68359375 423.453125 C-499.29775146 424.06317383 -499.91190918 424.67322266 -500.54467773 425.30175781 C-502.22507995 427.04657619 -502.22507995 427.04657619 -503 430 C-502.01 431.485 -502.01 431.485 -501 433 C-494.20395631 426.79217648 -487.49061692 420.55286816 -481.02734375 413.99609375 C-479.16056494 412.15808995 -477.24500276 410.44637448 -475.25 408.75 C-471.47267489 405.51660971 -467.99318647 402.03298353 -464.5 398.5 C-457.7886307 391.71268876 -457.7886307 391.71268876 -454.125 388.625 C-449.34397737 384.57638935 -445.01212859 380.0619646 -440.62939453 375.59228516 C-437.53526609 372.45564821 -434.40316099 369.43671668 -431.0625 366.5625 C-426.65013228 362.75784927 -422.58045034 358.65477548 -418.5 354.5 C-414.46131642 350.38775206 -410.43847937 346.31878387 -406.06640625 342.55859375 C-401.29665928 338.45264732 -396.87522821 334.02147831 -392.4375 329.5625 C-391.62603516 328.75490234 -390.81457031 327.94730469 -389.97851562 327.11523438 C-385.68050797 322.81028885 -381.53715069 318.43213282 -377.57055664 313.82006836 C-375.27266018 311.15710891 -372.88692858 308.58349917 -370.5 306 C-366.85734744 302.04501384 -363.26498426 298.05435984 -359.7421875 293.9921875 C-357.68499601 291.63979365 -355.59403085 289.31965034 -353.5 287 C-348.67878725 281.65210014 -343.92105973 276.25697785 -339.25 270.77734375 C-334.50920677 265.21877521 -329.75913783 259.69062026 -324.8125 254.3125 C-320.78606164 249.92644354 -317.01890278 245.38258372 -313.28125 240.75 C-310.93281032 237.91900422 -308.49090098 235.20616402 -306 232.5 C-301.96366945 228.10971431 -298.15969471 223.5882438 -294.4140625 218.94921875 C-291.66137807 215.5863114 -288.83807879 212.29079763 -286 209 C-280.90002568 203.07905421 -275.92354412 197.0687641 -271 191 C-269.56289294 189.2496773 -268.12538463 187.49968398 -266.6875 185.75 C-265.12336003 183.83467143 -263.56097301 181.91791048 -262 180 C-261.56349121 179.46455566 -261.12698242 178.92911133 -260.67724609 178.37744141 C-257.07635804 173.95095292 -253.52366485 169.48817928 -250 165 C-249.18499023 163.96383545 -249.18499023 163.96383545 -248.35351562 162.90673828 C-238.35766247 150.11007261 -229.33238835 136.7150577 -220.41259766 123.15869141 C-219.72101311 122.1093618 -219.72101311 122.1093618 -219.01545715 121.03883362 C-218.14930514 119.72317479 -217.28544585 118.40600244 -216.42436218 117.08702087 C-214.11319997 113.57297566 -211.68262877 110.23948038 -209 107 C-209.33 106.34 -209.66 105.68 -210 105 Z M-233 120 C-233.66 121.32 -234.32 122.64 -235 124 C-234.01 123.34 -233.02 122.68 -232 122 C-232.33 121.34 -232.66 120.68 -233 120 Z M-237 125 C-242.16050235 130.61443543 -247.11873494 136.31648189 -251.83984375 142.3046875 C-254.31816938 145.39699253 -256.86901089 148.42006712 -259.4375 151.4375 C-262.81364272 155.40433778 -266.15424715 159.39291315 -269.4375 163.4375 C-274.33572239 169.45133177 -279.38913246 175.32633404 -284.45166016 181.20166016 C-286.97292935 184.1300217 -289.48612243 187.06529349 -292 190 C-292.99995977 191.16670115 -293.99995981 192.33336779 -295 193.5 C-295.495 194.0775 -295.99 194.655 -296.5 195.25 C-298 197 -299.5 198.75 -301 200.5 C-301.74286255 201.3667334 -301.74286255 201.3667334 -302.50073242 202.25097656 C-303.4981301 203.41452598 -304.49568803 204.57793804 -305.4934082 205.74121094 C-308.03457301 208.70445065 -310.57268199 211.6702197 -313.10546875 214.640625 C-317.57540939 219.87776795 -322.0529519 225.09432474 -326.6875 230.1875 C-329.66024023 233.45804605 -332.48485914 236.80235614 -335.25 240.25 C-339.35016624 245.32503095 -343.73501774 250.06391442 -348.2043457 254.80981445 C-351.42724887 258.25074169 -354.49479618 261.74953041 -357.4375 265.4375 C-361.13421105 270.05668053 -365.07423739 274.38121225 -369.125 278.6875 C-369.72965088 279.33098389 -370.33430176 279.97446777 -370.95727539 280.63745117 C-372.11778703 281.87162079 -373.27850385 283.10559752 -374.43945312 284.33935547 C-376.43418787 286.46203785 -378.41913287 288.59139054 -380.375 290.75 C-380.89835938 291.32234375 -381.42171875 291.8946875 -381.9609375 292.484375 C-383.28272287 294.10612625 -383.28272287 294.10612625 -383 297 C-381.64242826 295.6701338 -380.28916504 294.33586929 -378.9375 293 C-378.18339844 292.2575 -377.42929687 291.515 -376.65234375 290.75 C-373.94635976 287.94438479 -371.39867326 285.03983655 -368.8449707 282.09667969 C-365.85283047 278.69632236 -362.7374258 275.41493291 -359.625 272.125 C-354.72658082 266.9238459 -349.87081706 261.69423004 -345.11328125 256.36328125 C-342.71785673 253.68447934 -340.29719573 251.02961031 -337.875 248.375 C-332.90104524 242.90517551 -328.0202539 237.3676406 -323.21875 231.74609375 C-322.1875417 230.53902687 -321.15629052 229.33199663 -320.125 228.125 C-319.60526611 227.51640137 -319.08553223 226.90780273 -318.55004883 226.28076172 C-315.52094405 222.74357043 -312.44843697 219.25598946 -309.3125 215.8125 C-305.46148995 211.57291957 -301.85156045 207.17067888 -298.25 202.71875 C-296.06498431 200.07852271 -293.80828609 197.5327028 -291.5 195 C-287.27315778 190.35120107 -283.29517708 185.53714159 -279.34423828 180.65332031 C-277.25574742 178.0846207 -275.14648273 175.5331556 -273.0390625 172.97998047 C-262.67274281 160.4210031 -252.36405985 147.82277129 -242.33984375 134.98828125 C-240.24373944 132.3112866 -238.12933061 129.65059861 -236 127 C-236.33 126.34 -236.66 125.68 -237 125 Z M-26 148 C-28.60923578 150.60923578 -28.5756991 152.34193861 -29.1484375 155.96875 C-29.34953125 157.18046875 -29.550625 158.3921875 -29.7578125 159.640625 C-30.1642034 162.1818542 -30.56791905 164.7235129 -30.96875 167.265625 C-34.68704147 189.57537382 -47.13523995 200.91724806 -64.07421875 214.546875 C-68.80651532 218.51467506 -73.2705709 222.76439187 -77.7734375 226.98828125 C-80.82793882 229.8513248 -83.944347 232.63131802 -87.11328125 235.3671875 C-90.77729519 238.53811467 -94.38257888 241.7761409 -98 245 C-94.60889092 245 -94.23832532 244.66945734 -91.76953125 242.578125 C-91.14022705 242.05371826 -90.51092285 241.52931152 -89.86254883 240.98901367 C-89.18603271 240.41513916 -88.5095166 239.84126465 -87.8125 239.25 C-82.40596795 234.75995375 -76.95743499 230.37451462 -71.3125 226.1875 C-63.99835015 220.75951008 -56.75304765 215.24602802 -49.5324707 209.6940918 C-48.6993335 209.05640869 -47.86619629 208.41872559 -47.0078125 207.76171875 C-46.18506836 207.11968506 -45.36232422 206.47765137 -44.51464844 205.81616211 C-42 204 -42 204 -39.33691406 202.57641602 C-33.11208282 199.0988211 -30.90184798 195.56812105 -28.90625 188.94140625 C-28.03753368 185.83007962 -27.263893 182.70092303 -26.5 179.5625 C-26.08419158 177.97500052 -25.66494394 176.38839772 -25.2421875 174.80273438 C-24.29404332 171.21439024 -23.37875175 167.61984746 -22.49975586 164.01394653 C-22.15176317 162.61158443 -21.78949244 161.21272065 -21.41625977 159.81686401 C-20.35787166 155.81729926 -19.74634948 153.01168166 -21 149 C-23.39719432 148.32041397 -23.39719432 148.32041397 -26 148 Z M-101 247 C-102.63676257 248.9600281 -102.63676257 248.9600281 -104 251 C-100.87802522 249.6910428 -100.87802522 249.6910428 -99 247 C-99.66 247 -100.32 247 -101 247 Z M-390 302 C-390.99 302.99 -391.98 303.98 -393 305 C-392.67 305.66 -392.34 306.32 -392 307 C-391.01 306.01 -390.02 305.02 -389 304 C-389.33 303.34 -389.66 302.68 -390 302 Z M-259 381 C-271.04367752 391.75520304 -282.36513457 403.24657087 -293.75292969 414.68426514 C-296.37962312 417.32134116 -299.00928715 419.95545164 -301.63867188 422.58984375 C-306.76195855 427.723732 -311.88204406 432.86079693 -317 438 C-314.06701676 438.30579545 -314.06701676 438.30579545 -312.44026184 436.79429626 C-311.88481186 436.22916824 -311.32936188 435.66404022 -310.75708008 435.08178711 C-310.12244339 434.44369614 -309.4878067 433.80560516 -308.8339386 433.1481781 C-308.15268417 432.44830276 -307.47142975 431.74842743 -306.76953125 431.02734375 C-306.06028 430.31147598 -305.35102875 429.59560822 -304.62028503 428.85804749 C-302.34385204 426.55815336 -300.07774964 424.24840546 -297.8125 421.9375 C-295.5634948 419.65325226 -293.31232578 417.37120162 -291.05827332 415.0919342 C-289.65579938 413.67270611 -288.25643666 412.25039408 -286.86079407 410.82444763 C-282.97345558 406.87878327 -278.96743162 403.15743124 -274.77153015 399.54197693 C-272.66951193 397.71233627 -270.68084999 395.79485708 -268.71875 393.81640625 C-268.02265625 393.11708984 -267.3265625 392.41777344 -266.609375 391.69726562 C-265.91328125 390.99279297 -265.2171875 390.28832031 -264.5 389.5625 C-263.77296875 388.83095703 -263.0459375 388.09941406 -262.296875 387.34570312 C-260.52890501 385.56610176 -258.76333622 383.78419082 -257 382 C-257.66 381.67 -258.32 381.34 -259 381 Z " fill="#6A66DB" transform="translate(560,30)"/>
<path d="M0 0 C25.94874163 6.74984387 52.20411638 11.53730053 78.59985352 16.16772461 C80.11428795 16.43414513 80.11428795 16.43414513 81.65931702 16.70594788 C86.52957416 17.56211402 91.40083576 18.41082446 96.27539062 19.2421875 C100.58174226 19.98067432 104.87425894 20.77645373 109.16372681 21.60708618 C111.28623503 21.99905845 113.40853454 22.32141197 115.54394531 22.63330078 C127.54369298 24.89267403 133.91564311 32.24188273 141.89672852 40.84350586 C143.20323999 42.21395541 144.5124738 43.58181497 145.82446289 44.94702148 C147.71652288 46.91648434 149.60660467 48.88732925 151.48544312 50.86941528 C155.09862991 54.67300966 158.79080972 58.25802766 162.81494141 61.63134766 C165.5238657 63.93725159 167.97787947 66.4855676 170.45922852 69.03100586 C174.3504071 72.97591483 178.31112843 76.73106976 182.53344727 80.32397461 C185.57110559 83.01658452 188.37390522 85.93658428 191.22094727 88.82788086 C193.33641047 90.91011689 195.51457221 92.85467581 197.77172852 94.78100586 C205.07445063 101.10711643 205.07445063 101.10711643 205.95922852 105.53100586 C205.29476501 108.85332337 203.61840995 110.43998814 201.45922852 113.03100586 C201.04415039 114.06225586 200.62907227 115.09350586 200.20141602 116.15600586 C198.27634653 120.80356108 195.38059146 124.63544293 192.39672852 128.65600586 C191.81745605 129.44652344 191.23818359 130.23704102 190.64135742 131.05151367 C185.68339253 137.79237859 180.615851 144.44107297 175.45922852 151.03100586 C174.60224436 152.13500697 173.74547841 153.23917749 172.88891602 154.34350586 C162.28161339 167.97672836 151.23000879 181.24033398 139.94018555 194.31176758 C138.40851737 196.08987626 136.88411738 197.87398721 135.36157227 199.65991211 C130.14671744 205.7741345 124.88943846 211.83492022 119.48657227 217.78491211 C117.53349512 219.9487259 115.61729502 222.1399968 113.70922852 224.34350586 C112.86231445 225.29483398 112.86231445 225.29483398 111.99829102 226.26538086 C110.63694816 227.82712444 109.35386772 229.45633951 108.08422852 231.09350586 C104.65621092 233.62370932 102.94182182 233.25251384 98.85327148 232.68847656 C94.66531637 231.53834775 91.88782058 228.95098337 88.70922852 226.09350586 C87.31342195 224.89794228 85.91626917 223.70394872 84.51782227 222.51147461 C83.83316895 221.91898926 83.14851563 221.32650391 82.44311523 220.71606445 C79.63605365 218.33182386 76.71661138 216.11579684 73.77172852 213.90600586 C68.21455329 209.66771524 62.8783871 205.2178629 57.56860352 200.67553711 C54.77679676 198.28979573 51.93911577 195.96609954 49.08422852 193.65600586 C38.60840827 185.12241798 28.3658558 176.22058203 18.45922852 167.03100586 C17.79149414 166.43433105 17.12375977 165.83765625 16.43579102 165.22290039 C14.25202749 162.8012318 13.60828181 161.18583508 12.78344727 158.05834961 C12.51653076 157.08655762 12.24961426 156.11476562 11.97460938 155.11352539 C11.70140869 154.07566895 11.42820801 153.0378125 11.14672852 151.96850586 C9.05462434 144.36838561 6.79611981 136.98531317 3.89672852 129.65600586 C-1.46602908 115.71402355 -4.22378519 101.01372561 -7.01342773 86.37866211 C-7.54153806 83.61658819 -8.07179839 80.8549346 -8.60327148 78.09350586 C-8.80499969 77.04007492 -8.80499969 77.04007492 -9.01080322 75.96536255 C-12.3126505 58.88225769 -16.73946566 42.08292696 -21.18554688 25.26757812 C-21.46500656 24.20056671 -21.74446625 23.1335553 -22.03239441 22.03421021 C-22.55625489 20.03631438 -23.08638552 18.04004686 -23.6242218 16.04586792 C-25.1940264 10.04893849 -26.11572142 4.21588709 -26.54077148 -1.96899414 C-19.57637469 -8.00480469 -7.92461549 -2.06700582 0 0 Z M-9.54077148 14.03100586 C-7.91503765 22.41945726 -6.06579963 30.75366785 -4.19824219 39.09069824 C-1.22111989 52.38537161 1.71795461 65.68533027 4.45922852 79.03100586 C4.78922852 79.03100586 5.11922852 79.03100586 5.45922852 79.03100586 C4.93477841 69.35805232 3.64421447 59.92704597 2.04003906 50.38354492 C1.64754412 48.03588427 1.27074429 45.68605007 0.89477539 43.33569336 C-1.33416328 27.98029739 -1.33416328 27.98029739 -7.54077148 14.03100586 C-8.20077148 14.03100586 -8.86077148 14.03100586 -9.54077148 14.03100586 Z M95.45922852 28.03100586 C97.74823336 30.3200107 99.59799122 31.05185627 102.58813477 32.27319336 C103.62389648 32.69987305 104.6596582 33.12655273 105.72680664 33.56616211 C106.81413086 34.00831055 107.90145508 34.45045898 109.02172852 34.90600586 C111.14844961 35.77737973 113.27475823 36.64976105 115.40063477 37.52319336 C116.42560059 37.94181641 117.45056641 38.36043945 118.5065918 38.79174805 C121.962685 40.24231271 125.35490083 41.80942406 128.73242188 43.43383789 C129.58719116 43.72943604 129.58719116 43.72943604 130.45922852 44.03100586 C131.11922852 43.70100586 131.77922852 43.37100586 132.45922852 43.03100586 C127.28632924 35.28669445 122.20916195 32.50011196 113.31860352 30.53955078 C104.4518348 28.71813826 104.4518348 28.71813826 95.45922852 28.03100586 Z " fill="#6A66DB" transform="translate(57.540771484375,45.968994140625)"/>
<path d="M0 0 C2.53515625 2.1640625 2.53515625 2.1640625 5 5 C5.63784424 5.73234863 5.63784424 5.73234863 6.28857422 6.47949219 C7.68646691 8.09918317 9.06252117 9.73582598 10.4375 11.375 C15.4985971 17.34982858 20.7609518 23.10225637 26.12744141 28.80297852 C29.61957041 32.51415836 33.04804993 36.26060819 36.37109375 40.125 C38.33665089 42.38751181 40.35673309 44.59690683 42.375 46.8125 C45.50422827 50.27530082 48.50500349 53.80679003 51.4375 57.4375 C54.51336588 61.24087503 57.68753166 64.90082652 61 68.5 C65.89324475 73.82987274 70.47485992 79.35645131 75 85 C75.93587212 86.15521193 76.87208689 87.31014633 77.80859375 88.46484375 C86.22998459 98.87979086 94.60996173 109.39043893 102.05859375 120.53125 C102.55286865 121.26867432 103.04714355 122.00609863 103.55639648 122.76586914 C104.49794511 124.18225254 105.4290063 125.60568062 106.34790039 127.03686523 C108.58111181 130.66473629 108.58111181 130.66473629 112.1484375 132.68969727 C112.75945312 132.79209717 113.37046875 132.89449707 114 133 C114.671875 135.27734375 114.671875 135.27734375 115 138 C113.953125 139.81640625 113.953125 139.81640625 112.25 141.5625 C111.27546875 142.59310547 111.27546875 142.59310547 110.28125 143.64453125 C109.5284375 144.42183594 108.775625 145.19914063 108 146 C106.70802675 147.40960662 105.41627434 148.81942858 104.12988281 150.23413086 C102.72201262 151.78074551 101.30736885 153.32088723 99.890625 154.859375 C97.08920779 157.90209868 94.29390457 160.95037874 91.5 164 C88.72811318 167.02486473 85.95545286 170.04900604 83.1796875 173.0703125 C78.95233249 177.67349765 74.73473917 182.28413776 70.5625 186.9375 C66.57255478 191.38425469 62.52943968 195.77950775 58.46142578 200.15478516 C56.04872578 202.75504488 53.66158548 205.36875418 51.33984375 208.05078125 C50.54707031 208.96214844 49.75429688 209.87351562 48.9375 210.8125 C48.24527344 211.62332031 47.55304688 212.43414063 46.83984375 213.26953125 C45 215 45 215 42 215 C41.67 215.99 41.34 216.98 41 218 C38.43740308 219.18977714 37.25190517 219.08396839 34.5625 218.1875 C33.716875 217.795625 32.87125 217.40375 32 217 C31.19046875 216.73574219 30.3809375 216.47148438 29.546875 216.19921875 C26.50368758 214.76630688 25.56203659 213.38982962 23.6875 210.625 C19.04705996 204.55673226 13.42067094 200.57361804 7.29296875 196.14453125 C3.00271902 193.04055261 -1.10058452 189.74020044 -5.1875 186.375 C-10.9734382 181.62761739 -16.83318382 177.00686954 -22.78125 172.46484375 C-31.43372696 165.85560874 -39.96291547 159.08985461 -48.3671875 152.16796875 C-50.11729526 150.72685627 -51.87249612 149.29190597 -53.6328125 147.86328125 C-65.52811349 138.20485173 -77.13603673 128.20899061 -88.37890625 117.796875 C-93.62792986 112.97754674 -99.0405362 108.5527905 -104.7980957 104.36157227 C-108.89357749 101.31926753 -108.89357749 101.31926753 -110 98 C-106.94591348 92.54788999 -102.11901894 88.06550745 -97.64453125 83.7734375 C-96.48703369 82.65606201 -96.48703369 82.65606201 -95.30615234 81.51611328 C-93.73789911 80.0157498 -92.15362365 78.53194165 -90.55322266 77.06591797 C-88.51356899 75.11895538 -86.64340704 73.2921742 -85 71 C-85.02495927 67.75773615 -85.02495927 67.75773615 -86 65 C-85.05859375 63.15625 -85.05859375 63.15625 -83.4375 61.5 C-82.79167969 60.82839844 -82.14585937 60.15679687 -81.48046875 59.46484375 C-80.25263672 58.24474609 -80.25263672 58.24474609 -79 57 C-77.93235092 55.89833852 -76.8660458 54.79537365 -75.80078125 53.69140625 C-68.90200205 46.60327532 -61.77631212 40.12397488 -54 34 C-52.81934062 33.03271686 -51.64110673 32.06246836 -50.46484375 31.08984375 C-9.19683507 -2.9775654 -9.19683507 -2.9775654 0 0 Z M-64 62 C-75.55 73.55 -87.1 85.1 -99 97 C-97.71435822 100.85692534 -96.05593068 101.63483972 -92.75 103.9375 C-89.06684675 106.52068451 -85.48678489 109.15585247 -82 112 C-81.01 111.505 -81.01 111.505 -80 111 C-80.495 110.484375 -80.99 109.96875 -81.5 109.4375 C-83.54007835 106.12237269 -83.67483522 103.7279732 -83 100 C-79.19187088 86.73593675 -71.53731023 74.72636414 -63 64 C-63.495 63.01 -63.495 63.01 -64 62 Z M-80 112 C-79.01 113.485 -79.01 113.485 -78 115 C-77.34 114.67 -76.68 114.34 -76 114 C-77.32 113.34 -78.64 112.68 -80 112 Z M-16 156 C-3.84160049 170.45456783 9.55507497 182.48269072 24.91308594 193.4543457 C26.83200999 194.8755797 28.63395437 196.36589207 30.43359375 197.93359375 C32.76182399 200.2922389 32.76182399 200.2922389 35.375 199.8125 C35.91125 199.544375 36.4475 199.27625 37 199 C37 198.01 37 197.02 37 196 C34.6469192 194.01543763 32.31174126 192.22073478 29.8125 190.4375 C28.33288126 189.35478419 26.85372044 188.27144234 25.375 187.1875 C24.63378906 186.64867187 23.89257812 186.10984375 23.12890625 185.5546875 C15.03658092 179.64506276 7.23623372 173.42335445 -0.3828125 166.91845703 C-7.43757162 159.78295898 -7.43757162 159.78295898 -16 156 Z " fill="#6A66DB" transform="translate(455,341)"/>
</svg>
