<?xml version="1.0" encoding="UTF-8"?>
<svg version="1.1" xmlns="http://www.w3.org/2000/svg" width="512" height="512">
<path d="M0 0 C1.03476723 -0.01730415 1.03476723 -0.01730415 2.09043884 -0.03495789 C4.37322258 -0.06927093 6.65573564 -0.08777076 8.9387207 -0.10327148 C10.1111328 -0.11362584 10.1111328 -0.11362584 11.30723 -0.12418938 C15.44668404 -0.160032 19.58600173 -0.18356459 23.72558594 -0.19726562 C27.98862781 -0.21378394 32.25000205 -0.2721594 36.51248455 -0.34040928 C39.80092593 -0.38533411 43.08897321 -0.39877046 46.37769508 -0.40388298 C47.94815138 -0.41174907 49.51859674 -0.43131075 51.08875084 -0.46310616 C64.88532443 -0.72397211 64.88532443 -0.72397211 70.09301758 3.62060547 C73.64881114 7.30038246 74.94190648 11.16826168 75.98950195 16.08813477 C76.19502686 16.87800781 76.40055176 17.66788086 76.61230469 18.48168945 C77.49813628 21.94014575 78.16445429 25.17722939 78.44262695 28.74438477 C78.79096885 32.0811335 79.06243004 33.70196845 81.17700195 36.33813477 C86.59592501 39.11138244 92.71441828 40.28045663 98.59692383 41.6862793 C102.1953467 42.59541906 105.64721594 43.77129566 109.11450195 45.08813477 C109.73929443 45.325 110.36408691 45.56186523 111.0078125 45.8059082 C116.84139166 48.0916352 122.5130746 50.72653768 128.17700195 53.40063477 C129.0496167 53.81216797 129.92223145 54.22370117 130.82128906 54.64770508 C134.89984007 56.61317748 138.6933668 58.64368273 142.42700195 61.20922852 C145.0016885 62.83225389 145.98443764 63.32785096 149.1027832 63.49438477 C153.55223974 61.82089158 157.37819192 59.40515031 161.36450195 56.83813477 C162.96052998 55.82514815 164.55812214 54.8146206 166.1574707 53.80688477 C166.85767334 53.35764648 167.55787598 52.9084082 168.27929688 52.44555664 C171.30534718 50.67967935 173.98213231 50.14006225 177.42700195 50.02563477 C178.1540332 49.98825195 178.88106445 49.95086914 179.63012695 49.91235352 C187.8776442 51.29115625 193.55890342 58.28358658 199.16137695 63.92407227 C200.10781946 64.86848986 201.05470658 65.81246208 202.00201416 66.75601196 C203.97687374 68.72646999 205.94625987 70.70219651 207.91186523 72.68188477 C210.42224342 75.20937709 212.94588496 77.72312725 215.47378159 80.23308372 C217.42841257 82.17683812 219.37579791 84.12772589 221.32111359 86.0807991 C222.69691341 87.45955087 224.07871754 88.83230283 225.46063232 90.20492554 C226.29870422 91.05245392 227.13677612 91.8999823 228.00024414 92.77319336 C229.10441681 93.8809462 229.10441681 93.8809462 230.230896 95.01107788 C234.11259497 99.6526208 235.82188855 103.9659699 235.58325195 109.93188477 C234.58892709 115.82134743 231.20587197 120.73496821 228.02856445 125.68579102 C227.47749023 126.54769043 227.47749023 126.54769043 226.9152832 127.42700195 C225.84610022 129.08235982 224.75034915 130.72046559 223.65356445 132.35766602 C221.92501395 135.84677721 222.14058 136.69839258 223.17700195 140.33813477 C224.23479041 142.69551038 224.23479041 142.69551038 225.58325195 145.04907227 C226.07559326 145.95246338 226.56793457 146.85585449 227.07519531 147.78662109 C227.6037915 148.75237061 228.1323877 149.71812012 228.67700195 150.71313477 C232.93768893 158.70072997 236.81047871 166.71960522 240.11450195 175.15063477 C240.48816895 176.09704834 240.86183594 177.04346191 241.24682617 178.01855469 C242.96007625 182.52585799 244.38247257 186.90787214 245.3137207 191.64282227 C246.21528429 196.20453801 247.07146568 200.16018301 249.17700195 204.33813477 C253.36227153 206.80770377 257.41210266 207.53500449 262.15307617 208.08129883 C265.39766804 208.49303714 268.51390816 209.26945167 271.67700195 210.08813477 C273.3012207 210.45165039 273.3012207 210.45165039 274.95825195 210.82250977 C279.72005437 213.0647177 282.61587884 215.6998648 285.17700195 220.33813477 C286.21471931 225.75145014 286.16447625 231.10194268 286.10668945 236.58813477 C286.11141289 238.17180102 286.11821321 239.75546231 286.12698364 241.33911133 C286.13726679 244.6478742 286.12242838 247.95530846 286.08959961 251.26391602 C286.04971219 255.48791252 286.07269651 259.70879575 286.11460686 263.93267822 C286.14000268 267.19986076 286.13180647 270.46631503 286.11371231 273.73352051 C286.1090702 275.28992082 286.11467625 276.84638906 286.13106918 278.40270996 C286.24302718 292.01680238 286.24302718 292.01680238 281.88354492 297.24316406 C278.20917088 300.81308893 274.35191401 302.10196634 269.42700195 303.15063477 C268.63712891 303.35615967 267.84725586 303.56168457 267.03344727 303.7734375 C263.57499097 304.6592691 260.33790733 305.3255871 256.77075195 305.60375977 C253.43400322 305.95210167 251.81316827 306.22356285 249.17700195 308.33813477 C246.40375428 313.75705783 245.23468009 319.8755511 243.82885742 325.75805664 C242.91971765 329.35647951 241.74384106 332.80834875 240.42700195 336.27563477 C240.0717041 337.21282349 240.0717041 337.21282349 239.70922852 338.16894531 C237.42350152 344.00252448 234.78859904 349.67420741 232.11450195 355.33813477 C231.70296875 356.21074951 231.29143555 357.08336426 230.86743164 357.98242188 C228.89743619 362.07035865 226.85432587 365.89266436 224.3059082 369.65063477 C222.4944105 372.50943066 222.4944105 372.50943066 222.09106445 375.84204102 C223.66989708 379.47108435 225.55024652 382.86441546 227.55200195 386.27563477 C235.60608503 400.18841376 235.60608503 400.18841376 235.61450195 404.77563477 C235.64350586 405.82557617 235.64350586 405.82557617 235.6730957 406.89672852 C234.00625182 415.09970036 227.27201614 420.67984294 221.59106445 426.32250977 C220.64664686 427.26895228 219.70267464 428.2158394 218.75912476 429.16314697 C216.78866673 431.13800655 214.81294021 433.10739268 212.83325195 435.07299805 C210.30575963 437.58337624 207.79200947 440.10701778 205.28205299 442.6349144 C203.3382986 444.58954538 201.38741083 446.53693073 199.43433762 448.4822464 C198.05558585 449.85804622 196.68283389 451.23985035 195.31021118 452.62176514 C194.4626828 453.45983704 193.61515442 454.29790894 192.74194336 455.16137695 C191.63419052 456.26554962 191.63419052 456.26554962 190.50405884 457.39202881 C185.86251592 461.27372778 181.54916682 462.98302136 175.58325195 462.74438477 C169.69378929 461.7500599 164.7801685 458.36700478 159.8293457 455.18969727 C158.96744629 454.63862305 158.96744629 454.63862305 158.08813477 454.07641602 C156.4327769 453.00723303 154.79467113 451.91148196 153.1574707 450.81469727 C149.66835951 449.08614677 148.81674413 449.30171281 145.17700195 450.33813477 C142.81962634 451.39592322 142.81962634 451.39592322 140.46606445 452.74438477 C139.56267334 453.23672607 138.65928223 453.72906738 137.72851562 454.23632812 C136.76276611 454.76492432 135.7970166 455.29352051 134.80200195 455.83813477 C126.81440675 460.09882175 118.7955315 463.97161153 110.36450195 467.27563477 C109.41808838 467.64930176 108.4716748 468.02296875 107.49658203 468.40795898 C102.98927873 470.12120906 98.60726458 471.54360539 93.87231445 472.47485352 C89.31059871 473.3764171 85.35495371 474.23259849 81.17700195 476.33813477 C78.70743295 480.52340434 77.98013223 484.57323547 77.43383789 489.31420898 C77.02209957 492.55880085 76.24568505 495.67504097 75.42700195 498.83813477 C75.1846582 499.92094727 74.94231445 501.00375977 74.69262695 502.11938477 C72.4498851 506.88232108 69.81956167 509.78051876 65.17700195 512.33813477 C59.75056458 513.36551954 54.38881384 513.30133342 48.8918457 513.23266602 C47.3057867 513.23484536 45.71972935 513.23925223 44.13368225 513.24577332 C40.82070484 513.25155952 37.50905835 513.23272544 34.19628906 513.19580078 C29.96346191 513.15028213 25.73320831 513.1629292 21.50032711 513.19360828 C18.22892128 513.21145709 14.95811199 513.20013203 11.68673897 513.17996788 C10.12673686 513.17348151 8.56667385 513.17552028 7.0066967 513.18647194 C-6.65746986 513.25280525 -6.65746986 513.25280525 -11.24389648 509.43579102 C-13.50020817 507.02165031 -15.00034239 504.69967718 -16.01049805 501.52563477 C-16.30827148 500.59106445 -16.60604492 499.65649414 -16.9128418 498.69360352 C-21.82299805 480.59135365 -21.82299805 480.59135365 -21.82299805 475.33813477 C-22.86842773 475.26079102 -23.91385742 475.18344727 -24.9909668 475.10375977 C-31.28081462 474.31251434 -37.15804206 472.12119355 -43.13549805 470.08813477 C-44.29500977 469.7052832 -45.45452148 469.32243164 -46.64916992 468.92797852 C-53.92758606 466.48138332 -60.90437186 463.66890268 -67.82299805 460.33813477 C-66.54657809 457.5529641 -65.21201299 455.46536143 -63.08169556 453.2688446 C-62.52412567 452.68973831 -61.96655579 452.11063202 -61.39208984 451.51397705 C-60.78228271 450.89093689 -60.17247559 450.26789673 -59.54418945 449.62597656 C-58.89993011 448.96054337 -58.25567078 448.29511017 -57.59188843 447.60951233 C-50.86243189 440.67532445 -44.07259992 433.79954253 -37.27856445 426.92871094 C-34.0580834 423.66811423 -30.85686534 420.39026202 -27.67114258 417.09570312 C-23.82018149 413.11340643 -19.93818635 409.16402206 -16.03202438 405.2358799 C-14.55130156 403.73621244 -13.0817423 402.22543454 -11.62395096 400.70346642 C-0.20655941 388.81039889 -0.20655941 388.81039889 5.61930847 387.65609741 C8.65632097 387.9000223 11.26683372 388.46322373 14.17700195 389.33813477 C50.84325378 391.05187503 87.94556818 383.19420341 116.02978516 358.17602539 C118.45799189 355.94215309 120.81674561 353.64381871 123.17700195 351.33813477 C123.9659082 350.61110352 124.75481445 349.88407227 125.56762695 349.13500977 C145.36604495 330.44419558 156.56653563 303.77368624 161.17700195 277.33813477 C161.36004883 276.33524414 161.5430957 275.33235352 161.73168945 274.29907227 C163.72234435 256.5927208 162.97464262 238.5074692 158.17700195 221.33813477 C157.97333008 220.58564453 157.7696582 219.8331543 157.55981445 219.05786133 C148.33404323 185.89918668 125.86936253 156.88039348 95.9465332 139.76782227 C84.80720434 134.01747761 73.2766115 129.5913749 61.17700195 126.33813477 C59.45803711 125.85666992 59.45803711 125.85666992 57.7043457 125.36547852 C39.05676377 121.00287774 15.61603234 121.17866899 -2.82299805 126.33813477 C-3.62286133 126.55856445 -4.42272461 126.77899414 -5.24682617 127.00610352 C-40.46497549 137.03810084 -69.88693656 159.16406255 -87.83935547 191.24487305 C-95.33942093 205.16569524 -100.10841699 219.77323475 -102.82299805 235.33813477 C-103.00991211 236.3887207 -103.19682617 237.43930664 -103.3894043 238.52172852 C-103.96618479 243.5984361 -103.96755731 248.60816627 -103.94799805 253.71313477 C-103.95186523 254.68379883 -103.95573242 255.65446289 -103.9597168 256.65454102 C-103.95842773 257.65098633 -103.95713867 258.64743164 -103.95581055 259.67407227 C-103.96704956 261.17282646 -103.96704956 261.17282646 -103.97851562 262.70185852 C-103.91321439 266.38651147 -103.91321439 266.38651147 -103.07299805 270.12882996 C-102.10026093 275.38115242 -101.36272529 280.53718378 -103.91479111 285.43230438 C-107.79206516 290.83994385 -112.72292295 295.27839591 -117.56518555 299.80297852 C-119.09277703 301.29440026 -120.61633247 302.78996608 -122.13601685 304.28944397 C-126.12508644 308.20452238 -130.1647213 312.06292969 -134.21826172 315.91107178 C-138.34799946 319.84900054 -142.42966959 323.83605422 -146.5144043 327.82055664 C-151.09987941 332.28970393 -155.68982819 336.75325091 -160.31637573 341.17991638 C-161.01594391 341.85007782 -161.71551208 342.52023926 -162.4362793 343.21070862 C-163.74597401 344.46374682 -165.05780036 345.71456213 -166.37210083 346.96276855 C-169.49412681 349.84038994 -169.49412681 349.84038994 -171.82299805 353.33813477 C-172.81299805 353.33813477 -173.80299805 353.33813477 -174.82299805 353.33813477 C-184.86067117 329.09868832 -184.86067117 329.09868832 -187.94799805 318.52563477 C-188.1473999 317.84637939 -188.34680176 317.16712402 -188.55224609 316.46728516 C-189.44735077 313.25193685 -189.82299805 310.71583005 -189.82299805 307.33813477 C-190.7356543 307.19118164 -190.7356543 307.19118164 -191.66674805 307.04125977 C-197.53470891 306.04025468 -203.34395675 304.83326329 -209.13549805 303.46313477 C-209.80452148 303.31392578 -210.47354492 303.1647168 -211.1628418 303.01098633 C-217.05303682 301.57657131 -221.17776608 299.41463384 -224.96374512 294.63623047 C-227.09771756 290.85081471 -227.32924434 288.642554 -227.34057617 284.32641602 C-227.34758545 283.65242767 -227.35459473 282.97843933 -227.36181641 282.2840271 C-227.37931576 280.07246799 -227.36780403 277.8622052 -227.35424805 275.65063477 C-227.35694532 274.10416419 -227.3608297 272.55769527 -227.36584473 271.01123047 C-227.3717288 267.77660917 -227.36321259 264.54243095 -227.34448242 261.30786133 C-227.32169289 257.17176543 -227.33482193 253.03670787 -227.35877228 248.90065002 C-227.37326017 245.70919032 -227.36861071 242.51797482 -227.35826111 239.32650757 C-227.35560205 237.80194982 -227.35883459 236.27736956 -227.36817932 234.75283813 C-227.37839517 232.61791676 -227.36277744 230.48465218 -227.34057617 228.34985352 C-227.3373938 227.13773193 -227.33421143 225.92561035 -227.33093262 224.67675781 C-226.55737829 219.59223228 -224.15222466 216.49833884 -220.3347168 213.16625977 C-215.30880724 210.54987971 -210.13140331 209.37280672 -204.63549805 208.08813477 C-202.99677734 207.68594727 -202.99677734 207.68594727 -201.32495117 207.27563477 C-193.30310806 205.33813477 -193.30310806 205.33813477 -189.82299805 205.33813477 C-189.70311523 204.17411133 -189.58323242 203.01008789 -189.4597168 201.81079102 C-186.9308163 181.72523056 -176.3681627 158.01139468 -164.7565918 141.51391602 C-163.37286329 138.28907594 -163.80731511 136.70781227 -164.82299805 133.33813477 C-166.48369489 130.16212072 -168.38349252 127.16248654 -170.32299805 124.15063477 C-171.33598466 122.55460674 -172.34651221 120.95701458 -173.35424805 119.35766602 C-173.80348633 118.65746338 -174.25272461 117.95726074 -174.71557617 117.23583984 C-176.48145346 114.20978954 -177.02107056 111.53300441 -177.13549805 108.08813477 C-177.19157227 106.99758789 -177.19157227 106.99758789 -177.2487793 105.88500977 C-175.86997657 97.63749252 -168.87754623 91.9562333 -163.23706055 86.35375977 C-162.29264295 85.40731726 -161.34867073 84.46043014 -160.40512085 83.51312256 C-158.43466282 81.53826298 -156.45893631 79.56887685 -154.47924805 77.60327148 C-151.95175573 75.09289329 -149.43800557 72.56925176 -146.92804909 70.04135513 C-144.98429469 68.08672415 -143.03340692 66.1393388 -141.08033371 64.19402313 C-139.70158194 62.81822331 -138.32882999 61.43641918 -136.95620728 60.05450439 C-135.6849147 58.79739655 -135.6849147 58.79739655 -134.38793945 57.51489258 C-133.64943756 56.77877747 -132.91093567 56.04266235 -132.15005493 55.28424072 C-127.50851201 51.40254175 -123.19516291 49.69324817 -117.22924805 49.93188477 C-111.33978538 50.92620963 -106.4261646 54.30926475 -101.4753418 57.48657227 C-100.90074219 57.85395508 -100.32614258 58.22133789 -99.73413086 58.59985352 C-98.07877299 59.6690365 -96.44066723 60.76478757 -94.8034668 61.86157227 C-91.32119205 63.5867359 -90.45505966 63.36455716 -86.82299805 62.33813477 C-84.61186113 61.3614016 -84.61186113 61.3614016 -82.4440918 60.11547852 C-81.61546631 59.66317871 -80.78684082 59.21087891 -79.93310547 58.74487305 C-79.05114502 58.26002441 -78.16918457 57.77517578 -77.26049805 57.27563477 C-61.37280757 48.76026495 -43.84807505 40.93909679 -26.01049805 37.63110352 C-22.55147461 36.64807024 -22.55147461 36.64807024 -21.4050293 33.31860352 C-21.15108398 32.06692383 -20.89713867 30.81524414 -20.63549805 29.52563477 C-20.33019157 28.16581253 -20.02285986 26.8064436 -19.71362305 25.44750977 C-19.49416016 24.41787109 -19.49416016 24.41787109 -19.27026367 23.36743164 C-16.67408242 11.58825122 -13.89975001 0.18564698 0 0 Z " fill="#000000" transform="translate(226.822998046875,-0.338134765625)"/>
<path d="M0 0 C0.69907471 0.13172607 1.39814941 0.26345215 2.1184082 0.39916992 C7.69307716 1.75842349 10.47260104 4.9083693 13.625 9.4375 C14.75344458 11.69438915 14.8554045 13.11460616 14.9375 15.625 C14.97488281 16.36105469 15.01226562 17.09710938 15.05078125 17.85546875 C13.79299466 25.48296355 7.84214326 30.57075771 2.53515625 35.6796875 C0.93023774 37.25640782 -0.67457675 38.83323402 -2.27929688 40.41015625 C-4.79529473 42.8640822 -7.31459215 45.31453044 -9.83666992 47.76220703 C-12.2838947 50.14268279 -14.71848273 52.53556101 -17.15234375 54.9296875 C-18.27599586 56.00825516 -18.27599586 56.00825516 -19.42234802 57.10861206 C-26.77000676 64.35256462 -31.425019 71.59088973 -31.6875 82.0625 C-31.63176065 89.6523416 -29.82037833 96.05453288 -24.375 101.4375 C-24.375 102.0975 -24.375 102.7575 -24.375 103.4375 C-23.79878906 103.72496094 -23.22257812 104.01242187 -22.62890625 104.30859375 C-21.19710175 105.02573673 -19.76717964 105.74666007 -18.33984375 106.47265625 C-17.67082031 106.81167969 -17.00179688 107.15070313 -16.3125 107.5 C-15.64089844 107.84160156 -14.96929687 108.18320312 -14.27734375 108.53515625 C-7.47904865 111.75980957 0.7235126 111.44980543 7.75 109 C20.27540603 103.03985258 30.32806797 89.78194371 39.90429688 79.98681641 C41.87213057 77.97659713 43.84934715 75.97600175 45.828125 73.9765625 C46.42200012 73.36406647 47.01587524 72.75157043 47.62774658 72.12051392 C51.5492402 68.17516727 55.32485546 65.04802674 60.96875 64.00390625 C66.3560035 63.99414673 69.34927351 64.87439459 73.625 68.4375 C74.38103516 69.01757812 74.38103516 69.01757812 75.15234375 69.609375 C84.63121704 81.37625218 81.72541611 106.46008512 80.34375 120.24316406 C76.75727902 146.80546477 62.06180191 170.63480954 41.75 187.75 C18.22627642 205.51433816 -9.34008625 210.55502937 -38.375 208.4375 C-43.33698002 207.72593971 -48.11578081 206.57681386 -52.93359375 205.21484375 C-56.54357471 204.3994224 -57.92418749 204.27643727 -61.375 205.4375 C-63.52915309 207.22595061 -65.42581521 208.98229635 -67.36904907 210.97744751 C-67.95359151 211.56139451 -68.53813395 212.14534152 -69.1403898 212.74698389 C-71.09883506 214.70820937 -73.04260729 216.68335998 -74.98681641 218.65869141 C-76.38751715 220.0670684 -77.78913105 221.47453772 -79.19158936 222.88116455 C-82.21204348 225.91427234 -85.22616816 228.95348695 -88.23564529 231.99748611 C-93.00001267 236.81593412 -97.77959025 241.61909769 -102.56161499 246.42001343 C-113.58154226 257.48814573 -124.58146997 268.57608583 -135.58108521 279.66439819 C-145.64666067 289.81078719 -155.7164619 299.95288374 -165.80263269 310.07880533 C-170.54959975 314.84563793 -175.28665373 319.62203905 -180.01623082 324.4061234 C-182.97129341 327.39117174 -185.93475316 330.3677766 -188.90047455 333.34223175 C-190.26688731 334.71608965 -191.62986005 336.09337955 -192.98897171 337.4744606 C-205.53039996 350.21205154 -216.82938828 359.61540787 -235.375 359.8125 C-248.17483134 359.67647073 -258.06641835 356.13703318 -267.671875 347.33203125 C-278.09028622 336.2673652 -281.07909265 324.27670434 -280.74609375 309.50390625 C-279.78954338 291.17966914 -265.65371812 279.43019369 -253.41577148 267.39404297 C-252.0134661 266.00706237 -250.61168087 264.61955571 -249.21037292 263.23156738 C-246.209701 260.26077496 -243.20623838 257.29284346 -240.20077324 254.32690048 C-235.44934315 249.63622483 -230.70953756 244.93392042 -225.97218323 240.22903442 C-224.34655217 238.61480585 -222.72091411 237.00058433 -221.0952692 235.38636971 C-220.28175027 234.57855246 -219.46823134 233.77073521 -218.63006032 232.93843865 C-207.610686 221.99801245 -196.58202055 211.06713602 -185.52905273 200.16064453 C-178.05542132 192.78587283 -170.59782123 185.39529721 -163.15822846 177.98618424 C-159.22491843 174.07033181 -155.28369521 170.16323755 -151.32256889 166.27550888 C-147.60388472 162.62558557 -143.90650809 158.95539019 -140.22455025 155.26843262 C-138.86939271 153.91895183 -137.50647989 152.57720836 -136.13543701 151.24386978 C-134.26612247 149.42374257 -132.42654577 147.57796992 -130.59178162 145.72311401 C-130.04181107 145.20072328 -129.49184053 144.67833256 -128.92520422 144.1401118 C-126.9098216 142.0557779 -125.4281452 140.34414599 -125.25432599 137.37882638 C-125.73745032 133.20668581 -126.91765803 129.13201435 -127.9375 125.0625 C-133.65796459 96.91105108 -127.81746119 68.44124532 -112.63427734 44.32177734 C-96.85927708 20.71738572 -72.67805054 5.91861528 -45.375 -0.5625 C-31.07775325 -3.34105472 -14.24417145 -2.94965095 0 0 Z " fill="#000000" transform="translate(280.375,152.5625)"/>
</svg>
