<?xml version="1.0" encoding="UTF-8"?>
<svg version="1.1" xmlns="http://www.w3.org/2000/svg" width="214" height="228">
<path d="M0 0 C0.66 0 1.32 0 2 0 C2.43231934 0.83958252 2.86463867 1.67916504 3.31005859 2.54418945 C13.68183318 22.69869195 13.68183318 22.69869195 24.20068359 42.77661133 C28.01218148 49.99444788 31.75518886 57.24743797 35.5 64.5 C39.83157162 72.88688954 44.16997707 81.26980609 48.5625 89.625 C48.95727539 90.37982666 49.35205078 91.13465332 49.75878906 91.91235352 C52.42790548 96.99296957 55.245116 101.97028228 58.234375 106.87109375 C59 109 59 109 58.45703125 110.93359375 C56.50074359 113.70806069 54.26497766 116.16436509 51.9375 118.625 C50.93447805 119.70143378 49.93187934 120.77826207 48.9296875 121.85546875 C48.18283691 122.65476807 48.18283691 122.65476807 47.42089844 123.47021484 C45.44096093 125.60187953 43.50103448 127.7681876 41.5625 129.9375 C37.56551622 134.3920991 33.50925591 138.78918479 29.44384766 143.18115234 C25.6852202 147.24611811 21.97250157 151.34984906 18.27734375 155.47265625 C15.70190085 158.33082358 13.10298491 161.1669567 10.5 164 C6.98991408 167.82422051 3.48502674 171.65289256 0 175.5 C-1.051875 176.66015625 -1.051875 176.66015625 -2.125 177.84375 C-3.85510395 179.83336954 -5.44981703 181.86849842 -7 184 C-10.35595828 183.40072174 -12.37801226 182.15377564 -15 180 C-15.33 180.99 -15.66 181.98 -16 183 C-16.598125 182.690625 -17.19625 182.38125 -17.8125 182.0625 C-20.08956772 180.89790296 -20.08956772 180.89790296 -23 180 C-23.33 180.66 -23.66 181.32 -24 182 C-26.04778181 181.48805455 -28.05870698 180.98043101 -30.0625 180.3125 C-32.32110278 179.72287634 -32.32110278 179.72287634 -35 182 C-35.86625 181.443125 -35.86625 181.443125 -36.75 180.875 C-37.4925 180.58625 -38.235 180.2975 -39 180 C-39.5775 180.350625 -40.155 180.70125 -40.75 181.0625 C-43.59991396 182.24996415 -44.42571252 181.70399715 -47.25 180.625 C-48.50616116 180.09777907 -49.75835303 179.56054936 -51 179 C-51.33 179.66 -51.66 180.32 -52 181 C-52.33 180.01 -52.66 179.02 -53 178 C-54.65230052 177.017053 -54.65230052 177.017053 -56.734375 176.34594727 C-57.92196411 175.91518639 -57.92196411 175.91518639 -59.13354492 175.47572327 C-59.9969751 175.17564865 -60.86040527 174.87557404 -61.75 174.56640625 C-62.63727783 174.24719711 -63.52455566 173.92798798 -64.4387207 173.59910583 C-67.28868667 172.57590295 -70.14394981 171.56858128 -73 170.5625 C-75.82640419 169.55720765 -78.65156923 168.54858528 -81.47558594 167.53660583 C-83.23373881 166.90761865 -84.99342314 166.28288949 -86.75488281 165.66322327 C-92.29529753 163.6942656 -97.66165764 161.46444844 -103 159 C-102.38138142 153.48755268 -101.04706071 148.52655349 -99.3046875 143.26953125 C-99.03610428 142.44446579 -98.76752106 141.61940033 -98.49079895 140.76933289 C-97.62477898 138.11507779 -96.75020919 135.46373774 -95.875 132.8125 C-95.28073527 130.99878655 -94.68674139 129.18498434 -94.09301758 127.37109375 C-90.20753398 115.52925728 -86.24080595 103.72004554 -82 92 C-82.66 91.67 -83.32 91.34 -84 91 C-83.53811279 90.59225342 -83.07622559 90.18450684 -82.6003418 89.7644043 C-80.81008475 87.79061518 -80.20056485 86.2951032 -79.39453125 83.76953125 C-79.00297852 82.56586914 -79.00297852 82.56586914 -78.60351562 81.33789062 C-78.34248047 80.50451172 -78.08144531 79.67113281 -77.8125 78.8125 C-77.53986328 77.96751953 -77.26722656 77.12253906 -76.98632812 76.25195312 C-76.3160113 74.170443 -75.65426485 72.08660012 -75 70 C-71.30973516 70.63261683 -68.57274103 71.57090359 -65 73 C-61.7 64.75 -58.4 56.5 -55 48 C-50.80825346 49.04793663 -49.78407039 49.91763635 -47 53 C-46.18595703 51.35451172 -46.18595703 51.35451172 -45.35546875 49.67578125 C-44.6329203 48.22130061 -43.91025804 46.7668765 -43.1875 45.3125 C-42.83107422 44.59126953 -42.47464844 43.87003906 -42.10742188 43.12695312 C-40.21193781 39.31859523 -38.25792874 35.61126143 -36 32 C-33.69 33.98 -31.38 35.96 -29 38 C-28.76539062 37.18273438 -28.53078125 36.36546875 -28.2890625 35.5234375 C-26.73266343 31.26928005 -24.63830042 27.53626604 -22.375 23.625 C-21.95476562 22.88894531 -21.53453125 22.15289062 -21.1015625 21.39453125 C-20.07247236 19.5936235 -19.03689244 17.79642682 -18 16 C-16.35 17.65 -14.7 19.3 -13 21 C-12.61666504 20.36384766 -12.23333008 19.72769531 -11.83837891 19.07226562 C-10.10806187 16.21024472 -8.36671844 13.35509541 -6.625 10.5 C-6.02171875 9.49839844 -5.4184375 8.49679688 -4.796875 7.46484375 C-4.21679688 6.51738281 -3.63671875 5.56992187 -3.0390625 4.59375 C-2.50490723 3.71396484 -1.97075195 2.83417969 -1.42041016 1.92773438 C-0.9516748 1.29158203 -0.48293945 0.65542969 0 0 Z M0 9 C-1.70613262 11.55170274 -3.38951837 14.11419894 -5.0625 16.6875 C-5.54783203 17.40873047 -6.03316406 18.12996094 -6.53320312 18.87304688 C-6.98759766 19.57880859 -7.44199219 20.28457031 -7.91015625 21.01171875 C-8.33433838 21.65584717 -8.75852051 22.29997559 -9.19555664 22.96362305 C-10.29024849 25.73473829 -9.90077191 27.18117724 -9 30 C-7.71326452 32.42159969 -7.71326452 32.42159969 -6.04296875 34.81640625 C-5.43098633 35.73534668 -4.81900391 36.65428711 -4.18847656 37.60107422 C-3.5281543 38.57834473 -2.86783203 39.55561523 -2.1875 40.5625 C2.80307681 48.06974322 7.66483504 55.6130199 12.25 63.375 C15.88665013 69.51641481 19.60193018 75.58326917 23.5 81.5625 C23.93892578 82.23804932 24.37785156 82.91359863 24.83007812 83.60961914 C26.76569694 86.58454128 28.70664198 89.55565395 30.66210938 92.51757812 C32.369519 95.10859634 34.06062347 97.70969882 35.75 100.3125 C36.28818359 101.11953369 36.82636719 101.92656738 37.38085938 102.75805664 C37.86876953 103.51465576 38.35667969 104.27125488 38.859375 105.05078125 C39.29733398 105.71762939 39.73529297 106.38447754 40.18652344 107.0715332 C41.2198918 109.52128612 40.9641703 110.55367593 40 113 C38.4499215 115.20442683 36.87988142 117.28572625 35.1875 119.375 C34.70047607 119.98569336 34.21345215 120.59638672 33.71166992 121.22558594 C29.67172569 126.25507507 25.48828861 131.15721636 21.26782227 136.03540039 C17.83676804 140.00372134 14.52268666 144.04405857 11.26953125 148.16015625 C8.15625936 152.05576496 4.98467261 155.90229489 1.8125 159.75 C1.21775879 160.4716333 0.62301758 161.1932666 0.01025391 161.93676758 C-0.56418457 162.63310303 -1.13862305 163.32943848 -1.73046875 164.046875 C-2.2826709 164.71912109 -2.83487305 165.39136719 -3.40380859 166.08398438 C-4.43185333 167.31801543 -5.47546037 168.53932818 -6.53759766 169.74414062 C-9.42346159 172.87995704 -9.42346159 172.87995704 -10 177 C-7.04106182 177.33930581 -7.04106182 177.33930581 -5.5625 175.671875 C-5.046875 175.03765625 -4.53125 174.4034375 -4 173.75 C-0.99913287 170.16913334 2.08201558 166.68319029 5.25 163.25 C6.20054679 162.2161697 7.15106725 161.18231519 8.1015625 160.1484375 C8.58012695 159.62862305 9.05869141 159.10880859 9.55175781 158.57324219 C11.91191695 156.0093741 14.26911658 153.44279704 16.625 150.875 C17.08358398 150.37516602 17.54216797 149.87533203 18.01464844 149.36035156 C21.59749721 145.45016186 25.14532495 141.50949505 28.6875 137.5625 C31.73629924 134.18410085 34.81496684 130.83344354 37.89428711 127.48291016 C41.70132074 123.33650283 45.4690185 119.15578041 49.22265625 114.9609375 C50.44789801 113.60913231 51.70992352 112.29007648 53 111 C52.64952566 106.85639448 50.95511603 103.62167249 49.04296875 99.9765625 C48.74411774 99.40256714 48.44526672 98.82857178 48.13735962 98.23718262 C47.15995687 96.36331117 46.17379751 94.49420269 45.1875 92.625 C44.50226252 91.31524771 43.81761718 90.00518547 43.13354492 88.69482422 C41.74958725 86.0460903 40.36222982 83.39918506 38.97167969 80.75390625 C36.72492715 76.47918607 34.49437352 72.19609256 32.2644043 67.91259766 C30.81271148 65.12540604 29.35802899 62.33979581 27.90234375 59.5546875 C25.39899549 54.76501001 22.90026792 49.97293834 20.40283203 45.18017578 C18.90453277 42.30663986 17.40363622 39.434473 15.90234375 36.5625 C13.96724941 32.85956571 12.04406086 29.15078294 10.12890625 25.4375 C9.23184522 23.70829474 8.3347133 21.97912626 7.4375 20.25 C7.03192871 19.45754883 6.62635742 18.66509766 6.20849609 17.84863281 C5.82902832 17.11999023 5.44956055 16.39134766 5.05859375 15.640625 C4.73173584 15.00672852 4.40487793 14.37283203 4.06811523 13.71972656 C2.91315444 11.86017368 1.6002296 10.48484897 0 9 Z M-18 23 C-19.7004792 25.95105384 -21.38311093 28.91190122 -23.0625 31.875 C-23.54783203 32.71675781 -24.03316406 33.55851562 -24.53320312 34.42578125 C-24.98759766 35.23144531 -25.44199219 36.03710938 -25.91015625 36.8671875 C-26.33433838 37.61081543 -26.75852051 38.35444336 -27.19555664 39.12060547 C-27.5937561 40.05090576 -27.5937561 40.05090576 -28 41 C-27.67 41.66 -27.34 42.32 -27 43 C-26.34 43 -25.68 43 -25 43 C-23.7069894 40.75076296 -22.41555023 38.50064815 -21.125 36.25 C-20.57779297 35.29867187 -20.57779297 35.29867187 -20.01953125 34.328125 C-19.00471791 32.55681444 -18.00197418 30.77860478 -17 29 C-16.56429687 28.23171875 -16.12859375 27.4634375 -15.6796875 26.671875 C-15.45539063 26.12015625 -15.23109375 25.5684375 -15 25 C-15.33 24.34 -15.66 23.68 -16 23 C-16.66 23 -17.32 23 -18 23 Z M-13 30 C-14.88060946 32.45753121 -16.511135 35.08811621 -18.1875 37.6875 C-18.67669922 38.40873047 -19.16589844 39.12996094 -19.66992188 39.87304688 C-22.41708445 43.92918478 -22.41708445 43.92918478 -22.609375 48.6171875 C-20.5497343 51.66665553 -18.38391377 54.58547737 -16.0625 57.4375 C-15.06496786 58.68478683 -14.06757595 59.93218583 -13.0703125 61.1796875 C-12.56016602 61.81358398 -12.05001953 62.44748047 -11.52441406 63.10058594 C-9.14049975 66.070934 -6.78868735 69.06622608 -4.4375 72.0625 C-3.75083252 72.93588013 -3.75083252 72.93588013 -3.05029297 73.8269043 C0.74670213 78.66158332 4.50054047 83.52831848 8.2265625 88.41796875 C10.36582336 91.20639017 12.56253989 93.94386163 14.7734375 96.67578125 C15.42078857 97.4843457 16.06813965 98.29291016 16.73510742 99.12597656 C18.01931455 100.72862595 19.31352304 102.32332102 20.6184082 103.90917969 C21.20195068 104.64168945 21.78549316 105.37419922 22.38671875 106.12890625 C22.91483154 106.77931885 23.44294434 107.42973145 23.98706055 108.09985352 C25 110 25 110 24.81860352 112.01098633 C23.93239096 114.16427404 22.89861663 115.821881 21.515625 117.6953125 C20.74134155 118.75480103 20.74134155 118.75480103 19.95141602 119.83569336 C19.38994873 120.59116455 18.82848145 121.34663574 18.25 122.125 C17.05579402 123.75376288 15.86178907 125.38267317 14.66796875 127.01171875 C14.05614746 127.8423584 13.44432617 128.67299805 12.81396484 129.52880859 C10.57177297 132.58338008 8.3578315 135.65761439 6.14624023 138.734375 C-1.15093794 148.88540565 -8.56546239 158.94932616 -16 169 C-14.68 170.32 -13.36 171.64 -12 173 C-11.51273438 172.40316406 -11.02546875 171.80632812 -10.5234375 171.19140625 C-5.69528169 165.28349923 -0.85216777 159.38819231 4 153.5 C8.53566746 147.99583485 13.06200748 142.48435995 17.57421875 136.9609375 C21.41490352 132.27295191 25.27163751 127.59817423 29.12890625 122.92382812 C30.25661217 121.55610372 31.38006834 120.18486035 32.49853516 118.80957031 C33.77828668 117.26720962 35.12331049 115.7793949 36.48046875 114.3046875 C38.20849455 112.13222952 38.20849455 112.13222952 38.0390625 109.64453125 C36.61033713 106.00826404 34.55487473 102.90385938 32.375 99.6875 C31.3691616 98.16924702 30.36537201 96.64963538 29.36328125 95.12890625 C28.8213916 94.30793457 28.27950195 93.48696289 27.72119141 92.64111328 C24.59705197 87.84722103 21.58483903 82.98346215 18.5625 78.125 C17.27754159 76.06367874 15.9923865 74.00248008 14.70703125 71.94140625 C14.0826416 70.93996582 13.45825195 69.93852539 12.81494141 68.90673828 C8.24258685 61.5838363 3.63421379 54.28389368 -1 47 C-1.51675293 46.18724609 -2.03350586 45.37449219 -2.56591797 44.53710938 C-4.10194292 42.12598987 -5.64360227 39.71858423 -7.1875 37.3125 C-7.65768555 36.57459229 -8.12787109 35.83668457 -8.61230469 35.07641602 C-9.71445593 33.36651534 -10.85325287 31.68031803 -12 30 C-12.33 30 -12.66 30 -13 30 Z M-36 37 C-37.36878548 39.74356126 -38.72013177 42.49355105 -40.0625 45.25 C-40.64741211 46.41595703 -40.64741211 46.41595703 -41.24414062 47.60546875 C-41.60830078 48.35957031 -41.97246094 49.11367187 -42.34765625 49.890625 C-42.68804932 50.58188477 -43.02844238 51.27314453 -43.37915039 51.98535156 C-44.11635505 54.37757053 -43.80784795 55.66570847 -43 58 C-42.01 58 -41.02 58 -40 58 C-38.62783972 55.61298157 -37.27756021 53.21744946 -35.9375 50.8125 C-35.54755859 50.13896484 -35.15761719 49.46542969 -34.75585938 48.77148438 C-32.45517718 44.65228726 -32.45517718 44.65228726 -32.25390625 40.01171875 C-32.50011719 39.34785156 -32.74632813 38.68398438 -33 38 C-33.99 37.67 -34.98 37.34 -36 37 Z M-30 45 C-32.97 50.28 -35.94 55.56 -39 61 C-38.01 61 -37.02 61 -36 61 C-34.66141476 58.71125827 -33.32898986 56.41930344 -32 54.125 C-31.6184375 53.47402344 -31.236875 52.82304688 -30.84375 52.15234375 C-28.72448844 48.79649799 -28.72448844 48.79649799 -28 45 C-28.66 45 -29.32 45 -30 45 Z M-25 50 C-26.6269863 52.39140217 -28.17101304 54.78997168 -29.6875 57.25 C-30.12900391 57.93191406 -30.57050781 58.61382812 -31.02539062 59.31640625 C-33.43643654 62.96012899 -33.43643654 62.96012899 -33.640625 67.109375 C-31.2403671 69.87538648 -28.70117502 72.46486395 -26.0625 75 C-20.34553241 80.53210756 -20.34553241 80.53210756 -18.24609375 83.375 C-17.83488281 83.91125 -17.42367187 84.4475 -17 85 C-16.34 85 -15.68 85 -15 85 C-14.77401123 85.55558594 -14.54802246 86.11117187 -14.31518555 86.68359375 C-12.61151121 89.68423642 -10.45363258 91.68098478 -7.95703125 94.0625 C-6.95596502 95.03342627 -5.95532646 96.00479366 -4.95507812 96.9765625 C-3.37974509 98.49594176 -1.80084107 100.01107661 -0.21411133 101.51855469 C1.32018204 102.98050929 2.83855478 104.45755013 4.35546875 105.9375 C5.26965576 106.81277344 6.18384277 107.68804687 7.12573242 108.58984375 C9 111 9 111 8.91601562 113.09423828 C8.00925643 114.98074209 7.08889815 116.77347369 5.98828125 118.5546875 C5.56683838 119.24143555 5.14539551 119.92818359 4.71118164 120.63574219 C4.01883423 121.7441748 4.01883423 121.7441748 3.3125 122.875 C2.83353271 123.65004883 2.35456543 124.42509766 1.86108398 125.22363281 C-3.33589117 133.60302069 -8.6273553 141.92387477 -13.93359375 150.234375 C-14.46162598 151.06243652 -14.9896582 151.89049805 -15.53369141 152.74365234 C-16.79262393 154.68089083 -18.0966359 156.57184692 -19.42578125 158.4609375 C-21.29657869 160.91274128 -21.29657869 160.91274128 -20.75 163.875 C-20.5025 164.57625 -20.255 165.2775 -20 166 C-16.13033348 166.45952804 -16.13033348 166.45952804 -14.46704102 164.54150391 C-13.98420654 163.86007324 -13.50137207 163.17864258 -13.00390625 162.4765625 C-12.45202637 161.71190674 -11.90014648 160.94725098 -11.33154297 160.15942383 C-10.74775879 159.32306396 -10.16397461 158.4867041 -9.5625 157.625 C-8.94777832 156.76737061 -8.33305664 155.90974121 -7.69970703 155.02612305 C-6.41856143 153.23694826 -5.14291787 151.44382205 -3.87255859 149.64697266 C-1.59551813 146.42824088 0.70908107 143.2301294 3.01928711 140.03515625 C4.08713749 138.55701882 5.15177443 137.07655442 6.21313477 135.59375 C8.91573895 131.82751879 11.66595847 128.11357849 14.515625 124.45703125 C15.07942871 123.72830811 15.64323242 122.99958496 16.22412109 122.2487793 C17.29947194 120.86539021 18.38528425 119.49005019 19.48291016 118.12426758 C22.2180069 114.93350969 22.2180069 114.93350969 22.77319336 110.99072266 C21.45844447 107.60566978 18.99076494 105.00932861 16.6875 102.25 C12.32824013 96.92259718 8.09639203 91.53212897 4 86 C-0.41718622 80.05287095 -4.9608822 74.22867199 -9.61645508 68.46655273 C-13.49089513 63.66507185 -17.26193576 58.79180424 -20.96728516 53.85864258 C-21.95573168 52.55509003 -22.97463667 51.27471793 -24 50 C-24.33 50 -24.66 50 -25 50 Z M-53 51 C-55.74512473 56.17350429 -58.06611969 61.44640493 -60.25 66.875 C-60.65532959 67.87478882 -60.65532959 67.87478882 -61.06884766 68.89477539 C-62.51404008 72.3405171 -62.51404008 72.3405171 -63 76 C-60.525 76.99 -60.525 76.99 -58 78 C-57.16855469 76.33710937 -57.16855469 76.33710937 -56.3203125 74.640625 C-50 62 -50 62 -48.87060547 59.88574219 C-47.83470701 58.03286747 -47.83470701 58.03286747 -48.125 55.9375 C-49.25008681 53.44623634 -50.73274047 52.46274809 -53 51 Z M-46 59 C-47.29761299 61.37191584 -48.58816317 63.74724614 -49.875 66.125 C-50.23980469 66.79015625 -50.60460937 67.4553125 -50.98046875 68.140625 C-53.06980244 72.01538929 -54.74424611 75.75687369 -56 80 C-54.68 80 -53.36 80 -52 80 C-50.45925893 77.26070622 -48.94607142 74.50712161 -47.4375 71.75 C-46.99986328 70.97269531 -46.56222656 70.19539063 -46.11132812 69.39453125 C-45.70205078 68.64042969 -45.29277344 67.88632813 -44.87109375 67.109375 C-44.48880615 66.41811523 -44.10651855 65.72685547 -43.71264648 65.01464844 C-42.85825797 62.59929592 -43.15794164 61.37922307 -44 59 C-44.66 59 -45.32 59 -46 59 Z M-40 64 C-41.98 66.97 -41.98 66.97 -44 70 C-43.67 70.66 -43.34 71.32 -43 72 C-41.68 70.02 -40.36 68.04 -39 66 C-39.33 65.34 -39.66 64.68 -40 64 Z M-37 69 C-38.34130761 71.26645058 -39.67316234 73.53760097 -41 75.8125 C-41.3815625 76.45509766 -41.763125 77.09769531 -42.15625 77.75976562 C-44.43184269 81.62065524 -44.43184269 81.62065524 -45 86 C-44.33581055 86.35715088 -43.67162109 86.71430176 -42.98730469 87.08227539 C-18.63075082 100.19198141 -18.63075082 100.19198141 -9 106 C-9.58475913 109.41223487 -10.44235173 112.30160698 -11.90527344 115.43554688 C-12.29527527 116.2799231 -12.6852771 117.12429932 -13.08709717 117.9942627 C-13.50694885 118.89334351 -13.92680054 119.79242432 -14.359375 120.71875 C-15.23667025 122.63886946 -16.11294177 124.55945692 -16.98828125 126.48046875 C-18.36997185 129.50048482 -19.75791257 132.51693755 -21.16357422 135.52587891 C-22.5195237 138.43568859 -23.84770056 141.35687142 -25.171875 144.28125 C-25.59982361 145.18033081 -26.02777222 146.07941162 -26.46868896 147.0057373 C-28.80980433 151.87978045 -28.80980433 151.87978045 -27.92675781 156.98242188 C-25.97185214 159.17666941 -25.97185214 159.17666941 -23 161 C-18.32131571 154.4583772 -13.93208025 147.80568999 -9.75 140.9375 C-3.97685786 131.52900984 1.95841639 122.23793245 8 113 C3.74034639 107.90663264 -0.72217514 103.15561811 -5.4453125 98.4921875 C-6.48375809 97.45942184 -6.48375809 97.45942184 -7.54318237 96.40579224 C-9.73469192 94.2263985 -11.92942361 92.05029615 -14.125 89.875 C-17.02635517 87.0003152 -19.92433126 84.12228484 -22.8203125 81.2421875 C-23.48080597 80.58999237 -24.14129944 79.93779724 -24.82180786 79.26583862 C-27.49441414 76.60744856 -29.96417743 74.04677588 -32.26123047 71.04736328 C-32.83502441 70.3717334 -33.40881836 69.69610352 -34 69 C-34.99 69 -35.98 69 -37 69 Z M-45 72 C-45 75 -45 75 -45 75 Z M-74 73 C-74.84080019 75.41429769 -75.67281402 77.83103993 -76.5 80.25 C-76.85771484 81.27287109 -76.85771484 81.27287109 -77.22265625 82.31640625 C-78.39421287 85.76413003 -79 88.31702904 -79 92 C-78.67 92.33 -78.34 92.66 -78 93 C-78.99 93.33 -79.98 93.66 -81 94 C-82.22237122 96.51048093 -82.22237122 96.51048093 -83.17651367 99.66552734 C-83.57670212 100.87703461 -83.97689056 102.08854187 -84.38920593 103.33676147 C-84.81584705 104.66969639 -85.24209173 106.00275825 -85.66796875 107.3359375 C-86.11116059 108.69525852 -86.55529042 110.05427405 -87.00032043 111.41299438 C-87.93135243 114.26387799 -88.85437304 117.11718623 -89.77124023 119.97265625 C-90.94699864 123.63390309 -92.1370277 127.29029928 -93.33240795 130.94518089 C-94.24986835 133.75260352 -95.16240182 136.56160603 -96.07317543 139.37120438 C-96.51046725 140.71990585 -96.94866432 142.06831416 -97.38777733 143.4164238 C-98.0003389 145.30135588 -98.60616302 147.18847348 -99.21166992 149.07568359 C-99.73104378 150.68665421 -99.73104378 150.68665421 -100.26091003 152.33016968 C-101.13339802 155.02016929 -101.13339802 155.02016929 -101 158 C-85.02925504 164.08008193 -69.05610819 170.14804099 -53 176 C-51.81277344 176.433125 -50.62554687 176.86625 -49.40234375 177.3125 C-46.9357047 178.21059361 -44.46845686 179.10691786 -42 180 C-42 179.01 -42 178.02 -42 177 C-43.12277344 176.45214844 -44.24554688 175.90429688 -45.40234375 175.33984375 C-50.22795313 172.92545134 -54.89155483 170.26116923 -59.5625 167.5625 C-61.40074554 166.50599501 -63.23929942 165.45002638 -65.078125 164.39453125 C-66.51381836 163.57009521 -66.51381836 163.57009521 -67.97851562 162.72900391 C-73.24485625 159.71541112 -78.52869767 156.73283821 -83.8125 153.75 C-85.33435913 152.89063843 -85.33435913 152.89063843 -86.88696289 152.01391602 C-89.25773634 150.67551989 -91.62873278 149.33752104 -94 148 C-91.99955383 141.75852425 -89.74323484 135.66976734 -87.26953125 129.6015625 C-86.91541672 128.72712494 -86.56130219 127.85268738 -86.19645691 126.95175171 C-85.44893209 125.10743951 -84.70007603 123.26366638 -83.94995117 121.42041016 C-82.83009053 118.66823063 -81.71447728 115.91436147 -80.59960938 113.16015625 C-79.86484898 111.34885055 -79.12982396 109.53765218 -78.39453125 107.7265625 C-78.03408722 106.83745178 -77.67364319 105.94834106 -77.30227661 105.0322876 C-75.45914786 100.50602169 -73.57882144 96.00058162 -71.63037109 91.51855469 C-71.25345627 90.64621185 -70.87654144 89.77386902 -70.48820496 88.87509155 C-69.76997504 87.2194227 -69.04370628 85.567211 -68.30830383 83.9190979 C-66.26311809 79.57953179 -66.26311809 79.57953179 -67 75 C-69.60242414 73.35179805 -70.86248779 73 -74 73 Z M-47 75 C-46 77 -46 77 -46 77 Z M-48 77 C-47 79 -47 79 -47 79 Z M-64 78 C-69.0077602 86.56929733 -69.0077602 86.56929733 -69 96 C-65.6432435 95.26139312 -65.6432435 95.26139312 -64.17578125 91.62109375 C-63.54407411 90.23133804 -62.92338204 88.83653466 -62.3125 87.4375 C-61.83200195 86.37112305 -61.83200195 86.37112305 -61.34179688 85.28320312 C-60.55179504 83.52633338 -59.77466377 81.76368655 -59 80 C-61.475 79.01 -61.475 79.01 -64 78 Z M-57 82 C-65.76027354 97.64753987 -65.76027354 97.64753987 -73 114 C-72.67 114.66 -72.34 115.32 -72 116 C-62.66180536 99.68044352 -62.66180536 99.68044352 -54 83 C-54.99 82.67 -55.98 82.34 -57 82 Z M-47 87 C-47.9893091 88.38866323 -48.96603078 89.78629851 -49.9375 91.1875 C-50.48277344 91.96480469 -51.02804688 92.74210937 -51.58984375 93.54296875 C-53.0456289 96.07950299 -53.59613435 98.1218182 -54 101 C-54.99 101.33 -55.98 101.66 -57 102 C-58.99246018 104.62791086 -58.99246018 104.62791086 -60.8125 107.8125 C-61.45832031 108.87082031 -62.10414062 109.92914063 -62.76953125 111.01953125 C-64.27149433 113.81210793 -64.27149433 113.81210793 -63.4609375 116.08984375 C-61.67754849 118.42160104 -59.80688616 120.59427795 -57.8125 122.75 C-57.008125 123.62785156 -56.20375 124.50570312 -55.375 125.41015625 C-54.59125 126.26480469 -53.8075 127.11945313 -53 128 C-51.76559072 129.39119917 -50.53589412 130.7866045 -49.3125 132.1875 C-48.75820312 132.82042969 -48.20390625 133.45335937 -47.6328125 134.10546875 C-46.50957198 135.40875022 -45.40091585 136.72469857 -44.3046875 138.05078125 C-43.50417969 139.01564453 -43.50417969 139.01564453 -42.6875 140 C-41.98173828 140.86625 -41.98173828 140.86625 -41.26171875 141.75 C-40.05921273 143.23460001 -40.05921273 143.23460001 -38 143 C-37.79375 143.721875 -37.5875 144.44375 -37.375 145.1875 C-35.54751837 148.9255306 -33.29561194 150.49246917 -30 153 C-25.17592521 143.86948588 -21.22090695 134.3710116 -17.1875 124.875 C-16.48791326 123.23425428 -15.78804566 121.59362829 -15.08789062 119.953125 C-13.38868685 115.97012251 -11.6932887 111.98552055 -10 108 C-12.65139713 104.93465423 -15.95128357 103.18716436 -19.4609375 101.27734375 C-20.08851959 100.93119522 -20.71610168 100.58504669 -21.36270142 100.22840881 C-22.68771596 99.49901611 -24.01411524 98.77213398 -25.34179688 98.04760742 C-27.36410137 96.94345053 -29.38154909 95.83081028 -31.3984375 94.71679688 C-32.68982492 94.00730399 -33.98148291 93.29830331 -35.2734375 92.58984375 C-35.87255951 92.25959702 -36.47168152 91.92935028 -37.08895874 91.58909607 C-40.32397344 89.82854754 -43.54859347 88.28728792 -47 87 Z M-72 96 C-72.35715088 96.88034912 -72.71430176 97.76069824 -73.08227539 98.66772461 C-74.14412504 101.2849144 -75.20648781 103.9018954 -76.26904297 106.51879883 C-77.46614649 109.46726307 -78.66158075 112.41639683 -79.85595703 115.3659668 C-84.87789281 127.75682361 -84.87789281 127.75682361 -87.45703125 133.8046875 C-87.79017334 134.58980713 -88.12331543 135.37492676 -88.46655273 136.18383789 C-89.05561306 137.56411657 -89.65233447 138.94116057 -90.25805664 140.31420898 C-91.88421813 144.04673793 -91.88421813 144.04673793 -91 148 C-88.48370662 149.57801449 -85.99663768 150.99225275 -83.375 152.375 C-81.73629608 153.26045573 -80.09831082 154.14724241 -78.4609375 155.03515625 C-77.58147461 155.50969238 -76.70201172 155.98422852 -75.79589844 156.47314453 C-69.86523488 159.71191242 -64.01158305 163.09004968 -58.14599609 166.44482422 C-52.18882428 169.83017736 -46.16135508 173.0020196 -40 176 C-39.505 174.02 -39.505 174.02 -39 172 C-42.48783514 168.75283938 -42.48783514 168.75283938 -47 168 C-47.33 167.01 -47.66 166.02 -48 165 C-49.48437429 163.6178613 -49.48437429 163.6178613 -51.3671875 162.35546875 C-52.07955566 161.84975342 -52.79192383 161.34403809 -53.52587891 160.82299805 C-54.30108887 160.28328369 -55.07629883 159.74356934 -55.875 159.1875 C-57.50591865 158.03225213 -59.13610108 156.87596435 -60.765625 155.71875 C-61.61833984 155.11546875 -62.47105469 154.5121875 -63.34960938 153.890625 C-67.81226194 150.70724424 -72.21779129 147.44698937 -76.625 144.1875 C-77.46015137 143.57092529 -78.29530273 142.95435059 -79.15576172 142.3190918 C-81.10445587 140.88022327 -83.05254404 139.44054367 -85 138 C-84.37600484 133.36580336 -82.46280503 129.54995283 -80.3671875 125.43359375 C-79.6363877 123.96435733 -78.9059291 122.49495115 -78.17578125 121.02539062 C-77.023631 118.72330675 -75.86778455 116.42323931 -74.70556641 114.1262207 C-73.58232364 111.90039525 -72.47392334 109.66766194 -71.3671875 107.43359375 C-70.83918045 106.4053373 -70.83918045 106.4053373 -70.30050659 105.35630798 C-68.43136778 101.62146601 -68.43136778 101.62146601 -68.28955078 97.53540039 C-68.52399902 97.02871826 -68.75844727 96.52203613 -69 96 C-69.99 96 -70.98 96 -72 96 Z M-74 116 C-73 118 -73 118 -73 118 Z M-69 117 C-69.89112037 118.30892435 -70.73850924 119.64781004 -71.5625 121 C-72.01753906 121.7425 -72.47257812 122.485 -72.94140625 123.25 C-73.46541016 124.11625 -73.46541016 124.11625 -74 125 C-69.84153126 130.01443619 -65.48604574 134.5376556 -60.6875 138.9375 C-60.03177002 139.54287598 -59.37604004 140.14825195 -58.70043945 140.77197266 C-56.80418603 142.51894606 -54.90241668 144.25974465 -53 146 C-52.0409375 146.88558594 -51.081875 147.77117187 -50.09375 148.68359375 C-46.55314505 152.47958709 -46.55314505 152.47958709 -42 154 C-41.7525 154.5775 -41.505 155.155 -41.25 155.75 C-39.83316683 158.3002997 -38.12372463 160.01785701 -36 162 C-34.68 161.34 -33.36 160.68 -32 160 C-33.67401978 156.04322598 -36.13149285 153.15535787 -39 150 C-39.66 150 -40.32 150 -41 150 C-41.24363281 149.43796875 -41.48726562 148.8759375 -41.73828125 148.296875 C-43.24180936 145.55980215 -45.06699748 143.54204059 -47.1875 141.25 C-48.39986328 139.92548828 -48.39986328 139.92548828 -49.63671875 138.57421875 C-50.41660156 137.72472656 -51.19648437 136.87523437 -52 136 C-56.91313938 130.52116866 -61.57678106 124.86693075 -66.1796875 119.125 C-66.78039062 118.42375 -67.38109375 117.7225 -68 117 C-68.33 117 -68.66 117 -69 117 Z M-75 118 C-74 120 -74 120 -74 120 Z M-76 120 C-75 122 -75 122 -75 122 Z M-79 127 C-79.69965443 128.26418246 -80.38434763 129.53665402 -81.0625 130.8125 C-81.44535156 131.52019531 -81.82820313 132.22789062 -82.22265625 132.95703125 C-83.30263511 135.14697801 -83.30263511 135.14697801 -82 138 C-80.30270824 139.56115641 -80.30270824 139.56115641 -78.16796875 141.0390625 C-77.37495361 141.61527344 -76.58193848 142.19148437 -75.76489258 142.78515625 C-74.91435303 143.39230469 -74.06381348 143.99945313 -73.1875 144.625 C-71.44503227 145.8876342 -69.70284451 147.15065485 -67.9609375 148.4140625 C-67.10983398 149.02797852 -66.25873047 149.64189453 -65.38183594 150.27441406 C-62.33289691 152.48330101 -59.31985133 154.73482277 -56.3125 157 C-54.92998047 158.04027344 -54.92998047 158.04027344 -53.51953125 159.1015625 C-52.68808594 159.72804687 -51.85664062 160.35453125 -51 161 C-49.50029751 162.12539658 -48.00032908 163.2504389 -46.5 164.375 C-44.61783893 165.7866208 -42.74832775 167.20002309 -40.90625 168.6640625 C-39.11498969 170.19130425 -39.11498969 170.19130425 -37 170 C-36.67 168.35 -36.34 166.7 -36 165 C-36.94875 164.175 -37.8975 163.35 -38.875 162.5 C-39.40867188 162.0359375 -39.94234375 161.571875 -40.4921875 161.09375 C-41.95936421 159.80427542 -41.95936421 159.80427542 -44 160 C-44.26554687 159.40832031 -44.53109375 158.81664062 -44.8046875 158.20703125 C-47.97975583 152.34456849 -54.04550189 148.04541375 -59.03125 143.75 C-60.93023071 142.06201714 -62.72005988 140.31230266 -64.5 138.5 C-70.95903175 131.55951096 -70.95903175 131.55951096 -79 127 Z M-32 161 C-32.33 161.99 -32.66 162.98 -33 164 C-31.68 165.32 -30.36 166.64 -29 168 C-28.01 167.67 -27.02 167.34 -26 167 C-26.4640625 166.071875 -26.4640625 166.071875 -26.9375 165.125 C-27.625 163.75 -28.3125 162.375 -29 161 C-29.99 161 -30.98 161 -32 161 Z M-35 168 C-35.33 169.32 -35.66 170.64 -36 172 C-33.525 172.99 -33.525 172.99 -31 174 C-31 172.68 -31 171.36 -31 170 C-32.32 169.34 -33.64 168.68 -35 168 Z M-25 168 C-25 169.32 -25 170.64 -25 172 C-23.515 172.99 -23.515 172.99 -22 174 C-21.67 173.01 -21.34 172.02 -21 171 C-21.66 170.01 -22.32 169.02 -23 168 C-23.66 168 -24.32 168 -25 168 Z M-37 174 C-37 175.32 -37 176.64 -37 178 C-35.68 178 -34.36 178 -33 178 C-34.32 176.68 -35.64 175.36 -37 174 Z M-29 174 C-29 174.99 -29 175.98 -29 177 C-27.68 177.66 -26.36 178.32 -25 179 C-25.26676204 177.01508358 -25.26676204 177.01508358 -26 175 C-26.99 174.67 -27.98 174.34 -29 174 Z M-20 174 C-19.67 175.32 -19.34 176.64 -19 178 C-18.01 178 -17.02 178 -16 178 C-16.66 176.68 -17.32 175.36 -18 174 C-18.66 174 -19.32 174 -20 174 Z " fill="#252325" transform="translate(133,17)"/>
<path d="M0 0 C0.99 0.99 0.99 0.99 2 2 C1.34 2 0.68 2 0 2 C0 2.66 0 3.32 0 4 C0.99 4.495 0.99 4.495 2 5 C1.34 5 0.68 5 0 5 C-0.226875 5.763125 -0.45375 6.52625 -0.6875 7.3125 C-2.18349013 11.51551989 -4.08951696 15.42229609 -6.07421875 19.4140625 C-7.06611688 22.1846809 -7.04475584 23.30263037 -6 26 C-5.34 26 -4.68 26 -4 26 C-4 26.66 -4 27.32 -4 28 C-4.66 28 -5.32 28 -6 28 C-6 28.99 -6 29.98 -6 31 C-5.34 31 -4.68 31 -4 31 C-3.67 30.34 -3.34 29.68 -3 29 C-2.01 29 -1.02 29 0 29 C0 29.66 0 30.32 0 31 C-0.66 31 -1.32 31 -2 31 C-2.33 31.99 -2.66 32.98 -3 34 C-3.66 34 -4.32 34 -5 34 C-5.98753064 35.72440365 -6.96468806 37.45475026 -7.9375 39.1875 C-8.48277344 40.15042969 -9.02804688 41.11335938 -9.58984375 42.10546875 C-10.90579333 44.80662842 -11.57301887 47.04356101 -12 50 C-12.99 50.33 -13.98 50.66 -15 51 C-15.91212144 48.52628846 -16.27837096 46.73838559 -15.33251953 44.22949219 C-14.29800104 42.24046753 -13.202929 40.30524677 -12.0625 38.375 C-9.02460625 33.51296842 -9.02460625 33.51296842 -8 28 C-8.66 28 -9.32 28 -10 28 C-11.31456549 30.76987033 -12.6267287 33.54083487 -13.9375 36.3125 C-14.31068359 37.09818359 -14.68386719 37.88386719 -15.06835938 38.69335938 C-15.42607422 39.45068359 -15.78378906 40.20800781 -16.15234375 40.98828125 C-16.6472229 42.03302612 -16.6472229 42.03302612 -17.15209961 43.09887695 C-18.10496694 45.15220735 -18.10496694 45.15220735 -19 48 C-18.34 48.66 -17.68 49.32 -17 50 C-17.61875 50.12375 -18.2375 50.2475 -18.875 50.375 C-21.19120832 50.87197356 -21.19120832 50.87197356 -23 53 C-23.33 51.35 -23.66 49.7 -24 48 C-25.32 47.67 -26.64 47.34 -28 47 C-28.84442881 48.89091736 -29.67511587 50.78797515 -30.5 52.6875 C-30.9640625 53.74324219 -31.428125 54.79898438 -31.90625 55.88671875 C-32.94950801 58.85627816 -33.23065301 60.89195063 -33 64 C-33.99 64 -34.98 64 -36 64 C-36.09748535 64.65452148 -36.1949707 65.30904297 -36.29541016 65.98339844 C-37.21796483 69.93318552 -38.72103505 73.52595717 -40.2734375 77.265625 C-40.59784821 78.05845886 -40.92225891 78.85129272 -41.25650024 79.66815186 C-42.29179377 82.19718477 -43.33288791 84.7237699 -44.375 87.25 C-45.40944492 89.76215432 -46.44250423 92.27484594 -47.47207642 94.78900146 C-48.11134785 96.34966579 -48.75339172 97.90919862 -49.39877319 99.46734619 C-51.49398875 104.57697966 -53.31468795 109.74126936 -55 115 C-53.96746094 115.57105469 -52.93492188 116.14210938 -51.87109375 116.73046875 C-41.90458643 122.2509677 -31.97066919 127.82685855 -22.05834961 133.4440918 C-21.14061768 133.96398682 -20.22288574 134.48388184 -19.27734375 135.01953125 C-18.39473877 135.52154053 -17.51213379 136.0235498 -16.6027832 136.54077148 C-14.86966018 137.51243233 -13.12582217 138.46522664 -11.37182617 139.39868164 C-10.56076416 139.83172607 -9.74970215 140.26477051 -8.9140625 140.7109375 C-8.19557129 141.08653809 -7.47708008 141.46213867 -6.73681641 141.84912109 C-5 143 -5 143 -3.4375 145.8125 C-3.293125 146.534375 -3.14875 147.25625 -3 148 C-4.5 149.1875 -4.5 149.1875 -7 150 C-9.78824238 149.27101296 -12.37665092 148.1843275 -15 147 C-15.33 147.66 -15.66 148.32 -16 149 C-16.33 148.01 -16.66 147.02 -17 146 C-18.65230052 145.017053 -18.65230052 145.017053 -20.734375 144.34594727 C-21.92196411 143.91518639 -21.92196411 143.91518639 -23.13354492 143.47572327 C-23.9969751 143.17564865 -24.86040527 142.87557404 -25.75 142.56640625 C-26.63727783 142.24719711 -27.52455566 141.92798798 -28.4387207 141.59910583 C-31.28868667 140.57590295 -34.14394981 139.56858128 -37 138.5625 C-39.82640419 137.55720765 -42.65156923 136.54858528 -45.47558594 135.53660583 C-47.23373881 134.90761865 -48.99342314 134.28288949 -50.75488281 133.66322327 C-56.29529753 131.6942656 -61.66165764 129.46444844 -67 127 C-66.38138142 121.48755268 -65.04706071 116.52655349 -63.3046875 111.26953125 C-63.03610428 110.44446579 -62.76752106 109.61940033 -62.49079895 108.76933289 C-61.62477898 106.11507779 -60.75020919 103.46373774 -59.875 100.8125 C-59.28073527 98.99878655 -58.68674139 97.18498434 -58.09301758 95.37109375 C-54.20753398 83.52925728 -50.24080595 71.72004554 -46 60 C-46.66 59.67 -47.32 59.34 -48 59 C-47.53811279 58.59225342 -47.07622559 58.18450684 -46.6003418 57.7644043 C-44.81008475 55.79061518 -44.20056485 54.2951032 -43.39453125 51.76953125 C-43.13349609 50.96708984 -42.87246094 50.16464844 -42.60351562 49.33789062 C-42.21196289 48.08782227 -42.21196289 48.08782227 -41.8125 46.8125 C-41.53986328 45.96751953 -41.26722656 45.12253906 -40.98632812 44.25195312 C-40.3160113 42.170443 -39.65426485 40.08660012 -39 38 C-35.30973516 38.63261683 -32.57274103 39.57090359 -29 41 C-25.7 32.75 -22.4 24.5 -19 16 C-14.80825346 17.04793663 -13.78407039 17.91763635 -11 21 C-10.18595703 19.35451172 -10.18595703 19.35451172 -9.35546875 17.67578125 C-8.6329203 16.22130061 -7.91025804 14.7668765 -7.1875 13.3125 C-6.83107422 12.59126953 -6.47464844 11.87003906 -6.10742188 11.12695312 C-4.21193781 7.31859523 -2.25792874 3.61126143 0 0 Z M-17 19 C-19.74512473 24.17350429 -22.06611969 29.44640493 -24.25 34.875 C-24.65532959 35.87478882 -24.65532959 35.87478882 -25.06884766 36.89477539 C-26.51404008 40.3405171 -26.51404008 40.3405171 -27 44 C-24.525 44.99 -24.525 44.99 -22 46 C-21.16855469 44.33710937 -21.16855469 44.33710937 -20.3203125 42.640625 C-14 30 -14 30 -12.87060547 27.88574219 C-11.83470701 26.03286747 -11.83470701 26.03286747 -12.125 23.9375 C-13.25008681 21.44623634 -14.73274047 20.46274809 -17 19 Z M-38 41 C-38.84080019 43.41429769 -39.67281402 45.83103993 -40.5 48.25 C-40.85771484 49.27287109 -40.85771484 49.27287109 -41.22265625 50.31640625 C-42.39421287 53.76413003 -43 56.31702904 -43 60 C-42.67 60.33 -42.34 60.66 -42 61 C-42.99 61.33 -43.98 61.66 -45 62 C-46.22237122 64.51048093 -46.22237122 64.51048093 -47.17651367 67.66552734 C-47.57670212 68.87703461 -47.97689056 70.08854187 -48.38920593 71.33676147 C-48.81584705 72.66969639 -49.24209173 74.00275825 -49.66796875 75.3359375 C-50.11116059 76.69525852 -50.55529042 78.05427405 -51.00032043 79.41299438 C-51.93135243 82.26387799 -52.85437304 85.11718623 -53.77124023 87.97265625 C-54.94699864 91.63390309 -56.1370277 95.29029928 -57.33240795 98.94518089 C-58.24986835 101.75260352 -59.16240182 104.56160603 -60.07317543 107.37120438 C-60.51046725 108.71990585 -60.94866432 110.06831416 -61.38777733 111.4164238 C-62.0003389 113.30135588 -62.60616302 115.18847348 -63.21166992 117.07568359 C-63.73104378 118.68665421 -63.73104378 118.68665421 -64.26091003 120.33016968 C-65.13339802 123.02016929 -65.13339802 123.02016929 -65 126 C-49.02925504 132.08008193 -33.05610819 138.14804099 -17 144 C-15.81277344 144.433125 -14.62554687 144.86625 -13.40234375 145.3125 C-10.9357047 146.21059361 -8.46845686 147.10691786 -6 148 C-6 147.01 -6 146.02 -6 145 C-7.12277344 144.45214844 -8.24554688 143.90429688 -9.40234375 143.33984375 C-14.22795313 140.92545134 -18.89155483 138.26116923 -23.5625 135.5625 C-25.40074554 134.50599501 -27.23929942 133.45002638 -29.078125 132.39453125 C-30.51381836 131.57009521 -30.51381836 131.57009521 -31.97851562 130.72900391 C-37.24485625 127.71541112 -42.52869767 124.73283821 -47.8125 121.75 C-49.33435913 120.89063843 -49.33435913 120.89063843 -50.88696289 120.01391602 C-53.25773634 118.67551989 -55.62873278 117.33752104 -58 116 C-55.99955383 109.75852425 -53.74323484 103.66976734 -51.26953125 97.6015625 C-50.91541672 96.72712494 -50.56130219 95.85268738 -50.19645691 94.95175171 C-49.44893209 93.10743951 -48.70007603 91.26366638 -47.94995117 89.42041016 C-46.83009053 86.66823063 -45.71447728 83.91436147 -44.59960938 81.16015625 C-43.86484898 79.34885055 -43.12982396 77.53765218 -42.39453125 75.7265625 C-42.03408722 74.83745178 -41.67364319 73.94834106 -41.30227661 73.0322876 C-39.45914786 68.50602169 -37.57882144 64.00058162 -35.63037109 59.51855469 C-35.25345627 58.64621185 -34.87654144 57.77386902 -34.48820496 56.87509155 C-33.76997504 55.2194227 -33.04370628 53.567211 -32.30830383 51.9190979 C-30.26311809 47.57953179 -30.26311809 47.57953179 -31 43 C-33.60242414 41.35179805 -34.86248779 41 -38 41 Z " fill="#555456" transform="translate(97,49)"/>
<path d="M0 0 C0.66 0 1.32 0 2 0 C1.4462315 4.48332304 0.29248782 7.84736584 -1.79296875 11.84375 C-2.34017578 12.92527344 -2.88738281 14.00679687 -3.45117188 15.12109375 C-4.61118181 17.37848091 -5.78051155 19.63110252 -6.95898438 21.87890625 C-7.50232422 22.96042969 -8.04566406 24.04195312 -8.60546875 25.15625 C-9.11231201 26.13400391 -9.61915527 27.11175781 -10.14135742 28.11914062 C-11.23053831 31.77348652 -10.30871809 33.49887123 -9 37 C-10.375 40.375 -10.375 40.375 -12 43 C-7.14846216 47.95261155 -2.24269756 52.7369832 3.02734375 57.2421875 C5.15736017 59.14022194 7.13638866 61.14228682 9.125 63.1875 C11.41755845 65.52483498 13.36850427 67.24321282 16.125 69.0625 C18.82448934 70.88172108 20.07306767 72.27653724 22 74.8125 C23.39555006 76.65233862 23.39555006 76.65233862 25 78 C28.30966436 78.11812009 28.30966436 78.11812009 31 77 C30.01 77.495 30.01 77.495 29 78 C29.19471111 79.94999129 29.19471111 79.94999129 30 82 C31.9837767 83.28436734 31.9837767 83.28436734 34 84 C34 83.01 34 82.02 34 81 C34.66 81 35.32 81 36 81 C36 81.99 36 82.98 36 84 C36.99 84.495 36.99 84.495 38 85 C37.01 85.495 37.01 85.495 36 86 C36.66 87.32 37.32 88.64 38 90 C38.495 88.515 38.495 88.515 39 87 C39.66 87 40.32 87 41 87 C41 87.99 41 88.98 41 90 C41.66 90.33 42.32 90.66 43 91 C42.34 91 41.68 91 41 91 C40.505 92.485 40.505 92.485 40 94 C40 93.34 40 92.68 40 92 C39.01 92 38.02 92 37 92 C37 92.99 37 93.98 37 95 C37.99 95.33 38.98 95.66 40 96 C38.75 97.5625 38.75 97.5625 37 99 C35.0625 98.75 35.0625 98.75 33 98 C30.98491642 97.26676204 30.98491642 97.26676204 29 97 C28.01 97.66 27.02 98.32 26 99 C24.02 97.68 22.04 96.36 20 95 C20.33 93.02 20.66 91.04 21 89 C19.948125 88.443125 18.89625 87.88625 17.8125 87.3125 C15.3553019 86.01163042 13.74733442 84.74199641 11.78125 82.734375 C8.34965994 79.36062073 4.61358038 76.70339213 0.6875 73.9375 C-0.91106047 72.79814259 -2.50869594 71.6574864 -4.10546875 70.515625 C-4.91419434 69.93748047 -5.72291992 69.35933594 -6.55615234 68.76367188 C-10.44934537 65.95403887 -14.28990194 63.07570333 -18.125 60.1875 C-18.81762939 59.66599365 -19.51025879 59.1444873 -20.22387695 58.60717773 C-21.81692836 57.40612414 -23.4086316 56.20328265 -25 55 C-24.37240673 50.37630268 -22.47934936 46.5505107 -20.40234375 42.43359375 C-19.67635001 40.96423336 -18.9504411 39.49483105 -18.22460938 38.02539062 C-17.07918006 35.72443902 -15.93115391 33.4248172 -14.78100586 31.1262207 C-13.66896626 28.89857651 -12.56652326 26.66637514 -11.46484375 24.43359375 C-11.11800034 23.74808945 -10.77115692 23.06258514 -10.4138031 22.35630798 C-8.71465876 18.90424567 -8 16.92850902 -8 13 C-7.03455202 11.9666026 -6.02848579 10.97067862 -5 10 C-4.04969568 8.30015988 -3.15596017 6.567809 -2.3125 4.8125 C-1.87550781 3.91144531 -1.43851563 3.01039062 -0.98828125 2.08203125 C-0.66214844 1.39496094 -0.33601563 0.70789063 0 0 Z M-13 33 C-12 35 -12 35 -12 35 Z M-14 35 C-13 37 -13 37 -13 37 Z M-15 37 C-14 39 -14 39 -14 39 Z M-18 44 C-18.69965443 45.26418246 -19.38434763 46.53665402 -20.0625 47.8125 C-20.44535156 48.52019531 -20.82820313 49.22789062 -21.22265625 49.95703125 C-22.30263511 52.14697801 -22.30263511 52.14697801 -21 55 C-19.30270824 56.56115641 -19.30270824 56.56115641 -17.16796875 58.0390625 C-16.37495361 58.61527344 -15.58193848 59.19148438 -14.76489258 59.78515625 C-13.91435303 60.39230469 -13.06381348 60.99945313 -12.1875 61.625 C-10.44503227 62.8876342 -8.70284451 64.15065485 -6.9609375 65.4140625 C-6.10983398 66.02797852 -5.25873047 66.64189453 -4.38183594 67.27441406 C-1.33289691 69.48330101 1.68014867 71.73482277 4.6875 74 C6.07001953 75.04027344 6.07001953 75.04027344 7.48046875 76.1015625 C8.31191406 76.72804687 9.14335938 77.35453125 10 78 C11.49970249 79.12539658 12.99967092 80.2504389 14.5 81.375 C16.38216107 82.7866208 18.25167225 84.20002309 20.09375 85.6640625 C21.88501031 87.19130425 21.88501031 87.19130425 24 87 C24.33 85.35 24.66 83.7 25 82 C24.05125 81.175 23.1025 80.35 22.125 79.5 C21.59132812 79.0359375 21.05765625 78.571875 20.5078125 78.09375 C19.04063579 76.80427542 19.04063579 76.80427542 17 77 C16.73445313 76.40832031 16.46890625 75.81664062 16.1953125 75.20703125 C13.02024417 69.34456849 6.95449811 65.04541375 1.96875 60.75 C0.06976929 59.06201714 -1.72005988 57.31230266 -3.5 55.5 C-9.95903175 48.55951096 -9.95903175 48.55951096 -18 44 Z M26 85 C25.67 86.32 25.34 87.64 25 89 C27.475 89.99 27.475 89.99 30 91 C30 89.68 30 88.36 30 87 C28.68 86.34 27.36 85.68 26 85 Z M24 91 C24 92.32 24 93.64 24 95 C25.32 95 26.64 95 28 95 C26.68 93.68 25.36 92.36 24 91 Z M32 91 C32 91.99 32 92.98 32 94 C33.32 94.66 34.64 95.32 36 96 C35.73323796 94.01508358 35.73323796 94.01508358 35 92 C34.01 91.67 33.02 91.34 32 91 Z " fill="#3F3E40" transform="translate(72,100)"/>
<path d="M0 0 C3.94726798 3.49954546 6.34399625 7.57457047 9 12.0625 C9.97920486 13.69086486 10.95971682 15.3184443 11.94140625 16.9453125 C12.44559082 17.78223633 12.94977539 18.61916016 13.46923828 19.48144531 C15.91019302 23.49753608 18.42057432 27.46872384 20.9375 31.4375 C21.68483398 32.61711304 21.68483398 32.61711304 22.44726562 33.82055664 C23.45908755 35.41691083 24.47129472 37.01302089 25.48388672 38.60888672 C26.99303022 40.98900773 28.49911376 43.37103231 30.00390625 45.75390625 C30.74713135 46.93049805 30.74713135 46.93049805 31.50537109 48.13085938 C32.49545351 49.7002419 33.48408018 51.27054383 34.47119141 52.84179688 C37.09509509 57.01299758 39.75165682 61.15843197 42.45703125 65.27734375 C43.01841797 66.14101562 43.57980469 67.0046875 44.15820312 67.89453125 C45.23915302 69.55615671 46.32992115 71.2114472 47.43164062 72.859375 C47.91439453 73.60574219 48.39714844 74.35210937 48.89453125 75.12109375 C49.32612549 75.7752124 49.75771973 76.42933105 50.20239258 77.10327148 C51.22356386 79.53163992 50.95106685 80.57447469 50 83 C48.4499215 85.20442683 46.87988142 87.28572625 45.1875 89.375 C44.70047607 89.98569336 44.21345215 90.59638672 43.71166992 91.22558594 C39.67172569 96.25507507 35.48828861 101.15721636 31.26782227 106.03540039 C27.83866213 110.00153065 24.52722217 114.0404935 21.2734375 118.15234375 C18.13203807 122.08718942 14.94397543 125.98277808 11.75 129.875 C11.14687988 130.61339111 10.54375977 131.35178223 9.92236328 132.11254883 C7.08233485 135.56771871 4.25604719 138.92126231 1 142 C0.01 141.34 -0.98 140.68 -2 140 C-1.154375 139.03320312 -0.30875 138.06640625 0.5625 137.0703125 C6.21014688 130.59536708 11.81017721 124.11043926 17.1328125 117.36328125 C21.84336657 111.40117829 26.71116584 105.56320643 31.54296875 99.69921875 C32.47568604 98.56722046 32.47568604 98.56722046 33.42724609 97.41235352 C34.66022226 95.91639991 35.89360414 94.42078058 37.12744141 92.92553711 C38.25564609 91.55725174 39.37959507 90.1854423 40.49853516 88.80957031 C41.77828668 87.26720962 43.12331049 85.7793949 44.48046875 84.3046875 C46.20849455 82.13222952 46.20849455 82.13222952 46.0390625 79.64453125 C44.61033713 76.00826404 42.55487473 72.90385938 40.375 69.6875 C39.3691616 68.16924702 38.36537201 66.64963538 37.36328125 65.12890625 C36.8213916 64.30793457 36.27950195 63.48696289 35.72119141 62.64111328 C32.59705259 57.84722198 29.58480132 52.98348464 26.5625 48.125 C25.28016062 46.06757574 23.99760968 44.01028334 22.71484375 41.953125 C22.09077637 40.95216797 21.46670898 39.95121094 20.82373047 38.91992188 C13.30850911 26.88751927 5.69793538 14.91624845 -2 3 C-1.34 2.67 -0.68 2.34 0 2 C0 1.34 0 0.68 0 0 Z " fill="#383738" transform="translate(124,47)"/>
<path d="M0 0 C3.04488954 3.79374868 6.05965657 7.61045237 9.0625 11.4375 C10.04163615 12.68491979 11.02080371 13.93231492 12 15.1796875 C12.74636719 16.13053223 12.74636719 16.13053223 13.5078125 17.10058594 C14.94113641 18.9250722 16.37642568 20.74799066 17.8125 22.5703125 C22.99660502 29.15148055 28.14861429 35.75418882 33.2265625 42.41796875 C35.36582336 45.20639017 37.56253989 47.94386163 39.7734375 50.67578125 C40.42078857 51.4843457 41.06813965 52.29291016 41.73510742 53.12597656 C43.01931455 54.72862595 44.31352304 56.32332102 45.6184082 57.90917969 C46.20195068 58.64168945 46.78549316 59.37419922 47.38671875 60.12890625 C48.17888794 61.10452515 48.17888794 61.10452515 48.98706055 62.09985352 C50 64 50 64 49.81860352 66.01098633 C48.93239096 68.16427404 47.89861663 69.821881 46.515625 71.6953125 C45.74134155 72.75480103 45.74134155 72.75480103 44.95141602 73.83569336 C44.38994873 74.59116455 43.82848145 75.34663574 43.25 76.125 C42.05579402 77.75376288 40.86178907 79.38267317 39.66796875 81.01171875 C39.05614746 81.8423584 38.44432617 82.67299805 37.81396484 83.52880859 C35.57177297 86.58338008 33.3578315 89.65761439 31.14624023 92.734375 C23.84906206 102.88540565 16.43453761 112.94932616 9 123 C7.68 122.34 6.36 121.68 5 121 C5.69996094 120.34644531 6.39992188 119.69289063 7.12109375 119.01953125 C10.56101861 115.57477334 13.26566837 111.65741532 16.0625 107.6875 C17.21488082 106.07071218 18.36855393 104.45484478 19.5234375 102.83984375 C20.10319336 102.0288623 20.68294922 101.21788086 21.28027344 100.38232422 C23.86606441 96.80024751 26.52321229 93.27386146 29.1875 89.75 C33.0574438 84.6098913 36.90828608 79.45731346 40.6875 74.25 C41.10990967 73.67733398 41.53231934 73.10466797 41.9675293 72.51464844 C44.99052661 68.61107426 44.99052661 68.61107426 46 64 C44.2089168 61.25978822 44.2089168 61.25978822 41.625 58.5 C40.68629014 57.42667088 39.75014792 56.35109148 38.81640625 55.2734375 C38.34090332 54.7278418 37.86540039 54.18224609 37.37548828 53.62011719 C35.32433668 51.20417079 33.44492688 48.67362151 31.5625 46.125 C28.29613688 41.71425966 24.96363451 37.36925853 21.5625 33.0625 C17.50690008 27.92550125 13.47845458 22.76980797 9.51269531 17.56298828 C7.64441589 15.1136179 5.75133117 12.70001856 3.78515625 10.328125 C3.13417969 9.53921875 2.48320313 8.7503125 1.8125 7.9375 C1.24144531 7.26589844 0.67039062 6.59429687 0.08203125 5.90234375 C-1 4 -1 4 -0.67578125 1.75390625 C-0.45277344 1.17511719 -0.22976562 0.59632812 0 0 Z " fill="#3F3E40" transform="translate(109,63)"/>
<path d="M0 0 C4.39704421 0.70204908 6.64871128 2.03171571 10 5 C9.34 5.33 8.68 5.66 8 6 C5.64018187 5.06421005 3.30368736 4.06652192 1 3 C0.80664062 3.78503906 0.61328125 4.57007812 0.4140625 5.37890625 C-0.96653221 10.9491275 -2.37388447 16.49622437 -4 22 C-2.68 22.66 -1.36 23.32 0 24 C-1.65 24 -3.3 24 -5 24 C-11.93 45.12 -18.86 66.24 -26 88 C-22.7 88.99 -19.4 89.98 -16 91 C-13.0194114 92.04663263 -10.05608331 93.11021956 -7.09765625 94.21484375 C-6.29444443 94.51185684 -5.4912326 94.80886993 -4.66368103 95.11488342 C-2.1288783 96.05288247 0.40434903 96.99505055 2.9375 97.9375 C4.62944991 98.56474286 6.32150651 99.191698 8.01367188 99.81835938 C8.8375943 100.12359528 9.66151672 100.42883118 10.51040649 100.74331665 C12.13171999 101.34378745 13.75311735 101.94403184 15.37460327 102.54403687 C18.7647411 103.79890115 22.15295783 105.057647 25.53564453 106.33251953 C26.5151709 106.69845215 27.49469727 107.06438477 28.50390625 107.44140625 C29.31802979 107.74892822 30.13215332 108.0564502 30.97094727 108.37329102 C33.12379247 109.14755583 33.12379247 109.14755583 36 109 C35.34 109.99 34.68 110.98 34 112 C30.7 111.01 27.4 110.02 24 109 C23.67 109.66 23.34 110.32 23 111 C22.67 110.01 22.34 109.02 22 108 C20.34769948 107.017053 20.34769948 107.017053 18.265625 106.34594727 C17.47389893 106.05877335 16.68217285 105.77159943 15.86645508 105.47572327 C15.0030249 105.17564865 14.13959473 104.87557404 13.25 104.56640625 C12.36272217 104.24719711 11.47544434 103.92798798 10.5612793 103.59910583 C7.71131333 102.57590295 4.85605019 101.56858128 2 100.5625 C-0.82640419 99.55720765 -3.65156923 98.54858528 -6.47558594 97.53660583 C-8.23373881 96.90761865 -9.99342314 96.28288949 -11.75488281 95.66322327 C-17.29529753 93.6942656 -22.66165764 91.46444844 -28 89 C-27.38138142 83.48755268 -26.04706071 78.52655349 -24.3046875 73.26953125 C-24.03610428 72.44446579 -23.76752106 71.61940033 -23.49079895 70.76933289 C-22.62477898 68.11507779 -21.75020919 65.46373774 -20.875 62.8125 C-20.28073527 60.99878655 -19.68674139 59.18498434 -19.09301758 57.37109375 C-15.20753398 45.52925728 -11.24080595 33.72004554 -7 22 C-7.66 21.67 -8.32 21.34 -9 21 C-8.53811279 20.59225342 -8.07622559 20.18450684 -7.6003418 19.7644043 C-5.81008475 17.79061518 -5.20056485 16.2951032 -4.39453125 13.76953125 C-4.13349609 12.96708984 -3.87246094 12.16464844 -3.60351562 11.33789062 C-3.34248047 10.50451172 -3.08144531 9.67113281 -2.8125 8.8125 C-2.53986328 7.96751953 -2.26722656 7.12253906 -1.98632812 6.25195312 C-1.3160113 4.170443 -0.65426485 2.08660012 0 0 Z " fill="#79787A" transform="translate(58,87)"/>
<path d="M0 0 C0.71414062 0.71542969 1.42828125 1.43085937 2.1640625 2.16796875 C3.98554339 3.99009056 5.81444996 5.80363867 7.6484375 7.61328125 C8.99808594 8.94939453 8.99808594 8.94939453 10.375 10.3125 C11.26960938 11.19550781 12.16421875 12.07851562 13.0859375 12.98828125 C15.20682662 15.13016211 17.17896109 17.35759514 19.1328125 19.65234375 C22.10695336 23.08933681 25.26982795 26.2914428 28.53125 29.453125 C29.25847763 30.16144722 29.25847763 30.16144722 30.00039673 30.88407898 C32.01343022 32.84294392 34.02789353 34.79975578 36.06054688 36.73828125 C37.5621826 38.1736405 39.04765828 39.62415459 40.53125 41.078125 C41.41361328 41.92793945 42.29597656 42.77775391 43.20507812 43.65332031 C45 46 45 46 44.9050293 48.08544922 C44.00877493 49.98143701 43.0909914 51.77008603 41.98828125 53.5546875 C41.56691895 54.24119385 41.14555664 54.9277002 40.71142578 55.63500977 C40.24978027 56.37420654 39.78813477 57.11340332 39.3125 57.875 C38.59296143 59.04083618 38.59296143 59.04083618 37.85888672 60.23022461 C33.27066955 67.63516626 28.58187568 74.97764475 23.8605957 82.29833984 C20.35637248 87.7576463 17.07115116 93.2853594 14 99 C13.67 98.34 13.34 97.68 13 97 C12.01 97 11.02 97 10 97 C11 95 11 95 12.71484375 93.44921875 C15.98326543 89.94614116 18.1643775 85.94255655 20.5625 81.8125 C24.9870384 74.30462853 29.54954897 66.92169589 34.34594727 59.64575195 C34.76803467 59.003396 35.19012207 58.36104004 35.625 57.69921875 C35.98851562 57.15096436 36.35203125 56.60270996 36.7265625 56.0378418 C38.57692194 53.07677004 40.27911898 50.03809019 42 47 C41.53059494 46.53281555 41.06118988 46.0656311 40.57756042 45.58428955 C35.69182737 40.72068261 30.80961992 35.8535572 25.92944336 30.984375 C24.10775458 29.16771448 22.28516922 27.35195256 20.46166992 25.53710938 C17.84057075 22.92814162 15.22271438 20.3159578 12.60546875 17.703125 C11.78974899 16.89256653 10.97402924 16.08200806 10.1335907 15.24688721 C9.37302872 14.48640076 8.61246674 13.72591431 7.82885742 12.94238281 C7.16045334 12.27619934 6.49204926 11.61001587 5.8033905 10.92364502 C4 9 4 9 2.44819641 6.87860107 C0.96205138 4.74336642 0.96205138 4.74336642 -2 3 C-1.34 3 -0.68 3 0 3 C0 2.01 0 1.02 0 0 Z " fill="#4A494B" transform="translate(98,82)"/>
<path d="M0 0 C0.66 0.66 1.32 1.32 2 2 C1.34 2 0.68 2 0 2 C0 2.66 0 3.32 0 4 C0.66 4.33 1.32 4.66 2 5 C1.34 5 0.68 5 0 5 C-0.226875 5.763125 -0.45375 6.52625 -0.6875 7.3125 C-2.18349013 11.51551989 -4.08951696 15.42229609 -6.07421875 19.4140625 C-7.06611688 22.1846809 -7.04475584 23.30263037 -6 26 C-5.34 26 -4.68 26 -4 26 C-4 26.66 -4 27.32 -4 28 C-4.66 28 -5.32 28 -6 28 C-6 28.99 -6 29.98 -6 31 C-5.34 31 -4.68 31 -4 31 C-3.67 30.34 -3.34 29.68 -3 29 C-2.01 29 -1.02 29 0 29 C0 29.66 0 30.32 0 31 C-0.66 31 -1.32 31 -2 31 C-2.33 31.99 -2.66 32.98 -3 34 C-3.66 34 -4.32 34 -5 34 C-5.98753064 35.72440365 -6.96468806 37.45475026 -7.9375 39.1875 C-8.75541016 40.63189453 -8.75541016 40.63189453 -9.58984375 42.10546875 C-10.90579333 44.80662842 -11.57301887 47.04356101 -12 50 C-13.485 50.495 -13.485 50.495 -15 51 C-15.91212144 48.52628846 -16.27837096 46.73838559 -15.33251953 44.22949219 C-14.29800104 42.24046753 -13.202929 40.30524677 -12.0625 38.375 C-9.02460625 33.51296842 -9.02460625 33.51296842 -8 28 C-8.66 28 -9.32 28 -10 28 C-10.83144531 29.77117187 -10.83144531 29.77117187 -11.6796875 31.578125 C-12.41143263 33.13542874 -13.14320489 34.69271974 -13.875 36.25 C-14.23980469 37.02730469 -14.60460937 37.80460937 -14.98046875 38.60546875 C-15.33496094 39.35957031 -15.68945312 40.11367187 -16.0546875 40.890625 C-16.37937012 41.58188477 -16.70405273 42.27314453 -17.03857422 42.98535156 C-18.00143101 45.00299865 -18.99396213 47.00358243 -20 49 C-20.66 49 -21.32 49 -22 49 C-21.37536604 42.65291303 -18.57346094 37.68103434 -15.70703125 32.1015625 C-15.34738281 31.37453125 -14.98773438 30.6475 -14.6171875 29.8984375 C-14.28315918 29.24536621 -13.94913086 28.59229492 -13.60498047 27.91943359 C-12.85084571 25.5267752 -13.10279218 24.32193783 -14 22 C-15.31328657 20.64691687 -16.64499081 19.31129922 -18 18 C-18 17.34 -18 16.68 -18 16 C-15.09457188 17.3024333 -13.1907039 18.70886268 -11 21 C-10.45730469 19.90300781 -9.91460937 18.80601563 -9.35546875 17.67578125 C-8.6329203 16.22130061 -7.91025804 14.7668765 -7.1875 13.3125 C-6.83107422 12.59126953 -6.47464844 11.87003906 -6.10742188 11.12695312 C-4.21193781 7.31859523 -2.25792874 3.61126143 0 0 Z " fill="#49484A" transform="translate(97,49)"/>
<path d="M0 0 C3.96875 3.59375 3.96875 3.59375 4.25 7.25 C4.1675 8.1575 4.085 9.065 4 10 C3.34 9.67 2.68 9.34 2 9 C2 8.34 2 7.68 2 7 C-0.27246338 9.0913455 -1.69102273 11.02258757 -3.04296875 13.79296875 C-3.39423828 14.50517578 -3.74550781 15.21738281 -4.10742188 15.95117188 C-4.46384766 16.68916016 -4.82027344 17.42714844 -5.1875 18.1875 C-5.55552734 18.93708984 -5.92355469 19.68667969 -6.30273438 20.45898438 C-7.20728218 22.30332212 -8.10437576 24.15131245 -9 26 C-8.34 26.66 -7.68 27.32 -7 28 C-7.66 28 -8.32 28 -9 28 C-9.33 28.99 -9.66 29.98 -10 31 C-10 30.34 -10 29.68 -10 29 C-13.13969114 31.67598291 -14.81843627 35.08594296 -16.6875 38.6875 C-17.00783203 39.29400391 -17.32816406 39.90050781 -17.65820312 40.52539062 C-18.44371484 42.01434566 -19.22252942 43.50683047 -20 45 C-20.66 45 -21.32 45 -22 45 C-22 45.66 -22 46.32 -22 47 C-22.66 47 -23.32 47 -24 47 C-24 46.01 -24 45.02 -24 44 C-23.34 44 -22.68 44 -22 44 C-21.89945312 43.12214844 -21.79890625 42.24429688 -21.6953125 41.33984375 C-20.95829561 37.79967834 -19.77815962 35.61198134 -17.875 32.5625 C-15.20318385 27.96510978 -15.20318385 27.96510978 -15.125 22.8125 C-15.558125 21.4203125 -15.558125 21.4203125 -16 20 C-16.66 20 -17.32 20 -18 20 C-18 19.34 -18 18.68 -18 18 C-14.73045798 18.56371414 -13.17424117 19.49962266 -11 22 C-10.76539062 21.18273437 -10.53078125 20.36546875 -10.2890625 19.5234375 C-8.73266343 15.26928005 -6.63830042 11.53626604 -4.375 7.625 C-3.95476562 6.88894531 -3.53453125 6.15289062 -3.1015625 5.39453125 C-2.07247236 3.5936235 -1.03689244 1.79642682 0 0 Z " fill="#3F3E3F" transform="translate(115,33)"/>
<path d="M0 0 C9.29853025 4.47171186 18.42726912 9.2212493 27.4375 14.25 C28.36715576 14.75692383 29.29681152 15.26384766 30.25463867 15.78613281 C31.11806885 16.27436523 31.98149902 16.76259766 32.87109375 17.265625 C33.64380615 17.69649414 34.41651855 18.12736328 35.21264648 18.57128906 C37 20 37 20 37.91430664 21.78515625 C38.04047415 25.04610103 36.86537887 27.22081059 35.5 30.171875 C35.09288033 31.06526329 35.09288033 31.06526329 34.67753601 31.97669983 C33.79557674 33.90618071 32.89790576 35.82789576 32 37.75 C31.39566152 39.06543507 30.79255339 40.38143608 30.19067383 41.69799805 C29.00602446 44.2875328 27.81660388 46.87478365 26.62353516 49.46044922 C24.59230403 53.88883852 22.62476745 58.34237194 20.6875 62.8125 C20.40455078 63.46250977 20.12160156 64.11251953 19.83007812 64.78222656 C19.21865785 66.18754526 18.60904845 67.59365175 18 69 C16.68 69 15.36 69 14 69 C15 67 15 67 17 65 C17.91943725 63.09214952 18.7801439 61.15578318 19.609375 59.20703125 C20.11436523 58.0252832 20.61935547 56.84353516 21.13964844 55.62597656 C21.6766526 54.35491076 22.21343278 53.08375031 22.75 51.8125 C23.29436029 50.53212617 23.83895667 49.2518527 24.38378906 47.97167969 C28.0403862 39.36033159 31.59744177 30.71499707 35 22 C34.33581055 21.64284912 33.67162109 21.28569824 32.98730469 20.91772461 C8.63075082 7.80801859 8.63075082 7.80801859 -1 2 C-0.67 1.34 -0.34 0.68 0 0 Z " fill="#737273" transform="translate(87,102)"/>
<path d="M0 0 C0.66 0 1.32 0 2 0 C1.4462315 4.48332304 0.29248782 7.84736584 -1.79296875 11.84375 C-2.34017578 12.92527344 -2.88738281 14.00679687 -3.45117188 15.12109375 C-4.61118181 17.37848091 -5.78051155 19.63110252 -6.95898438 21.87890625 C-7.50232422 22.96042969 -8.04566406 24.04195312 -8.60546875 25.15625 C-9.11231201 26.13400391 -9.61915527 27.11175781 -10.14135742 28.11914062 C-11.22830882 31.76600627 -10.28307143 33.50242434 -9 37 C-10.875 39.875 -10.875 39.875 -13 42 C-13 41.34 -13 40.68 -13 40 C-15.05270463 41.84188612 -15.05270463 41.84188612 -16 44 C-16.66 44 -17.32 44 -18 44 C-18.66 45.32 -19.32 46.64 -20 48 C-21.18291253 45.15516202 -21.02567235 44.06821194 -19.92016602 41.13085938 C-19.37030029 40.04611328 -18.82043457 38.96136719 -18.25390625 37.84375 C-17.96394272 37.25960327 -17.67397919 36.67545654 -17.37522888 36.0736084 C-16.44880676 34.20990261 -15.50709532 32.35455307 -14.5625 30.5 C-13.6228875 28.64483678 -12.68696303 26.78815039 -11.76048279 24.9263916 C-10.91876373 23.23628092 -10.0643032 21.55253374 -9.20922852 19.86914062 C-7.74108268 16.90459121 -7.74108268 16.90459121 -8 13 C-7.03455202 11.9666026 -6.02848579 10.97067862 -5 10 C-4.04969568 8.30015988 -3.15596017 6.567809 -2.3125 4.8125 C-1.87550781 3.91144531 -1.43851563 3.01039062 -0.98828125 2.08203125 C-0.66214844 1.39496094 -0.33601563 0.70789063 0 0 Z M-13 33 C-12 35 -12 35 -12 35 Z M-14 35 C-13 37 -13 37 -13 37 Z M-15 37 C-14 39 -14 39 -14 39 Z " fill="#454445" transform="translate(72,100)"/>
<path d="M0 0 C2.08636475 3.66784668 2.08636475 3.66784668 1.30908203 6.65722656 C0.87966309 7.64174805 0.45024414 8.62626953 0.0078125 9.640625 C-0.44980469 10.71054688 -0.90742187 11.78046875 -1.37890625 12.8828125 C-1.87261719 13.99398437 -2.36632812 15.10515625 -2.875 16.25 C-3.36097656 17.37664062 -3.84695312 18.50328125 -4.34765625 19.6640625 C-5.55133683 22.44904895 -6.76914669 25.22694128 -8 28 C-5.525 28.99 -5.525 28.99 -3 30 C-3 30.99 -3 31.98 -3 33 C-1.515 32.505 -1.515 32.505 0 32 C0.66 32.66 1.32 33.32 2 34 C1.38125 34.12375 0.7625 34.2475 0.125 34.375 C-2.19120832 34.87197356 -2.19120832 34.87197356 -4 37 C-4.33 35.35 -4.66 33.7 -5 32 C-6.32 31.67 -7.64 31.34 -9 31 C-9.84442881 32.89091736 -10.67511587 34.78797515 -11.5 36.6875 C-12.19609375 38.27111328 -12.19609375 38.27111328 -12.90625 39.88671875 C-13.94950801 42.85627816 -14.23065301 44.89195063 -14 48 C-14.99 48 -15.98 48 -17 48 C-17.495 50.475 -17.495 50.475 -18 53 C-20.10064948 49.56077686 -20.10064948 49.56077686 -19.66000366 47.10568237 C-19.38338898 46.45189606 -19.10677429 45.79810974 -18.82177734 45.12451172 C-18.51420502 44.37628143 -18.20663269 43.62805115 -17.88973999 42.85714722 C-17.54198517 42.05608551 -17.19423035 41.2550238 -16.8359375 40.4296875 C-16.48745758 39.59341827 -16.13897766 38.75714905 -15.77993774 37.89553833 C-14.65943993 35.21566936 -13.51775697 32.54544261 -12.375 29.875 C-11.6274652 28.09956439 -10.88135509 26.3235282 -10.13671875 24.546875 C-8.7515915 21.24466383 -7.35687599 17.94681049 -5.95458984 14.65185547 C-3.89785603 9.79645031 -1.94117044 4.90256446 0 0 Z " fill="#585759" transform="translate(78,65)"/>
<path d="M0 0 C0.66 0 1.32 0 2 0 C2.391875 0.680625 2.78375 1.36125 3.1875 2.0625 C6.92551512 8.12066244 12.60040293 12.57159845 17.95703125 17.171875 C20.10781276 19.0964749 22.11339491 21.11842048 24.125 23.1875 C27.20794007 26.32527497 30.23336518 28.74001911 34 31 C33.67 31.66 33.34 32.32 33 33 C32.01 32.505 32.01 32.505 31 32 C30.67 32.66 30.34 33.32 30 34 C29.5875 33.57589844 29.175 33.15179688 28.75 32.71484375 C25.59901858 29.51462825 22.40362098 26.43163447 19 23.5 C15.77643868 20.72277794 12.77424388 17.80654038 9.8046875 14.76171875 C7.21155433 12.23032685 4.41788974 9.9538529 1.6015625 7.67578125 C-0.22075989 5.76900977 -0.71368357 4.60335862 -1 2 C-0.67 1.34 -0.34 0.68 0 0 Z " fill="#363537" transform="translate(57,140)"/>
<path d="M0 0 C0.66 0 1.32 0 2 0 C2 0.99 2 1.98 2 3 C2.78375 2.814375 3.5675 2.62875 4.375 2.4375 C7 2 7 2 9 3 C9 2.01 9 1.02 9 0 C9.66 0 10.32 0 11 0 C11 0.99 11 1.98 11 3 C11.66 3.33 12.32 3.66 13 4 C12.34 4 11.68 4 11 4 C10.67 4.99 10.34 5.98 10 7 C10 6.34 10 5.68 10 5 C9.01 5 8.02 5 7 5 C7 5.99 7 6.98 7 8 C7.99 8.33 8.98 8.66 10 9 C8.75 10.5625 8.75 10.5625 7 12 C5.0625 11.75 5.0625 11.75 3 11 C0.98491642 10.26676204 0.98491642 10.26676204 -1 10 C-1.99 10.66 -2.98 11.32 -4 12 C-5.98 10.68 -7.96 9.36 -10 8 C-9.34 6.02 -8.68 4.04 -8 2 C-5.36 2.33 -2.72 2.66 0 3 C0 2.01 0 1.02 0 0 Z M-6 4 C-6 5.32 -6 6.64 -6 8 C-4.68 8 -3.36 8 -2 8 C-3.32 6.68 -4.64 5.36 -6 4 Z M2 4 C2 4.99 2 5.98 2 7 C3.32 7.66 4.64 8.32 6 9 C5.73323796 7.01508358 5.73323796 7.01508358 5 5 C4.01 4.67 3.02 4.34 2 4 Z " fill="#4B4A4B" transform="translate(102,187)"/>
<path d="M0 0 C3.43595166 1.52708963 6.11912454 3.59927045 9 6 C8.43479188 11.47817098 6.45276401 15.75139975 4.0625 20.625 C3.70220703 21.37523438 3.34191406 22.12546875 2.97070312 22.8984375 C1.3427187 26.28032779 -0.31773456 29.6447969 -2 33 C-2.66 33 -3.32 33 -4 33 C-3.37536604 26.65291303 -0.57346094 21.68103434 2.29296875 16.1015625 C2.65261719 15.37453125 3.01226562 14.6475 3.3828125 13.8984375 C3.71684082 13.24536621 4.05086914 12.59229492 4.39501953 11.91943359 C5.14915429 9.5267752 4.89720782 8.32193783 4 6 C2.68671343 4.64691687 1.35500919 3.31129922 0 2 C0 1.34 0 0.68 0 0 Z " fill="#454446" transform="translate(79,65)"/>
<path d="M0 0 C3.29577465 6.54929577 3.29577465 6.54929577 4 10 C2.125 12.875 2.125 12.875 0 15 C0 14.34 0 13.68 0 13 C-2.05270463 14.84188612 -2.05270463 14.84188612 -3 17 C-3.66 17 -4.32 17 -5 17 C-5.66 18.32 -6.32 19.64 -7 21 C-7.80784795 18.66570847 -8.11635505 17.37757053 -7.37915039 14.98535156 C-7.03875732 14.2940918 -6.69836426 13.60283203 -6.34765625 12.890625 C-5.98349609 12.13652344 -5.61933594 11.38242188 -5.24414062 10.60546875 C-4.65922852 9.43951172 -4.65922852 9.43951172 -4.0625 8.25 C-3.67642578 7.45722656 -3.29035156 6.66445312 -2.89257812 5.84765625 C-1.93892633 3.89325875 -0.9708351 1.94591894 0 0 Z M0 6 C1 8 1 8 1 8 Z M-1 8 C0 10 0 10 0 10 Z M-2 10 C-1 12 -1 12 -1 12 Z " fill="#4B4A4C" transform="translate(59,127)"/>
<path d="M0 0 C0.6953125 1.61328125 0.6953125 1.61328125 1 4 C-0.2578125 6.98046875 -0.2578125 6.98046875 -2.125 10.1875 C-2.72570312 11.25355469 -3.32640625 12.31960937 -3.9453125 13.41796875 C-6 16 -6 16 -8.7421875 16.86328125 C-9.48726563 16.90839844 -10.23234375 16.95351562 -11 17 C-10.690625 16.236875 -10.38125 15.47375 -10.0625 14.6875 C-9.32106407 12.81210323 -8.63771783 10.91315348 -8 9 C-8.66 9 -9.32 9 -10 9 C-10 7.68 -10 6.36 -10 5 C-9.34 5 -8.68 5 -8 5 C-8 5.99 -8 6.98 -8 8 C-5.7522025 5.94766315 -4.9977758 4.99332739 -4 2 C-1.9375 0.8125 -1.9375 0.8125 0 0 Z " fill="#1A191B" transform="translate(90,92)"/>
<path d="M0 0 C0.33 0.99 0.66 1.98 1 3 C0.02783203 4.59399414 0.02783203 4.59399414 -1.4921875 6.28515625 C-2.03230469 6.89810547 -2.57242188 7.51105469 -3.12890625 8.14257812 C-3.99322266 9.09293945 -3.99322266 9.09293945 -4.875 10.0625 C-5.99896603 11.32282019 -7.12143362 12.58447877 -8.2421875 13.84765625 C-8.7460498 14.40461182 -9.24991211 14.96156738 -9.76904297 15.53540039 C-11.09718173 17.00009286 -11.09718173 17.00009286 -12 19 C-12.99 19 -13.98 19 -15 19 C-14.42668386 14.94856594 -12.31883596 12.59621288 -9.75 9.5 C-8.98171875 8.5615625 -8.2134375 7.623125 -7.421875 6.65625 C-5.11009232 4.12074641 -2.73785807 2.05824791 0 0 Z " fill="#323132" transform="translate(162,141)"/>
<path d="M0 0 C3.96875 3.59375 3.96875 3.59375 4.25 7.25 C4.1675 8.1575 4.085 9.065 4 10 C3.34 9.67 2.68 9.34 2 9 C2 8.34 2 7.68 2 7 C-0.40575607 9.18517099 -1.79535581 11.25919671 -3.1875 14.1875 C-3.53167969 14.90292969 -3.87585938 15.61835937 -4.23046875 16.35546875 C-4.48441406 16.89816406 -4.73835938 17.44085938 -5 18 C-5.99 17.34 -6.98 16.68 -8 16 C-6.57250019 12.20950293 -4.83763458 8.72877544 -2.875 5.1875 C-2.33617188 4.21167969 -1.79734375 3.23585937 -1.2421875 2.23046875 C-0.83226563 1.49441406 -0.42234375 0.75835937 0 0 Z " fill="#403F41" transform="translate(115,33)"/>
<path d="M0 0 C0.96772222 2.5708765 1.1658888 3.6230413 0.0390625 6.18359375 C-0.42757812 6.92738281 -0.89421875 7.67117187 -1.375 8.4375 C-3.37526042 11.65020878 -4.43057262 14.24575205 -5 18 C-5.99 18.33 -6.98 18.66 -8 19 C-9.18341392 15.52167842 -9.06726728 14.16267503 -7.63671875 10.703125 C-6.99347656 9.56359375 -6.35023437 8.4240625 -5.6875 7.25 C-5.05199219 6.10015625 -4.41648437 4.9503125 -3.76171875 3.765625 C-2 1 -2 1 0 0 Z " fill="#363536" transform="translate(90,81)"/>
<path d="M0 0 C5.33333333 5.33333333 10.66666667 10.66666667 16 16 C15.01 16.66 14.02 17.32 13 18 C11.55935235 16.58653438 10.12260985 15.16908789 8.6875 13.75 C7.88699219 12.96109375 7.08648437 12.1721875 6.26171875 11.359375 C4 9 4 9 2.39453125 6.828125 C0.95439146 4.73478594 0.95439146 4.73478594 -2 3 C-1.34 3 -0.68 3 0 3 C0 2.01 0 1.02 0 0 Z " fill="#686669" transform="translate(98,82)"/>
<path d="M0 0 C3.0831351 1.19899698 6.06279492 2.47700477 9 4 C9 4.99 9 5.98 9 7 C6.95221819 6.48805455 4.94129302 5.98043101 2.9375 5.3125 C0.67889722 4.72287634 0.67889722 4.72287634 -2 7 C-4.03833424 5.7260411 -6.03852126 4.38938077 -8 3 C-8 2.34 -8 1.68 -8 1 C-5.69 1.66 -3.38 2.32 -1 3 C-0.67 2.01 -0.34 1.02 0 0 Z " fill="#49484A" transform="translate(100,192)"/>
<path d="M0 0 C0.33 0.66 0.66 1.32 1 2 C1.66 2 2.32 2 3 2 C2.35334574 5.491933 1.13457576 8.15389899 -1 11 C-2.32 11 -3.64 11 -5 11 C-3.77472971 6.94718288 -2.30119506 3.55639236 0 0 Z " fill="#353335" transform="translate(79,99)"/>
<path d="M0 0 C4.42323682 0.58265272 7.5155864 2.26766211 11.3125 4.5625 C12.38113281 5.20316406 13.44976562 5.84382812 14.55078125 6.50390625 C15.35902344 6.99761719 16.16726562 7.49132812 17 8 C15.421875 8.71484375 15.421875 8.71484375 13 9 C10.61505544 7.94290501 8.48765933 6.8682111 6.25 5.5625 C5.64800781 5.22412109 5.04601563 4.88574219 4.42578125 4.53710938 C2.94431935 3.70231735 1.47129392 2.85258506 0 2 C0 1.34 0 0.68 0 0 Z " fill="#504F50" transform="translate(46,168)"/>
<path d="M0 0 C0.6175196 5.09453672 -1.22939021 7.88366546 -4 12 C-4.99 12.33 -5.98 12.66 -7 13 C-7 11.35 -7 9.7 -7 8 C-6.34 8 -5.68 8 -5 8 C-4.896875 7.236875 -4.79375 6.47375 -4.6875 5.6875 C-4.07941453 3.31043863 -2.99324645 0 0 0 Z " fill="#272627" transform="translate(109,48)"/>
<path d="M0 0 C5.99291003 0.41330414 9.25036599 1.31903365 14 5 C13.67 5.99 13.34 6.98 13 8 C8.20983041 5.76537994 4.01254885 3.51098025 0 0 Z " fill="#5C5A5C" transform="translate(78,187)"/>
<path d="M0 0 C0.88336837 2.4667645 1.1312406 3.63859372 0.22265625 6.140625 C-0.16019531 6.83671875 -0.54304688 7.5328125 -0.9375 8.25 C-1.31777344 8.95640625 -1.69804688 9.6628125 -2.08984375 10.390625 C-2.39019531 10.92171875 -2.69054687 11.4528125 -3 12 C-3.99 11.34 -4.98 10.68 -6 10 C-2.62068966 1.31034483 -2.62068966 1.31034483 0 0 Z " fill="#3A393B" transform="translate(113,39)"/>
<path d="M0 0 C4.01767292 2.06312934 6.05263153 3.90027691 8 8 C8 8.99 8 9.98 8 11 C7.01 11 6.02 11 5 11 C5 9.68 5 8.36 5 7 C4.360625 6.773125 3.72125 6.54625 3.0625 6.3125 C1 5 1 5 0.25 2.375 C0.1675 1.59125 0.085 0.8075 0 0 Z " fill="#2C2B2D" transform="translate(167,118)"/>
<path d="M0 0 C5.28663545 2.15381444 8.77870367 6.42236838 12 11 C9 11 9 11 6.73828125 9.1015625 C5.93777344 8.28429687 5.13726562 7.46703125 4.3125 6.625 C3.50425781 5.81289062 2.69601563 5.00078125 1.86328125 4.1640625 C0 2 0 2 0 0 Z " fill="#4E4D4F" transform="translate(112,99)"/>
<path d="M0 0 C3.875 2.75 3.875 2.75 5 5 C4.34 5 3.68 5 3 5 C3 5.99 3 6.98 3 8 C3.66 8 4.32 8 5 8 C5.33 7.34 5.66 6.68 6 6 C6.99 6 7.98 6 9 6 C9 6.66 9 7.32 9 8 C8.34 8 7.68 8 7 8 C6.67 8.99 6.34 9.98 6 11 C4.35 10.67 2.7 10.34 1 10 C1.04125 9.21625 1.0825 8.4325 1.125 7.625 C1.28728734 4.83883881 1.28728734 4.83883881 -1 3 C-0.67 2.01 -0.34 1.02 0 0 Z " fill="#565556" transform="translate(88,72)"/>
<path d="M0 0 C0.66 0 1.32 0 2 0 C2 0.99 2 1.98 2 3 C2.66 3.33 3.32 3.66 4 4 C2.125 5.0625 2.125 5.0625 0 6 C-0.66 5.67 -1.32 5.34 -2 5 C-2.33 5.66 -2.66 6.32 -3 7 C-3.99 6.34 -4.98 5.68 -6 5 C-6.66 5.66 -7.32 6.32 -8 7 C-8.33 6.34 -8.66 5.68 -9 5 C-8.34 4.01 -7.68 3.02 -7 2 C-4.69 2.33 -2.38 2.66 0 3 C0 2.01 0 1.02 0 0 Z " fill="#5F5E5F" transform="translate(102,187)"/>
<path d="M0 0 C0.99 0 1.98 0 3 0 C2.49381745 4.38691545 -0.13082981 6.84391279 -3 10 C-3.33 10 -3.66 10 -4 10 C-4.39801392 6.5173782 -4.12373826 5.19200764 -2.1875 2.1875 C-1.465625 1.465625 -0.74375 0.74375 0 0 Z " fill="#2F2E2F" transform="translate(137,169)"/>
<path d="M0 0 C1.10844919 3.32534757 0.84454356 5.62182575 0 9 C-0.99 9.33 -1.98 9.66 -3 10 C-3.78260048 7.18263828 -4.19511109 5.54030762 -3.1875 2.75 C-2 1 -2 1 0 0 Z " fill="#444244" transform="translate(85,90)"/>
<path d="M0 0 C0.93045933 2.55144824 1.08564091 3.74006478 0.22265625 6.359375 C-0.16019531 7.14828125 -0.54304688 7.9371875 -0.9375 8.75 C-1.50791016 9.94882813 -1.50791016 9.94882813 -2.08984375 11.171875 C-2.39019531 11.77515625 -2.69054687 12.3784375 -3 13 C-3.66 13 -4.32 13 -5 13 C-4.48474397 7.71862571 -2.74522883 4.42778844 0 0 Z " fill="#333133" transform="translate(80,85)"/>
<path d="M0 0 C4.40114397 0.50298788 6.71195019 2.08772731 10 5 C9.01 5.495 9.01 5.495 8 6 C5.64018187 5.06421005 3.30368736 4.06652192 1 3 C0.34 4.32 -0.32 5.64 -1 7 C-0.67 4.69 -0.34 2.38 0 0 Z " fill="#727172" transform="translate(58,87)"/>
<path d="M0 0 C0.66 0.99 1.32 1.98 2 3 C0.35 5.97 -1.3 8.94 -3 12 C-3.33 11.34 -3.66 10.68 -4 10 C-4.99 10 -5.98 10 -7 10 C-6 8 -6 8 -4.0625 6.125 C-2.12827329 4.13216036 -1.08298563 2.52696647 0 0 Z " fill="#585759" transform="translate(115,169)"/>
<path d="M0 0 C2.475 0.99 2.475 0.99 5 2 C5 2.99 5 3.98 5 5 C5.99 4.67 6.98 4.34 8 4 C8.66 4.66 9.32 5.32 10 6 C9.38125 6.12375 8.7625 6.2475 8.125 6.375 C5.80879168 6.87197356 5.80879168 6.87197356 4 9 C3.9175 8.236875 3.835 7.47375 3.75 6.6875 C2.85384206 3.47626739 1.78388975 2.70625501 -1 1 C-0.67 0.67 -0.34 0.34 0 0 Z " fill="#6D6C6E" transform="translate(70,93)"/>
<path d="M0 0 C0.07089844 0.62390625 0.14179688 1.2478125 0.21484375 1.890625 C0.80004532 4.19229321 0.80004532 4.19229321 3.06640625 5.046875 C3.89011719 5.27890625 4.71382812 5.5109375 5.5625 5.75 C6.38878906 5.99234375 7.21507812 6.2346875 8.06640625 6.484375 C8.70449219 6.65453125 9.34257813 6.8246875 10 7 C5.41201223 8.53271273 3.22055258 7.02911182 -1 5 C-0.67 3.35 -0.34 1.7 0 0 Z " fill="#717071" transform="translate(31,171)"/>
<path d="M0 0 C0.66 0.99 1.32 1.98 2 3 C0.35 5.31 -1.3 7.62 -3 10 C-3.99 9.34 -4.98 8.68 -6 8 C-4.02 5.36 -2.04 2.72 0 0 Z " fill="#454446" transform="translate(154,131)"/>
<path d="M0 0 C0.99 0.33 1.98 0.66 3 1 C1.35 4.63 -0.3 8.26 -2 12 C-2.66 11.67 -3.32 11.34 -4 11 C-3.52269162 9.5410574 -3.04308958 8.08286504 -2.5625 6.625 C-2.29566406 5.81289062 -2.02882813 5.00078125 -1.75390625 4.1640625 C-1 2 -1 2 0 0 Z " fill="#7B7A7B" transform="translate(122,125)"/>
<path d="M0 0 C1.875 0.3125 1.875 0.3125 4 1 C6 4 6 4 6 8 C4.125 7.375 4.125 7.375 2 6 C0.75 2.875 0.75 2.875 0 0 Z " fill="#2C2B2D" transform="translate(147,87)"/>
<path d="M0 0 C3.44137432 1.5294997 6.2222133 3.45369552 9 6 C9 6.99 9 7.98 9 9 C5.18063472 7.44396229 2.73955562 5.04395069 0 2 C0 1.34 0 0.68 0 0 Z " fill="#383739" transform="translate(79,65)"/>
<path d="M0 0 C2.72426311 2.35277269 3.8141763 4.62496331 5 8 C4.01 8.33 3.02 8.66 2 9 C0.02 5.535 0.02 5.535 -2 2 C-1.34 2 -0.68 2 0 2 C0 1.34 0 0.68 0 0 Z " fill="#3E3D3E" transform="translate(131,58)"/>
<path d="M0 0 C3.0831351 1.19899698 6.06279492 2.47700477 9 4 C9 4.99 9 5.98 9 7 C5.13066838 6.42676569 2.84777943 4.61046448 0 2 C0 1.34 0 0.68 0 0 Z " fill="#302E30" transform="translate(100,192)"/>
<path d="M0 0 C0.66 0 1.32 0 2 0 C3.6875 1.75 3.6875 1.75 5 4 C4.875 6.125 4.875 6.125 4 8 C3.01 8.66 2.02 9.32 1 10 C1.020625 9.0925 1.04125 8.185 1.0625 7.25 C1.0110245 4.57327412 0.7784983 2.53011948 0 0 Z " fill="#343334" transform="translate(154,123)"/>
<path d="M0 0 C2 3 2 3 1.5390625 5.48046875 C1.23742188 6.37378906 0.93578125 7.26710937 0.625 8.1875 C0.32851563 9.08855469 0.03203125 9.98960937 -0.2734375 10.91796875 C-0.63308594 11.94857422 -0.63308594 11.94857422 -1 13 C-2.53690745 10.58959839 -3.09752136 9.49917715 -2.5390625 6.640625 C-2.23742188 5.85171875 -1.93578125 5.0628125 -1.625 4.25 C-1.32851563 3.45078125 -1.03203125 2.6515625 -0.7265625 1.828125 C-0.48679688 1.22484375 -0.24703125 0.6215625 0 0 Z " fill="#808081" transform="translate(41,138)"/>
<path d="M0 0 C2.72426311 2.35277269 3.8141763 4.62496331 5 8 C4.01 8 3.02 8 2 8 C-0.1875 5.5 -0.1875 5.5 -2 3 C-1.34 2.67 -0.68 2.34 0 2 C0 1.34 0 0.68 0 0 Z " fill="#403F40" transform="translate(165,112)"/>
<path d="M0 0 C0.66 0 1.32 0 2 0 C3.2890625 1.75 3.2890625 1.75 4.625 4 C5.07101563 4.7425 5.51703125 5.485 5.9765625 6.25 C6.31429687 6.8275 6.65203125 7.405 7 8 C6.01 8 5.02 8 4 8 C0 3.77142857 0 3.77142857 0 0 Z " fill="#353436" transform="translate(116,74)"/>
<path d="M0 0 C5.57142857 5.14285714 5.57142857 5.14285714 6 9 C5.34 9 4.68 9 4 9 C2.98594743 7.67732273 1.98731742 6.34275169 1 5 C0.01 4.34 -0.98 3.68 -2 3 C-1.34 3 -0.68 3 0 3 C0 2.01 0 1.02 0 0 Z " fill="#575658" transform="translate(98,82)"/>
<path d="M0 0 C0.33 0 0.66 0 1 0 C0.6875 3.375 0.6875 3.375 0 7 C-0.99 7.66 -1.98 8.32 -3 9 C-3.25873987 5.89512156 -3.23307327 4.37494396 -1.5625 1.6875 C-1.046875 1.130625 -0.53125 0.57375 0 0 Z " fill="#373638" transform="translate(132,175)"/>
<path d="M0 0 C1.32 0.33 2.64 0.66 4 1 C3.67 1.99 3.34 2.98 3 4 C2.34 4 1.68 4 1 4 C0.34 5.32 -0.32 6.64 -1 8 C-1.93065133 5.39417629 -2.14917407 4.35801776 -1.0625 1.75 C-0.711875 1.1725 -0.36125 0.595 0 0 Z " fill="#5C5B5C" transform="translate(53,140)"/>
<path d="M0 0 C1.37562854 1.28965176 2.70766393 2.62689293 4 4 C4 4.66 4 5.32 4 6 C3.34 6 2.68 6 2 6 C1.67 6.66 1.34 7.32 1 8 C0.01 6.02 -0.98 4.04 -2 2 C-1.34 2 -0.68 2 0 2 C0 1.34 0 0.68 0 0 Z " fill="#454445" transform="translate(124,47)"/>
<path d="M0 0 C0.33 0 0.66 0 1 0 C1 2.97 1 5.94 1 9 C2.32 9.66 3.64 10.32 5 11 C3.02 11 1.04 11 -1 11 C-2.41687119 6.74938644 -1.19320039 4.28148375 0 0 Z " fill="#9E9D9F" transform="translate(23,176)"/>
<path d="M0 0 C0.66 0 1.32 0 2 0 C1.51421457 3.12290635 1.0013988 5.99580359 0 9 C-0.66 9 -1.32 9 -2 9 C-1.51421457 5.87709365 -1.0013988 3.00419641 0 0 Z " fill="#525052" transform="translate(45,146)"/>
<path d="M0 0 C0.33 0.99 0.66 1.98 1 3 C-0.65 4.65 -2.3 6.3 -4 8 C-4 7.34 -4 6.68 -4 6 C-4.66 5.67 -5.32 5.34 -6 5 C-4.02 3.35 -2.04 1.7 0 0 Z " fill="#2E2D2F" transform="translate(162,141)"/>
<path d="M0 0 C0.66 1.32 1.32 2.64 2 4 C0.625 5.5 0.625 5.5 -1 7 C-1.66 7 -2.32 7 -3 7 C-3.99 7.495 -3.99 7.495 -5 8 C-3.62845496 5.04590299 -2.01136276 2.55991624 0 0 Z " fill="#403F40" transform="translate(164,136)"/>
<path d="M0 0 C0.66 0 1.32 0 2 0 C1.125 5.75 1.125 5.75 0 8 C-0.66 8 -1.32 8 -2 8 C-1.125 2.25 -1.125 2.25 0 0 Z " fill="#3F3E3F" transform="translate(62,121)"/>
<path d="M0 0 C4.83628305 0.99043705 9.47618873 1.95698846 14 4 C14 4.66 14 5.32 14 6 C9.27934033 4.45730076 4.58335908 2.92205381 0 1 C0 0.67 0 0.34 0 0 Z " fill="#9D9D9E" transform="translate(92,122)"/>
<path d="M0 0 C1.125 3.75 1.125 3.75 0 6 C-0.66 6 -1.32 6 -2 6 C-2 6.66 -2 7.32 -2 8 C-2.66 8 -3.32 8 -4 8 C-4 7.01 -4 6.02 -4 5 C-3.34 5 -2.68 5 -2 5 C-2 3.68 -2 2.36 -2 1 C-1.34 0.67 -0.68 0.34 0 0 Z " fill="#1E1D1E" transform="translate(95,72)"/>
<path d="M0 0 C3 1 3 1 4.1875 3.0625 C4.455625 3.701875 4.72375 4.34125 5 5 C4.34 5.66 3.68 6.32 3 7 C1.68 5.02 0.36 3.04 -1 1 C-0.67 0.67 -0.34 0.34 0 0 Z " fill="#484749" transform="translate(122,82)"/>
<path d="M0 0 C0.33 0.66 0.66 1.32 1 2 C1.66 2.33 2.32 2.66 3 3 C1.68 4.32 0.36 5.64 -1 7 C-1 6.34 -1 5.68 -1 5 C-1.66 4.67 -2.32 4.34 -3 4 C-2.01 2.68 -1.02 1.36 0 0 Z " fill="#403F40" transform="translate(146,158)"/>
<path d="M0 0 C1.125 1.6875 1.125 1.6875 2 4 C1.125 6.75 1.125 6.75 0 9 C-1.125 7.3125 -1.125 7.3125 -2 5 C-1.125 2.25 -1.125 2.25 0 0 Z " fill="#605F61" transform="translate(51,131)"/>
<path d="M0 0 C1.98 0.99 1.98 0.99 4 2 C4 3.32 4 4.64 4 6 C2.68 5.34 1.36 4.68 0 4 C0 2.68 0 1.36 0 0 Z " fill="#282729" transform="translate(161,108)"/>
<path d="M0 0 C1.9375 0.8125 1.9375 0.8125 4 2 C4.33 2.99 4.66 3.98 5 5 C4.34 5.66 3.68 6.32 3 7 C0 3.375 0 3.375 0 0 Z " fill="#444345" transform="translate(132,95)"/>
<path d="M0 0 C1.32 1.32 2.64 2.64 4 4 C3.67 4.66 3.34 5.32 3 6 C2.01 6 1.02 6 0 6 C-0.66 4.68 -1.32 3.36 -2 2 C-1.34 2 -0.68 2 0 2 C0 1.34 0 0.68 0 0 Z " fill="#464446" transform="translate(153,93)"/>
<path d="M0 0 C1.32 1.32 2.64 2.64 4 4 C3.67 4.66 3.34 5.32 3 6 C2.01 6 1.02 6 0 6 C-0.66 4.68 -1.32 3.36 -2 2 C-1.34 2 -0.68 2 0 2 C0 1.34 0 0.68 0 0 Z " fill="#444344" transform="translate(146,82)"/>
<path d="M0 0 C1.98 0.99 1.98 0.99 4 2 C4 3.32 4 4.64 4 6 C2.68 5.34 1.36 4.68 0 4 C0 2.68 0 1.36 0 0 Z " fill="#2B2A2B" transform="translate(134,65)"/>
<path d="M0 0 C0.33 0 0.66 0 1 0 C0.88490339 1.41750563 0.75746342 2.83401169 0.625 4.25 C0.55539063 5.03890625 0.48578125 5.8278125 0.4140625 6.640625 C-0.01507113 9.085877 -0.78600638 10.84836903 -2 13 C-1.85769192 11.58297487 -1.71099254 10.1663904 -1.5625 8.75 C-1.48128906 7.96109375 -1.40007813 7.1721875 -1.31640625 6.359375 C-1.02365007 4.17635361 -0.57935581 2.1226818 0 0 Z " fill="#9A9A9B" transform="translate(38,115)"/>
<path d="M0 0 C1.13643966 3.40931897 0.86747764 4.00335456 -0.4375 7.1875 C-0.86869141 8.26064453 -0.86869141 8.26064453 -1.30859375 9.35546875 C-1.53675781 9.89816406 -1.76492187 10.44085938 -2 11 C-3.53271273 6.41201223 -2.02911182 4.22055258 0 0 Z " fill="#9F9FA0" transform="translate(104,129)"/>
<path d="M0 0 C3.375 -0.125 3.375 -0.125 7 0 C7.66 0.66 8.32 1.32 9 2 C6.03 1.67 3.06 1.34 0 1 C0 0.67 0 0.34 0 0 Z " fill="#9D9D9F" transform="translate(70,195)"/>
<path d="M0 0 C3.63 0.33 7.26 0.66 11 1 C11 1.33 11 1.66 11 2 C7.37 1.67 3.74 1.34 0 1 C0 0.67 0 0.34 0 0 Z " fill="#A3A2A4" transform="translate(33,188)"/>
<path d="M0 0 C1.0326802 2.78823655 1.04509293 3.8677274 0.0625 6.75 C-0.288125 7.4925 -0.63875 8.235 -1 9 C-2.25541557 5.23375329 -1.37061958 3.62811066 0 0 Z " fill="#9E9E9F" transform="translate(99,143)"/>
<path d="M0 0 C0.99 0.33 1.98 0.66 3 1 C1.68 2.65 0.36 4.3 -1 6 C-0.67 4.02 -0.34 2.04 0 0 Z " fill="#9B9B9D" transform="translate(41,105)"/>
<path d="M0 0 C0.33 0 0.66 0 1 0 C0.67 2.64 0.34 5.28 0 8 C-0.98120464 4.94736336 -0.98120464 3.05263664 0 0 Z " fill="#A09FA0" transform="translate(27,160)"/>
<path d="M0 0 C2.31 0.33 4.62 0.66 7 1 C5.1875 1.625 5.1875 1.625 3 2 C2.01 1.34 1.02 0.68 0 0 Z " fill="#9E9E9F" transform="translate(79,118)"/>
<path d="M0 0 C1.98 0 3.96 0 6 0 C6 0.33 6 0.66 6 1 C4.02 1 2.04 1 0 1 C0 0.67 0 0.34 0 0 Z " fill="#A2A1A3" transform="translate(49,191)"/>
<path d="M0 0 C2.475 0.495 2.475 0.495 5 1 C4.01 1.33 3.02 1.66 2 2 C1.34 1.34 0.68 0.68 0 0 Z " fill="#9B9A9B" transform="translate(44,106)"/>
<path d="M0 0 C1.65 0 3.3 0 5 0 C5 0.33 5 0.66 5 1 C3.35 1 1.7 1 0 1 C0 0.67 0 0.34 0 0 Z " fill="#A09FA1" transform="translate(60,193)"/>
<path d="M0 0 C1.65 0 3.3 0 5 0 C5 0.33 5 0.66 5 1 C3.35 1 1.7 1 0 1 C0 0.67 0 0.34 0 0 Z " fill="#9C9C9D" transform="translate(55,192)"/>
<path d="M0 0 C1.65 0 3.3 0 5 0 C5 0.33 5 0.66 5 1 C3.35 1 1.7 1 0 1 C0 0.67 0 0.34 0 0 Z " fill="#A1A1A3" transform="translate(44,190)"/>
<path d="M0 0 C1.65 0 3.3 0 5 0 C5 0.33 5 0.66 5 1 C3.35 1 1.7 1 0 1 C0 0.67 0 0.34 0 0 Z " fill="#A0A0A2" transform="translate(28,187)"/>
<path d="M0 0 C4 1 4 1 4 1 Z " fill="#A2A2A4" transform="translate(66,194)"/>
<path d="M0 0 C1 4 1 4 1 4 Z " fill="#A2A1A3" transform="translate(24,172)"/>
<path d="M0 0 C1 4 1 4 1 4 Z " fill="#A1A1A3" transform="translate(25,168)"/>
<path d="M0 0 C1 4 1 4 1 4 Z " fill="#A1A1A3" transform="translate(28,156)"/>
<path d="M0 0 C1 4 1 4 1 4 Z " fill="#A09FA1" transform="translate(29,152)"/>
<path d="M0 0 C1 4 1 4 1 4 Z " fill="#9F9EA0" transform="translate(30,148)"/>
<path d="M0 0 C1 4 1 4 1 4 Z " fill="#9D9D9E" transform="translate(31,144)"/>
<path d="M0 0 C1 4 1 4 1 4 Z " fill="#9C9C9D" transform="translate(32,140)"/>
<path d="M0 0 C1 4 1 4 1 4 Z " fill="#A0A0A2" transform="translate(33,136)"/>
<path d="M0 0 C1 4 1 4 1 4 Z " fill="#A4A3A5" transform="translate(34,132)"/>
<path d="M0 0 C1 4 1 4 1 4 Z " fill="#A09FA1" transform="translate(35,128)"/>
<path d="M0 0 C1 4 1 4 1 4 Z " fill="#A0A0A2" transform="translate(39,111)"/>
<path d="" fill="#9D9C9E" transform="translate(0,0)"/>
<path d="" fill="#9D9C9D" transform="translate(0,0)"/>
<path d="" fill="#969697" transform="translate(0,0)"/>
<path d="M0 0 C3 1 3 1 3 1 Z " fill="#9A9A9B" transform="translate(89,121)"/>
<path d="M0 0 C3 1 3 1 3 1 Z " fill="#999899" transform="translate(86,120)"/>
<path d="" fill="#9A9A9B" transform="translate(0,0)"/>
<path d="" fill="#9F9FA1" transform="translate(0,0)"/>
<path d="" fill="#9A999A" transform="translate(0,0)"/>
</svg>
